M48
; DRILL file
; FORMAT={-:-/ absolute / inch / decimal}
; #@! TF.FileFunction,Plated,1,2,PTH
FMAT,2
INCH
; #@! TA.AperFunction,Plated,PTH,ViaDrill
T1C0.0118
; #@! TA.AperFunction,Plated,PTH,ComponentDrill
T2C0.0394
%
G90
G05
T1
X5.05Y-2.42
X5.1Y-2.8
X5.16Y-2.42
X5.2Y-2.8
X5.26Y-2.42
X5.3Y-2.8
X5.35Y-2.42
X5.4Y-2.8
X5.46Y-2.42
X5.5Y-2.8
X5.56Y-2.42
X5.6Y-2.8
X5.65Y-2.42
X5.7Y-2.8
T2
X5.0Y-1.4
X5.0Y-1.5
X5.0Y-1.6
X5.0Y-1.8
X5.0Y-1.9
X5.0Y-2.0
X5.0Y-2.5
X5.0Y-2.6
X5.0Y-2.7
X5.0Y-2.9
X5.0Y-3.0
X5.0Y-3.1
X5.1Y-1.4
X5.1Y-1.5
X5.1Y-1.6
X5.1Y-2.0
X5.1Y-2.5
X5.1Y-2.6
X5.1Y-2.7
X5.1Y-2.9
X5.2Y-1.4
X5.2Y-1.5
X5.2Y-1.6
X5.2Y-2.0
X5.2Y-2.5
X5.2Y-2.6
X5.2Y-2.7
X5.2Y-2.9
X5.3Y-1.4
X5.3Y-1.5
X5.3Y-1.6
X5.3Y-2.0
X5.3Y-2.5
X5.3Y-2.6
X5.3Y-2.7
X5.3Y-2.9
X5.4Y-1.4
X5.4Y-1.5
X5.4Y-1.6
X5.4Y-2.0
X5.4Y-2.5
X5.4Y-2.6
X5.4Y-2.7
X5.4Y-2.9
X5.5Y-1.4
X5.5Y-1.5
X5.5Y-1.6
X5.5Y-2.0
X5.5Y-2.5
X5.5Y-2.6
X5.5Y-2.7
X5.5Y-2.9
X5.6Y-1.4
X5.6Y-1.5
X5.6Y-1.6
X5.6Y-2.0
X5.6Y-2.5
X5.6Y-2.6
X5.6Y-2.7
X5.6Y-2.9
X5.7Y-1.4
X5.7Y-1.5
X5.7Y-1.6
X5.7Y-2.0
X5.7Y-2.5
X5.7Y-2.6
X5.7Y-2.7
X5.7Y-2.9
M30
