%TF.SameCoordinates,Original*%
%TF.FileFunction,Copper,L1,Top*%
%TF.FilePolarity,Positive*%
%FSLAX46Y46*%
G04 Gerber Fmt 4.6, Leading zero omitted, Abs format (unit mm)*
%MOMM*%
%LPD*%
G01*
G04 APERTURE LIST*
G04 Aperture macros list*
%AMRoundRect*
0 Rectangle with rounded corners*
0 $1 Rounding radius*
0 $2 $3 $4 $5 $6 $7 $8 $9 X,Y pos of 4 corners*
0 Add a 4 corners polygon primitive as box body*
4,1,4,$2,$3,$4,$5,$6,$7,$8,$9,$2,$3,0*
0 Add four circle primitives for the rounded corners*
1,1,$1+$1,$2,$3*
1,1,$1+$1,$4,$5*
1,1,$1+$1,$6,$7*
1,1,$1+$1,$8,$9*
0 Add four rect primitives between the rounded corners*
20,1,$1+$1,$2,$3,$4,$5,0*
20,1,$1+$1,$4,$5,$6,$7,0*
20,1,$1+$1,$6,$7,$8,$9,0*
20,1,$1+$1,$8,$9,$2,$3,0*%
G04 Aperture macros list end*
%TA.AperFunction,SMDPad,CuDef*%
%ADD10RoundRect,0.280800X-0.394200X0.469200X-0.394200X-0.469200X0.394200X-0.469200X0.394200X0.469200X0*%
%TD*%
%TA.AperFunction,SMDPad,CuDef*%
%ADD11RoundRect,0.280800X0.394200X-0.469200X0.394200X0.469200X-0.394200X0.469200X-0.394200X-0.469200X0*%
%TD*%
%TA.AperFunction,ComponentPad*%
%ADD12R,1.700000X1.700000*%
%TD*%
%TA.AperFunction,ComponentPad*%
%ADD13O,1.700000X1.700000*%
%TD*%
%TA.AperFunction,ViaPad*%
%ADD14C,0.600000*%
%TD*%
%TA.AperFunction,Conductor*%
%ADD15C,0.200000*%
%TD*%
G04 APERTURE END LIST*
D10*
%TO.P,R2,1*%
%TO.N,Net-(J1-Pin_2)*%
X132715000Y-44520000D03*
%TO.P,R2,2*%
%TO.N,GND*%
X132715000Y-46920000D03*
%TD*%
%TO.P,R8,1*%
%TO.N,Net-(J1-Pin_8)*%
X144145000Y-44520000D03*
%TO.P,R8,2*%
%TO.N,GND*%
X144145000Y-46920000D03*
%TD*%
D11*
%TO.P,R9,1*%
%TO.N,Net-(J6-Pin_1)*%
X130810000Y-57791200D03*
%TO.P,R9,2*%
%TO.N,GND*%
X130810000Y-55391200D03*
%TD*%
%TO.P,R15,1*%
%TO.N,Net-(J6-Pin_7)*%
X142240000Y-57785000D03*
%TO.P,R15,2*%
%TO.N,GND*%
X142240000Y-55385000D03*
%TD*%
D12*
%TO.P,J6,1,Pin_1*%
%TO.N,Net-(J6-Pin_1)*%
X127000000Y-73660000D03*
D13*
%TO.P,J6,2,Pin_2*%
%TO.N,Net-(J6-Pin_2)*%
X129540000Y-73660000D03*
%TO.P,J6,3,Pin_3*%
%TO.N,Net-(J6-Pin_3)*%
X132080000Y-73660000D03*
%TO.P,J6,4,Pin_4*%
%TO.N,Net-(J6-Pin_4)*%
X134620000Y-73660000D03*
%TO.P,J6,5,Pin_5*%
%TO.N,Net-(J6-Pin_5)*%
X137160000Y-73660000D03*
%TO.P,J6,6,Pin_6*%
%TO.N,Net-(J6-Pin_6)*%
X139700000Y-73660000D03*
%TO.P,J6,7,Pin_7*%
%TO.N,Net-(J6-Pin_7)*%
X142240000Y-73660000D03*
%TO.P,J6,8,Pin_8*%
%TO.N,Net-(J6-Pin_8)*%
X144780000Y-73660000D03*
%TD*%
D12*
%TO.P,J9,1,Pin_1*%
%TO.N,GND*%
X127000000Y-66040000D03*
D13*
%TO.P,J9,2,Pin_2*%
X129540000Y-66040000D03*
%TO.P,J9,3,Pin_3*%
X132080000Y-66040000D03*
%TO.P,J9,4,Pin_4*%
X134620000Y-66040000D03*
%TO.P,J9,5,Pin_5*%
X137160000Y-66040000D03*
%TO.P,J9,6,Pin_6*%
X139700000Y-66040000D03*
%TO.P,J9,7,Pin_7*%
X142240000Y-66040000D03*
%TO.P,J9,8,Pin_8*%
X144780000Y-66040000D03*
%TD*%
D10*
%TO.P,R3,1*%
%TO.N,Net-(J1-Pin_3)*%
X134620000Y-44520000D03*
%TO.P,R3,2*%
%TO.N,GND*%
X134620000Y-46920000D03*
%TD*%
D11*
%TO.P,R16,1*%
%TO.N,Net-(J6-Pin_8)*%
X144145000Y-57785000D03*
%TO.P,R16,2*%
%TO.N,GND*%
X144145000Y-55385000D03*
%TD*%
D10*
%TO.P,R7,1*%
%TO.N,Net-(J1-Pin_7)*%
X142240000Y-44520000D03*
%TO.P,R7,2*%
%TO.N,GND*%
X142240000Y-46920000D03*
%TD*%
D11*
%TO.P,R10,1*%
%TO.N,Net-(J6-Pin_2)*%
X132715000Y-57791200D03*
%TO.P,R10,2*%
%TO.N,GND*%
X132715000Y-55391200D03*
%TD*%
D12*
%TO.P,J10,1,Pin_1*%
%TO.N,Net-(J10-Pin_1)*%
X127000000Y-68580000D03*
D13*
%TO.P,J10,2,Pin_2*%
X129540000Y-68580000D03*
%TO.P,J10,3,Pin_3*%
X132080000Y-68580000D03*
%TO.P,J10,4,Pin_4*%
X134620000Y-68580000D03*
%TO.P,J10,5,Pin_5*%
X137160000Y-68580000D03*
%TO.P,J10,6,Pin_6*%
X139700000Y-68580000D03*
%TO.P,J10,7,Pin_7*%
X142240000Y-68580000D03*
%TO.P,J10,8,Pin_8*%
X144780000Y-68580000D03*
%TD*%
D12*
%TO.P,J2,1,Pin_1*%
%TO.N,Net-(J1-Pin_1)*%
X127000000Y-40640000D03*
D13*
%TO.P,J2,2,Pin_2*%
%TO.N,Net-(J1-Pin_2)*%
X129540000Y-40640000D03*
%TO.P,J2,3,Pin_3*%
%TO.N,Net-(J1-Pin_3)*%
X132080000Y-40640000D03*
%TO.P,J2,4,Pin_4*%
%TO.N,Net-(J1-Pin_4)*%
X134620000Y-40640000D03*
%TO.P,J2,5,Pin_5*%
%TO.N,Net-(J1-Pin_5)*%
X137160000Y-40640000D03*
%TO.P,J2,6,Pin_6*%
%TO.N,Net-(J1-Pin_6)*%
X139700000Y-40640000D03*
%TO.P,J2,7,Pin_7*%
%TO.N,Net-(J1-Pin_7)*%
X142240000Y-40640000D03*
%TO.P,J2,8,Pin_8*%
%TO.N,Net-(J1-Pin_8)*%
X144780000Y-40640000D03*
%TD*%
D11*
%TO.P,R11,1*%
%TO.N,Net-(J6-Pin_3)*%
X134620000Y-57791200D03*
%TO.P,R11,2*%
%TO.N,GND*%
X134620000Y-55391200D03*
%TD*%
D10*
%TO.P,R1,1*%
%TO.N,Net-(J1-Pin_1)*%
X130810000Y-44526200D03*
%TO.P,R1,2*%
%TO.N,GND*%
X130810000Y-46926200D03*
%TD*%
D12*
%TO.P,J7,1,Pin_1*%
%TO.N,Net-(J6-Pin_1)*%
X127000000Y-63500000D03*
D13*
%TO.P,J7,2,Pin_2*%
%TO.N,Net-(J6-Pin_2)*%
X129540000Y-63500000D03*
%TO.P,J7,3,Pin_3*%
%TO.N,Net-(J6-Pin_3)*%
X132080000Y-63500000D03*
%TO.P,J7,4,Pin_4*%
%TO.N,Net-(J6-Pin_4)*%
X134620000Y-63500000D03*
%TO.P,J7,5,Pin_5*%
%TO.N,Net-(J6-Pin_5)*%
X137160000Y-63500000D03*
%TO.P,J7,6,Pin_6*%
%TO.N,Net-(J6-Pin_6)*%
X139700000Y-63500000D03*
%TO.P,J7,7,Pin_7*%
%TO.N,Net-(J6-Pin_7)*%
X142240000Y-63500000D03*
%TO.P,J7,8,Pin_8*%
%TO.N,Net-(J6-Pin_8)*%
X144780000Y-63500000D03*
%TD*%
D12*
%TO.P,J1,1,Pin_1*%
%TO.N,Net-(J1-Pin_1)*%
X127000000Y-50800000D03*
D13*
%TO.P,J1,2,Pin_2*%
%TO.N,Net-(J1-Pin_2)*%
X129540000Y-50800000D03*
%TO.P,J1,3,Pin_3*%
%TO.N,Net-(J1-Pin_3)*%
X132080000Y-50800000D03*
%TO.P,J1,4,Pin_4*%
%TO.N,Net-(J1-Pin_4)*%
X134620000Y-50800000D03*
%TO.P,J1,5,Pin_5*%
%TO.N,Net-(J1-Pin_5)*%
X137160000Y-50800000D03*
%TO.P,J1,6,Pin_6*%
%TO.N,Net-(J1-Pin_6)*%
X139700000Y-50800000D03*
%TO.P,J1,7,Pin_7*%
%TO.N,Net-(J1-Pin_7)*%
X142240000Y-50800000D03*
%TO.P,J1,8,Pin_8*%
%TO.N,Net-(J1-Pin_8)*%
X144780000Y-50800000D03*
%TD*%
D10*
%TO.P,R4,1*%
%TO.N,Net-(J1-Pin_4)*%
X136525000Y-44520000D03*
%TO.P,R4,2*%
%TO.N,GND*%
X136525000Y-46920000D03*
%TD*%
D12*
%TO.P,J5,1,Pin_1*%
%TO.N,Net-(J3-Pin_2)*%
X127000000Y-35560000D03*
D13*
%TO.P,J5,2,Pin_2*%
X129540000Y-35560000D03*
%TO.P,J5,3,Pin_3*%
X132080000Y-35560000D03*
%TO.P,J5,4,Pin_4*%
X134620000Y-35560000D03*
%TO.P,J5,5,Pin_5*%
X137160000Y-35560000D03*
%TO.P,J5,6,Pin_6*%
X139700000Y-35560000D03*
%TO.P,J5,7,Pin_7*%
X142240000Y-35560000D03*
%TO.P,J5,8,Pin_8*%
X144780000Y-35560000D03*
%TD*%
D10*
%TO.P,R5,1*%
%TO.N,Net-(J1-Pin_5)*%
X138430000Y-44500800D03*
%TO.P,R5,2*%
%TO.N,GND*%
X138430000Y-46900800D03*
%TD*%
D12*
%TO.P,J4,1,Pin_1*%
%TO.N,GND*%
X127000000Y-38100000D03*
D13*
%TO.P,J4,2,Pin_2*%
X129540000Y-38100000D03*
%TO.P,J4,3,Pin_3*%
X132080000Y-38100000D03*
%TO.P,J4,4,Pin_4*%
X134620000Y-38100000D03*
%TO.P,J4,5,Pin_5*%
X137160000Y-38100000D03*
%TO.P,J4,6,Pin_6*%
X139700000Y-38100000D03*
%TO.P,J4,7,Pin_7*%
X142240000Y-38100000D03*
%TO.P,J4,8,Pin_8*%
X144780000Y-38100000D03*
%TD*%
D11*
%TO.P,R12,1*%
%TO.N,Net-(J6-Pin_4)*%
X136525000Y-57791200D03*
%TO.P,R12,2*%
%TO.N,GND*%
X136525000Y-55391200D03*
%TD*%
D12*
%TO.P,J8,1,Pin_1*%
%TO.N,GND*%
X127000000Y-76200000D03*
D13*
%TO.P,J8,2,Pin_2*%
%TO.N,Net-(J10-Pin_1)*%
X127000000Y-78740000D03*
%TD*%
D11*
%TO.P,R14,1*%
%TO.N,Net-(J6-Pin_6)*%
X140335000Y-57791200D03*
%TO.P,R14,2*%
%TO.N,GND*%
X140335000Y-55391200D03*
%TD*%
D10*
%TO.P,R6,1*%
%TO.N,Net-(J1-Pin_6)*%
X140335000Y-44520000D03*
%TO.P,R6,2*%
%TO.N,GND*%
X140335000Y-46920000D03*
%TD*%
D12*
%TO.P,J3,1,Pin_1*%
%TO.N,GND*%
X127000000Y-48260000D03*
D13*
%TO.P,J3,2,Pin_2*%
%TO.N,Net-(J3-Pin_2)*%
X127000000Y-45720000D03*
%TD*%
D11*
%TO.P,R13,1*%
%TO.N,Net-(J6-Pin_5)*%
X138430000Y-57791200D03*
%TO.P,R13,2*%
%TO.N,GND*%
X138430000Y-55391200D03*
%TD*%
D14*
%TO.N,GND*%
X143510000Y-61468000D03*
X144780000Y-71120000D03*
X133604000Y-61468000D03*
X134620000Y-71120000D03*
X129540000Y-71120000D03*
X135890000Y-61468000D03*
X138684000Y-61468000D03*
X137160000Y-71120000D03*
X128270000Y-61468000D03*
X139700000Y-71120000D03*
X131064000Y-61468000D03*
X141224000Y-61468000D03*
X132080000Y-71120000D03*
X142240000Y-71120000D03*
%TD*%
D15*
%TO.N,Net-(J1-Pin_8)*%
X144780000Y-41910000D02*
X144780000Y-40640000D01*
X144145000Y-44520000D02*
X144145000Y-42545000D01*
X144145000Y-42545000D02*
X144780000Y-41910000D01*
%TO.N,Net-(J1-Pin_3)*%
X134620000Y-43815000D02*
X132080000Y-41275000D01*
X134620000Y-44520000D02*
X134620000Y-43815000D01*
X132080000Y-41275000D02*
X132080000Y-40640000D01*
%TO.N,Net-(J1-Pin_5)*%
X137160000Y-42545000D02*
X137160000Y-40640000D01*
X138430000Y-44500800D02*
X138430000Y-43815000D01*
X138430000Y-43815000D02*
X137160000Y-42545000D01*
%TO.N,Net-(J1-Pin_1)*%
X130810000Y-44526200D02*
X129616200Y-44526200D01*
X127000000Y-50800000D02*
X129616200Y-48183800D01*
X127000000Y-41910000D02*
X127000000Y-40640000D01*
X129616200Y-48183800D02*
X129616200Y-44526200D01*
X129616200Y-44526200D02*
X127000000Y-41910000D01*
%TO.N,Net-(J1-Pin_7)*%
X142240000Y-44520000D02*
X142240000Y-40640000D01*
%TO.N,Net-(J1-Pin_2)*%
X132715000Y-44520000D02*
X132715000Y-43815000D01*
X132715000Y-43815000D02*
X129540000Y-40640000D01*
%TO.N,Net-(J1-Pin_6)*%
X139700000Y-42545000D02*
X139700000Y-40640000D01*
X140335000Y-44520000D02*
X140335000Y-43180000D01*
X140335000Y-43180000D02*
X139700000Y-42545000D01*
%TO.N,Net-(J1-Pin_4)*%
X136525000Y-44520000D02*
X136525000Y-43815000D01*
X134620000Y-41910000D02*
X134620000Y-40640000D01*
X136525000Y-43815000D02*
X134620000Y-41910000D01*
%TO.N,Net-(J3-Pin_2)*%
X127000000Y-45720000D02*
X124460000Y-43180000D01*
X124460000Y-38100000D02*
X127000000Y-35560000D01*
X124460000Y-43180000D02*
X124460000Y-38100000D01*
X127000000Y-35560000D02*
X144780000Y-35560000D01*
%TO.N,Net-(J6-Pin_7)*%
X142240000Y-57785000D02*
X142240000Y-63500000D01*
%TO.N,Net-(J6-Pin_6)*%
X140335000Y-62865000D02*
X139700000Y-63500000D01*
X140335000Y-57791200D02*
X140335000Y-62865000D01*
%TO.N,Net-(J6-Pin_4)*%
X136525000Y-59055000D02*
X134620000Y-60960000D01*
X134620000Y-60960000D02*
X134620000Y-63500000D01*
X136525000Y-57791200D02*
X136525000Y-59055000D01*
%TO.N,Net-(J6-Pin_8)*%
X144145000Y-59690000D02*
X144780000Y-60325000D01*
X144145000Y-57785000D02*
X144145000Y-59690000D01*
X144780000Y-60325000D02*
X144780000Y-63500000D01*
%TO.N,Net-(J6-Pin_5)*%
X138430000Y-57791200D02*
X138430000Y-59690000D01*
X137160000Y-60960000D02*
X137160000Y-63500000D01*
X138430000Y-59690000D02*
X137160000Y-60960000D01*
%TO.N,Net-(J6-Pin_3)*%
X132080000Y-61595000D02*
X132080000Y-63500000D01*
X134620000Y-59055000D02*
X132080000Y-61595000D01*
X134620000Y-57791200D02*
X134620000Y-59055000D01*
%TO.N,Net-(J10-Pin_1)*%
X127000000Y-78740000D02*
X124460000Y-76200000D01*
X124460000Y-71120000D02*
X127000000Y-68580000D01*
X124460000Y-76200000D02*
X124460000Y-71120000D01*
X127000000Y-68580000D02*
X144780000Y-68580000D01*
%TO.N,Net-(J6-Pin_1)*%
X129546200Y-57791200D02*
X129540000Y-57785000D01*
X130810000Y-57791200D02*
X129546200Y-57791200D01*
X129540000Y-57785000D02*
X127000000Y-60325000D01*
X127000000Y-60325000D02*
X127000000Y-63500000D01*
%TO.N,Net-(J6-Pin_2)*%
X132715000Y-58420000D02*
X129540000Y-61595000D01*
X132715000Y-57791200D02*
X132715000Y-58420000D01*
X129540000Y-61595000D02*
X129540000Y-63500000D01*
%TO.N,GND*%
X127000000Y-38100000D02*
X144780000Y-38100000D01*
X127000000Y-66040000D02*
X144780000Y-66040000D01*
%TD*%
%TA.AperFunction,Conductor*%
%TO.N,GND*%
G36*
X146762539Y-34302185D02*
G01*
X146808294Y-34354989D01*
X146819500Y-34406500D01*
X146819500Y-79893500D01*
X146799815Y-79960539D01*
X146747011Y-80006294D01*
X146695500Y-80017500D01*
X127923345Y-80017500D01*
X127856306Y-79997815D01*
X127810551Y-79945011D01*
X127800607Y-79875853D01*
X127829632Y-79812297D01*
X127852221Y-79791926D01*
X127871393Y-79778501D01*
X127871395Y-79778499D01*
X127871401Y-79778495D01*
X128038495Y-79611401D01*
X128174035Y-79417830D01*
X128273903Y-79203663D01*
X128335063Y-78975408D01*
X128355659Y-78740000D01*
X128335063Y-78504592D01*
X128273903Y-78276337D01*
X128174035Y-78062171D01*
X128038495Y-77868599D01*
X127916179Y-77746283D01*
X127882696Y-77684963D01*
X127887680Y-77615271D01*
X127929551Y-77559337D01*
X127960529Y-77542422D01*
X128092086Y-77493354D01*
X128092093Y-77493350D01*
X128207187Y-77407190D01*
X128207190Y-77407187D01*
X128293350Y-77292093D01*
X128293354Y-77292086D01*
X128343596Y-77157379D01*
X128343598Y-77157372D01*
X128349999Y-77097844D01*
X128350000Y-77097827D01*
X128350000Y-76450000D01*
X127433012Y-76450000D01*
X127465925Y-76392993D01*
X127500000Y-76265826D01*
X127500000Y-76134174D01*
X127465925Y-76007007D01*
X127433012Y-75950000D01*
X128350000Y-75950000D01*
X128350000Y-75302172D01*
X128349999Y-75302155D01*
X128343598Y-75242627D01*
X128343596Y-75242620D01*
X128293354Y-75107913D01*
X128293352Y-75107910D01*
X128216110Y-75004729D01*
X128191692Y-74939265D01*
X128206543Y-74870992D01*
X128216105Y-74856111D01*
X128293796Y-74752331D01*
X128342810Y-74620916D01*
X128384681Y-74564984D01*
X128450145Y-74540566D01*
X128518418Y-74555417D01*
X128546673Y-74576569D01*
X128668599Y-74698495D01*
X128765384Y-74766265D01*
X128862165Y-74834032D01*
X128862167Y-74834033D01*
X128862170Y-74834035D01*
X129076337Y-74933903D01*
X129304592Y-74995063D01*
X129481034Y-75010500D01*
X129539999Y-75015659D01*
X129540000Y-75015659D01*
X129540001Y-75015659D01*
X129598966Y-75010500D01*
X129775408Y-74995063D01*
X130003663Y-74933903D01*
X130217830Y-74834035D01*
X130411401Y-74698495D01*
X130578495Y-74531401D01*
X130708425Y-74345842D01*
X130763002Y-74302217D01*
X130832500Y-74295023D01*
X130894855Y-74326546D01*
X130911575Y-74345842D01*
X131041500Y-74531395D01*
X131041505Y-74531401D01*
X131208599Y-74698495D01*
X131305384Y-74766265D01*
X131402165Y-74834032D01*
X131402167Y-74834033D01*
X131402170Y-74834035D01*
X131616337Y-74933903D01*
X131844592Y-74995063D01*
X132021034Y-75010500D01*
X132079999Y-75015659D01*
X132080000Y-75015659D01*
X132080001Y-75015659D01*
X132138966Y-75010500D01*
X132315408Y-74995063D01*
X132543663Y-74933903D01*
X132757830Y-74834035D01*
X132951401Y-74698495D01*
X133118495Y-74531401D01*
X133248425Y-74345842D01*
X133303002Y-74302217D01*
X133372500Y-74295023D01*
X133434855Y-74326546D01*
X133451575Y-74345842D01*
X133581500Y-74531395D01*
X133581505Y-74531401D01*
X133748599Y-74698495D01*
X133845384Y-74766265D01*
X133942165Y-74834032D01*
X133942167Y-74834033D01*
X133942170Y-74834035D01*
X134156337Y-74933903D01*
X134384592Y-74995063D01*
X134561034Y-75010500D01*
X134619999Y-75015659D01*
X134620000Y-75015659D01*
X134620001Y-75015659D01*
X134678966Y-75010500D01*
X134855408Y-74995063D01*
X135083663Y-74933903D01*
X135297830Y-74834035D01*
X135491401Y-74698495D01*
X135658495Y-74531401D01*
X135788425Y-74345842D01*
X135843002Y-74302217D01*
X135912500Y-74295023D01*
X135974855Y-74326546D01*
X135991575Y-74345842D01*
X136121500Y-74531395D01*
X136121505Y-74531401D01*
X136288599Y-74698495D01*
X136385384Y-74766265D01*
X136482165Y-74834032D01*
X136482167Y-74834033D01*
X136482170Y-74834035D01*
X136696337Y-74933903D01*
X136924592Y-74995063D01*
X137101034Y-75010500D01*
X137159999Y-75015659D01*
X137160000Y-75015659D01*
X137160001Y-75015659D01*
X137218966Y-75010500D01*
X137395408Y-74995063D01*
X137623663Y-74933903D01*
X137837830Y-74834035D01*
X138031401Y-74698495D01*
X138198495Y-74531401D01*
X138328425Y-74345842D01*
X138383002Y-74302217D01*
X138452500Y-74295023D01*
X138514855Y-74326546D01*
X138531575Y-74345842D01*
X138661500Y-74531395D01*
X138661505Y-74531401D01*
X138828599Y-74698495D01*
X138925384Y-74766265D01*
X139022165Y-74834032D01*
X139022167Y-74834033D01*
X139022170Y-74834035D01*
X139236337Y-74933903D01*
X139464592Y-74995063D01*
X139641034Y-75010500D01*
X139699999Y-75015659D01*
X139700000Y-75015659D01*
X139700001Y-75015659D01*
X139758966Y-75010500D01*
X139935408Y-74995063D01*
X140163663Y-74933903D01*
X140377830Y-74834035D01*
X140571401Y-74698495D01*
X140738495Y-74531401D01*
X140868425Y-74345842D01*
X140923002Y-74302217D01*
X140992500Y-74295023D01*
X141054855Y-74326546D01*
X141071575Y-74345842D01*
X141201500Y-74531395D01*
X141201505Y-74531401D01*
X141368599Y-74698495D01*
X141465384Y-74766265D01*
X141562165Y-74834032D01*
X141562167Y-74834033D01*
X141562170Y-74834035D01*
X141776337Y-74933903D01*
X142004592Y-74995063D01*
X142181034Y-75010500D01*
X142239999Y-75015659D01*
X142240000Y-75015659D01*
X142240001Y-75015659D01*
X142298966Y-75010500D01*
X142475408Y-74995063D01*
X142703663Y-74933903D01*
X142917830Y-74834035D01*
X143111401Y-74698495D01*
X143278495Y-74531401D01*
X143408425Y-74345842D01*
X143463002Y-74302217D01*
X143532500Y-74295023D01*
X143594855Y-74326546D01*
X143611575Y-74345842D01*
X143741500Y-74531395D01*
X143741505Y-74531401D01*
X143908599Y-74698495D01*
X144005384Y-74766265D01*
X144102165Y-74834032D01*
X144102167Y-74834033D01*
X144102170Y-74834035D01*
X144316337Y-74933903D01*
X144544592Y-74995063D01*
X144721034Y-75010500D01*
X144779999Y-75015659D01*
X144780000Y-75015659D01*
X144780001Y-75015659D01*
X144838966Y-75010500D01*
X145015408Y-74995063D01*
X145243663Y-74933903D01*
X145457830Y-74834035D01*
X145651401Y-74698495D01*
X145818495Y-74531401D01*
X145954035Y-74337830D01*
X146053903Y-74123663D01*
X146115063Y-73895408D01*
X146135659Y-73660000D01*
X146115063Y-73424592D01*
X146053903Y-73196337D01*
X145954035Y-72982171D01*
X145948425Y-72974158D01*
X145818494Y-72788597D01*
X145651402Y-72621506D01*
X145651395Y-72621501D01*
X145457834Y-72485967D01*
X145457830Y-72485965D01*
X145457828Y-72485964D01*
X145243663Y-72386097D01*
X145243659Y-72386096D01*
X145243655Y-72386094D01*
X145015413Y-72324938D01*
X145015403Y-72324936D01*
X144780001Y-72304341D01*
X144779999Y-72304341D01*
X144544596Y-72324936D01*
X144544586Y-72324938D01*
X144316344Y-72386094D01*
X144316335Y-72386098D01*
X144102171Y-72485964D01*
X144102169Y-72485965D01*
X143908597Y-72621505D01*
X143741505Y-72788597D01*
X143611575Y-72974158D01*
X143556998Y-73017783D01*
X143487500Y-73024977D01*
X143425145Y-72993454D01*
X143408425Y-72974158D01*
X143278494Y-72788597D01*
X143111402Y-72621506D01*
X143111395Y-72621501D01*
X142917834Y-72485967D01*
X142917830Y-72485965D01*
X142917828Y-72485964D01*
X142703663Y-72386097D01*
X142703659Y-72386096D01*
X142703655Y-72386094D01*
X142475413Y-72324938D01*
X142475403Y-72324936D01*
X142240001Y-72304341D01*
X142239999Y-72304341D01*
X142004596Y-72324936D01*
X142004586Y-72324938D01*
X141776344Y-72386094D01*
X141776335Y-72386098D01*
X141562171Y-72485964D01*
X141562169Y-72485965D01*
X141368597Y-72621505D01*
X141201505Y-72788597D01*
X141071575Y-72974158D01*
X141016998Y-73017783D01*
X140947500Y-73024977D01*
X140885145Y-72993454D01*
X140868425Y-72974158D01*
X140738494Y-72788597D01*
X140571402Y-72621506D01*
X140571395Y-72621501D01*
X140377834Y-72485967D01*
X140377830Y-72485965D01*
X140377828Y-72485964D01*
X140163663Y-72386097D01*
X140163659Y-72386096D01*
X140163655Y-72386094D01*
X139935413Y-72324938D01*
X139935403Y-72324936D01*
X139700001Y-72304341D01*
X139699999Y-72304341D01*
X139464596Y-72324936D01*
X139464586Y-72324938D01*
X139236344Y-72386094D01*
X139236335Y-72386098D01*
X139022171Y-72485964D01*
X139022169Y-72485965D01*
X138828597Y-72621505D01*
X138661505Y-72788597D01*
X138531575Y-72974158D01*
X138476998Y-73017783D01*
X138407500Y-73024977D01*
X138345145Y-72993454D01*
X138328425Y-72974158D01*
X138198494Y-72788597D01*
X138031402Y-72621506D01*
X138031395Y-72621501D01*
X137837834Y-72485967D01*
X137837830Y-72485965D01*
X137837828Y-72485964D01*
X137623663Y-72386097D01*
X137623659Y-72386096D01*
X137623655Y-72386094D01*
X137395413Y-72324938D01*
X137395403Y-72324936D01*
X137160001Y-72304341D01*
X137159999Y-72304341D01*
X136924596Y-72324936D01*
X136924586Y-72324938D01*
X136696344Y-72386094D01*
X136696335Y-72386098D01*
X136482171Y-72485964D01*
X136482169Y-72485965D01*
X136288597Y-72621505D01*
X136121505Y-72788597D01*
X135991575Y-72974158D01*
X135936998Y-73017783D01*
X135867500Y-73024977D01*
X135805145Y-72993454D01*
X135788425Y-72974158D01*
X135658494Y-72788597D01*
X135491402Y-72621506D01*
X135491395Y-72621501D01*
X135297834Y-72485967D01*
X135297830Y-72485965D01*
X135297828Y-72485964D01*
X135083663Y-72386097D01*
X135083659Y-72386096D01*
X135083655Y-72386094D01*
X134855413Y-72324938D01*
X134855403Y-72324936D01*
X134620001Y-72304341D01*
X134619999Y-72304341D01*
X134384596Y-72324936D01*
X134384586Y-72324938D01*
X134156344Y-72386094D01*
X134156335Y-72386098D01*
X133942171Y-72485964D01*
X133942169Y-72485965D01*
X133748597Y-72621505D01*
X133581505Y-72788597D01*
X133451575Y-72974158D01*
X133396998Y-73017783D01*
X133327500Y-73024977D01*
X133265145Y-72993454D01*
X133248425Y-72974158D01*
X133118494Y-72788597D01*
X132951402Y-72621506D01*
X132951395Y-72621501D01*
X132757834Y-72485967D01*
X132757830Y-72485965D01*
X132757828Y-72485964D01*
X132543663Y-72386097D01*
X132543659Y-72386096D01*
X132543655Y-72386094D01*
X132315413Y-72324938D01*
X132315403Y-72324936D01*
X132080001Y-72304341D01*
X132079999Y-72304341D01*
X131844596Y-72324936D01*
X131844586Y-72324938D01*
X131616344Y-72386094D01*
X131616335Y-72386098D01*
X131402171Y-72485964D01*
X131402169Y-72485965D01*
X131208597Y-72621505D01*
X131041505Y-72788597D01*
X130911575Y-72974158D01*
X130856998Y-73017783D01*
X130787500Y-73024977D01*
X130725145Y-72993454D01*
X130708425Y-72974158D01*
X130578494Y-72788597D01*
X130411402Y-72621506D01*
X130411395Y-72621501D01*
X130217834Y-72485967D01*
X130217830Y-72485965D01*
X130217828Y-72485964D01*
X130003663Y-72386097D01*
X130003659Y-72386096D01*
X130003655Y-72386094D01*
X129775413Y-72324938D01*
X129775403Y-72324936D01*
X129540001Y-72304341D01*
X129539999Y-72304341D01*
X129304596Y-72324936D01*
X129304586Y-72324938D01*
X129076344Y-72386094D01*
X129076335Y-72386098D01*
X128862171Y-72485964D01*
X128862169Y-72485965D01*
X128668600Y-72621503D01*
X128546673Y-72743430D01*
X128485350Y-72776914D01*
X128415658Y-72771930D01*
X128359725Y-72730058D01*
X128342810Y-72699081D01*
X128293797Y-72567671D01*
X128293793Y-72567664D01*
X128207547Y-72452455D01*
X128207544Y-72452452D01*
X128092335Y-72366206D01*
X128092328Y-72366202D01*
X127957482Y-72315908D01*
X127957483Y-72315908D01*
X127897883Y-72309501D01*
X127897881Y-72309500D01*
X127897873Y-72309500D01*
X127897864Y-72309500D01*
X126102129Y-72309500D01*
X126102123Y-72309501D01*
X126042516Y-72315908D01*
X125907671Y-72366202D01*
X125907664Y-72366206D01*
X125792455Y-72452452D01*
X125792452Y-72452455D01*
X125706206Y-72567664D01*
X125706202Y-72567671D01*
X125655908Y-72702517D01*
X125649501Y-72762116D01*
X125649500Y-72762135D01*
X125649500Y-74557870D01*
X125649501Y-74557876D01*
X125655908Y-74617483D01*
X125706202Y-74752328D01*
X125706206Y-74752335D01*
X125783889Y-74856105D01*
X125808307Y-74921569D01*
X125793456Y-74989842D01*
X125783890Y-75004727D01*
X125706647Y-75107910D01*
X125706645Y-75107913D01*
X125656403Y-75242620D01*
X125656401Y-75242627D01*
X125650000Y-75302155D01*
X125650000Y-75950000D01*
X126566988Y-75950000D01*
X126534075Y-76007007D01*
X126500000Y-76134174D01*
X126500000Y-76265826D01*
X126534075Y-76392993D01*
X126566988Y-76450000D01*
X125610597Y-76450000D01*
X125543558Y-76430315D01*
X125522916Y-76413681D01*
X125096819Y-75987584D01*
X125063334Y-75926261D01*
X125060500Y-75899903D01*
X125060500Y-71420096D01*
X125080185Y-71353057D01*
X125096814Y-71332420D01*
X126462416Y-69966817D01*
X126523739Y-69933333D01*
X126550097Y-69930499D01*
X127897871Y-69930499D01*
X127897872Y-69930499D01*
X127957483Y-69924091D01*
X128092331Y-69873796D01*
X128207546Y-69787546D01*
X128293796Y-69672331D01*
X128342810Y-69540916D01*
X128384681Y-69484984D01*
X128450145Y-69460566D01*
X128518418Y-69475417D01*
X128546673Y-69496569D01*
X128668599Y-69618495D01*
X128765384Y-69686265D01*
X128862165Y-69754032D01*
X128862167Y-69754033D01*
X128862170Y-69754035D01*
X129076337Y-69853903D01*
X129304592Y-69915063D01*
X129492918Y-69931539D01*
X129539999Y-69935659D01*
X129540000Y-69935659D01*
X129540001Y-69935659D01*
X129579234Y-69932226D01*
X129775408Y-69915063D01*
X130003663Y-69853903D01*
X130217830Y-69754035D01*
X130411401Y-69618495D01*
X130578495Y-69451401D01*
X130708425Y-69265842D01*
X130763002Y-69222217D01*
X130832500Y-69215023D01*
X130894855Y-69246546D01*
X130911575Y-69265842D01*
X131041500Y-69451395D01*
X131041505Y-69451401D01*
X131208599Y-69618495D01*
X131305384Y-69686265D01*
X131402165Y-69754032D01*
X131402167Y-69754033D01*
X131402170Y-69754035D01*
X131616337Y-69853903D01*
X131844592Y-69915063D01*
X132032918Y-69931539D01*
X132079999Y-69935659D01*
X132080000Y-69935659D01*
X132080001Y-69935659D01*
X132119234Y-69932226D01*
X132315408Y-69915063D01*
X132543663Y-69853903D01*
X132757830Y-69754035D01*
X132951401Y-69618495D01*
X133118495Y-69451401D01*
X133248425Y-69265842D01*
X133303002Y-69222217D01*
X133372500Y-69215023D01*
X133434855Y-69246546D01*
X133451575Y-69265842D01*
X133581500Y-69451395D01*
X133581505Y-69451401D01*
X133748599Y-69618495D01*
X133845384Y-69686265D01*
X133942165Y-69754032D01*
X133942167Y-69754033D01*
X133942170Y-69754035D01*
X134156337Y-69853903D01*
X134384592Y-69915063D01*
X134572918Y-69931539D01*
X134619999Y-69935659D01*
X134620000Y-69935659D01*
X134620001Y-69935659D01*
X134659234Y-69932226D01*
X134855408Y-69915063D01*
X135083663Y-69853903D01*
X135297830Y-69754035D01*
X135491401Y-69618495D01*
X135658495Y-69451401D01*
X135788425Y-69265842D01*
X135843002Y-69222217D01*
X135912500Y-69215023D01*
X135974855Y-69246546D01*
X135991575Y-69265842D01*
X136121500Y-69451395D01*
X136121505Y-69451401D01*
X136288599Y-69618495D01*
X136385384Y-69686265D01*
X136482165Y-69754032D01*
X136482167Y-69754033D01*
X136482170Y-69754035D01*
X136696337Y-69853903D01*
X136924592Y-69915063D01*
X137112918Y-69931539D01*
X137159999Y-69935659D01*
X137160000Y-69935659D01*
X137160001Y-69935659D01*
X137199234Y-69932226D01*
X137395408Y-69915063D01*
X137623663Y-69853903D01*
X137837830Y-69754035D01*
X138031401Y-69618495D01*
X138198495Y-69451401D01*
X138328425Y-69265842D01*
X138383002Y-69222217D01*
X138452500Y-69215023D01*
X138514855Y-69246546D01*
X138531575Y-69265842D01*
X138661500Y-69451395D01*
X138661505Y-69451401D01*
X138828599Y-69618495D01*
X138925384Y-69686265D01*
X139022165Y-69754032D01*
X139022167Y-69754033D01*
X139022170Y-69754035D01*
X139236337Y-69853903D01*
X139464592Y-69915063D01*
X139652918Y-69931539D01*
X139699999Y-69935659D01*
X139700000Y-69935659D01*
X139700001Y-69935659D01*
X139739234Y-69932226D01*
X139935408Y-69915063D01*
X140163663Y-69853903D01*
X140377830Y-69754035D01*
X140571401Y-69618495D01*
X140738495Y-69451401D01*
X140868425Y-69265842D01*
X140923002Y-69222217D01*
X140992500Y-69215023D01*
X141054855Y-69246546D01*
X141071575Y-69265842D01*
X141201500Y-69451395D01*
X141201505Y-69451401D01*
X141368599Y-69618495D01*
X141465384Y-69686265D01*
X141562165Y-69754032D01*
X141562167Y-69754033D01*
X141562170Y-69754035D01*
X141776337Y-69853903D01*
X142004592Y-69915063D01*
X142192918Y-69931539D01*
X142239999Y-69935659D01*
X142240000Y-69935659D01*
X142240001Y-69935659D01*
X142279234Y-69932226D01*
X142475408Y-69915063D01*
X142703663Y-69853903D01*
X142917830Y-69754035D01*
X143111401Y-69618495D01*
X143278495Y-69451401D01*
X143408425Y-69265842D01*
X143463002Y-69222217D01*
X143532500Y-69215023D01*
X143594855Y-69246546D01*
X143611575Y-69265842D01*
X143741500Y-69451395D01*
X143741505Y-69451401D01*
X143908599Y-69618495D01*
X144005384Y-69686265D01*
X144102165Y-69754032D01*
X144102167Y-69754033D01*
X144102170Y-69754035D01*
X144316337Y-69853903D01*
X144544592Y-69915063D01*
X144732918Y-69931539D01*
X144779999Y-69935659D01*
X144780000Y-69935659D01*
X144780001Y-69935659D01*
X144819234Y-69932226D01*
X145015408Y-69915063D01*
X145243663Y-69853903D01*
X145457830Y-69754035D01*
X145651401Y-69618495D01*
X145818495Y-69451401D01*
X145954035Y-69257830D01*
X146053903Y-69043663D01*
X146115063Y-68815408D01*
X146135659Y-68580000D01*
X146115063Y-68344592D01*
X146053903Y-68116337D01*
X145954035Y-67902171D01*
X145818495Y-67708599D01*
X145818494Y-67708597D01*
X145651402Y-67541506D01*
X145651401Y-67541505D01*
X145465405Y-67411269D01*
X145421781Y-67356692D01*
X145414588Y-67287193D01*
X145446110Y-67224839D01*
X145465405Y-67208119D01*
X145651082Y-67078105D01*
X145818105Y-66911082D01*
X145953600Y-66717578D01*
X146053429Y-66503492D01*
X146053432Y-66503486D01*
X146110636Y-66290000D01*
X145213012Y-66290000D01*
X145245925Y-66232993D01*
X145280000Y-66105826D01*
X145280000Y-65974174D01*
X145245925Y-65847007D01*
X145213012Y-65790000D01*
X146110636Y-65790000D01*
X146110635Y-65789999D01*
X146053432Y-65576513D01*
X146053429Y-65576507D01*
X145953600Y-65362422D01*
X145953599Y-65362420D01*
X145818113Y-65168926D01*
X145818108Y-65168920D01*
X145651078Y-65001890D01*
X145465405Y-64871879D01*
X145421780Y-64817302D01*
X145414588Y-64747804D01*
X145446110Y-64685449D01*
X145465406Y-64668730D01*
X145651401Y-64538495D01*
X145818495Y-64371401D01*
X145954035Y-64177830D01*
X146053903Y-63963663D01*
X146115063Y-63735408D01*
X146135659Y-63500000D01*
X146115063Y-63264592D01*
X146053903Y-63036337D01*
X145954035Y-62822171D01*
X145948425Y-62814158D01*
X145818494Y-62628597D01*
X145651402Y-62461506D01*
X145651395Y-62461501D01*
X145457831Y-62325965D01*
X145457826Y-62325962D01*
X145452091Y-62323288D01*
X145399653Y-62277113D01*
X145380500Y-62210908D01*
X145380500Y-60414060D01*
X145380501Y-60414047D01*
X145380501Y-60245944D01*
X145339576Y-60093214D01*
X145339573Y-60093209D01*
X145260524Y-59956290D01*
X145260518Y-59956282D01*
X144781819Y-59477583D01*
X144748334Y-59416260D01*
X144745500Y-59389902D01*
X144745500Y-59097745D01*
X144765185Y-59030706D01*
X144817989Y-58984951D01*
X144828537Y-58980706D01*
X144880338Y-58962581D01*
X145029415Y-58868910D01*
X145153910Y-58744415D01*
X145247581Y-58595338D01*
X145305731Y-58429156D01*
X145320500Y-58298079D01*
X145320499Y-57271922D01*
X145311348Y-57190700D01*
X145305732Y-57140848D01*
X145305729Y-57140836D01*
X145247582Y-56974664D01*
X145247581Y-56974662D01*
X145153910Y-56825585D01*
X145029415Y-56701090D01*
X145011285Y-56689698D01*
X144964995Y-56637364D01*
X144954347Y-56568310D01*
X144982722Y-56504462D01*
X145011287Y-56479711D01*
X145029099Y-56468519D01*
X145153516Y-56344102D01*
X145247128Y-56195118D01*
X145247129Y-56195116D01*
X145305241Y-56029040D01*
X145305242Y-56029035D01*
X145319999Y-55898059D01*
X145320000Y-55898055D01*
X145320000Y-55635000D01*
X141527960Y-55635000D01*
X141521796Y-55638366D01*
X141495438Y-55641200D01*
X129635001Y-55641200D01*
X129635001Y-55904260D01*
X129649757Y-56035238D01*
X129649760Y-56035251D01*
X129707867Y-56201311D01*
X129707871Y-56201318D01*
X129801483Y-56350302D01*
X129925897Y-56474716D01*
X129925900Y-56474718D01*
X129943714Y-56485912D01*
X129990005Y-56538247D01*
X130000652Y-56607301D01*
X129972276Y-56671149D01*
X129943715Y-56695897D01*
X129925589Y-56707286D01*
X129925584Y-56707290D01*
X129801090Y-56831784D01*
X129707419Y-56980860D01*
X129665222Y-57101454D01*
X129624500Y-57158230D01*
X129559547Y-57183977D01*
X129548180Y-57184499D01*
X129460943Y-57184499D01*
X129346397Y-57215192D01*
X129308214Y-57225423D01*
X129216939Y-57278122D01*
X129171284Y-57304481D01*
X129171281Y-57304483D01*
X126631286Y-59844478D01*
X126519481Y-59956282D01*
X126519481Y-59956283D01*
X126469361Y-60043094D01*
X126469359Y-60043096D01*
X126440425Y-60093209D01*
X126440424Y-60093210D01*
X126424544Y-60152472D01*
X126399499Y-60245943D01*
X126399499Y-60245944D01*
X126399499Y-60245945D01*
X126399499Y-60414046D01*
X126399500Y-60414059D01*
X126399500Y-62025500D01*
X126379815Y-62092539D01*
X126327011Y-62138294D01*
X126275501Y-62149500D01*
X126102130Y-62149500D01*
X126102123Y-62149501D01*
X126042516Y-62155908D01*
X125907671Y-62206202D01*
X125907664Y-62206206D01*
X125792455Y-62292452D01*
X125792452Y-62292455D01*
X125706206Y-62407664D01*
X125706202Y-62407671D01*
X125655908Y-62542517D01*
X125649501Y-62602116D01*
X125649500Y-62602135D01*
X125649500Y-64397870D01*
X125649501Y-64397876D01*
X125655908Y-64457483D01*
X125706202Y-64592328D01*
X125706206Y-64592335D01*
X125783889Y-64696105D01*
X125808307Y-64761569D01*
X125793456Y-64829842D01*
X125783890Y-64844727D01*
X125706647Y-64947910D01*
X125706645Y-64947913D01*
X125656403Y-65082620D01*
X125656401Y-65082627D01*
X125650000Y-65142155D01*
X125650000Y-65790000D01*
X126566988Y-65790000D01*
X126534075Y-65847007D01*
X126500000Y-65974174D01*
X126500000Y-66105826D01*
X126534075Y-66232993D01*
X126566988Y-66290000D01*
X125650000Y-66290000D01*
X125650000Y-66937844D01*
X125656401Y-66997372D01*
X125656403Y-66997379D01*
X125706645Y-67132086D01*
X125706646Y-67132088D01*
X125783890Y-67235272D01*
X125808307Y-67300736D01*
X125793456Y-67369009D01*
X125783890Y-67383894D01*
X125706204Y-67487669D01*
X125706202Y-67487671D01*
X125655908Y-67622517D01*
X125649501Y-67682116D01*
X125649500Y-67682135D01*
X125649500Y-69029902D01*
X125629815Y-69096941D01*
X125613181Y-69117583D01*
X123979481Y-70751282D01*
X123979480Y-70751284D01*
X123934270Y-70829592D01*
X123929361Y-70838094D01*
X123929359Y-70838097D01*
X123921886Y-70851040D01*
X123871318Y-70899255D01*
X123802711Y-70912476D01*
X123737846Y-70886507D01*
X123697319Y-70829592D01*
X123690500Y-70789038D01*
X123690500Y-54878140D01*
X129635000Y-54878140D01*
X129635000Y-55141200D01*
X130560000Y-55141200D01*
X131060000Y-55141200D01*
X132465000Y-55141200D01*
X132965000Y-55141200D01*
X134370000Y-55141200D01*
X134870000Y-55141200D01*
X136275000Y-55141200D01*
X136775000Y-55141200D01*
X138180000Y-55141200D01*
X138680000Y-55141200D01*
X140085000Y-55141200D01*
X140085000Y-54141200D01*
X140585000Y-54141200D01*
X140585000Y-55141200D01*
X141047040Y-55141200D01*
X141053204Y-55137834D01*
X141079562Y-55135000D01*
X141990000Y-55135000D01*
X142490000Y-55135000D01*
X143895000Y-55135000D01*
X144395000Y-55135000D01*
X145319999Y-55135000D01*
X145319999Y-54871947D01*
X145319998Y-54871939D01*
X145305242Y-54740961D01*
X145305239Y-54740948D01*
X145247132Y-54574888D01*
X145247128Y-54574881D01*
X145153516Y-54425897D01*
X145029102Y-54301483D01*
X144880118Y-54207871D01*
X144880116Y-54207870D01*
X144714040Y-54149758D01*
X144714035Y-54149757D01*
X144583059Y-54135000D01*
X144395000Y-54135000D01*
X144395000Y-55135000D01*
X143895000Y-55135000D01*
X143895000Y-54135000D01*
X143706945Y-54135000D01*
X143706939Y-54135001D01*
X143575961Y-54149757D01*
X143575948Y-54149760D01*
X143409888Y-54207867D01*
X143409876Y-54207873D01*
X143258471Y-54303007D01*
X143191235Y-54322007D01*
X143126529Y-54303007D01*
X142975123Y-54207873D01*
X142975116Y-54207870D01*
X142809040Y-54149758D01*
X142809035Y-54149757D01*
X142678059Y-54135000D01*
X142490000Y-54135000D01*
X142490000Y-55135000D01*
X141990000Y-55135000D01*
X141990000Y-54135000D01*
X141801945Y-54135000D01*
X141801939Y-54135001D01*
X141670961Y-54149757D01*
X141670948Y-54149760D01*
X141504888Y-54207867D01*
X141504881Y-54207871D01*
X141350002Y-54305188D01*
X141348552Y-54302881D01*
X141295275Y-54324587D01*
X141226589Y-54311781D01*
X141216767Y-54306216D01*
X141070118Y-54214071D01*
X141070116Y-54214070D01*
X140904040Y-54155958D01*
X140904035Y-54155957D01*
X140773059Y-54141200D01*
X140585000Y-54141200D01*
X140085000Y-54141200D01*
X139896945Y-54141200D01*
X139896939Y-54141201D01*
X139765961Y-54155957D01*
X139765948Y-54155960D01*
X139599888Y-54214067D01*
X139599876Y-54214073D01*
X139448471Y-54309207D01*
X139381235Y-54328207D01*
X139316529Y-54309207D01*
X139165123Y-54214073D01*
X139165116Y-54214070D01*
X138999040Y-54155958D01*
X138999035Y-54155957D01*
X138868059Y-54141200D01*
X138680000Y-54141200D01*
X138680000Y-55141200D01*
X138180000Y-55141200D01*
X138180000Y-54141200D01*
X137991945Y-54141200D01*
X137991939Y-54141201D01*
X137860961Y-54155957D01*
X137860948Y-54155960D01*
X137694888Y-54214067D01*
X137694876Y-54214073D01*
X137543471Y-54309207D01*
X137476235Y-54328207D01*
X137411529Y-54309207D01*
X137260123Y-54214073D01*
X137260116Y-54214070D01*
X137094040Y-54155958D01*
X137094035Y-54155957D01*
X136963059Y-54141200D01*
X136775000Y-54141200D01*
X136775000Y-55141200D01*
X136275000Y-55141200D01*
X136275000Y-54141200D01*
X136086945Y-54141200D01*
X136086939Y-54141201D01*
X135955961Y-54155957D01*
X135955948Y-54155960D01*
X135789888Y-54214067D01*
X135789876Y-54214073D01*
X135638471Y-54309207D01*
X135571235Y-54328207D01*
X135506529Y-54309207D01*
X135355123Y-54214073D01*
X135355116Y-54214070D01*
X135189040Y-54155958D01*
X135189035Y-54155957D01*
X135058059Y-54141200D01*
X134870000Y-54141200D01*
X134870000Y-55141200D01*
X134370000Y-55141200D01*
X134370000Y-54141200D01*
X134181945Y-54141200D01*
X134181939Y-54141201D01*
X134050961Y-54155957D01*
X134050948Y-54155960D01*
X133884888Y-54214067D01*
X133884876Y-54214073D01*
X133733471Y-54309207D01*
X133666235Y-54328207D01*
X133601529Y-54309207D01*
X133450123Y-54214073D01*
X133450116Y-54214070D01*
X133284040Y-54155958D01*
X133284035Y-54155957D01*
X133153059Y-54141200D01*
X132965000Y-54141200D01*
X132965000Y-55141200D01*
X132465000Y-55141200D01*
X132465000Y-54141200D01*
X132276945Y-54141200D01*
X132276939Y-54141201D01*
X132145961Y-54155957D01*
X132145948Y-54155960D01*
X131979888Y-54214067D01*
X131979876Y-54214073D01*
X131828471Y-54309207D01*
X131761235Y-54328207D01*
X131696529Y-54309207D01*
X131545123Y-54214073D01*
X131545116Y-54214070D01*
X131379040Y-54155958D01*
X131379035Y-54155957D01*
X131248059Y-54141200D01*
X131060000Y-54141200D01*
X131060000Y-55141200D01*
X130560000Y-55141200D01*
X130560000Y-54141200D01*
X130371945Y-54141200D01*
X130371939Y-54141201D01*
X130240961Y-54155957D01*
X130240948Y-54155960D01*
X130074888Y-54214067D01*
X130074881Y-54214071D01*
X129925897Y-54307683D01*
X129801483Y-54432097D01*
X129707871Y-54581081D01*
X129707870Y-54581083D01*
X129649758Y-54747159D01*
X129649757Y-54747164D01*
X129635000Y-54878140D01*
X123690500Y-54878140D01*
X123690500Y-43510961D01*
X123710185Y-43443922D01*
X123762989Y-43398167D01*
X123832147Y-43388223D01*
X123895703Y-43417248D01*
X123921886Y-43448960D01*
X123979479Y-43548714D01*
X123979481Y-43548717D01*
X124098349Y-43667585D01*
X124098355Y-43667590D01*
X125667233Y-45236468D01*
X125700718Y-45297791D01*
X125699327Y-45356241D01*
X125664939Y-45484583D01*
X125664936Y-45484596D01*
X125644341Y-45719999D01*
X125644341Y-45720000D01*
X125664936Y-45955403D01*
X125664938Y-45955413D01*
X125726094Y-46183655D01*
X125726096Y-46183659D01*
X125726097Y-46183663D01*
X125825965Y-46397830D01*
X125825967Y-46397834D01*
X125934281Y-46552521D01*
X125961501Y-46591396D01*
X125961506Y-46591402D01*
X126083818Y-46713714D01*
X126117303Y-46775037D01*
X126112319Y-46844729D01*
X126070447Y-46900662D01*
X126039471Y-46917577D01*
X125907912Y-46966646D01*
X125907906Y-46966649D01*
X125792812Y-47052809D01*
X125792809Y-47052812D01*
X125706649Y-47167906D01*
X125706645Y-47167913D01*
X125656403Y-47302620D01*
X125656401Y-47302627D01*
X125650000Y-47362155D01*
X125650000Y-48010000D01*
X126566988Y-48010000D01*
X126534075Y-48067007D01*
X126500000Y-48194174D01*
X126500000Y-48325826D01*
X126534075Y-48452993D01*
X126566988Y-48510000D01*
X125650000Y-48510000D01*
X125650000Y-49157844D01*
X125656401Y-49217372D01*
X125656403Y-49217379D01*
X125706645Y-49352086D01*
X125706646Y-49352088D01*
X125783890Y-49455272D01*
X125808307Y-49520736D01*
X125793456Y-49589009D01*
X125783890Y-49603894D01*
X125706204Y-49707669D01*
X125706202Y-49707671D01*
X125655908Y-49842517D01*
X125649501Y-49902116D01*
X125649500Y-49902135D01*
X125649500Y-51697870D01*
X125649501Y-51697876D01*
X125655908Y-51757483D01*
X125706202Y-51892328D01*
X125706206Y-51892335D01*
X125792452Y-52007544D01*
X125792455Y-52007547D01*
X125907664Y-52093793D01*
X125907671Y-52093797D01*
X126042517Y-52144091D01*
X126042516Y-52144091D01*
X126049444Y-52144835D01*
X126102127Y-52150500D01*
X127897872Y-52150499D01*
X127957483Y-52144091D01*
X128092331Y-52093796D01*
X128207546Y-52007546D01*
X128293796Y-51892331D01*
X128342810Y-51760916D01*
X128384681Y-51704984D01*
X128450145Y-51680566D01*
X128518418Y-51695417D01*
X128546673Y-51716569D01*
X128668599Y-51838495D01*
X128765384Y-51906265D01*
X128862165Y-51974032D01*
X128862167Y-51974033D01*
X128862170Y-51974035D01*
X129076337Y-52073903D01*
X129304592Y-52135063D01*
X129481034Y-52150500D01*
X129539999Y-52155659D01*
X129540000Y-52155659D01*
X129540001Y-52155659D01*
X129598966Y-52150500D01*
X129775408Y-52135063D01*
X130003663Y-52073903D01*
X130217830Y-51974035D01*
X130411401Y-51838495D01*
X130578495Y-51671401D01*
X130708425Y-51485842D01*
X130763002Y-51442217D01*
X130832500Y-51435023D01*
X130894855Y-51466546D01*
X130911575Y-51485842D01*
X131041500Y-51671395D01*
X131041505Y-51671401D01*
X131208599Y-51838495D01*
X131305384Y-51906265D01*
X131402165Y-51974032D01*
X131402167Y-51974033D01*
X131402170Y-51974035D01*
X131616337Y-52073903D01*
X131844592Y-52135063D01*
X132021034Y-52150500D01*
X132079999Y-52155659D01*
X132080000Y-52155659D01*
X132080001Y-52155659D01*
X132138966Y-52150500D01*
X132315408Y-52135063D01*
X132543663Y-52073903D01*
X132757830Y-51974035D01*
X132951401Y-51838495D01*
X133118495Y-51671401D01*
X133248425Y-51485842D01*
X133303002Y-51442217D01*
X133372500Y-51435023D01*
X133434855Y-51466546D01*
X133451575Y-51485842D01*
X133581500Y-51671395D01*
X133581505Y-51671401D01*
X133748599Y-51838495D01*
X133845384Y-51906265D01*
X133942165Y-51974032D01*
X133942167Y-51974033D01*
X133942170Y-51974035D01*
X134156337Y-52073903D01*
X134384592Y-52135063D01*
X134561034Y-52150500D01*
X134619999Y-52155659D01*
X134620000Y-52155659D01*
X134620001Y-52155659D01*
X134678966Y-52150500D01*
X134855408Y-52135063D01*
X135083663Y-52073903D01*
X135297830Y-51974035D01*
X135491401Y-51838495D01*
X135658495Y-51671401D01*
X135788425Y-51485842D01*
X135843002Y-51442217D01*
X135912500Y-51435023D01*
X135974855Y-51466546D01*
X135991575Y-51485842D01*
X136121500Y-51671395D01*
X136121505Y-51671401D01*
X136288599Y-51838495D01*
X136385384Y-51906265D01*
X136482165Y-51974032D01*
X136482167Y-51974033D01*
X136482170Y-51974035D01*
X136696337Y-52073903D01*
X136924592Y-52135063D01*
X137101034Y-52150500D01*
X137159999Y-52155659D01*
X137160000Y-52155659D01*
X137160001Y-52155659D01*
X137218966Y-52150500D01*
X137395408Y-52135063D01*
X137623663Y-52073903D01*
X137837830Y-51974035D01*
X138031401Y-51838495D01*
X138198495Y-51671401D01*
X138328425Y-51485842D01*
X138383002Y-51442217D01*
X138452500Y-51435023D01*
X138514855Y-51466546D01*
X138531575Y-51485842D01*
X138661500Y-51671395D01*
X138661505Y-51671401D01*
X138828599Y-51838495D01*
X138925384Y-51906265D01*
X139022165Y-51974032D01*
X139022167Y-51974033D01*
X139022170Y-51974035D01*
X139236337Y-52073903D01*
X139464592Y-52135063D01*
X139641034Y-52150500D01*
X139699999Y-52155659D01*
X139700000Y-52155659D01*
X139700001Y-52155659D01*
X139758966Y-52150500D01*
X139935408Y-52135063D01*
X140163663Y-52073903D01*
X140377830Y-51974035D01*
X140571401Y-51838495D01*
X140738495Y-51671401D01*
X140868425Y-51485842D01*
X140923002Y-51442217D01*
X140992500Y-51435023D01*
X141054855Y-51466546D01*
X141071575Y-51485842D01*
X141201500Y-51671395D01*
X141201505Y-51671401D01*
X141368599Y-51838495D01*
X141465384Y-51906265D01*
X141562165Y-51974032D01*
X141562167Y-51974033D01*
X141562170Y-51974035D01*
X141776337Y-52073903D01*
X142004592Y-52135063D01*
X142181034Y-52150500D01*
X142239999Y-52155659D01*
X142240000Y-52155659D01*
X142240001Y-52155659D01*
X142298966Y-52150500D01*
X142475408Y-52135063D01*
X142703663Y-52073903D01*
X142917830Y-51974035D01*
X143111401Y-51838495D01*
X143278495Y-51671401D01*
X143408425Y-51485842D01*
X143463002Y-51442217D01*
X143532500Y-51435023D01*
X143594855Y-51466546D01*
X143611575Y-51485842D01*
X143741500Y-51671395D01*
X143741505Y-51671401D01*
X143908599Y-51838495D01*
X144005384Y-51906265D01*
X144102165Y-51974032D01*
X144102167Y-51974033D01*
X144102170Y-51974035D01*
X144316337Y-52073903D01*
X144544592Y-52135063D01*
X144721034Y-52150500D01*
X144779999Y-52155659D01*
X144780000Y-52155659D01*
X144780001Y-52155659D01*
X144838966Y-52150500D01*
X145015408Y-52135063D01*
X145243663Y-52073903D01*
X145457830Y-51974035D01*
X145651401Y-51838495D01*
X145818495Y-51671401D01*
X145954035Y-51477830D01*
X146053903Y-51263663D01*
X146115063Y-51035408D01*
X146135659Y-50800000D01*
X146115063Y-50564592D01*
X146053903Y-50336337D01*
X145954035Y-50122171D01*
X145948425Y-50114158D01*
X145818494Y-49928597D01*
X145651402Y-49761506D01*
X145651395Y-49761501D01*
X145457834Y-49625967D01*
X145457830Y-49625965D01*
X145457828Y-49625964D01*
X145243663Y-49526097D01*
X145243659Y-49526096D01*
X145243655Y-49526094D01*
X145015413Y-49464938D01*
X145015403Y-49464936D01*
X144780001Y-49444341D01*
X144779999Y-49444341D01*
X144544596Y-49464936D01*
X144544586Y-49464938D01*
X144316344Y-49526094D01*
X144316335Y-49526098D01*
X144102171Y-49625964D01*
X144102169Y-49625965D01*
X143908597Y-49761505D01*
X143741505Y-49928597D01*
X143611575Y-50114158D01*
X143556998Y-50157783D01*
X143487500Y-50164977D01*
X143425145Y-50133454D01*
X143408425Y-50114158D01*
X143278494Y-49928597D01*
X143111402Y-49761506D01*
X143111395Y-49761501D01*
X142917834Y-49625967D01*
X142917830Y-49625965D01*
X142917828Y-49625964D01*
X142703663Y-49526097D01*
X142703659Y-49526096D01*
X142703655Y-49526094D01*
X142475413Y-49464938D01*
X142475403Y-49464936D01*
X142240001Y-49444341D01*
X142239999Y-49444341D01*
X142004596Y-49464936D01*
X142004586Y-49464938D01*
X141776344Y-49526094D01*
X141776335Y-49526098D01*
X141562171Y-49625964D01*
X141562169Y-49625965D01*
X141368597Y-49761505D01*
X141201505Y-49928597D01*
X141071575Y-50114158D01*
X141016998Y-50157783D01*
X140947500Y-50164977D01*
X140885145Y-50133454D01*
X140868425Y-50114158D01*
X140738494Y-49928597D01*
X140571402Y-49761506D01*
X140571395Y-49761501D01*
X140377834Y-49625967D01*
X140377830Y-49625965D01*
X140377828Y-49625964D01*
X140163663Y-49526097D01*
X140163659Y-49526096D01*
X140163655Y-49526094D01*
X139935413Y-49464938D01*
X139935403Y-49464936D01*
X139700001Y-49444341D01*
X139699999Y-49444341D01*
X139464596Y-49464936D01*
X139464586Y-49464938D01*
X139236344Y-49526094D01*
X139236335Y-49526098D01*
X139022171Y-49625964D01*
X139022169Y-49625965D01*
X138828597Y-49761505D01*
X138661505Y-49928597D01*
X138531575Y-50114158D01*
X138476998Y-50157783D01*
X138407500Y-50164977D01*
X138345145Y-50133454D01*
X138328425Y-50114158D01*
X138198494Y-49928597D01*
X138031402Y-49761506D01*
X138031395Y-49761501D01*
X137837834Y-49625967D01*
X137837830Y-49625965D01*
X137837828Y-49625964D01*
X137623663Y-49526097D01*
X137623659Y-49526096D01*
X137623655Y-49526094D01*
X137395413Y-49464938D01*
X137395403Y-49464936D01*
X137160001Y-49444341D01*
X137159999Y-49444341D01*
X136924596Y-49464936D01*
X136924586Y-49464938D01*
X136696344Y-49526094D01*
X136696335Y-49526098D01*
X136482171Y-49625964D01*
X136482169Y-49625965D01*
X136288597Y-49761505D01*
X136121505Y-49928597D01*
X135991575Y-50114158D01*
X135936998Y-50157783D01*
X135867500Y-50164977D01*
X135805145Y-50133454D01*
X135788425Y-50114158D01*
X135658494Y-49928597D01*
X135491402Y-49761506D01*
X135491395Y-49761501D01*
X135297834Y-49625967D01*
X135297830Y-49625965D01*
X135297828Y-49625964D01*
X135083663Y-49526097D01*
X135083659Y-49526096D01*
X135083655Y-49526094D01*
X134855413Y-49464938D01*
X134855403Y-49464936D01*
X134620001Y-49444341D01*
X134619999Y-49444341D01*
X134384596Y-49464936D01*
X134384586Y-49464938D01*
X134156344Y-49526094D01*
X134156335Y-49526098D01*
X133942171Y-49625964D01*
X133942169Y-49625965D01*
X133748597Y-49761505D01*
X133581505Y-49928597D01*
X133451575Y-50114158D01*
X133396998Y-50157783D01*
X133327500Y-50164977D01*
X133265145Y-50133454D01*
X133248425Y-50114158D01*
X133118494Y-49928597D01*
X132951402Y-49761506D01*
X132951395Y-49761501D01*
X132757834Y-49625967D01*
X132757830Y-49625965D01*
X132757828Y-49625964D01*
X132543663Y-49526097D01*
X132543659Y-49526096D01*
X132543655Y-49526094D01*
X132315413Y-49464938D01*
X132315403Y-49464936D01*
X132080001Y-49444341D01*
X132079999Y-49444341D01*
X131844596Y-49464936D01*
X131844586Y-49464938D01*
X131616344Y-49526094D01*
X131616335Y-49526098D01*
X131402171Y-49625964D01*
X131402169Y-49625965D01*
X131208597Y-49761505D01*
X131041505Y-49928597D01*
X130911575Y-50114158D01*
X130856998Y-50157783D01*
X130787500Y-50164977D01*
X130725145Y-50133454D01*
X130708425Y-50114158D01*
X130578494Y-49928597D01*
X130411402Y-49761506D01*
X130411395Y-49761501D01*
X130217834Y-49625967D01*
X130217830Y-49625965D01*
X130217828Y-49625964D01*
X130003663Y-49526097D01*
X130003659Y-49526096D01*
X130003655Y-49526094D01*
X129775413Y-49464938D01*
X129775403Y-49464936D01*
X129540001Y-49444341D01*
X129539998Y-49444341D01*
X129512154Y-49446777D01*
X129443654Y-49433010D01*
X129393471Y-49384395D01*
X129377538Y-49316366D01*
X129400913Y-49250523D01*
X129413662Y-49235571D01*
X130096720Y-48552516D01*
X130175777Y-48415584D01*
X130216172Y-48264830D01*
X130252535Y-48205174D01*
X130315382Y-48174645D01*
X130349830Y-48173708D01*
X130371944Y-48176199D01*
X130559999Y-48176199D01*
X130560000Y-48176198D01*
X130560000Y-47176200D01*
X131060000Y-47176200D01*
X131060000Y-48176199D01*
X131248053Y-48176199D01*
X131248060Y-48176198D01*
X131379038Y-48161442D01*
X131379051Y-48161439D01*
X131545111Y-48103332D01*
X131545118Y-48103328D01*
X131699998Y-48006012D01*
X131701456Y-48008333D01*
X131754619Y-47986623D01*
X131823316Y-47999371D01*
X131833232Y-48004983D01*
X131979881Y-48097128D01*
X131979883Y-48097129D01*
X132145959Y-48155241D01*
X132145964Y-48155242D01*
X132276942Y-48169999D01*
X132464999Y-48169999D01*
X132965000Y-48169999D01*
X133153053Y-48169999D01*
X133153060Y-48169998D01*
X133284038Y-48155242D01*
X133284051Y-48155239D01*
X133450111Y-48097132D01*
X133450118Y-48097128D01*
X133601528Y-48001992D01*
X133668765Y-47982992D01*
X133733472Y-48001992D01*
X133884881Y-48097128D01*
X133884883Y-48097129D01*
X134050959Y-48155241D01*
X134050964Y-48155242D01*
X134181942Y-48169999D01*
X134369999Y-48169999D01*
X134870000Y-48169999D01*
X135058053Y-48169999D01*
X135058060Y-48169998D01*
X135189038Y-48155242D01*
X135189051Y-48155239D01*
X135355111Y-48097132D01*
X135355118Y-48097128D01*
X135506528Y-48001992D01*
X135573765Y-47982992D01*
X135638472Y-48001992D01*
X135789881Y-48097128D01*
X135789883Y-48097129D01*
X135955959Y-48155241D01*
X135955964Y-48155242D01*
X136086942Y-48169999D01*
X136274999Y-48169999D01*
X136275000Y-48169998D01*
X136275000Y-47170000D01*
X136775000Y-47170000D01*
X136775000Y-48169999D01*
X136963053Y-48169999D01*
X136963060Y-48169998D01*
X137094038Y-48155242D01*
X137094051Y-48155239D01*
X137260111Y-48097132D01*
X137260118Y-48097128D01*
X137409099Y-48003518D01*
X137414060Y-47999562D01*
X137478746Y-47973151D01*
X137547442Y-47985904D01*
X137557349Y-47991512D01*
X137694881Y-48077928D01*
X137694883Y-48077929D01*
X137860959Y-48136041D01*
X137860964Y-48136042D01*
X137991942Y-48150799D01*
X138179999Y-48150799D01*
X138680000Y-48150799D01*
X138868053Y-48150799D01*
X138868060Y-48150798D01*
X138999038Y-48136042D01*
X138999051Y-48136039D01*
X139165111Y-48077932D01*
X139165118Y-48077928D01*
X139302650Y-47991512D01*
X139369887Y-47972512D01*
X139436722Y-47992880D01*
X139445934Y-47999558D01*
X139450898Y-48003516D01*
X139599881Y-48097128D01*
X139599883Y-48097129D01*
X139765959Y-48155241D01*
X139765964Y-48155242D01*
X139896942Y-48169999D01*
X140084999Y-48169999D01*
X140585000Y-48169999D01*
X140773053Y-48169999D01*
X140773060Y-48169998D01*
X140904038Y-48155242D01*
X140904051Y-48155239D01*
X141070111Y-48097132D01*
X141070118Y-48097128D01*
X141221528Y-48001992D01*
X141288765Y-47982992D01*
X141353472Y-48001992D01*
X141504881Y-48097128D01*
X141504883Y-48097129D01*
X141670959Y-48155241D01*
X141670964Y-48155242D01*
X141801942Y-48169999D01*
X141989999Y-48169999D01*
X142490000Y-48169999D01*
X142678053Y-48169999D01*
X142678060Y-48169998D01*
X142809038Y-48155242D01*
X142809051Y-48155239D01*
X142975111Y-48097132D01*
X142975118Y-48097128D01*
X143126528Y-48001992D01*
X143193765Y-47982992D01*
X143258472Y-48001992D01*
X143409881Y-48097128D01*
X143409883Y-48097129D01*
X143575959Y-48155241D01*
X143575964Y-48155242D01*
X143706942Y-48169999D01*
X143894999Y-48169999D01*
X144395000Y-48169999D01*
X144583053Y-48169999D01*
X144583060Y-48169998D01*
X144714038Y-48155242D01*
X144714051Y-48155239D01*
X144880111Y-48097132D01*
X144880118Y-48097128D01*
X145029102Y-48003516D01*
X145153516Y-47879102D01*
X145247128Y-47730118D01*
X145247129Y-47730116D01*
X145305241Y-47564040D01*
X145305242Y-47564035D01*
X145319999Y-47433059D01*
X145320000Y-47433055D01*
X145320000Y-47170000D01*
X144395000Y-47170000D01*
X144395000Y-48169999D01*
X143894999Y-48169999D01*
X143895000Y-48169998D01*
X143895000Y-47170000D01*
X142490000Y-47170000D01*
X142490000Y-48169999D01*
X141989999Y-48169999D01*
X141990000Y-48169998D01*
X141990000Y-47170000D01*
X140585000Y-47170000D01*
X140585000Y-48169999D01*
X140084999Y-48169999D01*
X140085000Y-48169998D01*
X140085000Y-47170000D01*
X139187562Y-47170000D01*
X139122175Y-47150800D01*
X138680000Y-47150800D01*
X138680000Y-48150799D01*
X138179999Y-48150799D01*
X138180000Y-48150798D01*
X138180000Y-47150800D01*
X137728768Y-47150800D01*
X137698796Y-47167166D01*
X137672438Y-47170000D01*
X136775000Y-47170000D01*
X136275000Y-47170000D01*
X134870000Y-47170000D01*
X134870000Y-48169999D01*
X134369999Y-48169999D01*
X134370000Y-48169998D01*
X134370000Y-47170000D01*
X132965000Y-47170000D01*
X132965000Y-48169999D01*
X132464999Y-48169999D01*
X132465000Y-48169998D01*
X132465000Y-47170000D01*
X132002960Y-47170000D01*
X131996796Y-47173366D01*
X131970438Y-47176200D01*
X131060000Y-47176200D01*
X130560000Y-47176200D01*
X130560000Y-46800200D01*
X130579685Y-46733161D01*
X130632489Y-46687406D01*
X130684000Y-46676200D01*
X131522040Y-46676200D01*
X131528204Y-46672834D01*
X131554562Y-46670000D01*
X137226232Y-46670000D01*
X137256204Y-46653634D01*
X137282562Y-46650800D01*
X139577438Y-46650800D01*
X139642825Y-46670000D01*
X145319999Y-46670000D01*
X145319999Y-46406947D01*
X145319998Y-46406939D01*
X145305242Y-46275961D01*
X145305239Y-46275948D01*
X145247132Y-46109888D01*
X145247128Y-46109881D01*
X145153516Y-45960897D01*
X145029102Y-45836483D01*
X145029097Y-45836479D01*
X145011284Y-45825286D01*
X144964994Y-45772951D01*
X144954347Y-45703897D01*
X144982724Y-45640049D01*
X145011283Y-45615302D01*
X145029415Y-45603910D01*
X145153910Y-45479415D01*
X145247581Y-45330338D01*
X145305731Y-45164156D01*
X145320500Y-45033079D01*
X145320499Y-44006922D01*
X145316395Y-43970500D01*
X145305732Y-43875848D01*
X145305729Y-43875836D01*
X145247582Y-43709664D01*
X145218027Y-43662627D01*
X145153910Y-43560585D01*
X145029415Y-43436090D01*
X144982197Y-43406421D01*
X144880340Y-43342420D01*
X144880339Y-43342419D01*
X144828544Y-43324295D01*
X144771768Y-43283573D01*
X144746022Y-43218620D01*
X144745500Y-43207254D01*
X144745500Y-42845097D01*
X144765185Y-42778058D01*
X144781819Y-42757416D01*
X144915181Y-42624054D01*
X145260520Y-42278716D01*
X145339577Y-42141784D01*
X145380501Y-41989057D01*
X145380501Y-41929090D01*
X145400186Y-41862051D01*
X145452099Y-41816707D01*
X145457830Y-41814035D01*
X145651401Y-41678495D01*
X145818495Y-41511401D01*
X145954035Y-41317830D01*
X146053903Y-41103663D01*
X146115063Y-40875408D01*
X146135659Y-40640000D01*
X146115063Y-40404592D01*
X146053903Y-40176337D01*
X145954035Y-39962171D01*
X145948425Y-39954158D01*
X145818494Y-39768597D01*
X145651402Y-39601506D01*
X145651401Y-39601505D01*
X145465405Y-39471269D01*
X145421781Y-39416692D01*
X145414588Y-39347193D01*
X145446110Y-39284839D01*
X145465405Y-39268119D01*
X145651082Y-39138105D01*
X145818105Y-38971082D01*
X145953600Y-38777578D01*
X146053429Y-38563492D01*
X146053432Y-38563486D01*
X146110636Y-38350000D01*
X145213012Y-38350000D01*
X145245925Y-38292993D01*
X145280000Y-38165826D01*
X145280000Y-38034174D01*
X145245925Y-37907007D01*
X145213012Y-37850000D01*
X146110636Y-37850000D01*
X146110635Y-37849999D01*
X146053432Y-37636513D01*
X146053429Y-37636507D01*
X145953600Y-37422422D01*
X145953599Y-37422420D01*
X145818113Y-37228926D01*
X145818108Y-37228920D01*
X145651078Y-37061890D01*
X145465405Y-36931879D01*
X145421780Y-36877302D01*
X145414588Y-36807804D01*
X145446110Y-36745449D01*
X145465406Y-36728730D01*
X145574515Y-36652331D01*
X145651401Y-36598495D01*
X145818495Y-36431401D01*
X145954035Y-36237830D01*
X146053903Y-36023663D01*
X146115063Y-35795408D01*
X146135659Y-35560000D01*
X146115063Y-35324592D01*
X146053903Y-35096337D01*
X145954035Y-34882171D01*
X145818495Y-34688599D01*
X145818494Y-34688597D01*
X145651402Y-34521506D01*
X145651393Y-34521498D01*
X145632221Y-34508074D01*
X145588596Y-34453497D01*
X145581404Y-34383998D01*
X145612927Y-34321644D01*
X145673157Y-34286231D01*
X145703345Y-34282500D01*
X146695500Y-34282500D01*
X146762539Y-34302185D01*
G37*
%TD.AperFunction*%
%TA.AperFunction,Conductor*%
G36*
X129074075Y-65847007D02*
G01*
X129040000Y-65974174D01*
X129040000Y-66105826D01*
X129074075Y-66232993D01*
X129106988Y-66290000D01*
X127433012Y-66290000D01*
X127465925Y-66232993D01*
X127500000Y-66105826D01*
X127500000Y-65974174D01*
X127465925Y-65847007D01*
X127433012Y-65790000D01*
X129106988Y-65790000D01*
X129074075Y-65847007D01*
G37*
%TD.AperFunction*%
%TA.AperFunction,Conductor*%
G36*
X131614075Y-65847007D02*
G01*
X131580000Y-65974174D01*
X131580000Y-66105826D01*
X131614075Y-66232993D01*
X131646988Y-66290000D01*
X129973012Y-66290000D01*
X130005925Y-66232993D01*
X130040000Y-66105826D01*
X130040000Y-65974174D01*
X130005925Y-65847007D01*
X129973012Y-65790000D01*
X131646988Y-65790000D01*
X131614075Y-65847007D01*
G37*
%TD.AperFunction*%
%TA.AperFunction,Conductor*%
G36*
X134154075Y-65847007D02*
G01*
X134120000Y-65974174D01*
X134120000Y-66105826D01*
X134154075Y-66232993D01*
X134186988Y-66290000D01*
X132513012Y-66290000D01*
X132545925Y-66232993D01*
X132580000Y-66105826D01*
X132580000Y-65974174D01*
X132545925Y-65847007D01*
X132513012Y-65790000D01*
X134186988Y-65790000D01*
X134154075Y-65847007D01*
G37*
%TD.AperFunction*%
%TA.AperFunction,Conductor*%
G36*
X136694075Y-65847007D02*
G01*
X136660000Y-65974174D01*
X136660000Y-66105826D01*
X136694075Y-66232993D01*
X136726988Y-66290000D01*
X135053012Y-66290000D01*
X135085925Y-66232993D01*
X135120000Y-66105826D01*
X135120000Y-65974174D01*
X135085925Y-65847007D01*
X135053012Y-65790000D01*
X136726988Y-65790000D01*
X136694075Y-65847007D01*
G37*
%TD.AperFunction*%
%TA.AperFunction,Conductor*%
G36*
X139234075Y-65847007D02*
G01*
X139200000Y-65974174D01*
X139200000Y-66105826D01*
X139234075Y-66232993D01*
X139266988Y-66290000D01*
X137593012Y-66290000D01*
X137625925Y-66232993D01*
X137660000Y-66105826D01*
X137660000Y-65974174D01*
X137625925Y-65847007D01*
X137593012Y-65790000D01*
X139266988Y-65790000D01*
X139234075Y-65847007D01*
G37*
%TD.AperFunction*%
%TA.AperFunction,Conductor*%
G36*
X141774075Y-65847007D02*
G01*
X141740000Y-65974174D01*
X141740000Y-66105826D01*
X141774075Y-66232993D01*
X141806988Y-66290000D01*
X140133012Y-66290000D01*
X140165925Y-66232993D01*
X140200000Y-66105826D01*
X140200000Y-65974174D01*
X140165925Y-65847007D01*
X140133012Y-65790000D01*
X141806988Y-65790000D01*
X141774075Y-65847007D01*
G37*
%TD.AperFunction*%
%TA.AperFunction,Conductor*%
G36*
X144314075Y-65847007D02*
G01*
X144280000Y-65974174D01*
X144280000Y-66105826D01*
X144314075Y-66232993D01*
X144346988Y-66290000D01*
X142673012Y-66290000D01*
X142705925Y-66232993D01*
X142740000Y-66105826D01*
X142740000Y-65974174D01*
X142705925Y-65847007D01*
X142673012Y-65790000D01*
X144346988Y-65790000D01*
X144314075Y-65847007D01*
G37*
%TD.AperFunction*%
%TA.AperFunction,Conductor*%
G36*
X133733484Y-58873790D02*
G01*
X133736017Y-58875382D01*
X133782302Y-58927722D01*
X133792943Y-58996777D01*
X133764560Y-59060622D01*
X133757714Y-59068049D01*
X131711286Y-61114478D01*
X131599481Y-61226282D01*
X131599479Y-61226285D01*
X131549361Y-61313094D01*
X131549359Y-61313096D01*
X131520425Y-61363209D01*
X131520424Y-61363210D01*
X131520423Y-61363215D01*
X131479499Y-61515943D01*
X131479499Y-61515945D01*
X131479499Y-61684046D01*
X131479500Y-61684059D01*
X131479500Y-62210908D01*
X131459815Y-62277947D01*
X131407914Y-62323286D01*
X131402173Y-62325963D01*
X131402169Y-62325965D01*
X131208597Y-62461505D01*
X131041505Y-62628597D01*
X130911575Y-62814158D01*
X130856998Y-62857783D01*
X130787500Y-62864977D01*
X130725145Y-62833454D01*
X130708425Y-62814158D01*
X130578494Y-62628597D01*
X130411402Y-62461506D01*
X130411395Y-62461501D01*
X130217831Y-62325965D01*
X130217826Y-62325962D01*
X130212091Y-62323288D01*
X130159653Y-62277113D01*
X130140500Y-62210908D01*
X130140500Y-61895096D01*
X130160185Y-61828057D01*
X130176814Y-61807420D01*
X132906216Y-59078017D01*
X132967539Y-59044533D01*
X132993897Y-59041699D01*
X133153081Y-59041699D01*
X133153082Y-59041698D01*
X133208911Y-59035408D01*
X133284151Y-59026932D01*
X133284154Y-59026931D01*
X133284156Y-59026931D01*
X133284158Y-59026930D01*
X133284163Y-59026929D01*
X133450335Y-58968782D01*
X133450334Y-58968782D01*
X133450338Y-58968781D01*
X133599415Y-58875110D01*
X133599415Y-58875109D01*
X133601528Y-58873782D01*
X133668765Y-58854782D01*
X133733484Y-58873790D01*
G37*
%TD.AperFunction*%
%TA.AperFunction,Conductor*%
G36*
X133960985Y-60665762D02*
G01*
X134016918Y-60707634D01*
X134041335Y-60773098D01*
X134037426Y-60814036D01*
X134019499Y-60880940D01*
X134019499Y-61049046D01*
X134019500Y-61049059D01*
X134019500Y-62210908D01*
X133999815Y-62277947D01*
X133947914Y-62323286D01*
X133942173Y-62325963D01*
X133942169Y-62325965D01*
X133748597Y-62461505D01*
X133581505Y-62628597D01*
X133451575Y-62814158D01*
X133396998Y-62857783D01*
X133327500Y-62864977D01*
X133265145Y-62833454D01*
X133248425Y-62814158D01*
X133118494Y-62628597D01*
X132951402Y-62461506D01*
X132951395Y-62461501D01*
X132757831Y-62325965D01*
X132757826Y-62325962D01*
X132752091Y-62323288D01*
X132699653Y-62277113D01*
X132680500Y-62210908D01*
X132680500Y-61895096D01*
X132700185Y-61828057D01*
X132716814Y-61807420D01*
X133829973Y-60694261D01*
X133891293Y-60660778D01*
X133960985Y-60665762D01*
G37*
%TD.AperFunction*%
%TA.AperFunction,Conductor*%
G36*
X137543471Y-58873782D02*
G01*
X137629317Y-58927722D01*
X137694662Y-58968781D01*
X137746454Y-58986903D01*
X137803229Y-59027623D01*
X137828978Y-59092576D01*
X137829500Y-59103945D01*
X137829500Y-59389902D01*
X137809815Y-59456941D01*
X137793181Y-59477583D01*
X136679481Y-60591282D01*
X136679480Y-60591284D01*
X136636481Y-60665762D01*
X136629361Y-60678094D01*
X136629359Y-60678096D01*
X136600425Y-60728209D01*
X136600424Y-60728210D01*
X136600423Y-60728215D01*
X136559499Y-60880943D01*
X136559499Y-60880945D01*
X136559499Y-61049046D01*
X136559500Y-61049059D01*
X136559500Y-62210908D01*
X136539815Y-62277947D01*
X136487914Y-62323286D01*
X136482173Y-62325963D01*
X136482169Y-62325965D01*
X136288597Y-62461505D01*
X136121505Y-62628597D01*
X135991575Y-62814158D01*
X135936998Y-62857783D01*
X135867500Y-62864977D01*
X135805145Y-62833454D01*
X135788425Y-62814158D01*
X135658494Y-62628597D01*
X135491402Y-62461506D01*
X135491395Y-62461501D01*
X135297831Y-62325965D01*
X135297826Y-62325962D01*
X135292091Y-62323288D01*
X135239653Y-62277113D01*
X135220500Y-62210908D01*
X135220500Y-61260096D01*
X135240185Y-61193057D01*
X135256814Y-61172420D01*
X136883506Y-59545727D01*
X136883511Y-59545724D01*
X136893714Y-59535520D01*
X136893716Y-59535520D01*
X137005520Y-59423716D01*
X137064659Y-59321284D01*
X137084577Y-59286785D01*
X137125501Y-59134057D01*
X137125501Y-59103945D01*
X137145186Y-59036906D01*
X137197990Y-58991151D01*
X137208542Y-58986904D01*
X137260338Y-58968781D01*
X137409415Y-58875110D01*
X137409417Y-58875107D01*
X137411527Y-58873782D01*
X137478764Y-58854782D01*
X137543471Y-58873782D01*
G37*
%TD.AperFunction*%
%TA.AperFunction,Conductor*%
G36*
X139448472Y-58873782D02*
G01*
X139450584Y-58875109D01*
X139450585Y-58875110D01*
X139599662Y-58968781D01*
X139651454Y-58986903D01*
X139708229Y-59027623D01*
X139733978Y-59092576D01*
X139734500Y-59103945D01*
X139734500Y-62027697D01*
X139714815Y-62094736D01*
X139662011Y-62140491D01*
X139621308Y-62151225D01*
X139464596Y-62164936D01*
X139464586Y-62164938D01*
X139236344Y-62226094D01*
X139236335Y-62226098D01*
X139022171Y-62325964D01*
X139022169Y-62325965D01*
X138828597Y-62461505D01*
X138661505Y-62628597D01*
X138531575Y-62814158D01*
X138476998Y-62857783D01*
X138407500Y-62864977D01*
X138345145Y-62833454D01*
X138328425Y-62814158D01*
X138198494Y-62628597D01*
X138031402Y-62461506D01*
X138031395Y-62461501D01*
X137837831Y-62325965D01*
X137837826Y-62325962D01*
X137832091Y-62323288D01*
X137779653Y-62277113D01*
X137760500Y-62210908D01*
X137760500Y-61260096D01*
X137780185Y-61193057D01*
X137796814Y-61172419D01*
X138788506Y-60180727D01*
X138788511Y-60180724D01*
X138798714Y-60170520D01*
X138798716Y-60170520D01*
X138910520Y-60058716D01*
X138969659Y-59956284D01*
X138989577Y-59921785D01*
X139030500Y-59769058D01*
X139030500Y-59610943D01*
X139030500Y-59103945D01*
X139050185Y-59036906D01*
X139102989Y-58991151D01*
X139113537Y-58986906D01*
X139165338Y-58968781D01*
X139314415Y-58875110D01*
X139314415Y-58875109D01*
X139316528Y-58873782D01*
X139383765Y-58854782D01*
X139448472Y-58873782D01*
G37*
%TD.AperFunction*%
%TA.AperFunction,Conductor*%
G36*
X143258472Y-58867582D02*
G01*
X143260584Y-58868909D01*
X143260585Y-58868910D01*
X143409662Y-58962581D01*
X143461454Y-58980703D01*
X143518229Y-59021423D01*
X143543978Y-59086376D01*
X143544500Y-59097745D01*
X143544500Y-59603330D01*
X143544499Y-59603348D01*
X143544499Y-59769054D01*
X143544498Y-59769054D01*
X143585424Y-59921789D01*
X143585425Y-59921790D01*
X143605340Y-59956283D01*
X143605341Y-59956284D01*
X143664477Y-60058712D01*
X143664481Y-60058717D01*
X143783349Y-60177585D01*
X143783355Y-60177590D01*
X144143181Y-60537416D01*
X144176666Y-60598739D01*
X144179500Y-60625097D01*
X144179500Y-62210908D01*
X144159815Y-62277947D01*
X144107914Y-62323286D01*
X144102173Y-62325963D01*
X144102169Y-62325965D01*
X143908597Y-62461505D01*
X143741505Y-62628597D01*
X143611575Y-62814158D01*
X143556998Y-62857783D01*
X143487500Y-62864977D01*
X143425145Y-62833454D01*
X143408425Y-62814158D01*
X143278494Y-62628597D01*
X143111402Y-62461506D01*
X143111395Y-62461501D01*
X142917831Y-62325965D01*
X142917826Y-62325962D01*
X142912091Y-62323288D01*
X142859653Y-62277113D01*
X142840500Y-62210908D01*
X142840500Y-59097745D01*
X142860185Y-59030706D01*
X142912989Y-58984951D01*
X142923537Y-58980706D01*
X142975338Y-58962581D01*
X143124415Y-58868910D01*
X143124415Y-58868909D01*
X143126528Y-58867582D01*
X143193765Y-58848582D01*
X143258472Y-58867582D01*
G37*
%TD.AperFunction*%
%TA.AperFunction,Conductor*%
G36*
X141348342Y-58864978D02*
G01*
X141358261Y-58870591D01*
X141504662Y-58962581D01*
X141556454Y-58980703D01*
X141613229Y-59021423D01*
X141638978Y-59086376D01*
X141639500Y-59097745D01*
X141639500Y-62210908D01*
X141619815Y-62277947D01*
X141567914Y-62323286D01*
X141562173Y-62325963D01*
X141562169Y-62325965D01*
X141368597Y-62461505D01*
X141201508Y-62628594D01*
X141161075Y-62686339D01*
X141106498Y-62729964D01*
X141036999Y-62737156D01*
X140974645Y-62705634D01*
X140939231Y-62645404D01*
X140935500Y-62615215D01*
X140935500Y-59103945D01*
X140955185Y-59036906D01*
X141007989Y-58991151D01*
X141018537Y-58986906D01*
X141070338Y-58968781D01*
X141219415Y-58875110D01*
X141219415Y-58875109D01*
X141225311Y-58871405D01*
X141226824Y-58873814D01*
X141279644Y-58852237D01*
X141348342Y-58864978D01*
G37*
%TD.AperFunction*%
%TA.AperFunction,Conductor*%
G36*
X129676498Y-58600249D02*
G01*
X129732431Y-58642121D01*
X129738158Y-58650459D01*
X129801090Y-58750615D01*
X129925585Y-58875110D01*
X130074662Y-58968781D01*
X130240844Y-59026931D01*
X130240847Y-59026931D01*
X130240849Y-59026932D01*
X130306382Y-59034315D01*
X130371921Y-59041700D01*
X130944703Y-59041699D01*
X131011741Y-59061383D01*
X131057496Y-59114187D01*
X131067440Y-59183346D01*
X131038415Y-59246902D01*
X131032383Y-59253380D01*
X129171286Y-61114478D01*
X129059481Y-61226282D01*
X129059479Y-61226285D01*
X129009361Y-61313094D01*
X129009359Y-61313096D01*
X128980425Y-61363209D01*
X128980424Y-61363210D01*
X128980423Y-61363215D01*
X128939499Y-61515943D01*
X128939499Y-61515945D01*
X128939499Y-61684046D01*
X128939500Y-61684059D01*
X128939500Y-62210908D01*
X128919815Y-62277947D01*
X128867914Y-62323286D01*
X128862173Y-62325963D01*
X128862169Y-62325965D01*
X128668600Y-62461503D01*
X128546673Y-62583430D01*
X128485350Y-62616914D01*
X128415658Y-62611930D01*
X128359725Y-62570058D01*
X128342810Y-62539081D01*
X128293797Y-62407671D01*
X128293793Y-62407664D01*
X128207547Y-62292455D01*
X128207544Y-62292452D01*
X128092335Y-62206206D01*
X128092328Y-62206202D01*
X127957482Y-62155908D01*
X127957483Y-62155908D01*
X127897883Y-62149501D01*
X127897881Y-62149500D01*
X127897873Y-62149500D01*
X127897865Y-62149500D01*
X127724500Y-62149500D01*
X127657461Y-62129815D01*
X127611706Y-62077011D01*
X127600500Y-62025500D01*
X127600500Y-60625096D01*
X127620185Y-60558057D01*
X127636814Y-60537420D01*
X129545485Y-58628748D01*
X129606806Y-58595265D01*
X129676498Y-58600249D01*
G37*
%TD.AperFunction*%
%TA.AperFunction,Conductor*%
G36*
X126534075Y-37907007D02*
G01*
X126500000Y-38034174D01*
X126500000Y-38165826D01*
X126534075Y-38292993D01*
X126566988Y-38350000D01*
X125650000Y-38350000D01*
X125650000Y-38997844D01*
X125656401Y-39057372D01*
X125656403Y-39057379D01*
X125706645Y-39192086D01*
X125706646Y-39192088D01*
X125783890Y-39295272D01*
X125808307Y-39360736D01*
X125793456Y-39429009D01*
X125783890Y-39443894D01*
X125706204Y-39547669D01*
X125706202Y-39547671D01*
X125655908Y-39682517D01*
X125649501Y-39742116D01*
X125649500Y-39742135D01*
X125649500Y-41537870D01*
X125649501Y-41537876D01*
X125655908Y-41597483D01*
X125706202Y-41732328D01*
X125706206Y-41732335D01*
X125792452Y-41847544D01*
X125792455Y-41847547D01*
X125907664Y-41933793D01*
X125907671Y-41933797D01*
X125930563Y-41942335D01*
X126042517Y-41984091D01*
X126102127Y-41990500D01*
X126304737Y-41990499D01*
X126371776Y-42010183D01*
X126417531Y-42062987D01*
X126424512Y-42082405D01*
X126440423Y-42141787D01*
X126440425Y-42141790D01*
X126460340Y-42176283D01*
X126460341Y-42176284D01*
X126519477Y-42278712D01*
X126519481Y-42278717D01*
X126638349Y-42397585D01*
X126638355Y-42397590D01*
X128979381Y-44738616D01*
X129012866Y-44799939D01*
X129015700Y-44826297D01*
X129015700Y-47883702D01*
X128996015Y-47950741D01*
X128979381Y-47971383D01*
X128477083Y-48473681D01*
X128415760Y-48507166D01*
X128389402Y-48510000D01*
X127433012Y-48510000D01*
X127465925Y-48452993D01*
X127500000Y-48325826D01*
X127500000Y-48194174D01*
X127465925Y-48067007D01*
X127433012Y-48010000D01*
X128350000Y-48010000D01*
X128350000Y-47362172D01*
X128349999Y-47362155D01*
X128343598Y-47302627D01*
X128343596Y-47302620D01*
X128293354Y-47167913D01*
X128293350Y-47167906D01*
X128207190Y-47052812D01*
X128207187Y-47052809D01*
X128092093Y-46966649D01*
X128092088Y-46966646D01*
X127960528Y-46917577D01*
X127904595Y-46875705D01*
X127880178Y-46810241D01*
X127895030Y-46741968D01*
X127916175Y-46713720D01*
X128038495Y-46591401D01*
X128174035Y-46397830D01*
X128273903Y-46183663D01*
X128335063Y-45955408D01*
X128355659Y-45720000D01*
X128335063Y-45484592D01*
X128273903Y-45256337D01*
X128174035Y-45042171D01*
X128038495Y-44848599D01*
X128038494Y-44848597D01*
X127871402Y-44681506D01*
X127871395Y-44681501D01*
X127677834Y-44545967D01*
X127677830Y-44545965D01*
X127463663Y-44446097D01*
X127463659Y-44446096D01*
X127463655Y-44446094D01*
X127235413Y-44384938D01*
X127235403Y-44384936D01*
X127000001Y-44364341D01*
X126999999Y-44364341D01*
X126764596Y-44384936D01*
X126764583Y-44384939D01*
X126636241Y-44419327D01*
X126566392Y-44417664D01*
X126516468Y-44387233D01*
X125096819Y-42967584D01*
X125063334Y-42906261D01*
X125060500Y-42879903D01*
X125060500Y-38400096D01*
X125080185Y-38333057D01*
X125096814Y-38312420D01*
X125522916Y-37886318D01*
X125584238Y-37852834D01*
X125610596Y-37850000D01*
X126566988Y-37850000D01*
X126534075Y-37907007D01*
G37*
%TD.AperFunction*%
%TA.AperFunction,Conductor*%
G36*
X129074075Y-37907007D02*
G01*
X129040000Y-38034174D01*
X129040000Y-38165826D01*
X129074075Y-38292993D01*
X129106988Y-38350000D01*
X127433012Y-38350000D01*
X127465925Y-38292993D01*
X127500000Y-38165826D01*
X127500000Y-38034174D01*
X127465925Y-37907007D01*
X127433012Y-37850000D01*
X129106988Y-37850000D01*
X129074075Y-37907007D01*
G37*
%TD.AperFunction*%
%TA.AperFunction,Conductor*%
G36*
X131614075Y-37907007D02*
G01*
X131580000Y-38034174D01*
X131580000Y-38165826D01*
X131614075Y-38292993D01*
X131646988Y-38350000D01*
X129973012Y-38350000D01*
X130005925Y-38292993D01*
X130040000Y-38165826D01*
X130040000Y-38034174D01*
X130005925Y-37907007D01*
X129973012Y-37850000D01*
X131646988Y-37850000D01*
X131614075Y-37907007D01*
G37*
%TD.AperFunction*%
%TA.AperFunction,Conductor*%
G36*
X134154075Y-37907007D02*
G01*
X134120000Y-38034174D01*
X134120000Y-38165826D01*
X134154075Y-38292993D01*
X134186988Y-38350000D01*
X132513012Y-38350000D01*
X132545925Y-38292993D01*
X132580000Y-38165826D01*
X132580000Y-38034174D01*
X132545925Y-37907007D01*
X132513012Y-37850000D01*
X134186988Y-37850000D01*
X134154075Y-37907007D01*
G37*
%TD.AperFunction*%
%TA.AperFunction,Conductor*%
G36*
X136694075Y-37907007D02*
G01*
X136660000Y-38034174D01*
X136660000Y-38165826D01*
X136694075Y-38292993D01*
X136726988Y-38350000D01*
X135053012Y-38350000D01*
X135085925Y-38292993D01*
X135120000Y-38165826D01*
X135120000Y-38034174D01*
X135085925Y-37907007D01*
X135053012Y-37850000D01*
X136726988Y-37850000D01*
X136694075Y-37907007D01*
G37*
%TD.AperFunction*%
%TA.AperFunction,Conductor*%
G36*
X139234075Y-37907007D02*
G01*
X139200000Y-38034174D01*
X139200000Y-38165826D01*
X139234075Y-38292993D01*
X139266988Y-38350000D01*
X137593012Y-38350000D01*
X137625925Y-38292993D01*
X137660000Y-38165826D01*
X137660000Y-38034174D01*
X137625925Y-37907007D01*
X137593012Y-37850000D01*
X139266988Y-37850000D01*
X139234075Y-37907007D01*
G37*
%TD.AperFunction*%
%TA.AperFunction,Conductor*%
G36*
X141774075Y-37907007D02*
G01*
X141740000Y-38034174D01*
X141740000Y-38165826D01*
X141774075Y-38292993D01*
X141806988Y-38350000D01*
X140133012Y-38350000D01*
X140165925Y-38292993D01*
X140200000Y-38165826D01*
X140200000Y-38034174D01*
X140165925Y-37907007D01*
X140133012Y-37850000D01*
X141806988Y-37850000D01*
X141774075Y-37907007D01*
G37*
%TD.AperFunction*%
%TA.AperFunction,Conductor*%
G36*
X144314075Y-37907007D02*
G01*
X144280000Y-38034174D01*
X144280000Y-38165826D01*
X144314075Y-38292993D01*
X144346988Y-38350000D01*
X142673012Y-38350000D01*
X142705925Y-38292993D01*
X142740000Y-38165826D01*
X142740000Y-38034174D01*
X142705925Y-37907007D01*
X142673012Y-37850000D01*
X144346988Y-37850000D01*
X144314075Y-37907007D01*
G37*
%TD.AperFunction*%
%TD*%
M02*
