%TF.SameCoordinates,Original*%
%TF.FileFunction,Copper,L2,Bot*%
%TF.FilePolarity,Positive*%
%FSLAX46Y46*%
G04 Gerber Fmt 4.6, Leading zero omitted, Abs format (unit mm)*
%MOMM*%
%LPD*%
G01*
G04 APERTURE LIST*
%TA.AperFunction,ComponentPad*%
%ADD10R,1.700000X1.700000*%
%TD*%
%TA.AperFunction,ComponentPad*%
%ADD11O,1.700000X1.700000*%
%TD*%
%TA.AperFunction,ViaPad*%
%ADD12C,0.600000*%
%TD*%
%TA.AperFunction,Conductor*%
%ADD13C,0.200000*%
%TD*%
G04 APERTURE END LIST*
D10*
%TO.P,J6,1,Pin_1*%
%TO.N,Net-(J6-Pin_1)*%
X127000000Y-73660000D03*
D11*
%TO.P,J6,2,Pin_2*%
%TO.N,Net-(J6-Pin_2)*%
X129540000Y-73660000D03*
%TO.P,J6,3,Pin_3*%
%TO.N,Net-(J6-Pin_3)*%
X132080000Y-73660000D03*
%TO.P,J6,4,Pin_4*%
%TO.N,Net-(J6-Pin_4)*%
X134620000Y-73660000D03*
%TO.P,J6,5,Pin_5*%
%TO.N,Net-(J6-Pin_5)*%
X137160000Y-73660000D03*
%TO.P,J6,6,Pin_6*%
%TO.N,Net-(J6-Pin_6)*%
X139700000Y-73660000D03*
%TO.P,J6,7,Pin_7*%
%TO.N,Net-(J6-Pin_7)*%
X142240000Y-73660000D03*
%TO.P,J6,8,Pin_8*%
%TO.N,Net-(J6-Pin_8)*%
X144780000Y-73660000D03*
%TD*%
D10*
%TO.P,J9,1,Pin_1*%
%TO.N,GND*%
X127000000Y-66040000D03*
D11*
%TO.P,J9,2,Pin_2*%
X129540000Y-66040000D03*
%TO.P,J9,3,Pin_3*%
X132080000Y-66040000D03*
%TO.P,J9,4,Pin_4*%
X134620000Y-66040000D03*
%TO.P,J9,5,Pin_5*%
X137160000Y-66040000D03*
%TO.P,J9,6,Pin_6*%
X139700000Y-66040000D03*
%TO.P,J9,7,Pin_7*%
X142240000Y-66040000D03*
%TO.P,J9,8,Pin_8*%
X144780000Y-66040000D03*
%TD*%
D10*
%TO.P,J10,1,Pin_1*%
%TO.N,Net-(J10-Pin_1)*%
X127000000Y-68580000D03*
D11*
%TO.P,J10,2,Pin_2*%
X129540000Y-68580000D03*
%TO.P,J10,3,Pin_3*%
X132080000Y-68580000D03*
%TO.P,J10,4,Pin_4*%
X134620000Y-68580000D03*
%TO.P,J10,5,Pin_5*%
X137160000Y-68580000D03*
%TO.P,J10,6,Pin_6*%
X139700000Y-68580000D03*
%TO.P,J10,7,Pin_7*%
X142240000Y-68580000D03*
%TO.P,J10,8,Pin_8*%
X144780000Y-68580000D03*
%TD*%
D10*
%TO.P,J2,1,Pin_1*%
%TO.N,Net-(J1-Pin_1)*%
X127000000Y-40640000D03*
D11*
%TO.P,J2,2,Pin_2*%
%TO.N,Net-(J1-Pin_2)*%
X129540000Y-40640000D03*
%TO.P,J2,3,Pin_3*%
%TO.N,Net-(J1-Pin_3)*%
X132080000Y-40640000D03*
%TO.P,J2,4,Pin_4*%
%TO.N,Net-(J1-Pin_4)*%
X134620000Y-40640000D03*
%TO.P,J2,5,Pin_5*%
%TO.N,Net-(J1-Pin_5)*%
X137160000Y-40640000D03*
%TO.P,J2,6,Pin_6*%
%TO.N,Net-(J1-Pin_6)*%
X139700000Y-40640000D03*
%TO.P,J2,7,Pin_7*%
%TO.N,Net-(J1-Pin_7)*%
X142240000Y-40640000D03*
%TO.P,J2,8,Pin_8*%
%TO.N,Net-(J1-Pin_8)*%
X144780000Y-40640000D03*
%TD*%
D10*
%TO.P,J7,1,Pin_1*%
%TO.N,Net-(J6-Pin_1)*%
X127000000Y-63500000D03*
D11*
%TO.P,J7,2,Pin_2*%
%TO.N,Net-(J6-Pin_2)*%
X129540000Y-63500000D03*
%TO.P,J7,3,Pin_3*%
%TO.N,Net-(J6-Pin_3)*%
X132080000Y-63500000D03*
%TO.P,J7,4,Pin_4*%
%TO.N,Net-(J6-Pin_4)*%
X134620000Y-63500000D03*
%TO.P,J7,5,Pin_5*%
%TO.N,Net-(J6-Pin_5)*%
X137160000Y-63500000D03*
%TO.P,J7,6,Pin_6*%
%TO.N,Net-(J6-Pin_6)*%
X139700000Y-63500000D03*
%TO.P,J7,7,Pin_7*%
%TO.N,Net-(J6-Pin_7)*%
X142240000Y-63500000D03*
%TO.P,J7,8,Pin_8*%
%TO.N,Net-(J6-Pin_8)*%
X144780000Y-63500000D03*
%TD*%
D10*
%TO.P,J1,1,Pin_1*%
%TO.N,Net-(J1-Pin_1)*%
X127000000Y-50800000D03*
D11*
%TO.P,J1,2,Pin_2*%
%TO.N,Net-(J1-Pin_2)*%
X129540000Y-50800000D03*
%TO.P,J1,3,Pin_3*%
%TO.N,Net-(J1-Pin_3)*%
X132080000Y-50800000D03*
%TO.P,J1,4,Pin_4*%
%TO.N,Net-(J1-Pin_4)*%
X134620000Y-50800000D03*
%TO.P,J1,5,Pin_5*%
%TO.N,Net-(J1-Pin_5)*%
X137160000Y-50800000D03*
%TO.P,J1,6,Pin_6*%
%TO.N,Net-(J1-Pin_6)*%
X139700000Y-50800000D03*
%TO.P,J1,7,Pin_7*%
%TO.N,Net-(J1-Pin_7)*%
X142240000Y-50800000D03*
%TO.P,J1,8,Pin_8*%
%TO.N,Net-(J1-Pin_8)*%
X144780000Y-50800000D03*
%TD*%
D10*
%TO.P,J5,1,Pin_1*%
%TO.N,Net-(J3-Pin_2)*%
X127000000Y-35560000D03*
D11*
%TO.P,J5,2,Pin_2*%
X129540000Y-35560000D03*
%TO.P,J5,3,Pin_3*%
X132080000Y-35560000D03*
%TO.P,J5,4,Pin_4*%
X134620000Y-35560000D03*
%TO.P,J5,5,Pin_5*%
X137160000Y-35560000D03*
%TO.P,J5,6,Pin_6*%
X139700000Y-35560000D03*
%TO.P,J5,7,Pin_7*%
X142240000Y-35560000D03*
%TO.P,J5,8,Pin_8*%
X144780000Y-35560000D03*
%TD*%
D10*
%TO.P,J4,1,Pin_1*%
%TO.N,GND*%
X127000000Y-38100000D03*
D11*
%TO.P,J4,2,Pin_2*%
X129540000Y-38100000D03*
%TO.P,J4,3,Pin_3*%
X132080000Y-38100000D03*
%TO.P,J4,4,Pin_4*%
X134620000Y-38100000D03*
%TO.P,J4,5,Pin_5*%
X137160000Y-38100000D03*
%TO.P,J4,6,Pin_6*%
X139700000Y-38100000D03*
%TO.P,J4,7,Pin_7*%
X142240000Y-38100000D03*
%TO.P,J4,8,Pin_8*%
X144780000Y-38100000D03*
%TD*%
D10*
%TO.P,J8,1,Pin_1*%
%TO.N,GND*%
X127000000Y-76200000D03*
D11*
%TO.P,J8,2,Pin_2*%
%TO.N,Net-(J10-Pin_1)*%
X127000000Y-78740000D03*
%TD*%
D10*
%TO.P,J3,1,Pin_1*%
%TO.N,GND*%
X127000000Y-48260000D03*
D11*
%TO.P,J3,2,Pin_2*%
%TO.N,Net-(J3-Pin_2)*%
X127000000Y-45720000D03*
%TD*%
D12*
%TO.N,GND*%
X143510000Y-61468000D03*
X144780000Y-71120000D03*
X133604000Y-61468000D03*
X134620000Y-71120000D03*
X129540000Y-71120000D03*
X135890000Y-61468000D03*
X138684000Y-61468000D03*
X137160000Y-71120000D03*
X128270000Y-61468000D03*
X139700000Y-71120000D03*
X131064000Y-61468000D03*
X141224000Y-61468000D03*
X132080000Y-71120000D03*
X142240000Y-71120000D03*
%TD*%
D13*
%TO.N,Net-(J1-Pin_8)*%
X144780000Y-50800000D02*
X144780000Y-40640000D01*
%TO.N,Net-(J1-Pin_3)*%
X132080000Y-50800000D02*
X132080000Y-40640000D01*
%TO.N,Net-(J1-Pin_5)*%
X137160000Y-40640000D02*
X137160000Y-50800000D01*
%TO.N,Net-(J1-Pin_7)*%
X142240000Y-50800000D02*
X142240000Y-40640000D01*
%TO.N,Net-(J1-Pin_2)*%
X129540000Y-40640000D02*
X129540000Y-50800000D01*
%TO.N,Net-(J1-Pin_6)*%
X139700000Y-50800000D02*
X139700000Y-40640000D01*
%TO.N,Net-(J1-Pin_4)*%
X134620000Y-40640000D02*
X134620000Y-50800000D01*
%TO.N,Net-(J6-Pin_7)*%
X143390000Y-64650000D02*
X143390000Y-72510000D01*
X143390000Y-72510000D02*
X142240000Y-73660000D01*
X142240000Y-63500000D02*
X143390000Y-64650000D01*
%TO.N,Net-(J6-Pin_6)*%
X140970000Y-64770000D02*
X140970000Y-72390000D01*
X139700000Y-63500000D02*
X140970000Y-64770000D01*
X140970000Y-72390000D02*
X139700000Y-73660000D01*
%TO.N,Net-(J6-Pin_4)*%
X135890000Y-72390000D02*
X134620000Y-73660000D01*
X135890000Y-64770000D02*
X135890000Y-72390000D01*
X134620000Y-63500000D02*
X135890000Y-64770000D01*
%TO.N,Net-(J6-Pin_8)*%
X146050000Y-64770000D02*
X146050000Y-72390000D01*
X146050000Y-72390000D02*
X144780000Y-73660000D01*
X144780000Y-63500000D02*
X146050000Y-64770000D01*
%TO.N,Net-(J6-Pin_5)*%
X138430000Y-72390000D02*
X137160000Y-73660000D01*
X137160000Y-63500000D02*
X138430000Y-64770000D01*
X138430000Y-64770000D02*
X138430000Y-72390000D01*
%TO.N,Net-(J6-Pin_3)*%
X133350000Y-64770000D02*
X133350000Y-72390000D01*
X133350000Y-72390000D02*
X132080000Y-73660000D01*
X132080000Y-63500000D02*
X133350000Y-64770000D01*
%TO.N,Net-(J6-Pin_1)*%
X127000000Y-63500000D02*
X128270000Y-64770000D01*
X128270000Y-72390000D02*
X127000000Y-73660000D01*
X128270000Y-64770000D02*
X128270000Y-72390000D01*
%TO.N,Net-(J6-Pin_2)*%
X129540000Y-63500000D02*
X130810000Y-64770000D01*
X130810000Y-64770000D02*
X130810000Y-72390000D01*
X130810000Y-72390000D02*
X129540000Y-73660000D01*
%TD*%
%TA.AperFunction,Conductor*%
%TO.N,GND*%
G36*
X125665362Y-34302185D02*
G01*
X125711117Y-34354989D01*
X125721061Y-34424147D01*
X125707153Y-34465930D01*
X125706204Y-34467667D01*
X125655908Y-34602517D01*
X125649501Y-34662116D01*
X125649500Y-34662135D01*
X125649500Y-36457870D01*
X125649501Y-36457876D01*
X125655908Y-36517483D01*
X125706202Y-36652328D01*
X125706206Y-36652335D01*
X125783889Y-36756105D01*
X125808307Y-36821569D01*
X125793456Y-36889842D01*
X125783890Y-36904727D01*
X125706647Y-37007910D01*
X125706645Y-37007913D01*
X125656403Y-37142620D01*
X125656401Y-37142627D01*
X125650000Y-37202155D01*
X125650000Y-37850000D01*
X126566988Y-37850000D01*
X126534075Y-37907007D01*
X126500000Y-38034174D01*
X126500000Y-38165826D01*
X126534075Y-38292993D01*
X126566988Y-38350000D01*
X125650000Y-38350000D01*
X125650000Y-38997844D01*
X125656401Y-39057372D01*
X125656403Y-39057379D01*
X125706645Y-39192086D01*
X125706646Y-39192088D01*
X125783890Y-39295272D01*
X125808307Y-39360736D01*
X125793456Y-39429009D01*
X125783890Y-39443894D01*
X125706204Y-39547669D01*
X125706202Y-39547671D01*
X125655908Y-39682517D01*
X125649501Y-39742116D01*
X125649500Y-39742135D01*
X125649500Y-41537870D01*
X125649501Y-41537876D01*
X125655908Y-41597483D01*
X125706202Y-41732328D01*
X125706206Y-41732335D01*
X125792452Y-41847544D01*
X125792455Y-41847547D01*
X125907664Y-41933793D01*
X125907671Y-41933797D01*
X126042517Y-41984091D01*
X126042516Y-41984091D01*
X126049444Y-41984835D01*
X126102127Y-41990500D01*
X127897872Y-41990499D01*
X127957483Y-41984091D01*
X128092331Y-41933796D01*
X128207546Y-41847546D01*
X128293796Y-41732331D01*
X128342810Y-41600916D01*
X128384681Y-41544984D01*
X128450145Y-41520566D01*
X128518418Y-41535417D01*
X128546673Y-41556569D01*
X128668599Y-41678495D01*
X128765384Y-41746265D01*
X128862165Y-41814032D01*
X128862167Y-41814033D01*
X128862170Y-41814035D01*
X128867898Y-41816706D01*
X128920339Y-41862872D01*
X128939500Y-41929090D01*
X128939500Y-49510908D01*
X128919815Y-49577947D01*
X128867914Y-49623286D01*
X128862173Y-49625963D01*
X128862169Y-49625965D01*
X128668600Y-49761503D01*
X128546673Y-49883430D01*
X128485350Y-49916914D01*
X128415658Y-49911930D01*
X128359725Y-49870058D01*
X128342810Y-49839081D01*
X128293797Y-49707671D01*
X128293795Y-49707668D01*
X128232632Y-49625965D01*
X128216109Y-49603893D01*
X128191692Y-49538430D01*
X128206543Y-49470157D01*
X128216110Y-49455271D01*
X128293352Y-49352089D01*
X128293354Y-49352086D01*
X128343596Y-49217379D01*
X128343598Y-49217372D01*
X128349999Y-49157844D01*
X128350000Y-49157827D01*
X128350000Y-48510000D01*
X127433012Y-48510000D01*
X127465925Y-48452993D01*
X127500000Y-48325826D01*
X127500000Y-48194174D01*
X127465925Y-48067007D01*
X127433012Y-48010000D01*
X128350000Y-48010000D01*
X128350000Y-47362172D01*
X128349999Y-47362155D01*
X128343598Y-47302627D01*
X128343596Y-47302620D01*
X128293354Y-47167913D01*
X128293350Y-47167906D01*
X128207190Y-47052812D01*
X128207187Y-47052809D01*
X128092093Y-46966649D01*
X128092088Y-46966646D01*
X127960528Y-46917577D01*
X127904595Y-46875705D01*
X127880178Y-46810241D01*
X127895030Y-46741968D01*
X127916175Y-46713720D01*
X128038495Y-46591401D01*
X128174035Y-46397830D01*
X128273903Y-46183663D01*
X128335063Y-45955408D01*
X128355659Y-45720000D01*
X128335063Y-45484592D01*
X128273903Y-45256337D01*
X128174035Y-45042171D01*
X128038495Y-44848599D01*
X128038494Y-44848597D01*
X127871402Y-44681506D01*
X127871395Y-44681501D01*
X127677834Y-44545967D01*
X127677830Y-44545965D01*
X127677828Y-44545964D01*
X127463663Y-44446097D01*
X127463659Y-44446096D01*
X127463655Y-44446094D01*
X127235413Y-44384938D01*
X127235403Y-44384936D01*
X127000001Y-44364341D01*
X126999999Y-44364341D01*
X126764596Y-44384936D01*
X126764586Y-44384938D01*
X126536344Y-44446094D01*
X126536335Y-44446098D01*
X126322171Y-44545964D01*
X126322169Y-44545965D01*
X126128597Y-44681505D01*
X125961505Y-44848597D01*
X125825965Y-45042169D01*
X125825964Y-45042171D01*
X125726098Y-45256335D01*
X125726094Y-45256344D01*
X125664938Y-45484586D01*
X125664936Y-45484596D01*
X125644341Y-45719999D01*
X125644341Y-45720000D01*
X125664936Y-45955403D01*
X125664938Y-45955413D01*
X125726094Y-46183655D01*
X125726096Y-46183659D01*
X125726097Y-46183663D01*
X125825965Y-46397830D01*
X125825967Y-46397834D01*
X125934281Y-46552521D01*
X125961501Y-46591396D01*
X125961506Y-46591402D01*
X126083818Y-46713714D01*
X126117303Y-46775037D01*
X126112319Y-46844729D01*
X126070447Y-46900662D01*
X126039471Y-46917577D01*
X125907912Y-46966646D01*
X125907906Y-46966649D01*
X125792812Y-47052809D01*
X125792809Y-47052812D01*
X125706649Y-47167906D01*
X125706645Y-47167913D01*
X125656403Y-47302620D01*
X125656401Y-47302627D01*
X125650000Y-47362155D01*
X125650000Y-48010000D01*
X126566988Y-48010000D01*
X126534075Y-48067007D01*
X126500000Y-48194174D01*
X126500000Y-48325826D01*
X126534075Y-48452993D01*
X126566988Y-48510000D01*
X125650000Y-48510000D01*
X125650000Y-49157844D01*
X125656401Y-49217372D01*
X125656403Y-49217379D01*
X125706645Y-49352086D01*
X125706646Y-49352088D01*
X125783890Y-49455272D01*
X125808307Y-49520736D01*
X125793456Y-49589009D01*
X125783890Y-49603894D01*
X125706204Y-49707669D01*
X125706202Y-49707671D01*
X125655908Y-49842517D01*
X125649501Y-49902116D01*
X125649500Y-49902135D01*
X125649500Y-51697870D01*
X125649501Y-51697876D01*
X125655908Y-51757483D01*
X125706202Y-51892328D01*
X125706206Y-51892335D01*
X125792452Y-52007544D01*
X125792455Y-52007547D01*
X125907664Y-52093793D01*
X125907671Y-52093797D01*
X126042517Y-52144091D01*
X126042516Y-52144091D01*
X126049444Y-52144835D01*
X126102127Y-52150500D01*
X127897872Y-52150499D01*
X127957483Y-52144091D01*
X128092331Y-52093796D01*
X128207546Y-52007546D01*
X128293796Y-51892331D01*
X128342810Y-51760916D01*
X128384681Y-51704984D01*
X128450145Y-51680566D01*
X128518418Y-51695417D01*
X128546673Y-51716569D01*
X128668599Y-51838495D01*
X128765384Y-51906265D01*
X128862165Y-51974032D01*
X128862167Y-51974033D01*
X128862170Y-51974035D01*
X129076337Y-52073903D01*
X129304592Y-52135063D01*
X129481034Y-52150500D01*
X129539999Y-52155659D01*
X129540000Y-52155659D01*
X129540001Y-52155659D01*
X129598966Y-52150500D01*
X129775408Y-52135063D01*
X130003663Y-52073903D01*
X130217830Y-51974035D01*
X130411401Y-51838495D01*
X130578495Y-51671401D01*
X130708425Y-51485842D01*
X130763002Y-51442217D01*
X130832500Y-51435023D01*
X130894855Y-51466546D01*
X130911575Y-51485842D01*
X131041500Y-51671395D01*
X131041505Y-51671401D01*
X131208599Y-51838495D01*
X131305384Y-51906265D01*
X131402165Y-51974032D01*
X131402167Y-51974033D01*
X131402170Y-51974035D01*
X131616337Y-52073903D01*
X131844592Y-52135063D01*
X132021034Y-52150500D01*
X132079999Y-52155659D01*
X132080000Y-52155659D01*
X132080001Y-52155659D01*
X132138966Y-52150500D01*
X132315408Y-52135063D01*
X132543663Y-52073903D01*
X132757830Y-51974035D01*
X132951401Y-51838495D01*
X133118495Y-51671401D01*
X133248425Y-51485842D01*
X133303002Y-51442217D01*
X133372500Y-51435023D01*
X133434855Y-51466546D01*
X133451575Y-51485842D01*
X133581500Y-51671395D01*
X133581505Y-51671401D01*
X133748599Y-51838495D01*
X133845384Y-51906265D01*
X133942165Y-51974032D01*
X133942167Y-51974033D01*
X133942170Y-51974035D01*
X134156337Y-52073903D01*
X134384592Y-52135063D01*
X134561034Y-52150500D01*
X134619999Y-52155659D01*
X134620000Y-52155659D01*
X134620001Y-52155659D01*
X134678966Y-52150500D01*
X134855408Y-52135063D01*
X135083663Y-52073903D01*
X135297830Y-51974035D01*
X135491401Y-51838495D01*
X135658495Y-51671401D01*
X135788425Y-51485842D01*
X135843002Y-51442217D01*
X135912500Y-51435023D01*
X135974855Y-51466546D01*
X135991575Y-51485842D01*
X136121500Y-51671395D01*
X136121505Y-51671401D01*
X136288599Y-51838495D01*
X136385384Y-51906265D01*
X136482165Y-51974032D01*
X136482167Y-51974033D01*
X136482170Y-51974035D01*
X136696337Y-52073903D01*
X136924592Y-52135063D01*
X137101034Y-52150500D01*
X137159999Y-52155659D01*
X137160000Y-52155659D01*
X137160001Y-52155659D01*
X137218966Y-52150500D01*
X137395408Y-52135063D01*
X137623663Y-52073903D01*
X137837830Y-51974035D01*
X138031401Y-51838495D01*
X138198495Y-51671401D01*
X138328425Y-51485842D01*
X138383002Y-51442217D01*
X138452500Y-51435023D01*
X138514855Y-51466546D01*
X138531575Y-51485842D01*
X138661500Y-51671395D01*
X138661505Y-51671401D01*
X138828599Y-51838495D01*
X138925384Y-51906265D01*
X139022165Y-51974032D01*
X139022167Y-51974033D01*
X139022170Y-51974035D01*
X139236337Y-52073903D01*
X139464592Y-52135063D01*
X139641034Y-52150500D01*
X139699999Y-52155659D01*
X139700000Y-52155659D01*
X139700001Y-52155659D01*
X139758966Y-52150500D01*
X139935408Y-52135063D01*
X140163663Y-52073903D01*
X140377830Y-51974035D01*
X140571401Y-51838495D01*
X140738495Y-51671401D01*
X140868425Y-51485842D01*
X140923002Y-51442217D01*
X140992500Y-51435023D01*
X141054855Y-51466546D01*
X141071575Y-51485842D01*
X141201500Y-51671395D01*
X141201505Y-51671401D01*
X141368599Y-51838495D01*
X141465384Y-51906265D01*
X141562165Y-51974032D01*
X141562167Y-51974033D01*
X141562170Y-51974035D01*
X141776337Y-52073903D01*
X142004592Y-52135063D01*
X142181034Y-52150500D01*
X142239999Y-52155659D01*
X142240000Y-52155659D01*
X142240001Y-52155659D01*
X142298966Y-52150500D01*
X142475408Y-52135063D01*
X142703663Y-52073903D01*
X142917830Y-51974035D01*
X143111401Y-51838495D01*
X143278495Y-51671401D01*
X143408425Y-51485842D01*
X143463002Y-51442217D01*
X143532500Y-51435023D01*
X143594855Y-51466546D01*
X143611575Y-51485842D01*
X143741500Y-51671395D01*
X143741505Y-51671401D01*
X143908599Y-51838495D01*
X144005384Y-51906265D01*
X144102165Y-51974032D01*
X144102167Y-51974033D01*
X144102170Y-51974035D01*
X144316337Y-52073903D01*
X144544592Y-52135063D01*
X144721034Y-52150500D01*
X144779999Y-52155659D01*
X144780000Y-52155659D01*
X144780001Y-52155659D01*
X144838966Y-52150500D01*
X145015408Y-52135063D01*
X145243663Y-52073903D01*
X145457830Y-51974035D01*
X145651401Y-51838495D01*
X145818495Y-51671401D01*
X145954035Y-51477830D01*
X146053903Y-51263663D01*
X146115063Y-51035408D01*
X146135659Y-50800000D01*
X146115063Y-50564592D01*
X146053903Y-50336337D01*
X145954035Y-50122171D01*
X145948425Y-50114158D01*
X145818494Y-49928597D01*
X145651402Y-49761506D01*
X145651395Y-49761501D01*
X145457831Y-49625965D01*
X145457826Y-49625962D01*
X145452091Y-49623288D01*
X145399653Y-49577113D01*
X145380500Y-49510908D01*
X145380500Y-41929090D01*
X145400185Y-41862051D01*
X145452101Y-41816706D01*
X145457830Y-41814035D01*
X145651401Y-41678495D01*
X145818495Y-41511401D01*
X145954035Y-41317830D01*
X146053903Y-41103663D01*
X146115063Y-40875408D01*
X146135659Y-40640000D01*
X146115063Y-40404592D01*
X146053903Y-40176337D01*
X145954035Y-39962171D01*
X145948425Y-39954158D01*
X145818494Y-39768597D01*
X145651402Y-39601506D01*
X145651401Y-39601505D01*
X145465405Y-39471269D01*
X145421781Y-39416692D01*
X145414588Y-39347193D01*
X145446110Y-39284839D01*
X145465405Y-39268119D01*
X145651082Y-39138105D01*
X145818105Y-38971082D01*
X145953600Y-38777578D01*
X146053429Y-38563492D01*
X146053432Y-38563486D01*
X146110636Y-38350000D01*
X145213012Y-38350000D01*
X145245925Y-38292993D01*
X145280000Y-38165826D01*
X145280000Y-38034174D01*
X145245925Y-37907007D01*
X145213012Y-37850000D01*
X146110636Y-37850000D01*
X146110635Y-37849999D01*
X146053432Y-37636513D01*
X146053429Y-37636507D01*
X145953600Y-37422422D01*
X145953599Y-37422420D01*
X145818113Y-37228926D01*
X145818108Y-37228920D01*
X145651078Y-37061890D01*
X145465405Y-36931879D01*
X145421780Y-36877302D01*
X145414588Y-36807804D01*
X145446110Y-36745449D01*
X145465406Y-36728730D01*
X145651401Y-36598495D01*
X145818495Y-36431401D01*
X145954035Y-36237830D01*
X146053903Y-36023663D01*
X146115063Y-35795408D01*
X146135659Y-35560000D01*
X146115063Y-35324592D01*
X146053903Y-35096337D01*
X145954035Y-34882171D01*
X145948425Y-34874158D01*
X145818494Y-34688597D01*
X145651402Y-34521506D01*
X145651393Y-34521498D01*
X145632221Y-34508074D01*
X145588596Y-34453497D01*
X145581404Y-34383998D01*
X145612927Y-34321644D01*
X145673157Y-34286231D01*
X145703345Y-34282500D01*
X146695500Y-34282500D01*
X146762539Y-34302185D01*
X146808294Y-34354989D01*
X146819500Y-34406500D01*
X146819500Y-64439039D01*
X146799815Y-64506078D01*
X146747011Y-64551833D01*
X146677853Y-64561777D01*
X146614297Y-64532752D01*
X146588115Y-64501043D01*
X146580640Y-64488097D01*
X146580637Y-64488092D01*
X146530520Y-64401284D01*
X146418716Y-64289480D01*
X146418715Y-64289479D01*
X146414385Y-64285149D01*
X146414374Y-64285139D01*
X146112766Y-63983531D01*
X146079281Y-63922208D01*
X146080672Y-63863757D01*
X146081863Y-63859309D01*
X146115063Y-63735408D01*
X146135659Y-63500000D01*
X146115063Y-63264592D01*
X146053903Y-63036337D01*
X145954035Y-62822171D01*
X145948425Y-62814158D01*
X145818494Y-62628597D01*
X145651402Y-62461506D01*
X145651395Y-62461501D01*
X145457834Y-62325967D01*
X145457830Y-62325965D01*
X145457828Y-62325964D01*
X145243663Y-62226097D01*
X145243659Y-62226096D01*
X145243655Y-62226094D01*
X145015413Y-62164938D01*
X145015403Y-62164936D01*
X144780001Y-62144341D01*
X144779999Y-62144341D01*
X144544596Y-62164936D01*
X144544586Y-62164938D01*
X144316344Y-62226094D01*
X144316335Y-62226098D01*
X144102171Y-62325964D01*
X144102169Y-62325965D01*
X143908597Y-62461505D01*
X143741505Y-62628597D01*
X143611575Y-62814158D01*
X143556998Y-62857783D01*
X143487500Y-62864977D01*
X143425145Y-62833454D01*
X143408425Y-62814158D01*
X143278494Y-62628597D01*
X143111402Y-62461506D01*
X143111395Y-62461501D01*
X142917834Y-62325967D01*
X142917830Y-62325965D01*
X142917828Y-62325964D01*
X142703663Y-62226097D01*
X142703659Y-62226096D01*
X142703655Y-62226094D01*
X142475413Y-62164938D01*
X142475403Y-62164936D01*
X142240001Y-62144341D01*
X142239999Y-62144341D01*
X142004596Y-62164936D01*
X142004586Y-62164938D01*
X141776344Y-62226094D01*
X141776335Y-62226098D01*
X141562171Y-62325964D01*
X141562169Y-62325965D01*
X141368597Y-62461505D01*
X141201505Y-62628597D01*
X141071575Y-62814158D01*
X141016998Y-62857783D01*
X140947500Y-62864977D01*
X140885145Y-62833454D01*
X140868425Y-62814158D01*
X140738494Y-62628597D01*
X140571402Y-62461506D01*
X140571395Y-62461501D01*
X140377834Y-62325967D01*
X140377830Y-62325965D01*
X140377828Y-62325964D01*
X140163663Y-62226097D01*
X140163659Y-62226096D01*
X140163655Y-62226094D01*
X139935413Y-62164938D01*
X139935403Y-62164936D01*
X139700001Y-62144341D01*
X139699999Y-62144341D01*
X139464596Y-62164936D01*
X139464586Y-62164938D01*
X139236344Y-62226094D01*
X139236335Y-62226098D01*
X139022171Y-62325964D01*
X139022169Y-62325965D01*
X138828597Y-62461505D01*
X138661505Y-62628597D01*
X138531575Y-62814158D01*
X138476998Y-62857783D01*
X138407500Y-62864977D01*
X138345145Y-62833454D01*
X138328425Y-62814158D01*
X138198494Y-62628597D01*
X138031402Y-62461506D01*
X138031395Y-62461501D01*
X137837834Y-62325967D01*
X137837830Y-62325965D01*
X137837828Y-62325964D01*
X137623663Y-62226097D01*
X137623659Y-62226096D01*
X137623655Y-62226094D01*
X137395413Y-62164938D01*
X137395403Y-62164936D01*
X137160001Y-62144341D01*
X137159999Y-62144341D01*
X136924596Y-62164936D01*
X136924586Y-62164938D01*
X136696344Y-62226094D01*
X136696335Y-62226098D01*
X136482171Y-62325964D01*
X136482169Y-62325965D01*
X136288597Y-62461505D01*
X136121505Y-62628597D01*
X135991575Y-62814158D01*
X135936998Y-62857783D01*
X135867500Y-62864977D01*
X135805145Y-62833454D01*
X135788425Y-62814158D01*
X135658494Y-62628597D01*
X135491402Y-62461506D01*
X135491395Y-62461501D01*
X135297834Y-62325967D01*
X135297830Y-62325965D01*
X135297828Y-62325964D01*
X135083663Y-62226097D01*
X135083659Y-62226096D01*
X135083655Y-62226094D01*
X134855413Y-62164938D01*
X134855403Y-62164936D01*
X134620001Y-62144341D01*
X134619999Y-62144341D01*
X134384596Y-62164936D01*
X134384586Y-62164938D01*
X134156344Y-62226094D01*
X134156335Y-62226098D01*
X133942171Y-62325964D01*
X133942169Y-62325965D01*
X133748597Y-62461505D01*
X133581505Y-62628597D01*
X133451575Y-62814158D01*
X133396998Y-62857783D01*
X133327500Y-62864977D01*
X133265145Y-62833454D01*
X133248425Y-62814158D01*
X133118494Y-62628597D01*
X132951402Y-62461506D01*
X132951395Y-62461501D01*
X132757834Y-62325967D01*
X132757830Y-62325965D01*
X132757828Y-62325964D01*
X132543663Y-62226097D01*
X132543659Y-62226096D01*
X132543655Y-62226094D01*
X132315413Y-62164938D01*
X132315403Y-62164936D01*
X132080001Y-62144341D01*
X132079999Y-62144341D01*
X131844596Y-62164936D01*
X131844586Y-62164938D01*
X131616344Y-62226094D01*
X131616335Y-62226098D01*
X131402171Y-62325964D01*
X131402169Y-62325965D01*
X131208597Y-62461505D01*
X131041505Y-62628597D01*
X130911575Y-62814158D01*
X130856998Y-62857783D01*
X130787500Y-62864977D01*
X130725145Y-62833454D01*
X130708425Y-62814158D01*
X130578494Y-62628597D01*
X130411402Y-62461506D01*
X130411395Y-62461501D01*
X130217834Y-62325967D01*
X130217830Y-62325965D01*
X130217828Y-62325964D01*
X130003663Y-62226097D01*
X130003659Y-62226096D01*
X130003655Y-62226094D01*
X129775413Y-62164938D01*
X129775403Y-62164936D01*
X129540001Y-62144341D01*
X129539999Y-62144341D01*
X129304596Y-62164936D01*
X129304586Y-62164938D01*
X129076344Y-62226094D01*
X129076335Y-62226098D01*
X128862171Y-62325964D01*
X128862169Y-62325965D01*
X128668600Y-62461503D01*
X128546673Y-62583430D01*
X128485350Y-62616914D01*
X128415658Y-62611930D01*
X128359725Y-62570058D01*
X128342810Y-62539081D01*
X128293797Y-62407671D01*
X128293793Y-62407664D01*
X128207547Y-62292455D01*
X128207544Y-62292452D01*
X128092335Y-62206206D01*
X128092328Y-62206202D01*
X127957482Y-62155908D01*
X127957483Y-62155908D01*
X127897883Y-62149501D01*
X127897881Y-62149500D01*
X127897873Y-62149500D01*
X127897864Y-62149500D01*
X126102129Y-62149500D01*
X126102123Y-62149501D01*
X126042516Y-62155908D01*
X125907671Y-62206202D01*
X125907664Y-62206206D01*
X125792455Y-62292452D01*
X125792452Y-62292455D01*
X125706206Y-62407664D01*
X125706202Y-62407671D01*
X125655908Y-62542517D01*
X125649501Y-62602116D01*
X125649500Y-62602135D01*
X125649500Y-64397870D01*
X125649501Y-64397876D01*
X125655908Y-64457483D01*
X125706202Y-64592328D01*
X125706206Y-64592335D01*
X125783889Y-64696105D01*
X125808307Y-64761569D01*
X125793456Y-64829842D01*
X125783890Y-64844727D01*
X125706647Y-64947910D01*
X125706645Y-64947913D01*
X125656403Y-65082620D01*
X125656401Y-65082627D01*
X125650000Y-65142155D01*
X125650000Y-65790000D01*
X126566988Y-65790000D01*
X126534075Y-65847007D01*
X126500000Y-65974174D01*
X126500000Y-66105826D01*
X126534075Y-66232993D01*
X126566988Y-66290000D01*
X125650000Y-66290000D01*
X125650000Y-66937844D01*
X125656401Y-66997372D01*
X125656403Y-66997379D01*
X125706645Y-67132086D01*
X125706646Y-67132088D01*
X125783890Y-67235272D01*
X125808307Y-67300736D01*
X125793456Y-67369009D01*
X125783890Y-67383894D01*
X125706204Y-67487669D01*
X125706202Y-67487671D01*
X125655908Y-67622517D01*
X125649501Y-67682116D01*
X125649500Y-67682135D01*
X125649500Y-69477870D01*
X125649501Y-69477876D01*
X125655908Y-69537483D01*
X125706202Y-69672328D01*
X125706206Y-69672335D01*
X125792452Y-69787544D01*
X125792455Y-69787547D01*
X125907664Y-69873793D01*
X125907671Y-69873797D01*
X126042517Y-69924091D01*
X126042516Y-69924091D01*
X126049444Y-69924835D01*
X126102127Y-69930500D01*
X127545500Y-69930499D01*
X127612539Y-69950184D01*
X127658294Y-70002987D01*
X127669500Y-70054499D01*
X127669500Y-72089901D01*
X127649815Y-72156940D01*
X127633181Y-72177582D01*
X127537582Y-72273181D01*
X127476259Y-72306666D01*
X127449901Y-72309500D01*
X126102129Y-72309500D01*
X126102123Y-72309501D01*
X126042516Y-72315908D01*
X125907671Y-72366202D01*
X125907664Y-72366206D01*
X125792455Y-72452452D01*
X125792452Y-72452455D01*
X125706206Y-72567664D01*
X125706202Y-72567671D01*
X125655908Y-72702517D01*
X125649501Y-72762116D01*
X125649500Y-72762135D01*
X125649500Y-74557870D01*
X125649501Y-74557876D01*
X125655908Y-74617483D01*
X125706202Y-74752328D01*
X125706206Y-74752335D01*
X125783889Y-74856105D01*
X125808307Y-74921569D01*
X125793456Y-74989842D01*
X125783890Y-75004727D01*
X125706647Y-75107910D01*
X125706645Y-75107913D01*
X125656403Y-75242620D01*
X125656401Y-75242627D01*
X125650000Y-75302155D01*
X125650000Y-75950000D01*
X126566988Y-75950000D01*
X126534075Y-76007007D01*
X126500000Y-76134174D01*
X126500000Y-76265826D01*
X126534075Y-76392993D01*
X126566988Y-76450000D01*
X125650000Y-76450000D01*
X125650000Y-77097844D01*
X125656401Y-77157372D01*
X125656403Y-77157379D01*
X125706645Y-77292086D01*
X125706649Y-77292093D01*
X125792809Y-77407187D01*
X125792812Y-77407190D01*
X125907906Y-77493350D01*
X125907913Y-77493354D01*
X126039470Y-77542421D01*
X126095403Y-77584292D01*
X126119821Y-77649756D01*
X126104970Y-77718029D01*
X126083819Y-77746284D01*
X125961503Y-77868600D01*
X125825965Y-78062169D01*
X125825964Y-78062171D01*
X125726098Y-78276335D01*
X125726094Y-78276344D01*
X125664938Y-78504586D01*
X125664936Y-78504596D01*
X125644341Y-78739999D01*
X125644341Y-78740000D01*
X125664936Y-78975403D01*
X125664938Y-78975413D01*
X125726094Y-79203655D01*
X125726096Y-79203659D01*
X125726097Y-79203663D01*
X125825965Y-79417830D01*
X125825967Y-79417834D01*
X125961501Y-79611395D01*
X125961506Y-79611402D01*
X126128597Y-79778493D01*
X126128606Y-79778501D01*
X126147779Y-79791926D01*
X126191404Y-79846503D01*
X126198596Y-79916002D01*
X126167073Y-79978356D01*
X126106843Y-80013769D01*
X126076655Y-80017500D01*
X123814500Y-80017500D01*
X123747461Y-79997815D01*
X123701706Y-79945011D01*
X123690500Y-79893500D01*
X123690500Y-34406500D01*
X123710185Y-34339461D01*
X123762989Y-34293706D01*
X123814500Y-34282500D01*
X125598323Y-34282500D01*
X125665362Y-34302185D01*
G37*
%TD.AperFunction*%
%TA.AperFunction,Conductor*%
G36*
X146772126Y-72623471D02*
G01*
X146773701Y-72625681D01*
X146782869Y-72633819D01*
X146782870Y-72633820D01*
X146780901Y-72635788D01*
X146812669Y-72680374D01*
X146819500Y-72720962D01*
X146819500Y-79893500D01*
X146799815Y-79960539D01*
X146747011Y-80006294D01*
X146695500Y-80017500D01*
X127923345Y-80017500D01*
X127856306Y-79997815D01*
X127810551Y-79945011D01*
X127800607Y-79875853D01*
X127829632Y-79812297D01*
X127852221Y-79791926D01*
X127871393Y-79778501D01*
X127871395Y-79778499D01*
X127871401Y-79778495D01*
X128038495Y-79611401D01*
X128174035Y-79417830D01*
X128273903Y-79203663D01*
X128335063Y-78975408D01*
X128355659Y-78740000D01*
X128335063Y-78504592D01*
X128273903Y-78276337D01*
X128174035Y-78062171D01*
X128038495Y-77868599D01*
X127916179Y-77746283D01*
X127882696Y-77684963D01*
X127887680Y-77615271D01*
X127929551Y-77559337D01*
X127960529Y-77542422D01*
X128092086Y-77493354D01*
X128092093Y-77493350D01*
X128207187Y-77407190D01*
X128207190Y-77407187D01*
X128293350Y-77292093D01*
X128293354Y-77292086D01*
X128343596Y-77157379D01*
X128343598Y-77157372D01*
X128349999Y-77097844D01*
X128350000Y-77097827D01*
X128350000Y-76450000D01*
X127433012Y-76450000D01*
X127465925Y-76392993D01*
X127500000Y-76265826D01*
X127500000Y-76134174D01*
X127465925Y-76007007D01*
X127433012Y-75950000D01*
X128350000Y-75950000D01*
X128350000Y-75302172D01*
X128349999Y-75302155D01*
X128343598Y-75242627D01*
X128343596Y-75242620D01*
X128293354Y-75107913D01*
X128293352Y-75107910D01*
X128216110Y-75004729D01*
X128191692Y-74939265D01*
X128206543Y-74870992D01*
X128216105Y-74856111D01*
X128293796Y-74752331D01*
X128342810Y-74620916D01*
X128384681Y-74564984D01*
X128450145Y-74540566D01*
X128518418Y-74555417D01*
X128546673Y-74576569D01*
X128668599Y-74698495D01*
X128765384Y-74766265D01*
X128862165Y-74834032D01*
X128862167Y-74834033D01*
X128862170Y-74834035D01*
X129076337Y-74933903D01*
X129304592Y-74995063D01*
X129481034Y-75010500D01*
X129539999Y-75015659D01*
X129540000Y-75015659D01*
X129540001Y-75015659D01*
X129598966Y-75010500D01*
X129775408Y-74995063D01*
X130003663Y-74933903D01*
X130217830Y-74834035D01*
X130411401Y-74698495D01*
X130578495Y-74531401D01*
X130708425Y-74345842D01*
X130763002Y-74302217D01*
X130832500Y-74295023D01*
X130894855Y-74326546D01*
X130911575Y-74345842D01*
X131041500Y-74531395D01*
X131041505Y-74531401D01*
X131208599Y-74698495D01*
X131305384Y-74766265D01*
X131402165Y-74834032D01*
X131402167Y-74834033D01*
X131402170Y-74834035D01*
X131616337Y-74933903D01*
X131844592Y-74995063D01*
X132021034Y-75010500D01*
X132079999Y-75015659D01*
X132080000Y-75015659D01*
X132080001Y-75015659D01*
X132138966Y-75010500D01*
X132315408Y-74995063D01*
X132543663Y-74933903D01*
X132757830Y-74834035D01*
X132951401Y-74698495D01*
X133118495Y-74531401D01*
X133248425Y-74345842D01*
X133303002Y-74302217D01*
X133372500Y-74295023D01*
X133434855Y-74326546D01*
X133451575Y-74345842D01*
X133581500Y-74531395D01*
X133581505Y-74531401D01*
X133748599Y-74698495D01*
X133845384Y-74766265D01*
X133942165Y-74834032D01*
X133942167Y-74834033D01*
X133942170Y-74834035D01*
X134156337Y-74933903D01*
X134384592Y-74995063D01*
X134561034Y-75010500D01*
X134619999Y-75015659D01*
X134620000Y-75015659D01*
X134620001Y-75015659D01*
X134678966Y-75010500D01*
X134855408Y-74995063D01*
X135083663Y-74933903D01*
X135297830Y-74834035D01*
X135491401Y-74698495D01*
X135658495Y-74531401D01*
X135788425Y-74345842D01*
X135843002Y-74302217D01*
X135912500Y-74295023D01*
X135974855Y-74326546D01*
X135991575Y-74345842D01*
X136121500Y-74531395D01*
X136121505Y-74531401D01*
X136288599Y-74698495D01*
X136385384Y-74766265D01*
X136482165Y-74834032D01*
X136482167Y-74834033D01*
X136482170Y-74834035D01*
X136696337Y-74933903D01*
X136924592Y-74995063D01*
X137101034Y-75010500D01*
X137159999Y-75015659D01*
X137160000Y-75015659D01*
X137160001Y-75015659D01*
X137218966Y-75010500D01*
X137395408Y-74995063D01*
X137623663Y-74933903D01*
X137837830Y-74834035D01*
X138031401Y-74698495D01*
X138198495Y-74531401D01*
X138328425Y-74345842D01*
X138383002Y-74302217D01*
X138452500Y-74295023D01*
X138514855Y-74326546D01*
X138531575Y-74345842D01*
X138661500Y-74531395D01*
X138661505Y-74531401D01*
X138828599Y-74698495D01*
X138925384Y-74766265D01*
X139022165Y-74834032D01*
X139022167Y-74834033D01*
X139022170Y-74834035D01*
X139236337Y-74933903D01*
X139464592Y-74995063D01*
X139641034Y-75010500D01*
X139699999Y-75015659D01*
X139700000Y-75015659D01*
X139700001Y-75015659D01*
X139758966Y-75010500D01*
X139935408Y-74995063D01*
X140163663Y-74933903D01*
X140377830Y-74834035D01*
X140571401Y-74698495D01*
X140738495Y-74531401D01*
X140868425Y-74345842D01*
X140923002Y-74302217D01*
X140992500Y-74295023D01*
X141054855Y-74326546D01*
X141071575Y-74345842D01*
X141201500Y-74531395D01*
X141201505Y-74531401D01*
X141368599Y-74698495D01*
X141465384Y-74766265D01*
X141562165Y-74834032D01*
X141562167Y-74834033D01*
X141562170Y-74834035D01*
X141776337Y-74933903D01*
X142004592Y-74995063D01*
X142181034Y-75010500D01*
X142239999Y-75015659D01*
X142240000Y-75015659D01*
X142240001Y-75015659D01*
X142298966Y-75010500D01*
X142475408Y-74995063D01*
X142703663Y-74933903D01*
X142917830Y-74834035D01*
X143111401Y-74698495D01*
X143278495Y-74531401D01*
X143408425Y-74345842D01*
X143463002Y-74302217D01*
X143532500Y-74295023D01*
X143594855Y-74326546D01*
X143611575Y-74345842D01*
X143741500Y-74531395D01*
X143741505Y-74531401D01*
X143908599Y-74698495D01*
X144005384Y-74766265D01*
X144102165Y-74834032D01*
X144102167Y-74834033D01*
X144102170Y-74834035D01*
X144316337Y-74933903D01*
X144544592Y-74995063D01*
X144721034Y-75010500D01*
X144779999Y-75015659D01*
X144780000Y-75015659D01*
X144780001Y-75015659D01*
X144838966Y-75010500D01*
X145015408Y-74995063D01*
X145243663Y-74933903D01*
X145457830Y-74834035D01*
X145651401Y-74698495D01*
X145818495Y-74531401D01*
X145954035Y-74337830D01*
X146053903Y-74123663D01*
X146115063Y-73895408D01*
X146135659Y-73660000D01*
X146115063Y-73424592D01*
X146080671Y-73296239D01*
X146082334Y-73226393D01*
X146112763Y-73176470D01*
X146408506Y-72880728D01*
X146408511Y-72880724D01*
X146418714Y-72870520D01*
X146418716Y-72870520D01*
X146530520Y-72758716D01*
X146587802Y-72659500D01*
X146588096Y-72658991D01*
X146638650Y-72610762D01*
X146707254Y-72597520D01*
X146772126Y-72623471D01*
G37*
%TD.AperFunction*%
%TA.AperFunction,Conductor*%
G36*
X144166901Y-69784220D02*
G01*
X144316337Y-69853903D01*
X144544592Y-69915063D01*
X144721034Y-69930500D01*
X144779999Y-69935659D01*
X144780000Y-69935659D01*
X144780001Y-69935659D01*
X144838966Y-69930500D01*
X145015408Y-69915063D01*
X145243663Y-69853903D01*
X145273097Y-69840177D01*
X145342171Y-69829686D01*
X145405956Y-69858205D01*
X145444196Y-69916681D01*
X145449500Y-69952560D01*
X145449500Y-72089902D01*
X145429815Y-72156941D01*
X145413181Y-72177584D01*
X145263530Y-72327234D01*
X145202207Y-72360718D01*
X145143756Y-72359327D01*
X145015413Y-72324938D01*
X145015403Y-72324936D01*
X144780001Y-72304341D01*
X144779999Y-72304341D01*
X144544596Y-72324936D01*
X144544586Y-72324938D01*
X144316344Y-72386094D01*
X144316335Y-72386097D01*
X144220167Y-72430942D01*
X144174040Y-72452452D01*
X144166905Y-72455779D01*
X144097828Y-72466271D01*
X144034044Y-72437751D01*
X143995804Y-72379275D01*
X143990500Y-72343397D01*
X143990500Y-69896603D01*
X144010185Y-69829564D01*
X144062989Y-69783809D01*
X144132147Y-69773865D01*
X144166901Y-69784220D01*
G37*
%TD.AperFunction*%
%TA.AperFunction,Conductor*%
G36*
X130165956Y-69858205D02*
G01*
X130204196Y-69916681D01*
X130209500Y-69952560D01*
X130209500Y-72089902D01*
X130189815Y-72156941D01*
X130173181Y-72177584D01*
X130023530Y-72327234D01*
X129962207Y-72360718D01*
X129903756Y-72359327D01*
X129775413Y-72324938D01*
X129775403Y-72324936D01*
X129540001Y-72304341D01*
X129539999Y-72304341D01*
X129304596Y-72324936D01*
X129304586Y-72324938D01*
X129076344Y-72386094D01*
X129076335Y-72386098D01*
X129046903Y-72399822D01*
X128977826Y-72410313D01*
X128914042Y-72381792D01*
X128875803Y-72323315D01*
X128870500Y-72287439D01*
X128870500Y-69952560D01*
X128890185Y-69885521D01*
X128942989Y-69839766D01*
X129012147Y-69829822D01*
X129046900Y-69840176D01*
X129076337Y-69853903D01*
X129304592Y-69915063D01*
X129481034Y-69930500D01*
X129539999Y-69935659D01*
X129540000Y-69935659D01*
X129540001Y-69935659D01*
X129598966Y-69930500D01*
X129775408Y-69915063D01*
X130003663Y-69853903D01*
X130033097Y-69840177D01*
X130102171Y-69829686D01*
X130165956Y-69858205D01*
G37*
%TD.AperFunction*%
%TA.AperFunction,Conductor*%
G36*
X132705956Y-69858205D02*
G01*
X132744196Y-69916681D01*
X132749500Y-69952560D01*
X132749500Y-72089902D01*
X132729815Y-72156941D01*
X132713181Y-72177584D01*
X132563530Y-72327234D01*
X132502207Y-72360718D01*
X132443756Y-72359327D01*
X132315413Y-72324938D01*
X132315403Y-72324936D01*
X132080001Y-72304341D01*
X132079999Y-72304341D01*
X131844596Y-72324936D01*
X131844586Y-72324938D01*
X131616344Y-72386094D01*
X131616335Y-72386098D01*
X131586903Y-72399822D01*
X131517826Y-72410313D01*
X131454042Y-72381792D01*
X131415803Y-72323315D01*
X131410500Y-72287439D01*
X131410500Y-69952560D01*
X131430185Y-69885521D01*
X131482989Y-69839766D01*
X131552147Y-69829822D01*
X131586900Y-69840176D01*
X131616337Y-69853903D01*
X131844592Y-69915063D01*
X132021034Y-69930500D01*
X132079999Y-69935659D01*
X132080000Y-69935659D01*
X132080001Y-69935659D01*
X132138966Y-69930500D01*
X132315408Y-69915063D01*
X132543663Y-69853903D01*
X132573097Y-69840177D01*
X132642171Y-69829686D01*
X132705956Y-69858205D01*
G37*
%TD.AperFunction*%
%TA.AperFunction,Conductor*%
G36*
X135245956Y-69858205D02*
G01*
X135284196Y-69916681D01*
X135289500Y-69952560D01*
X135289500Y-72089902D01*
X135269815Y-72156941D01*
X135253181Y-72177584D01*
X135103530Y-72327234D01*
X135042207Y-72360718D01*
X134983756Y-72359327D01*
X134855413Y-72324938D01*
X134855403Y-72324936D01*
X134620001Y-72304341D01*
X134619999Y-72304341D01*
X134384596Y-72324936D01*
X134384586Y-72324938D01*
X134156344Y-72386094D01*
X134156335Y-72386098D01*
X134126903Y-72399822D01*
X134057826Y-72410313D01*
X133994042Y-72381792D01*
X133955803Y-72323315D01*
X133950500Y-72287439D01*
X133950500Y-69952560D01*
X133970185Y-69885521D01*
X134022989Y-69839766D01*
X134092147Y-69829822D01*
X134126900Y-69840176D01*
X134156337Y-69853903D01*
X134384592Y-69915063D01*
X134561034Y-69930500D01*
X134619999Y-69935659D01*
X134620000Y-69935659D01*
X134620001Y-69935659D01*
X134678966Y-69930500D01*
X134855408Y-69915063D01*
X135083663Y-69853903D01*
X135113097Y-69840177D01*
X135182171Y-69829686D01*
X135245956Y-69858205D01*
G37*
%TD.AperFunction*%
%TA.AperFunction,Conductor*%
G36*
X137785956Y-69858205D02*
G01*
X137824196Y-69916681D01*
X137829500Y-69952560D01*
X137829500Y-72089902D01*
X137809815Y-72156941D01*
X137793181Y-72177584D01*
X137643530Y-72327234D01*
X137582207Y-72360718D01*
X137523756Y-72359327D01*
X137395413Y-72324938D01*
X137395403Y-72324936D01*
X137160001Y-72304341D01*
X137159999Y-72304341D01*
X136924596Y-72324936D01*
X136924586Y-72324938D01*
X136696344Y-72386094D01*
X136696335Y-72386098D01*
X136666903Y-72399822D01*
X136597826Y-72410313D01*
X136534042Y-72381792D01*
X136495803Y-72323315D01*
X136490500Y-72287439D01*
X136490500Y-69952560D01*
X136510185Y-69885521D01*
X136562989Y-69839766D01*
X136632147Y-69829822D01*
X136666900Y-69840176D01*
X136696337Y-69853903D01*
X136924592Y-69915063D01*
X137101034Y-69930500D01*
X137159999Y-69935659D01*
X137160000Y-69935659D01*
X137160001Y-69935659D01*
X137218966Y-69930500D01*
X137395408Y-69915063D01*
X137623663Y-69853903D01*
X137653097Y-69840177D01*
X137722171Y-69829686D01*
X137785956Y-69858205D01*
G37*
%TD.AperFunction*%
%TA.AperFunction,Conductor*%
G36*
X140325956Y-69858205D02*
G01*
X140364196Y-69916681D01*
X140369500Y-69952560D01*
X140369500Y-72089902D01*
X140349815Y-72156941D01*
X140333181Y-72177584D01*
X140183530Y-72327234D01*
X140122207Y-72360718D01*
X140063756Y-72359327D01*
X139935413Y-72324938D01*
X139935403Y-72324936D01*
X139700001Y-72304341D01*
X139699999Y-72304341D01*
X139464596Y-72324936D01*
X139464586Y-72324938D01*
X139236344Y-72386094D01*
X139236335Y-72386098D01*
X139206903Y-72399822D01*
X139137826Y-72410313D01*
X139074042Y-72381792D01*
X139035803Y-72323315D01*
X139030500Y-72287439D01*
X139030500Y-69952560D01*
X139050185Y-69885521D01*
X139102989Y-69839766D01*
X139172147Y-69829822D01*
X139206900Y-69840176D01*
X139236337Y-69853903D01*
X139464592Y-69915063D01*
X139641034Y-69930500D01*
X139699999Y-69935659D01*
X139700000Y-69935659D01*
X139700001Y-69935659D01*
X139758966Y-69930500D01*
X139935408Y-69915063D01*
X140163663Y-69853903D01*
X140193097Y-69840177D01*
X140262171Y-69829686D01*
X140325956Y-69858205D01*
G37*
%TD.AperFunction*%
%TA.AperFunction,Conductor*%
G36*
X141746900Y-69840176D02*
G01*
X141776337Y-69853903D01*
X142004592Y-69915063D01*
X142181034Y-69930500D01*
X142239999Y-69935659D01*
X142240000Y-69935659D01*
X142240001Y-69935659D01*
X142298966Y-69930500D01*
X142475408Y-69915063D01*
X142629417Y-69873797D01*
X142633407Y-69872728D01*
X142703257Y-69874391D01*
X142761119Y-69913554D01*
X142788623Y-69977782D01*
X142789500Y-69992503D01*
X142789500Y-72209900D01*
X142769815Y-72276939D01*
X142753181Y-72297581D01*
X142723529Y-72327233D01*
X142662206Y-72360718D01*
X142603755Y-72359327D01*
X142475413Y-72324938D01*
X142475403Y-72324936D01*
X142240001Y-72304341D01*
X142239999Y-72304341D01*
X142004596Y-72324936D01*
X142004586Y-72324938D01*
X141776344Y-72386094D01*
X141776335Y-72386098D01*
X141746903Y-72399822D01*
X141677826Y-72410313D01*
X141614042Y-72381792D01*
X141575803Y-72323315D01*
X141570500Y-72287439D01*
X141570500Y-69952560D01*
X141590185Y-69885521D01*
X141642989Y-69839766D01*
X141712147Y-69829822D01*
X141746900Y-69840176D01*
G37*
%TD.AperFunction*%
%TA.AperFunction,Conductor*%
G36*
X127612539Y-65809685D02*
G01*
X127658294Y-65862489D01*
X127669500Y-65914000D01*
X127669500Y-66166000D01*
X127649815Y-66233039D01*
X127597011Y-66278794D01*
X127545500Y-66290000D01*
X127433012Y-66290000D01*
X127465925Y-66232993D01*
X127500000Y-66105826D01*
X127500000Y-65974174D01*
X127465925Y-65847007D01*
X127433012Y-65790000D01*
X127545500Y-65790000D01*
X127612539Y-65809685D01*
G37*
%TD.AperFunction*%
%TA.AperFunction,Conductor*%
G36*
X129074075Y-65847007D02*
G01*
X129040000Y-65974174D01*
X129040000Y-66105826D01*
X129074075Y-66232993D01*
X129106988Y-66290000D01*
X128994500Y-66290000D01*
X128927461Y-66270315D01*
X128881706Y-66217511D01*
X128870500Y-66166000D01*
X128870500Y-65914000D01*
X128890185Y-65846961D01*
X128942989Y-65801206D01*
X128994500Y-65790000D01*
X129106988Y-65790000D01*
X129074075Y-65847007D01*
G37*
%TD.AperFunction*%
%TA.AperFunction,Conductor*%
G36*
X130152539Y-65809685D02*
G01*
X130198294Y-65862489D01*
X130209500Y-65914000D01*
X130209500Y-66166000D01*
X130189815Y-66233039D01*
X130137011Y-66278794D01*
X130085500Y-66290000D01*
X129973012Y-66290000D01*
X130005925Y-66232993D01*
X130040000Y-66105826D01*
X130040000Y-65974174D01*
X130005925Y-65847007D01*
X129973012Y-65790000D01*
X130085500Y-65790000D01*
X130152539Y-65809685D01*
G37*
%TD.AperFunction*%
%TA.AperFunction,Conductor*%
G36*
X131614075Y-65847007D02*
G01*
X131580000Y-65974174D01*
X131580000Y-66105826D01*
X131614075Y-66232993D01*
X131646988Y-66290000D01*
X131534500Y-66290000D01*
X131467461Y-66270315D01*
X131421706Y-66217511D01*
X131410500Y-66166000D01*
X131410500Y-65914000D01*
X131430185Y-65846961D01*
X131482989Y-65801206D01*
X131534500Y-65790000D01*
X131646988Y-65790000D01*
X131614075Y-65847007D01*
G37*
%TD.AperFunction*%
%TA.AperFunction,Conductor*%
G36*
X132692539Y-65809685D02*
G01*
X132738294Y-65862489D01*
X132749500Y-65914000D01*
X132749500Y-66166000D01*
X132729815Y-66233039D01*
X132677011Y-66278794D01*
X132625500Y-66290000D01*
X132513012Y-66290000D01*
X132545925Y-66232993D01*
X132580000Y-66105826D01*
X132580000Y-65974174D01*
X132545925Y-65847007D01*
X132513012Y-65790000D01*
X132625500Y-65790000D01*
X132692539Y-65809685D01*
G37*
%TD.AperFunction*%
%TA.AperFunction,Conductor*%
G36*
X134154075Y-65847007D02*
G01*
X134120000Y-65974174D01*
X134120000Y-66105826D01*
X134154075Y-66232993D01*
X134186988Y-66290000D01*
X134074500Y-66290000D01*
X134007461Y-66270315D01*
X133961706Y-66217511D01*
X133950500Y-66166000D01*
X133950500Y-65914000D01*
X133970185Y-65846961D01*
X134022989Y-65801206D01*
X134074500Y-65790000D01*
X134186988Y-65790000D01*
X134154075Y-65847007D01*
G37*
%TD.AperFunction*%
%TA.AperFunction,Conductor*%
G36*
X135232539Y-65809685D02*
G01*
X135278294Y-65862489D01*
X135289500Y-65914000D01*
X135289500Y-66166000D01*
X135269815Y-66233039D01*
X135217011Y-66278794D01*
X135165500Y-66290000D01*
X135053012Y-66290000D01*
X135085925Y-66232993D01*
X135120000Y-66105826D01*
X135120000Y-65974174D01*
X135085925Y-65847007D01*
X135053012Y-65790000D01*
X135165500Y-65790000D01*
X135232539Y-65809685D01*
G37*
%TD.AperFunction*%
%TA.AperFunction,Conductor*%
G36*
X136694075Y-65847007D02*
G01*
X136660000Y-65974174D01*
X136660000Y-66105826D01*
X136694075Y-66232993D01*
X136726988Y-66290000D01*
X136614500Y-66290000D01*
X136547461Y-66270315D01*
X136501706Y-66217511D01*
X136490500Y-66166000D01*
X136490500Y-65914000D01*
X136510185Y-65846961D01*
X136562989Y-65801206D01*
X136614500Y-65790000D01*
X136726988Y-65790000D01*
X136694075Y-65847007D01*
G37*
%TD.AperFunction*%
%TA.AperFunction,Conductor*%
G36*
X137772539Y-65809685D02*
G01*
X137818294Y-65862489D01*
X137829500Y-65914000D01*
X137829500Y-66166000D01*
X137809815Y-66233039D01*
X137757011Y-66278794D01*
X137705500Y-66290000D01*
X137593012Y-66290000D01*
X137625925Y-66232993D01*
X137660000Y-66105826D01*
X137660000Y-65974174D01*
X137625925Y-65847007D01*
X137593012Y-65790000D01*
X137705500Y-65790000D01*
X137772539Y-65809685D01*
G37*
%TD.AperFunction*%
%TA.AperFunction,Conductor*%
G36*
X139234075Y-65847007D02*
G01*
X139200000Y-65974174D01*
X139200000Y-66105826D01*
X139234075Y-66232993D01*
X139266988Y-66290000D01*
X139154500Y-66290000D01*
X139087461Y-66270315D01*
X139041706Y-66217511D01*
X139030500Y-66166000D01*
X139030500Y-65914000D01*
X139050185Y-65846961D01*
X139102989Y-65801206D01*
X139154500Y-65790000D01*
X139266988Y-65790000D01*
X139234075Y-65847007D01*
G37*
%TD.AperFunction*%
%TA.AperFunction,Conductor*%
G36*
X140312539Y-65809685D02*
G01*
X140358294Y-65862489D01*
X140369500Y-65914000D01*
X140369500Y-66166000D01*
X140349815Y-66233039D01*
X140297011Y-66278794D01*
X140245500Y-66290000D01*
X140133012Y-66290000D01*
X140165925Y-66232993D01*
X140200000Y-66105826D01*
X140200000Y-65974174D01*
X140165925Y-65847007D01*
X140133012Y-65790000D01*
X140245500Y-65790000D01*
X140312539Y-65809685D01*
G37*
%TD.AperFunction*%
%TA.AperFunction,Conductor*%
G36*
X141774075Y-65847007D02*
G01*
X141740000Y-65974174D01*
X141740000Y-66105826D01*
X141774075Y-66232993D01*
X141806988Y-66290000D01*
X141694500Y-66290000D01*
X141627461Y-66270315D01*
X141581706Y-66217511D01*
X141570500Y-66166000D01*
X141570500Y-65914000D01*
X141590185Y-65846961D01*
X141642989Y-65801206D01*
X141694500Y-65790000D01*
X141806988Y-65790000D01*
X141774075Y-65847007D01*
G37*
%TD.AperFunction*%
%TA.AperFunction,Conductor*%
G36*
X144314075Y-65847007D02*
G01*
X144280000Y-65974174D01*
X144280000Y-66105826D01*
X144314075Y-66232993D01*
X144346988Y-66290000D01*
X144114500Y-66290000D01*
X144047461Y-66270315D01*
X144001706Y-66217511D01*
X143990500Y-66166000D01*
X143990500Y-65914000D01*
X144010185Y-65846961D01*
X144062989Y-65801206D01*
X144114500Y-65790000D01*
X144346988Y-65790000D01*
X144314075Y-65847007D01*
G37*
%TD.AperFunction*%
%TA.AperFunction,Conductor*%
G36*
X142732539Y-65809685D02*
G01*
X142778294Y-65862489D01*
X142789500Y-65914000D01*
X142789500Y-66166000D01*
X142769815Y-66233039D01*
X142717011Y-66278794D01*
X142674091Y-66288131D01*
X142705925Y-66232993D01*
X142740000Y-66105826D01*
X142740000Y-65974174D01*
X142705925Y-65847007D01*
X142674545Y-65792656D01*
X142732539Y-65809685D01*
G37*
%TD.AperFunction*%
%TA.AperFunction,Conductor*%
G36*
X129074075Y-37907007D02*
G01*
X129040000Y-38034174D01*
X129040000Y-38165826D01*
X129074075Y-38292993D01*
X129106988Y-38350000D01*
X127433012Y-38350000D01*
X127465925Y-38292993D01*
X127500000Y-38165826D01*
X127500000Y-38034174D01*
X127465925Y-37907007D01*
X127433012Y-37850000D01*
X129106988Y-37850000D01*
X129074075Y-37907007D01*
G37*
%TD.AperFunction*%
%TA.AperFunction,Conductor*%
G36*
X131614075Y-37907007D02*
G01*
X131580000Y-38034174D01*
X131580000Y-38165826D01*
X131614075Y-38292993D01*
X131646988Y-38350000D01*
X129973012Y-38350000D01*
X130005925Y-38292993D01*
X130040000Y-38165826D01*
X130040000Y-38034174D01*
X130005925Y-37907007D01*
X129973012Y-37850000D01*
X131646988Y-37850000D01*
X131614075Y-37907007D01*
G37*
%TD.AperFunction*%
%TA.AperFunction,Conductor*%
G36*
X134154075Y-37907007D02*
G01*
X134120000Y-38034174D01*
X134120000Y-38165826D01*
X134154075Y-38292993D01*
X134186988Y-38350000D01*
X132513012Y-38350000D01*
X132545925Y-38292993D01*
X132580000Y-38165826D01*
X132580000Y-38034174D01*
X132545925Y-37907007D01*
X132513012Y-37850000D01*
X134186988Y-37850000D01*
X134154075Y-37907007D01*
G37*
%TD.AperFunction*%
%TA.AperFunction,Conductor*%
G36*
X136694075Y-37907007D02*
G01*
X136660000Y-38034174D01*
X136660000Y-38165826D01*
X136694075Y-38292993D01*
X136726988Y-38350000D01*
X135053012Y-38350000D01*
X135085925Y-38292993D01*
X135120000Y-38165826D01*
X135120000Y-38034174D01*
X135085925Y-37907007D01*
X135053012Y-37850000D01*
X136726988Y-37850000D01*
X136694075Y-37907007D01*
G37*
%TD.AperFunction*%
%TA.AperFunction,Conductor*%
G36*
X139234075Y-37907007D02*
G01*
X139200000Y-38034174D01*
X139200000Y-38165826D01*
X139234075Y-38292993D01*
X139266988Y-38350000D01*
X137593012Y-38350000D01*
X137625925Y-38292993D01*
X137660000Y-38165826D01*
X137660000Y-38034174D01*
X137625925Y-37907007D01*
X137593012Y-37850000D01*
X139266988Y-37850000D01*
X139234075Y-37907007D01*
G37*
%TD.AperFunction*%
%TA.AperFunction,Conductor*%
G36*
X141774075Y-37907007D02*
G01*
X141740000Y-38034174D01*
X141740000Y-38165826D01*
X141774075Y-38292993D01*
X141806988Y-38350000D01*
X140133012Y-38350000D01*
X140165925Y-38292993D01*
X140200000Y-38165826D01*
X140200000Y-38034174D01*
X140165925Y-37907007D01*
X140133012Y-37850000D01*
X141806988Y-37850000D01*
X141774075Y-37907007D01*
G37*
%TD.AperFunction*%
%TA.AperFunction,Conductor*%
G36*
X144314075Y-37907007D02*
G01*
X144280000Y-38034174D01*
X144280000Y-38165826D01*
X144314075Y-38292993D01*
X144346988Y-38350000D01*
X142673012Y-38350000D01*
X142705925Y-38292993D01*
X142740000Y-38165826D01*
X142740000Y-38034174D01*
X142705925Y-37907007D01*
X142673012Y-37850000D01*
X144346988Y-37850000D01*
X144314075Y-37907007D01*
G37*
%TD.AperFunction*%
%TD*%
M02*
