%TF.SameCoordinates,Original*%
%TF.FileFunction,Copper,L1,Top*%
%TF.FilePolarity,Positive*%
%FSLAX46Y46*%
G04 Gerber Fmt 4.6, Leading zero omitted, Abs format (unit mm)*
%MOMM*%
%LPD*%
G01*
G04 APERTURE LIST*
G04 Aperture macros list*
%AMRoundRect*
0 Rectangle with rounded corners*
0 $1 Rounding radius*
0 $2 $3 $4 $5 $6 $7 $8 $9 X,Y pos of 4 corners*
0 Add a 4 corners polygon primitive as box body*
4,1,4,$2,$3,$4,$5,$6,$7,$8,$9,$2,$3,0*
0 Add four circle primitives for the rounded corners*
1,1,$1+$1,$2,$3*
1,1,$1+$1,$4,$5*
1,1,$1+$1,$6,$7*
1,1,$1+$1,$8,$9*
0 Add four rect primitives between the rounded corners*
20,1,$1+$1,$2,$3,$4,$5,0*
20,1,$1+$1,$4,$5,$6,$7,0*
20,1,$1+$1,$6,$7,$8,$9,0*
20,1,$1+$1,$8,$9,$2,$3,0*%
G04 Aperture macros list end*
%TA.AperFunction,ComponentPad*%
%ADD10R,1.700000X1.700000*%
%TD*%
%TA.AperFunction,ComponentPad*%
%ADD11O,1.700000X1.700000*%
%TD*%
%TA.AperFunction,ComponentPad*%
%ADD12C,3.900000*%
%TD*%
%TA.AperFunction,ConnectorPad*%
%ADD13C,7.000000*%
%TD*%
%TA.AperFunction,SMDPad,CuDef*%
%ADD14RoundRect,0.280800X-0.394200X0.469200X-0.394200X-0.469200X0.394200X-0.469200X0.394200X0.469200X0*%
%TD*%
%TA.AperFunction,ComponentPad*%
%ADD15RoundRect,0.249600X0.550400X0.550400X-0.550400X0.550400X-0.550400X-0.550400X0.550400X-0.550400X0*%
%TD*%
%TA.AperFunction,ComponentPad*%
%ADD16C,1.600000*%
%TD*%
%TA.AperFunction,Conductor*%
%ADD17C,0.250000*%
%TD*%
G04 APERTURE END LIST*
D10*
%TO.P,J0,1,Pin_1*%
%TO.N,Net-(J0-Pin_1)*%
X122935999Y-100314999D03*
D11*
%TO.P,J0,2,Pin_2*%
%TO.N,GND*%
X122935999Y-97774999D03*
%TO.P,J0,3,Pin_3*%
%TO.N,Net-(J0-Pin_3)*%
X122935999Y-95234999D03*
%TD*%
D12*
%TO.P,H0,1*%
%TO.N,N/C*%
X105410000Y-97790000D03*
D13*
X105410000Y-97790000D03*
%TD*%
D14*
%TO.P,r2,1*%
%TO.N,Net-(J0-Pin_3)*%
X126746000Y-96590000D03*
%TO.P,r2,2*%
%TO.N,GND*%
X126746000Y-98990000D03*
%TD*%
%TO.P,r1,1*%
%TO.N,Net-(U1-K)*%
X129396000Y-96590000D03*
%TO.P,r1,2*%
%TO.N,GND*%
X129396000Y-98990000D03*
%TD*%
D15*
%TO.P,U1,1,A*%
%TO.N,Net-(J0-Pin_1)*%
X135890000Y-96520000D03*
D16*
%TO.P,U1,2,K*%
%TO.N,Net-(U1-K)*%
X135890000Y-99060000D03*
%TO.P,U1,3,C*%
%TO.N,Net-(J0-Pin_1)*%
X133090000Y-99060000D03*
%TO.P,U1,4,E*%
%TO.N,Net-(J0-Pin_3)*%
X133090000Y-96520000D03*
%TD*%
D17*
%TO.N,GND*%
X129396000Y-98990000D02*
X126746000Y-98990000D01*
X123429000Y-97775000D02*
X122936000Y-97775000D01*
X124644000Y-98990000D02*
X126746000Y-98990000D01*
X124644000Y-98990000D02*
X123429000Y-97775000D01*
%TO.N,Net-(J0-Pin_1)*%
X133090000Y-99060000D02*
X130550000Y-101600000D01*
X124953000Y-100315000D02*
X122936000Y-100315000D01*
X126238000Y-101600000D02*
X124953000Y-100315000D01*
X130550000Y-101600000D02*
X126238000Y-101600000D01*
%TO.N,Net-(J0-Pin_3)*%
X124475000Y-96774000D02*
X122936000Y-95235000D01*
X126562000Y-96774000D02*
X126746000Y-96590000D01*
X124983000Y-95235000D02*
X126238000Y-93980000D01*
X130550000Y-93980000D02*
X133090000Y-96520000D01*
X122936000Y-95235000D02*
X124983000Y-95235000D01*
X126238000Y-93980000D02*
X130550000Y-93980000D01*
X124475000Y-96774000D02*
X126562000Y-96774000D01*
%TO.N,Net-(U1-K)*%
X129396000Y-96630000D02*
X129396000Y-96590000D01*
X134620000Y-97790000D02*
X130556000Y-97790000D01*
X130556000Y-97790000D02*
X129396000Y-96630000D01*
X135890000Y-99060000D02*
X134620000Y-97790000D01*
%TD*%
M02*
