%TF.SameCoordinates,Original*%
%TF.FileFunction,Legend,Top*%
%TF.FilePolarity,Positive*%
%FSLAX46Y46*%
G04 Gerber Fmt 4.6, Leading zero omitted, Abs format (unit mm)*
%MOMM*%
%LPD*%
G01*
G04 APERTURE LIST*
%ADD10C,0.200000*%
%ADD11C,0.400000*%
%ADD12C,0.120000*%
G04 APERTURE END LIST*
D10*
G36*
X133682968Y-93092749D02*
G01*
X133694254Y-93093205D01*
X133705318Y-93093966D01*
X133716159Y-93095031D01*
X133732004Y-93097200D01*
X133747348Y-93100053D01*
X133762191Y-93103591D01*
X133776534Y-93107814D01*
X133790376Y-93112722D01*
X133803717Y-93118314D01*
X133816558Y-93124591D01*
X133828899Y-93131553D01*
X133840985Y-93139446D01*
X133852962Y-93148514D01*
X133864831Y-93158758D01*
X133872683Y-93166241D01*
X133880487Y-93174246D01*
X133888243Y-93182774D01*
X133895950Y-93191825D01*
X133903609Y-93201399D01*
X133911220Y-93211495D01*
X133918783Y-93222113D01*
X133926297Y-93233255D01*
X133933763Y-93244918D01*
X133941181Y-93257105D01*
X133948550Y-93269814D01*
X133952217Y-93276365D01*
X133959309Y-93289649D01*
X133965944Y-93303038D01*
X133972121Y-93316533D01*
X133977841Y-93330132D01*
X133983103Y-93343836D01*
X133987908Y-93357645D01*
X133992254Y-93371559D01*
X133996144Y-93385578D01*
X133999576Y-93399702D01*
X134002550Y-93413931D01*
X134005067Y-93428265D01*
X134007126Y-93442703D01*
X134008727Y-93457247D01*
X134009871Y-93471896D01*
X134010557Y-93486649D01*
X134010786Y-93501508D01*
X134010786Y-93663783D01*
X134010445Y-93681802D01*
X134009422Y-93699725D01*
X134007716Y-93717552D01*
X134005329Y-93735282D01*
X134002259Y-93752915D01*
X133998507Y-93770452D01*
X133994073Y-93787892D01*
X133988957Y-93805236D01*
X133983159Y-93822483D01*
X133976678Y-93839634D01*
X133969515Y-93856688D01*
X133961671Y-93873645D01*
X133953143Y-93890506D01*
X133943934Y-93907271D01*
X133934043Y-93923939D01*
X133923469Y-93940510D01*
X133912262Y-93956517D01*
X133900469Y-93971491D01*
X133888090Y-93985432D01*
X133875126Y-93998341D01*
X133861576Y-94010216D01*
X133847441Y-94021060D01*
X133832720Y-94030870D01*
X133817413Y-94039648D01*
X133801521Y-94047393D01*
X133785043Y-94054106D01*
X133767979Y-94059786D01*
X133750330Y-94064433D01*
X133732095Y-94068047D01*
X133713275Y-94070629D01*
X133693869Y-94072178D01*
X133673878Y-94072694D01*
X133662270Y-94072541D01*
X133650890Y-94072081D01*
X133639736Y-94071315D01*
X133628809Y-94070243D01*
X133618108Y-94068864D01*
X133602482Y-94066220D01*
X133587367Y-94062888D01*
X133572761Y-94058866D01*
X133558666Y-94054154D01*
X133545080Y-94048753D01*
X133532005Y-94042662D01*
X133519439Y-94035882D01*
X133515364Y-94033469D01*
X133503333Y-94025480D01*
X133491420Y-94016326D01*
X133479625Y-94006004D01*
X133471828Y-93998475D01*
X133464082Y-93990428D01*
X133456390Y-93981862D01*
X133448750Y-93972778D01*
X133441162Y-93963175D01*
X133433627Y-93953054D01*
X133426144Y-93942414D01*
X133418713Y-93931256D01*
X133411336Y-93919579D01*
X133404010Y-93907384D01*
X133396737Y-93894671D01*
X133393120Y-93888120D01*
X133386126Y-93874839D01*
X133379582Y-93861459D01*
X133373490Y-93847980D01*
X133367849Y-93834403D01*
X133362659Y-93820727D01*
X133357921Y-93806953D01*
X133353634Y-93793080D01*
X133349798Y-93779108D01*
X133346413Y-93765038D01*
X133343480Y-93750869D01*
X133340998Y-93736601D01*
X133338967Y-93722235D01*
X133337388Y-93707770D01*
X133336260Y-93693206D01*
X133335583Y-93678544D01*
X133335357Y-93663783D01*
X133335357Y-93662439D01*
X133490109Y-93662439D01*
X133490386Y-93677163D01*
X133491218Y-93691644D01*
X133492603Y-93705885D01*
X133494542Y-93719884D01*
X133497036Y-93733642D01*
X133500084Y-93747158D01*
X133503685Y-93760433D01*
X133507841Y-93773466D01*
X133512551Y-93786258D01*
X133517816Y-93798809D01*
X133523634Y-93811118D01*
X133530006Y-93823186D01*
X133536933Y-93835013D01*
X133544414Y-93846598D01*
X133552448Y-93857942D01*
X133561037Y-93869045D01*
X133568740Y-93877783D01*
X133577038Y-93885662D01*
X133585931Y-93892681D01*
X133595418Y-93898841D01*
X133605501Y-93904142D01*
X133616179Y-93908583D01*
X133627452Y-93912164D01*
X133639320Y-93914886D01*
X133651783Y-93916748D01*
X133664842Y-93917751D01*
X133673878Y-93917942D01*
X133686705Y-93917470D01*
X133699094Y-93916053D01*
X133711043Y-93913692D01*
X133722553Y-93910386D01*
X133733623Y-93906135D01*
X133744255Y-93900940D01*
X133754447Y-93894801D01*
X133764200Y-93887717D01*
X133773514Y-93879688D01*
X133782389Y-93870715D01*
X133788061Y-93864209D01*
X133796195Y-93853881D01*
X133803803Y-93843248D01*
X133810887Y-93832312D01*
X133817447Y-93821071D01*
X133823481Y-93809525D01*
X133828991Y-93797676D01*
X133833976Y-93785522D01*
X133838436Y-93773063D01*
X133842372Y-93760300D01*
X133845783Y-93747233D01*
X133848669Y-93733862D01*
X133851030Y-93720186D01*
X133852867Y-93706206D01*
X133854178Y-93691922D01*
X133854966Y-93677333D01*
X133855228Y-93662439D01*
X133855228Y-93502851D01*
X133854953Y-93488191D01*
X133854128Y-93473764D01*
X133852753Y-93459570D01*
X133850829Y-93445608D01*
X133848354Y-93431880D01*
X133845329Y-93418385D01*
X133841755Y-93405122D01*
X133837630Y-93392093D01*
X133832956Y-93379297D01*
X133827732Y-93366734D01*
X133821957Y-93354403D01*
X133815633Y-93342306D01*
X133808759Y-93330441D01*
X133801335Y-93318810D01*
X133793361Y-93307412D01*
X133784837Y-93296246D01*
X133777046Y-93287508D01*
X133768683Y-93279629D01*
X133759748Y-93272609D01*
X133750242Y-93266449D01*
X133740165Y-93261149D01*
X133729516Y-93256708D01*
X133718296Y-93253127D01*
X133706504Y-93250405D01*
X133694141Y-93248543D01*
X133681206Y-93247540D01*
X133672266Y-93247349D01*
X133659294Y-93247821D01*
X133646776Y-93249238D01*
X133634711Y-93251599D01*
X133623100Y-93254905D01*
X133611941Y-93259155D01*
X133601237Y-93264350D01*
X133590985Y-93270490D01*
X133581187Y-93277574D01*
X133571843Y-93285602D01*
X133562952Y-93294575D01*
X133557276Y-93301082D01*
X133549143Y-93311410D01*
X133541534Y-93322042D01*
X133534450Y-93332979D01*
X133527891Y-93344220D01*
X133521856Y-93355765D01*
X133516346Y-93367615D01*
X133511361Y-93379769D01*
X133506901Y-93392228D01*
X133502965Y-93404990D01*
X133499555Y-93418057D01*
X133496669Y-93431429D01*
X133494307Y-93445105D01*
X133492471Y-93459085D01*
X133491159Y-93473369D01*
X133490372Y-93487958D01*
X133490109Y-93502851D01*
X133490109Y-93662439D01*
X133335357Y-93662439D01*
X133335357Y-93501508D01*
X133335696Y-93483585D01*
X133336713Y-93465750D01*
X133338408Y-93448003D01*
X133340781Y-93430345D01*
X133343832Y-93412774D01*
X133347560Y-93395292D01*
X133351967Y-93377898D01*
X133357052Y-93360592D01*
X133362815Y-93343374D01*
X133369255Y-93326245D01*
X133376374Y-93309203D01*
X133384171Y-93292250D01*
X133392645Y-93275385D01*
X133401798Y-93258608D01*
X133411628Y-93241919D01*
X133422137Y-93225318D01*
X133433311Y-93209246D01*
X133445074Y-93194211D01*
X133457424Y-93180213D01*
X133470362Y-93167252D01*
X133483888Y-93155328D01*
X133498001Y-93144441D01*
X133512703Y-93134590D01*
X133527991Y-93125777D01*
X133543868Y-93118000D01*
X133560332Y-93111260D01*
X133577384Y-93105558D01*
X133595024Y-93100892D01*
X133613251Y-93097262D01*
X133632066Y-93094670D01*
X133651469Y-93093115D01*
X133671460Y-93092596D01*
X133682968Y-93092749D01*
G37*
G36*
X134714963Y-93969526D02*
G01*
X134714476Y-93980315D01*
X134712498Y-93993163D01*
X134708998Y-94005303D01*
X134703976Y-94016734D01*
X134697432Y-94027457D01*
X134689367Y-94037472D01*
X134683797Y-94043141D01*
X134673572Y-94051655D01*
X134662204Y-94058726D01*
X134652289Y-94063343D01*
X134641643Y-94067037D01*
X134630267Y-94069808D01*
X134618160Y-94071655D01*
X134605322Y-94072579D01*
X134598630Y-94072694D01*
X134585423Y-94072232D01*
X134572939Y-94070847D01*
X134561176Y-94068538D01*
X134550135Y-94065306D01*
X134539817Y-94061150D01*
X134530221Y-94056070D01*
X134519240Y-94048422D01*
X134513194Y-94043141D01*
X134504293Y-94033551D01*
X134496901Y-94023253D01*
X134491017Y-94012247D01*
X134486642Y-94000532D01*
X134483775Y-93988109D01*
X134482418Y-93974977D01*
X134482297Y-93969526D01*
X134482780Y-93958737D01*
X134484741Y-93945889D01*
X134488211Y-93933749D01*
X134493189Y-93922318D01*
X134499676Y-93911595D01*
X134507672Y-93901580D01*
X134513194Y-93895911D01*
X134523497Y-93887397D01*
X134534929Y-93880326D01*
X134544886Y-93875709D01*
X134555566Y-93872015D01*
X134566967Y-93869244D01*
X134579091Y-93867397D01*
X134591936Y-93866473D01*
X134598630Y-93866358D01*
X134611832Y-93866820D01*
X134624304Y-93868205D01*
X134636046Y-93870514D01*
X134647057Y-93873746D01*
X134657338Y-93877902D01*
X134666888Y-93882982D01*
X134677799Y-93890630D01*
X134683797Y-93895911D01*
X134692776Y-93905501D01*
X134700232Y-93915799D01*
X134706167Y-93926805D01*
X134710580Y-93938520D01*
X134713471Y-93950943D01*
X134714841Y-93964075D01*
X134714963Y-93969526D01*
G37*
G36*
X135539839Y-93092919D02*
G01*
X135556970Y-93093885D01*
X135573700Y-93095496D01*
X135590028Y-93097752D01*
X135605956Y-93100651D01*
X135621483Y-93104195D01*
X135636610Y-93108384D01*
X135651335Y-93113217D01*
X135665659Y-93118694D01*
X135679583Y-93124816D01*
X135693105Y-93131582D01*
X135706227Y-93138992D01*
X135718948Y-93147047D01*
X135731268Y-93155746D01*
X135743187Y-93165089D01*
X135754705Y-93175077D01*
X135765701Y-93185478D01*
X135775988Y-93196126D01*
X135785566Y-93207021D01*
X135794434Y-93218165D01*
X135802592Y-93229556D01*
X135810042Y-93241195D01*
X135816781Y-93253081D01*
X135822812Y-93265215D01*
X135828133Y-93277597D01*
X135832744Y-93290226D01*
X135836646Y-93303103D01*
X135839838Y-93316228D01*
X135842322Y-93329601D01*
X135844095Y-93343221D01*
X135845159Y-93357089D01*
X135845514Y-93371204D01*
X135845285Y-93382132D01*
X135844598Y-93392951D01*
X135843453Y-93403661D01*
X135841213Y-93417772D01*
X135838159Y-93431690D01*
X135834291Y-93445415D01*
X135829608Y-93458947D01*
X135825561Y-93468970D01*
X135821057Y-93478883D01*
X135819453Y-93482164D01*
X135814331Y-93491880D01*
X135808736Y-93501483D01*
X135802669Y-93510972D01*
X135796130Y-93520348D01*
X135789118Y-93529611D01*
X135781634Y-93538760D01*
X135773678Y-93547796D01*
X135765250Y-93556719D01*
X135756349Y-93565528D01*
X135746976Y-93574224D01*
X135740465Y-93579959D01*
X135751386Y-93588276D01*
X135761783Y-93596806D01*
X135771656Y-93605548D01*
X135781005Y-93614503D01*
X135789829Y-93623671D01*
X135798129Y-93633051D01*
X135805905Y-93642643D01*
X135813156Y-93652448D01*
X135819884Y-93662466D01*
X135826087Y-93672696D01*
X135829931Y-93679634D01*
X135835309Y-93690161D01*
X135840158Y-93700886D01*
X135844477Y-93711810D01*
X135848268Y-93722932D01*
X135851530Y-93734252D01*
X135854263Y-93745770D01*
X135856466Y-93757487D01*
X135858141Y-93769403D01*
X135859287Y-93781516D01*
X135859905Y-93793828D01*
X135860022Y-93802146D01*
X135859687Y-93815946D01*
X135858681Y-93829538D01*
X135857004Y-93842922D01*
X135854657Y-93856098D01*
X135851639Y-93869067D01*
X135847951Y-93881827D01*
X135843592Y-93894380D01*
X135838562Y-93906725D01*
X135832862Y-93918862D01*
X135826491Y-93930792D01*
X135821871Y-93938629D01*
X135814336Y-93950037D01*
X135806035Y-93960986D01*
X135796969Y-93971478D01*
X135787138Y-93981511D01*
X135776542Y-93991086D01*
X135765180Y-94000203D01*
X135753054Y-94008862D01*
X135740163Y-94017063D01*
X135726507Y-94024806D01*
X135712085Y-94032091D01*
X135702046Y-94036693D01*
X135691766Y-94041052D01*
X135681346Y-94045131D01*
X135670785Y-94048928D01*
X135660083Y-94052443D01*
X135649241Y-94055678D01*
X135638258Y-94058631D01*
X135627135Y-94061303D01*
X135615871Y-94063694D01*
X135604466Y-94065803D01*
X135592921Y-94067632D01*
X135581235Y-94069178D01*
X135569408Y-94070444D01*
X135557441Y-94071429D01*
X135545333Y-94072132D01*
X135533085Y-94072554D01*
X135520696Y-94072694D01*
X135508312Y-94072554D01*
X135496079Y-94072132D01*
X135483997Y-94071429D01*
X135472067Y-94070444D01*
X135460287Y-94069178D01*
X135448659Y-94067632D01*
X135437182Y-94065803D01*
X135425856Y-94063694D01*
X135414681Y-94061303D01*
X135403657Y-94058631D01*
X135392785Y-94055678D01*
X135382063Y-94052443D01*
X135371493Y-94048928D01*
X135361074Y-94045131D01*
X135350806Y-94041052D01*
X135340689Y-94036693D01*
X135330844Y-94032089D01*
X135316692Y-94024793D01*
X135303277Y-94017030D01*
X135290598Y-94008799D01*
X135278656Y-94000101D01*
X135267450Y-93990935D01*
X135256982Y-93981301D01*
X135247250Y-93971200D01*
X135238255Y-93960632D01*
X135229997Y-93949596D01*
X135222475Y-93938092D01*
X135215657Y-93926260D01*
X135209510Y-93914239D01*
X135204033Y-93902030D01*
X135199227Y-93889631D01*
X135195091Y-93877044D01*
X135191627Y-93864267D01*
X135188832Y-93851302D01*
X135186709Y-93838148D01*
X135185256Y-93824805D01*
X135184473Y-93811273D01*
X135184420Y-93808057D01*
X135339345Y-93808057D01*
X135340050Y-93818900D01*
X135342916Y-93831970D01*
X135346794Y-93842039D01*
X135352084Y-93851763D01*
X135358784Y-93861144D01*
X135366894Y-93870180D01*
X135376415Y-93878872D01*
X135384481Y-93885165D01*
X135396563Y-93892847D01*
X135406583Y-93897936D01*
X135417424Y-93902449D01*
X135429088Y-93906387D01*
X135441573Y-93909748D01*
X135454880Y-93912532D01*
X135469009Y-93914741D01*
X135483959Y-93916373D01*
X135499731Y-93917430D01*
X135510702Y-93917814D01*
X135522039Y-93917942D01*
X135533471Y-93917814D01*
X135544527Y-93917430D01*
X135560407Y-93916373D01*
X135575442Y-93914741D01*
X135589631Y-93912532D01*
X135602975Y-93909748D01*
X135615473Y-93906387D01*
X135627127Y-93902449D01*
X135637934Y-93897936D01*
X135647897Y-93892847D01*
X135659865Y-93885165D01*
X135670444Y-93876710D01*
X135679612Y-93867869D01*
X135687370Y-93858642D01*
X135693717Y-93849029D01*
X135698654Y-93839029D01*
X135702180Y-93828644D01*
X135704296Y-93817872D01*
X135705001Y-93806714D01*
X135704178Y-93792848D01*
X135701710Y-93779326D01*
X135697596Y-93766149D01*
X135691836Y-93753316D01*
X135686437Y-93743917D01*
X135680112Y-93734712D01*
X135672861Y-93725700D01*
X135664684Y-93716882D01*
X135655582Y-93708258D01*
X135652342Y-93705426D01*
X135642295Y-93697312D01*
X135631799Y-93689996D01*
X135620854Y-93683478D01*
X135609461Y-93677758D01*
X135597619Y-93672836D01*
X135585328Y-93668712D01*
X135572588Y-93665387D01*
X135559400Y-93662859D01*
X135545764Y-93661130D01*
X135531678Y-93660199D01*
X135522039Y-93660021D01*
X135507700Y-93660421D01*
X135493800Y-93661618D01*
X135480340Y-93663613D01*
X135467319Y-93666407D01*
X135454737Y-93669998D01*
X135442594Y-93674388D01*
X135430891Y-93679576D01*
X135419626Y-93685562D01*
X135408801Y-93692346D01*
X135398415Y-93699928D01*
X135391735Y-93705426D01*
X135382373Y-93713998D01*
X135373931Y-93722787D01*
X135366410Y-93731793D01*
X135359810Y-93741016D01*
X135354131Y-93750457D01*
X135349373Y-93760115D01*
X135344461Y-93773330D01*
X135341187Y-93786931D01*
X135339550Y-93800919D01*
X135339345Y-93808057D01*
X135184420Y-93808057D01*
X135184324Y-93802146D01*
X135184586Y-93789702D01*
X135185373Y-93777456D01*
X135186683Y-93765409D01*
X135188518Y-93753560D01*
X135190877Y-93741909D01*
X135193760Y-93730456D01*
X135197168Y-93719202D01*
X135201099Y-93708146D01*
X135205555Y-93697289D01*
X135210535Y-93686630D01*
X135214146Y-93679634D01*
X135220002Y-93669262D01*
X135226387Y-93659103D01*
X135233301Y-93649156D01*
X135240744Y-93639422D01*
X135248716Y-93629901D01*
X135257217Y-93620591D01*
X135266247Y-93611495D01*
X135275805Y-93602611D01*
X135285893Y-93593939D01*
X135296510Y-93585480D01*
X135303881Y-93579959D01*
X135294333Y-93571194D01*
X135285233Y-93562331D01*
X135276582Y-93553368D01*
X135268379Y-93544306D01*
X135260625Y-93535145D01*
X135253320Y-93525884D01*
X135246464Y-93516525D01*
X135240056Y-93507066D01*
X135234097Y-93497508D01*
X135228586Y-93487851D01*
X135225162Y-93481358D01*
X135220456Y-93471533D01*
X135216214Y-93461605D01*
X135211277Y-93448205D01*
X135207163Y-93434620D01*
X135203872Y-93420851D01*
X135201404Y-93406897D01*
X135199758Y-93392759D01*
X135199064Y-93382033D01*
X135198936Y-93376040D01*
X135353585Y-93376040D01*
X135354286Y-93389285D01*
X135356389Y-93402017D01*
X135359894Y-93414237D01*
X135364801Y-93425945D01*
X135371111Y-93437141D01*
X135378822Y-93447825D01*
X135387936Y-93457996D01*
X135398452Y-93467656D01*
X135407196Y-93474378D01*
X135416502Y-93480438D01*
X135426370Y-93485838D01*
X135436800Y-93490576D01*
X135447792Y-93494654D01*
X135459346Y-93498070D01*
X135471462Y-93500825D01*
X135484140Y-93502918D01*
X135497380Y-93504351D01*
X135511182Y-93505122D01*
X135520696Y-93505269D01*
X135534726Y-93504939D01*
X135548203Y-93503947D01*
X135561129Y-93502294D01*
X135573501Y-93499980D01*
X135585321Y-93497005D01*
X135596589Y-93493368D01*
X135607304Y-93489070D01*
X135617466Y-93484112D01*
X135627076Y-93478492D01*
X135636133Y-93472211D01*
X135641864Y-93467656D01*
X135649931Y-93460459D01*
X135659452Y-93450416D01*
X135667562Y-93439860D01*
X135674262Y-93428792D01*
X135679551Y-93417212D01*
X135683430Y-93405120D01*
X135685899Y-93392516D01*
X135686956Y-93379399D01*
X135687000Y-93376040D01*
X135686295Y-93362922D01*
X135684179Y-93350299D01*
X135680653Y-93338171D01*
X135675716Y-93326538D01*
X135669369Y-93315401D01*
X135661611Y-93304760D01*
X135652443Y-93294613D01*
X135641864Y-93284962D01*
X135633175Y-93278240D01*
X135623934Y-93272179D01*
X135614140Y-93266780D01*
X135603793Y-93262042D01*
X135592894Y-93257964D01*
X135581443Y-93254548D01*
X135569438Y-93251793D01*
X135556882Y-93249700D01*
X135543772Y-93248267D01*
X135530110Y-93247496D01*
X135520696Y-93247349D01*
X135506519Y-93247679D01*
X135492904Y-93248671D01*
X135479852Y-93250324D01*
X135467361Y-93252638D01*
X135455432Y-93255613D01*
X135444066Y-93259250D01*
X135433261Y-93263548D01*
X135423018Y-93268506D01*
X135413338Y-93274126D01*
X135404219Y-93280407D01*
X135398452Y-93284962D01*
X135390434Y-93292154D01*
X135380969Y-93302177D01*
X135372907Y-93312694D01*
X135366247Y-93323708D01*
X135360989Y-93335216D01*
X135357134Y-93347220D01*
X135354680Y-93359720D01*
X135353628Y-93372714D01*
X135353585Y-93376040D01*
X135198936Y-93376040D01*
X135198832Y-93371204D01*
X135199186Y-93357089D01*
X135200247Y-93343221D01*
X135202015Y-93329601D01*
X135204491Y-93316228D01*
X135207674Y-93303103D01*
X135211565Y-93290226D01*
X135216162Y-93277597D01*
X135221467Y-93265215D01*
X135227480Y-93253081D01*
X135234200Y-93241195D01*
X135241627Y-93229556D01*
X135249761Y-93218165D01*
X135258603Y-93207021D01*
X135268153Y-93196126D01*
X135278409Y-93185478D01*
X135289373Y-93175077D01*
X135300925Y-93165089D01*
X135312877Y-93155746D01*
X135325231Y-93147047D01*
X135337985Y-93138992D01*
X135351140Y-93131582D01*
X135364696Y-93124816D01*
X135378654Y-93118694D01*
X135393011Y-93113217D01*
X135407770Y-93108384D01*
X135422930Y-93104195D01*
X135438491Y-93100651D01*
X135454452Y-93097752D01*
X135470815Y-93095496D01*
X135487578Y-93093885D01*
X135504742Y-93092919D01*
X135522308Y-93092596D01*
X135539839Y-93092919D01*
G37*
D11*
G36*
X120315475Y-97196001D02*
G01*
X120315475Y-98371786D01*
X120034107Y-98371786D01*
X120034107Y-97196001D01*
X120315475Y-97196001D01*
G37*
G36*
X119560764Y-95036531D02*
G01*
X120370674Y-95114689D01*
X120393308Y-95118037D01*
X120413950Y-95123687D01*
X120432601Y-95131639D01*
X120449259Y-95141891D01*
X120466175Y-95156761D01*
X120468371Y-95159141D01*
X120481885Y-95176745D01*
X120492079Y-95196220D01*
X120498955Y-95217564D01*
X120502206Y-95237348D01*
X120503053Y-95254884D01*
X120501834Y-95275830D01*
X120498176Y-95295436D01*
X120490826Y-95316617D01*
X120480157Y-95335974D01*
X120468371Y-95351116D01*
X120451841Y-95366242D01*
X120432601Y-95378284D01*
X120413950Y-95386149D01*
X120393308Y-95391748D01*
X120370674Y-95395079D01*
X119560764Y-95474703D01*
X119538994Y-95476529D01*
X119517373Y-95478182D01*
X119497642Y-95479441D01*
X119479187Y-95480076D01*
X119454290Y-95479068D01*
X119430644Y-95476046D01*
X119408250Y-95471008D01*
X119387108Y-95463956D01*
X119367217Y-95454888D01*
X119348578Y-95443806D01*
X119331191Y-95430708D01*
X119315056Y-95415596D01*
X119300401Y-95398980D01*
X119287701Y-95381371D01*
X119276954Y-95362771D01*
X119268161Y-95343178D01*
X119261323Y-95322593D01*
X119256438Y-95301015D01*
X119253507Y-95278446D01*
X119252530Y-95254884D01*
X119253514Y-95231658D01*
X119256468Y-95209363D01*
X119261391Y-95188000D01*
X119268284Y-95167567D01*
X119277145Y-95148066D01*
X119287976Y-95129496D01*
X119300775Y-95111857D01*
X119315545Y-95095149D01*
X119331802Y-95079808D01*
X119349067Y-95066512D01*
X119367339Y-95055261D01*
X119386619Y-95046056D01*
X119406907Y-95038897D01*
X119428202Y-95033783D01*
X119450504Y-95030715D01*
X119473814Y-95029692D01*
X119495429Y-95030654D01*
X119517167Y-95032363D01*
X119537317Y-95034207D01*
X119560764Y-95036531D01*
G37*
G36*
X120862090Y-95081960D02*
G01*
X120883620Y-95083557D01*
X120903879Y-95088349D01*
X120922867Y-95096334D01*
X120940584Y-95107514D01*
X120957030Y-95121888D01*
X120962230Y-95127389D01*
X120976175Y-95145461D01*
X120987234Y-95165972D01*
X120994247Y-95184927D01*
X120999255Y-95205576D01*
X121002261Y-95227918D01*
X121003263Y-95251953D01*
X121002261Y-95276141D01*
X120999255Y-95298636D01*
X120994247Y-95319437D01*
X120987234Y-95338545D01*
X120978218Y-95355959D01*
X120964754Y-95374621D01*
X120962230Y-95377494D01*
X120946207Y-95392767D01*
X120928914Y-95404880D01*
X120910349Y-95413833D01*
X120890514Y-95419626D01*
X120869408Y-95422259D01*
X120862090Y-95422435D01*
X120840893Y-95420872D01*
X120820897Y-95416183D01*
X120802104Y-95408370D01*
X120784513Y-95397430D01*
X120768124Y-95383365D01*
X120762928Y-95377982D01*
X120748983Y-95359859D01*
X120737923Y-95339194D01*
X120730911Y-95320031D01*
X120725902Y-95299103D01*
X120722897Y-95276411D01*
X120721895Y-95251953D01*
X120722528Y-95232368D01*
X120725102Y-95209475D01*
X120729655Y-95188347D01*
X120736188Y-95168984D01*
X120744701Y-95151386D01*
X120757529Y-95132598D01*
X120762439Y-95126901D01*
X120778147Y-95111628D01*
X120795229Y-95099515D01*
X120813684Y-95090562D01*
X120833514Y-95084769D01*
X120854717Y-95082136D01*
X120862090Y-95081960D01*
G37*
D10*
G36*
X131531051Y-101779437D02*
G01*
X131525779Y-101788966D01*
X131520842Y-101798613D01*
X131516241Y-101808378D01*
X131511976Y-101818259D01*
X131507117Y-101830777D01*
X131502783Y-101843479D01*
X131499693Y-101853772D01*
X131498274Y-101858963D01*
X131495101Y-101871984D01*
X131492949Y-101882533D01*
X131491142Y-101893200D01*
X131489679Y-101903985D01*
X131488560Y-101914887D01*
X131487786Y-101925906D01*
X131487355Y-101937043D01*
X131487259Y-101945473D01*
X131487361Y-101956579D01*
X131487670Y-101967395D01*
X131488519Y-101983076D01*
X131489830Y-101998105D01*
X131491604Y-102012482D01*
X131493841Y-102026208D01*
X131496541Y-102039282D01*
X131499703Y-102051704D01*
X131503329Y-102063474D01*
X131507417Y-102074593D01*
X131511968Y-102085060D01*
X131513588Y-102088404D01*
X131519499Y-102098630D01*
X131527265Y-102107304D01*
X131537138Y-102111687D01*
X131538843Y-102111778D01*
X131549492Y-102108032D01*
X131558111Y-102099394D01*
X131564756Y-102089209D01*
X131569471Y-102080076D01*
X131573482Y-102068911D01*
X131576796Y-102056404D01*
X131579428Y-102044301D01*
X131582043Y-102030335D01*
X131583993Y-102018637D01*
X131585934Y-102005890D01*
X131587866Y-101992096D01*
X131589788Y-101977252D01*
X131590427Y-101972071D01*
X131592781Y-101953161D01*
X131595141Y-101934983D01*
X131597508Y-101917537D01*
X131599881Y-101900824D01*
X131602260Y-101884844D01*
X131604645Y-101869596D01*
X131607037Y-101855081D01*
X131609435Y-101841298D01*
X131611839Y-101828247D01*
X131614250Y-101815930D01*
X131616667Y-101804344D01*
X131619090Y-101793492D01*
X131622737Y-101778586D01*
X131626398Y-101765329D01*
X131628846Y-101757406D01*
X131634005Y-101742864D01*
X131639608Y-101728960D01*
X131645654Y-101715693D01*
X131652145Y-101703064D01*
X131659079Y-101691073D01*
X131666457Y-101679719D01*
X131674280Y-101669002D01*
X131682546Y-101658923D01*
X131691256Y-101649482D01*
X131700410Y-101640678D01*
X131706760Y-101635163D01*
X131716431Y-101627433D01*
X131726201Y-101620463D01*
X131736071Y-101614253D01*
X131746040Y-101608804D01*
X131756108Y-101604115D01*
X131766275Y-101600187D01*
X131779985Y-101596132D01*
X131793872Y-101593428D01*
X131807935Y-101592076D01*
X131815033Y-101591907D01*
X131829367Y-101592552D01*
X131843252Y-101594486D01*
X131856689Y-101597709D01*
X131869677Y-101602222D01*
X131882216Y-101608024D01*
X131894307Y-101615115D01*
X131905949Y-101623495D01*
X131917143Y-101633165D01*
X131927888Y-101644124D01*
X131938184Y-101656372D01*
X131944799Y-101665254D01*
X131953941Y-101678630D01*
X131962493Y-101692498D01*
X131970455Y-101706857D01*
X131977828Y-101721707D01*
X131984611Y-101737049D01*
X131990804Y-101752881D01*
X131996407Y-101769205D01*
X132001420Y-101786019D01*
X132005844Y-101803325D01*
X132009678Y-101821122D01*
X132012922Y-101839411D01*
X132015576Y-101858190D01*
X132017640Y-101877461D01*
X132019115Y-101897222D01*
X132019999Y-101917475D01*
X132020294Y-101938219D01*
X132020216Y-101950726D01*
X132019983Y-101963057D01*
X132019593Y-101975214D01*
X132019047Y-101987197D01*
X132018346Y-101999004D01*
X132017489Y-102010637D01*
X132016476Y-102022095D01*
X132015307Y-102033378D01*
X132013982Y-102044486D01*
X132012502Y-102055420D01*
X132011428Y-102062612D01*
X132009149Y-102076705D01*
X132006609Y-102090503D01*
X132003809Y-102104008D01*
X132000749Y-102117219D01*
X131997428Y-102130136D01*
X131993847Y-102142759D01*
X131990006Y-102155088D01*
X131985905Y-102167124D01*
X131992051Y-102176558D01*
X131996956Y-102186524D01*
X131998801Y-102191304D01*
X132001584Y-102201870D01*
X132002948Y-102212615D01*
X132003100Y-102217633D01*
X132002562Y-102228607D01*
X132000496Y-102240823D01*
X131996882Y-102252000D01*
X131991718Y-102262138D01*
X131985006Y-102271237D01*
X131981069Y-102275397D01*
X131971668Y-102282701D01*
X131960188Y-102288494D01*
X131949035Y-102292167D01*
X131936439Y-102294791D01*
X131925322Y-102296134D01*
X131913283Y-102296806D01*
X131906917Y-102296890D01*
X131858557Y-102296890D01*
X131846059Y-102296554D01*
X131834494Y-102295547D01*
X131823861Y-102293867D01*
X131811880Y-102290824D01*
X131801355Y-102286731D01*
X131790647Y-102280434D01*
X131784673Y-102275397D01*
X131777095Y-102266874D01*
X131771084Y-102257425D01*
X131766642Y-102247051D01*
X131763767Y-102235751D01*
X131762461Y-102223526D01*
X131762374Y-102219245D01*
X131762965Y-102207458D01*
X131764739Y-102196545D01*
X131768215Y-102185143D01*
X131773236Y-102174884D01*
X131774732Y-102172497D01*
X131781902Y-102163497D01*
X131791323Y-102155571D01*
X131801411Y-102149518D01*
X131811429Y-102144984D01*
X131816913Y-102142944D01*
X131822711Y-102133851D01*
X131828147Y-102124305D01*
X131833222Y-102114305D01*
X131837936Y-102103853D01*
X131842290Y-102092946D01*
X131846282Y-102081587D01*
X131849913Y-102069774D01*
X131853183Y-102057508D01*
X131856080Y-102044779D01*
X131858590Y-102031581D01*
X131860714Y-102017913D01*
X131862452Y-102003774D01*
X131863502Y-101992862D01*
X131864335Y-101981685D01*
X131864951Y-101970243D01*
X131865349Y-101958537D01*
X131865530Y-101946567D01*
X131865542Y-101942518D01*
X131865425Y-101929404D01*
X131865076Y-101916659D01*
X131864493Y-101904283D01*
X131863678Y-101892277D01*
X131862630Y-101880641D01*
X131861348Y-101869373D01*
X131859834Y-101858476D01*
X131857125Y-101842822D01*
X131853893Y-101827999D01*
X131850136Y-101814007D01*
X131845855Y-101800846D01*
X131841049Y-101788517D01*
X131835720Y-101777019D01*
X131830122Y-101767523D01*
X131823448Y-101758928D01*
X131814640Y-101751806D01*
X131804554Y-101749078D01*
X131793146Y-101750993D01*
X131782662Y-101756740D01*
X131774413Y-101764715D01*
X131768059Y-101773511D01*
X131762176Y-101784262D01*
X131759956Y-101789109D01*
X131755611Y-101800452D01*
X131751442Y-101814465D01*
X131748432Y-101826726D01*
X131745520Y-101840490D01*
X131742708Y-101855755D01*
X131740888Y-101866766D01*
X131739112Y-101878445D01*
X131737381Y-101890791D01*
X131735693Y-101903804D01*
X131734050Y-101917485D01*
X131732450Y-101931834D01*
X131730895Y-101946850D01*
X131730134Y-101954608D01*
X131728992Y-101966157D01*
X131727782Y-101977465D01*
X131726504Y-101988530D01*
X131725159Y-101999354D01*
X131722266Y-102020275D01*
X131719102Y-102040229D01*
X131715667Y-102059215D01*
X131711961Y-102077234D01*
X131707984Y-102094285D01*
X131703737Y-102110368D01*
X131699219Y-102125483D01*
X131694430Y-102139632D01*
X131689371Y-102152812D01*
X131684040Y-102165025D01*
X131678439Y-102176270D01*
X131672568Y-102186548D01*
X131666425Y-102195857D01*
X131660012Y-102204200D01*
X131650127Y-102215387D01*
X131639817Y-102225474D01*
X131629083Y-102234460D01*
X131617923Y-102242346D01*
X131606338Y-102249132D01*
X131594329Y-102254817D01*
X131581894Y-102259402D01*
X131569034Y-102262887D01*
X131555749Y-102265271D01*
X131542039Y-102266555D01*
X131532663Y-102266799D01*
X131518332Y-102266181D01*
X131504453Y-102264325D01*
X131491028Y-102261231D01*
X131478057Y-102256901D01*
X131465539Y-102251333D01*
X131453474Y-102244527D01*
X131441862Y-102236484D01*
X131430704Y-102227204D01*
X131419999Y-102216687D01*
X131409748Y-102204932D01*
X131403166Y-102196408D01*
X131394609Y-102184289D01*
X131386605Y-102171708D01*
X131379153Y-102158665D01*
X131372252Y-102145160D01*
X131365904Y-102131194D01*
X131360108Y-102116765D01*
X131354863Y-102101875D01*
X131350171Y-102086524D01*
X131346031Y-102070710D01*
X131342443Y-102054435D01*
X131339407Y-102037698D01*
X131336923Y-102020499D01*
X131334990Y-102002838D01*
X131333610Y-101984716D01*
X131332782Y-101966131D01*
X131332506Y-101947085D01*
X131332657Y-101933782D01*
X131333111Y-101920605D01*
X131333866Y-101907554D01*
X131334924Y-101894628D01*
X131336284Y-101881829D01*
X131337947Y-101869155D01*
X131339911Y-101856608D01*
X131342178Y-101844186D01*
X131344693Y-101831827D01*
X131347535Y-101819603D01*
X131350704Y-101807513D01*
X131354201Y-101795557D01*
X131358026Y-101783736D01*
X131362177Y-101772049D01*
X131366656Y-101760496D01*
X131371463Y-101749078D01*
X131364710Y-101739510D01*
X131358791Y-101729580D01*
X131355343Y-101722480D01*
X131351486Y-101711842D01*
X131349723Y-101700692D01*
X131349701Y-101699374D01*
X131350523Y-101687854D01*
X131352988Y-101677071D01*
X131357097Y-101667024D01*
X131362849Y-101657714D01*
X131370245Y-101649141D01*
X131373075Y-101646447D01*
X131382955Y-101639234D01*
X131392891Y-101634363D01*
X131404375Y-101630528D01*
X131417407Y-101627730D01*
X131428947Y-101626238D01*
X131441478Y-101625409D01*
X131451526Y-101625222D01*
X131488602Y-101625222D01*
X131500532Y-101625411D01*
X131511472Y-101625978D01*
X131523754Y-101627217D01*
X131534487Y-101629047D01*
X131545324Y-101632023D01*
X131555150Y-101636568D01*
X131556306Y-101637312D01*
X131566136Y-101645295D01*
X131574299Y-101654130D01*
X131580797Y-101663818D01*
X131585629Y-101674359D01*
X131588794Y-101685752D01*
X131590294Y-101697998D01*
X131590427Y-101703136D01*
X131589655Y-101715039D01*
X131587341Y-101726299D01*
X131583484Y-101736916D01*
X131578085Y-101746891D01*
X131574307Y-101752302D01*
X131566635Y-101760763D01*
X131557961Y-101767810D01*
X131548284Y-101773443D01*
X131537604Y-101777661D01*
X131531051Y-101779437D01*
G37*
G36*
X131504453Y-101060752D02*
G01*
X131783867Y-101060752D01*
X131797140Y-101060254D01*
X131808918Y-101058758D01*
X131821078Y-101055648D01*
X131831083Y-101051101D01*
X131840035Y-101043983D01*
X131842974Y-101040334D01*
X131849475Y-101029207D01*
X131853883Y-101018548D01*
X131857586Y-101006328D01*
X131860583Y-100992546D01*
X131862368Y-100981185D01*
X131863757Y-100968945D01*
X131864749Y-100955827D01*
X131865344Y-100941831D01*
X131865542Y-100926956D01*
X131865349Y-100912215D01*
X131864770Y-100897613D01*
X131863804Y-100883149D01*
X131862452Y-100868823D01*
X131860714Y-100854637D01*
X131858590Y-100840588D01*
X131856080Y-100826678D01*
X131853183Y-100812907D01*
X131849900Y-100799274D01*
X131846231Y-100785780D01*
X131842176Y-100772424D01*
X131837735Y-100759207D01*
X131832907Y-100746129D01*
X131827693Y-100733188D01*
X131822093Y-100720387D01*
X131816107Y-100707724D01*
X131810534Y-100696118D01*
X131805906Y-100685312D01*
X131801599Y-100673402D01*
X131798652Y-100662643D01*
X131796933Y-100651549D01*
X131796763Y-100647274D01*
X131797557Y-100636264D01*
X131800488Y-100624111D01*
X131805579Y-100612704D01*
X131811662Y-100603520D01*
X131819331Y-100594884D01*
X131828134Y-100587305D01*
X131837617Y-100581295D01*
X131847781Y-100576853D01*
X131858624Y-100573978D01*
X131870147Y-100572671D01*
X131874139Y-100572584D01*
X131885039Y-100573434D01*
X131897039Y-100576575D01*
X131908268Y-100582030D01*
X131917279Y-100588547D01*
X131925723Y-100596764D01*
X131934438Y-100607158D01*
X131940864Y-100616431D01*
X131947196Y-100626968D01*
X131953433Y-100638772D01*
X131959575Y-100651841D01*
X131965624Y-100666176D01*
X131969603Y-100676436D01*
X131973541Y-100687258D01*
X131977437Y-100698643D01*
X131981290Y-100710590D01*
X131985102Y-100723100D01*
X131988872Y-100736172D01*
X131990741Y-100742919D01*
X131994320Y-100756421D01*
X131997667Y-100769656D01*
X132000784Y-100782624D01*
X132003670Y-100795326D01*
X132006326Y-100807761D01*
X132008750Y-100819930D01*
X132010943Y-100831832D01*
X132012906Y-100843468D01*
X132014637Y-100854837D01*
X132016138Y-100865939D01*
X132017408Y-100876775D01*
X132018880Y-100892529D01*
X132019832Y-100907684D01*
X132020265Y-100922238D01*
X132020294Y-100926956D01*
X132020069Y-100944709D01*
X132019392Y-100961900D01*
X132018263Y-100978528D01*
X132016684Y-100994593D01*
X132014653Y-101010096D01*
X132012171Y-101025037D01*
X132009238Y-101039414D01*
X132005853Y-101053230D01*
X132002017Y-101066483D01*
X131997730Y-101079173D01*
X131992992Y-101091301D01*
X131987802Y-101102866D01*
X131982161Y-101113869D01*
X131976069Y-101124309D01*
X131969526Y-101134187D01*
X131962531Y-101143502D01*
X131955207Y-101152221D01*
X131947679Y-101160378D01*
X131939944Y-101167972D01*
X131927956Y-101178308D01*
X131915506Y-101187379D01*
X131902592Y-101195184D01*
X131889216Y-101201723D01*
X131875377Y-101206997D01*
X131861075Y-101211005D01*
X131846311Y-101213747D01*
X131831083Y-101215224D01*
X131820675Y-101215505D01*
X131504453Y-101215505D01*
X131504453Y-101271388D01*
X131504117Y-101284922D01*
X131503110Y-101297448D01*
X131501431Y-101308967D01*
X131499080Y-101319479D01*
X131495197Y-101331202D01*
X131490264Y-101341350D01*
X131482960Y-101351450D01*
X131474437Y-101359485D01*
X131464989Y-101365858D01*
X131454615Y-101370568D01*
X131443315Y-101373615D01*
X131431089Y-101375001D01*
X131426809Y-101375093D01*
X131414457Y-101374262D01*
X131402994Y-101371768D01*
X131392418Y-101367612D01*
X131382730Y-101361794D01*
X131373930Y-101354313D01*
X131371194Y-101351450D01*
X131363890Y-101341350D01*
X131358957Y-101331202D01*
X131355074Y-101319479D01*
X131352724Y-101308967D01*
X131351044Y-101297448D01*
X131350037Y-101284922D01*
X131349701Y-101271388D01*
X131349701Y-101215505D01*
X131211337Y-101215505D01*
X131198001Y-101215169D01*
X131185663Y-101214161D01*
X131174324Y-101212482D01*
X131161556Y-101209439D01*
X131150349Y-101205346D01*
X131140703Y-101200203D01*
X131132618Y-101194011D01*
X131124583Y-101185489D01*
X131118211Y-101176040D01*
X131113501Y-101165666D01*
X131110453Y-101154366D01*
X131109068Y-101142141D01*
X131108975Y-101137860D01*
X131109806Y-101125509D01*
X131112300Y-101114045D01*
X131116456Y-101103470D01*
X131122274Y-101093782D01*
X131129755Y-101084982D01*
X131132618Y-101082246D01*
X131142507Y-101074941D01*
X131152466Y-101070009D01*
X131163985Y-101066126D01*
X131177065Y-101063292D01*
X131188654Y-101061781D01*
X131201241Y-101060941D01*
X131211337Y-101060752D01*
X131349701Y-101060752D01*
X131349701Y-100774353D01*
X131350037Y-100760823D01*
X131351044Y-100748309D01*
X131352724Y-100736811D01*
X131355767Y-100723867D01*
X131359860Y-100712511D01*
X131365002Y-100702741D01*
X131371194Y-100694559D01*
X131379717Y-100686433D01*
X131389166Y-100679988D01*
X131399540Y-100675225D01*
X131410840Y-100672142D01*
X131423065Y-100670741D01*
X131427346Y-100670648D01*
X131439697Y-100671488D01*
X131451161Y-100674010D01*
X131461736Y-100678214D01*
X131471424Y-100684098D01*
X131480224Y-100691664D01*
X131482960Y-100694559D01*
X131490264Y-100704568D01*
X131495197Y-100714655D01*
X131499080Y-100726329D01*
X131501914Y-100739591D01*
X131503425Y-100751343D01*
X131504264Y-100764111D01*
X131504453Y-100774353D01*
X131504453Y-101060752D01*
G37*
G36*
X131901760Y-99709613D02*
G01*
X131913738Y-99712544D01*
X131924842Y-99717635D01*
X131935072Y-99724886D01*
X131941843Y-99731388D01*
X131948787Y-99740333D01*
X131955646Y-99751991D01*
X131960736Y-99762514D01*
X131965778Y-99774562D01*
X131970773Y-99788136D01*
X131975721Y-99803235D01*
X131978993Y-99814149D01*
X131982244Y-99825740D01*
X131985475Y-99838010D01*
X131988684Y-99850957D01*
X131991872Y-99864582D01*
X131995039Y-99878886D01*
X131998098Y-99893492D01*
X132000959Y-99908028D01*
X132003622Y-99922492D01*
X132006088Y-99936884D01*
X132008357Y-99951206D01*
X132010429Y-99965455D01*
X132012303Y-99979634D01*
X132013981Y-99993741D01*
X132015460Y-100007777D01*
X132016743Y-100021741D01*
X132017828Y-100035634D01*
X132018716Y-100049456D01*
X132019406Y-100063206D01*
X132019900Y-100076885D01*
X132020196Y-100090493D01*
X132020294Y-100104029D01*
X132020198Y-100115559D01*
X132019909Y-100126945D01*
X132019428Y-100138186D01*
X132018754Y-100149282D01*
X132017887Y-100160234D01*
X132016828Y-100171040D01*
X132014132Y-100192219D01*
X132010665Y-100212818D01*
X132006428Y-100232838D01*
X132001421Y-100252279D01*
X131995644Y-100271140D01*
X131989096Y-100289422D01*
X131981778Y-100307124D01*
X131973690Y-100324248D01*
X131964831Y-100340792D01*
X131955202Y-100356756D01*
X131944803Y-100372142D01*
X131933633Y-100386948D01*
X131921693Y-100401175D01*
X131909157Y-100414676D01*
X131896267Y-100427307D01*
X131883021Y-100439066D01*
X131869421Y-100449955D01*
X131855466Y-100459972D01*
X131841156Y-100469118D01*
X131826492Y-100477393D01*
X131811473Y-100484797D01*
X131796099Y-100491330D01*
X131780370Y-100496992D01*
X131764287Y-100501783D01*
X131747849Y-100505703D01*
X131731056Y-100508752D01*
X131713909Y-100510929D01*
X131696407Y-100512236D01*
X131678550Y-100512672D01*
X131659597Y-100512201D01*
X131641092Y-100510791D01*
X131623033Y-100508440D01*
X131605422Y-100505149D01*
X131588258Y-100500917D01*
X131571540Y-100495746D01*
X131555270Y-100489633D01*
X131539447Y-100482581D01*
X131524071Y-100474588D01*
X131509142Y-100465655D01*
X131494661Y-100455781D01*
X131480626Y-100444967D01*
X131467038Y-100433213D01*
X131453898Y-100420519D01*
X131441204Y-100406884D01*
X131428958Y-100392309D01*
X131417278Y-100377087D01*
X131406352Y-100361580D01*
X131396179Y-100345787D01*
X131386760Y-100329709D01*
X131378095Y-100313346D01*
X131370183Y-100296697D01*
X131363024Y-100279762D01*
X131356619Y-100262542D01*
X131350968Y-100245037D01*
X131346070Y-100227246D01*
X131341925Y-100209170D01*
X131338535Y-100190808D01*
X131335897Y-100172161D01*
X131334013Y-100153229D01*
X131332883Y-100134010D01*
X131332506Y-100114507D01*
X131332545Y-100110746D01*
X131487259Y-100110746D01*
X131487523Y-100125271D01*
X131488316Y-100139428D01*
X131489639Y-100153216D01*
X131491490Y-100166637D01*
X131493870Y-100179689D01*
X131496779Y-100192372D01*
X131500218Y-100204687D01*
X131504185Y-100216634D01*
X131508681Y-100228212D01*
X131513706Y-100239422D01*
X131517349Y-100246691D01*
X131523210Y-100257285D01*
X131529609Y-100267505D01*
X131536547Y-100277353D01*
X131544023Y-100286827D01*
X131552037Y-100295929D01*
X131560590Y-100304657D01*
X131569681Y-100313012D01*
X131579311Y-100320994D01*
X131589479Y-100328603D01*
X131600185Y-100335839D01*
X131607621Y-100340456D01*
X131607621Y-99881035D01*
X131596556Y-99887878D01*
X131586029Y-99895109D01*
X131576041Y-99902726D01*
X131566591Y-99910731D01*
X131557679Y-99919123D01*
X131549306Y-99927903D01*
X131541471Y-99937070D01*
X131534175Y-99946623D01*
X131527416Y-99956565D01*
X131521197Y-99966893D01*
X131517349Y-99973994D01*
X131511972Y-99984965D01*
X131507123Y-99996320D01*
X131502804Y-100008056D01*
X131499013Y-100020175D01*
X131495751Y-100032677D01*
X131493018Y-100045561D01*
X131490814Y-100058828D01*
X131489139Y-100072477D01*
X131487993Y-100086509D01*
X131487376Y-100100923D01*
X131487259Y-100110746D01*
X131332545Y-100110746D01*
X131332628Y-100102779D01*
X131332993Y-100091171D01*
X131333602Y-100079682D01*
X131334454Y-100068313D01*
X131335550Y-100057064D01*
X131336889Y-100045934D01*
X131338472Y-100034924D01*
X131340298Y-100024033D01*
X131342367Y-100013262D01*
X131344680Y-100002611D01*
X131347237Y-99992080D01*
X131350037Y-99981668D01*
X131354693Y-99966274D01*
X131359898Y-99951150D01*
X131363672Y-99941217D01*
X131369510Y-99926763D01*
X131375437Y-99913022D01*
X131381455Y-99899995D01*
X131387562Y-99887680D01*
X131393759Y-99876079D01*
X131400046Y-99865191D01*
X131406422Y-99855016D01*
X131412888Y-99845554D01*
X131419444Y-99836806D01*
X131428325Y-99826250D01*
X131430570Y-99823809D01*
X131440560Y-99813751D01*
X131450984Y-99804027D01*
X131461843Y-99794639D01*
X131473137Y-99785587D01*
X131484865Y-99776870D01*
X131497027Y-99768488D01*
X131509624Y-99760441D01*
X131522656Y-99752730D01*
X131536121Y-99745354D01*
X131550022Y-99738313D01*
X131559530Y-99733806D01*
X131569754Y-99729484D01*
X131580275Y-99725588D01*
X131591094Y-99722117D01*
X131602210Y-99719071D01*
X131613624Y-99716450D01*
X131625336Y-99714254D01*
X131637345Y-99712483D01*
X131649651Y-99711137D01*
X131662255Y-99710216D01*
X131675157Y-99709720D01*
X131683923Y-99709625D01*
X131745179Y-99709625D01*
X131745179Y-100345023D01*
X131755123Y-100340161D01*
X131764703Y-100334643D01*
X131773919Y-100328468D01*
X131782771Y-100321637D01*
X131791260Y-100314149D01*
X131799386Y-100306005D01*
X131807147Y-100297204D01*
X131814546Y-100287747D01*
X131821580Y-100277633D01*
X131828251Y-100266863D01*
X131832496Y-100259318D01*
X131838402Y-100247400D01*
X131843726Y-100234717D01*
X131848470Y-100221268D01*
X131852633Y-100207054D01*
X131856215Y-100192076D01*
X131859217Y-100176332D01*
X131860895Y-100165411D01*
X131862315Y-100154150D01*
X131863477Y-100142549D01*
X131864380Y-100130608D01*
X131865026Y-100118327D01*
X131865413Y-100105706D01*
X131865542Y-100092745D01*
X131865399Y-100081743D01*
X131864971Y-100070299D01*
X131864257Y-100058411D01*
X131863258Y-100046081D01*
X131861974Y-100033307D01*
X131860404Y-100020091D01*
X131858548Y-100006432D01*
X131856407Y-99992330D01*
X131853981Y-99977786D01*
X131851269Y-99962798D01*
X131848272Y-99947368D01*
X131844989Y-99931494D01*
X131841421Y-99915178D01*
X131837567Y-99898419D01*
X131833428Y-99881217D01*
X131829003Y-99863572D01*
X131826314Y-99852858D01*
X131823141Y-99839566D01*
X131820437Y-99827406D01*
X131818204Y-99816381D01*
X131816074Y-99804192D01*
X131814487Y-99791904D01*
X131813958Y-99782166D01*
X131814732Y-99770838D01*
X131817056Y-99760227D01*
X131821725Y-99748756D01*
X131828502Y-99738262D01*
X131835989Y-99730044D01*
X131844546Y-99722831D01*
X131853897Y-99717110D01*
X131864041Y-99712882D01*
X131874979Y-99710146D01*
X131886710Y-99708902D01*
X131890797Y-99708819D01*
X131901760Y-99709613D01*
G37*
G36*
X131349701Y-99413286D02*
G01*
X131394568Y-99413286D01*
X131386051Y-99403933D01*
X131378230Y-99394815D01*
X131371106Y-99385932D01*
X131364679Y-99377284D01*
X131357625Y-99366805D01*
X131351660Y-99356693D01*
X131346784Y-99346949D01*
X131345940Y-99345044D01*
X131341374Y-99333228D01*
X131338292Y-99322876D01*
X131335865Y-99312065D01*
X131334094Y-99300795D01*
X131332979Y-99289066D01*
X131332519Y-99276878D01*
X131332506Y-99274385D01*
X131333073Y-99261627D01*
X131334773Y-99248945D01*
X131337056Y-99238435D01*
X131340126Y-99227977D01*
X131343982Y-99217571D01*
X131348626Y-99207218D01*
X131353967Y-99196840D01*
X131360081Y-99186527D01*
X131366970Y-99176281D01*
X131374633Y-99166099D01*
X131383069Y-99155984D01*
X131390376Y-99147938D01*
X131396180Y-99141932D01*
X131388381Y-99131907D01*
X131381102Y-99121849D01*
X131374343Y-99111757D01*
X131368105Y-99101632D01*
X131362387Y-99091473D01*
X131357190Y-99081280D01*
X131352514Y-99071054D01*
X131348358Y-99060794D01*
X131344643Y-99050488D01*
X131341423Y-99040124D01*
X131338698Y-99029700D01*
X131335989Y-99016588D01*
X131334054Y-99003385D01*
X131332893Y-98990089D01*
X131332506Y-98976702D01*
X131332884Y-98960817D01*
X131334018Y-98945504D01*
X131335907Y-98930762D01*
X131338551Y-98916591D01*
X131341952Y-98902993D01*
X131346108Y-98889965D01*
X131351019Y-98877509D01*
X131356686Y-98865624D01*
X131363109Y-98854311D01*
X131370288Y-98843570D01*
X131375493Y-98836726D01*
X131382717Y-98828137D01*
X131390215Y-98820102D01*
X131397989Y-98812621D01*
X131410165Y-98802439D01*
X131422959Y-98793504D01*
X131436372Y-98785816D01*
X131450404Y-98779374D01*
X131465054Y-98774179D01*
X131480324Y-98770231D01*
X131496211Y-98767529D01*
X131507147Y-98766421D01*
X131518358Y-98765867D01*
X131524066Y-98765798D01*
X131848347Y-98765798D01*
X131848683Y-98754098D01*
X131849691Y-98743179D01*
X131851894Y-98730629D01*
X131855148Y-98719299D01*
X131859451Y-98709188D01*
X131866000Y-98698666D01*
X131869841Y-98694064D01*
X131878272Y-98686029D01*
X131887648Y-98679656D01*
X131897969Y-98674946D01*
X131909234Y-98671899D01*
X131921444Y-98670513D01*
X131925723Y-98670421D01*
X131938257Y-98671252D01*
X131949866Y-98673746D01*
X131960548Y-98677902D01*
X131970305Y-98683720D01*
X131979137Y-98691201D01*
X131981875Y-98694064D01*
X131989088Y-98703972D01*
X131993959Y-98713975D01*
X131997793Y-98725565D01*
X132000592Y-98738742D01*
X132002084Y-98750427D01*
X132002913Y-98763128D01*
X132003100Y-98773321D01*
X132003100Y-98920550D01*
X131545828Y-98920550D01*
X131534154Y-98921003D01*
X131522348Y-98922678D01*
X131511249Y-98926104D01*
X131501813Y-98931885D01*
X131500155Y-98933446D01*
X131493354Y-98942818D01*
X131489387Y-98953496D01*
X131487573Y-98964772D01*
X131487259Y-98972672D01*
X131487863Y-98983763D01*
X131489676Y-98994468D01*
X131492697Y-99004788D01*
X131496926Y-99014722D01*
X131499886Y-99020226D01*
X131506188Y-99029252D01*
X131514012Y-99038870D01*
X131521367Y-99046988D01*
X131529695Y-99055485D01*
X131538998Y-99064359D01*
X131549275Y-99073612D01*
X131557621Y-99080799D01*
X131566515Y-99088198D01*
X131848347Y-99088198D01*
X131848683Y-99076499D01*
X131849691Y-99065580D01*
X131851894Y-99053030D01*
X131855148Y-99041699D01*
X131859451Y-99031589D01*
X131866000Y-99021067D01*
X131869841Y-99016464D01*
X131878272Y-99008521D01*
X131887648Y-99002221D01*
X131897969Y-98997564D01*
X131909234Y-98994551D01*
X131921444Y-98993182D01*
X131925723Y-98993090D01*
X131938257Y-98993912D01*
X131949866Y-98996377D01*
X131960548Y-99000486D01*
X131970305Y-99006238D01*
X131979137Y-99013634D01*
X131981875Y-99016464D01*
X131989088Y-99026382D01*
X131993959Y-99036407D01*
X131997793Y-99048033D01*
X132000592Y-99061259D01*
X132002084Y-99072992D01*
X132002913Y-99085749D01*
X132003100Y-99095990D01*
X132003100Y-99243219D01*
X131545828Y-99243219D01*
X131534327Y-99243682D01*
X131522652Y-99245392D01*
X131511607Y-99248889D01*
X131502112Y-99254790D01*
X131500423Y-99256384D01*
X131493481Y-99265924D01*
X131489431Y-99276753D01*
X131487580Y-99288163D01*
X131487259Y-99296147D01*
X131488030Y-99307993D01*
X131490344Y-99319787D01*
X131494201Y-99331531D01*
X131498735Y-99341555D01*
X131503379Y-99349880D01*
X131510428Y-99360132D01*
X131517991Y-99369252D01*
X131527089Y-99378896D01*
X131535472Y-99386990D01*
X131544837Y-99395419D01*
X131555185Y-99404185D01*
X131563591Y-99410979D01*
X131566515Y-99413286D01*
X131848347Y-99413286D01*
X131848683Y-99401582D01*
X131849691Y-99390650D01*
X131851894Y-99378072D01*
X131855148Y-99366701D01*
X131859451Y-99356537D01*
X131866000Y-99345933D01*
X131869841Y-99341283D01*
X131878272Y-99333157D01*
X131887648Y-99326712D01*
X131897969Y-99321948D01*
X131909234Y-99318866D01*
X131921444Y-99317465D01*
X131925723Y-99317371D01*
X131938257Y-99318212D01*
X131949866Y-99320734D01*
X131960548Y-99324937D01*
X131970305Y-99330822D01*
X131979137Y-99338387D01*
X131981875Y-99341283D01*
X131989088Y-99351282D01*
X131993959Y-99361347D01*
X131997793Y-99372986D01*
X132000592Y-99386199D01*
X132002084Y-99397902D01*
X132002913Y-99410614D01*
X132003100Y-99420808D01*
X132003100Y-99560515D01*
X132002768Y-99573986D01*
X132001773Y-99586458D01*
X132000115Y-99597931D01*
X131997109Y-99610867D01*
X131993068Y-99622243D01*
X131987989Y-99632057D01*
X131981875Y-99640309D01*
X131973352Y-99648436D01*
X131963903Y-99654880D01*
X131953529Y-99659644D01*
X131942230Y-99662726D01*
X131930004Y-99664127D01*
X131925723Y-99664221D01*
X131913199Y-99663390D01*
X131901619Y-99660896D01*
X131890983Y-99656740D01*
X131881293Y-99650922D01*
X131872546Y-99643441D01*
X131869841Y-99640578D01*
X131862536Y-99630906D01*
X131856743Y-99619420D01*
X131853070Y-99608464D01*
X131850446Y-99596248D01*
X131849103Y-99585568D01*
X131848431Y-99574083D01*
X131848347Y-99568038D01*
X131504453Y-99568038D01*
X131504122Y-99579926D01*
X131503127Y-99591009D01*
X131500950Y-99603729D01*
X131497738Y-99615189D01*
X131493489Y-99625390D01*
X131487022Y-99635969D01*
X131483229Y-99640578D01*
X131474706Y-99648613D01*
X131465257Y-99654985D01*
X131454883Y-99659695D01*
X131443583Y-99662743D01*
X131431358Y-99664128D01*
X131427077Y-99664221D01*
X131414553Y-99663380D01*
X131402973Y-99660858D01*
X131392337Y-99656655D01*
X131382646Y-99650771D01*
X131373900Y-99643205D01*
X131371194Y-99640309D01*
X131363890Y-99630219D01*
X131358957Y-99620092D01*
X131355074Y-99608405D01*
X131352241Y-99595157D01*
X131350730Y-99583434D01*
X131349890Y-99570712D01*
X131349701Y-99560515D01*
X131349701Y-99413286D01*
G37*
G36*
X131695072Y-96904182D02*
G01*
X131713069Y-96905731D01*
X131730662Y-96908313D01*
X131747849Y-96911927D01*
X131764631Y-96916575D01*
X131781008Y-96922254D01*
X131796980Y-96928967D01*
X131812547Y-96936712D01*
X131827709Y-96945490D01*
X131842466Y-96955300D01*
X131856818Y-96966144D01*
X131870764Y-96978020D01*
X131884306Y-96990928D01*
X131897442Y-97004870D01*
X131910173Y-97019844D01*
X131922499Y-97035850D01*
X131932260Y-97049762D01*
X131941390Y-97063892D01*
X131949891Y-97078241D01*
X131957762Y-97092808D01*
X131965003Y-97107593D01*
X131971615Y-97122596D01*
X131977597Y-97137818D01*
X131982949Y-97153258D01*
X131987672Y-97168916D01*
X131991765Y-97184793D01*
X131995228Y-97200887D01*
X131998062Y-97217201D01*
X132000266Y-97233732D01*
X132001840Y-97250482D01*
X132002785Y-97267450D01*
X132003100Y-97284636D01*
X132002911Y-97295807D01*
X132002344Y-97306955D01*
X132001399Y-97318080D01*
X132000077Y-97329180D01*
X131998377Y-97340257D01*
X131996299Y-97351311D01*
X131993843Y-97362340D01*
X131991009Y-97373346D01*
X131987798Y-97384329D01*
X131984209Y-97395288D01*
X131981606Y-97402581D01*
X131977387Y-97413455D01*
X131972790Y-97424315D01*
X131967816Y-97435160D01*
X131962464Y-97445992D01*
X131956733Y-97456809D01*
X131950625Y-97467612D01*
X131944140Y-97478401D01*
X131937276Y-97489176D01*
X131930035Y-97499936D01*
X131922415Y-97510683D01*
X131917126Y-97517839D01*
X132140657Y-97517839D01*
X132140657Y-97425149D01*
X132140989Y-97411619D01*
X132141984Y-97399105D01*
X132143642Y-97387607D01*
X132146647Y-97374663D01*
X132150689Y-97363306D01*
X132155767Y-97353537D01*
X132161882Y-97345355D01*
X132170405Y-97337229D01*
X132179853Y-97330784D01*
X132190227Y-97326020D01*
X132201527Y-97322938D01*
X132213752Y-97321537D01*
X132218033Y-97321443D01*
X132230558Y-97322284D01*
X132242138Y-97324806D01*
X132252773Y-97329009D01*
X132262464Y-97334894D01*
X132271210Y-97342459D01*
X132273916Y-97345355D01*
X132281220Y-97355364D01*
X132286153Y-97365450D01*
X132290036Y-97377125D01*
X132292870Y-97390386D01*
X132294381Y-97402138D01*
X132295220Y-97414906D01*
X132295409Y-97425149D01*
X132295409Y-97699189D01*
X132295074Y-97712723D01*
X132294066Y-97725250D01*
X132292387Y-97736769D01*
X132290036Y-97747281D01*
X132286153Y-97759003D01*
X132281220Y-97769152D01*
X132273916Y-97779252D01*
X132265484Y-97787287D01*
X132256108Y-97793659D01*
X132245788Y-97798369D01*
X132234523Y-97801417D01*
X132222313Y-97802802D01*
X132218033Y-97802895D01*
X132205499Y-97802045D01*
X132193891Y-97799495D01*
X132183208Y-97795244D01*
X132173451Y-97789294D01*
X132164620Y-97781643D01*
X132161882Y-97778715D01*
X132154669Y-97768552D01*
X132149798Y-97758408D01*
X132145963Y-97746743D01*
X132143165Y-97733557D01*
X132141673Y-97721912D01*
X132140844Y-97709293D01*
X132140657Y-97699189D01*
X132140657Y-97672860D01*
X131504453Y-97672860D01*
X131504453Y-97699189D01*
X131504122Y-97712723D01*
X131503127Y-97725250D01*
X131501469Y-97736769D01*
X131499147Y-97747281D01*
X131495313Y-97759003D01*
X131490442Y-97769152D01*
X131483229Y-97779252D01*
X131474706Y-97787287D01*
X131465257Y-97793659D01*
X131454883Y-97798369D01*
X131443583Y-97801417D01*
X131431358Y-97802802D01*
X131427077Y-97802895D01*
X131414553Y-97802064D01*
X131402973Y-97799570D01*
X131392337Y-97795414D01*
X131382646Y-97789596D01*
X131373900Y-97782115D01*
X131371194Y-97779252D01*
X131363890Y-97769152D01*
X131358957Y-97759003D01*
X131355074Y-97747281D01*
X131352724Y-97736769D01*
X131351044Y-97725250D01*
X131350037Y-97712723D01*
X131349701Y-97699189D01*
X131349701Y-97517839D01*
X131418480Y-97517839D01*
X131410515Y-97507630D01*
X131402942Y-97497355D01*
X131395761Y-97487014D01*
X131388973Y-97476607D01*
X131382576Y-97466134D01*
X131376571Y-97455594D01*
X131370958Y-97444989D01*
X131365737Y-97434317D01*
X131360908Y-97423579D01*
X131356471Y-97412775D01*
X131353731Y-97405536D01*
X131349938Y-97394579D01*
X131346518Y-97383569D01*
X131343471Y-97372508D01*
X131340797Y-97361395D01*
X131338497Y-97350230D01*
X131336569Y-97339013D01*
X131335014Y-97327744D01*
X131333833Y-97316423D01*
X131333025Y-97305050D01*
X131332589Y-97293625D01*
X131332529Y-97288129D01*
X131487259Y-97288129D01*
X131487581Y-97302384D01*
X131488547Y-97316267D01*
X131490158Y-97329779D01*
X131492414Y-97342920D01*
X131495313Y-97355689D01*
X131498857Y-97368086D01*
X131503046Y-97380112D01*
X131507879Y-97391767D01*
X131513356Y-97403050D01*
X131519478Y-97413961D01*
X131526244Y-97424501D01*
X131533654Y-97434670D01*
X131541709Y-97444467D01*
X131550408Y-97453892D01*
X131559752Y-97462946D01*
X131569739Y-97471628D01*
X131580283Y-97479887D01*
X131590755Y-97487333D01*
X131601157Y-97493966D01*
X131611488Y-97499788D01*
X131621748Y-97504797D01*
X131631937Y-97508994D01*
X131645412Y-97513326D01*
X131658762Y-97516214D01*
X131671985Y-97517659D01*
X131678550Y-97517839D01*
X131689553Y-97517258D01*
X131700501Y-97515515D01*
X131711391Y-97512611D01*
X131722225Y-97508545D01*
X131733002Y-97503317D01*
X131743722Y-97496927D01*
X131754386Y-97489376D01*
X131764993Y-97480662D01*
X131775544Y-97470787D01*
X131786037Y-97459750D01*
X131793002Y-97451747D01*
X131802893Y-97439078D01*
X131811811Y-97425857D01*
X131819756Y-97412084D01*
X131826728Y-97397757D01*
X131832727Y-97382879D01*
X131836186Y-97372653D01*
X131839213Y-97362181D01*
X131841807Y-97351463D01*
X131843969Y-97340501D01*
X131845699Y-97329292D01*
X131846996Y-97317838D01*
X131847861Y-97306139D01*
X131848293Y-97294193D01*
X131848347Y-97288129D01*
X131848132Y-97275965D01*
X131847487Y-97264058D01*
X131846411Y-97252406D01*
X131844905Y-97241011D01*
X131842969Y-97229872D01*
X131840602Y-97218989D01*
X131837805Y-97208362D01*
X131834578Y-97197991D01*
X131830921Y-97187876D01*
X131824628Y-97173184D01*
X131817367Y-97159068D01*
X131809137Y-97145528D01*
X131799940Y-97132564D01*
X131793270Y-97124242D01*
X131782846Y-97112478D01*
X131772327Y-97101872D01*
X131761714Y-97092423D01*
X131751006Y-97084131D01*
X131740203Y-97076995D01*
X131729307Y-97071017D01*
X131718315Y-97066196D01*
X131707230Y-97062532D01*
X131696050Y-97060025D01*
X131684775Y-97058675D01*
X131677206Y-97058418D01*
X131665034Y-97059325D01*
X131653996Y-97061466D01*
X131642145Y-97064866D01*
X131629481Y-97069526D01*
X131618763Y-97074160D01*
X131607525Y-97079601D01*
X131598755Y-97084210D01*
X131587052Y-97091028D01*
X131575852Y-97098718D01*
X131565155Y-97107282D01*
X131554963Y-97116719D01*
X131545274Y-97127029D01*
X131538338Y-97135335D01*
X131531685Y-97144131D01*
X131525316Y-97153419D01*
X131519230Y-97163198D01*
X131513516Y-97173336D01*
X131508365Y-97183799D01*
X131503775Y-97194588D01*
X131499747Y-97205702D01*
X131496282Y-97217143D01*
X131493378Y-97228910D01*
X131491036Y-97241002D01*
X131489257Y-97253420D01*
X131488039Y-97266164D01*
X131487383Y-97279234D01*
X131487259Y-97288129D01*
X131332529Y-97288129D01*
X131332506Y-97285979D01*
X131332915Y-97266315D01*
X131334139Y-97247018D01*
X131336181Y-97228089D01*
X131339038Y-97209527D01*
X131342713Y-97191332D01*
X131347203Y-97173504D01*
X131352510Y-97156044D01*
X131358634Y-97138951D01*
X131365574Y-97122226D01*
X131373331Y-97105867D01*
X131381904Y-97089876D01*
X131391294Y-97074253D01*
X131401500Y-97058996D01*
X131412523Y-97044108D01*
X131424362Y-97029586D01*
X131437018Y-97015431D01*
X131450201Y-97001897D01*
X131463624Y-96989236D01*
X131477286Y-96977449D01*
X131491188Y-96966534D01*
X131505329Y-96956493D01*
X131519709Y-96947324D01*
X131534328Y-96939029D01*
X131549186Y-96931607D01*
X131564284Y-96925059D01*
X131579621Y-96919383D01*
X131595198Y-96914581D01*
X131611013Y-96910651D01*
X131627068Y-96907595D01*
X131643363Y-96905412D01*
X131659896Y-96904103D01*
X131676669Y-96903666D01*
X131695072Y-96904182D01*
G37*
G36*
X131057391Y-96345913D02*
G01*
X131212143Y-96345913D01*
X131212143Y-96530219D01*
X131057391Y-96530219D01*
X131057391Y-96345913D01*
G37*
G36*
X131349701Y-96324688D02*
G01*
X131848347Y-96324688D01*
X131848347Y-96138771D01*
X131848683Y-96125304D01*
X131849691Y-96112844D01*
X131851370Y-96101392D01*
X131854413Y-96088494D01*
X131858506Y-96077170D01*
X131863649Y-96067421D01*
X131869841Y-96059245D01*
X131878272Y-96051119D01*
X131887648Y-96044674D01*
X131897969Y-96039911D01*
X131909234Y-96036828D01*
X131921444Y-96035427D01*
X131925723Y-96035334D01*
X131938257Y-96036174D01*
X131949866Y-96038696D01*
X131960548Y-96042900D01*
X131970305Y-96048784D01*
X131979137Y-96056350D01*
X131981875Y-96059245D01*
X131989088Y-96069245D01*
X131993959Y-96079309D01*
X131997793Y-96090948D01*
X132000592Y-96104161D01*
X132002084Y-96115865D01*
X132002913Y-96128576D01*
X132003100Y-96138771D01*
X132003100Y-96665627D01*
X132002768Y-96679098D01*
X132001773Y-96691570D01*
X132000115Y-96703043D01*
X131997109Y-96715979D01*
X131993068Y-96727354D01*
X131987989Y-96737168D01*
X131981875Y-96745421D01*
X131973352Y-96753456D01*
X131963903Y-96759828D01*
X131953529Y-96764538D01*
X131942230Y-96767586D01*
X131930004Y-96768971D01*
X131925723Y-96769064D01*
X131913199Y-96768233D01*
X131901619Y-96765739D01*
X131890983Y-96761583D01*
X131881293Y-96755765D01*
X131872546Y-96748284D01*
X131869841Y-96745421D01*
X131862536Y-96735330D01*
X131857604Y-96725204D01*
X131853721Y-96713517D01*
X131850887Y-96700268D01*
X131849376Y-96688546D01*
X131848536Y-96675824D01*
X131848347Y-96665627D01*
X131848347Y-96479709D01*
X131504453Y-96479709D01*
X131504453Y-96604371D01*
X131504122Y-96617657D01*
X131503127Y-96629978D01*
X131501469Y-96641333D01*
X131498463Y-96654170D01*
X131494421Y-96665498D01*
X131489343Y-96675317D01*
X131483229Y-96683628D01*
X131474706Y-96691845D01*
X131465257Y-96698362D01*
X131454883Y-96703179D01*
X131443583Y-96706296D01*
X131431358Y-96707713D01*
X131427077Y-96707808D01*
X131414553Y-96706976D01*
X131402973Y-96704483D01*
X131392337Y-96700327D01*
X131382646Y-96694509D01*
X131373900Y-96687028D01*
X131371194Y-96684165D01*
X131363890Y-96674074D01*
X131358957Y-96663948D01*
X131355074Y-96652261D01*
X131352241Y-96639012D01*
X131350730Y-96627290D01*
X131349890Y-96614568D01*
X131349701Y-96604371D01*
X131349701Y-96324688D01*
G37*
G36*
X131938257Y-95053659D02*
G01*
X131949866Y-95056181D01*
X131960548Y-95060384D01*
X131970305Y-95066268D01*
X131979137Y-95073834D01*
X131981875Y-95076729D01*
X131989088Y-95086820D01*
X131993959Y-95096946D01*
X131997793Y-95108634D01*
X132000592Y-95121882D01*
X132002084Y-95133605D01*
X132002913Y-95146327D01*
X132003100Y-95156524D01*
X132003100Y-95337874D01*
X131917126Y-95337874D01*
X131926571Y-95348912D01*
X131935563Y-95360162D01*
X131944102Y-95371624D01*
X131952187Y-95383300D01*
X131959819Y-95395187D01*
X131966997Y-95407288D01*
X131973722Y-95419600D01*
X131979994Y-95432126D01*
X131985812Y-95444864D01*
X131991177Y-95457814D01*
X131994502Y-95466565D01*
X131999111Y-95479600D01*
X132003267Y-95492408D01*
X132006970Y-95504989D01*
X132010219Y-95517344D01*
X132013015Y-95529471D01*
X132015357Y-95541372D01*
X132017247Y-95553047D01*
X132018682Y-95564495D01*
X132019665Y-95575716D01*
X132020193Y-95586710D01*
X132020294Y-95593914D01*
X132020053Y-95609346D01*
X132019329Y-95624412D01*
X132018122Y-95639110D01*
X132016432Y-95653440D01*
X132014260Y-95667404D01*
X132011604Y-95681000D01*
X132008467Y-95694228D01*
X132004846Y-95707090D01*
X132000742Y-95719584D01*
X131996156Y-95731711D01*
X131991087Y-95743470D01*
X131985535Y-95754862D01*
X131979501Y-95765887D01*
X131972984Y-95776544D01*
X131965984Y-95786835D01*
X131958501Y-95796757D01*
X131950692Y-95806160D01*
X131942780Y-95814955D01*
X131934765Y-95823144D01*
X131926647Y-95830727D01*
X131918426Y-95837703D01*
X131905903Y-95847029D01*
X131893147Y-95854991D01*
X131880161Y-95861588D01*
X131866943Y-95866820D01*
X131853494Y-95870687D01*
X131839813Y-95873189D01*
X131825901Y-95874326D01*
X131821212Y-95874402D01*
X131809845Y-95874014D01*
X131798581Y-95872849D01*
X131787420Y-95870907D01*
X131776361Y-95868189D01*
X131765406Y-95864694D01*
X131754553Y-95860423D01*
X131743803Y-95855375D01*
X131733156Y-95849550D01*
X131722612Y-95842949D01*
X131712171Y-95835571D01*
X131701832Y-95827417D01*
X131691597Y-95818486D01*
X131681464Y-95808778D01*
X131671434Y-95798294D01*
X131661507Y-95787033D01*
X131651683Y-95774995D01*
X131642183Y-95762274D01*
X131633296Y-95748960D01*
X131625022Y-95735054D01*
X131617361Y-95720557D01*
X131610312Y-95705467D01*
X131603877Y-95689786D01*
X131598054Y-95673513D01*
X131592845Y-95656647D01*
X131588248Y-95639190D01*
X131584264Y-95621141D01*
X131580893Y-95602501D01*
X131578135Y-95583268D01*
X131575990Y-95563443D01*
X131574458Y-95543026D01*
X131573539Y-95522018D01*
X131573358Y-95509284D01*
X131727984Y-95509284D01*
X131728133Y-95521001D01*
X131728580Y-95532511D01*
X131729326Y-95543813D01*
X131730369Y-95554907D01*
X131731710Y-95565793D01*
X131733349Y-95576471D01*
X131736367Y-95592099D01*
X131740055Y-95607260D01*
X131744415Y-95621953D01*
X131749444Y-95636178D01*
X131755144Y-95649936D01*
X131761515Y-95663227D01*
X131766135Y-95671827D01*
X131772256Y-95681713D01*
X131779930Y-95692217D01*
X131787631Y-95700662D01*
X131796906Y-95708076D01*
X131807775Y-95712978D01*
X131815570Y-95714008D01*
X131826164Y-95712014D01*
X131835447Y-95706032D01*
X131842680Y-95697238D01*
X131844855Y-95693589D01*
X131849703Y-95683745D01*
X131853905Y-95673019D01*
X131857461Y-95661412D01*
X131860370Y-95648923D01*
X131862633Y-95635553D01*
X131864249Y-95621301D01*
X131865037Y-95610033D01*
X131865461Y-95598270D01*
X131865542Y-95590152D01*
X131865261Y-95575951D01*
X131864681Y-95564997D01*
X131863784Y-95553783D01*
X131862571Y-95542309D01*
X131861042Y-95530575D01*
X131859196Y-95518582D01*
X131857034Y-95506329D01*
X131854555Y-95493817D01*
X131851760Y-95481044D01*
X131848649Y-95468012D01*
X131847541Y-95463610D01*
X131844002Y-95450498D01*
X131840237Y-95437661D01*
X131836245Y-95425097D01*
X131832026Y-95412807D01*
X131827580Y-95400791D01*
X131822908Y-95389049D01*
X131818009Y-95377581D01*
X131812883Y-95366386D01*
X131807531Y-95355466D01*
X131801952Y-95344819D01*
X131798106Y-95337874D01*
X131743030Y-95337874D01*
X131741208Y-95349437D01*
X131739503Y-95360887D01*
X131737917Y-95372223D01*
X131736447Y-95383447D01*
X131735096Y-95394556D01*
X131733861Y-95405553D01*
X131732745Y-95416436D01*
X131731746Y-95427206D01*
X131730467Y-95443148D01*
X131729454Y-95458835D01*
X131728704Y-95474267D01*
X131728219Y-95489444D01*
X131727999Y-95504366D01*
X131727984Y-95509284D01*
X131573358Y-95509284D01*
X131573232Y-95500418D01*
X131573364Y-95487028D01*
X131573761Y-95473256D01*
X131574422Y-95459101D01*
X131575348Y-95444564D01*
X131576538Y-95429644D01*
X131577993Y-95414342D01*
X131579712Y-95398657D01*
X131581005Y-95387988D01*
X131582415Y-95377149D01*
X131583943Y-95366140D01*
X131585589Y-95354961D01*
X131587352Y-95343612D01*
X131588277Y-95337874D01*
X131556037Y-95337874D01*
X131545049Y-95338922D01*
X131533233Y-95342796D01*
X131523964Y-95348387D01*
X131515488Y-95356076D01*
X131507806Y-95365861D01*
X131506603Y-95367696D01*
X131501030Y-95378334D01*
X131497252Y-95388743D01*
X131494078Y-95400839D01*
X131491509Y-95414623D01*
X131489979Y-95426068D01*
X131488789Y-95438463D01*
X131487939Y-95451807D01*
X131487429Y-95466100D01*
X131487259Y-95481342D01*
X131487481Y-95494597D01*
X131488146Y-95508570D01*
X131489256Y-95523261D01*
X131490810Y-95538669D01*
X131492093Y-95549340D01*
X131493572Y-95560330D01*
X131495249Y-95571640D01*
X131497124Y-95583268D01*
X131499195Y-95595215D01*
X131501464Y-95607481D01*
X131503931Y-95620067D01*
X131506594Y-95632971D01*
X131509455Y-95646195D01*
X131512513Y-95659737D01*
X131515145Y-95672053D01*
X131517330Y-95683476D01*
X131519364Y-95696007D01*
X131520756Y-95707253D01*
X131521568Y-95718751D01*
X131521648Y-95723143D01*
X131520873Y-95734490D01*
X131518550Y-95745156D01*
X131513881Y-95756742D01*
X131508202Y-95765935D01*
X131500973Y-95774449D01*
X131499617Y-95775801D01*
X131490931Y-95783106D01*
X131481394Y-95788899D01*
X131471007Y-95793181D01*
X131459771Y-95795951D01*
X131447684Y-95797211D01*
X131443466Y-95797295D01*
X131431901Y-95796560D01*
X131420391Y-95794055D01*
X131410151Y-95789772D01*
X131401028Y-95783870D01*
X131392597Y-95775766D01*
X131387314Y-95768547D01*
X131382202Y-95758523D01*
X131377844Y-95747524D01*
X131373842Y-95735865D01*
X131370320Y-95724577D01*
X131366627Y-95711859D01*
X131363762Y-95701059D01*
X131361010Y-95690222D01*
X131358372Y-95679348D01*
X131355847Y-95668435D01*
X131353435Y-95657485D01*
X131351137Y-95646497D01*
X131348952Y-95635471D01*
X131346880Y-95624407D01*
X131344922Y-95613306D01*
X131343077Y-95602167D01*
X131341910Y-95594720D01*
X131340229Y-95583636D01*
X131338714Y-95572750D01*
X131337364Y-95562062D01*
X131335821Y-95548121D01*
X131334573Y-95534532D01*
X131333617Y-95521296D01*
X131332956Y-95508413D01*
X131332589Y-95495882D01*
X131332506Y-95486716D01*
X131332734Y-95468933D01*
X131333417Y-95451654D01*
X131334556Y-95434880D01*
X131336150Y-95418608D01*
X131338200Y-95402841D01*
X131340705Y-95387577D01*
X131343665Y-95372817D01*
X131347082Y-95358561D01*
X131350953Y-95344809D01*
X131355280Y-95331560D01*
X131360063Y-95318815D01*
X131365301Y-95306574D01*
X131370994Y-95294837D01*
X131377143Y-95283603D01*
X131383747Y-95272873D01*
X131390807Y-95262647D01*
X131398262Y-95252985D01*
X131406050Y-95243945D01*
X131414172Y-95235530D01*
X131422627Y-95227737D01*
X131431417Y-95220568D01*
X131440540Y-95214023D01*
X131449997Y-95208100D01*
X131459787Y-95202802D01*
X131469912Y-95198126D01*
X131480370Y-95194074D01*
X131491162Y-95190645D01*
X131502287Y-95187840D01*
X131513746Y-95185658D01*
X131525539Y-95184100D01*
X131537666Y-95183165D01*
X131550127Y-95182853D01*
X131848347Y-95182853D01*
X131848347Y-95156524D01*
X131848683Y-95143052D01*
X131849691Y-95130580D01*
X131851370Y-95119108D01*
X131854413Y-95106171D01*
X131858506Y-95094796D01*
X131863649Y-95084982D01*
X131869841Y-95076729D01*
X131878272Y-95068603D01*
X131887648Y-95062158D01*
X131897969Y-95057395D01*
X131909234Y-95054313D01*
X131921444Y-95052911D01*
X131925723Y-95052818D01*
X131938257Y-95053659D01*
G37*
G36*
X131349701Y-94709730D02*
G01*
X131401285Y-94709730D01*
X131392956Y-94699046D01*
X131385165Y-94688086D01*
X131377911Y-94676848D01*
X131371194Y-94665333D01*
X131365015Y-94653541D01*
X131359373Y-94641472D01*
X131354268Y-94629126D01*
X131349701Y-94616503D01*
X131345671Y-94603607D01*
X131342178Y-94590442D01*
X131339223Y-94577009D01*
X131336805Y-94563307D01*
X131334924Y-94549336D01*
X131333581Y-94535097D01*
X131332926Y-94524241D01*
X131332574Y-94513234D01*
X131332506Y-94505812D01*
X131332818Y-94488842D01*
X131333753Y-94472321D01*
X131335312Y-94456249D01*
X131337493Y-94440626D01*
X131340299Y-94425453D01*
X131343727Y-94410729D01*
X131347779Y-94396454D01*
X131352455Y-94382628D01*
X131357754Y-94369251D01*
X131363676Y-94356324D01*
X131370222Y-94343845D01*
X131377391Y-94331816D01*
X131385183Y-94320236D01*
X131393599Y-94309105D01*
X131402638Y-94298424D01*
X131412300Y-94288191D01*
X131420414Y-94280513D01*
X131428836Y-94273331D01*
X131437567Y-94266643D01*
X131446606Y-94260452D01*
X131455954Y-94254755D01*
X131465610Y-94249554D01*
X131475575Y-94244848D01*
X131485848Y-94240637D01*
X131496430Y-94236922D01*
X131507320Y-94233702D01*
X131518519Y-94230978D01*
X131530027Y-94228749D01*
X131541843Y-94227015D01*
X131553968Y-94225777D01*
X131566401Y-94225034D01*
X131579143Y-94224786D01*
X131848347Y-94224786D01*
X131848683Y-94212897D01*
X131849691Y-94201815D01*
X131851894Y-94189095D01*
X131855148Y-94177635D01*
X131859451Y-94167434D01*
X131866000Y-94156855D01*
X131869841Y-94152246D01*
X131878272Y-94144211D01*
X131887648Y-94137839D01*
X131897969Y-94133129D01*
X131909234Y-94130081D01*
X131921444Y-94128696D01*
X131925723Y-94128603D01*
X131938257Y-94129444D01*
X131949866Y-94131966D01*
X131960548Y-94136169D01*
X131970305Y-94142053D01*
X131979137Y-94149619D01*
X131981875Y-94152515D01*
X131989088Y-94162605D01*
X131993959Y-94172731D01*
X131997793Y-94184419D01*
X132000592Y-94197667D01*
X132002084Y-94209390D01*
X132002913Y-94222112D01*
X132003100Y-94232309D01*
X132003100Y-94372016D01*
X132002768Y-94385487D01*
X132001773Y-94397959D01*
X132000115Y-94409432D01*
X131997109Y-94422368D01*
X131993068Y-94433743D01*
X131987989Y-94443557D01*
X131981875Y-94451810D01*
X131973352Y-94459845D01*
X131963903Y-94466217D01*
X131953529Y-94470927D01*
X131942230Y-94473975D01*
X131930004Y-94475360D01*
X131925723Y-94475452D01*
X131913199Y-94474631D01*
X131901619Y-94472165D01*
X131890983Y-94468057D01*
X131881293Y-94462305D01*
X131872546Y-94454909D01*
X131869841Y-94452078D01*
X131862536Y-94442406D01*
X131856743Y-94430921D01*
X131853070Y-94419964D01*
X131850446Y-94407748D01*
X131849103Y-94397069D01*
X131848431Y-94385583D01*
X131848347Y-94379538D01*
X131582098Y-94379538D01*
X131570995Y-94379962D01*
X131558190Y-94381685D01*
X131546578Y-94384732D01*
X131536161Y-94389105D01*
X131526937Y-94394802D01*
X131517445Y-94403388D01*
X131514663Y-94406674D01*
X131508240Y-94416098D01*
X131502673Y-94426639D01*
X131497963Y-94438297D01*
X131494110Y-94451071D01*
X131491112Y-94464962D01*
X131489426Y-94476113D01*
X131488222Y-94487892D01*
X131487499Y-94500299D01*
X131487259Y-94513334D01*
X131487569Y-94526499D01*
X131488501Y-94539261D01*
X131490054Y-94551620D01*
X131492229Y-94563575D01*
X131495025Y-94575128D01*
X131498442Y-94586278D01*
X131502480Y-94597024D01*
X131507140Y-94607368D01*
X131512732Y-94617783D01*
X131519700Y-94628878D01*
X131528046Y-94640653D01*
X131535208Y-94649931D01*
X131543146Y-94659591D01*
X131551857Y-94669634D01*
X131561344Y-94680059D01*
X131571604Y-94690867D01*
X131582640Y-94702057D01*
X131590427Y-94709730D01*
X131848347Y-94709730D01*
X131848472Y-94698918D01*
X131849029Y-94685654D01*
X131850030Y-94673709D01*
X131851907Y-94660631D01*
X131854480Y-94649613D01*
X131858484Y-94639110D01*
X131862587Y-94632623D01*
X131869803Y-94623996D01*
X131879095Y-94614830D01*
X131888688Y-94607461D01*
X131898584Y-94601890D01*
X131908781Y-94598116D01*
X131921415Y-94595959D01*
X131925723Y-94595815D01*
X131938257Y-94596656D01*
X131949866Y-94599178D01*
X131960548Y-94603381D01*
X131970305Y-94609265D01*
X131979137Y-94616831D01*
X131981875Y-94619727D01*
X131989088Y-94629726D01*
X131993959Y-94639791D01*
X131997793Y-94651429D01*
X132000592Y-94664642D01*
X132002084Y-94676346D01*
X132002913Y-94689057D01*
X132003100Y-94699252D01*
X132003100Y-94875229D01*
X132002768Y-94888700D01*
X132001773Y-94901172D01*
X132000115Y-94912645D01*
X131997109Y-94925581D01*
X131993068Y-94936956D01*
X131987989Y-94946770D01*
X131981875Y-94955023D01*
X131973352Y-94963149D01*
X131963903Y-94969594D01*
X131953529Y-94974358D01*
X131942230Y-94977440D01*
X131930004Y-94978841D01*
X131925723Y-94978935D01*
X131912934Y-94977660D01*
X131902594Y-94974649D01*
X131892543Y-94969867D01*
X131882780Y-94963314D01*
X131873306Y-94954991D01*
X131865934Y-94947057D01*
X131862318Y-94942665D01*
X131856874Y-94932692D01*
X131853272Y-94920992D01*
X131851021Y-94909020D01*
X131849712Y-94897988D01*
X131848838Y-94885663D01*
X131848402Y-94872045D01*
X131848347Y-94864751D01*
X131504453Y-94864751D01*
X131504122Y-94876640D01*
X131503127Y-94887722D01*
X131500950Y-94900442D01*
X131497738Y-94911902D01*
X131493489Y-94922103D01*
X131487022Y-94932682D01*
X131483229Y-94937291D01*
X131474706Y-94945235D01*
X131465257Y-94951535D01*
X131454883Y-94956191D01*
X131443583Y-94959204D01*
X131431358Y-94960574D01*
X131427077Y-94960665D01*
X131414553Y-94959834D01*
X131402973Y-94957341D01*
X131392337Y-94953185D01*
X131382646Y-94947366D01*
X131373900Y-94939886D01*
X131371194Y-94937023D01*
X131363890Y-94926932D01*
X131358957Y-94916806D01*
X131355074Y-94905118D01*
X131352241Y-94891870D01*
X131350730Y-94880147D01*
X131349890Y-94867425D01*
X131349701Y-94857228D01*
X131349701Y-94709730D01*
G37*
G36*
X131702013Y-93226853D02*
G01*
X131717596Y-93228157D01*
X131733088Y-93230329D01*
X131748491Y-93233371D01*
X131763804Y-93237281D01*
X131779028Y-93242060D01*
X131794162Y-93247709D01*
X131804201Y-93251957D01*
X131814201Y-93256592D01*
X131824160Y-93261612D01*
X131834080Y-93267019D01*
X131843960Y-93272812D01*
X131848885Y-93275854D01*
X131858566Y-93282223D01*
X131867998Y-93288972D01*
X131877180Y-93296101D01*
X131886112Y-93303610D01*
X131894794Y-93311499D01*
X131903227Y-93319768D01*
X131911409Y-93328417D01*
X131919343Y-93337446D01*
X131927026Y-93346854D01*
X131934459Y-93356643D01*
X131941643Y-93366811D01*
X131948577Y-93377359D01*
X131955261Y-93388288D01*
X131961695Y-93399596D01*
X131967880Y-93411284D01*
X131973815Y-93423352D01*
X131979443Y-93435610D01*
X131984708Y-93447935D01*
X131989611Y-93460327D01*
X131994150Y-93472787D01*
X131998325Y-93485313D01*
X132002138Y-93497907D01*
X132005588Y-93510568D01*
X132008674Y-93523296D01*
X132011398Y-93536091D01*
X132013758Y-93548954D01*
X132015755Y-93561883D01*
X132017389Y-93574880D01*
X132018660Y-93587944D01*
X132019568Y-93601075D01*
X132020113Y-93614274D01*
X132020294Y-93627539D01*
X132020116Y-93640735D01*
X132019581Y-93653860D01*
X132018688Y-93666913D01*
X132017440Y-93679895D01*
X132015834Y-93692806D01*
X132013871Y-93705646D01*
X132011552Y-93718414D01*
X132008876Y-93731110D01*
X132005843Y-93743735D01*
X132002453Y-93756289D01*
X131998706Y-93768772D01*
X131994603Y-93781183D01*
X131990143Y-93793523D01*
X131985325Y-93805791D01*
X131980152Y-93817988D01*
X131974621Y-93830114D01*
X131968750Y-93842025D01*
X131962623Y-93853576D01*
X131956240Y-93864769D01*
X131949601Y-93875603D01*
X131942706Y-93886078D01*
X131935555Y-93896193D01*
X131928148Y-93905951D01*
X131920484Y-93915349D01*
X131912565Y-93924388D01*
X131904390Y-93933068D01*
X131895958Y-93941389D01*
X131887270Y-93949352D01*
X131878327Y-93956955D01*
X131869127Y-93964200D01*
X131859671Y-93971086D01*
X131849959Y-93977612D01*
X131840058Y-93983729D01*
X131830103Y-93989450D01*
X131820093Y-93994778D01*
X131810029Y-93999710D01*
X131799909Y-94004248D01*
X131789736Y-94008391D01*
X131779508Y-94012140D01*
X131769225Y-94015494D01*
X131758887Y-94018454D01*
X131743279Y-94022153D01*
X131727548Y-94024965D01*
X131711694Y-94026889D01*
X131695717Y-94027924D01*
X131684998Y-94028122D01*
X131674063Y-94027921D01*
X131663156Y-94027320D01*
X131652276Y-94026318D01*
X131641423Y-94024914D01*
X131630598Y-94023110D01*
X131619800Y-94020905D01*
X131609029Y-94018300D01*
X131598285Y-94015293D01*
X131587569Y-94011885D01*
X131576880Y-94008077D01*
X131566218Y-94003867D01*
X131555584Y-93999257D01*
X131544977Y-93994245D01*
X131534397Y-93988833D01*
X131523845Y-93983020D01*
X131513319Y-93976806D01*
X131502947Y-93970215D01*
X131492854Y-93963272D01*
X131483041Y-93955976D01*
X131473506Y-93948328D01*
X131464251Y-93940326D01*
X131455275Y-93931972D01*
X131446578Y-93923266D01*
X131438160Y-93914207D01*
X131430021Y-93904795D01*
X131422161Y-93895031D01*
X131414581Y-93884914D01*
X131407280Y-93874444D01*
X131400258Y-93863622D01*
X131393515Y-93852447D01*
X131387051Y-93840919D01*
X131380866Y-93829039D01*
X131375010Y-93816949D01*
X131369532Y-93804792D01*
X131364432Y-93792568D01*
X131359709Y-93780276D01*
X131355364Y-93767918D01*
X131351397Y-93755492D01*
X131347808Y-93742999D01*
X131344596Y-93730438D01*
X131341763Y-93717811D01*
X131339307Y-93705117D01*
X131337229Y-93692355D01*
X131335529Y-93679526D01*
X131334206Y-93666630D01*
X131333262Y-93653667D01*
X131332695Y-93640636D01*
X131332510Y-93627808D01*
X131487259Y-93627808D01*
X131487495Y-93640803D01*
X131488203Y-93653528D01*
X131489384Y-93665982D01*
X131491037Y-93678166D01*
X131493162Y-93690079D01*
X131495759Y-93701720D01*
X131498829Y-93713092D01*
X131502371Y-93724192D01*
X131506385Y-93735022D01*
X131510872Y-93745580D01*
X131515831Y-93755868D01*
X131521262Y-93765886D01*
X131527165Y-93775632D01*
X131533541Y-93785108D01*
X131540389Y-93794313D01*
X131547709Y-93803247D01*
X131555306Y-93811739D01*
X131563052Y-93819682D01*
X131570947Y-93827078D01*
X131583070Y-93837144D01*
X131595527Y-93845978D01*
X131608320Y-93853579D01*
X131621448Y-93859948D01*
X131634912Y-93865083D01*
X131648711Y-93868987D01*
X131662845Y-93871657D01*
X131677314Y-93873095D01*
X131687147Y-93873369D01*
X131699313Y-93872746D01*
X131711327Y-93870876D01*
X131723190Y-93867759D01*
X131734903Y-93863395D01*
X131746464Y-93857785D01*
X131757874Y-93850927D01*
X131769132Y-93842823D01*
X131780240Y-93833472D01*
X131791197Y-93822875D01*
X131802002Y-93811030D01*
X131809122Y-93802441D01*
X131815954Y-93793416D01*
X131822345Y-93784138D01*
X131828296Y-93774609D01*
X131833806Y-93764828D01*
X131838875Y-93754795D01*
X131843503Y-93744510D01*
X131847690Y-93733973D01*
X131851437Y-93723184D01*
X131854743Y-93712144D01*
X131857608Y-93700852D01*
X131860032Y-93689307D01*
X131862016Y-93677511D01*
X131863558Y-93665463D01*
X131864660Y-93653163D01*
X131865322Y-93640611D01*
X131865542Y-93627808D01*
X131865322Y-93614907D01*
X131864660Y-93602267D01*
X131863558Y-93589888D01*
X131862016Y-93577768D01*
X131860032Y-93565909D01*
X131857608Y-93554310D01*
X131854743Y-93542972D01*
X131851437Y-93531893D01*
X131847690Y-93521075D01*
X131843503Y-93510518D01*
X131838875Y-93500220D01*
X131833806Y-93490183D01*
X131828296Y-93480406D01*
X131822345Y-93470889D01*
X131815954Y-93461633D01*
X131809122Y-93452637D01*
X131802000Y-93444015D01*
X131794807Y-93435950D01*
X131783883Y-93424895D01*
X131772799Y-93415091D01*
X131761555Y-93406540D01*
X131750149Y-93399239D01*
X131738584Y-93393190D01*
X131726857Y-93388393D01*
X131714970Y-93384847D01*
X131702923Y-93382552D01*
X131690715Y-93381509D01*
X131686610Y-93381440D01*
X131674113Y-93381912D01*
X131661809Y-93383329D01*
X131649700Y-93385690D01*
X131637784Y-93388996D01*
X131626061Y-93393247D01*
X131614532Y-93398441D01*
X131603197Y-93404581D01*
X131592056Y-93411665D01*
X131581108Y-93419693D01*
X131570353Y-93428667D01*
X131563291Y-93435173D01*
X131554084Y-93444521D01*
X131545471Y-93454228D01*
X131537452Y-93464293D01*
X131530027Y-93474718D01*
X131523196Y-93485501D01*
X131516959Y-93496643D01*
X131511316Y-93508145D01*
X131506267Y-93520005D01*
X131501812Y-93532224D01*
X131497951Y-93544802D01*
X131494684Y-93557739D01*
X131492011Y-93571035D01*
X131489932Y-93584690D01*
X131488447Y-93598703D01*
X131487556Y-93613076D01*
X131487259Y-93627808D01*
X131332510Y-93627808D01*
X131332506Y-93627539D01*
X131332699Y-93614371D01*
X131333279Y-93601264D01*
X131334244Y-93588218D01*
X131335596Y-93575233D01*
X131337334Y-93562308D01*
X131339458Y-93549445D01*
X131341968Y-93536642D01*
X131344865Y-93523901D01*
X131348148Y-93511220D01*
X131351817Y-93498600D01*
X131355872Y-93486041D01*
X131360313Y-93473542D01*
X131365141Y-93461105D01*
X131370355Y-93448728D01*
X131375955Y-93436413D01*
X131381941Y-93424158D01*
X131388254Y-93412089D01*
X131394833Y-93400398D01*
X131401679Y-93389084D01*
X131408791Y-93378149D01*
X131416170Y-93367591D01*
X131423815Y-93357411D01*
X131431727Y-93347609D01*
X131439906Y-93338184D01*
X131448351Y-93329138D01*
X131457063Y-93320469D01*
X131466041Y-93312178D01*
X131475286Y-93304265D01*
X131484798Y-93296730D01*
X131494576Y-93289572D01*
X131504620Y-93282793D01*
X131514931Y-93276391D01*
X131525361Y-93270340D01*
X131535829Y-93264679D01*
X131546334Y-93259408D01*
X131556877Y-93254528D01*
X131567458Y-93250039D01*
X131578076Y-93245939D01*
X131588733Y-93242230D01*
X131599427Y-93238912D01*
X131610159Y-93235984D01*
X131620929Y-93233446D01*
X131631736Y-93231299D01*
X131642582Y-93229542D01*
X131653465Y-93228176D01*
X131664386Y-93227200D01*
X131675344Y-93226614D01*
X131686341Y-93226419D01*
X131702013Y-93226853D01*
G37*
G36*
X136047115Y-101679252D02*
G01*
X135707788Y-101679252D01*
X135697423Y-101685095D01*
X135687285Y-101689730D01*
X135675744Y-101693609D01*
X135664512Y-101695842D01*
X135655129Y-101696446D01*
X135642350Y-101695625D01*
X135630609Y-101693159D01*
X135619908Y-101689051D01*
X135610245Y-101683299D01*
X135601621Y-101675903D01*
X135598978Y-101673072D01*
X135591856Y-101663145D01*
X135587047Y-101653098D01*
X135583261Y-101641437D01*
X135580498Y-101628162D01*
X135579025Y-101616381D01*
X135578206Y-101603567D01*
X135578022Y-101593278D01*
X135578022Y-101524500D01*
X136283810Y-101524500D01*
X136283810Y-101696446D01*
X136257973Y-101716306D01*
X136232782Y-101735717D01*
X136208240Y-101754681D01*
X136184345Y-101773197D01*
X136161097Y-101791266D01*
X136138497Y-101808887D01*
X136116545Y-101826060D01*
X136095240Y-101842786D01*
X136074582Y-101859064D01*
X136054572Y-101874895D01*
X136035210Y-101890278D01*
X136016495Y-101905213D01*
X135998428Y-101919701D01*
X135981008Y-101933741D01*
X135964236Y-101947334D01*
X135948111Y-101960479D01*
X135932634Y-101973176D01*
X135917804Y-101985426D01*
X135903622Y-101997229D01*
X135890087Y-102008583D01*
X135877200Y-102019490D01*
X135864960Y-102029949D01*
X135853368Y-102039961D01*
X135842424Y-102049525D01*
X135832127Y-102058642D01*
X135822477Y-102067311D01*
X135813475Y-102075532D01*
X135805121Y-102083306D01*
X135790355Y-102097511D01*
X135778179Y-102109925D01*
X135770353Y-102118698D01*
X135763296Y-102127386D01*
X135755085Y-102138838D01*
X135748242Y-102150139D01*
X135742768Y-102161289D01*
X135738663Y-102172287D01*
X135735926Y-102183135D01*
X135734557Y-102193831D01*
X135734386Y-102199123D01*
X135735158Y-102212094D01*
X135737476Y-102224680D01*
X135741338Y-102236879D01*
X135746745Y-102248692D01*
X135753697Y-102260119D01*
X135762193Y-102271159D01*
X135769579Y-102279186D01*
X135777835Y-102286996D01*
X135783821Y-102292081D01*
X135793380Y-102299332D01*
X135803521Y-102305869D01*
X135814242Y-102311692D01*
X135825544Y-102316803D01*
X135837427Y-102321201D01*
X135849891Y-102324885D01*
X135862936Y-102327856D01*
X135876561Y-102330115D01*
X135890768Y-102331660D01*
X135905555Y-102332492D01*
X135915736Y-102332650D01*
X135931057Y-102332213D01*
X135945886Y-102330903D01*
X135960224Y-102328719D01*
X135974071Y-102325661D01*
X135987426Y-102321729D01*
X136000291Y-102316924D01*
X136012664Y-102311245D01*
X136024547Y-102304692D01*
X136035938Y-102297266D01*
X136046838Y-102288966D01*
X136053831Y-102282947D01*
X136062539Y-102274012D01*
X136070696Y-102263831D01*
X136076825Y-102254788D01*
X136082602Y-102244948D01*
X136088025Y-102234311D01*
X136093097Y-102222876D01*
X136097815Y-102210643D01*
X136100042Y-102204227D01*
X136104255Y-102192597D01*
X136109034Y-102182289D01*
X136115326Y-102171934D01*
X136122390Y-102163379D01*
X136129058Y-102157479D01*
X136138864Y-102151367D01*
X136149745Y-102147001D01*
X136161701Y-102144382D01*
X136173044Y-102143522D01*
X136174732Y-102143509D01*
X136186318Y-102144311D01*
X136197300Y-102146720D01*
X136207677Y-102150734D01*
X136217450Y-102156354D01*
X136226618Y-102163580D01*
X136229540Y-102166345D01*
X136237392Y-102175284D01*
X136243619Y-102184770D01*
X136248222Y-102194804D01*
X136251201Y-102205386D01*
X136252555Y-102216516D01*
X136252645Y-102220347D01*
X136251990Y-102232194D01*
X136250025Y-102244762D01*
X136246751Y-102258053D01*
X136243436Y-102268495D01*
X136239384Y-102279343D01*
X136234595Y-102290597D01*
X136229069Y-102302257D01*
X136222807Y-102314324D01*
X136215808Y-102326796D01*
X136210733Y-102335337D01*
X136202537Y-102348040D01*
X136193665Y-102360257D01*
X136184118Y-102371987D01*
X136173896Y-102383231D01*
X136162999Y-102393988D01*
X136151426Y-102404259D01*
X136139177Y-102414044D01*
X136126254Y-102423342D01*
X136117263Y-102429271D01*
X136107972Y-102434983D01*
X136098381Y-102440479D01*
X136088489Y-102445759D01*
X136078360Y-102450802D01*
X136068121Y-102455519D01*
X136057773Y-102459911D01*
X136047316Y-102463978D01*
X136036750Y-102467719D01*
X136026075Y-102471136D01*
X136015290Y-102474226D01*
X136004397Y-102476992D01*
X135993394Y-102479432D01*
X135982282Y-102481546D01*
X135971061Y-102483336D01*
X135959731Y-102484800D01*
X135948291Y-102485938D01*
X135936743Y-102486752D01*
X135925085Y-102487240D01*
X135913318Y-102487403D01*
X135895221Y-102487060D01*
X135877535Y-102486034D01*
X135860261Y-102484323D01*
X135843398Y-102481928D01*
X135826946Y-102478849D01*
X135810906Y-102475086D01*
X135795277Y-102470638D01*
X135780059Y-102465506D01*
X135765253Y-102459690D01*
X135750859Y-102453189D01*
X135736875Y-102446005D01*
X135723304Y-102438136D01*
X135710143Y-102429582D01*
X135697394Y-102420345D01*
X135685056Y-102410423D01*
X135673130Y-102399817D01*
X135661776Y-102388758D01*
X135651154Y-102377408D01*
X135641265Y-102365770D01*
X135632108Y-102353841D01*
X135623684Y-102341623D01*
X135615992Y-102329116D01*
X135609033Y-102316318D01*
X135602806Y-102303231D01*
X135597312Y-102289854D01*
X135592551Y-102276188D01*
X135588522Y-102262232D01*
X135585225Y-102247987D01*
X135582662Y-102233451D01*
X135580830Y-102218626D01*
X135579731Y-102203512D01*
X135579365Y-102188107D01*
X135579601Y-102176301D01*
X135580310Y-102164661D01*
X135581490Y-102153186D01*
X135583143Y-102141876D01*
X135585268Y-102130731D01*
X135587866Y-102119751D01*
X135590936Y-102108937D01*
X135594478Y-102098289D01*
X135598492Y-102087805D01*
X135602978Y-102077487D01*
X135606232Y-102070700D01*
X135611928Y-102060274D01*
X135618942Y-102049249D01*
X135627274Y-102037625D01*
X135636923Y-102025400D01*
X135644088Y-102016917D01*
X135651838Y-102008168D01*
X135660174Y-101999151D01*
X135669096Y-101989869D01*
X135678603Y-101980320D01*
X135688696Y-101970504D01*
X135699374Y-101960421D01*
X135710638Y-101950072D01*
X135722488Y-101939457D01*
X135734923Y-101928575D01*
X135745557Y-101919446D01*
X135757374Y-101909458D01*
X135770375Y-101898608D01*
X135784560Y-101886898D01*
X135799928Y-101874327D01*
X135816481Y-101860896D01*
X135825201Y-101853858D01*
X135834217Y-101846604D01*
X135843529Y-101839135D01*
X135853137Y-101831452D01*
X135863041Y-101823553D01*
X135873241Y-101815439D01*
X135883737Y-101807110D01*
X135894528Y-101798565D01*
X135905616Y-101789806D01*
X135917000Y-101780831D01*
X135928680Y-101771641D01*
X135940655Y-101762236D01*
X135952927Y-101752616D01*
X135965494Y-101742781D01*
X135978358Y-101732731D01*
X135991517Y-101722465D01*
X136004973Y-101711985D01*
X136018724Y-101701289D01*
X136032771Y-101690378D01*
X136047115Y-101679252D01*
G37*
G36*
X134988621Y-101507458D02*
G01*
X135000001Y-101507918D01*
X135011155Y-101508684D01*
X135022082Y-101509756D01*
X135032783Y-101511135D01*
X135048409Y-101513779D01*
X135063524Y-101517111D01*
X135078130Y-101521133D01*
X135092225Y-101525845D01*
X135105811Y-101531246D01*
X135118886Y-101537337D01*
X135131452Y-101544117D01*
X135135527Y-101546530D01*
X135147558Y-101554519D01*
X135159471Y-101563673D01*
X135171266Y-101573995D01*
X135179063Y-101581524D01*
X135186809Y-101589571D01*
X135194501Y-101598137D01*
X135202142Y-101607221D01*
X135209729Y-101616824D01*
X135217265Y-101626945D01*
X135224747Y-101637585D01*
X135232178Y-101648743D01*
X135239556Y-101660420D01*
X135246881Y-101672615D01*
X135254154Y-101685328D01*
X135257771Y-101691879D01*
X135264765Y-101705160D01*
X135271309Y-101718540D01*
X135277401Y-101732019D01*
X135283042Y-101745596D01*
X135288232Y-101759272D01*
X135292970Y-101773046D01*
X135297257Y-101786919D01*
X135301093Y-101800891D01*
X135304478Y-101814961D01*
X135307411Y-101829130D01*
X135309893Y-101843398D01*
X135311924Y-101857764D01*
X135313503Y-101872229D01*
X135314631Y-101886793D01*
X135315308Y-101901455D01*
X135315534Y-101916216D01*
X135315534Y-102078491D01*
X135315195Y-102096414D01*
X135314178Y-102114249D01*
X135312483Y-102131996D01*
X135310110Y-102149654D01*
X135307059Y-102167225D01*
X135303331Y-102184707D01*
X135298924Y-102202101D01*
X135293839Y-102219407D01*
X135288076Y-102236625D01*
X135281636Y-102253754D01*
X135274517Y-102270796D01*
X135266721Y-102287749D01*
X135258246Y-102304614D01*
X135249093Y-102321391D01*
X135239263Y-102338080D01*
X135228755Y-102354681D01*
X135217580Y-102370753D01*
X135205817Y-102385788D01*
X135193467Y-102399786D01*
X135180529Y-102412747D01*
X135167003Y-102424671D01*
X135152890Y-102435558D01*
X135138189Y-102445409D01*
X135122900Y-102454222D01*
X135107023Y-102461999D01*
X135090559Y-102468739D01*
X135073507Y-102474441D01*
X135055867Y-102479107D01*
X135037640Y-102482737D01*
X135018825Y-102485329D01*
X134999422Y-102486884D01*
X134979431Y-102487403D01*
X134967923Y-102487250D01*
X134956637Y-102486794D01*
X134945573Y-102486033D01*
X134934732Y-102484968D01*
X134918887Y-102482799D01*
X134903543Y-102479946D01*
X134888700Y-102476408D01*
X134874357Y-102472185D01*
X134860515Y-102467277D01*
X134847174Y-102461685D01*
X134834333Y-102455408D01*
X134821992Y-102448446D01*
X134809906Y-102440553D01*
X134797929Y-102431485D01*
X134786060Y-102421241D01*
X134778208Y-102413758D01*
X134770404Y-102405753D01*
X134762648Y-102397225D01*
X134754941Y-102388174D01*
X134747282Y-102378600D01*
X134739671Y-102368504D01*
X134732108Y-102357886D01*
X134724594Y-102346744D01*
X134717128Y-102335081D01*
X134709710Y-102322894D01*
X134702341Y-102310185D01*
X134698674Y-102303634D01*
X134691582Y-102290350D01*
X134684947Y-102276961D01*
X134678770Y-102263466D01*
X134673050Y-102249867D01*
X134667788Y-102236163D01*
X134662984Y-102222354D01*
X134658637Y-102208440D01*
X134654747Y-102194421D01*
X134651315Y-102180297D01*
X134648341Y-102166068D01*
X134645825Y-102151734D01*
X134643765Y-102137296D01*
X134642164Y-102122752D01*
X134641020Y-102108103D01*
X134640334Y-102093350D01*
X134640105Y-102078491D01*
X134640105Y-102077148D01*
X134795663Y-102077148D01*
X134795938Y-102091808D01*
X134796763Y-102106235D01*
X134798138Y-102120429D01*
X134800063Y-102134391D01*
X134802537Y-102148119D01*
X134805562Y-102161614D01*
X134809136Y-102174877D01*
X134813261Y-102187906D01*
X134817935Y-102200702D01*
X134823160Y-102213265D01*
X134828934Y-102225596D01*
X134835258Y-102237693D01*
X134842132Y-102249558D01*
X134849556Y-102261189D01*
X134857530Y-102272587D01*
X134866054Y-102283753D01*
X134873846Y-102292491D01*
X134882209Y-102300370D01*
X134891143Y-102307390D01*
X134900649Y-102313550D01*
X134910726Y-102318850D01*
X134921375Y-102323291D01*
X134932595Y-102326872D01*
X134944387Y-102329594D01*
X134956750Y-102331456D01*
X134969685Y-102332459D01*
X134978625Y-102332650D01*
X134991597Y-102332178D01*
X135004115Y-102330761D01*
X135016180Y-102328400D01*
X135027792Y-102325094D01*
X135038950Y-102320844D01*
X135049654Y-102315649D01*
X135059906Y-102309509D01*
X135069704Y-102302425D01*
X135079048Y-102294397D01*
X135087939Y-102285424D01*
X135093615Y-102278917D01*
X135101748Y-102268589D01*
X135109357Y-102257957D01*
X135116441Y-102247020D01*
X135123000Y-102235779D01*
X135129035Y-102224234D01*
X135134545Y-102212384D01*
X135139530Y-102200230D01*
X135143990Y-102187771D01*
X135147926Y-102175009D01*
X135151336Y-102161942D01*
X135154222Y-102148570D01*
X135156584Y-102134894D01*
X135158420Y-102120914D01*
X135159732Y-102106630D01*
X135160519Y-102092041D01*
X135160782Y-102077148D01*
X135160782Y-101917560D01*
X135160505Y-101902836D01*
X135159673Y-101888355D01*
X135158288Y-101874114D01*
X135156349Y-101860115D01*
X135153855Y-101846357D01*
X135150807Y-101832841D01*
X135147206Y-101819566D01*
X135143050Y-101806533D01*
X135138340Y-101793741D01*
X135133075Y-101781190D01*
X135127257Y-101768881D01*
X135120885Y-101756813D01*
X135113958Y-101744986D01*
X135106477Y-101733401D01*
X135098443Y-101722057D01*
X135089854Y-101710954D01*
X135082151Y-101702216D01*
X135073853Y-101694337D01*
X135064960Y-101687318D01*
X135055473Y-101681158D01*
X135045390Y-101675857D01*
X135034712Y-101671416D01*
X135023439Y-101667835D01*
X135011571Y-101665113D01*
X134999108Y-101663251D01*
X134986049Y-101662248D01*
X134977013Y-101662057D01*
X134964186Y-101662529D01*
X134951798Y-101663946D01*
X134939848Y-101666307D01*
X134928338Y-101669613D01*
X134917268Y-101673864D01*
X134906636Y-101679059D01*
X134896444Y-101685198D01*
X134886691Y-101692282D01*
X134877377Y-101700311D01*
X134868502Y-101709284D01*
X134862830Y-101715790D01*
X134854696Y-101726118D01*
X134847088Y-101736751D01*
X134840004Y-101747687D01*
X134833444Y-101758928D01*
X134827410Y-101770474D01*
X134821900Y-101782323D01*
X134816915Y-101794477D01*
X134812455Y-101806936D01*
X134808519Y-101819699D01*
X134805108Y-101832766D01*
X134802222Y-101846137D01*
X134799861Y-101859813D01*
X134798024Y-101873793D01*
X134796713Y-101888077D01*
X134795925Y-101902666D01*
X134795663Y-101917560D01*
X134795663Y-102077148D01*
X134640105Y-102077148D01*
X134640105Y-101916216D01*
X134640446Y-101898197D01*
X134641469Y-101880274D01*
X134643175Y-101862447D01*
X134645562Y-101844717D01*
X134648632Y-101827084D01*
X134652384Y-101809547D01*
X134656818Y-101792107D01*
X134661934Y-101774763D01*
X134667732Y-101757516D01*
X134674213Y-101740365D01*
X134681376Y-101723311D01*
X134689221Y-101706354D01*
X134697748Y-101689493D01*
X134706957Y-101672728D01*
X134716848Y-101656060D01*
X134727422Y-101639489D01*
X134738629Y-101623482D01*
X134750422Y-101608508D01*
X134762801Y-101594567D01*
X134775765Y-101581658D01*
X134789315Y-101569783D01*
X134803450Y-101558939D01*
X134818171Y-101549129D01*
X134833478Y-101540351D01*
X134849370Y-101532606D01*
X134865848Y-101525893D01*
X134882912Y-101520213D01*
X134900561Y-101515566D01*
X134918796Y-101511952D01*
X134937616Y-101509370D01*
X134957022Y-101507821D01*
X134977013Y-101507305D01*
X134988621Y-101507458D01*
G37*
G36*
X134198685Y-101679252D02*
G01*
X133859358Y-101679252D01*
X133848993Y-101685095D01*
X133838855Y-101689730D01*
X133827314Y-101693609D01*
X133816082Y-101695842D01*
X133806699Y-101696446D01*
X133793920Y-101695625D01*
X133782179Y-101693159D01*
X133771478Y-101689051D01*
X133761815Y-101683299D01*
X133753192Y-101675903D01*
X133750548Y-101673072D01*
X133743426Y-101663145D01*
X133738617Y-101653098D01*
X133734831Y-101641437D01*
X133732068Y-101628162D01*
X133730595Y-101616381D01*
X133729776Y-101603567D01*
X133729592Y-101593278D01*
X133729592Y-101524500D01*
X134435380Y-101524500D01*
X134435380Y-101696446D01*
X134409543Y-101716306D01*
X134384353Y-101735717D01*
X134359810Y-101754681D01*
X134335915Y-101773197D01*
X134312667Y-101791266D01*
X134290067Y-101808887D01*
X134268115Y-101826060D01*
X134246810Y-101842786D01*
X134226152Y-101859064D01*
X134206142Y-101874895D01*
X134186780Y-101890278D01*
X134168065Y-101905213D01*
X134149998Y-101919701D01*
X134132578Y-101933741D01*
X134115806Y-101947334D01*
X134099681Y-101960479D01*
X134084204Y-101973176D01*
X134069374Y-101985426D01*
X134055192Y-101997229D01*
X134041657Y-102008583D01*
X134028770Y-102019490D01*
X134016531Y-102029949D01*
X134004938Y-102039961D01*
X133993994Y-102049525D01*
X133983697Y-102058642D01*
X133974048Y-102067311D01*
X133965046Y-102075532D01*
X133956691Y-102083306D01*
X133941925Y-102097511D01*
X133929749Y-102109925D01*
X133921923Y-102118698D01*
X133914866Y-102127386D01*
X133906655Y-102138838D01*
X133899813Y-102150139D01*
X133894338Y-102161289D01*
X133890233Y-102172287D01*
X133887496Y-102183135D01*
X133886127Y-102193831D01*
X133885956Y-102199123D01*
X133886729Y-102212094D01*
X133889046Y-102224680D01*
X133892908Y-102236879D01*
X133898315Y-102248692D01*
X133905267Y-102260119D01*
X133913763Y-102271159D01*
X133921149Y-102279186D01*
X133929405Y-102286996D01*
X133935391Y-102292081D01*
X133944950Y-102299332D01*
X133955091Y-102305869D01*
X133965812Y-102311692D01*
X133977114Y-102316803D01*
X133988997Y-102321201D01*
X134001461Y-102324885D01*
X134014506Y-102327856D01*
X134028131Y-102330115D01*
X134042338Y-102331660D01*
X134057126Y-102332492D01*
X134067307Y-102332650D01*
X134082627Y-102332213D01*
X134097456Y-102330903D01*
X134111794Y-102328719D01*
X134125641Y-102325661D01*
X134138997Y-102321729D01*
X134151861Y-102316924D01*
X134164234Y-102311245D01*
X134176117Y-102304692D01*
X134187508Y-102297266D01*
X134198408Y-102288966D01*
X134205401Y-102282947D01*
X134214109Y-102274012D01*
X134222267Y-102263831D01*
X134228396Y-102254788D01*
X134234172Y-102244948D01*
X134239596Y-102234311D01*
X134244667Y-102222876D01*
X134249385Y-102210643D01*
X134251612Y-102204227D01*
X134255825Y-102192597D01*
X134260604Y-102182289D01*
X134266896Y-102171934D01*
X134273960Y-102163379D01*
X134280628Y-102157479D01*
X134290435Y-102151367D01*
X134301316Y-102147001D01*
X134313271Y-102144382D01*
X134324614Y-102143522D01*
X134326302Y-102143509D01*
X134337888Y-102144311D01*
X134348870Y-102146720D01*
X134359247Y-102150734D01*
X134369020Y-102156354D01*
X134378188Y-102163580D01*
X134381110Y-102166345D01*
X134388962Y-102175284D01*
X134395190Y-102184770D01*
X134399793Y-102194804D01*
X134402771Y-102205386D01*
X134404125Y-102216516D01*
X134404215Y-102220347D01*
X134403560Y-102232194D01*
X134401596Y-102244762D01*
X134398321Y-102258053D01*
X134395006Y-102268495D01*
X134390954Y-102279343D01*
X134386165Y-102290597D01*
X134380640Y-102302257D01*
X134374377Y-102314324D01*
X134367378Y-102326796D01*
X134362303Y-102335337D01*
X134354107Y-102348040D01*
X134345235Y-102360257D01*
X134335688Y-102371987D01*
X134325466Y-102383231D01*
X134314569Y-102393988D01*
X134302996Y-102404259D01*
X134290748Y-102414044D01*
X134277824Y-102423342D01*
X134268833Y-102429271D01*
X134259542Y-102434983D01*
X134249951Y-102440479D01*
X134240059Y-102445759D01*
X134229930Y-102450802D01*
X134219691Y-102455519D01*
X134209343Y-102459911D01*
X134198886Y-102463978D01*
X134188320Y-102467719D01*
X134177645Y-102471136D01*
X134166860Y-102474226D01*
X134155967Y-102476992D01*
X134144964Y-102479432D01*
X134133852Y-102481546D01*
X134122631Y-102483336D01*
X134111301Y-102484800D01*
X134099861Y-102485938D01*
X134088313Y-102486752D01*
X134076655Y-102487240D01*
X134064889Y-102487403D01*
X134046791Y-102487060D01*
X134029105Y-102486034D01*
X134011831Y-102484323D01*
X133994968Y-102481928D01*
X133978516Y-102478849D01*
X133962476Y-102475086D01*
X133946847Y-102470638D01*
X133931630Y-102465506D01*
X133916824Y-102459690D01*
X133902429Y-102453189D01*
X133888446Y-102446005D01*
X133874874Y-102438136D01*
X133861713Y-102429582D01*
X133848964Y-102420345D01*
X133836626Y-102410423D01*
X133824700Y-102399817D01*
X133813346Y-102388758D01*
X133802724Y-102377408D01*
X133792835Y-102365770D01*
X133783678Y-102353841D01*
X133775254Y-102341623D01*
X133767562Y-102329116D01*
X133760603Y-102316318D01*
X133754376Y-102303231D01*
X133748882Y-102289854D01*
X133744121Y-102276188D01*
X133740092Y-102262232D01*
X133736796Y-102247987D01*
X133734232Y-102233451D01*
X133732400Y-102218626D01*
X133731302Y-102203512D01*
X133730935Y-102188107D01*
X133731171Y-102176301D01*
X133731880Y-102164661D01*
X133733060Y-102153186D01*
X133734713Y-102141876D01*
X133736839Y-102130731D01*
X133739436Y-102119751D01*
X133742506Y-102108937D01*
X133746048Y-102098289D01*
X133750062Y-102087805D01*
X133754549Y-102077487D01*
X133757802Y-102070700D01*
X133763498Y-102060274D01*
X133770512Y-102049249D01*
X133778844Y-102037625D01*
X133788493Y-102025400D01*
X133795658Y-102016917D01*
X133803408Y-102008168D01*
X133811744Y-101999151D01*
X133820666Y-101989869D01*
X133830173Y-101980320D01*
X133840266Y-101970504D01*
X133850944Y-101960421D01*
X133862209Y-101950072D01*
X133874058Y-101939457D01*
X133886494Y-101928575D01*
X133897127Y-101919446D01*
X133908944Y-101909458D01*
X133921945Y-101898608D01*
X133936130Y-101886898D01*
X133951498Y-101874327D01*
X133968051Y-101860896D01*
X133976771Y-101853858D01*
X133985787Y-101846604D01*
X133995099Y-101839135D01*
X134004707Y-101831452D01*
X134014611Y-101823553D01*
X134024811Y-101815439D01*
X134035307Y-101807110D01*
X134046099Y-101798565D01*
X134057186Y-101789806D01*
X134068570Y-101780831D01*
X134080250Y-101771641D01*
X134092225Y-101762236D01*
X134104497Y-101752616D01*
X134117065Y-101742781D01*
X134129928Y-101732731D01*
X134143087Y-101722465D01*
X134156543Y-101711985D01*
X134170294Y-101701289D01*
X134184341Y-101690378D01*
X134198685Y-101679252D01*
G37*
G36*
X133131577Y-101524831D02*
G01*
X133144049Y-101525826D01*
X133155522Y-101527484D01*
X133168458Y-101530490D01*
X133179833Y-101534531D01*
X133189647Y-101539610D01*
X133197900Y-101545724D01*
X133205935Y-101554247D01*
X133212307Y-101563696D01*
X133217017Y-101574070D01*
X133220065Y-101585369D01*
X133221450Y-101597595D01*
X133221542Y-101601876D01*
X133220711Y-101614400D01*
X133218218Y-101625980D01*
X133214062Y-101636616D01*
X133208243Y-101646306D01*
X133200763Y-101655053D01*
X133197900Y-101657758D01*
X133187809Y-101665063D01*
X133177683Y-101669995D01*
X133165995Y-101673878D01*
X133152747Y-101676712D01*
X133141024Y-101678223D01*
X133128303Y-101679063D01*
X133118106Y-101679252D01*
X133057655Y-101679252D01*
X133057655Y-101748031D01*
X133478657Y-101748031D01*
X133478657Y-101876991D01*
X133107628Y-102470208D01*
X132902903Y-102470208D01*
X132902903Y-101902783D01*
X133057655Y-101902783D01*
X133057655Y-102265483D01*
X133281992Y-101902783D01*
X133057655Y-101902783D01*
X132902903Y-101902783D01*
X132891015Y-101902447D01*
X132879932Y-101901439D01*
X132867212Y-101899236D01*
X132855752Y-101895982D01*
X132845551Y-101891679D01*
X132834972Y-101885131D01*
X132830363Y-101881289D01*
X132822328Y-101872858D01*
X132815956Y-101863482D01*
X132811246Y-101853161D01*
X132808198Y-101841896D01*
X132806813Y-101829686D01*
X132806720Y-101825407D01*
X132807561Y-101812873D01*
X132810083Y-101801264D01*
X132814286Y-101790582D01*
X132820170Y-101780825D01*
X132827736Y-101771993D01*
X132830632Y-101769255D01*
X132840458Y-101762042D01*
X132852003Y-101756321D01*
X132862938Y-101752694D01*
X132875066Y-101750103D01*
X132888388Y-101748549D01*
X132899905Y-101748051D01*
X132902903Y-101748031D01*
X132902903Y-101679252D01*
X132891015Y-101678916D01*
X132879932Y-101677908D01*
X132867212Y-101675705D01*
X132855752Y-101672451D01*
X132845551Y-101668148D01*
X132834972Y-101661599D01*
X132830363Y-101657758D01*
X132822328Y-101649327D01*
X132815956Y-101639951D01*
X132811246Y-101629630D01*
X132808198Y-101618365D01*
X132806813Y-101606155D01*
X132806720Y-101601876D01*
X132807561Y-101589342D01*
X132810083Y-101577733D01*
X132814286Y-101567051D01*
X132820170Y-101557294D01*
X132827736Y-101548462D01*
X132830632Y-101545724D01*
X132840722Y-101538511D01*
X132850849Y-101533640D01*
X132862536Y-101529806D01*
X132875784Y-101527007D01*
X132887507Y-101525515D01*
X132900229Y-101524686D01*
X132910426Y-101524500D01*
X133118106Y-101524500D01*
X133131577Y-101524831D01*
G37*
G36*
X136924791Y-102106674D02*
G01*
X137268685Y-102106674D01*
X137262295Y-102097597D01*
X137256220Y-102088501D01*
X137250463Y-102079386D01*
X137243278Y-102067204D01*
X137236656Y-102054988D01*
X137230596Y-102042738D01*
X137225099Y-102030455D01*
X137220164Y-102018138D01*
X137216832Y-102008879D01*
X137212865Y-101996440D01*
X137209427Y-101983977D01*
X137206518Y-101971488D01*
X137204138Y-101958974D01*
X137202287Y-101946435D01*
X137200964Y-101933870D01*
X137200171Y-101921281D01*
X137199906Y-101908666D01*
X137200131Y-101893808D01*
X137200804Y-101879256D01*
X137201925Y-101865012D01*
X137203496Y-101851075D01*
X137205515Y-101837444D01*
X137207982Y-101824121D01*
X137210898Y-101811104D01*
X137214263Y-101798395D01*
X137218077Y-101785992D01*
X137222339Y-101773897D01*
X137225430Y-101766004D01*
X137230425Y-101754407D01*
X137235939Y-101743193D01*
X137241973Y-101732362D01*
X137248527Y-101721913D01*
X137255600Y-101711847D01*
X137263192Y-101702163D01*
X137271304Y-101692861D01*
X137279936Y-101683943D01*
X137289087Y-101675406D01*
X137298757Y-101667253D01*
X137305493Y-101662030D01*
X137316019Y-101654635D01*
X137327047Y-101647969D01*
X137338575Y-101642029D01*
X137350603Y-101636817D01*
X137363133Y-101632332D01*
X137376162Y-101628574D01*
X137389693Y-101625544D01*
X137403724Y-101623241D01*
X137418256Y-101621665D01*
X137433288Y-101620816D01*
X137443587Y-101620655D01*
X137715747Y-101620655D01*
X137715966Y-101606579D01*
X137716620Y-101593771D01*
X137717712Y-101582231D01*
X137719690Y-101569589D01*
X137722351Y-101558927D01*
X137726444Y-101548749D01*
X137729718Y-101543547D01*
X137736997Y-101535047D01*
X137746356Y-101526014D01*
X137756003Y-101518753D01*
X137765939Y-101513263D01*
X137776164Y-101509544D01*
X137788814Y-101507419D01*
X137793123Y-101507277D01*
X137805657Y-101508108D01*
X137817266Y-101510602D01*
X137827948Y-101514758D01*
X137837705Y-101520576D01*
X137846537Y-101528057D01*
X137849275Y-101530920D01*
X137856488Y-101540828D01*
X137861359Y-101550831D01*
X137865193Y-101562421D01*
X137867992Y-101575599D01*
X137869484Y-101587284D01*
X137870313Y-101599984D01*
X137870500Y-101610177D01*
X137870500Y-101786960D01*
X137870168Y-101800242D01*
X137869173Y-101812550D01*
X137867515Y-101823885D01*
X137864509Y-101836683D01*
X137860468Y-101847960D01*
X137855389Y-101857715D01*
X137849275Y-101865948D01*
X137840752Y-101873983D01*
X137831303Y-101880355D01*
X137820929Y-101885065D01*
X137809630Y-101888113D01*
X137797404Y-101889498D01*
X137793123Y-101889591D01*
X137780353Y-101888315D01*
X137768037Y-101884490D01*
X137758119Y-101879354D01*
X137748516Y-101872447D01*
X137739228Y-101863769D01*
X137732025Y-101855552D01*
X137730255Y-101853321D01*
X137724602Y-101843203D01*
X137720862Y-101831522D01*
X137718524Y-101819667D01*
X137717164Y-101808794D01*
X137716257Y-101796687D01*
X137715804Y-101783346D01*
X137715747Y-101776213D01*
X137460513Y-101776213D01*
X137447450Y-101776637D01*
X137435393Y-101777909D01*
X137424344Y-101780029D01*
X137411950Y-101783871D01*
X137401130Y-101789039D01*
X137391884Y-101795531D01*
X137384212Y-101803348D01*
X137377285Y-101812811D01*
X137371282Y-101823331D01*
X137366203Y-101834908D01*
X137362047Y-101847544D01*
X137358815Y-101861238D01*
X137356996Y-101872202D01*
X137355698Y-101883762D01*
X137354918Y-101895916D01*
X137354659Y-101908666D01*
X137354961Y-101921314D01*
X137355868Y-101933602D01*
X137357379Y-101945528D01*
X137359495Y-101957093D01*
X137362215Y-101968297D01*
X137365540Y-101979141D01*
X137369469Y-101989623D01*
X137374003Y-101999744D01*
X137379544Y-102010054D01*
X137386496Y-102021237D01*
X137392635Y-102030198D01*
X137399568Y-102039650D01*
X137407294Y-102049592D01*
X137415814Y-102060026D01*
X137425127Y-102070951D01*
X137435234Y-102082368D01*
X137446133Y-102094275D01*
X137453841Y-102102486D01*
X137457827Y-102106674D01*
X137715747Y-102106674D01*
X137715870Y-102095813D01*
X137716416Y-102082493D01*
X137717398Y-102070500D01*
X137718817Y-102059833D01*
X137721205Y-102048364D01*
X137724970Y-102037339D01*
X137729718Y-102029298D01*
X137736997Y-102020671D01*
X137746356Y-102011505D01*
X137756003Y-102004136D01*
X137765939Y-101998565D01*
X137776164Y-101994791D01*
X137788814Y-101992634D01*
X137793123Y-101992490D01*
X137805657Y-101993331D01*
X137817266Y-101995853D01*
X137827948Y-102000056D01*
X137837705Y-102005940D01*
X137846537Y-102013506D01*
X137849275Y-102016401D01*
X137856488Y-102026401D01*
X137861359Y-102036465D01*
X137865193Y-102048104D01*
X137867992Y-102061317D01*
X137869484Y-102073021D01*
X137870313Y-102085732D01*
X137870500Y-102095927D01*
X137870500Y-102271904D01*
X137870168Y-102285438D01*
X137869173Y-102297965D01*
X137867515Y-102309484D01*
X137865193Y-102319995D01*
X137861359Y-102331718D01*
X137856488Y-102341867D01*
X137849275Y-102351967D01*
X137840752Y-102360002D01*
X137831303Y-102366374D01*
X137820929Y-102371084D01*
X137809630Y-102374132D01*
X137797404Y-102375517D01*
X137793123Y-102375609D01*
X137780353Y-102374306D01*
X137768037Y-102370396D01*
X137758119Y-102365146D01*
X137748516Y-102358085D01*
X137739228Y-102349214D01*
X137732025Y-102340814D01*
X137730255Y-102338533D01*
X137724602Y-102328599D01*
X137720862Y-102316994D01*
X137718524Y-102305144D01*
X137717164Y-102294238D01*
X137716257Y-102282064D01*
X137715804Y-102268622D01*
X137715747Y-102261426D01*
X137079543Y-102261426D01*
X137079543Y-102288024D01*
X137079212Y-102301495D01*
X137078217Y-102313967D01*
X137076559Y-102325440D01*
X137073553Y-102338376D01*
X137069511Y-102349751D01*
X137064433Y-102359565D01*
X137058319Y-102367818D01*
X137049796Y-102375853D01*
X137040347Y-102382225D01*
X137029973Y-102386935D01*
X137018674Y-102389983D01*
X137006448Y-102391368D01*
X137002167Y-102391461D01*
X136989643Y-102390630D01*
X136978063Y-102388136D01*
X136967427Y-102383980D01*
X136957737Y-102378162D01*
X136948990Y-102370681D01*
X136946285Y-102367818D01*
X136938980Y-102357727D01*
X136934048Y-102347601D01*
X136930165Y-102335914D01*
X136927331Y-102322665D01*
X136925820Y-102310943D01*
X136924980Y-102298221D01*
X136924791Y-102288024D01*
X136924791Y-102106674D01*
G37*
G36*
X137562472Y-100601042D02*
G01*
X137580469Y-100602591D01*
X137598062Y-100605173D01*
X137615249Y-100608787D01*
X137632031Y-100613434D01*
X137648408Y-100619114D01*
X137664380Y-100625827D01*
X137679947Y-100633572D01*
X137695109Y-100642350D01*
X137709866Y-100652160D01*
X137724218Y-100663003D01*
X137738164Y-100674879D01*
X137751706Y-100687788D01*
X137764842Y-100701729D01*
X137777573Y-100716703D01*
X137789899Y-100732710D01*
X137799660Y-100746622D01*
X137808790Y-100760752D01*
X137817291Y-100775101D01*
X137825162Y-100789667D01*
X137832403Y-100804452D01*
X137839015Y-100819456D01*
X137844997Y-100834677D01*
X137850349Y-100850117D01*
X137855072Y-100865776D01*
X137859165Y-100881652D01*
X137862628Y-100897747D01*
X137865462Y-100914060D01*
X137867666Y-100930592D01*
X137869240Y-100947341D01*
X137870185Y-100964309D01*
X137870500Y-100981496D01*
X137870311Y-100992667D01*
X137869744Y-101003815D01*
X137868799Y-101014939D01*
X137867477Y-101026040D01*
X137865777Y-101037117D01*
X137863699Y-101048170D01*
X137861243Y-101059200D01*
X137858409Y-101070206D01*
X137855198Y-101081189D01*
X137851609Y-101092148D01*
X137849006Y-101099441D01*
X137844787Y-101110314D01*
X137840190Y-101121174D01*
X137835216Y-101132020D01*
X137829864Y-101142851D01*
X137824133Y-101153669D01*
X137818025Y-101164472D01*
X137811540Y-101175261D01*
X137804676Y-101186035D01*
X137797435Y-101196796D01*
X137789815Y-101207542D01*
X137784526Y-101214699D01*
X138008057Y-101214699D01*
X138008057Y-101122009D01*
X138008389Y-101108479D01*
X138009384Y-101095965D01*
X138011042Y-101084467D01*
X138014047Y-101071523D01*
X138018089Y-101060166D01*
X138023167Y-101050396D01*
X138029282Y-101042214D01*
X138037805Y-101034088D01*
X138047253Y-101027643D01*
X138057627Y-101022880D01*
X138068927Y-101019798D01*
X138081152Y-101018396D01*
X138085433Y-101018303D01*
X138097958Y-101019144D01*
X138109538Y-101021666D01*
X138120173Y-101025869D01*
X138129864Y-101031753D01*
X138138610Y-101039319D01*
X138141316Y-101042214D01*
X138148620Y-101052223D01*
X138153553Y-101062310D01*
X138157436Y-101073984D01*
X138160270Y-101087246D01*
X138161781Y-101098998D01*
X138162620Y-101111766D01*
X138162809Y-101122009D01*
X138162809Y-101396049D01*
X138162474Y-101409583D01*
X138161466Y-101422110D01*
X138159787Y-101433629D01*
X138157436Y-101444140D01*
X138153553Y-101455863D01*
X138148620Y-101466012D01*
X138141316Y-101476112D01*
X138132884Y-101484147D01*
X138123508Y-101490519D01*
X138113188Y-101495229D01*
X138101923Y-101498277D01*
X138089713Y-101499662D01*
X138085433Y-101499755D01*
X138072899Y-101498905D01*
X138061291Y-101496354D01*
X138050608Y-101492104D01*
X138040851Y-101486153D01*
X138032020Y-101478503D01*
X138029282Y-101475575D01*
X138022069Y-101465411D01*
X138017198Y-101455268D01*
X138013363Y-101443603D01*
X138010565Y-101430416D01*
X138009073Y-101418771D01*
X138008244Y-101406152D01*
X138008057Y-101396049D01*
X138008057Y-101369720D01*
X137371853Y-101369720D01*
X137371853Y-101396049D01*
X137371522Y-101409583D01*
X137370527Y-101422110D01*
X137368869Y-101433629D01*
X137366547Y-101444140D01*
X137362713Y-101455863D01*
X137357842Y-101466012D01*
X137350629Y-101476112D01*
X137342106Y-101484147D01*
X137332657Y-101490519D01*
X137322283Y-101495229D01*
X137310983Y-101498277D01*
X137298758Y-101499662D01*
X137294477Y-101499755D01*
X137281953Y-101498923D01*
X137270373Y-101496430D01*
X137259737Y-101492274D01*
X137250046Y-101486456D01*
X137241300Y-101478975D01*
X137238594Y-101476112D01*
X137231290Y-101466012D01*
X137226357Y-101455863D01*
X137222474Y-101444140D01*
X137220124Y-101433629D01*
X137218444Y-101422110D01*
X137217437Y-101409583D01*
X137217101Y-101396049D01*
X137217101Y-101214699D01*
X137285880Y-101214699D01*
X137277915Y-101204490D01*
X137270342Y-101194215D01*
X137263161Y-101183874D01*
X137256373Y-101173467D01*
X137249976Y-101162993D01*
X137243971Y-101152454D01*
X137238358Y-101141849D01*
X137233137Y-101131177D01*
X137228308Y-101120439D01*
X137223871Y-101109635D01*
X137221131Y-101102396D01*
X137217338Y-101091439D01*
X137213918Y-101080429D01*
X137210871Y-101069368D01*
X137208197Y-101058255D01*
X137205897Y-101047090D01*
X137203969Y-101035872D01*
X137202414Y-101024603D01*
X137201233Y-101013282D01*
X137200425Y-101001909D01*
X137199989Y-100990484D01*
X137199929Y-100984988D01*
X137354659Y-100984988D01*
X137354981Y-100999243D01*
X137355947Y-101013127D01*
X137357558Y-101026639D01*
X137359814Y-101039780D01*
X137362713Y-101052549D01*
X137366257Y-101064946D01*
X137370446Y-101076972D01*
X137375279Y-101088627D01*
X137380756Y-101099910D01*
X137386878Y-101110821D01*
X137393644Y-101121361D01*
X137401054Y-101131529D01*
X137409109Y-101141326D01*
X137417808Y-101150752D01*
X137427152Y-101159806D01*
X137437139Y-101168488D01*
X137447683Y-101176746D01*
X137458155Y-101184192D01*
X137468557Y-101190826D01*
X137478888Y-101196648D01*
X137489148Y-101201657D01*
X137499337Y-101205854D01*
X137512812Y-101210186D01*
X137526162Y-101213074D01*
X137539385Y-101214518D01*
X137545950Y-101214699D01*
X137556953Y-101214118D01*
X137567901Y-101212375D01*
X137578791Y-101209471D01*
X137589625Y-101205405D01*
X137600402Y-101200177D01*
X137611122Y-101193787D01*
X137621786Y-101186235D01*
X137632393Y-101177522D01*
X137642944Y-101167647D01*
X137653437Y-101156610D01*
X137660402Y-101148607D01*
X137670293Y-101135938D01*
X137679211Y-101122717D01*
X137687156Y-101108943D01*
X137694128Y-101094617D01*
X137700127Y-101079738D01*
X137703586Y-101069512D01*
X137706613Y-101059041D01*
X137709207Y-101048323D01*
X137711369Y-101037360D01*
X137713099Y-101026152D01*
X137714396Y-101014698D01*
X137715261Y-101002998D01*
X137715693Y-100991053D01*
X137715747Y-100984988D01*
X137715532Y-100972825D01*
X137714887Y-100960917D01*
X137713811Y-100949266D01*
X137712305Y-100937871D01*
X137710369Y-100926732D01*
X137708002Y-100915849D01*
X137705205Y-100905222D01*
X137701978Y-100894851D01*
X137698321Y-100884736D01*
X137692028Y-100870043D01*
X137684767Y-100855927D01*
X137676537Y-100842388D01*
X137667340Y-100829424D01*
X137660670Y-100821101D01*
X137650246Y-100809338D01*
X137639727Y-100798732D01*
X137629114Y-100789282D01*
X137618406Y-100780990D01*
X137607603Y-100773855D01*
X137596707Y-100767877D01*
X137585715Y-100763056D01*
X137574630Y-100759392D01*
X137563450Y-100756885D01*
X137552175Y-100755535D01*
X137544606Y-100755278D01*
X137532434Y-100756185D01*
X137521396Y-100758326D01*
X137509545Y-100761726D01*
X137496881Y-100766386D01*
X137486163Y-100771020D01*
X137474925Y-100776461D01*
X137466155Y-100781070D01*
X137454452Y-100787887D01*
X137443252Y-100795578D01*
X137432555Y-100804142D01*
X137422363Y-100813579D01*
X137412674Y-100823889D01*
X137405738Y-100832194D01*
X137399085Y-100840991D01*
X137392716Y-100850279D01*
X137386630Y-100860058D01*
X137380916Y-100870195D01*
X137375765Y-100880658D01*
X137371175Y-100891447D01*
X137367147Y-100902562D01*
X137363682Y-100914003D01*
X137360778Y-100925769D01*
X137358436Y-100937862D01*
X137356657Y-100950280D01*
X137355439Y-100963024D01*
X137354783Y-100976094D01*
X137354659Y-100984988D01*
X137199929Y-100984988D01*
X137199906Y-100982839D01*
X137200315Y-100963175D01*
X137201539Y-100943878D01*
X137203581Y-100924949D01*
X137206438Y-100906386D01*
X137210113Y-100888192D01*
X137214603Y-100870364D01*
X137219910Y-100852904D01*
X137226034Y-100835811D01*
X137232974Y-100819085D01*
X137240731Y-100802727D01*
X137249304Y-100786736D01*
X137258694Y-100771113D01*
X137268900Y-100755856D01*
X137279923Y-100740967D01*
X137291762Y-100726446D01*
X137304418Y-100712291D01*
X137317601Y-100698757D01*
X137331024Y-100686096D01*
X137344686Y-100674308D01*
X137358588Y-100663394D01*
X137372729Y-100653352D01*
X137387109Y-100644184D01*
X137401728Y-100635889D01*
X137416586Y-100628467D01*
X137431684Y-100621918D01*
X137447021Y-100616243D01*
X137462598Y-100611440D01*
X137478413Y-100607511D01*
X137494468Y-100604455D01*
X137510763Y-100602272D01*
X137527296Y-100600962D01*
X137544069Y-100600526D01*
X137562472Y-100601042D01*
G37*
G36*
X137398451Y-99931007D02*
G01*
X137393179Y-99940536D01*
X137388242Y-99950183D01*
X137383641Y-99959948D01*
X137379376Y-99969830D01*
X137374517Y-99982347D01*
X137370183Y-99995049D01*
X137367093Y-100005342D01*
X137365674Y-100010533D01*
X137362501Y-100023554D01*
X137360349Y-100034103D01*
X137358542Y-100044770D01*
X137357079Y-100055555D01*
X137355960Y-100066457D01*
X137355186Y-100077476D01*
X137354755Y-100088614D01*
X137354659Y-100097043D01*
X137354761Y-100108149D01*
X137355070Y-100118965D01*
X137355919Y-100134646D01*
X137357230Y-100149675D01*
X137359004Y-100164052D01*
X137361241Y-100177778D01*
X137363941Y-100190852D01*
X137367103Y-100203274D01*
X137370729Y-100215045D01*
X137374817Y-100226163D01*
X137379368Y-100236630D01*
X137380988Y-100239974D01*
X137386899Y-100250201D01*
X137394665Y-100258875D01*
X137404538Y-100263257D01*
X137406243Y-100263348D01*
X137416892Y-100259602D01*
X137425511Y-100250965D01*
X137432156Y-100240779D01*
X137436871Y-100231646D01*
X137440882Y-100220481D01*
X137444196Y-100207974D01*
X137446828Y-100195872D01*
X137449443Y-100181905D01*
X137451393Y-100170207D01*
X137453334Y-100157461D01*
X137455266Y-100143666D01*
X137457188Y-100128822D01*
X137457827Y-100123642D01*
X137460181Y-100104731D01*
X137462541Y-100086553D01*
X137464908Y-100069107D01*
X137467281Y-100052394D01*
X137469660Y-100036414D01*
X137472045Y-100021166D01*
X137474437Y-100006651D01*
X137476835Y-99992868D01*
X137479239Y-99979818D01*
X137481650Y-99967500D01*
X137484067Y-99955915D01*
X137486490Y-99945062D01*
X137490137Y-99930156D01*
X137493798Y-99916899D01*
X137496246Y-99908977D01*
X137501405Y-99894435D01*
X137507008Y-99880530D01*
X137513054Y-99867264D01*
X137519545Y-99854634D01*
X137526479Y-99842643D01*
X137533857Y-99831289D01*
X137541680Y-99820572D01*
X137549946Y-99810493D01*
X137558656Y-99801052D01*
X137567810Y-99792248D01*
X137574160Y-99786733D01*
X137583831Y-99779003D01*
X137593601Y-99772033D01*
X137603471Y-99765823D01*
X137613440Y-99760374D01*
X137623508Y-99755685D01*
X137633675Y-99751757D01*
X137647385Y-99747702D01*
X137661272Y-99744998D01*
X137675335Y-99743647D01*
X137682433Y-99743478D01*
X137696767Y-99744122D01*
X137710652Y-99746056D01*
X137724089Y-99749279D01*
X137737077Y-99753792D01*
X137749616Y-99759594D01*
X137761707Y-99766685D01*
X137773349Y-99775065D01*
X137784543Y-99784735D01*
X137795288Y-99795694D01*
X137805584Y-99807942D01*
X137812199Y-99816824D01*
X137821341Y-99830200D01*
X137829893Y-99844068D01*
X137837855Y-99858427D01*
X137845228Y-99873277D01*
X137852011Y-99888619D01*
X137858204Y-99904451D01*
X137863807Y-99920775D01*
X137868820Y-99937590D01*
X137873244Y-99954895D01*
X137877078Y-99972693D01*
X137880322Y-99990981D01*
X137882976Y-100009760D01*
X137885040Y-100029031D01*
X137886515Y-100048793D01*
X137887399Y-100069045D01*
X137887694Y-100089789D01*
X137887616Y-100102296D01*
X137887383Y-100114628D01*
X137886993Y-100126784D01*
X137886447Y-100138767D01*
X137885746Y-100150574D01*
X137884889Y-100162207D01*
X137883876Y-100173665D01*
X137882707Y-100184948D01*
X137881382Y-100196057D01*
X137879902Y-100206990D01*
X137878828Y-100214182D01*
X137876549Y-100228275D01*
X137874009Y-100242073D01*
X137871209Y-100255578D01*
X137868149Y-100268789D01*
X137864828Y-100281706D01*
X137861247Y-100294329D01*
X137857406Y-100306658D01*
X137853305Y-100318694D01*
X137859451Y-100328128D01*
X137864356Y-100338095D01*
X137866201Y-100342874D01*
X137868984Y-100353441D01*
X137870348Y-100364185D01*
X137870500Y-100369203D01*
X137869962Y-100380177D01*
X137867896Y-100392393D01*
X137864282Y-100403570D01*
X137859118Y-100413708D01*
X137852406Y-100422807D01*
X137848469Y-100426967D01*
X137839068Y-100434271D01*
X137827588Y-100440064D01*
X137816435Y-100443737D01*
X137803839Y-100446361D01*
X137792722Y-100447704D01*
X137780683Y-100448376D01*
X137774317Y-100448460D01*
X137725957Y-100448460D01*
X137713459Y-100448124D01*
X137701894Y-100447117D01*
X137691261Y-100445438D01*
X137679280Y-100442394D01*
X137668755Y-100438301D01*
X137658047Y-100432004D01*
X137652073Y-100426967D01*
X137644495Y-100418444D01*
X137638484Y-100408995D01*
X137634042Y-100398621D01*
X137631167Y-100387322D01*
X137629861Y-100375096D01*
X137629774Y-100370815D01*
X137630365Y-100359028D01*
X137632139Y-100348115D01*
X137635615Y-100336713D01*
X137640636Y-100326454D01*
X137642132Y-100324067D01*
X137649302Y-100315067D01*
X137658723Y-100307141D01*
X137668811Y-100301088D01*
X137678829Y-100296554D01*
X137684313Y-100294514D01*
X137690111Y-100285421D01*
X137695547Y-100275875D01*
X137700622Y-100265876D01*
X137705336Y-100255423D01*
X137709690Y-100244517D01*
X137713682Y-100233157D01*
X137717313Y-100221344D01*
X137720583Y-100209078D01*
X137723480Y-100196350D01*
X137725990Y-100183151D01*
X137728114Y-100169483D01*
X137729852Y-100155344D01*
X137730902Y-100144432D01*
X137731735Y-100133255D01*
X137732351Y-100121813D01*
X137732749Y-100110107D01*
X137732930Y-100098137D01*
X137732942Y-100094088D01*
X137732825Y-100080974D01*
X137732476Y-100068229D01*
X137731893Y-100055853D01*
X137731078Y-100043847D01*
X137730030Y-100032211D01*
X137728748Y-100020944D01*
X137727234Y-100010046D01*
X137724525Y-99994392D01*
X137721293Y-99979569D01*
X137717536Y-99965577D01*
X137713255Y-99952417D01*
X137708449Y-99940087D01*
X137703120Y-99928589D01*
X137697522Y-99919093D01*
X137690848Y-99910498D01*
X137682040Y-99903376D01*
X137671954Y-99900648D01*
X137660546Y-99902563D01*
X137650062Y-99908310D01*
X137641813Y-99916285D01*
X137635459Y-99925081D01*
X137629576Y-99935832D01*
X137627356Y-99940679D01*
X137623011Y-99952022D01*
X137618842Y-99966035D01*
X137615832Y-99978296D01*
X137612920Y-99992060D01*
X137610108Y-100007325D01*
X137608288Y-100018336D01*
X137606512Y-100030015D01*
X137604781Y-100042361D01*
X137603093Y-100055374D01*
X137601450Y-100069055D01*
X137599850Y-100083404D01*
X137598295Y-100098420D01*
X137597534Y-100106178D01*
X137596392Y-100117727D01*
X137595182Y-100129035D01*
X137593904Y-100140100D01*
X137592559Y-100150924D01*
X137589666Y-100171845D01*
X137586502Y-100191799D01*
X137583067Y-100210785D01*
X137579361Y-100228804D01*
X137575384Y-100245855D01*
X137571137Y-100261938D01*
X137566619Y-100277054D01*
X137561830Y-100291202D01*
X137556771Y-100304382D01*
X137551440Y-100316595D01*
X137545839Y-100327840D01*
X137539968Y-100338118D01*
X137533825Y-100347428D01*
X137527412Y-100355770D01*
X137517527Y-100366957D01*
X137507217Y-100377044D01*
X137496483Y-100386030D01*
X137485323Y-100393916D01*
X137473738Y-100400702D01*
X137461729Y-100406387D01*
X137449294Y-100410972D01*
X137436434Y-100414457D01*
X137423149Y-100416841D01*
X137409439Y-100418125D01*
X137400063Y-100418369D01*
X137385732Y-100417751D01*
X137371853Y-100415895D01*
X137358428Y-100412801D01*
X137345457Y-100408471D01*
X137332939Y-100402903D01*
X137320874Y-100396097D01*
X137309262Y-100388055D01*
X137298104Y-100378775D01*
X137287399Y-100368257D01*
X137277148Y-100356502D01*
X137270566Y-100347979D01*
X137262009Y-100335859D01*
X137254005Y-100323278D01*
X137246553Y-100310235D01*
X137239652Y-100296730D01*
X137233304Y-100282764D01*
X137227508Y-100268336D01*
X137222263Y-100253446D01*
X137217571Y-100238094D01*
X137213431Y-100222280D01*
X137209843Y-100206005D01*
X137206807Y-100189268D01*
X137204323Y-100172069D01*
X137202390Y-100154408D01*
X137201010Y-100136286D01*
X137200182Y-100117701D01*
X137199906Y-100098655D01*
X137200057Y-100085352D01*
X137200511Y-100072175D01*
X137201266Y-100059124D01*
X137202324Y-100046198D01*
X137203684Y-100033399D01*
X137205347Y-100020725D01*
X137207311Y-100008178D01*
X137209578Y-99995756D01*
X137212093Y-99983397D01*
X137214935Y-99971173D01*
X137218104Y-99959083D01*
X137221601Y-99947127D01*
X137225426Y-99935306D01*
X137229577Y-99923619D01*
X137234056Y-99912066D01*
X137238863Y-99900648D01*
X137232110Y-99891080D01*
X137226191Y-99881150D01*
X137222743Y-99874050D01*
X137218886Y-99863412D01*
X137217123Y-99852263D01*
X137217101Y-99850944D01*
X137217923Y-99839424D01*
X137220388Y-99828641D01*
X137224497Y-99818594D01*
X137230249Y-99809284D01*
X137237645Y-99800711D01*
X137240475Y-99798017D01*
X137250355Y-99790804D01*
X137260291Y-99785933D01*
X137271775Y-99782098D01*
X137284807Y-99779300D01*
X137296347Y-99777808D01*
X137308878Y-99776979D01*
X137318926Y-99776792D01*
X137356002Y-99776792D01*
X137367932Y-99776981D01*
X137378872Y-99777548D01*
X137391154Y-99778788D01*
X137401887Y-99780618D01*
X137412724Y-99783593D01*
X137422550Y-99788138D01*
X137423706Y-99788882D01*
X137433536Y-99796865D01*
X137441699Y-99805700D01*
X137448197Y-99815388D01*
X137453029Y-99825929D01*
X137456194Y-99837322D01*
X137457694Y-99849569D01*
X137457827Y-99854706D01*
X137457055Y-99866609D01*
X137454741Y-99877869D01*
X137450884Y-99888486D01*
X137445485Y-99898461D01*
X137441707Y-99903872D01*
X137434035Y-99912333D01*
X137425361Y-99919380D01*
X137415684Y-99925013D01*
X137405004Y-99929231D01*
X137398451Y-99931007D01*
G37*
G36*
X137574180Y-97827492D02*
G01*
X137591300Y-97828741D01*
X137608057Y-97830825D01*
X137624451Y-97833741D01*
X137640482Y-97837491D01*
X137656149Y-97842074D01*
X137671454Y-97847490D01*
X137686395Y-97853740D01*
X137700974Y-97860823D01*
X137715189Y-97868739D01*
X137729041Y-97877489D01*
X137742530Y-97887072D01*
X137755656Y-97897488D01*
X137768419Y-97908737D01*
X137780818Y-97920820D01*
X137792855Y-97933736D01*
X137804339Y-97947301D01*
X137815083Y-97961400D01*
X137825085Y-97976032D01*
X137834347Y-97991197D01*
X137842868Y-98006895D01*
X137850648Y-98023126D01*
X137857686Y-98039891D01*
X137863984Y-98057188D01*
X137869541Y-98075019D01*
X137874357Y-98093383D01*
X137878433Y-98112280D01*
X137881767Y-98131710D01*
X137884360Y-98151673D01*
X137886212Y-98172169D01*
X137887324Y-98193199D01*
X137887694Y-98214762D01*
X137887548Y-98226358D01*
X137887109Y-98237874D01*
X137886377Y-98249310D01*
X137885352Y-98260666D01*
X137884034Y-98271941D01*
X137882424Y-98283136D01*
X137880520Y-98294251D01*
X137878324Y-98305286D01*
X137875836Y-98316240D01*
X137873054Y-98327114D01*
X137871037Y-98334318D01*
X137867774Y-98345018D01*
X137864233Y-98355655D01*
X137860413Y-98366232D01*
X137856315Y-98376747D01*
X137851938Y-98387200D01*
X137847282Y-98397593D01*
X137842347Y-98407924D01*
X137837134Y-98418193D01*
X137831643Y-98428401D01*
X137825872Y-98438548D01*
X137821871Y-98445278D01*
X137870500Y-98445278D01*
X137870500Y-98626628D01*
X137870168Y-98640099D01*
X137869173Y-98652571D01*
X137867515Y-98664044D01*
X137864509Y-98676981D01*
X137860468Y-98688356D01*
X137855389Y-98698170D01*
X137849275Y-98706422D01*
X137840752Y-98714457D01*
X137831303Y-98720830D01*
X137820929Y-98725540D01*
X137809630Y-98728587D01*
X137797404Y-98729973D01*
X137793123Y-98730065D01*
X137780599Y-98729215D01*
X137769019Y-98726665D01*
X137758383Y-98722414D01*
X137748693Y-98716464D01*
X137739946Y-98708813D01*
X137737241Y-98705885D01*
X137729936Y-98695731D01*
X137725004Y-98685610D01*
X137721121Y-98673981D01*
X137718287Y-98660843D01*
X137716776Y-98649246D01*
X137715936Y-98636684D01*
X137715747Y-98626628D01*
X137715747Y-98600030D01*
X137079543Y-98600030D01*
X137079543Y-98626628D01*
X137079212Y-98640099D01*
X137078217Y-98652571D01*
X137076559Y-98664044D01*
X137073553Y-98676981D01*
X137069511Y-98688356D01*
X137064433Y-98698170D01*
X137058319Y-98706422D01*
X137049796Y-98714457D01*
X137040347Y-98720830D01*
X137029973Y-98725540D01*
X137018674Y-98728587D01*
X137006448Y-98729973D01*
X137002167Y-98730065D01*
X136989643Y-98729234D01*
X136978063Y-98726740D01*
X136967427Y-98722584D01*
X136957737Y-98716766D01*
X136948990Y-98709285D01*
X136946285Y-98706422D01*
X136938980Y-98696332D01*
X136934048Y-98686205D01*
X136930165Y-98674518D01*
X136927331Y-98661270D01*
X136925820Y-98649547D01*
X136924980Y-98636825D01*
X136924791Y-98626628D01*
X136924791Y-98445278D01*
X137273790Y-98445278D01*
X137267049Y-98434632D01*
X137260629Y-98423954D01*
X137254531Y-98413242D01*
X137248753Y-98402497D01*
X137243297Y-98391719D01*
X137238162Y-98380908D01*
X137233348Y-98370064D01*
X137228855Y-98359187D01*
X137224684Y-98348277D01*
X137220833Y-98337334D01*
X137218444Y-98330020D01*
X137215131Y-98319029D01*
X137212144Y-98308018D01*
X137209483Y-98296989D01*
X137207148Y-98285942D01*
X137205138Y-98274875D01*
X137203455Y-98263789D01*
X137202097Y-98252685D01*
X137201065Y-98241561D01*
X137200359Y-98230419D01*
X137199979Y-98219258D01*
X137199927Y-98213956D01*
X137354659Y-98213956D01*
X137354892Y-98225931D01*
X137355591Y-98237678D01*
X137356755Y-98249196D01*
X137358386Y-98260485D01*
X137360483Y-98271546D01*
X137363046Y-98282378D01*
X137366075Y-98292980D01*
X137369570Y-98303355D01*
X137373530Y-98313500D01*
X137377957Y-98323416D01*
X137382850Y-98333104D01*
X137388208Y-98342563D01*
X137394033Y-98351793D01*
X137400324Y-98360795D01*
X137407080Y-98369567D01*
X137414303Y-98378111D01*
X137421854Y-98386245D01*
X137429596Y-98393853D01*
X137441567Y-98404283D01*
X137453968Y-98413531D01*
X137466799Y-98421599D01*
X137480059Y-98428486D01*
X137493749Y-98434193D01*
X137507869Y-98438719D01*
X137522419Y-98442064D01*
X137537398Y-98444228D01*
X137552808Y-98445212D01*
X137558040Y-98445278D01*
X137572156Y-98444747D01*
X137585790Y-98443153D01*
X137598943Y-98440496D01*
X137611614Y-98436777D01*
X137623803Y-98431995D01*
X137635510Y-98426151D01*
X137646736Y-98419244D01*
X137657480Y-98411275D01*
X137667742Y-98402243D01*
X137677523Y-98392148D01*
X137683776Y-98384828D01*
X137692562Y-98373054D01*
X137700485Y-98360402D01*
X137707543Y-98346872D01*
X137713736Y-98332463D01*
X137719066Y-98317176D01*
X137722139Y-98306496D01*
X137724828Y-98295426D01*
X137727132Y-98283966D01*
X137729053Y-98272115D01*
X137730589Y-98259874D01*
X137731742Y-98247242D01*
X137732510Y-98234221D01*
X137732894Y-98220808D01*
X137732942Y-98213956D01*
X137732750Y-98200379D01*
X137732174Y-98187190D01*
X137731213Y-98174386D01*
X137729869Y-98161968D01*
X137728141Y-98149937D01*
X137726028Y-98138292D01*
X137723531Y-98127033D01*
X137720650Y-98116161D01*
X137717385Y-98105674D01*
X137711768Y-98090669D01*
X137705286Y-98076532D01*
X137697940Y-98063265D01*
X137689730Y-98050866D01*
X137683776Y-98043083D01*
X137674335Y-98032184D01*
X137664451Y-98022357D01*
X137654122Y-98013602D01*
X137643350Y-98005919D01*
X137632134Y-97999308D01*
X137620473Y-97993769D01*
X137608369Y-97989302D01*
X137595821Y-97985908D01*
X137582829Y-97983585D01*
X137569393Y-97982334D01*
X137560189Y-97982096D01*
X137544252Y-97982689D01*
X137528783Y-97984467D01*
X137513782Y-97987430D01*
X137499248Y-97991579D01*
X137485181Y-97996913D01*
X137471582Y-98003433D01*
X137458451Y-98011138D01*
X137445787Y-98020028D01*
X137433591Y-98030104D01*
X137425720Y-98037480D01*
X137418056Y-98045382D01*
X137414303Y-98049531D01*
X137407080Y-98058045D01*
X137400324Y-98066793D01*
X137394033Y-98075777D01*
X137388208Y-98084995D01*
X137382850Y-98094449D01*
X137377957Y-98104138D01*
X137373530Y-98114062D01*
X137369570Y-98124221D01*
X137366075Y-98134615D01*
X137363046Y-98145244D01*
X137360483Y-98156108D01*
X137358386Y-98167207D01*
X137356755Y-98178542D01*
X137355591Y-98190111D01*
X137354892Y-98201916D01*
X137354659Y-98213956D01*
X137199927Y-98213956D01*
X137199906Y-98211806D01*
X137200315Y-98191882D01*
X137201539Y-98172342D01*
X137203581Y-98153185D01*
X137206438Y-98134413D01*
X137210113Y-98116025D01*
X137214603Y-98098022D01*
X137219910Y-98080402D01*
X137226034Y-98063166D01*
X137232974Y-98046315D01*
X137240731Y-98029847D01*
X137249304Y-98013764D01*
X137258694Y-97998065D01*
X137268900Y-97982750D01*
X137279923Y-97967819D01*
X137291762Y-97953272D01*
X137304418Y-97939109D01*
X137317651Y-97925542D01*
X137331222Y-97912851D01*
X137345130Y-97901035D01*
X137359377Y-97890094D01*
X137373962Y-97880029D01*
X137388884Y-97870838D01*
X137404145Y-97862523D01*
X137419743Y-97855083D01*
X137435680Y-97848519D01*
X137451954Y-97842830D01*
X137468566Y-97838016D01*
X137485516Y-97834077D01*
X137502804Y-97831014D01*
X137520430Y-97828825D01*
X137538394Y-97827513D01*
X137556696Y-97827075D01*
X137574180Y-97827492D01*
G37*
G36*
X137853305Y-97412253D02*
G01*
X137371853Y-97680383D01*
X137371335Y-97691775D01*
X137369345Y-97704268D01*
X137365863Y-97715476D01*
X137360889Y-97725400D01*
X137354422Y-97734039D01*
X137350629Y-97737877D01*
X137342106Y-97744543D01*
X137332657Y-97749829D01*
X137322283Y-97753736D01*
X137310983Y-97756264D01*
X137298758Y-97757413D01*
X137294477Y-97757490D01*
X137281953Y-97756659D01*
X137270373Y-97754165D01*
X137259737Y-97750009D01*
X137250046Y-97744191D01*
X137241300Y-97736710D01*
X137238594Y-97733847D01*
X137231290Y-97723757D01*
X137226357Y-97713630D01*
X137222474Y-97701943D01*
X137219641Y-97688695D01*
X137218130Y-97676972D01*
X137217290Y-97664250D01*
X137217101Y-97654053D01*
X137217101Y-97512734D01*
X137217437Y-97499263D01*
X137218444Y-97486791D01*
X137220124Y-97475318D01*
X137223167Y-97462382D01*
X137227260Y-97451007D01*
X137232402Y-97441193D01*
X137238594Y-97432940D01*
X137247026Y-97424814D01*
X137256402Y-97418369D01*
X137266723Y-97413606D01*
X137277988Y-97410523D01*
X137290197Y-97409122D01*
X137294477Y-97409029D01*
X137307011Y-97409869D01*
X137318619Y-97412391D01*
X137329302Y-97416595D01*
X137339059Y-97422479D01*
X137347891Y-97430045D01*
X137350629Y-97432940D01*
X137357842Y-97442870D01*
X137362713Y-97452617D01*
X137366547Y-97463703D01*
X137369345Y-97476126D01*
X137370838Y-97487028D01*
X137371667Y-97498786D01*
X137371853Y-97508167D01*
X137695866Y-97325205D01*
X137371853Y-97143854D01*
X137371522Y-97155940D01*
X137370527Y-97167212D01*
X137368350Y-97180156D01*
X137365138Y-97191827D01*
X137360889Y-97202226D01*
X137354422Y-97213025D01*
X137350629Y-97217738D01*
X137342106Y-97225773D01*
X137332657Y-97232145D01*
X137322283Y-97236855D01*
X137310983Y-97239903D01*
X137298758Y-97241288D01*
X137294477Y-97241381D01*
X137281953Y-97240549D01*
X137270373Y-97238056D01*
X137259737Y-97233900D01*
X137250046Y-97228082D01*
X137241300Y-97220601D01*
X137238594Y-97217738D01*
X137231290Y-97207647D01*
X137226357Y-97197521D01*
X137222474Y-97185834D01*
X137219641Y-97172585D01*
X137218130Y-97160863D01*
X137217290Y-97148141D01*
X137217101Y-97137944D01*
X137217101Y-96992057D01*
X137217437Y-96978775D01*
X137218444Y-96966467D01*
X137220124Y-96955133D01*
X137223167Y-96942334D01*
X137227260Y-96931057D01*
X137232402Y-96921302D01*
X137238594Y-96913069D01*
X137247026Y-96904943D01*
X137256402Y-96898498D01*
X137266723Y-96893735D01*
X137277988Y-96890652D01*
X137290197Y-96889251D01*
X137294477Y-96889158D01*
X137307011Y-96889876D01*
X137318619Y-96892029D01*
X137329302Y-96895619D01*
X137339059Y-96900643D01*
X137347891Y-96907104D01*
X137350629Y-96909577D01*
X137357842Y-96917923D01*
X137363562Y-96927649D01*
X137367791Y-96938753D01*
X137370527Y-96951237D01*
X137371667Y-96962693D01*
X137371853Y-96970027D01*
X138008057Y-97325205D01*
X138008057Y-97311318D01*
X138008057Y-97298674D01*
X138008057Y-97287272D01*
X138008057Y-97274768D01*
X138008057Y-97262325D01*
X138008057Y-97251342D01*
X138008057Y-97248903D01*
X138018611Y-97240402D01*
X138028912Y-97233035D01*
X138038962Y-97226801D01*
X138048760Y-97221701D01*
X138060653Y-97216919D01*
X138072153Y-97213908D01*
X138083259Y-97212669D01*
X138085433Y-97212633D01*
X138097958Y-97213474D01*
X138109538Y-97215996D01*
X138120173Y-97220199D01*
X138129864Y-97226083D01*
X138138610Y-97233649D01*
X138141316Y-97236545D01*
X138148620Y-97246553D01*
X138153553Y-97256640D01*
X138157436Y-97268314D01*
X138160270Y-97281576D01*
X138161781Y-97293328D01*
X138162620Y-97306096D01*
X138162809Y-97316339D01*
X138162809Y-97654053D01*
X138162474Y-97667524D01*
X138161466Y-97679996D01*
X138159787Y-97691469D01*
X138156743Y-97704406D01*
X138152650Y-97715781D01*
X138147508Y-97725595D01*
X138141316Y-97733847D01*
X138132884Y-97741882D01*
X138123508Y-97748255D01*
X138113188Y-97752965D01*
X138101923Y-97756012D01*
X138089713Y-97757398D01*
X138085433Y-97757490D01*
X138072899Y-97756659D01*
X138061291Y-97754165D01*
X138050608Y-97750009D01*
X138040851Y-97744191D01*
X138032020Y-97736710D01*
X138029282Y-97733847D01*
X138022069Y-97723757D01*
X138017198Y-97713630D01*
X138013363Y-97701943D01*
X138010565Y-97688695D01*
X138009073Y-97676972D01*
X138008244Y-97664250D01*
X138008057Y-97654053D01*
X138008057Y-97499838D01*
X137853305Y-97412253D01*
G37*
G36*
X137307011Y-95022762D02*
G01*
X137318619Y-95025284D01*
X137329302Y-95029487D01*
X137339059Y-95035372D01*
X137347891Y-95042937D01*
X137350629Y-95045833D01*
X137357842Y-95055832D01*
X137362713Y-95065897D01*
X137366547Y-95077535D01*
X137369345Y-95090748D01*
X137370838Y-95102452D01*
X137371667Y-95115164D01*
X137371853Y-95125358D01*
X137371853Y-95151956D01*
X137893605Y-95151956D01*
X137907590Y-95152259D01*
X137921236Y-95153165D01*
X137934541Y-95154677D01*
X137947506Y-95156792D01*
X137960131Y-95159513D01*
X137972417Y-95162837D01*
X137984362Y-95166767D01*
X137995967Y-95171300D01*
X138007232Y-95176439D01*
X138018157Y-95182181D01*
X138025252Y-95186346D01*
X138035691Y-95193117D01*
X138045852Y-95200536D01*
X138055734Y-95208601D01*
X138065338Y-95217314D01*
X138074663Y-95226673D01*
X138083709Y-95236680D01*
X138092477Y-95247333D01*
X138100966Y-95258634D01*
X138109176Y-95270581D01*
X138117108Y-95283176D01*
X138122241Y-95291932D01*
X138129491Y-95305389D01*
X138136028Y-95319163D01*
X138141851Y-95333253D01*
X138146962Y-95347659D01*
X138151360Y-95362382D01*
X138155044Y-95377422D01*
X138158016Y-95392777D01*
X138160274Y-95408449D01*
X138161819Y-95424438D01*
X138162453Y-95435273D01*
X138162770Y-95446248D01*
X138162809Y-95451789D01*
X138162809Y-95627228D01*
X138162474Y-95640700D01*
X138161466Y-95653172D01*
X138159787Y-95664645D01*
X138156743Y-95677581D01*
X138152650Y-95688956D01*
X138147508Y-95698770D01*
X138141316Y-95707023D01*
X138132812Y-95715057D01*
X138123420Y-95721430D01*
X138113141Y-95726140D01*
X138101973Y-95729188D01*
X138089918Y-95730573D01*
X138085702Y-95730665D01*
X138073168Y-95729834D01*
X138061560Y-95727341D01*
X138050877Y-95723185D01*
X138041120Y-95717366D01*
X138032289Y-95709886D01*
X138029550Y-95707023D01*
X138022246Y-95696932D01*
X138017313Y-95686806D01*
X138013430Y-95675118D01*
X138010597Y-95661870D01*
X138009086Y-95650147D01*
X138008246Y-95637425D01*
X138008057Y-95627228D01*
X138008057Y-95456356D01*
X138007757Y-95443336D01*
X138006858Y-95430873D01*
X138005358Y-95418967D01*
X138003259Y-95407618D01*
X138000560Y-95396827D01*
X137997261Y-95386593D01*
X137991930Y-95373814D01*
X137985532Y-95362027D01*
X137978068Y-95351230D01*
X137973936Y-95346203D01*
X137965192Y-95336946D01*
X137955885Y-95328924D01*
X137946016Y-95322136D01*
X137935584Y-95316582D01*
X137924590Y-95312262D01*
X137913033Y-95309177D01*
X137900913Y-95307326D01*
X137888232Y-95306709D01*
X137821602Y-95306709D01*
X137827652Y-95316349D01*
X137833409Y-95326027D01*
X137838873Y-95335743D01*
X137844044Y-95345497D01*
X137848923Y-95355289D01*
X137853508Y-95365118D01*
X137857801Y-95374986D01*
X137863070Y-95388201D01*
X137867818Y-95401483D01*
X137871037Y-95411489D01*
X137874941Y-95424830D01*
X137878324Y-95438255D01*
X137881187Y-95451764D01*
X137883530Y-95465356D01*
X137885352Y-95479033D01*
X137886653Y-95492794D01*
X137887434Y-95506639D01*
X137887694Y-95520568D01*
X137887308Y-95540114D01*
X137886149Y-95559260D01*
X137884218Y-95578005D01*
X137881515Y-95596348D01*
X137878039Y-95614291D01*
X137873791Y-95631834D01*
X137868770Y-95648975D01*
X137862977Y-95665715D01*
X137856411Y-95682054D01*
X137849073Y-95697993D01*
X137840963Y-95713530D01*
X137832080Y-95728667D01*
X137822425Y-95743403D01*
X137811997Y-95757738D01*
X137800797Y-95771672D01*
X137788825Y-95785205D01*
X137776251Y-95798088D01*
X137763314Y-95810140D01*
X137750014Y-95821361D01*
X137736351Y-95831751D01*
X137722324Y-95841310D01*
X137707935Y-95850037D01*
X137693182Y-95857934D01*
X137678067Y-95864999D01*
X137662588Y-95871233D01*
X137646746Y-95876635D01*
X137630541Y-95881207D01*
X137613973Y-95884947D01*
X137597041Y-95887857D01*
X137579747Y-95889934D01*
X137562090Y-95891181D01*
X137544069Y-95891597D01*
X137525984Y-95891181D01*
X137508269Y-95889934D01*
X137490923Y-95887857D01*
X137473947Y-95884947D01*
X137457340Y-95881207D01*
X137441102Y-95876635D01*
X137425234Y-95871233D01*
X137409735Y-95864999D01*
X137394606Y-95857934D01*
X137379846Y-95850037D01*
X137365456Y-95841310D01*
X137351435Y-95831751D01*
X137337783Y-95821361D01*
X137324501Y-95810140D01*
X137311588Y-95798088D01*
X137299045Y-95785205D01*
X137287039Y-95771672D01*
X137275809Y-95757738D01*
X137265353Y-95743403D01*
X137255672Y-95728667D01*
X137246765Y-95713530D01*
X137238632Y-95697993D01*
X137231274Y-95682054D01*
X137224691Y-95665715D01*
X137218882Y-95648975D01*
X137213848Y-95631834D01*
X137209588Y-95614291D01*
X137206102Y-95596348D01*
X137203392Y-95578005D01*
X137201455Y-95559260D01*
X137200294Y-95540114D01*
X137199938Y-95522180D01*
X137354659Y-95522180D01*
X137354879Y-95533130D01*
X137355540Y-95543883D01*
X137357358Y-95559642D01*
X137360168Y-95574958D01*
X137363970Y-95589830D01*
X137368764Y-95604257D01*
X137374549Y-95618241D01*
X137381326Y-95631781D01*
X137389095Y-95644877D01*
X137397855Y-95657529D01*
X137407608Y-95669737D01*
X137411079Y-95673708D01*
X137421787Y-95684991D01*
X137432853Y-95695164D01*
X137444279Y-95704228D01*
X137456064Y-95712182D01*
X137468207Y-95719026D01*
X137480710Y-95724760D01*
X137493571Y-95729384D01*
X137506791Y-95732899D01*
X137520371Y-95735303D01*
X137534309Y-95736598D01*
X137543800Y-95736845D01*
X137558119Y-95736290D01*
X137572061Y-95734625D01*
X137585624Y-95731850D01*
X137598810Y-95727966D01*
X137611618Y-95722972D01*
X137624048Y-95716868D01*
X137636100Y-95709654D01*
X137647774Y-95701330D01*
X137659071Y-95691897D01*
X137669990Y-95681353D01*
X137677059Y-95673708D01*
X137687046Y-95661648D01*
X137696051Y-95649144D01*
X137704073Y-95636196D01*
X137711113Y-95622804D01*
X137717170Y-95608968D01*
X137722246Y-95594688D01*
X137726339Y-95579965D01*
X137729449Y-95564797D01*
X137731578Y-95549185D01*
X137732724Y-95533130D01*
X137732942Y-95522180D01*
X137732724Y-95511229D01*
X137732069Y-95500476D01*
X137730268Y-95484717D01*
X137727485Y-95469401D01*
X137723719Y-95454530D01*
X137718971Y-95440102D01*
X137713241Y-95426118D01*
X137706529Y-95412578D01*
X137698834Y-95399482D01*
X137690157Y-95386830D01*
X137680497Y-95374622D01*
X137677059Y-95370651D01*
X137666392Y-95359368D01*
X137655348Y-95349195D01*
X137643925Y-95340131D01*
X137632125Y-95332177D01*
X137619946Y-95325333D01*
X137607390Y-95319599D01*
X137594457Y-95314975D01*
X137581145Y-95311461D01*
X137567456Y-95309056D01*
X137553388Y-95307761D01*
X137543800Y-95307515D01*
X137529623Y-95308069D01*
X137515804Y-95309734D01*
X137502345Y-95312509D01*
X137489244Y-95316393D01*
X137476502Y-95321387D01*
X137464119Y-95327491D01*
X137452096Y-95334705D01*
X137440431Y-95343029D01*
X137429125Y-95352462D01*
X137418177Y-95363006D01*
X137411079Y-95370651D01*
X137400996Y-95382711D01*
X137391905Y-95395215D01*
X137383805Y-95408163D01*
X137376698Y-95421555D01*
X137370582Y-95435391D01*
X137365458Y-95449671D01*
X137361325Y-95464395D01*
X137358185Y-95479562D01*
X137356036Y-95495174D01*
X137354879Y-95511229D01*
X137354659Y-95522180D01*
X137199938Y-95522180D01*
X137199906Y-95520568D01*
X137200057Y-95509585D01*
X137200511Y-95498702D01*
X137201266Y-95487917D01*
X137202744Y-95473693D01*
X137204759Y-95459644D01*
X137207311Y-95445772D01*
X137210401Y-95432077D01*
X137214028Y-95418557D01*
X137217101Y-95408533D01*
X137221610Y-95395247D01*
X137226672Y-95382120D01*
X137232289Y-95369153D01*
X137238460Y-95356345D01*
X137245185Y-95343696D01*
X137250593Y-95334315D01*
X137256312Y-95325023D01*
X137262343Y-95315821D01*
X137268685Y-95306709D01*
X137217101Y-95306709D01*
X137217101Y-95125358D01*
X137217437Y-95111891D01*
X137218444Y-95099432D01*
X137220124Y-95087980D01*
X137223167Y-95075082D01*
X137227260Y-95063758D01*
X137232402Y-95054008D01*
X137238594Y-95045833D01*
X137247026Y-95037707D01*
X137256402Y-95031262D01*
X137266723Y-95026498D01*
X137277988Y-95023416D01*
X137290197Y-95022015D01*
X137294477Y-95021921D01*
X137307011Y-95022762D01*
G37*
G36*
X137251490Y-94311565D02*
G01*
X137241583Y-94302794D01*
X137233355Y-94293945D01*
X137226807Y-94285016D01*
X137221165Y-94274198D01*
X137217941Y-94263267D01*
X137217101Y-94254071D01*
X137217951Y-94241993D01*
X137220501Y-94230747D01*
X137224752Y-94220332D01*
X137230702Y-94210748D01*
X137238353Y-94201995D01*
X137241281Y-94199263D01*
X137251463Y-94191958D01*
X137261651Y-94187026D01*
X137273387Y-94183143D01*
X137283890Y-94180792D01*
X137295384Y-94179113D01*
X137307869Y-94178105D01*
X137321344Y-94177769D01*
X137422363Y-94177769D01*
X137436023Y-94178105D01*
X137448659Y-94179113D01*
X137460270Y-94180792D01*
X137470857Y-94183143D01*
X137482651Y-94187026D01*
X137492844Y-94191958D01*
X137502963Y-94199263D01*
X137510998Y-94207795D01*
X137517370Y-94217272D01*
X137522080Y-94227693D01*
X137525128Y-94239059D01*
X137526513Y-94251369D01*
X137526606Y-94255683D01*
X137525973Y-94267231D01*
X137524074Y-94278100D01*
X137520260Y-94289920D01*
X137514722Y-94300815D01*
X137508605Y-94309416D01*
X137500008Y-94316922D01*
X137489620Y-94322801D01*
X137478588Y-94327328D01*
X137467893Y-94330741D01*
X137455835Y-94333825D01*
X137453259Y-94334402D01*
X137440641Y-94337802D01*
X137428980Y-94342462D01*
X137418276Y-94348381D01*
X137408531Y-94355560D01*
X137399742Y-94363998D01*
X137391912Y-94373695D01*
X137389048Y-94377926D01*
X137382902Y-94389712D01*
X137377361Y-94402097D01*
X137372424Y-94415082D01*
X137368092Y-94428667D01*
X137364364Y-94442851D01*
X137361241Y-94457635D01*
X137358722Y-94473019D01*
X137356808Y-94489003D01*
X137355868Y-94499992D01*
X137355196Y-94511248D01*
X137354793Y-94522770D01*
X137354659Y-94534559D01*
X137354883Y-94548091D01*
X137355557Y-94561283D01*
X137356680Y-94574135D01*
X137358252Y-94586647D01*
X137360273Y-94598819D01*
X137362744Y-94610651D01*
X137365663Y-94622143D01*
X137369032Y-94633294D01*
X137372850Y-94644106D01*
X137377117Y-94654578D01*
X137381834Y-94664710D01*
X137386999Y-94674501D01*
X137392614Y-94683953D01*
X137398678Y-94693064D01*
X137405191Y-94701836D01*
X137412153Y-94710267D01*
X137419460Y-94718271D01*
X137430868Y-94729308D01*
X137442815Y-94739183D01*
X137455300Y-94747896D01*
X137468324Y-94755448D01*
X137481886Y-94761837D01*
X137495986Y-94767065D01*
X137510625Y-94771132D01*
X137525802Y-94774036D01*
X137541517Y-94775779D01*
X137552293Y-94776295D01*
X137557771Y-94776360D01*
X137572684Y-94775802D01*
X137586998Y-94774131D01*
X137600712Y-94771344D01*
X137613826Y-94767443D01*
X137626340Y-94762428D01*
X137638255Y-94756298D01*
X137649569Y-94749053D01*
X137660284Y-94740694D01*
X137670399Y-94731220D01*
X137679915Y-94720632D01*
X137685925Y-94712954D01*
X137694328Y-94700281D01*
X137701904Y-94686139D01*
X137706495Y-94675895D01*
X137710719Y-94664998D01*
X137714576Y-94653449D01*
X137718066Y-94641246D01*
X137721188Y-94628391D01*
X137723943Y-94614883D01*
X137726330Y-94600723D01*
X137728350Y-94585909D01*
X137730003Y-94570443D01*
X137731289Y-94554324D01*
X137732207Y-94537552D01*
X137732758Y-94520128D01*
X137732942Y-94502050D01*
X137732868Y-94490099D01*
X137732648Y-94478425D01*
X137732281Y-94467027D01*
X137731767Y-94455907D01*
X137731105Y-94445064D01*
X137729838Y-94429318D01*
X137728240Y-94414196D01*
X137726312Y-94399698D01*
X137724053Y-94385823D01*
X137721463Y-94372571D01*
X137718543Y-94359942D01*
X137715292Y-94347937D01*
X137714135Y-94344074D01*
X137710131Y-94332832D01*
X137705341Y-94321773D01*
X137699763Y-94310897D01*
X137693397Y-94300206D01*
X137686245Y-94289698D01*
X137678306Y-94279374D01*
X137674910Y-94275295D01*
X137666860Y-94265287D01*
X137660175Y-94255581D01*
X137654854Y-94246176D01*
X137650270Y-94235289D01*
X137647651Y-94224836D01*
X137646968Y-94216457D01*
X137647781Y-94204871D01*
X137650218Y-94193889D01*
X137654279Y-94183512D01*
X137659965Y-94173739D01*
X137667276Y-94164571D01*
X137670074Y-94161649D01*
X137678940Y-94153797D01*
X137688410Y-94147569D01*
X137698485Y-94142966D01*
X137709165Y-94139988D01*
X137720449Y-94138634D01*
X137724345Y-94138544D01*
X137736888Y-94139644D01*
X137749263Y-94142943D01*
X137761471Y-94148443D01*
X137773511Y-94156142D01*
X137782430Y-94163359D01*
X137791255Y-94171814D01*
X137799986Y-94181507D01*
X137808622Y-94192437D01*
X137817164Y-94204604D01*
X137819990Y-94208935D01*
X137828189Y-94222343D01*
X137835858Y-94236507D01*
X137842999Y-94251426D01*
X137849611Y-94267101D01*
X137855693Y-94283532D01*
X137861247Y-94300718D01*
X137866272Y-94318660D01*
X137870768Y-94337358D01*
X137874735Y-94356811D01*
X137878173Y-94377020D01*
X137881082Y-94397984D01*
X137882339Y-94408750D01*
X137883463Y-94419704D01*
X137884454Y-94430847D01*
X137885314Y-94442180D01*
X137886041Y-94453701D01*
X137886636Y-94465411D01*
X137887099Y-94477310D01*
X137887430Y-94489398D01*
X137887628Y-94501675D01*
X137887694Y-94514140D01*
X137887625Y-94525346D01*
X137887419Y-94536396D01*
X137887076Y-94547289D01*
X137886594Y-94558026D01*
X137885220Y-94579030D01*
X137883295Y-94599409D01*
X137880820Y-94619162D01*
X137877795Y-94638290D01*
X137874221Y-94656792D01*
X137870096Y-94674669D01*
X137865422Y-94691920D01*
X137860198Y-94708546D01*
X137854424Y-94724547D01*
X137848099Y-94739922D01*
X137841225Y-94754671D01*
X137833801Y-94768795D01*
X137825827Y-94782293D01*
X137817303Y-94795166D01*
X137805244Y-94811628D01*
X137792641Y-94827029D01*
X137779494Y-94841367D01*
X137765803Y-94854642D01*
X137751569Y-94866856D01*
X137736791Y-94878008D01*
X137721470Y-94888098D01*
X137705605Y-94897125D01*
X137689196Y-94905091D01*
X137672244Y-94911995D01*
X137654748Y-94917836D01*
X137636709Y-94922615D01*
X137618126Y-94926333D01*
X137598999Y-94928988D01*
X137579328Y-94930581D01*
X137559114Y-94931112D01*
X137539879Y-94930682D01*
X137521064Y-94929391D01*
X137502669Y-94927239D01*
X137484693Y-94924227D01*
X137467138Y-94920355D01*
X137450002Y-94915622D01*
X137433286Y-94910028D01*
X137416989Y-94903574D01*
X137401113Y-94896259D01*
X137385656Y-94888083D01*
X137370619Y-94879047D01*
X137356002Y-94869151D01*
X137341805Y-94858393D01*
X137328027Y-94846776D01*
X137314669Y-94834297D01*
X137301731Y-94820958D01*
X137289401Y-94806893D01*
X137277866Y-94792303D01*
X137267127Y-94777189D01*
X137257183Y-94761549D01*
X137248034Y-94745385D01*
X137239682Y-94728696D01*
X137232124Y-94711483D01*
X137225363Y-94693744D01*
X137219396Y-94675481D01*
X137214225Y-94656694D01*
X137209850Y-94637381D01*
X137206270Y-94617544D01*
X137203486Y-94597182D01*
X137201497Y-94576295D01*
X137200304Y-94554883D01*
X137200006Y-94543981D01*
X137199906Y-94532947D01*
X137200020Y-94520988D01*
X137200360Y-94509189D01*
X137200926Y-94497551D01*
X137201720Y-94486073D01*
X137202740Y-94474756D01*
X137203987Y-94463600D01*
X137205460Y-94452604D01*
X137207160Y-94441768D01*
X137209087Y-94431093D01*
X137212009Y-94417110D01*
X137212802Y-94413659D01*
X137216228Y-94399957D01*
X137220056Y-94386524D01*
X137224288Y-94373359D01*
X137228922Y-94360463D01*
X137233960Y-94347836D01*
X137239400Y-94335477D01*
X137245244Y-94323387D01*
X137251490Y-94311565D01*
G37*
G36*
X137715747Y-93712169D02*
G01*
X137715747Y-93440278D01*
X137702343Y-93439438D01*
X137689938Y-93437994D01*
X137678533Y-93435946D01*
X137665680Y-93432535D01*
X137654389Y-93428180D01*
X137644659Y-93422880D01*
X137636490Y-93416635D01*
X137628364Y-93408125D01*
X137621919Y-93398916D01*
X137617156Y-93389008D01*
X137614074Y-93378401D01*
X137612672Y-93367095D01*
X137612579Y-93363170D01*
X137613420Y-93350637D01*
X137615942Y-93339028D01*
X137620145Y-93328346D01*
X137626029Y-93318589D01*
X137633595Y-93309757D01*
X137636490Y-93307019D01*
X137646480Y-93299623D01*
X137656523Y-93294629D01*
X137668126Y-93290698D01*
X137681290Y-93287829D01*
X137692946Y-93286298D01*
X137705601Y-93285448D01*
X137715747Y-93285257D01*
X137870500Y-93285257D01*
X137870500Y-93959343D01*
X137748256Y-93959343D01*
X137371853Y-93551237D01*
X137371853Y-93788739D01*
X137389048Y-93788739D01*
X137402456Y-93789075D01*
X137414874Y-93790083D01*
X137426300Y-93791762D01*
X137439191Y-93794805D01*
X137450533Y-93798898D01*
X137460327Y-93804041D01*
X137468573Y-93810233D01*
X137476608Y-93818755D01*
X137482981Y-93828204D01*
X137487691Y-93838578D01*
X137490739Y-93849878D01*
X137492124Y-93862103D01*
X137492216Y-93866384D01*
X137491385Y-93879009D01*
X137488891Y-93890690D01*
X137484735Y-93901426D01*
X137478917Y-93911218D01*
X137471436Y-93920065D01*
X137468573Y-93922804D01*
X137458492Y-93930109D01*
X137448388Y-93935041D01*
X137436736Y-93938924D01*
X137423537Y-93941758D01*
X137411862Y-93943269D01*
X137399197Y-93944109D01*
X137389048Y-93944298D01*
X137217101Y-93943492D01*
X137217101Y-93302720D01*
X137338001Y-93302720D01*
X137715747Y-93712169D01*
G37*
D11*
G36*
X120315475Y-100311919D02*
G01*
X120739969Y-100311919D01*
X120761989Y-100312522D01*
X120782375Y-100314331D01*
X120805562Y-100318288D01*
X120826196Y-100324129D01*
X120844278Y-100331855D01*
X120862608Y-100343613D01*
X120870394Y-100350509D01*
X120883675Y-100365839D01*
X120894208Y-100382887D01*
X120901993Y-100401651D01*
X120907031Y-100422133D01*
X120909321Y-100444333D01*
X120909473Y-100452114D01*
X120908099Y-100475069D01*
X120903978Y-100496307D01*
X120897109Y-100515827D01*
X120887491Y-100533630D01*
X120875127Y-100549716D01*
X120870394Y-100554696D01*
X120853902Y-100567977D01*
X120833735Y-100578510D01*
X120814122Y-100585188D01*
X120791956Y-100589959D01*
X120772386Y-100592401D01*
X120751183Y-100593622D01*
X120739969Y-100593775D01*
X120315475Y-100593775D01*
X120315475Y-100996287D01*
X120314864Y-101020780D01*
X120313032Y-101043457D01*
X120309979Y-101064317D01*
X120304446Y-101087837D01*
X120297004Y-101108519D01*
X120287654Y-101126362D01*
X120276396Y-101141368D01*
X120260900Y-101155976D01*
X120243721Y-101167563D01*
X120224859Y-101176126D01*
X120204314Y-101181668D01*
X120182086Y-101184186D01*
X120174302Y-101184354D01*
X120151365Y-101182843D01*
X120130178Y-101178309D01*
X120110744Y-101170753D01*
X120093061Y-101160174D01*
X120077130Y-101146573D01*
X120072209Y-101141368D01*
X120058962Y-101123021D01*
X120050075Y-101104609D01*
X120043144Y-101083360D01*
X120038168Y-101059272D01*
X120035596Y-101037958D01*
X120034276Y-101014827D01*
X120034107Y-100996287D01*
X120034107Y-100593775D01*
X119610101Y-100593775D01*
X119588188Y-100593164D01*
X119567878Y-100591333D01*
X119544744Y-100587326D01*
X119524115Y-100581410D01*
X119505990Y-100573587D01*
X119487545Y-100561680D01*
X119479676Y-100554696D01*
X119466229Y-100539183D01*
X119455564Y-100521952D01*
X119447682Y-100503005D01*
X119442581Y-100482339D01*
X119440263Y-100459957D01*
X119440108Y-100452114D01*
X119441482Y-100429325D01*
X119445604Y-100408219D01*
X119452473Y-100388796D01*
X119462090Y-100371056D01*
X119474455Y-100354999D01*
X119479187Y-100350021D01*
X119495697Y-100336740D01*
X119515915Y-100326207D01*
X119535598Y-100319529D01*
X119557856Y-100314758D01*
X119577518Y-100312316D01*
X119598828Y-100311095D01*
X119610101Y-100310942D01*
X120034107Y-100311919D01*
X120034107Y-99909407D01*
X120034710Y-99884921D01*
X120036519Y-99862268D01*
X120039534Y-99841446D01*
X120044998Y-99817995D01*
X120052347Y-99797406D01*
X120061580Y-99779679D01*
X120072697Y-99764815D01*
X120087879Y-99750040D01*
X120104846Y-99738322D01*
X120123599Y-99729661D01*
X120144138Y-99724057D01*
X120166464Y-99721509D01*
X120174302Y-99721340D01*
X120197091Y-99722868D01*
X120218197Y-99727453D01*
X120237620Y-99735095D01*
X120255360Y-99745794D01*
X120271418Y-99759550D01*
X120276396Y-99764815D01*
X120289677Y-99782996D01*
X120298645Y-99801295D01*
X120305705Y-99822456D01*
X120310857Y-99846480D01*
X120313605Y-99867759D01*
X120315131Y-99890871D01*
X120315475Y-99909407D01*
X120315475Y-100311919D01*
G37*
D10*
%TO.C,r2*%
G36*
X126549101Y-101583928D02*
G01*
X126647971Y-101583928D01*
X126639454Y-101571899D01*
X126631301Y-101560193D01*
X126623510Y-101548810D01*
X126616083Y-101537751D01*
X126609019Y-101527015D01*
X126602318Y-101516602D01*
X126595980Y-101506512D01*
X126590006Y-101496746D01*
X126584394Y-101487302D01*
X126576658Y-101473744D01*
X126569738Y-101460912D01*
X126563636Y-101448808D01*
X126558350Y-101437431D01*
X126555280Y-101430250D01*
X126551103Y-101419735D01*
X126547337Y-101409348D01*
X126543981Y-101399088D01*
X126540147Y-101385606D01*
X126537042Y-101372351D01*
X126534668Y-101359323D01*
X126533025Y-101346522D01*
X126532112Y-101333947D01*
X126531906Y-101324664D01*
X126532383Y-101310549D01*
X126533814Y-101296514D01*
X126536199Y-101282559D01*
X126539538Y-101268685D01*
X126543831Y-101254891D01*
X126549078Y-101241177D01*
X126555279Y-101227543D01*
X126562434Y-101213990D01*
X126570542Y-101200517D01*
X126579605Y-101187125D01*
X126586177Y-101178241D01*
X126593090Y-101169598D01*
X126602345Y-101159397D01*
X126611641Y-101150708D01*
X126620979Y-101143529D01*
X126630359Y-101137862D01*
X126642144Y-101132903D01*
X126653994Y-101130306D01*
X126661135Y-101129881D01*
X126672885Y-101130693D01*
X126683955Y-101133130D01*
X126694345Y-101137191D01*
X126704055Y-101142877D01*
X126713085Y-101150188D01*
X126715943Y-101152986D01*
X126723522Y-101161890D01*
X126729532Y-101171474D01*
X126733974Y-101181738D01*
X126736849Y-101192682D01*
X126738156Y-101204306D01*
X126738243Y-101208331D01*
X126737336Y-101219225D01*
X126734616Y-101230345D01*
X126730082Y-101241692D01*
X126724918Y-101251321D01*
X126718496Y-101261108D01*
X126712451Y-101269050D01*
X126705020Y-101278793D01*
X126698849Y-101288208D01*
X126693107Y-101299074D01*
X126689177Y-101309467D01*
X126686885Y-101320995D01*
X126686659Y-101325739D01*
X126687590Y-101336678D01*
X126690384Y-101349179D01*
X126693961Y-101360304D01*
X126698730Y-101372427D01*
X126704691Y-101385550D01*
X126709944Y-101396048D01*
X126715868Y-101407107D01*
X126722462Y-101418729D01*
X126724809Y-101422728D01*
X126732298Y-101435101D01*
X126740457Y-101448041D01*
X126749287Y-101461548D01*
X126755546Y-101470867D01*
X126762103Y-101480439D01*
X126768958Y-101490262D01*
X126776112Y-101500337D01*
X126783563Y-101510664D01*
X126791312Y-101521243D01*
X126799360Y-101532073D01*
X126807705Y-101543156D01*
X126816349Y-101554490D01*
X126825290Y-101566076D01*
X126834530Y-101577915D01*
X126839262Y-101583928D01*
X127047747Y-101583928D01*
X127047747Y-101363352D01*
X127048083Y-101349885D01*
X127049091Y-101337426D01*
X127050770Y-101325974D01*
X127053813Y-101313076D01*
X127057906Y-101301752D01*
X127063049Y-101292002D01*
X127069241Y-101283827D01*
X127077672Y-101275701D01*
X127087048Y-101269256D01*
X127097369Y-101264492D01*
X127108634Y-101261410D01*
X127120844Y-101260009D01*
X127125123Y-101259916D01*
X127137657Y-101260756D01*
X127149266Y-101263278D01*
X127159948Y-101267481D01*
X127169705Y-101273366D01*
X127178537Y-101280931D01*
X127181275Y-101283827D01*
X127188488Y-101293826D01*
X127193359Y-101303891D01*
X127197193Y-101315530D01*
X127199992Y-101328743D01*
X127201484Y-101340446D01*
X127202313Y-101353158D01*
X127202500Y-101363352D01*
X127202500Y-101831102D01*
X127202168Y-101844573D01*
X127201173Y-101857045D01*
X127199515Y-101868518D01*
X127196509Y-101881454D01*
X127192468Y-101892829D01*
X127187389Y-101902643D01*
X127181275Y-101910896D01*
X127172752Y-101918931D01*
X127163303Y-101925303D01*
X127152929Y-101930013D01*
X127141630Y-101933061D01*
X127129404Y-101934446D01*
X127125123Y-101934539D01*
X127112599Y-101933708D01*
X127101019Y-101931214D01*
X127090383Y-101927058D01*
X127080693Y-101921240D01*
X127071946Y-101913759D01*
X127069241Y-101910896D01*
X127061936Y-101900805D01*
X127057004Y-101890679D01*
X127053121Y-101878992D01*
X127050287Y-101865743D01*
X127048776Y-101854021D01*
X127047936Y-101841299D01*
X127047747Y-101831102D01*
X127047747Y-101738949D01*
X126703853Y-101738949D01*
X126703853Y-101794832D01*
X126703522Y-101808303D01*
X126702527Y-101820775D01*
X126700869Y-101832248D01*
X126697863Y-101845184D01*
X126693821Y-101856559D01*
X126688743Y-101866373D01*
X126682629Y-101874626D01*
X126674106Y-101882661D01*
X126664657Y-101889033D01*
X126654283Y-101893743D01*
X126642983Y-101896791D01*
X126630758Y-101898176D01*
X126626477Y-101898269D01*
X126613953Y-101897437D01*
X126602373Y-101894944D01*
X126591737Y-101890788D01*
X126582046Y-101884970D01*
X126573300Y-101877489D01*
X126570594Y-101874626D01*
X126563290Y-101864535D01*
X126558357Y-101854409D01*
X126554474Y-101842722D01*
X126551641Y-101829473D01*
X126550130Y-101817751D01*
X126549290Y-101805029D01*
X126549101Y-101794832D01*
X126549101Y-101583928D01*
G37*
G36*
X127047747Y-100772285D02*
G01*
X127047747Y-100432958D01*
X127041904Y-100422593D01*
X127037269Y-100412455D01*
X127033390Y-100400914D01*
X127031157Y-100389682D01*
X127030553Y-100380299D01*
X127031374Y-100367520D01*
X127033840Y-100355779D01*
X127037948Y-100345078D01*
X127043700Y-100335415D01*
X127051096Y-100326792D01*
X127053927Y-100324148D01*
X127063854Y-100317026D01*
X127073901Y-100312217D01*
X127085562Y-100308431D01*
X127098837Y-100305668D01*
X127110618Y-100304195D01*
X127123432Y-100303376D01*
X127133721Y-100303192D01*
X127202500Y-100303192D01*
X127202500Y-101008980D01*
X127030553Y-101008980D01*
X127010693Y-100983143D01*
X126991282Y-100957953D01*
X126972318Y-100933410D01*
X126953802Y-100909515D01*
X126935733Y-100886267D01*
X126918112Y-100863667D01*
X126900939Y-100841715D01*
X126884213Y-100820410D01*
X126867935Y-100799752D01*
X126852104Y-100779742D01*
X126836721Y-100760380D01*
X126821786Y-100741665D01*
X126807298Y-100723598D01*
X126793258Y-100706178D01*
X126779665Y-100689406D01*
X126766520Y-100673281D01*
X126753823Y-100657804D01*
X126741573Y-100642974D01*
X126729770Y-100628792D01*
X126718416Y-100615257D01*
X126707509Y-100602370D01*
X126697050Y-100590130D01*
X126687038Y-100578538D01*
X126677474Y-100567594D01*
X126668357Y-100557297D01*
X126659688Y-100547647D01*
X126651467Y-100538646D01*
X126643693Y-100530291D01*
X126629488Y-100515525D01*
X126617074Y-100503349D01*
X126608301Y-100495523D01*
X126599613Y-100488466D01*
X126588161Y-100480255D01*
X126576860Y-100473412D01*
X126565710Y-100467938D01*
X126554712Y-100463833D01*
X126543864Y-100461096D01*
X126533168Y-100459727D01*
X126527876Y-100459556D01*
X126514905Y-100460329D01*
X126502319Y-100462646D01*
X126490120Y-100466508D01*
X126478307Y-100471915D01*
X126466880Y-100478867D01*
X126455840Y-100487363D01*
X126447813Y-100494749D01*
X126440003Y-100503005D01*
X126434918Y-100508991D01*
X126427667Y-100518550D01*
X126421130Y-100528691D01*
X126415307Y-100539412D01*
X126410196Y-100550714D01*
X126405798Y-100562597D01*
X126402114Y-100575061D01*
X126399143Y-100588106D01*
X126396884Y-100601731D01*
X126395339Y-100615938D01*
X126394507Y-100630725D01*
X126394349Y-100640906D01*
X126394786Y-100656227D01*
X126396096Y-100671056D01*
X126398280Y-100685394D01*
X126401338Y-100699241D01*
X126405270Y-100712596D01*
X126410075Y-100725461D01*
X126415754Y-100737834D01*
X126422307Y-100749717D01*
X126429733Y-100761108D01*
X126438033Y-100772008D01*
X126444052Y-100779001D01*
X126452987Y-100787709D01*
X126463168Y-100795867D01*
X126472211Y-100801995D01*
X126482051Y-100807772D01*
X126492688Y-100813196D01*
X126504123Y-100818267D01*
X126516356Y-100822985D01*
X126522772Y-100825212D01*
X126534402Y-100829425D01*
X126544710Y-100834204D01*
X126555065Y-100840496D01*
X126563620Y-100847560D01*
X126569520Y-100854228D01*
X126575632Y-100864035D01*
X126579998Y-100874916D01*
X126582617Y-100886871D01*
X126583477Y-100898214D01*
X126583490Y-100899902D01*
X126582688Y-100911488D01*
X126580279Y-100922470D01*
X126576265Y-100932847D01*
X126570645Y-100942620D01*
X126563419Y-100951788D01*
X126560654Y-100954710D01*
X126551715Y-100962562D01*
X126542229Y-100968789D01*
X126532195Y-100973393D01*
X126521613Y-100976371D01*
X126510483Y-100977725D01*
X126506652Y-100977815D01*
X126494805Y-100977160D01*
X126482237Y-100975196D01*
X126468946Y-100971921D01*
X126458504Y-100968606D01*
X126447656Y-100964554D01*
X126436402Y-100959765D01*
X126424742Y-100954239D01*
X126412675Y-100947977D01*
X126400203Y-100940978D01*
X126391662Y-100935903D01*
X126378959Y-100927707D01*
X126366742Y-100918835D01*
X126355012Y-100909288D01*
X126343768Y-100899066D01*
X126333011Y-100888169D01*
X126322740Y-100876596D01*
X126312955Y-100864348D01*
X126303657Y-100851424D01*
X126297728Y-100842433D01*
X126292016Y-100833142D01*
X126286520Y-100823551D01*
X126281240Y-100813659D01*
X126276197Y-100803530D01*
X126271480Y-100793291D01*
X126267088Y-100782943D01*
X126263021Y-100772486D01*
X126259280Y-100761920D01*
X126255863Y-100751245D01*
X126252773Y-100740460D01*
X126250007Y-100729567D01*
X126247567Y-100718564D01*
X126245453Y-100707452D01*
X126243663Y-100696231D01*
X126242199Y-100684901D01*
X126241061Y-100673461D01*
X126240247Y-100661913D01*
X126239759Y-100650255D01*
X126239596Y-100638488D01*
X126239939Y-100620391D01*
X126240965Y-100602705D01*
X126242676Y-100585431D01*
X126245071Y-100568568D01*
X126248150Y-100552116D01*
X126251913Y-100536076D01*
X126256361Y-100520447D01*
X126261493Y-100505230D01*
X126267309Y-100490423D01*
X126273810Y-100476029D01*
X126280994Y-100462046D01*
X126288863Y-100448474D01*
X126297417Y-100435313D01*
X126306654Y-100422564D01*
X126316576Y-100410226D01*
X126327182Y-100398300D01*
X126338241Y-100386946D01*
X126349591Y-100376324D01*
X126361229Y-100366435D01*
X126373158Y-100357278D01*
X126385376Y-100348854D01*
X126397883Y-100341162D01*
X126410681Y-100334203D01*
X126423768Y-100327976D01*
X126437145Y-100322482D01*
X126450811Y-100317721D01*
X126464767Y-100313692D01*
X126479012Y-100310396D01*
X126493548Y-100307832D01*
X126508373Y-100306000D01*
X126523487Y-100304901D01*
X126538892Y-100304535D01*
X126550698Y-100304771D01*
X126562338Y-100305480D01*
X126573813Y-100306660D01*
X126585123Y-100308313D01*
X126596268Y-100310439D01*
X126607248Y-100313036D01*
X126618062Y-100316106D01*
X126628710Y-100319648D01*
X126639194Y-100323662D01*
X126649512Y-100328149D01*
X126656299Y-100331402D01*
X126666725Y-100337098D01*
X126677750Y-100344112D01*
X126689374Y-100352444D01*
X126701599Y-100362093D01*
X126710082Y-100369258D01*
X126718831Y-100377008D01*
X126727848Y-100385344D01*
X126737130Y-100394266D01*
X126746679Y-100403773D01*
X126756495Y-100413866D01*
X126766578Y-100424544D01*
X126776927Y-100435808D01*
X126787542Y-100447658D01*
X126798424Y-100460093D01*
X126807553Y-100470727D01*
X126817541Y-100482544D01*
X126828391Y-100495545D01*
X126840101Y-100509730D01*
X126852672Y-100525098D01*
X126866103Y-100541651D01*
X126873141Y-100550371D01*
X126880395Y-100559387D01*
X126887864Y-100568699D01*
X126895547Y-100578307D01*
X126903446Y-100588211D01*
X126911560Y-100598411D01*
X126919889Y-100608907D01*
X126928434Y-100619699D01*
X126937193Y-100630786D01*
X126946168Y-100642170D01*
X126955358Y-100653850D01*
X126964763Y-100665825D01*
X126974383Y-100678097D01*
X126984218Y-100690664D01*
X126994268Y-100703528D01*
X127004534Y-100716687D01*
X127015014Y-100730143D01*
X127025710Y-100743894D01*
X127036621Y-100757941D01*
X127047747Y-100772285D01*
G37*
%TO.C,r1*%
G36*
X129199101Y-94979928D02*
G01*
X129297971Y-94979928D01*
X129289454Y-94967899D01*
X129281301Y-94956193D01*
X129273510Y-94944810D01*
X129266083Y-94933751D01*
X129259019Y-94923015D01*
X129252318Y-94912602D01*
X129245980Y-94902512D01*
X129240006Y-94892746D01*
X129234394Y-94883302D01*
X129226658Y-94869744D01*
X129219738Y-94856912D01*
X129213636Y-94844808D01*
X129208350Y-94833431D01*
X129205280Y-94826250D01*
X129201103Y-94815735D01*
X129197337Y-94805348D01*
X129193981Y-94795088D01*
X129190147Y-94781606D01*
X129187042Y-94768351D01*
X129184668Y-94755323D01*
X129183025Y-94742522D01*
X129182112Y-94729947D01*
X129181906Y-94720664D01*
X129182383Y-94706549D01*
X129183814Y-94692514D01*
X129186199Y-94678559D01*
X129189538Y-94664685D01*
X129193831Y-94650891D01*
X129199078Y-94637177D01*
X129205279Y-94623543D01*
X129212434Y-94609990D01*
X129220542Y-94596517D01*
X129229605Y-94583125D01*
X129236177Y-94574241D01*
X129243090Y-94565598D01*
X129252345Y-94555397D01*
X129261641Y-94546708D01*
X129270979Y-94539529D01*
X129280359Y-94533862D01*
X129292144Y-94528903D01*
X129303994Y-94526306D01*
X129311135Y-94525881D01*
X129322885Y-94526693D01*
X129333955Y-94529130D01*
X129344345Y-94533191D01*
X129354055Y-94538877D01*
X129363085Y-94546188D01*
X129365943Y-94548986D01*
X129373522Y-94557890D01*
X129379532Y-94567474D01*
X129383974Y-94577738D01*
X129386849Y-94588682D01*
X129388156Y-94600306D01*
X129388243Y-94604331D01*
X129387336Y-94615225D01*
X129384616Y-94626345D01*
X129380082Y-94637692D01*
X129374918Y-94647321D01*
X129368496Y-94657108D01*
X129362451Y-94665050D01*
X129355020Y-94674793D01*
X129348849Y-94684208D01*
X129343107Y-94695074D01*
X129339177Y-94705467D01*
X129336885Y-94716995D01*
X129336659Y-94721739D01*
X129337590Y-94732678D01*
X129340384Y-94745179D01*
X129343961Y-94756304D01*
X129348730Y-94768427D01*
X129354691Y-94781550D01*
X129359944Y-94792048D01*
X129365868Y-94803107D01*
X129372462Y-94814729D01*
X129374809Y-94818728D01*
X129382298Y-94831101D01*
X129390457Y-94844041D01*
X129399287Y-94857548D01*
X129405546Y-94866867D01*
X129412103Y-94876439D01*
X129418958Y-94886262D01*
X129426112Y-94896337D01*
X129433563Y-94906664D01*
X129441312Y-94917243D01*
X129449360Y-94928073D01*
X129457705Y-94939156D01*
X129466349Y-94950490D01*
X129475290Y-94962076D01*
X129484530Y-94973915D01*
X129489262Y-94979928D01*
X129697747Y-94979928D01*
X129697747Y-94759352D01*
X129698083Y-94745885D01*
X129699091Y-94733426D01*
X129700770Y-94721974D01*
X129703813Y-94709076D01*
X129707906Y-94697752D01*
X129713049Y-94688002D01*
X129719241Y-94679827D01*
X129727672Y-94671701D01*
X129737048Y-94665256D01*
X129747369Y-94660492D01*
X129758634Y-94657410D01*
X129770844Y-94656009D01*
X129775123Y-94655916D01*
X129787657Y-94656756D01*
X129799266Y-94659278D01*
X129809948Y-94663481D01*
X129819705Y-94669366D01*
X129828537Y-94676931D01*
X129831275Y-94679827D01*
X129838488Y-94689826D01*
X129843359Y-94699891D01*
X129847193Y-94711530D01*
X129849992Y-94724743D01*
X129851484Y-94736446D01*
X129852313Y-94749158D01*
X129852500Y-94759352D01*
X129852500Y-95227102D01*
X129852168Y-95240573D01*
X129851173Y-95253045D01*
X129849515Y-95264518D01*
X129846509Y-95277454D01*
X129842468Y-95288829D01*
X129837389Y-95298643D01*
X129831275Y-95306896D01*
X129822752Y-95314931D01*
X129813303Y-95321303D01*
X129802929Y-95326013D01*
X129791630Y-95329061D01*
X129779404Y-95330446D01*
X129775123Y-95330539D01*
X129762599Y-95329708D01*
X129751019Y-95327214D01*
X129740383Y-95323058D01*
X129730693Y-95317240D01*
X129721946Y-95309759D01*
X129719241Y-95306896D01*
X129711936Y-95296805D01*
X129707004Y-95286679D01*
X129703121Y-95274992D01*
X129700287Y-95261743D01*
X129698776Y-95250021D01*
X129697936Y-95237299D01*
X129697747Y-95227102D01*
X129697747Y-95134949D01*
X129353853Y-95134949D01*
X129353853Y-95190832D01*
X129353522Y-95204303D01*
X129352527Y-95216775D01*
X129350869Y-95228248D01*
X129347863Y-95241184D01*
X129343821Y-95252559D01*
X129338743Y-95262373D01*
X129332629Y-95270626D01*
X129324106Y-95278661D01*
X129314657Y-95285033D01*
X129304283Y-95289743D01*
X129292983Y-95292791D01*
X129280758Y-95294176D01*
X129276477Y-95294269D01*
X129263953Y-95293437D01*
X129252373Y-95290944D01*
X129241737Y-95286788D01*
X129232046Y-95280970D01*
X129223300Y-95273489D01*
X129220594Y-95270626D01*
X129213290Y-95260535D01*
X129208357Y-95250409D01*
X129204474Y-95238722D01*
X129201641Y-95225473D01*
X129200130Y-95213751D01*
X129199290Y-95201029D01*
X129199101Y-95190832D01*
X129199101Y-94979928D01*
G37*
G36*
X128889596Y-93944754D02*
G01*
X129697747Y-93944754D01*
X129697747Y-93788389D01*
X129698083Y-93774859D01*
X129699091Y-93762345D01*
X129700770Y-93750847D01*
X129703813Y-93737903D01*
X129707906Y-93726547D01*
X129713049Y-93716777D01*
X129719241Y-93708595D01*
X129727672Y-93700469D01*
X129737048Y-93694024D01*
X129747369Y-93689261D01*
X129758634Y-93686178D01*
X129770844Y-93684777D01*
X129775123Y-93684684D01*
X129787657Y-93685524D01*
X129799266Y-93688046D01*
X129809948Y-93692250D01*
X129819705Y-93698134D01*
X129828537Y-93705700D01*
X129831275Y-93708595D01*
X129838488Y-93718604D01*
X129843359Y-93728691D01*
X129847193Y-93740365D01*
X129849992Y-93753627D01*
X129851484Y-93765379D01*
X129852313Y-93778147D01*
X129852500Y-93788389D01*
X129852500Y-94256139D01*
X129852168Y-94269610D01*
X129851173Y-94282082D01*
X129849515Y-94293555D01*
X129846509Y-94306491D01*
X129842468Y-94317866D01*
X129837389Y-94327680D01*
X129831275Y-94335933D01*
X129822752Y-94343968D01*
X129813303Y-94350340D01*
X129802929Y-94355050D01*
X129791630Y-94358098D01*
X129779404Y-94359483D01*
X129775123Y-94359576D01*
X129762599Y-94358744D01*
X129751019Y-94356251D01*
X129740383Y-94352095D01*
X129730693Y-94346277D01*
X129721946Y-94338796D01*
X129719241Y-94335933D01*
X129711936Y-94325842D01*
X129707004Y-94315716D01*
X129703121Y-94304029D01*
X129700287Y-94290780D01*
X129698776Y-94279058D01*
X129697936Y-94266336D01*
X129697747Y-94256139D01*
X129697747Y-94099506D01*
X129100232Y-94099506D01*
X129138114Y-94237869D01*
X129141309Y-94249777D01*
X129143844Y-94260513D01*
X129145965Y-94271558D01*
X129147287Y-94282229D01*
X129147517Y-94287842D01*
X129146657Y-94298641D01*
X129143482Y-94310523D01*
X129137967Y-94321635D01*
X129131377Y-94330545D01*
X129123068Y-94338888D01*
X129113513Y-94346193D01*
X129103183Y-94351986D01*
X129092078Y-94356268D01*
X129080199Y-94359038D01*
X129067545Y-94360298D01*
X129063155Y-94360382D01*
X129051547Y-94359824D01*
X129040902Y-94358153D01*
X129029701Y-94354793D01*
X129019811Y-94349917D01*
X129012377Y-94344530D01*
X129004473Y-94335924D01*
X128998025Y-94325887D01*
X128992882Y-94315647D01*
X128987950Y-94303701D01*
X128984155Y-94292916D01*
X128980494Y-94281040D01*
X128979600Y-94277901D01*
X128889596Y-93944754D01*
G37*
D12*
%TO.C,J0*%
X124266000Y-101645000D02*
X122936000Y-101645000D01*
X124266000Y-100315000D02*
X124266000Y-101645000D01*
X124266000Y-99045000D02*
X124266000Y-93905000D01*
X124266000Y-99045000D02*
X121606000Y-99045000D01*
X124266000Y-93905000D02*
X121606000Y-93905000D01*
X121606000Y-99045000D02*
X121606000Y-93905000D01*
%TO.C,r2*%
X127481000Y-97562936D02*
X127481000Y-98017064D01*
X126011000Y-97562936D02*
X126011000Y-98017064D01*
%TO.C,r1*%
X130131000Y-97562936D02*
X130131000Y-98017064D01*
X128661000Y-97562936D02*
X128661000Y-98017064D01*
%TD*%
M02*
