%TF.SameCoordinates,Original*%
%TF.FileFunction,Legend,Bot*%
%TF.FilePolarity,Positive*%
%FSLAX46Y46*%
G04 Gerber Fmt 4.6, Leading zero omitted, Abs format (unit mm)*
%MOMM*%
%LPD*%
G01*
G04 APERTURE LIST*
%ADD10C,0.160000*%
%ADD11C,0.120000*%
G04 APERTURE END LIST*
D10*
%TO.C,U1*%
G36*
X129504490Y-96185251D02*
G01*
X129494583Y-96194022D01*
X129486355Y-96202872D01*
X129479807Y-96211800D01*
X129474165Y-96222618D01*
X129470941Y-96233550D01*
X129470101Y-96242746D01*
X129470951Y-96254823D01*
X129473501Y-96266069D01*
X129477752Y-96276485D01*
X129483702Y-96286068D01*
X129491353Y-96294821D01*
X129494281Y-96297554D01*
X129504463Y-96304858D01*
X129514651Y-96309791D01*
X129526387Y-96313674D01*
X129536890Y-96316025D01*
X129548384Y-96317704D01*
X129560869Y-96318711D01*
X129574344Y-96319047D01*
X129675363Y-96319047D01*
X129689023Y-96318711D01*
X129701659Y-96317704D01*
X129713270Y-96316025D01*
X129723857Y-96313674D01*
X129735651Y-96309791D01*
X129745844Y-96304858D01*
X129755963Y-96297554D01*
X129763998Y-96289022D01*
X129770370Y-96279545D01*
X129775080Y-96269123D01*
X129778128Y-96257758D01*
X129779513Y-96245447D01*
X129779606Y-96241134D01*
X129778973Y-96229585D01*
X129777074Y-96218717D01*
X129773260Y-96206897D01*
X129767722Y-96196002D01*
X129761605Y-96187400D01*
X129753008Y-96179895D01*
X129742620Y-96174016D01*
X129731588Y-96169488D01*
X129720893Y-96166076D01*
X129708835Y-96162992D01*
X129706259Y-96162414D01*
X129693641Y-96159014D01*
X129681980Y-96154354D01*
X129671276Y-96148435D01*
X129661531Y-96141257D01*
X129652742Y-96132819D01*
X129644912Y-96123122D01*
X129642048Y-96118890D01*
X129635902Y-96107105D01*
X129630361Y-96094720D01*
X129625424Y-96081735D01*
X129621092Y-96068150D01*
X129617364Y-96053965D01*
X129614241Y-96039181D01*
X129611722Y-96023797D01*
X129609808Y-96007813D01*
X129608868Y-95996824D01*
X129608196Y-95985568D01*
X129607793Y-95974046D01*
X129607659Y-95962257D01*
X129607883Y-95948725D01*
X129608557Y-95935533D01*
X129609680Y-95922681D01*
X129611252Y-95910169D01*
X129613273Y-95897998D01*
X129615744Y-95886166D01*
X129618663Y-95874674D01*
X129622032Y-95863522D01*
X129625850Y-95852710D01*
X129630117Y-95842239D01*
X129634834Y-95832107D01*
X129639999Y-95822315D01*
X129645614Y-95812864D01*
X129651678Y-95803752D01*
X129658191Y-95794981D01*
X129665153Y-95786549D01*
X129672460Y-95778546D01*
X129683868Y-95767509D01*
X129695815Y-95757634D01*
X129708300Y-95748920D01*
X129721324Y-95741369D01*
X129734886Y-95734979D01*
X129748986Y-95729751D01*
X129763625Y-95725685D01*
X129778802Y-95722780D01*
X129794517Y-95721038D01*
X129805293Y-95720521D01*
X129810771Y-95720457D01*
X129825684Y-95721014D01*
X129839998Y-95722686D01*
X129853712Y-95725472D01*
X129866826Y-95729373D01*
X129879340Y-95734389D01*
X129891255Y-95740519D01*
X129902569Y-95747763D01*
X129913284Y-95756122D01*
X129923399Y-95765596D01*
X129932915Y-95776184D01*
X129938925Y-95783862D01*
X129947328Y-95796536D01*
X129954904Y-95810678D01*
X129959495Y-95820922D01*
X129963719Y-95831818D01*
X129967576Y-95843368D01*
X129971066Y-95855570D01*
X129974188Y-95868425D01*
X129976943Y-95881933D01*
X129979330Y-95896094D01*
X129981350Y-95910907D01*
X129983003Y-95926373D01*
X129984289Y-95942492D01*
X129985207Y-95959264D01*
X129985758Y-95976689D01*
X129985942Y-95994766D01*
X129985868Y-96006718D01*
X129985648Y-96018392D01*
X129985281Y-96029789D01*
X129984767Y-96040910D01*
X129984105Y-96051753D01*
X129982838Y-96067498D01*
X129981240Y-96082620D01*
X129979312Y-96097119D01*
X129977053Y-96110994D01*
X129974463Y-96124246D01*
X129971543Y-96136874D01*
X129968292Y-96148879D01*
X129967135Y-96152742D01*
X129963131Y-96163985D01*
X129958341Y-96175044D01*
X129952763Y-96185919D01*
X129946397Y-96196611D01*
X129939245Y-96207119D01*
X129931306Y-96217443D01*
X129927910Y-96221521D01*
X129919860Y-96231529D01*
X129913175Y-96241236D01*
X129907854Y-96250640D01*
X129903270Y-96261528D01*
X129900651Y-96271980D01*
X129899968Y-96280359D01*
X129900781Y-96291945D01*
X129903218Y-96302927D01*
X129907279Y-96313305D01*
X129912965Y-96323077D01*
X129920276Y-96332246D01*
X129923074Y-96335167D01*
X129931940Y-96343020D01*
X129941410Y-96349247D01*
X129951485Y-96353850D01*
X129962165Y-96356829D01*
X129973449Y-96358182D01*
X129977345Y-96358273D01*
X129989888Y-96357173D01*
X130002263Y-96353873D01*
X130014471Y-96348374D01*
X130026511Y-96340675D01*
X130035430Y-96333457D01*
X130044255Y-96325002D01*
X130052986Y-96315310D01*
X130061622Y-96304380D01*
X130070164Y-96292213D01*
X130072990Y-96287882D01*
X130081189Y-96274474D01*
X130088858Y-96260310D01*
X130095999Y-96245391D01*
X130102611Y-96229715D01*
X130108693Y-96213285D01*
X130114247Y-96196098D01*
X130119272Y-96178157D01*
X130123768Y-96159459D01*
X130127735Y-96140006D01*
X130131173Y-96119797D01*
X130134082Y-96098833D01*
X130135339Y-96088067D01*
X130136463Y-96077113D01*
X130137454Y-96065969D01*
X130138314Y-96054637D01*
X130139041Y-96043116D01*
X130139636Y-96031406D01*
X130140099Y-96019507D01*
X130140430Y-96007419D01*
X130140628Y-95995142D01*
X130140694Y-95982676D01*
X130140625Y-95971470D01*
X130140419Y-95960421D01*
X130140076Y-95949528D01*
X130139594Y-95938791D01*
X130138220Y-95917787D01*
X130136295Y-95897408D01*
X130133820Y-95877654D01*
X130130795Y-95858527D01*
X130127221Y-95840024D01*
X130123096Y-95822147D01*
X130118422Y-95804896D01*
X130113198Y-95788270D01*
X130107424Y-95772270D01*
X130101099Y-95756895D01*
X130094225Y-95742145D01*
X130086801Y-95728022D01*
X130078827Y-95714523D01*
X130070303Y-95701650D01*
X130058244Y-95685188D01*
X130045641Y-95669788D01*
X130032494Y-95655450D01*
X130018803Y-95642174D01*
X130004569Y-95629960D01*
X129989791Y-95618808D01*
X129974470Y-95608719D01*
X129958605Y-95599691D01*
X129942196Y-95591725D01*
X129925244Y-95584822D01*
X129907748Y-95578981D01*
X129889709Y-95574201D01*
X129871126Y-95570484D01*
X129851999Y-95567829D01*
X129832328Y-95566236D01*
X129812114Y-95565705D01*
X129792879Y-95566135D01*
X129774064Y-95567426D01*
X129755669Y-95569577D01*
X129737693Y-95572589D01*
X129720138Y-95576462D01*
X129703002Y-95581195D01*
X129686286Y-95586789D01*
X129669989Y-95593243D01*
X129654113Y-95600558D01*
X129638656Y-95608733D01*
X129623619Y-95617769D01*
X129609002Y-95627666D01*
X129594805Y-95638423D01*
X129581027Y-95650041D01*
X129567669Y-95662519D01*
X129554731Y-95675858D01*
X129542401Y-95689923D01*
X129530866Y-95704513D01*
X129520127Y-95719628D01*
X129510183Y-95735267D01*
X129501034Y-95751431D01*
X129492682Y-95768120D01*
X129485124Y-95785334D01*
X129478363Y-95803072D01*
X129472396Y-95821335D01*
X129467225Y-95840123D01*
X129462850Y-95859435D01*
X129459270Y-95879273D01*
X129456486Y-95899635D01*
X129454497Y-95920522D01*
X129453304Y-95941933D01*
X129453006Y-95952836D01*
X129452906Y-95963869D01*
X129453020Y-95975829D01*
X129453360Y-95987627D01*
X129453926Y-95999266D01*
X129454720Y-96010743D01*
X129455740Y-96022060D01*
X129456987Y-96033217D01*
X129458460Y-96044213D01*
X129460160Y-96055048D01*
X129462087Y-96065723D01*
X129465009Y-96079706D01*
X129465802Y-96083158D01*
X129469228Y-96096860D01*
X129473056Y-96110293D01*
X129477288Y-96123458D01*
X129481922Y-96136354D01*
X129486960Y-96148981D01*
X129492400Y-96161340D01*
X129498244Y-96173430D01*
X129504490Y-96185251D01*
G37*
G36*
X129470101Y-96711301D02*
G01*
X129521685Y-96711301D01*
X129513356Y-96721985D01*
X129505565Y-96732946D01*
X129498311Y-96744184D01*
X129491594Y-96755699D01*
X129485415Y-96767491D01*
X129479773Y-96779560D01*
X129474668Y-96791906D01*
X129470101Y-96804529D01*
X129466071Y-96817425D01*
X129462578Y-96830590D01*
X129459623Y-96844023D01*
X129457205Y-96857725D01*
X129455324Y-96871696D01*
X129453981Y-96885935D01*
X129453326Y-96896791D01*
X129452974Y-96907798D01*
X129452906Y-96915220D01*
X129453218Y-96932190D01*
X129454153Y-96948711D01*
X129455712Y-96964782D01*
X129457893Y-96980405D01*
X129460699Y-96995578D01*
X129464127Y-97010303D01*
X129468179Y-97024578D01*
X129472855Y-97038404D01*
X129478154Y-97051780D01*
X129484076Y-97064708D01*
X129490622Y-97077186D01*
X129497791Y-97089215D01*
X129505583Y-97100795D01*
X129513999Y-97111926D01*
X129523038Y-97122608D01*
X129532700Y-97132840D01*
X129540814Y-97140518D01*
X129549236Y-97147701D01*
X129557967Y-97154388D01*
X129567006Y-97160580D01*
X129576354Y-97166276D01*
X129586010Y-97171478D01*
X129595975Y-97176184D01*
X129606248Y-97180394D01*
X129616830Y-97184109D01*
X129627720Y-97187329D01*
X129638919Y-97190054D01*
X129650427Y-97192283D01*
X129662243Y-97194016D01*
X129674368Y-97195255D01*
X129686801Y-97195998D01*
X129699543Y-97196245D01*
X129968747Y-97196245D01*
X129969083Y-97208134D01*
X129970091Y-97219217D01*
X129972294Y-97231936D01*
X129975548Y-97243397D01*
X129979851Y-97253598D01*
X129986400Y-97264176D01*
X129990241Y-97268786D01*
X129998672Y-97276820D01*
X130008048Y-97283193D01*
X130018369Y-97287903D01*
X130029634Y-97290951D01*
X130041844Y-97292336D01*
X130046123Y-97292428D01*
X130058657Y-97291588D01*
X130070266Y-97289066D01*
X130080948Y-97284863D01*
X130090705Y-97278978D01*
X130099537Y-97271412D01*
X130102275Y-97268517D01*
X130109488Y-97258426D01*
X130114359Y-97248300D01*
X130118193Y-97236613D01*
X130120992Y-97223364D01*
X130122484Y-97211642D01*
X130123313Y-97198920D01*
X130123500Y-97188723D01*
X130123500Y-97049016D01*
X130123168Y-97035545D01*
X130122173Y-97023073D01*
X130120515Y-97011600D01*
X130117509Y-96998664D01*
X130113468Y-96987289D01*
X130108389Y-96977475D01*
X130102275Y-96969222D01*
X130093752Y-96961187D01*
X130084303Y-96954814D01*
X130073929Y-96950104D01*
X130062630Y-96947057D01*
X130050404Y-96945671D01*
X130046123Y-96945579D01*
X130033599Y-96946401D01*
X130022019Y-96948866D01*
X130011383Y-96952975D01*
X130001693Y-96958727D01*
X129992946Y-96966123D01*
X129990241Y-96968953D01*
X129982936Y-96978625D01*
X129977143Y-96990111D01*
X129973470Y-97001067D01*
X129970846Y-97013283D01*
X129969503Y-97023963D01*
X129968831Y-97035448D01*
X129968747Y-97041493D01*
X129702498Y-97041493D01*
X129691395Y-97041069D01*
X129678590Y-97039347D01*
X129666978Y-97036299D01*
X129656561Y-97031927D01*
X129647337Y-97026230D01*
X129637845Y-97017644D01*
X129635063Y-97014358D01*
X129628640Y-97004933D01*
X129623073Y-96994392D01*
X129618363Y-96982735D01*
X129614510Y-96969961D01*
X129611512Y-96956070D01*
X129609826Y-96944919D01*
X129608622Y-96933140D01*
X129607899Y-96920732D01*
X129607659Y-96907697D01*
X129607969Y-96894532D01*
X129608901Y-96881771D01*
X129610454Y-96869412D01*
X129612629Y-96857456D01*
X129615425Y-96845904D01*
X129618842Y-96834754D01*
X129622880Y-96824007D01*
X129627540Y-96813663D01*
X129633132Y-96803248D01*
X129640100Y-96792153D01*
X129648446Y-96780378D01*
X129655608Y-96771100D01*
X129663546Y-96761440D01*
X129672257Y-96751398D01*
X129681744Y-96740972D01*
X129692004Y-96730164D01*
X129703040Y-96718974D01*
X129710827Y-96711301D01*
X129968747Y-96711301D01*
X129968872Y-96722114D01*
X129969429Y-96735377D01*
X129970430Y-96747322D01*
X129972307Y-96760400D01*
X129974880Y-96771418D01*
X129978884Y-96781922D01*
X129982987Y-96788409D01*
X129990203Y-96797036D01*
X129999495Y-96806201D01*
X130009088Y-96813570D01*
X130018984Y-96819142D01*
X130029181Y-96822916D01*
X130041815Y-96825072D01*
X130046123Y-96825216D01*
X130058657Y-96824376D01*
X130070266Y-96821854D01*
X130080948Y-96817650D01*
X130090705Y-96811766D01*
X130099537Y-96804200D01*
X130102275Y-96801305D01*
X130109488Y-96791305D01*
X130114359Y-96781241D01*
X130118193Y-96769602D01*
X130120992Y-96756389D01*
X130122484Y-96744685D01*
X130123313Y-96731974D01*
X130123500Y-96721779D01*
X130123500Y-96545802D01*
X130123168Y-96532331D01*
X130122173Y-96519859D01*
X130120515Y-96508386D01*
X130117509Y-96495450D01*
X130113468Y-96484075D01*
X130108389Y-96474261D01*
X130102275Y-96466008D01*
X130093752Y-96457882D01*
X130084303Y-96451437D01*
X130073929Y-96446674D01*
X130062630Y-96443591D01*
X130050404Y-96442190D01*
X130046123Y-96442097D01*
X130033334Y-96443372D01*
X130022994Y-96446383D01*
X130012943Y-96451164D01*
X130003180Y-96457717D01*
X129993706Y-96466041D01*
X129986334Y-96473975D01*
X129982718Y-96478367D01*
X129977274Y-96488340D01*
X129973672Y-96500039D01*
X129971421Y-96512011D01*
X129970112Y-96523043D01*
X129969238Y-96535368D01*
X129968802Y-96548986D01*
X129968747Y-96556280D01*
X129624853Y-96556280D01*
X129624522Y-96544392D01*
X129623527Y-96533309D01*
X129621350Y-96520590D01*
X129618138Y-96509129D01*
X129613889Y-96498928D01*
X129607422Y-96488350D01*
X129603629Y-96483740D01*
X129595106Y-96475797D01*
X129585657Y-96469497D01*
X129575283Y-96464840D01*
X129563983Y-96461827D01*
X129551758Y-96460458D01*
X129547477Y-96460366D01*
X129534953Y-96461197D01*
X129523373Y-96463691D01*
X129512737Y-96467847D01*
X129503046Y-96473665D01*
X129494300Y-96481146D01*
X129491594Y-96484009D01*
X129484290Y-96494100D01*
X129479357Y-96504226D01*
X129475474Y-96515913D01*
X129472641Y-96529162D01*
X129471130Y-96540884D01*
X129470290Y-96553606D01*
X129470101Y-96563803D01*
X129470101Y-96711301D01*
G37*
G36*
X130106305Y-97705638D02*
G01*
X129624853Y-97437509D01*
X129624335Y-97426116D01*
X129622345Y-97413623D01*
X129618863Y-97402415D01*
X129613889Y-97392491D01*
X129607422Y-97383852D01*
X129603629Y-97380014D01*
X129595106Y-97373349D01*
X129585657Y-97368062D01*
X129575283Y-97364155D01*
X129563983Y-97361627D01*
X129551758Y-97360478D01*
X129547477Y-97360401D01*
X129534953Y-97361232D01*
X129523373Y-97363726D01*
X129512737Y-97367882D01*
X129503046Y-97373700D01*
X129494300Y-97381181D01*
X129491594Y-97384044D01*
X129484290Y-97394135D01*
X129479357Y-97404261D01*
X129475474Y-97415948D01*
X129472641Y-97429196D01*
X129471130Y-97440919D01*
X129470290Y-97453641D01*
X129470101Y-97463838D01*
X129470101Y-97605157D01*
X129470437Y-97618628D01*
X129471444Y-97631100D01*
X129473124Y-97642573D01*
X129476167Y-97655509D01*
X129480260Y-97666884D01*
X129485402Y-97676698D01*
X129491594Y-97684951D01*
X129500026Y-97693077D01*
X129509402Y-97699522D01*
X129519723Y-97704286D01*
X129530988Y-97707368D01*
X129543197Y-97708769D01*
X129547477Y-97708862D01*
X129560011Y-97708022D01*
X129571619Y-97705500D01*
X129582302Y-97701297D01*
X129592059Y-97695412D01*
X129600891Y-97687847D01*
X129603629Y-97684951D01*
X129610842Y-97675021D01*
X129615713Y-97665274D01*
X129619547Y-97654189D01*
X129622345Y-97641765D01*
X129623838Y-97630863D01*
X129624667Y-97619105D01*
X129624853Y-97609724D01*
X129948866Y-97792687D01*
X129624853Y-97974037D01*
X129624522Y-97961951D01*
X129623527Y-97950680D01*
X129621350Y-97937736D01*
X129618138Y-97926064D01*
X129613889Y-97915665D01*
X129607422Y-97904866D01*
X129603629Y-97900153D01*
X129595106Y-97892119D01*
X129585657Y-97885746D01*
X129575283Y-97881036D01*
X129563983Y-97877988D01*
X129551758Y-97876603D01*
X129547477Y-97876511D01*
X129534953Y-97877342D01*
X129523373Y-97879835D01*
X129512737Y-97883991D01*
X129503046Y-97889810D01*
X129494300Y-97897290D01*
X129491594Y-97900153D01*
X129484290Y-97910244D01*
X129479357Y-97920370D01*
X129475474Y-97932058D01*
X129472641Y-97945306D01*
X129471130Y-97957029D01*
X129470290Y-97969750D01*
X129470101Y-97979947D01*
X129470101Y-98125834D01*
X129470437Y-98139116D01*
X129471444Y-98151424D01*
X129473124Y-98162759D01*
X129476167Y-98175557D01*
X129480260Y-98186834D01*
X129485402Y-98196589D01*
X129491594Y-98204822D01*
X129500026Y-98212948D01*
X129509402Y-98219393D01*
X129519723Y-98224156D01*
X129530988Y-98227239D01*
X129543197Y-98228640D01*
X129547477Y-98228733D01*
X129560011Y-98228015D01*
X129571619Y-98225862D01*
X129582302Y-98222273D01*
X129592059Y-98217248D01*
X129600891Y-98210787D01*
X129603629Y-98208315D01*
X129610842Y-98199968D01*
X129616562Y-98190242D01*
X129620791Y-98179138D01*
X129623527Y-98166654D01*
X129624667Y-98155198D01*
X129624853Y-98147864D01*
X130261057Y-97792687D01*
X130261057Y-97806573D01*
X130261057Y-97819217D01*
X130261057Y-97830619D01*
X130261057Y-97843124D01*
X130261057Y-97855566D01*
X130261057Y-97866549D01*
X130261057Y-97868988D01*
X130271611Y-97877489D01*
X130281912Y-97884856D01*
X130291962Y-97891090D01*
X130301760Y-97896191D01*
X130313653Y-97900972D01*
X130325153Y-97903983D01*
X130336259Y-97905223D01*
X130338433Y-97905258D01*
X130350958Y-97904417D01*
X130362538Y-97901895D01*
X130373173Y-97897692D01*
X130382864Y-97891808D01*
X130391610Y-97884242D01*
X130394316Y-97881347D01*
X130401620Y-97871338D01*
X130406553Y-97861251D01*
X130410436Y-97849577D01*
X130413270Y-97836315D01*
X130414781Y-97824563D01*
X130415620Y-97811795D01*
X130415809Y-97801553D01*
X130415809Y-97463838D01*
X130415474Y-97450367D01*
X130414466Y-97437895D01*
X130412787Y-97426422D01*
X130409743Y-97413486D01*
X130405650Y-97402111D01*
X130400508Y-97392297D01*
X130394316Y-97384044D01*
X130385884Y-97376009D01*
X130376508Y-97369637D01*
X130366188Y-97364926D01*
X130354923Y-97361879D01*
X130342713Y-97360493D01*
X130338433Y-97360401D01*
X130325899Y-97361232D01*
X130314291Y-97363726D01*
X130303608Y-97367882D01*
X130293851Y-97373700D01*
X130285020Y-97381181D01*
X130282282Y-97384044D01*
X130275069Y-97394135D01*
X130270198Y-97404261D01*
X130266363Y-97415948D01*
X130263565Y-97429196D01*
X130262073Y-97440919D01*
X130261244Y-97453641D01*
X130261057Y-97463838D01*
X130261057Y-97618053D01*
X130106305Y-97705638D01*
G37*
G36*
X129332543Y-98876221D02*
G01*
X129332543Y-98521849D01*
X129345952Y-98520837D01*
X129358369Y-98519280D01*
X129369796Y-98517177D01*
X129380232Y-98514528D01*
X129391884Y-98510449D01*
X129401988Y-98505518D01*
X129412069Y-98498475D01*
X129420104Y-98490365D01*
X129426476Y-98481348D01*
X129431186Y-98471424D01*
X129434234Y-98460593D01*
X129435619Y-98448856D01*
X129435712Y-98444742D01*
X129434880Y-98432208D01*
X129432387Y-98420599D01*
X129428231Y-98409917D01*
X129422413Y-98400160D01*
X129414932Y-98391328D01*
X129412069Y-98388590D01*
X129401988Y-98381286D01*
X129391884Y-98376353D01*
X129380232Y-98372470D01*
X129367032Y-98369637D01*
X129355358Y-98368125D01*
X129342692Y-98367286D01*
X129332543Y-98367097D01*
X129177791Y-98367097D01*
X129177791Y-99039571D01*
X129332543Y-99039571D01*
X130049616Y-98788636D01*
X130060300Y-98784618D01*
X130072344Y-98779443D01*
X130082932Y-98774097D01*
X130093715Y-98767457D01*
X130102402Y-98760571D01*
X130108991Y-98753440D01*
X130115339Y-98743382D01*
X130119872Y-98732283D01*
X130122352Y-98721717D01*
X130123443Y-98710354D01*
X130123500Y-98706961D01*
X130122725Y-98695101D01*
X130120401Y-98683902D01*
X130116529Y-98673364D01*
X130111107Y-98663487D01*
X130104137Y-98654272D01*
X130101469Y-98651347D01*
X130092870Y-98643586D01*
X130083800Y-98637431D01*
X130072620Y-98632279D01*
X130060798Y-98629313D01*
X130050153Y-98628510D01*
X130038656Y-98629691D01*
X130026927Y-98632335D01*
X130014819Y-98635889D01*
X130003069Y-98639856D01*
X130000987Y-98640600D01*
X129332543Y-98876221D01*
G37*
G36*
X129746544Y-99303627D02*
G01*
X129761206Y-99304304D01*
X129775770Y-99305433D01*
X129790235Y-99307012D01*
X129804601Y-99309043D01*
X129818869Y-99311525D01*
X129833038Y-99314458D01*
X129847108Y-99317843D01*
X129861080Y-99321678D01*
X129874953Y-99325966D01*
X129888727Y-99330704D01*
X129902403Y-99335894D01*
X129915980Y-99341535D01*
X129929459Y-99347627D01*
X129942839Y-99354170D01*
X129956120Y-99361165D01*
X129962671Y-99364782D01*
X129975384Y-99372055D01*
X129987579Y-99379380D01*
X129999256Y-99386758D01*
X130010414Y-99394188D01*
X130021054Y-99401671D01*
X130031175Y-99409207D01*
X130040778Y-99416794D01*
X130049862Y-99424434D01*
X130058428Y-99432127D01*
X130066475Y-99439872D01*
X130074004Y-99447670D01*
X130084326Y-99459465D01*
X130093480Y-99471378D01*
X130101469Y-99483409D01*
X130103882Y-99487484D01*
X130110662Y-99500049D01*
X130116753Y-99513125D01*
X130122154Y-99526710D01*
X130126866Y-99540806D01*
X130130888Y-99555412D01*
X130134220Y-99570527D01*
X130136864Y-99586153D01*
X130138243Y-99596853D01*
X130139315Y-99607781D01*
X130140081Y-99618935D01*
X130140541Y-99630315D01*
X130140694Y-99641922D01*
X130140178Y-99661914D01*
X130138629Y-99681320D01*
X130136047Y-99700140D01*
X130132433Y-99718375D01*
X130127786Y-99736024D01*
X130122106Y-99753088D01*
X130115393Y-99769565D01*
X130107648Y-99785458D01*
X130098870Y-99800764D01*
X130089060Y-99815486D01*
X130078216Y-99829621D01*
X130066341Y-99843171D01*
X130053432Y-99856135D01*
X130039491Y-99868514D01*
X130024517Y-99880307D01*
X130008510Y-99891514D01*
X129991939Y-99902088D01*
X129975271Y-99911979D01*
X129958506Y-99921188D01*
X129941645Y-99929715D01*
X129924688Y-99937560D01*
X129907634Y-99944723D01*
X129890483Y-99951203D01*
X129873236Y-99957002D01*
X129855892Y-99962118D01*
X129838452Y-99966552D01*
X129820915Y-99970304D01*
X129803282Y-99973374D01*
X129785552Y-99975761D01*
X129767725Y-99977467D01*
X129749802Y-99978490D01*
X129731783Y-99978831D01*
X129569508Y-99978831D01*
X129554649Y-99978602D01*
X129539896Y-99977916D01*
X129525247Y-99976772D01*
X129510703Y-99975170D01*
X129496265Y-99973111D01*
X129481931Y-99970595D01*
X129467702Y-99967620D01*
X129453578Y-99964189D01*
X129439559Y-99960299D01*
X129425645Y-99955952D01*
X129411836Y-99951148D01*
X129398132Y-99945886D01*
X129384533Y-99940166D01*
X129371038Y-99933989D01*
X129357649Y-99927354D01*
X129344365Y-99920262D01*
X129337814Y-99916595D01*
X129325105Y-99909225D01*
X129312918Y-99901808D01*
X129301255Y-99894342D01*
X129290113Y-99886827D01*
X129279495Y-99879265D01*
X129269399Y-99871654D01*
X129259825Y-99863995D01*
X129250774Y-99856288D01*
X129242246Y-99848532D01*
X129234241Y-99840728D01*
X129226758Y-99832876D01*
X129216514Y-99821007D01*
X129207446Y-99809029D01*
X129199553Y-99796943D01*
X129192591Y-99784603D01*
X129186314Y-99771762D01*
X129180722Y-99758421D01*
X129175814Y-99744578D01*
X129171591Y-99730236D01*
X129168053Y-99715392D01*
X129165200Y-99700048D01*
X129163031Y-99684204D01*
X129161966Y-99673363D01*
X129161205Y-99662299D01*
X129160749Y-99651013D01*
X129160607Y-99640310D01*
X129315349Y-99640310D01*
X129315540Y-99649251D01*
X129316543Y-99662185D01*
X129318405Y-99674549D01*
X129321127Y-99686340D01*
X129324708Y-99697561D01*
X129329149Y-99708209D01*
X129334449Y-99718287D01*
X129340609Y-99727793D01*
X129347629Y-99736727D01*
X129355508Y-99745090D01*
X129364246Y-99752882D01*
X129375412Y-99761406D01*
X129386810Y-99769380D01*
X129398441Y-99776804D01*
X129410306Y-99783678D01*
X129422403Y-99790002D01*
X129434734Y-99795776D01*
X129447297Y-99801001D01*
X129460093Y-99805675D01*
X129473122Y-99809799D01*
X129486385Y-99813374D01*
X129499880Y-99816399D01*
X129513608Y-99818873D01*
X129527570Y-99820798D01*
X129541764Y-99822173D01*
X129556191Y-99822998D01*
X129570851Y-99823273D01*
X129730439Y-99823273D01*
X129745333Y-99823010D01*
X129759922Y-99822223D01*
X129774206Y-99820911D01*
X129788186Y-99819075D01*
X129801862Y-99816713D01*
X129815233Y-99813827D01*
X129828300Y-99810417D01*
X129841063Y-99806481D01*
X129853522Y-99802021D01*
X129865676Y-99797036D01*
X129877525Y-99791526D01*
X129889071Y-99785491D01*
X129900312Y-99778932D01*
X129911248Y-99771848D01*
X129921881Y-99764239D01*
X129932209Y-99756106D01*
X129938715Y-99750433D01*
X129947688Y-99741559D01*
X129955717Y-99732245D01*
X129962801Y-99722492D01*
X129968940Y-99712300D01*
X129974135Y-99701668D01*
X129978386Y-99690597D01*
X129981692Y-99679087D01*
X129984053Y-99667138D01*
X129985470Y-99654750D01*
X129985942Y-99641922D01*
X129985751Y-99632886D01*
X129984748Y-99619828D01*
X129982886Y-99607365D01*
X129980164Y-99595497D01*
X129976583Y-99584224D01*
X129972142Y-99573546D01*
X129966841Y-99563463D01*
X129960681Y-99553975D01*
X129953662Y-99545083D01*
X129945783Y-99536785D01*
X129937045Y-99529082D01*
X129925942Y-99520493D01*
X129914598Y-99512458D01*
X129903013Y-99504978D01*
X129891186Y-99498051D01*
X129879118Y-99491679D01*
X129866809Y-99485860D01*
X129854258Y-99480596D01*
X129841466Y-99475886D01*
X129828433Y-99471730D01*
X129815158Y-99468128D01*
X129801642Y-99465081D01*
X129787884Y-99462587D01*
X129773885Y-99460648D01*
X129759644Y-99459262D01*
X129745163Y-99458431D01*
X129730439Y-99458154D01*
X129570851Y-99458154D01*
X129555958Y-99458416D01*
X129541369Y-99459204D01*
X129527085Y-99460515D01*
X129513105Y-99462352D01*
X129499429Y-99464713D01*
X129486057Y-99467599D01*
X129472990Y-99471010D01*
X129460228Y-99474946D01*
X129447769Y-99479406D01*
X129435615Y-99484391D01*
X129423765Y-99489901D01*
X129412220Y-99495935D01*
X129400979Y-99502495D01*
X129390042Y-99509579D01*
X129379410Y-99517187D01*
X129369082Y-99525321D01*
X129362575Y-99530996D01*
X129353602Y-99539888D01*
X129345574Y-99549232D01*
X129338490Y-99559030D01*
X129332350Y-99569281D01*
X129327155Y-99579986D01*
X129322905Y-99591144D01*
X129319599Y-99602756D01*
X129317238Y-99614821D01*
X129315821Y-99627339D01*
X129315349Y-99640310D01*
X129160607Y-99640310D01*
X129160596Y-99639504D01*
X129161115Y-99619514D01*
X129162670Y-99600111D01*
X129165262Y-99581296D01*
X129168892Y-99563069D01*
X129173558Y-99545429D01*
X129179260Y-99528377D01*
X129186000Y-99511913D01*
X129193777Y-99496036D01*
X129202590Y-99480747D01*
X129212441Y-99466046D01*
X129223328Y-99451933D01*
X129235252Y-99438407D01*
X129248213Y-99425469D01*
X129262211Y-99413119D01*
X129277246Y-99401356D01*
X129293318Y-99390181D01*
X129309919Y-99379673D01*
X129326608Y-99369842D01*
X129343385Y-99360690D01*
X129360250Y-99352215D01*
X129377203Y-99344419D01*
X129394245Y-99337300D01*
X129411374Y-99330859D01*
X129428592Y-99325097D01*
X129445898Y-99320012D01*
X129463292Y-99315605D01*
X129480774Y-99311876D01*
X129498345Y-99308826D01*
X129516003Y-99306453D01*
X129533750Y-99304758D01*
X129551585Y-99303741D01*
X129569508Y-99303402D01*
X129731783Y-99303402D01*
X129746544Y-99303627D01*
G37*
D11*
X138090000Y-101420000D02*
X130890000Y-101420000D01*
X138090000Y-96520000D02*
X138090000Y-101420000D01*
X130890000Y-101420000D02*
X130890000Y-94220000D01*
X130890000Y-94220000D02*
X135890000Y-94220000D01*
%TD*%
M02*
