M48
; DRILL file {KiCad (7.0.0)} date Fri Nov 17 04:08:37 2023
; FORMAT={-:-/ absolute / inch / decimal}
; #@! TF.CreationDate,2023-11-17T04:08:37-08:00
; #@! TF.GenerationSoftware,Kicad,Pcbnew,(7.0.0)
; #@! TF.FileFunction,Plated,1,2,PTH
FMAT,2
INCH
; #@! TA.AperFunction,Plated,PTH,ViaDrill
T1C0.0157
; #@! TA.AperFunction,Plated,PTH,ComponentDrill
T2C0.0315
; #@! TA.AperFunction,Plated,PTH,ComponentDrill
T3C0.0354
; #@! TA.AperFunction,Plated,PTH,ComponentDrill
T4C0.0394
; #@! TA.AperFunction,Plated,PTH,ComponentDrill
T5C0.0402
; #@! TA.AperFunction,Plated,PTH,ComponentDrill
T6C0.0433
; #@! TA.AperFunction,Plated,PTH,ComponentDrill
T7C0.0591
; #@! TA.AperFunction,Plated,PTH,ComponentDrill
T8C0.0630
; #@! TA.AperFunction,Plated,PTH,ComponentDrill
T9C0.0866
%
G90
G05
T1
X1.75Y-2.35
X1.75Y-3.8
X1.75Y-4.25
X1.75Y-5.55
X1.8Y-3.13
X1.8Y-5.15
X1.81Y-2.6
X1.9Y-1.65
X1.9Y-4.8
X1.96Y-2.86
X2.02Y-2.29
X2.1Y-1.99
X2.13Y-2.29
X2.13Y-2.65
X2.24Y-4.78
X2.4Y-3.7
X2.47Y-2.28
X2.47Y-2.43
X2.47Y-4.99
X2.47Y-5.15
X2.5Y-5.53
X2.6Y-5.53
X2.7Y-5.53
X2.71Y-2.464
X2.78Y-2.04
X2.783Y-2.3919
X2.8Y-5.53
X2.871Y-2.3524
X2.9Y-5.53
X2.985Y-2.239
X3.0Y-1.65
X3.0Y-5.53
X3.07Y-2.7
X3.1Y-5.53
X3.13Y-2.24
X3.19Y-4.645
X3.19Y-4.78
X3.19Y-4.91
X3.2Y-1.99
X3.2Y-3.5
X3.2Y-4.16
X3.2Y-5.53
X3.25Y-2.625
X3.2505Y-2.1195
X3.3Y-5.53
X3.4Y-3.8
X3.4Y-5.53
X3.5Y-5.53
X3.6Y-5.53
X3.68Y-4.59
X3.69Y-4.09
X3.7Y-5.53
X3.72Y-4.53
X3.77Y-4.59
X3.8Y-4.78
X3.8Y-4.91
X3.8Y-5.53
X3.81Y-2.238
X3.81Y-2.464
X3.87Y-4.59
X3.88Y-2.04
X3.882Y-2.3919
X3.883Y-2.3119
X3.9Y-3.3
X3.9Y-5.53
X3.97Y-2.3524
X4.0Y-4.555
X4.0Y-5.53
X4.04Y-2.55
X4.086Y-2.235
X4.1Y-1.65
X4.1Y-5.53
X4.16Y-2.7
X4.23Y-2.24
X4.24Y-5.11
X4.28Y-5.08
X4.3Y-1.99
X4.3Y-4.48
X4.33Y-5.05
X4.33Y-5.56
X4.35Y-2.615
X4.35Y-5.46
X4.3501Y-2.1341
X4.463Y-4.723
X4.475Y-5.125
X4.55Y-4.75
X4.55Y-4.91
X4.55Y-5.5
X4.6Y-5.32
X4.622Y-4.688
X4.64Y-4.5
X4.75Y-5.09
X4.8Y-4.5
X4.9Y-4.5
X4.9Y-4.85
X4.9Y-5.5
X4.91Y-2.237
X4.91Y-2.461
X4.981Y-2.3919
X4.985Y-2.3119
X4.99Y-2.04
X5.0Y-3.8
X5.0Y-4.5
X5.081Y-2.3524
X5.1Y-4.5
X5.1Y-5.32
X5.13Y-2.55
X5.17Y-4.72
X5.17Y-4.98
X5.195Y-2.237
X5.2Y-1.65
X5.2Y-4.5
X5.27Y-2.7
X5.3Y-4.5
X5.34Y-2.24
X5.36Y-4.98
X5.395Y-3.3
X5.4Y-1.99
X5.4Y-4.5
X5.4Y-5.5
X5.4547Y-2.1201
X5.455Y-2.625
X5.5Y-3.3
X5.55Y-5.02
X5.56Y-4.5
X5.6Y-3.3
X5.65Y-4.33
X5.65Y-5.14
X5.7Y-3.3
X5.74Y-4.71
X5.74Y-5.0
X5.75Y-3.1
X5.75Y-4.33
X5.75Y-4.5
X5.8Y-3.3
X5.81Y-4.54
X5.85Y-4.33
X5.85Y-4.98
X5.85Y-5.1
X5.9Y-3.3
X5.9Y-5.5
X5.97Y-4.09
X5.98Y-4.71
X5.98Y-4.87
X5.98Y-4.98
X6.0Y-5.1
X6.01Y-2.239
X6.01Y-2.465
X6.082Y-2.3119
X6.084Y-2.3919
X6.09Y-2.04
X6.1Y-3.8
X6.105Y-4.33
X6.18Y-2.3524
X6.23Y-2.55
X6.295Y-2.236
X6.3Y-1.65
X6.3Y-4.05
X6.3Y-4.15
X6.3Y-4.25
X6.32Y-4.88
X6.345Y-4.1
X6.345Y-4.2
X6.35Y-5.0
X6.35Y-5.12
X6.38Y-2.7
X6.44Y-2.24
X6.45Y-5.54
X6.49Y-5.0
X6.5Y-1.99
X6.555Y-2.62
X6.5561Y-2.1251
X6.58Y-5.02
X6.6Y-3.853
X6.6Y-4.0
X6.61Y-4.55
X6.62Y-4.25
X6.63Y-5.38
X6.63Y-5.5
X6.65Y-4.7
X6.68Y-5.02
X6.68Y-5.19
X6.74Y-4.15
X6.78Y-4.88
X6.79Y-4.7
X6.84Y-4.05
X6.84Y-4.2
X6.85Y-3.6
X6.91Y-5.5
X6.95Y-4.755
X6.96Y-5.17
X6.98Y-5.54
X7.03Y-4.9
X7.085Y-4.755
X7.114Y-2.239
X7.115Y-2.461
X7.12Y-3.68
X7.13Y-4.89
X7.15Y-4.78
X7.184Y-2.3119
X7.185Y-2.392
X7.2Y-2.04
X7.2Y-5.34
X7.2Y-5.54
X7.22Y-4.9
X7.23Y-5.19
X7.27Y-4.74
X7.28Y-2.353
X7.32Y-3.68
X7.34Y-2.55
X7.34Y-4.78
X7.35Y-5.34
X7.398Y-2.235
X7.4Y-1.65
X7.4Y-4.1
X7.4Y-4.2
X7.4Y-4.4
X7.455Y-4.77
X7.47Y-2.7
X7.49Y-5.54
X7.5Y-3.3
X7.52Y-3.68
X7.55Y-2.24
X7.55Y-2.35
X7.6Y-1.98
X7.6Y-4.5
X7.6Y-4.9
X7.655Y-2.12
X7.655Y-2.62
X7.7Y-3.3
X7.8Y-5.53
X7.9Y-3.3
X7.9Y-5.53
X7.98Y-4.77
X7.985Y-2.35
X8.0Y-5.53
X8.1Y-5.53
X8.2Y-5.53
X8.21Y-2.24
X8.21Y-2.467
X8.283Y-2.312
X8.284Y-2.392
X8.3Y-5.53
X8.31Y-2.66
X8.39Y-2.04
X8.4Y-5.53
X8.43Y-1.65
X8.43Y-4.45
X8.47Y-4.18
X8.48Y-4.41
X8.5Y-5.53
X8.54Y-4.25
X8.54Y-4.37
X8.57Y-4.0
X8.62Y-4.64
X8.66Y-4.59
X8.7Y-3.22
X8.7Y-5.55
X8.71Y-4.54
X8.72Y-4.0
X8.8Y-5.55
X8.88Y-4.0
X8.9Y-5.55
X8.94Y-3.22
X8.94Y-3.37
X8.95Y-3.16
X8.97Y-1.65
X9.0Y-5.55
X9.05Y-3.17
X9.1002Y-5.5491
X9.2Y-5.55
X9.22Y-3.32
X9.24Y-3.22
X9.3Y-5.55
X9.33Y-4.13
X9.33Y-4.27
X9.33Y-4.455
X9.33Y-4.645
X9.33Y-4.715
X9.33Y-4.79
X9.37Y-3.22
X9.39Y-3.36
X9.4Y-5.55
X9.43Y-4.0
X9.43Y-4.83
X9.5Y-5.55
X9.52Y-1.65
X9.6Y-5.55
X9.63Y-3.84
X9.65Y-3.97
X9.7Y-5.55
X9.715Y-4.645
X9.715Y-4.715
X9.72Y-4.54
X9.8Y-3.4
X9.8Y-4.12
X9.8Y-4.9
X9.8Y-5.55
X9.86Y-4.575
X9.86Y-4.645
X9.86Y-4.715
X9.88Y-3.8
X9.88Y-4.07
X9.88Y-4.17
X9.88Y-4.295
X9.88Y-4.9
X9.9Y-5.55
X10.0Y-5.55
X10.1Y-1.65
X10.1Y-5.55
X10.15Y-2.1
X10.15Y-2.3
X10.15Y-2.5
X10.15Y-2.7
X10.15Y-2.9
X10.15Y-3.1
X10.15Y-3.3
X10.15Y-3.5
T2
X4.7106Y-4.696
X4.7106Y-4.7747
X4.7106Y-4.8535
X4.7894Y-4.696
X4.7894Y-4.7747
X4.7894Y-4.8535
T3
X2.252Y-5.03
X2.252Y-5.13
X2.252Y-5.23
X2.252Y-5.33
X2.352Y-5.08
X2.352Y-5.18
X2.352Y-5.28
X2.352Y-5.38
T4
X2.0Y-2.5
X2.1Y-1.7
X2.1Y-1.8
X2.1Y-1.9
X2.1Y-2.8
X2.1Y-2.9
X2.1Y-3.0
X2.2Y-1.7
X2.2Y-1.8
X2.2Y-1.9
X2.2Y-2.8
X2.2Y-2.9
X2.2Y-3.0
X2.3Y-1.7
X2.3Y-1.8
X2.3Y-1.9
X2.3Y-2.8
X2.3Y-2.9
X2.3Y-3.0
X2.4Y-1.7
X2.4Y-1.8
X2.4Y-1.9
X2.4Y-2.8
X2.4Y-2.9
X2.4Y-3.0
X2.5Y-1.7
X2.5Y-1.8
X2.5Y-1.9
X2.5Y-2.8
X2.5Y-2.9
X2.5Y-3.0
X2.6Y-1.7
X2.6Y-1.8
X2.6Y-1.9
X2.6Y-2.8
X2.6Y-2.9
X2.6Y-3.0
X2.7Y-1.7
X2.7Y-1.8
X2.7Y-1.9
X2.7Y-2.8
X2.7Y-2.9
X2.7Y-3.0
X2.7Y-3.4
X2.7Y-3.5
X2.8Y-1.7
X2.8Y-1.8
X2.8Y-1.9
X2.8Y-2.8
X2.8Y-2.9
X2.8Y-3.0
X2.9Y-2.6
X3.2Y-1.7
X3.2Y-1.8
X3.2Y-2.8
X3.2Y-2.9
X3.2Y-3.0
X3.2012Y-1.9
X3.3Y-1.7
X3.3Y-1.8
X3.3Y-2.8
X3.3Y-2.9
X3.3Y-3.0
X3.3012Y-1.9
X3.4Y-1.7
X3.4Y-1.8
X3.4Y-2.8
X3.4Y-2.9
X3.4Y-3.0
X3.4012Y-1.9
X3.5Y-1.7
X3.5Y-1.8
X3.5Y-2.8
X3.5Y-2.9
X3.5Y-3.0
X3.5012Y-1.9
X3.6Y-1.7
X3.6Y-1.8
X3.6Y-2.8
X3.6Y-2.9
X3.6Y-3.0
X3.6012Y-1.9
X3.7Y-1.7
X3.7Y-1.8
X3.7Y-2.8
X3.7Y-2.9
X3.7Y-3.0
X3.7012Y-1.9
X3.8Y-1.7
X3.8Y-1.8
X3.8Y-2.8
X3.8Y-2.9
X3.8Y-3.0
X3.8012Y-1.9
X3.9Y-1.7
X3.9Y-1.8
X3.9Y-2.8
X3.9Y-2.9
X3.9Y-3.0
X3.9012Y-1.9
X4.3Y-1.7
X4.3Y-1.8
X4.3Y-1.9
X4.3Y-2.8
X4.3Y-2.9
X4.3Y-3.0
X4.4Y-1.7
X4.4Y-1.8
X4.4Y-1.9
X4.4Y-2.8
X4.4Y-2.9
X4.4Y-3.0
X4.5Y-1.7
X4.5Y-1.8
X4.5Y-1.9
X4.5Y-2.8
X4.5Y-2.9
X4.5Y-3.0
X4.5Y-5.4
X4.6Y-1.7
X4.6Y-1.8
X4.6Y-1.9
X4.6Y-2.8
X4.6Y-2.9
X4.6Y-3.0
X4.7Y-1.7
X4.7Y-1.8
X4.7Y-1.9
X4.7Y-2.8
X4.7Y-2.9
X4.7Y-3.0
X4.8Y-1.7
X4.8Y-1.8
X4.8Y-1.9
X4.8Y-2.8
X4.8Y-2.9
X4.8Y-3.0
X4.9Y-1.7
X4.9Y-1.8
X4.9Y-1.9
X4.9Y-2.8
X4.9Y-2.9
X4.9Y-3.0
X5.0Y-1.7
X5.0Y-1.8
X5.0Y-1.9
X5.0Y-2.8
X5.0Y-2.9
X5.0Y-3.0
X5.0Y-5.4
X5.4Y-1.7
X5.4Y-1.8
X5.4Y-1.9
X5.4Y-2.8
X5.4Y-2.9
X5.4Y-3.0
X5.5Y-1.7
X5.5Y-1.8
X5.5Y-1.9
X5.5Y-2.8
X5.5Y-2.9
X5.5Y-3.0
X5.5Y-5.4
X5.6Y-1.7
X5.6Y-1.8
X5.6Y-1.9
X5.6Y-2.8
X5.6Y-2.9
X5.6Y-3.0
X5.7Y-1.7
X5.7Y-1.8
X5.7Y-1.9
X5.7Y-2.8
X5.7Y-2.9
X5.7Y-3.0
X5.8Y-1.7
X5.8Y-1.8
X5.8Y-1.9
X5.8Y-2.8
X5.8Y-2.9
X5.8Y-3.0
X5.9Y-1.7
X5.9Y-1.8
X5.9Y-1.9
X5.9Y-2.8
X5.9Y-2.9
X5.9Y-3.0
X6.0Y-1.7
X6.0Y-1.8
X6.0Y-1.9
X6.0Y-2.8
X6.0Y-2.9
X6.0Y-3.0
X6.0Y-5.4
X6.1Y-1.7
X6.1Y-1.8
X6.1Y-1.9
X6.1Y-2.8
X6.1Y-2.9
X6.1Y-3.0
X6.5Y-1.7
X6.5Y-1.8
X6.5Y-1.9
X6.5Y-2.8
X6.5Y-2.9
X6.5Y-3.0
X6.6Y-1.7
X6.6Y-1.8
X6.6Y-1.9
X6.6Y-2.8
X6.6Y-2.9
X6.6Y-3.0
X6.7Y-1.7
X6.7Y-1.8
X6.7Y-1.9
X6.7Y-2.8
X6.7Y-2.9
X6.7Y-3.0
X6.8Y-1.7
X6.8Y-1.8
X6.8Y-1.9
X6.8Y-2.8
X6.8Y-2.9
X6.8Y-3.0
X6.9Y-1.7
X6.9Y-1.8
X6.9Y-1.9
X6.9Y-2.8
X6.9Y-2.9
X6.9Y-3.0
X7.0Y-1.7
X7.0Y-1.8
X7.0Y-1.9
X7.0Y-2.8
X7.0Y-2.9
X7.0Y-3.0
X7.0Y-4.1
X7.0Y-4.2
X7.0Y-4.3
X7.0Y-4.4
X7.1Y-1.7
X7.1Y-1.8
X7.1Y-1.9
X7.1Y-2.8
X7.1Y-2.9
X7.1Y-3.0
X7.1Y-5.5
X7.2Y-1.7
X7.2Y-1.8
X7.2Y-1.9
X7.2Y-2.8
X7.2Y-2.9
X7.2Y-3.0
X7.2Y-3.5
X7.3Y-5.5
X7.4Y-3.5
X7.4Y-5.5
X7.6Y-1.7
X7.6Y-1.8
X7.6Y-1.9
X7.6Y-2.8
X7.6Y-2.9
X7.6Y-3.0
X7.6Y-3.5
X7.6Y-5.5
X7.7Y-1.7
X7.7Y-1.8
X7.7Y-1.9
X7.7Y-2.8
X7.7Y-2.9
X7.7Y-3.0
X7.8Y-1.7
X7.8Y-1.8
X7.8Y-1.9
X7.8Y-2.8
X7.8Y-2.9
X7.8Y-3.0
X7.8Y-3.5
X7.9Y-1.7
X7.9Y-1.8
X7.9Y-1.9
X7.9Y-2.8
X7.9Y-2.9
X7.9Y-3.0
X8.0Y-1.7
X8.0Y-1.8
X8.0Y-1.9
X8.0Y-2.8
X8.0Y-2.9
X8.0Y-3.0
X8.1Y-1.7
X8.1Y-1.8
X8.1Y-1.9
X8.1Y-2.8
X8.1Y-2.9
X8.1Y-3.0
X8.1Y-5.2
X8.1Y-5.4
X8.2Y-1.7
X8.2Y-1.8
X8.2Y-1.9
X8.2Y-2.8
X8.2Y-2.9
X8.2Y-3.0
X8.2Y-5.2
X8.3Y-1.7
X8.3Y-1.8
X8.3Y-1.9
X8.3Y-2.8
X8.3Y-2.9
X8.3Y-3.0
X8.3Y-5.2
X8.4Y-5.2
X8.7Y-3.7
X8.8Y-3.1
X8.8Y-3.7
X8.8Y-5.4
X8.9Y-3.1
X8.9Y-3.7
X9.0Y-3.1
X9.0Y-3.7
X9.1Y-3.1
X9.1Y-3.7
X9.1Y-5.2
X9.2Y-3.1
X9.2Y-3.7
X9.2Y-5.2
X9.3Y-3.1
X9.3Y-3.7
X9.3Y-5.2
X10.0Y-3.3
X10.0Y-3.4
X10.0Y-3.5
X10.0Y-3.6
X10.0Y-3.7
X10.0Y-3.8
X10.0Y-3.9
X10.0Y-4.0
X10.0Y-4.1
X10.0Y-4.2
X10.0Y-4.3
X10.0Y-4.4
X10.0Y-4.5
X10.0Y-4.6
X10.0Y-4.7
X10.0Y-4.8
X10.0Y-4.9
X10.0Y-5.0
X10.0Y-5.1
X10.0Y-5.2
T5
X1.802Y-4.956
X1.802Y-5.354
X1.8689Y-5.056
X1.8689Y-5.454
T6
X3.2Y-3.2
X3.2Y-3.7
X3.2Y-3.8
X3.2Y-3.9
X3.2Y-4.4
X4.2Y-4.6
X4.2Y-5.2
X4.3Y-4.6
X4.3Y-5.2
X4.4Y-4.6
X4.4Y-5.2
X4.5Y-4.6
X4.5Y-5.2
X4.6Y-4.6
X4.6Y-5.2
X4.7Y-4.4
X4.7Y-4.6
X4.7Y-5.2
X4.8Y-4.4
X4.8Y-4.6
X4.8Y-5.2
X4.9Y-4.4
X4.9Y-4.6
X4.9Y-5.2
X5.0Y-4.4
X5.0Y-4.6
X5.0Y-5.2
X5.1Y-4.4
X5.1Y-4.6
X5.1Y-5.2
X5.2Y-4.4
X5.2Y-4.6
X5.2Y-5.2
X5.3Y-4.4
X5.3Y-4.6
X5.3Y-5.2
X5.4Y-3.2
X5.4Y-4.4
X5.4Y-4.6
X5.4Y-5.2
X5.5Y-3.2
X5.5Y-4.4
X5.5Y-4.6
X5.5Y-5.2
X5.6Y-3.2
X5.6Y-4.4
X5.6Y-4.6
X5.6Y-5.2
X5.7Y-3.2
X5.7Y-4.4
X5.7Y-4.6
X5.7Y-5.2
X5.8Y-3.2
X5.8Y-4.4
X5.8Y-4.6
X5.8Y-5.2
X5.9Y-3.2
X5.9Y-4.4
X5.9Y-4.6
X5.9Y-5.2
X6.0Y-4.6
X6.0Y-5.2
X6.1Y-4.6
X6.1Y-5.2
X6.2Y-4.6
X6.2Y-5.2
X6.3Y-4.6
X6.3Y-5.2
X6.4Y-4.6
X6.4Y-5.2
X6.5Y-4.6
X6.5Y-5.2
X6.7Y-3.7
X6.7Y-3.8
X6.7Y-3.9
T7
X1.7808Y-4.08
X1.7808Y-4.48
X2.13Y-3.98
X2.13Y-4.28
X2.13Y-4.58
X2.23Y-4.08
X2.23Y-4.48
T8
X2.122Y-4.895
X2.122Y-5.515
T9
X1.8Y-1.8
X3.0Y-5.4
X6.6Y-3.3
X10.0Y-5.4
X10.1Y-1.8
T4
G00X1.8999Y-3.4406
M15
G01X1.8999Y-3.5194
M16
G05
G00X1.9786Y-3.665
M15
G01X2.0574Y-3.665
M16
G05
G00X2.1361Y-3.4406
M15
G01X2.1361Y-3.5194
M16
G05
G00X8.5819Y-2.6811
M15
G01X8.5819Y-2.7598
M16
G05
G00X8.7Y-2.0906
M15
G01X8.7Y-2.1693
M16
G05
G00X8.8181Y-2.7205
M15
G01X8.8181Y-2.7992
M16
G05
G00X9.125Y-2.6806
M15
G01X9.125Y-2.7594
M16
G05
G00X9.2431Y-2.0901
M15
G01X9.2431Y-2.1688
M16
G05
G00X9.3612Y-2.72
M15
G01X9.3612Y-2.7987
M16
G05
G00X9.6719Y-2.6811
M15
G01X9.6719Y-2.7598
M16
G05
G00X9.79Y-2.0906
M15
G01X9.79Y-2.1693
M16
G05
G00X9.9081Y-2.7205
M15
G01X9.9081Y-2.7992
M16
G05
T0
M30
