%TF.SameCoordinates,Original*%
%TF.FileFunction,Paste,Top*%
%TF.FilePolarity,Positive*%
%FSLAX46Y46*%
G04 Gerber Fmt 4.6, Leading zero omitted, Abs format (unit mm)*
G04 Created by KiCad (PCBNEW (7.0.0)) date 2023-11-17 04:08:32*
%MOMM*%
%LPD*%
G01*
G04 APERTURE LIST*
G04 Aperture macros list*
%AMRoundRect*
0 Rectangle with rounded corners*
0 $1 Rounding radius*
0 $2 $3 $4 $5 $6 $7 $8 $9 X,Y pos of 4 corners*
0 Add a 4 corners polygon primitive as box body*
4,1,4,$2,$3,$4,$5,$6,$7,$8,$9,$2,$3,0*
0 Add four circle primitives for the rounded corners*
1,1,$1+$1,$2,$3*
1,1,$1+$1,$4,$5*
1,1,$1+$1,$6,$7*
1,1,$1+$1,$8,$9*
0 Add four rect primitives between the rounded corners*
20,1,$1+$1,$2,$3,$4,$5,0*
20,1,$1+$1,$4,$5,$6,$7,0*
20,1,$1+$1,$6,$7,$8,$9,0*
20,1,$1+$1,$8,$9,$2,$3,0*%
G04 Aperture macros list end*
%ADD10RoundRect,0.280800X-0.394200X0.469200X-0.394200X-0.469200X0.394200X-0.469200X0.394200X0.469200X0*%
%ADD11RoundRect,0.287550X-0.387450X0.462450X-0.387450X-0.462450X0.387450X-0.462450X0.387450X0.462450X0*%
%ADD12RoundRect,0.280800X0.469200X0.394200X-0.469200X0.394200X-0.469200X-0.394200X0.469200X-0.394200X0*%
%ADD13RoundRect,0.280800X0.394200X-0.469200X0.394200X0.469200X-0.394200X0.469200X-0.394200X-0.469200X0*%
%ADD14R,3.000000X1.250000*%
%ADD15R,0.700000X2.250000*%
%ADD16RoundRect,0.287550X0.462450X0.387450X-0.462450X0.387450X-0.462450X-0.387450X0.462450X-0.387450X0*%
%ADD17RoundRect,0.280800X-0.469200X-0.394200X0.469200X-0.394200X0.469200X0.394200X-0.469200X0.394200X0*%
%ADD18R,1.500000X0.600000*%
%ADD19R,1.500000X0.750000*%
%ADD20RoundRect,0.288462X-0.461538X-1.036538X0.461538X-1.036538X0.461538X1.036538X-0.461538X1.036538X0*%
%ADD21RoundRect,0.287550X-0.462450X-0.387450X0.462450X-0.387450X0.462450X0.387450X-0.462450X0.387450X0*%
%ADD22R,2.000000X0.700000*%
G04 APERTURE END LIST*
D10*
%TO.C,R1*%
X185420000Y-130626000D03*
X185420000Y-133026000D03*
%TD*%
D11*
%TO.C,C2*%
X53086000Y-53122000D03*
X53086000Y-55522000D03*
%TD*%
D12*
%TO.C,R25*%
X231140000Y-83566000D03*
X228740000Y-83566000D03*
%TD*%
D13*
%TO.C,R7*%
X62738000Y-106051200D03*
X62738000Y-103651200D03*
%TD*%
D11*
%TO.C,C7*%
X101294500Y-53254000D03*
X101294500Y-55654000D03*
%TD*%
D14*
%TO.C,SW1*%
X76635999Y-102869999D03*
X76635999Y-100329999D03*
X67635999Y-100329999D03*
X67635999Y-102869999D03*
%TD*%
D11*
%TO.C,C3*%
X65024000Y-126562000D03*
X65024000Y-128962000D03*
%TD*%
D15*
%TO.C,U1*%
X56133999Y-64414399D03*
X57403999Y-64414399D03*
X58673999Y-64414399D03*
X59943999Y-64414399D03*
X61213999Y-64414399D03*
X62483999Y-64414399D03*
X63753999Y-64414399D03*
X65023999Y-64414399D03*
X66293999Y-64414399D03*
X67563999Y-64414399D03*
X68833999Y-64414399D03*
X70103999Y-64414399D03*
X70103999Y-54914399D03*
X68833999Y-54914399D03*
X67563999Y-54914399D03*
X66293999Y-54914399D03*
X65023999Y-54914399D03*
X63753999Y-54914399D03*
X62483999Y-54914399D03*
X61213999Y-54914399D03*
X59943999Y-54914399D03*
X58673999Y-54914399D03*
X57403999Y-54914399D03*
X56133999Y-54914399D03*
%TD*%
D10*
%TO.C,R9*%
X241554000Y-100648000D03*
X241554000Y-103048000D03*
%TD*%
D16*
%TO.C,D2*%
X133280000Y-137160000D03*
X130880000Y-137160000D03*
%TD*%
D15*
%TO.C,U5*%
X168020999Y-64439999D03*
X169290999Y-64439999D03*
X170560999Y-64439999D03*
X171830999Y-64439999D03*
X173100999Y-64439999D03*
X174370999Y-64439999D03*
X175640999Y-64439999D03*
X176910999Y-64439999D03*
X178180999Y-64439999D03*
X179450999Y-64439999D03*
X180720999Y-64439999D03*
X181990999Y-64439999D03*
X181990999Y-54939999D03*
X180720999Y-54939999D03*
X179450999Y-54939999D03*
X178180999Y-54939999D03*
X176910999Y-54939999D03*
X175640999Y-54939999D03*
X174370999Y-54939999D03*
X173100999Y-54939999D03*
X171830999Y-54939999D03*
X170560999Y-54939999D03*
X169290999Y-54939999D03*
X168020999Y-54939999D03*
%TD*%
D17*
%TO.C,R12*%
X147390000Y-105410000D03*
X149790000Y-105410000D03*
%TD*%
D11*
%TO.C,C12*%
X165037500Y-53156000D03*
X165037500Y-55556000D03*
%TD*%
%TO.C,C8*%
X108914500Y-53254000D03*
X108914500Y-55654000D03*
%TD*%
D15*
%TO.C,U4*%
X139953999Y-64414399D03*
X141223999Y-64414399D03*
X142493999Y-64414399D03*
X143763999Y-64414399D03*
X145033999Y-64414399D03*
X146303999Y-64414399D03*
X147573999Y-64414399D03*
X148843999Y-64414399D03*
X150113999Y-64414399D03*
X151383999Y-64414399D03*
X152653999Y-64414399D03*
X153923999Y-64414399D03*
X153923999Y-54914399D03*
X152653999Y-54914399D03*
X151383999Y-54914399D03*
X150113999Y-54914399D03*
X148843999Y-54914399D03*
X147573999Y-54914399D03*
X146303999Y-54914399D03*
X145033999Y-54914399D03*
X143763999Y-54914399D03*
X142493999Y-54914399D03*
X141223999Y-54914399D03*
X139953999Y-54914399D03*
%TD*%
D18*
%TO.C,U18*%
X159905999Y-53471999D03*
X159905999Y-54421999D03*
X159905999Y-55371999D03*
D19*
X162305999Y-55371999D03*
X162305999Y-53471999D03*
%TD*%
D11*
%TO.C,C11*%
X157417500Y-53156000D03*
X157417500Y-55556000D03*
%TD*%
D12*
%TO.C,R22*%
X223844000Y-87122000D03*
X221444000Y-87122000D03*
%TD*%
D10*
%TO.C,R10*%
X246126000Y-104480000D03*
X246126000Y-106880000D03*
%TD*%
D20*
%TO.C,F2*%
X98476000Y-108712000D03*
X101676000Y-108712000D03*
%TD*%
D11*
%TO.C,C6*%
X80963500Y-53222000D03*
X80963500Y-55622000D03*
%TD*%
D16*
%TO.C,D3*%
X145980000Y-137160000D03*
X143580000Y-137160000D03*
%TD*%
D15*
%TO.C,U3*%
X112013999Y-64414399D03*
X113283999Y-64414399D03*
X114553999Y-64414399D03*
X115823999Y-64414399D03*
X117093999Y-64414399D03*
X118363999Y-64414399D03*
X119633999Y-64414399D03*
X120903999Y-64414399D03*
X122173999Y-64414399D03*
X123443999Y-64414399D03*
X124713999Y-64414399D03*
X125983999Y-64414399D03*
X125983999Y-54914399D03*
X124713999Y-54914399D03*
X123443999Y-54914399D03*
X122173999Y-54914399D03*
X120903999Y-54914399D03*
X119633999Y-54914399D03*
X118363999Y-54914399D03*
X117093999Y-54914399D03*
X115823999Y-54914399D03*
X114553999Y-54914399D03*
X113283999Y-54914399D03*
X112013999Y-54914399D03*
%TD*%
D16*
%TO.C,D6*%
X130232000Y-85217000D03*
X127832000Y-85217000D03*
%TD*%
D12*
%TO.C,R26*%
X231070000Y-87122000D03*
X228670000Y-87122000D03*
%TD*%
D21*
%TO.C,D7*%
X111576000Y-107442000D03*
X113976000Y-107442000D03*
%TD*%
D17*
%TO.C,R6*%
X201816000Y-111760000D03*
X204216000Y-111760000D03*
%TD*%
%TO.C,R16*%
X111576000Y-104394000D03*
X113976000Y-104394000D03*
%TD*%
D12*
%TO.C,R3*%
X133280000Y-139700000D03*
X130880000Y-139700000D03*
%TD*%
D16*
%TO.C,D4*%
X158680000Y-137160000D03*
X156280000Y-137160000D03*
%TD*%
D13*
%TO.C,R11*%
X248158000Y-97974000D03*
X248158000Y-95574000D03*
%TD*%
D16*
%TO.C,D5*%
X198120000Y-111760000D03*
X195720000Y-111760000D03*
%TD*%
D18*
%TO.C,U19*%
X187908499Y-53371999D03*
X187908499Y-54321999D03*
X187908499Y-55271999D03*
D19*
X190308499Y-55271999D03*
X190308499Y-53371999D03*
%TD*%
D11*
%TO.C,C14*%
X193040000Y-53122000D03*
X193040000Y-55522000D03*
%TD*%
D17*
%TO.C,R13*%
X147390000Y-107950000D03*
X149790000Y-107950000D03*
%TD*%
D11*
%TO.C,C9*%
X129477500Y-53222000D03*
X129477500Y-55622000D03*
%TD*%
D18*
%TO.C,U11*%
X48075999Y-53371999D03*
X48075999Y-54321999D03*
X48075999Y-55271999D03*
D19*
X50475999Y-55271999D03*
X50475999Y-53371999D03*
%TD*%
D20*
%TO.C,F1*%
X59868000Y-88900000D03*
X63068000Y-88900000D03*
%TD*%
D12*
%TO.C,R15*%
X130232000Y-88265000D03*
X127832000Y-88265000D03*
%TD*%
%TO.C,R28*%
X238252000Y-83566000D03*
X235852000Y-83566000D03*
%TD*%
D14*
%TO.C,SW2*%
X76635999Y-110743999D03*
X76635999Y-108203999D03*
X67635999Y-108203999D03*
X67635999Y-110743999D03*
%TD*%
D11*
%TO.C,C5*%
X73343500Y-53222000D03*
X73343500Y-55622000D03*
%TD*%
D17*
%TO.C,R14*%
X154756000Y-102870000D03*
X157156000Y-102870000D03*
%TD*%
D12*
%TO.C,R29*%
X238322000Y-87122000D03*
X235922000Y-87122000D03*
%TD*%
D11*
%TO.C,C10*%
X137097500Y-53222000D03*
X137097500Y-55622000D03*
%TD*%
D15*
%TO.C,U6*%
X195833999Y-64439799D03*
X197103999Y-64439799D03*
X198373999Y-64439799D03*
X199643999Y-64439799D03*
X200913999Y-64439799D03*
X202183999Y-64439799D03*
X203453999Y-64439799D03*
X204723999Y-64439799D03*
X205993999Y-64439799D03*
X207263999Y-64439799D03*
X208533999Y-64439799D03*
X209803999Y-64439799D03*
X209803999Y-54939799D03*
X208533999Y-54939799D03*
X207263999Y-54939799D03*
X205993999Y-54939799D03*
X204723999Y-54939799D03*
X203453999Y-54939799D03*
X202183999Y-54939799D03*
X200913999Y-54939799D03*
X199643999Y-54939799D03*
X198373999Y-54939799D03*
X197103999Y-54939799D03*
X195833999Y-54939799D03*
%TD*%
D12*
%TO.C,R4*%
X145980000Y-139700000D03*
X143580000Y-139700000D03*
%TD*%
D16*
%TO.C,C4*%
X175190000Y-136652000D03*
X172790000Y-136652000D03*
%TD*%
%TO.C,D1*%
X120834000Y-137160000D03*
X118434000Y-137160000D03*
%TD*%
D12*
%TO.C,R23*%
X223844000Y-83566000D03*
X221444000Y-83566000D03*
%TD*%
D18*
%TO.C,U16*%
X103771999Y-53471999D03*
X103771999Y-54421999D03*
X103771999Y-55371999D03*
D19*
X106171999Y-55371999D03*
X106171999Y-53471999D03*
%TD*%
D12*
%TO.C,R2*%
X120834000Y-139700000D03*
X118434000Y-139700000D03*
%TD*%
D18*
%TO.C,U17*%
X131965999Y-53471999D03*
X131965999Y-54421999D03*
X131965999Y-55371999D03*
D19*
X134365999Y-55371999D03*
X134365999Y-53471999D03*
%TD*%
D12*
%TO.C,R5*%
X158680000Y-139700000D03*
X156280000Y-139700000D03*
%TD*%
D18*
%TO.C,U15*%
X75831999Y-53471999D03*
X75831999Y-54421999D03*
X75831999Y-55371999D03*
D19*
X78231999Y-55371999D03*
X78231999Y-53471999D03*
%TD*%
D22*
%TO.C,U8*%
X174083999Y-129920999D03*
X174083999Y-131190999D03*
X174083999Y-132460999D03*
X174083999Y-133730999D03*
X179483999Y-133730999D03*
X179483999Y-132460999D03*
X179483999Y-131190999D03*
X179483999Y-129920999D03*
%TD*%
D10*
%TO.C,R8*%
X62738000Y-111379000D03*
X62738000Y-113779000D03*
%TD*%
D11*
%TO.C,C1*%
X45466000Y-53122000D03*
X45466000Y-55522000D03*
%TD*%
%TO.C,C13*%
X185420000Y-53156000D03*
X185420000Y-55556000D03*
%TD*%
D15*
%TO.C,U2*%
X84073999Y-64388999D03*
X85343999Y-64388999D03*
X86613999Y-64388999D03*
X87883999Y-64388999D03*
X89153999Y-64388999D03*
X90423999Y-64388999D03*
X91693999Y-64388999D03*
X92963999Y-64388999D03*
X94233999Y-64388999D03*
X95503999Y-64388999D03*
X96773999Y-64388999D03*
X98043999Y-64388999D03*
X98043999Y-54888999D03*
X96773999Y-54888999D03*
X95503999Y-54888999D03*
X94233999Y-54888999D03*
X92963999Y-54888999D03*
X91693999Y-54888999D03*
X90423999Y-54888999D03*
X89153999Y-54888999D03*
X87883999Y-54888999D03*
X86613999Y-54888999D03*
X85343999Y-54888999D03*
X84073999Y-54888999D03*
%TD*%
M02*
