%TF.SameCoordinates,Original*%
%TF.FileFunction,Soldermask,Bot*%
%TF.FilePolarity,Negative*%
%FSLAX46Y46*%
G04 Gerber Fmt 4.6, Leading zero omitted, Abs format (unit mm)*
G04 Created by KiCad (PCBNEW (7.0.0)) date 2023-11-17 04:08:32*
%MOMM*%
%LPD*%
G01*
G04 APERTURE LIST*
G04 Aperture macros list*
%AMRoundRect*
0 Rectangle with rounded corners*
0 $1 Rounding radius*
0 $2 $3 $4 $5 $6 $7 $8 $9 X,Y pos of 4 corners*
0 Add a 4 corners polygon primitive as box body*
4,1,4,$2,$3,$4,$5,$6,$7,$8,$9,$2,$3,0*
0 Add four circle primitives for the rounded corners*
1,1,$1+$1,$2,$3*
1,1,$1+$1,$4,$5*
1,1,$1+$1,$6,$7*
1,1,$1+$1,$8,$9*
0 Add four rect primitives between the rounded corners*
20,1,$1+$1,$2,$3,$4,$5,0*
20,1,$1+$1,$4,$5,$6,$7,0*
20,1,$1+$1,$6,$7,$8,$9,0*
20,1,$1+$1,$8,$9,$2,$3,0*%
G04 Aperture macros list end*
%ADD10R,3.500000X3.500000*%
%ADD11RoundRect,0.750000X-0.750000X-1.000000X0.750000X-1.000000X0.750000X1.000000X-0.750000X1.000000X0*%
%ADD12RoundRect,0.875000X-0.875000X-0.875000X0.875000X-0.875000X0.875000X0.875000X-0.875000X0.875000X0*%
%ADD13R,1.700000X1.700000*%
%ADD14O,1.700000X1.700000*%
%ADD15C,2.000000*%
%ADD16R,1.600000X1.600000*%
%ADD17C,1.600000*%
%ADD18C,1.300000*%
%ADD19R,1.300000X1.300000*%
%ADD20C,2.600000*%
%ADD21C,3.800000*%
%ADD22C,2.300000*%
%ADD23C,3.250000*%
%ADD24RoundRect,0.250500X-0.499500X0.499500X-0.499500X-0.499500X0.499500X-0.499500X0.499500X0.499500X0*%
%ADD25C,1.500000*%
%ADD26C,2.500000*%
G04 APERTURE END LIST*
D10*
%TO.C,J1*%
X54257499Y-88391999D03*
D11*
X48257500Y-88392000D03*
D12*
X51257500Y-93092000D03*
%TD*%
D13*
%TO.C,J17*%
X81279999Y-45719999D03*
D14*
X83819999Y-45719999D03*
X86359999Y-45719999D03*
X88899999Y-45719999D03*
X91439999Y-45719999D03*
X93979999Y-45719999D03*
X96519999Y-45719999D03*
X99059999Y-45719999D03*
%TD*%
D13*
%TO.C,J38*%
X182879999Y-71119999D03*
D14*
X180339999Y-71119999D03*
X177799999Y-71119999D03*
X175259999Y-71119999D03*
X172719999Y-71119999D03*
X170179999Y-71119999D03*
X167639999Y-71119999D03*
X165099999Y-71119999D03*
%TD*%
D13*
%TO.C,J18*%
X99059999Y-76199999D03*
D14*
X96519999Y-76199999D03*
X93979999Y-76199999D03*
X91439999Y-76199999D03*
X88899999Y-76199999D03*
X86359999Y-76199999D03*
X83819999Y-76199999D03*
X81279999Y-76199999D03*
%TD*%
D13*
%TO.C,J29*%
X137159999Y-45719999D03*
D14*
X139699999Y-45719999D03*
X142239999Y-45719999D03*
X144779999Y-45719999D03*
X147319999Y-45719999D03*
X149859999Y-45719999D03*
X152399999Y-45719999D03*
X154939999Y-45719999D03*
%TD*%
D15*
%TO.C,TP14*%
X193040000Y-88900000D03*
%TD*%
D16*
%TO.C,U7*%
X106679999Y-132079999D03*
D17*
X109220000Y-132080000D03*
X111760000Y-132080000D03*
X114300000Y-132080000D03*
X116840000Y-132080000D03*
X119380000Y-132080000D03*
X121920000Y-132080000D03*
X124460000Y-132080000D03*
X127000000Y-132080000D03*
X129540000Y-132080000D03*
X132080000Y-132080000D03*
X134620000Y-132080000D03*
X137160000Y-132080000D03*
X139700000Y-132080000D03*
X142240000Y-132080000D03*
X144780000Y-132080000D03*
X147320000Y-132080000D03*
X149860000Y-132080000D03*
X152400000Y-132080000D03*
X154940000Y-132080000D03*
X157480000Y-132080000D03*
X160020000Y-132080000D03*
X162560000Y-132080000D03*
X165100000Y-132080000D03*
D18*
X121650000Y-119278400D03*
D19*
X119649999Y-119278399D03*
D18*
X119650000Y-121278400D03*
X121650000Y-121278400D03*
X119650000Y-123278400D03*
X121650000Y-123278400D03*
D17*
X165100000Y-116840000D03*
X162560000Y-116840000D03*
X160020000Y-116840000D03*
X157480000Y-116840000D03*
X154940000Y-116840000D03*
X152400000Y-116840000D03*
X149860000Y-116840000D03*
X147320000Y-116840000D03*
X144780000Y-116840000D03*
X142240000Y-116840000D03*
X139700000Y-116840000D03*
X137160000Y-116840000D03*
X134620000Y-116840000D03*
X132080000Y-116840000D03*
X129540000Y-116840000D03*
X127000000Y-116840000D03*
X124460000Y-116840000D03*
X121920000Y-116840000D03*
X119380000Y-116840000D03*
X116840000Y-116840000D03*
X114300000Y-116840000D03*
X111760000Y-116840000D03*
X109220000Y-116840000D03*
X106680000Y-116840000D03*
%TD*%
D15*
%TO.C,TP22*%
X223520000Y-137160000D03*
%TD*%
D20*
%TO.C,H1*%
X45720000Y-45720000D03*
D21*
X45720000Y-45720000D03*
%TD*%
D13*
%TO.C,J19*%
X81279999Y-43179999D03*
D14*
X83819999Y-43179999D03*
X86359999Y-43179999D03*
X88899999Y-43179999D03*
X91439999Y-43179999D03*
X93979999Y-43179999D03*
X96519999Y-43179999D03*
X99059999Y-43179999D03*
%TD*%
D13*
%TO.C,U12*%
X253999999Y-132079999D03*
D14*
X253999999Y-129539999D03*
X253999999Y-126999999D03*
X253999999Y-124459999D03*
X253999999Y-121919999D03*
X253999999Y-119379999D03*
X253999999Y-116839999D03*
X253999999Y-114299999D03*
X253999999Y-111759999D03*
X253999999Y-109219999D03*
X253999999Y-106679999D03*
X253999999Y-104139999D03*
X253999999Y-101599999D03*
X253999999Y-99059999D03*
X253999999Y-96519999D03*
X253999999Y-93979999D03*
X253999999Y-91439999D03*
X253999999Y-88899999D03*
X253999999Y-86359999D03*
X253999999Y-83819999D03*
%TD*%
D13*
%TO.C,J4*%
X71119999Y-76199999D03*
D14*
X68579999Y-76199999D03*
X66039999Y-76199999D03*
X63499999Y-76199999D03*
X60959999Y-76199999D03*
X58419999Y-76199999D03*
X55879999Y-76199999D03*
X53339999Y-76199999D03*
%TD*%
D15*
%TO.C,TP19*%
X73660000Y-66040000D03*
%TD*%
D13*
%TO.C,J32*%
X154939999Y-71119999D03*
D14*
X152399999Y-71119999D03*
X149859999Y-71119999D03*
X147319999Y-71119999D03*
X144779999Y-71119999D03*
X142239999Y-71119999D03*
X139699999Y-71119999D03*
X137159999Y-71119999D03*
%TD*%
D20*
%TO.C,H2*%
X76200000Y-137160000D03*
D21*
X76200000Y-137160000D03*
%TD*%
D15*
%TO.C,TP12*%
X182880000Y-88900000D03*
%TD*%
D13*
%TO.C,J31*%
X137159999Y-43179999D03*
D14*
X139699999Y-43179999D03*
X142239999Y-43179999D03*
X144779999Y-43179999D03*
X147319999Y-43179999D03*
X149859999Y-43179999D03*
X152399999Y-43179999D03*
X154939999Y-43179999D03*
%TD*%
D13*
%TO.C,J35*%
X165099999Y-45719999D03*
D14*
X167639999Y-45719999D03*
X170179999Y-45719999D03*
X172719999Y-45719999D03*
X175259999Y-45719999D03*
X177799999Y-45719999D03*
X180339999Y-45719999D03*
X182879999Y-45719999D03*
%TD*%
D13*
%TO.C,J41*%
X193039999Y-45719999D03*
D14*
X195579999Y-45719999D03*
X198119999Y-45719999D03*
X200659999Y-45719999D03*
X203199999Y-45719999D03*
X205739999Y-45719999D03*
X208279999Y-45719999D03*
X210819999Y-45719999D03*
%TD*%
D13*
%TO.C,J25*%
X109219999Y-43179999D03*
D14*
X111759999Y-43179999D03*
X114299999Y-43179999D03*
X116839999Y-43179999D03*
X119379999Y-43179999D03*
X121919999Y-43179999D03*
X124459999Y-43179999D03*
X126999999Y-43179999D03*
%TD*%
D20*
%TO.C,H3*%
X254000000Y-137160000D03*
D21*
X254000000Y-137160000D03*
%TD*%
D13*
%TO.C,J21*%
X81309999Y-48259999D03*
D14*
X83849999Y-48259999D03*
X86389999Y-48259999D03*
X88929999Y-48259999D03*
X91469999Y-48259999D03*
X94009999Y-48259999D03*
X96549999Y-48259999D03*
X99089999Y-48259999D03*
%TD*%
D13*
%TO.C,J42*%
X210819999Y-76199999D03*
D14*
X208279999Y-76199999D03*
X205739999Y-76199999D03*
X203199999Y-76199999D03*
X200659999Y-76199999D03*
X198119999Y-76199999D03*
X195579999Y-76199999D03*
X193039999Y-76199999D03*
%TD*%
D16*
%TO.C,U9*%
X119379999Y-111759999D03*
D17*
X121920000Y-111760000D03*
X124460000Y-111760000D03*
X127000000Y-111760000D03*
X129540000Y-111760000D03*
X132080000Y-111760000D03*
X134620000Y-111760000D03*
X137160000Y-111760000D03*
X139700000Y-111760000D03*
X142240000Y-111760000D03*
X144780000Y-111760000D03*
X147320000Y-111760000D03*
X149860000Y-111760000D03*
X170180000Y-99060000D03*
X170180000Y-96520000D03*
X170180000Y-93980000D03*
X149860000Y-81280000D03*
X147320000Y-81280000D03*
X144780000Y-81280000D03*
X142240000Y-81280000D03*
X139700000Y-81280000D03*
X137160000Y-81280000D03*
X81280000Y-81280000D03*
X81280000Y-93980000D03*
X81280000Y-96520000D03*
X81280000Y-99060000D03*
X81280000Y-111760000D03*
%TD*%
D13*
%TO.C,J30*%
X154939999Y-76199999D03*
D14*
X152399999Y-76199999D03*
X149859999Y-76199999D03*
X147319999Y-76199999D03*
X144779999Y-76199999D03*
X142239999Y-76199999D03*
X139699999Y-76199999D03*
X137159999Y-76199999D03*
%TD*%
D13*
%TO.C,J40*%
X210819999Y-73659999D03*
D14*
X208279999Y-73659999D03*
X205739999Y-73659999D03*
X203199999Y-73659999D03*
X200659999Y-73659999D03*
X198119999Y-73659999D03*
X195579999Y-73659999D03*
X193039999Y-73659999D03*
%TD*%
D20*
%TO.C,H5*%
X167640000Y-83820000D03*
D21*
X167640000Y-83820000D03*
%TD*%
D13*
%TO.C,J43*%
X193039999Y-43179999D03*
D14*
X195579999Y-43179999D03*
X198119999Y-43179999D03*
X200659999Y-43179999D03*
X203199999Y-43179999D03*
X205739999Y-43179999D03*
X208279999Y-43179999D03*
X210819999Y-43179999D03*
%TD*%
D13*
%TO.C,J46*%
X223519999Y-78739999D03*
D14*
X226059999Y-78739999D03*
X228599999Y-78739999D03*
X231139999Y-78739999D03*
X233679999Y-78739999D03*
X236219999Y-78739999D03*
%TD*%
D13*
%TO.C,J16*%
X99059999Y-73659999D03*
D14*
X96519999Y-73659999D03*
X93979999Y-73659999D03*
X91439999Y-73659999D03*
X88899999Y-73659999D03*
X86359999Y-73659999D03*
X83819999Y-73659999D03*
X81279999Y-73659999D03*
%TD*%
D13*
%TO.C,J26*%
X126999999Y-71119999D03*
D14*
X124459999Y-71119999D03*
X121919999Y-71119999D03*
X119379999Y-71119999D03*
X116839999Y-71119999D03*
X114299999Y-71119999D03*
X111759999Y-71119999D03*
X109219999Y-71119999D03*
%TD*%
D15*
%TO.C,TP5*%
X50800000Y-63500000D03*
%TD*%
D13*
%TO.C,J28*%
X154939999Y-73659999D03*
D14*
X152399999Y-73659999D03*
X149859999Y-73659999D03*
X147319999Y-73659999D03*
X144779999Y-73659999D03*
X142239999Y-73659999D03*
X139699999Y-73659999D03*
X137159999Y-73659999D03*
%TD*%
D15*
%TO.C,TP11*%
X152400000Y-137160000D03*
%TD*%
%TO.C,TP13*%
X187960000Y-88900000D03*
%TD*%
%TO.C,TP15*%
X198120000Y-88900000D03*
%TD*%
%TO.C,TP6*%
X193040000Y-139700000D03*
%TD*%
D11*
%TO.C,J14*%
X234775000Y-54088000D03*
X231775000Y-69088000D03*
X237775000Y-70088000D03*
%TD*%
D13*
%TO.C,J10*%
X185419999Y-139699999D03*
D14*
X187959999Y-139699999D03*
%TD*%
D13*
%TO.C,J34*%
X182879999Y-73659999D03*
D14*
X180339999Y-73659999D03*
X177799999Y-73659999D03*
X175259999Y-73659999D03*
X172719999Y-73659999D03*
X170179999Y-73659999D03*
X167639999Y-73659999D03*
X165099999Y-73659999D03*
%TD*%
D13*
%TO.C,J47*%
X236219999Y-93979999D03*
D14*
X233679999Y-93979999D03*
X231139999Y-93979999D03*
X228599999Y-93979999D03*
X226059999Y-93979999D03*
X223519999Y-93979999D03*
X220979999Y-93979999D03*
%TD*%
D15*
%TO.C,TP8*%
X114300000Y-137160000D03*
%TD*%
%TO.C,TP10*%
X139700000Y-137160000D03*
%TD*%
D13*
%TO.C,J27*%
X109219999Y-48259999D03*
D14*
X111759999Y-48259999D03*
X114299999Y-48259999D03*
X116839999Y-48259999D03*
X119379999Y-48259999D03*
X121919999Y-48259999D03*
X124459999Y-48259999D03*
X126999999Y-48259999D03*
%TD*%
D13*
%TO.C,J44*%
X210819999Y-71119999D03*
D14*
X208279999Y-71119999D03*
X205739999Y-71119999D03*
X203199999Y-71119999D03*
X200659999Y-71119999D03*
X198119999Y-71119999D03*
X195579999Y-71119999D03*
X193039999Y-71119999D03*
%TD*%
D13*
%TO.C,J37*%
X165099999Y-43179999D03*
D14*
X167639999Y-43179999D03*
X170179999Y-43179999D03*
X172719999Y-43179999D03*
X175259999Y-43179999D03*
X177799999Y-43179999D03*
X180339999Y-43179999D03*
X182879999Y-43179999D03*
%TD*%
D15*
%TO.C,TP7*%
X180340000Y-139700000D03*
%TD*%
D20*
%TO.C,H4*%
X256540000Y-45720000D03*
D21*
X256540000Y-45720000D03*
%TD*%
D13*
%TO.C,J3*%
X205739999Y-132079999D03*
D14*
X208279999Y-132079999D03*
X210819999Y-132079999D03*
X213359999Y-132079999D03*
%TD*%
D13*
%TO.C,J11*%
X177799999Y-104139999D03*
D14*
X177799999Y-106679999D03*
X177799999Y-109219999D03*
X177799999Y-111759999D03*
%TD*%
D13*
%TO.C,J33*%
X137159999Y-48259999D03*
D14*
X139699999Y-48259999D03*
X142239999Y-48259999D03*
X144779999Y-48259999D03*
X147319999Y-48259999D03*
X149859999Y-48259999D03*
X152399999Y-48259999D03*
X154939999Y-48259999D03*
%TD*%
D13*
%TO.C,J9*%
X53339999Y-48259999D03*
D14*
X55879999Y-48259999D03*
X58419999Y-48259999D03*
X60959999Y-48259999D03*
X63499999Y-48259999D03*
X66039999Y-48259999D03*
X68579999Y-48259999D03*
X71119999Y-48259999D03*
%TD*%
D13*
%TO.C,J23*%
X109219999Y-45719999D03*
D14*
X111759999Y-45719999D03*
X114299999Y-45719999D03*
X116839999Y-45719999D03*
X119379999Y-45719999D03*
X121919999Y-45719999D03*
X124459999Y-45719999D03*
X126999999Y-45719999D03*
%TD*%
D15*
%TO.C,TP9*%
X127000000Y-137160000D03*
%TD*%
D11*
%TO.C,J13*%
X220980000Y-54100000D03*
X217980000Y-69100000D03*
X223980000Y-70100000D03*
%TD*%
D13*
%TO.C,J22*%
X126999999Y-73659999D03*
D14*
X124459999Y-73659999D03*
X121919999Y-73659999D03*
X119379999Y-73659999D03*
X116839999Y-73659999D03*
X114299999Y-73659999D03*
X111759999Y-73659999D03*
X109219999Y-73659999D03*
%TD*%
D13*
%TO.C,J12*%
X68579999Y-88899999D03*
D14*
X68579999Y-86359999D03*
%TD*%
D22*
%TO.C,U13*%
X45232000Y-113792000D03*
X45232000Y-103632000D03*
X54102000Y-116332000D03*
X54102000Y-108712000D03*
X54102000Y-101092000D03*
X56642000Y-113792000D03*
X56642000Y-103632000D03*
%TD*%
D13*
%TO.C,J20*%
X99059999Y-71119999D03*
D14*
X96519999Y-71119999D03*
X93979999Y-71119999D03*
X91439999Y-71119999D03*
X88899999Y-71119999D03*
X86359999Y-71119999D03*
X83819999Y-71119999D03*
X81279999Y-71119999D03*
%TD*%
D13*
%TO.C,J24*%
X126999999Y-76199999D03*
D14*
X124459999Y-76199999D03*
X121919999Y-76199999D03*
X119379999Y-76199999D03*
X116839999Y-76199999D03*
X114299999Y-76199999D03*
X111759999Y-76199999D03*
X109219999Y-76199999D03*
%TD*%
D13*
%TO.C,J48*%
X231139999Y-132079999D03*
D14*
X233679999Y-132079999D03*
X236219999Y-132079999D03*
%TD*%
D15*
%TO.C,TP21*%
X205740000Y-137160000D03*
%TD*%
D13*
%TO.C,J8*%
X71119999Y-71119999D03*
D14*
X68579999Y-71119999D03*
X66039999Y-71119999D03*
X63499999Y-71119999D03*
X60959999Y-71119999D03*
X58419999Y-71119999D03*
X55879999Y-71119999D03*
X53339999Y-71119999D03*
%TD*%
D13*
%TO.C,J36*%
X182879999Y-76199999D03*
D14*
X180339999Y-76199999D03*
X177799999Y-76199999D03*
X175259999Y-76199999D03*
X172719999Y-76199999D03*
X170179999Y-76199999D03*
X167639999Y-76199999D03*
X165099999Y-76199999D03*
%TD*%
D23*
%TO.C,J2*%
X50850000Y-126492000D03*
X50850000Y-137922000D03*
D24*
X57200000Y-127762000D03*
D25*
X59740000Y-129032000D03*
X57200000Y-130302000D03*
X59740000Y-131572000D03*
X57200000Y-132842000D03*
X59740000Y-134112000D03*
X57200000Y-135382000D03*
X59740000Y-136652000D03*
X45770000Y-125882000D03*
X47470000Y-128422000D03*
X45770000Y-135992000D03*
X47470000Y-138532000D03*
D26*
X53900000Y-124332000D03*
X53900000Y-140082000D03*
%TD*%
D13*
%TO.C,J7*%
X53339999Y-45719999D03*
D14*
X55879999Y-45719999D03*
X58419999Y-45719999D03*
X60959999Y-45719999D03*
X63499999Y-45719999D03*
X66039999Y-45719999D03*
X68579999Y-45719999D03*
X71119999Y-45719999D03*
%TD*%
D13*
%TO.C,J39*%
X165099999Y-48259999D03*
D14*
X167639999Y-48259999D03*
X170179999Y-48259999D03*
X172719999Y-48259999D03*
X175259999Y-48259999D03*
X177799999Y-48259999D03*
X180339999Y-48259999D03*
X182879999Y-48259999D03*
%TD*%
D13*
%TO.C,J45*%
X193039999Y-48259999D03*
D14*
X195579999Y-48259999D03*
X198119999Y-48259999D03*
X200659999Y-48259999D03*
X203199999Y-48259999D03*
X205739999Y-48259999D03*
X208279999Y-48259999D03*
X210819999Y-48259999D03*
%TD*%
D13*
%TO.C,J6*%
X53339999Y-43179999D03*
D14*
X55879999Y-43179999D03*
X58419999Y-43179999D03*
X60959999Y-43179999D03*
X63499999Y-43179999D03*
X66039999Y-43179999D03*
X68579999Y-43179999D03*
X71119999Y-43179999D03*
%TD*%
D13*
%TO.C,J5*%
X71119999Y-73659999D03*
D14*
X68579999Y-73659999D03*
X66039999Y-73659999D03*
X63499999Y-73659999D03*
X60959999Y-73659999D03*
X58419999Y-73659999D03*
X55879999Y-73659999D03*
X53339999Y-73659999D03*
%TD*%
D11*
%TO.C,J15*%
X248666000Y-54100000D03*
X245666000Y-69100000D03*
X251666000Y-70100000D03*
%TD*%
M02*
