%TF.SameCoordinates,Original*%
%TF.FileFunction,Legend,Bot*%
%TF.FilePolarity,Positive*%
%FSLAX46Y46*%
G04 Gerber Fmt 4.6, Leading zero omitted, Abs format (unit mm)*
G04 Created by KiCad (PCBNEW (7.0.0)) date 2023-11-17 04:08:32*
%MOMM*%
%LPD*%
G01*
G04 APERTURE LIST*
G04 APERTURE END LIST*
%TO.C,G\u002A\u002A\u002A*%
G36*
X123803511Y-90022710D02*
G01*
X123873846Y-90196051D01*
X123859150Y-90285933D01*
X123743589Y-90391436D01*
X123683668Y-90369392D01*
X123613333Y-90196051D01*
X123628029Y-90106168D01*
X123743589Y-90000666D01*
X123803511Y-90022710D01*
G37*
G36*
X119914151Y-90811128D02*
G01*
X119868461Y-90868471D01*
X119822107Y-90907537D01*
X119736266Y-91169060D01*
X119705641Y-91628872D01*
X119710413Y-91828576D01*
X119763589Y-92216288D01*
X119868461Y-92389272D01*
X119880312Y-92394591D01*
X119862280Y-92440061D01*
X119640513Y-92463260D01*
X119590146Y-92463864D01*
X119382636Y-92438542D01*
X119425713Y-92360037D01*
X119434748Y-92353847D01*
X119550025Y-92119943D01*
X119571041Y-91678186D01*
X119567431Y-91609710D01*
X119553155Y-91163412D01*
X119578099Y-90915104D01*
X119656684Y-90809793D01*
X119803333Y-90792488D01*
X119914151Y-90811128D01*
G37*
G36*
X119371703Y-90899037D02*
G01*
X119376960Y-90911224D01*
X119285792Y-90979240D01*
X119021185Y-90996729D01*
X118810818Y-90993833D01*
X118658701Y-91050649D01*
X118590781Y-91236233D01*
X118557945Y-91616269D01*
X118554290Y-91681793D01*
X118574224Y-92140828D01*
X118688201Y-92363249D01*
X118693872Y-92366902D01*
X118734175Y-92446500D01*
X118524121Y-92473544D01*
X118364793Y-92467613D01*
X118252820Y-92403739D01*
X118230478Y-92214965D01*
X118271467Y-91834807D01*
X118305237Y-91626847D01*
X118407276Y-91235414D01*
X118524576Y-90988141D01*
X118597886Y-90920606D01*
X118875854Y-90804328D01*
X119174860Y-90792819D01*
X119371703Y-90899037D01*
G37*
G36*
X124036666Y-90799943D02*
G01*
X124187070Y-90808580D01*
X124300824Y-90834007D01*
X124166923Y-90874131D01*
X124065740Y-90900212D01*
X123941222Y-90998569D01*
X123886212Y-91218518D01*
X123873846Y-91629279D01*
X123879000Y-91967556D01*
X123918136Y-92217499D01*
X124024708Y-92332371D01*
X124232051Y-92382241D01*
X124249585Y-92385071D01*
X124292038Y-92411092D01*
X124111879Y-92429513D01*
X123743589Y-92436505D01*
X123699923Y-92436432D01*
X123348636Y-92428144D01*
X123188878Y-92408803D01*
X123255128Y-92382241D01*
X123267241Y-92380393D01*
X123461649Y-92333114D01*
X123565026Y-92223928D01*
X123606033Y-91986649D01*
X123613333Y-91555091D01*
X123613333Y-90782205D01*
X124036666Y-90799943D01*
G37*
G36*
X135927880Y-90280023D02*
G01*
X135987692Y-90529379D01*
X136023611Y-90675208D01*
X136215641Y-90797315D01*
X136283676Y-90802081D01*
X136376175Y-90822489D01*
X136215641Y-90871994D01*
X136118031Y-90918934D01*
X136016514Y-91112121D01*
X135987692Y-91498862D01*
X135987331Y-91538278D01*
X135927424Y-91982322D01*
X135783003Y-92270850D01*
X135780303Y-92273524D01*
X135466202Y-92432417D01*
X135062017Y-92466778D01*
X134711159Y-92364126D01*
X134680159Y-92331816D01*
X134782272Y-92281070D01*
X135101928Y-92268429D01*
X135662051Y-92280154D01*
X135701422Y-91596307D01*
X135740793Y-90912461D01*
X135245525Y-90890565D01*
X134750256Y-90868668D01*
X135238718Y-90817574D01*
X135528380Y-90770166D01*
X135689774Y-90661295D01*
X135727179Y-90441014D01*
X135760258Y-90241539D01*
X135857436Y-90196051D01*
X135927880Y-90280023D01*
G37*
G36*
X117581144Y-91592982D02*
G01*
X117577861Y-91845569D01*
X117361025Y-92215025D01*
X117107668Y-92384130D01*
X116750703Y-92475538D01*
X116554799Y-92445654D01*
X116192955Y-92259345D01*
X115911357Y-91967680D01*
X115797948Y-91647125D01*
X115799822Y-91635196D01*
X116056885Y-91635196D01*
X116128270Y-91984381D01*
X116310411Y-92210442D01*
X116613345Y-92323846D01*
X117007046Y-92286399D01*
X117317710Y-92004631D01*
X117429856Y-91814934D01*
X117467621Y-91592982D01*
X117349168Y-91320785D01*
X117273054Y-91211505D01*
X116955310Y-90986058D01*
X116578310Y-90923449D01*
X116245969Y-91049255D01*
X116102670Y-91278464D01*
X116056885Y-91635196D01*
X115799822Y-91635196D01*
X115822433Y-91491298D01*
X116023602Y-91151151D01*
X116356002Y-90887890D01*
X116732449Y-90782205D01*
X117079662Y-90850589D01*
X117406835Y-91094181D01*
X117583016Y-91448897D01*
X117581144Y-91592982D01*
G37*
G36*
X137981395Y-90850755D02*
G01*
X138272414Y-90965310D01*
X138333595Y-91012095D01*
X138443532Y-91168678D01*
X138344006Y-91354263D01*
X138154216Y-91488213D01*
X137827897Y-91565738D01*
X137511612Y-91601688D01*
X137235962Y-91761351D01*
X137180814Y-92035249D01*
X137181507Y-92038755D01*
X137335360Y-92230983D01*
X137631080Y-92322272D01*
X137967272Y-92301097D01*
X138242536Y-92155932D01*
X138248505Y-92150080D01*
X138442362Y-92060673D01*
X138573834Y-92131216D01*
X138547597Y-92312718D01*
X138509443Y-92340622D01*
X138273868Y-92404399D01*
X137912110Y-92446615D01*
X137681507Y-92453244D01*
X137338761Y-92395598D01*
X137098167Y-92218666D01*
X136963854Y-92057062D01*
X136936411Y-91901150D01*
X137088323Y-91701235D01*
X137357870Y-91516567D01*
X137727230Y-91408158D01*
X138016605Y-91334583D01*
X138136923Y-91172974D01*
X138073442Y-91030878D01*
X137850017Y-90942812D01*
X137554052Y-90969684D01*
X137279514Y-91117567D01*
X137137422Y-91240044D01*
X137045594Y-91259728D01*
X137029743Y-91084259D01*
X137051606Y-90952265D01*
X137194221Y-90844695D01*
X137528356Y-90805374D01*
X137588324Y-90804318D01*
X137981395Y-90850755D01*
G37*
G36*
X133991203Y-91442791D02*
G01*
X133983116Y-91761726D01*
X133714126Y-92155818D01*
X133712439Y-92157500D01*
X133295261Y-92415805D01*
X132828451Y-92460868D01*
X132397972Y-92284296D01*
X132268350Y-92154331D01*
X132300261Y-92088912D01*
X132346055Y-92092815D01*
X132535897Y-92215025D01*
X132668554Y-92306558D01*
X132970301Y-92341531D01*
X133308657Y-92283447D01*
X133568644Y-92140593D01*
X133739906Y-91923623D01*
X133715454Y-91785790D01*
X133472713Y-91714381D01*
X132991795Y-91694000D01*
X132901718Y-91693335D01*
X132438846Y-91651724D01*
X132218912Y-91537145D01*
X132230235Y-91372942D01*
X132470769Y-91372942D01*
X132509017Y-91467462D01*
X132709398Y-91541883D01*
X133122051Y-91563743D01*
X133356603Y-91555584D01*
X133656169Y-91511791D01*
X133773333Y-91442791D01*
X133772148Y-91424092D01*
X133651715Y-91206073D01*
X133413058Y-91002419D01*
X133169312Y-90912461D01*
X132851113Y-90984972D01*
X132582955Y-91161007D01*
X132470769Y-91372942D01*
X132230235Y-91372942D01*
X132232644Y-91338007D01*
X132470769Y-91042718D01*
X132541051Y-90980586D01*
X132945315Y-90806602D01*
X133391993Y-90827312D01*
X133773333Y-91042718D01*
X133992809Y-91379450D01*
X133991203Y-91442791D01*
G37*
G36*
X122290292Y-91912346D02*
G01*
X122319619Y-92026463D01*
X122162084Y-92311607D01*
X122015416Y-92375853D01*
X121667205Y-92431340D01*
X121217725Y-92447682D01*
X120852907Y-92434555D01*
X120614882Y-92409739D01*
X120584871Y-92379322D01*
X120616794Y-92359564D01*
X120711887Y-92143174D01*
X120741926Y-91819673D01*
X121008205Y-91819673D01*
X121055874Y-91994535D01*
X121260154Y-92210442D01*
X121413363Y-92281872D01*
X121776817Y-92326286D01*
X122061954Y-92135802D01*
X122106118Y-92079401D01*
X122153925Y-91912346D01*
X121987879Y-91745033D01*
X121704822Y-91603588D01*
X121373092Y-91558529D01*
X121113247Y-91632663D01*
X121008205Y-91819673D01*
X120741926Y-91819673D01*
X120747692Y-91757577D01*
X120748058Y-91718030D01*
X120808045Y-91275075D01*
X120952381Y-90986893D01*
X121270573Y-90823704D01*
X121682081Y-90794613D01*
X122050256Y-90909751D01*
X122104934Y-90961793D01*
X122006113Y-91006333D01*
X121664309Y-91005449D01*
X121344135Y-91003678D01*
X121121983Y-91061402D01*
X121036041Y-91205538D01*
X121027759Y-91282400D01*
X121113314Y-91401610D01*
X121397986Y-91433487D01*
X121572505Y-91442079D01*
X121990942Y-91552755D01*
X122251276Y-91760531D01*
X122290292Y-91912346D01*
G37*
G36*
X126880360Y-91626982D02*
G01*
X126869743Y-92019641D01*
X126887034Y-92639278D01*
X126940544Y-93018021D01*
X127032564Y-93170810D01*
X127057061Y-93188181D01*
X126957875Y-93220930D01*
X126674359Y-93231683D01*
X126536343Y-93227877D01*
X126349904Y-93204186D01*
X126381282Y-93167288D01*
X126415556Y-93156204D01*
X126564482Y-92993679D01*
X126609230Y-92635321D01*
X126602619Y-92421979D01*
X126556934Y-92269625D01*
X126452923Y-92319230D01*
X126206703Y-92464642D01*
X125849044Y-92467184D01*
X125504975Y-92303577D01*
X125246055Y-92011560D01*
X125195864Y-91823635D01*
X125340674Y-91823635D01*
X125511355Y-92140593D01*
X125587085Y-92207682D01*
X125932028Y-92347938D01*
X126262809Y-92276648D01*
X126511264Y-92025700D01*
X126609230Y-91626982D01*
X126556472Y-91312351D01*
X126318156Y-91016713D01*
X125910687Y-90912461D01*
X125752214Y-90939096D01*
X125488649Y-91138171D01*
X125342288Y-91461255D01*
X125340674Y-91823635D01*
X125195864Y-91823635D01*
X125143846Y-91628872D01*
X125183934Y-91323259D01*
X125387533Y-91020604D01*
X125783586Y-90854434D01*
X126394636Y-90809990D01*
X126763893Y-90823273D01*
X127002265Y-90848080D01*
X127032564Y-90878421D01*
X127026983Y-90880610D01*
X126937842Y-91033058D01*
X126886322Y-91406479D01*
X126880360Y-91626982D01*
G37*
G36*
X130528139Y-90889237D02*
G01*
X130686555Y-90955991D01*
X130834707Y-90925174D01*
X130869144Y-90897399D01*
X131101799Y-90836647D01*
X131459464Y-90811930D01*
X131620516Y-90814542D01*
X131839361Y-90836105D01*
X131852051Y-90872532D01*
X131803859Y-90914714D01*
X131723628Y-91154644D01*
X131688332Y-91516392D01*
X131697971Y-91905629D01*
X131752544Y-92228031D01*
X131852051Y-92389272D01*
X131874266Y-92401399D01*
X131813208Y-92439583D01*
X131558974Y-92454971D01*
X131477619Y-92453842D01*
X131268260Y-92431405D01*
X131265897Y-92389272D01*
X131347074Y-92291866D01*
X131412939Y-92007427D01*
X131422782Y-91641480D01*
X131376105Y-91294952D01*
X131272410Y-91068769D01*
X131104633Y-90938292D01*
X130985882Y-90971414D01*
X130924905Y-91215311D01*
X130907692Y-91694000D01*
X130901082Y-92106695D01*
X130865210Y-92350674D01*
X130777306Y-92450233D01*
X130614615Y-92465255D01*
X130461948Y-92442026D01*
X130484359Y-92389272D01*
X130577252Y-92274860D01*
X130638996Y-91979766D01*
X130638288Y-91610318D01*
X130577124Y-91266290D01*
X130457500Y-91047453D01*
X130329132Y-90964315D01*
X130142444Y-90987436D01*
X130032145Y-91253722D01*
X129995897Y-91766815D01*
X129994749Y-91924992D01*
X129970853Y-92268958D01*
X129901559Y-92429723D01*
X129767948Y-92465255D01*
X129657131Y-92446615D01*
X129702820Y-92389272D01*
X129750561Y-92348245D01*
X129835516Y-92082400D01*
X129865641Y-91613929D01*
X129886322Y-91250128D01*
X129998853Y-90893868D01*
X130211813Y-90774641D01*
X130528139Y-90889237D01*
G37*
G36*
X103501319Y-94858818D02*
G01*
X103523314Y-94950820D01*
X103597071Y-95091443D01*
X103719675Y-95251291D01*
X103788585Y-95336753D01*
X103849251Y-95434520D01*
X103879259Y-95535810D01*
X103892488Y-95674624D01*
X103893888Y-95768921D01*
X103894556Y-95813883D01*
X103876106Y-95930619D01*
X103830275Y-96027913D01*
X103747818Y-96118904D01*
X103609011Y-96214662D01*
X103453136Y-96284897D01*
X103311971Y-96312181D01*
X103300356Y-96312218D01*
X103245542Y-96317090D01*
X103218987Y-96339720D01*
X103220487Y-96393646D01*
X103249833Y-96492408D01*
X103306819Y-96649546D01*
X103345170Y-96740070D01*
X103480314Y-96976400D01*
X103671404Y-97238302D01*
X103910131Y-97518110D01*
X104188186Y-97808157D01*
X104497260Y-98100781D01*
X104829043Y-98388315D01*
X105175227Y-98663094D01*
X105527503Y-98917454D01*
X105877561Y-99143729D01*
X106217092Y-99334254D01*
X106630200Y-99534673D01*
X107447535Y-99869948D01*
X108312709Y-100148990D01*
X109220966Y-100370158D01*
X109241620Y-100359741D01*
X109221016Y-100311875D01*
X109166975Y-100239321D01*
X109092110Y-100156016D01*
X109009034Y-100075896D01*
X108930360Y-100012898D01*
X108868704Y-99980957D01*
X108751148Y-99945719D01*
X108503166Y-99825495D01*
X108286616Y-99658808D01*
X108123442Y-99460971D01*
X108073734Y-99372223D01*
X107970647Y-99114881D01*
X107900862Y-98826241D01*
X107867573Y-98529540D01*
X107870283Y-98410378D01*
X107942304Y-98410378D01*
X107946178Y-98519643D01*
X107993744Y-98824353D01*
X108089010Y-99120921D01*
X108223809Y-99387599D01*
X108389975Y-99602636D01*
X108469293Y-99671743D01*
X108581451Y-99747856D01*
X108697750Y-99810648D01*
X108801441Y-99852341D01*
X108875777Y-99865158D01*
X108904008Y-99841323D01*
X108900537Y-99814741D01*
X108879927Y-99725449D01*
X108847023Y-99608606D01*
X108813724Y-99475690D01*
X108779854Y-99302263D01*
X108753203Y-99127545D01*
X108721959Y-98903154D01*
X108681101Y-98682688D01*
X108632634Y-98505994D01*
X108571350Y-98354782D01*
X108492038Y-98210762D01*
X108441562Y-98128598D01*
X108317501Y-97926564D01*
X108227115Y-97780434D01*
X108165123Y-97683183D01*
X108126244Y-97627787D01*
X108105197Y-97607221D01*
X108096702Y-97614460D01*
X108095478Y-97642479D01*
X108096243Y-97684254D01*
X108089350Y-97752460D01*
X108061392Y-97883169D01*
X108019273Y-98024757D01*
X107989350Y-98124540D01*
X107955484Y-98281744D01*
X107942304Y-98410378D01*
X107870283Y-98410378D01*
X107873975Y-98248016D01*
X107923263Y-98004906D01*
X107960420Y-97863352D01*
X107976363Y-97701994D01*
X107972903Y-97586766D01*
X108243730Y-97586766D01*
X108246398Y-97611654D01*
X108271101Y-97662392D01*
X108282759Y-97684005D01*
X108342070Y-97785177D01*
X108425327Y-97919910D01*
X108518359Y-98065125D01*
X108553294Y-98119986D01*
X108643680Y-98281863D01*
X108714238Y-98449635D01*
X108770520Y-98641062D01*
X108818077Y-98873904D01*
X108862459Y-99165919D01*
X108891108Y-99337653D01*
X108930447Y-99520004D01*
X108970863Y-99666222D01*
X108986201Y-99709991D01*
X109047327Y-99830802D01*
X109062932Y-99841323D01*
X109121147Y-99880571D01*
X109219235Y-99862769D01*
X109353167Y-99780866D01*
X109542863Y-99609229D01*
X109675804Y-99402798D01*
X109735342Y-99177043D01*
X109720371Y-98936346D01*
X109629785Y-98685089D01*
X109504096Y-98468267D01*
X109308988Y-98228758D01*
X109090625Y-98059497D01*
X109041279Y-98030841D01*
X108893802Y-97945052D01*
X108720154Y-97843900D01*
X108548322Y-97743681D01*
X108466893Y-97696218D01*
X108344081Y-97626146D01*
X108272992Y-97590629D01*
X108243730Y-97586766D01*
X107972903Y-97586766D01*
X107970274Y-97499227D01*
X107967978Y-97462710D01*
X107963366Y-97324784D01*
X107966430Y-97224182D01*
X107976769Y-97180574D01*
X107987645Y-97180737D01*
X108038335Y-97217501D01*
X108106750Y-97292603D01*
X108124433Y-97313239D01*
X108247609Y-97422998D01*
X108440261Y-97558888D01*
X108700472Y-97719635D01*
X109026324Y-97903963D01*
X109064814Y-97925727D01*
X109302882Y-98096223D01*
X109503280Y-98301865D01*
X109660693Y-98531298D01*
X109769812Y-98773168D01*
X109825322Y-99016119D01*
X109822963Y-99177043D01*
X109821911Y-99248799D01*
X109754267Y-99459851D01*
X109744789Y-99477285D01*
X109647741Y-99613837D01*
X109514169Y-99759264D01*
X109369185Y-99888452D01*
X109237901Y-99976285D01*
X109128801Y-100031543D01*
X109236567Y-100159614D01*
X109309090Y-100234754D01*
X109426808Y-100319276D01*
X109576631Y-100386704D01*
X109769768Y-100440768D01*
X110017427Y-100485197D01*
X110330816Y-100523722D01*
X110615775Y-100546317D01*
X110966324Y-100561820D01*
X111369487Y-100570191D01*
X111813236Y-100571487D01*
X112285543Y-100565766D01*
X112774377Y-100553089D01*
X113267711Y-100533512D01*
X113753516Y-100507094D01*
X113959091Y-100494330D01*
X114190752Y-100480087D01*
X114395541Y-100467642D01*
X114556810Y-100458005D01*
X114657910Y-100452189D01*
X114690533Y-100450170D01*
X114902191Y-100429922D01*
X115169155Y-100395477D01*
X115474904Y-100349564D01*
X115802916Y-100294911D01*
X116136672Y-100234246D01*
X116459652Y-100170299D01*
X116755334Y-100105796D01*
X116867680Y-100079885D01*
X117063718Y-100034822D01*
X117240871Y-99994271D01*
X117371091Y-99964661D01*
X117431783Y-99949993D01*
X117546970Y-99915353D01*
X117618192Y-99884100D01*
X117635257Y-99861492D01*
X117587968Y-99852787D01*
X117550356Y-99847194D01*
X117450315Y-99817549D01*
X117329783Y-99770933D01*
X117139508Y-99689080D01*
X116906197Y-99790264D01*
X116877466Y-99802439D01*
X116637662Y-99884651D01*
X116397780Y-99936436D01*
X116179581Y-99954304D01*
X116004826Y-99934767D01*
X115888146Y-99893712D01*
X115750693Y-99810838D01*
X115627188Y-99687566D01*
X115510790Y-99515047D01*
X115394658Y-99284434D01*
X115271952Y-98986878D01*
X115207987Y-98838112D01*
X115118587Y-98660946D01*
X115031868Y-98515429D01*
X115002345Y-98469228D01*
X115165507Y-98469228D01*
X115179977Y-98514910D01*
X115219837Y-98609148D01*
X115278174Y-98735339D01*
X115284660Y-98748983D01*
X115350088Y-98894039D01*
X115402844Y-99023425D01*
X115432031Y-99110566D01*
X115469487Y-99228033D01*
X115553393Y-99404834D01*
X115657100Y-99563059D01*
X115763788Y-99674139D01*
X115770039Y-99678833D01*
X115867644Y-99735370D01*
X115988309Y-99769247D01*
X116158819Y-99788197D01*
X116303169Y-99795070D01*
X116445681Y-99796025D01*
X116543667Y-99790153D01*
X116627551Y-99773515D01*
X116750797Y-99738156D01*
X116866631Y-99695517D01*
X116952598Y-99654108D01*
X116986243Y-99622437D01*
X116986221Y-99621973D01*
X116954911Y-99585693D01*
X116875566Y-99522345D01*
X116764955Y-99445348D01*
X116659050Y-99372187D01*
X116494156Y-99248861D01*
X116351243Y-99132294D01*
X116280504Y-99079703D01*
X116158931Y-99000936D01*
X116004054Y-98906945D01*
X115830001Y-98805659D01*
X115650900Y-98705007D01*
X115480877Y-98612919D01*
X115334060Y-98537324D01*
X115283494Y-98513690D01*
X115509893Y-98513690D01*
X115815113Y-98673863D01*
X115910891Y-98726105D01*
X116189443Y-98896157D01*
X116513302Y-99117459D01*
X116886131Y-99392470D01*
X116937569Y-99430254D01*
X117020270Y-99484933D01*
X117065877Y-99506424D01*
X117073913Y-99504829D01*
X117105245Y-99458002D01*
X117122354Y-99364015D01*
X117122797Y-99246880D01*
X117104130Y-99130608D01*
X117035427Y-98951499D01*
X116893021Y-98758491D01*
X116688413Y-98610017D01*
X116544365Y-98544203D01*
X116338428Y-98489717D01*
X116099784Y-98471085D01*
X115809447Y-98485619D01*
X115509893Y-98513690D01*
X115283494Y-98513690D01*
X115224576Y-98486152D01*
X115166551Y-98467333D01*
X115165507Y-98469228D01*
X115002345Y-98469228D01*
X114968643Y-98416488D01*
X114923601Y-98333917D01*
X114913074Y-98295552D01*
X114933428Y-98293094D01*
X115010590Y-98306003D01*
X115121524Y-98335556D01*
X115209244Y-98356562D01*
X115366849Y-98376506D01*
X115576703Y-98386389D01*
X115850940Y-98387066D01*
X116079547Y-98385862D01*
X116275574Y-98390081D01*
X116425137Y-98402222D01*
X116544266Y-98424421D01*
X116648989Y-98458813D01*
X116755334Y-98507533D01*
X116776944Y-98518832D01*
X116967278Y-98664007D01*
X117107271Y-98860345D01*
X117191055Y-99096874D01*
X117203306Y-99246880D01*
X117212759Y-99362620D01*
X117203077Y-99599851D01*
X117252436Y-99622437D01*
X117373675Y-99677914D01*
X117400153Y-99689405D01*
X117640452Y-99750207D01*
X117929318Y-99756512D01*
X118261889Y-99708593D01*
X118633300Y-99606726D01*
X118979987Y-99488800D01*
X119512436Y-99295447D01*
X120030855Y-99092928D01*
X120523025Y-98886434D01*
X120976731Y-98681157D01*
X121379754Y-98482288D01*
X121719879Y-98295021D01*
X122123486Y-98061537D01*
X123054640Y-97559672D01*
X123960608Y-97123754D01*
X124838798Y-96754987D01*
X125686618Y-96454571D01*
X125702207Y-96449540D01*
X125828535Y-96404743D01*
X125918095Y-96365941D01*
X125952364Y-96341045D01*
X125949424Y-96335182D01*
X125898491Y-96318773D01*
X125804112Y-96312181D01*
X125774994Y-96311255D01*
X125631545Y-96291466D01*
X125490134Y-96254009D01*
X125467901Y-96246252D01*
X125370284Y-96218091D01*
X125311054Y-96220247D01*
X125262599Y-96252541D01*
X125242700Y-96269178D01*
X125103496Y-96348461D01*
X124932001Y-96405655D01*
X124765472Y-96427636D01*
X124664088Y-96418241D01*
X124512844Y-96389418D01*
X124356329Y-96347941D01*
X124228099Y-96301239D01*
X124067326Y-96215546D01*
X123911022Y-96094678D01*
X123745643Y-95927711D01*
X123557646Y-95703720D01*
X123504191Y-95638290D01*
X123373387Y-95501848D01*
X123243192Y-95414227D01*
X123088046Y-95361229D01*
X123017523Y-95350060D01*
X123425503Y-95350060D01*
X123554316Y-95494378D01*
X123628032Y-95579909D01*
X123739298Y-95714903D01*
X123846628Y-95850363D01*
X123867700Y-95877070D01*
X124036903Y-96048897D01*
X124239514Y-96176695D01*
X124297261Y-96203583D01*
X124504757Y-96272753D01*
X124713490Y-96305961D01*
X124906246Y-96303002D01*
X125065814Y-96263673D01*
X125174980Y-96187769D01*
X125186993Y-96169568D01*
X125183367Y-96132536D01*
X125131277Y-96087863D01*
X125019704Y-96023924D01*
X124931215Y-95975030D01*
X124824856Y-95911639D01*
X124760182Y-95867185D01*
X124685082Y-95810125D01*
X124511874Y-95704033D01*
X124304281Y-95598672D01*
X124082066Y-95502318D01*
X123864992Y-95423248D01*
X123672820Y-95369736D01*
X123525314Y-95350060D01*
X123425503Y-95350060D01*
X123017523Y-95350060D01*
X122882392Y-95328659D01*
X122769498Y-95311969D01*
X122678441Y-95289817D01*
X122643516Y-95268853D01*
X122650904Y-95254137D01*
X122708041Y-95222689D01*
X122713602Y-95221277D01*
X123324774Y-95221277D01*
X123348087Y-95231819D01*
X123410754Y-95233782D01*
X123556625Y-95246656D01*
X123796946Y-95300585D01*
X124064350Y-95389624D01*
X124339646Y-95506258D01*
X124603643Y-95642974D01*
X124837152Y-95792258D01*
X124901692Y-95837386D01*
X125029124Y-95919979D01*
X125133498Y-95980080D01*
X125210488Y-96018111D01*
X125273559Y-96036344D01*
X125309227Y-96010935D01*
X125341244Y-95936954D01*
X125352012Y-95907208D01*
X125400887Y-95680411D01*
X125397992Y-95454268D01*
X125345635Y-95249412D01*
X125246124Y-95086478D01*
X125193022Y-95034675D01*
X125003031Y-94912119D01*
X124763266Y-94825998D01*
X124489968Y-94782835D01*
X124411931Y-94778807D01*
X124190976Y-94787274D01*
X123987503Y-94832901D01*
X123778605Y-94922447D01*
X123541375Y-95062668D01*
X123422097Y-95140547D01*
X123347287Y-95193678D01*
X123324774Y-95221277D01*
X122713602Y-95221277D01*
X122794846Y-95200648D01*
X122878876Y-95197806D01*
X122929746Y-95202751D01*
X123060066Y-95191540D01*
X123202099Y-95139811D01*
X123377373Y-95040782D01*
X123495420Y-94968680D01*
X123763888Y-94823872D01*
X124006213Y-94725013D01*
X124240637Y-94664143D01*
X124290989Y-94655382D01*
X124462363Y-94640971D01*
X124624295Y-94659041D01*
X124800515Y-94714080D01*
X125014755Y-94810577D01*
X125108921Y-94860690D01*
X125292338Y-94995019D01*
X125417473Y-95156947D01*
X125497413Y-95361410D01*
X125517069Y-95445555D01*
X125526059Y-95545862D01*
X125513328Y-95657745D01*
X125508064Y-95680411D01*
X125477521Y-95811911D01*
X125474713Y-95822911D01*
X125444541Y-95957697D01*
X125428539Y-96061995D01*
X125430124Y-96114024D01*
X125460034Y-96137814D01*
X125544828Y-96169568D01*
X125555731Y-96173651D01*
X125692868Y-96204840D01*
X125849994Y-96226866D01*
X126005660Y-96235212D01*
X126069244Y-96232645D01*
X126251458Y-96211561D01*
X126493930Y-96170656D01*
X126787631Y-96111684D01*
X127123533Y-96036398D01*
X127492607Y-95946550D01*
X127796171Y-95872837D01*
X128384387Y-95746317D01*
X129000042Y-95635499D01*
X129659532Y-95537563D01*
X130379255Y-95449684D01*
X130911971Y-95393392D01*
X131475423Y-95341152D01*
X131974032Y-95303514D01*
X132404273Y-95280740D01*
X132762621Y-95273090D01*
X132876618Y-95272332D01*
X133017602Y-95268848D01*
X133114103Y-95263182D01*
X133149879Y-95256048D01*
X133148416Y-95250256D01*
X133122114Y-95195885D01*
X133073261Y-95109146D01*
X133031887Y-95028407D01*
X132979718Y-94906300D01*
X132940302Y-94801235D01*
X133040871Y-94801235D01*
X133060329Y-94862992D01*
X133115746Y-94985114D01*
X133181939Y-95100612D01*
X133350458Y-95284800D01*
X133562355Y-95413619D01*
X133584796Y-95422174D01*
X133735872Y-95453346D01*
X133918622Y-95459836D01*
X134111483Y-95444324D01*
X134292892Y-95409495D01*
X134441287Y-95358029D01*
X134535104Y-95292609D01*
X134543148Y-95282073D01*
X134743971Y-95282073D01*
X134768375Y-95302984D01*
X134864379Y-95308267D01*
X134912792Y-95307130D01*
X134976586Y-95303080D01*
X134971131Y-95292777D01*
X134901862Y-95270784D01*
X134817413Y-95255847D01*
X134749847Y-95274092D01*
X134743971Y-95282073D01*
X134543148Y-95282073D01*
X134546254Y-95278004D01*
X134550703Y-95250162D01*
X134504976Y-95237459D01*
X134395728Y-95234315D01*
X134242742Y-95228662D01*
X133850090Y-95164961D01*
X133477216Y-95034481D01*
X133140258Y-94842262D01*
X133115618Y-94825076D01*
X133058818Y-94791408D01*
X133040871Y-94801235D01*
X132940302Y-94801235D01*
X132929587Y-94772674D01*
X132923088Y-94752882D01*
X133195702Y-94752882D01*
X133197139Y-94762431D01*
X133244341Y-94800032D01*
X133336976Y-94854374D01*
X133457746Y-94916749D01*
X133589353Y-94978452D01*
X133714497Y-95030776D01*
X133815880Y-95065014D01*
X133828760Y-95068282D01*
X133950555Y-95089904D01*
X134102313Y-95105666D01*
X134266283Y-95115194D01*
X134424715Y-95118112D01*
X134559858Y-95114045D01*
X134653961Y-95102619D01*
X134689273Y-95083459D01*
X134657889Y-95026450D01*
X134571441Y-94959712D01*
X134449977Y-94897618D01*
X134313600Y-94852528D01*
X134285705Y-94846715D01*
X134174302Y-94829430D01*
X134022384Y-94810754D01*
X133846660Y-94792176D01*
X133663837Y-94775185D01*
X133490622Y-94761271D01*
X133343723Y-94751923D01*
X133239848Y-94748631D01*
X133195702Y-94752882D01*
X132923088Y-94752882D01*
X132888667Y-94648051D01*
X132864130Y-94552953D01*
X132863147Y-94507904D01*
X132870821Y-94505755D01*
X132930454Y-94518181D01*
X133024411Y-94553037D01*
X133095662Y-94581805D01*
X133188468Y-94612127D01*
X133293382Y-94635727D01*
X133426588Y-94655397D01*
X133604268Y-94673926D01*
X133842607Y-94694106D01*
X134086938Y-94716512D01*
X134284188Y-94743826D01*
X134433833Y-94779692D01*
X134550953Y-94828997D01*
X134650626Y-94896627D01*
X134747933Y-94987468D01*
X134827629Y-95064992D01*
X134849515Y-95083459D01*
X134906923Y-95131898D01*
X134952698Y-95157636D01*
X134996261Y-95168108D01*
X135092630Y-95201523D01*
X135215903Y-95249922D01*
X135216540Y-95250162D01*
X135274595Y-95272049D01*
X135372159Y-95300774D01*
X135382786Y-95303080D01*
X135494582Y-95327339D01*
X135652237Y-95353396D01*
X135855498Y-95380600D01*
X136114739Y-95410602D01*
X136440334Y-95445057D01*
X136605569Y-95462422D01*
X137574969Y-95581032D01*
X138479396Y-95721855D01*
X139326697Y-95886089D01*
X139438663Y-95910598D01*
X139755795Y-95984062D01*
X140100687Y-96068859D01*
X140460486Y-96161445D01*
X140822339Y-96258275D01*
X141173393Y-96355803D01*
X141500795Y-96450485D01*
X141791694Y-96538777D01*
X142033234Y-96617133D01*
X142212565Y-96682009D01*
X142218950Y-96684137D01*
X142228679Y-96667687D01*
X142187349Y-96603163D01*
X142098157Y-96495766D01*
X142054380Y-96446530D01*
X141963812Y-96353086D01*
X141888461Y-96299319D01*
X141803982Y-96270921D01*
X141686024Y-96253585D01*
X141671690Y-96251814D01*
X141417850Y-96181807D01*
X141199200Y-96046695D01*
X141024033Y-95853287D01*
X140900639Y-95608397D01*
X140882630Y-95548254D01*
X140868269Y-95390267D01*
X140982912Y-95390267D01*
X140991398Y-95538563D01*
X141023058Y-95651532D01*
X141087708Y-95766103D01*
X141117437Y-95807460D01*
X141225582Y-95927919D01*
X141337859Y-96021531D01*
X141363861Y-96037473D01*
X141508002Y-96102906D01*
X141655031Y-96143008D01*
X141725408Y-96153391D01*
X141789921Y-96157502D01*
X141798967Y-96140363D01*
X141765348Y-96096587D01*
X141641272Y-95913148D01*
X141524645Y-95652638D01*
X141427386Y-95334010D01*
X141352839Y-94966428D01*
X141310057Y-94698332D01*
X141428868Y-94698332D01*
X141430513Y-94791908D01*
X141447095Y-94929941D01*
X141475416Y-95094576D01*
X141512281Y-95267958D01*
X141554492Y-95432232D01*
X141598852Y-95569544D01*
X141648171Y-95687345D01*
X141729691Y-95851968D01*
X141809244Y-95985459D01*
X141859256Y-96053577D01*
X141925122Y-96128940D01*
X141941339Y-96140363D01*
X141966722Y-96158242D01*
X141976694Y-96154701D01*
X142019142Y-96104557D01*
X142065589Y-96014004D01*
X142107360Y-95839395D01*
X142107868Y-95627007D01*
X142067660Y-95412634D01*
X141989652Y-95226516D01*
X141947901Y-95163543D01*
X141861012Y-95052922D01*
X141757446Y-94936028D01*
X141650267Y-94826046D01*
X141552539Y-94736160D01*
X141477326Y-94679557D01*
X141437690Y-94669421D01*
X141428868Y-94698332D01*
X141310057Y-94698332D01*
X141288549Y-94563554D01*
X141136463Y-94850974D01*
X141066538Y-94989677D01*
X141015073Y-95119011D01*
X140990041Y-95236845D01*
X140982961Y-95371962D01*
X140982912Y-95390267D01*
X140868269Y-95390267D01*
X140864661Y-95350570D01*
X140904860Y-95129442D01*
X141004982Y-94878152D01*
X141166781Y-94589984D01*
X141196474Y-94544036D01*
X141285810Y-94425568D01*
X141358090Y-94359446D01*
X141406474Y-94350614D01*
X141424122Y-94404013D01*
X141441828Y-94440244D01*
X141504769Y-94522233D01*
X141602555Y-94633277D01*
X141723918Y-94759998D01*
X141830058Y-94870466D01*
X142001252Y-95076220D01*
X142117798Y-95267709D01*
X142188182Y-95460469D01*
X142214171Y-95627007D01*
X142220886Y-95670033D01*
X142224479Y-95725254D01*
X142223077Y-95861133D01*
X142196849Y-95973186D01*
X142138292Y-96100515D01*
X142037891Y-96292939D01*
X142298658Y-96543639D01*
X142404997Y-96643201D01*
X142499708Y-96721568D01*
X142596984Y-96785633D01*
X142714301Y-96845454D01*
X142869137Y-96911084D01*
X143078970Y-96992580D01*
X143937921Y-97336656D01*
X144744689Y-97695550D01*
X145496625Y-98069880D01*
X146204836Y-98465508D01*
X146880428Y-98888295D01*
X147534508Y-99344103D01*
X147596501Y-99390805D01*
X147703943Y-99479172D01*
X147773800Y-99547386D01*
X147793249Y-99583579D01*
X147789945Y-99584925D01*
X147739725Y-99565448D01*
X147638228Y-99509550D01*
X147495249Y-99423107D01*
X147320582Y-99311994D01*
X147124022Y-99182088D01*
X146906211Y-99036720D01*
X146690657Y-98894827D01*
X146492717Y-98766378D01*
X146327731Y-98661326D01*
X146211038Y-98589625D01*
X146138484Y-98549478D01*
X145937345Y-98456559D01*
X145711396Y-98371376D01*
X145483655Y-98301347D01*
X145277142Y-98253891D01*
X145114878Y-98236424D01*
X145017062Y-98243576D01*
X144957430Y-98279493D01*
X144957411Y-98279528D01*
X144912331Y-98364298D01*
X144905073Y-98381100D01*
X144772634Y-98590957D01*
X144579756Y-98776366D01*
X144340891Y-98925929D01*
X144070494Y-99028248D01*
X143966866Y-99051003D01*
X143717179Y-99078905D01*
X143449563Y-99080245D01*
X143194294Y-99055648D01*
X142981652Y-99005740D01*
X142957307Y-98997024D01*
X142822016Y-98939423D01*
X142677258Y-98866007D01*
X142538907Y-98786377D01*
X142515801Y-98771199D01*
X142721192Y-98771199D01*
X142754148Y-98800894D01*
X142817325Y-98834959D01*
X142934269Y-98883019D01*
X143072855Y-98930407D01*
X143203824Y-98963702D01*
X143488364Y-98995075D01*
X143780076Y-98979709D01*
X144063128Y-98921508D01*
X144321686Y-98824372D01*
X144539916Y-98692205D01*
X144701987Y-98528907D01*
X144730460Y-98486918D01*
X144788565Y-98373204D01*
X144811406Y-98279528D01*
X144797019Y-98220892D01*
X144743440Y-98212297D01*
X144719867Y-98218920D01*
X144623033Y-98244796D01*
X144502910Y-98275803D01*
X144487638Y-98279874D01*
X144359472Y-98321650D01*
X144198009Y-98382968D01*
X144034446Y-98452089D01*
X143788480Y-98551105D01*
X143475582Y-98649244D01*
X143175243Y-98714966D01*
X142912314Y-98741856D01*
X142799231Y-98745710D01*
X142732419Y-98754223D01*
X142721192Y-98771199D01*
X142515801Y-98771199D01*
X142422841Y-98710136D01*
X142352923Y-98653371D01*
X142732607Y-98653371D01*
X142737974Y-98652477D01*
X142800086Y-98645278D01*
X142913882Y-98633502D01*
X143059728Y-98619200D01*
X143190499Y-98603985D01*
X143601635Y-98515256D01*
X143972063Y-98367032D01*
X143990087Y-98358197D01*
X144125794Y-98300755D01*
X144297451Y-98238207D01*
X144472366Y-98182602D01*
X144512960Y-98170747D01*
X144650829Y-98127488D01*
X144714553Y-98096978D01*
X144703534Y-98073992D01*
X144617175Y-98053302D01*
X144454877Y-98029682D01*
X144376098Y-98028000D01*
X144213093Y-98048789D01*
X144013021Y-98093294D01*
X143795720Y-98156857D01*
X143581024Y-98234822D01*
X143509035Y-98263962D01*
X143284471Y-98355551D01*
X143117664Y-98425242D01*
X142997692Y-98477976D01*
X142913634Y-98518692D01*
X142854569Y-98552332D01*
X142809576Y-98583837D01*
X142802247Y-98589519D01*
X142745367Y-98636612D01*
X142732607Y-98653371D01*
X142352923Y-98653371D01*
X142344935Y-98646886D01*
X142321067Y-98606227D01*
X142322557Y-98603132D01*
X142371237Y-98576419D01*
X142461921Y-98557731D01*
X142473584Y-98555950D01*
X142568407Y-98529261D01*
X142711985Y-98477674D01*
X142886934Y-98407749D01*
X143075870Y-98326045D01*
X143308085Y-98226258D01*
X143637418Y-98101113D01*
X143935983Y-98007510D01*
X144192482Y-97948853D01*
X144395617Y-97928545D01*
X144525527Y-97940968D01*
X144691582Y-97973582D01*
X144857705Y-98019319D01*
X144861098Y-98020416D01*
X145022353Y-98069100D01*
X145127408Y-98096978D01*
X145176947Y-98110124D01*
X145291849Y-98134711D01*
X145347628Y-98140588D01*
X145359548Y-98130789D01*
X145319620Y-98100604D01*
X145222024Y-98045669D01*
X145060940Y-97961622D01*
X144929296Y-97895638D01*
X144698390Y-97784699D01*
X144454823Y-97672105D01*
X144233516Y-97574204D01*
X144063967Y-97501430D01*
X143866090Y-97416285D01*
X143689938Y-97340278D01*
X143560031Y-97283976D01*
X143429655Y-97229339D01*
X143160449Y-97124558D01*
X142840687Y-97007563D01*
X142485234Y-96883315D01*
X142108956Y-96756777D01*
X141726719Y-96632910D01*
X141353388Y-96516676D01*
X141003830Y-96413038D01*
X140692910Y-96326957D01*
X140458665Y-96265284D01*
X140184724Y-96193962D01*
X139968883Y-96139381D01*
X139801650Y-96099597D01*
X139673533Y-96072668D01*
X139575042Y-96056651D01*
X139496685Y-96049605D01*
X139428970Y-96049585D01*
X139362407Y-96054651D01*
X139290575Y-96066668D01*
X139161287Y-96101266D01*
X139018466Y-96149752D01*
X138879590Y-96205008D01*
X138762132Y-96259916D01*
X138683570Y-96307356D01*
X138672449Y-96323820D01*
X138661378Y-96340211D01*
X138694338Y-96405805D01*
X138756550Y-96543791D01*
X138786180Y-96648773D01*
X138788176Y-96744794D01*
X138779891Y-96789281D01*
X138767484Y-96855902D01*
X138715781Y-97015777D01*
X138578915Y-97250176D01*
X138374994Y-97452597D01*
X138101247Y-97626246D01*
X138079587Y-97637146D01*
X137898559Y-97704704D01*
X137689968Y-97740088D01*
X137439089Y-97744722D01*
X137131200Y-97720028D01*
X137006761Y-97707540D01*
X136827843Y-97695799D01*
X136685061Y-97694056D01*
X136598415Y-97702951D01*
X136505049Y-97720693D01*
X136453850Y-97704009D01*
X136467778Y-97646621D01*
X136546955Y-97548891D01*
X136556180Y-97538424D01*
X136987603Y-97538424D01*
X136988807Y-97555928D01*
X137047083Y-97575347D01*
X137171546Y-97603688D01*
X137284732Y-97625589D01*
X137603051Y-97651018D01*
X137878448Y-97613884D01*
X138109821Y-97514290D01*
X138145144Y-97491642D01*
X138359173Y-97326440D01*
X138523805Y-97148470D01*
X138634833Y-96966496D01*
X138688052Y-96789281D01*
X138679254Y-96625590D01*
X138604234Y-96484185D01*
X138516771Y-96382503D01*
X138286734Y-96554086D01*
X138250503Y-96581588D01*
X138101515Y-96700720D01*
X137935107Y-96840671D01*
X137780979Y-96976626D01*
X137657889Y-97085982D01*
X137420669Y-97279598D01*
X137215388Y-97422650D01*
X137049382Y-97509792D01*
X137034355Y-97515828D01*
X136987603Y-97538424D01*
X136556180Y-97538424D01*
X136610961Y-97476265D01*
X136780995Y-97476265D01*
X136787585Y-97498870D01*
X136843138Y-97487543D01*
X136957256Y-97441379D01*
X136989140Y-97426866D01*
X137191909Y-97312728D01*
X137409298Y-97159442D01*
X137614122Y-96985860D01*
X137663336Y-96940944D01*
X137792924Y-96827820D01*
X137947283Y-96697648D01*
X138102754Y-96570536D01*
X138184597Y-96504714D01*
X138294533Y-96413945D01*
X138354919Y-96356766D01*
X138372678Y-96323820D01*
X138354736Y-96305749D01*
X138308020Y-96293196D01*
X138293025Y-96290263D01*
X138122699Y-96292344D01*
X137923935Y-96344805D01*
X137715287Y-96439404D01*
X137515308Y-96567900D01*
X137342551Y-96722053D01*
X137329187Y-96736605D01*
X137222908Y-96861464D01*
X137098885Y-97018579D01*
X136974121Y-97185314D01*
X136865619Y-97339035D01*
X136790383Y-97457106D01*
X136780995Y-97476265D01*
X136610961Y-97476265D01*
X136630621Y-97453958D01*
X136740844Y-97317676D01*
X136845942Y-97178090D01*
X136975828Y-97002406D01*
X137169798Y-96763445D01*
X137346579Y-96579720D01*
X137515393Y-96442042D01*
X137685460Y-96341217D01*
X137770241Y-96300726D01*
X137883886Y-96255227D01*
X137993009Y-96229138D01*
X138124761Y-96216838D01*
X138306290Y-96212708D01*
X138413462Y-96211087D01*
X138565757Y-96202961D01*
X138682880Y-96183544D01*
X138791876Y-96147385D01*
X138919786Y-96089033D01*
X138929808Y-96084123D01*
X139045727Y-96021223D01*
X139109721Y-95973929D01*
X139112210Y-95949199D01*
X139092208Y-95942611D01*
X138961324Y-95909253D01*
X138767776Y-95869696D01*
X138522830Y-95825723D01*
X138237751Y-95779121D01*
X137923803Y-95731672D01*
X137592251Y-95685163D01*
X137254360Y-95641377D01*
X136921394Y-95602100D01*
X136668784Y-95573789D01*
X136387367Y-95542005D01*
X136113757Y-95510894D01*
X135882304Y-95484347D01*
X135618327Y-95456454D01*
X135201211Y-95425898D01*
X134856277Y-95420366D01*
X134583135Y-95439858D01*
X134381394Y-95484374D01*
X134243451Y-95523405D01*
X133953868Y-95558525D01*
X133669423Y-95535664D01*
X133413640Y-95455525D01*
X133196341Y-95354558D01*
X132355307Y-95390587D01*
X132120455Y-95401223D01*
X131719726Y-95422916D01*
X131388447Y-95446395D01*
X131121659Y-95472178D01*
X130914402Y-95500787D01*
X130761715Y-95532742D01*
X130658638Y-95568562D01*
X130568813Y-95622442D01*
X130445593Y-95713267D01*
X130321792Y-95818073D01*
X130126078Y-95996944D01*
X130117731Y-96004573D01*
X130193175Y-96244968D01*
X130208510Y-96297408D01*
X130253499Y-96505497D01*
X130283120Y-96732057D01*
X130291352Y-96876068D01*
X130295807Y-96954001D01*
X130289996Y-97148246D01*
X130264122Y-97291706D01*
X130220672Y-97390405D01*
X130099286Y-97562835D01*
X129939274Y-97715602D01*
X129763509Y-97824369D01*
X129712958Y-97845446D01*
X129620477Y-97873311D01*
X129512140Y-97888650D01*
X129367646Y-97893721D01*
X129166697Y-97890783D01*
X129054638Y-97888103D01*
X128831463Y-97883942D01*
X128616899Y-97881234D01*
X128445107Y-97880469D01*
X128324159Y-97878512D01*
X128203053Y-97865077D01*
X128149979Y-97835619D01*
X128159933Y-97786284D01*
X128182004Y-97762563D01*
X128371160Y-97762563D01*
X128749686Y-97787628D01*
X128834167Y-97792904D01*
X129019988Y-97802566D01*
X129185066Y-97808754D01*
X129301394Y-97810317D01*
X129576052Y-97775602D01*
X129810139Y-97683685D01*
X129996779Y-97541172D01*
X130129565Y-97354664D01*
X130202093Y-97130763D01*
X130207958Y-96876068D01*
X130187089Y-96720507D01*
X130157572Y-96549184D01*
X130124042Y-96386592D01*
X130090300Y-96249587D01*
X130060148Y-96155024D01*
X130037387Y-96119757D01*
X130035386Y-96120441D01*
X130000839Y-96159817D01*
X129936134Y-96250893D01*
X129849744Y-96381316D01*
X129750139Y-96538727D01*
X129618424Y-96745001D01*
X129449000Y-96984747D01*
X129287974Y-97175219D01*
X129122862Y-97329141D01*
X128941180Y-97459241D01*
X128730444Y-97578245D01*
X128371160Y-97762563D01*
X128182004Y-97762563D01*
X128227914Y-97713222D01*
X128317382Y-97605783D01*
X128330222Y-97581307D01*
X128489109Y-97581307D01*
X128491197Y-97580956D01*
X128541311Y-97559491D01*
X128637772Y-97511430D01*
X128761836Y-97446068D01*
X128763846Y-97444983D01*
X128993314Y-97299836D01*
X129197671Y-97121471D01*
X129390709Y-96895884D01*
X129586224Y-96609071D01*
X129652902Y-96502633D01*
X129753472Y-96342867D01*
X129840380Y-96205678D01*
X129900112Y-96112444D01*
X129932965Y-96061165D01*
X129966982Y-95996944D01*
X129961297Y-95965689D01*
X129918144Y-95946890D01*
X129863367Y-95936869D01*
X129713692Y-95955612D01*
X129539185Y-96025114D01*
X129354000Y-96137416D01*
X129172291Y-96284559D01*
X129008211Y-96458584D01*
X128942415Y-96541586D01*
X128834879Y-96694032D01*
X128745873Y-96851747D01*
X128663097Y-97037887D01*
X128574249Y-97275614D01*
X128554651Y-97332111D01*
X128513724Y-97459829D01*
X128490344Y-97548398D01*
X128489109Y-97581307D01*
X128330222Y-97581307D01*
X128419703Y-97410733D01*
X128510064Y-97153525D01*
X128545211Y-97048804D01*
X128671941Y-96782284D01*
X128843588Y-96520314D01*
X129045811Y-96280745D01*
X129264273Y-96081429D01*
X129484633Y-95940220D01*
X129619427Y-95882403D01*
X129747077Y-95855604D01*
X129896794Y-95858292D01*
X129917795Y-95860012D01*
X130029136Y-95864819D01*
X130105355Y-95849099D01*
X130175839Y-95801104D01*
X130269977Y-95709083D01*
X130325775Y-95652405D01*
X130370754Y-95602135D01*
X130385315Y-95569247D01*
X130361807Y-95552498D01*
X130292578Y-95550645D01*
X130169977Y-95562446D01*
X129986351Y-95586658D01*
X129734050Y-95622038D01*
X129664746Y-95631924D01*
X129242300Y-95698336D01*
X128787123Y-95779058D01*
X128314805Y-95870728D01*
X127840941Y-95969981D01*
X127381120Y-96073452D01*
X126950937Y-96177778D01*
X126565982Y-96279594D01*
X126241849Y-96375536D01*
X126232849Y-96378403D01*
X125578744Y-96594657D01*
X124984348Y-96808474D01*
X124433190Y-97026707D01*
X123908797Y-97256207D01*
X123394700Y-97503829D01*
X122874425Y-97776423D01*
X122768127Y-97834386D01*
X122564987Y-97947392D01*
X122414410Y-98036213D01*
X122305296Y-98108567D01*
X122226545Y-98172174D01*
X122167057Y-98234752D01*
X122115732Y-98304020D01*
X122069806Y-98375227D01*
X121989716Y-98513858D01*
X121932140Y-98631546D01*
X121912200Y-98680556D01*
X121891770Y-98750221D01*
X121908636Y-98785844D01*
X121967798Y-98812848D01*
X122054613Y-98849371D01*
X122262353Y-98979248D01*
X122411484Y-99151371D01*
X122506884Y-99372715D01*
X122553433Y-99650255D01*
X122558539Y-99737333D01*
X122562215Y-99800035D01*
X122558496Y-99925948D01*
X122536565Y-100030526D01*
X122492821Y-100143052D01*
X122430018Y-100271104D01*
X122334993Y-100404778D01*
X122210888Y-100505322D01*
X122034317Y-100595831D01*
X121922270Y-100639572D01*
X121785421Y-100675256D01*
X121618743Y-100698981D01*
X121398695Y-100715167D01*
X121352306Y-100717861D01*
X121127622Y-100737634D01*
X120969864Y-100765640D01*
X120870713Y-100803265D01*
X120787167Y-100843430D01*
X120739585Y-100837313D01*
X120741230Y-100774313D01*
X120791054Y-100652445D01*
X120801823Y-100622484D01*
X121104630Y-100622484D01*
X121383391Y-100619887D01*
X121419225Y-100619325D01*
X121726796Y-100590967D01*
X121976122Y-100519781D01*
X122173482Y-100404053D01*
X122296699Y-100287659D01*
X122387932Y-100143483D01*
X122436351Y-99966651D01*
X122450186Y-99737333D01*
X122439831Y-99544544D01*
X122390372Y-99324693D01*
X122296878Y-99157146D01*
X122155758Y-99033314D01*
X122031885Y-98957003D01*
X121943747Y-98916626D01*
X121883705Y-98921936D01*
X121879898Y-98927036D01*
X121840202Y-98980210D01*
X121801682Y-99098729D01*
X121756589Y-99284772D01*
X121704981Y-99478977D01*
X121577836Y-99838694D01*
X121421142Y-100166297D01*
X121244697Y-100439681D01*
X121104630Y-100622484D01*
X120801823Y-100622484D01*
X120827694Y-100550506D01*
X120965436Y-100550506D01*
X120980975Y-100584000D01*
X121005385Y-100573097D01*
X121069941Y-100508238D01*
X121154501Y-100397473D01*
X121249637Y-100255222D01*
X121345920Y-100095904D01*
X121433922Y-99933942D01*
X121504213Y-99783753D01*
X121545338Y-99669296D01*
X121592858Y-99511164D01*
X121639815Y-99335058D01*
X121680466Y-99163792D01*
X121709069Y-99020180D01*
X121719879Y-98927036D01*
X121694192Y-98905772D01*
X121627573Y-98924821D01*
X121537450Y-98974932D01*
X121441255Y-99046395D01*
X121356418Y-99129500D01*
X121304543Y-99192623D01*
X121206250Y-99337482D01*
X121135470Y-99493571D01*
X121083566Y-99682798D01*
X121041897Y-99927071D01*
X121030526Y-100007573D01*
X121005593Y-100184179D01*
X120984042Y-100336944D01*
X120969569Y-100439681D01*
X120966271Y-100467300D01*
X120965436Y-100550506D01*
X120827694Y-100550506D01*
X120836401Y-100526281D01*
X120880794Y-100327369D01*
X120915294Y-100082785D01*
X120923268Y-100014173D01*
X120986548Y-99659606D01*
X121081341Y-99370746D01*
X121210337Y-99142609D01*
X121376229Y-98970208D01*
X121581708Y-98848559D01*
X121678232Y-98802011D01*
X121763217Y-98749293D01*
X121796192Y-98711771D01*
X121809768Y-98665930D01*
X121851342Y-98570338D01*
X121911048Y-98450477D01*
X122025247Y-98233382D01*
X121785972Y-98371209D01*
X121608859Y-98470850D01*
X120963516Y-98800026D01*
X120257289Y-99113457D01*
X119501979Y-99407541D01*
X118709385Y-99678678D01*
X117891308Y-99923265D01*
X117059549Y-100137702D01*
X116225908Y-100318388D01*
X115402186Y-100461722D01*
X114600182Y-100564102D01*
X114500019Y-100574709D01*
X114285410Y-100599651D01*
X114094109Y-100624735D01*
X113943894Y-100647547D01*
X113852542Y-100665671D01*
X113830792Y-100673846D01*
X113783060Y-100691787D01*
X113652859Y-100755347D01*
X113495024Y-100842776D01*
X113329842Y-100943301D01*
X113225666Y-101010803D01*
X113086727Y-101107560D01*
X112994086Y-101185786D01*
X112942358Y-101247896D01*
X112934343Y-101257520D01*
X112894096Y-101334804D01*
X112882903Y-101360723D01*
X112821562Y-101466118D01*
X112737781Y-101540503D01*
X112613445Y-101595986D01*
X112430437Y-101644673D01*
X112284183Y-101672429D01*
X112105707Y-101683868D01*
X111933014Y-101661005D01*
X111743412Y-101600204D01*
X111514209Y-101497828D01*
X111437207Y-101461898D01*
X111252368Y-101385394D01*
X111082454Y-101327219D01*
X110953707Y-101296785D01*
X110830419Y-101272482D01*
X110778878Y-101243520D01*
X110802258Y-101212420D01*
X110850623Y-101197317D01*
X111117304Y-101197317D01*
X111296802Y-101270533D01*
X111349052Y-101293009D01*
X111481687Y-101358290D01*
X111585438Y-101419806D01*
X111698608Y-101485380D01*
X111825395Y-101540234D01*
X111853991Y-101548935D01*
X112003353Y-101572788D01*
X112175160Y-101574236D01*
X112352855Y-101556439D01*
X112519882Y-101522554D01*
X112659685Y-101475740D01*
X112755708Y-101419155D01*
X112791394Y-101355957D01*
X112793218Y-101337278D01*
X112812639Y-101266144D01*
X112817003Y-101247896D01*
X112799191Y-101229180D01*
X112735244Y-101229314D01*
X112610594Y-101246911D01*
X112602040Y-101248277D01*
X112514676Y-101259743D01*
X112419542Y-101266448D01*
X112305146Y-101268122D01*
X112160002Y-101264497D01*
X111972619Y-101255302D01*
X111731509Y-101240269D01*
X111425182Y-101219129D01*
X111117304Y-101197317D01*
X110850623Y-101197317D01*
X110901565Y-101181409D01*
X110941274Y-101168436D01*
X111050103Y-101111183D01*
X111160276Y-101031651D01*
X111326751Y-101031651D01*
X111330435Y-101072542D01*
X111395465Y-101100357D01*
X111441922Y-101107728D01*
X111562689Y-101118475D01*
X111728547Y-101128229D01*
X111922078Y-101136490D01*
X112125864Y-101142754D01*
X112322486Y-101146521D01*
X112494525Y-101147288D01*
X112624563Y-101144553D01*
X112695182Y-101137814D01*
X112784938Y-101113787D01*
X112841499Y-101086394D01*
X112846527Y-101045558D01*
X112812916Y-100973255D01*
X112802416Y-100955082D01*
X112721063Y-100858678D01*
X112616629Y-100775445D01*
X112603084Y-100767194D01*
X112524450Y-100727435D01*
X112452089Y-100709408D01*
X112713883Y-100709408D01*
X112809007Y-100804532D01*
X112812741Y-100808305D01*
X112884524Y-100895354D01*
X112927326Y-100972737D01*
X112945311Y-101014347D01*
X112976939Y-101045558D01*
X112977202Y-101045818D01*
X113020352Y-101027693D01*
X113104249Y-100977587D01*
X113210522Y-100907659D01*
X113321693Y-100830116D01*
X113420286Y-100757162D01*
X113488823Y-100701004D01*
X113509827Y-100673846D01*
X113487276Y-100669370D01*
X113400960Y-100667859D01*
X113266826Y-100672144D01*
X113102112Y-100681884D01*
X112713883Y-100709408D01*
X112452089Y-100709408D01*
X112440886Y-100706617D01*
X112328525Y-100701160D01*
X112163499Y-100707484D01*
X112078262Y-100713151D01*
X111908191Y-100735208D01*
X111765543Y-100775835D01*
X111615304Y-100843734D01*
X111515939Y-100896032D01*
X111387542Y-100974033D01*
X111326751Y-101031651D01*
X111160276Y-101031651D01*
X111160897Y-101031203D01*
X111198233Y-101000296D01*
X111334042Y-100894704D01*
X111462980Y-100802361D01*
X111616231Y-100699454D01*
X111359072Y-100699454D01*
X111329765Y-100699368D01*
X110964720Y-100687077D01*
X110548433Y-100655896D01*
X110101619Y-100608558D01*
X109644991Y-100547793D01*
X109199263Y-100476335D01*
X108785150Y-100396914D01*
X108423364Y-100312264D01*
X108302374Y-100278994D01*
X107929910Y-100162322D01*
X107518159Y-100015813D01*
X107086413Y-99847200D01*
X106653964Y-99664219D01*
X106240103Y-99474606D01*
X105864122Y-99286096D01*
X105537000Y-99113135D01*
X105521890Y-99114169D01*
X105199863Y-99136206D01*
X105154422Y-99139436D01*
X104978600Y-99153903D01*
X104820300Y-99169661D01*
X104709181Y-99183830D01*
X104670224Y-99190343D01*
X104591929Y-99213306D01*
X104561051Y-99258964D01*
X104555637Y-99351256D01*
X104550818Y-99391554D01*
X104546540Y-99427322D01*
X104505456Y-99571194D01*
X104440476Y-99724587D01*
X104374661Y-99842832D01*
X104265133Y-99979380D01*
X104113795Y-100100723D01*
X103997302Y-100176690D01*
X103798177Y-100278775D01*
X103604684Y-100333908D01*
X103389937Y-100351401D01*
X103303031Y-100349094D01*
X103161519Y-100327103D01*
X103025434Y-100275822D01*
X102881121Y-100187778D01*
X102714922Y-100055494D01*
X102513178Y-99871494D01*
X102377665Y-99748319D01*
X102250470Y-99642584D01*
X102149412Y-99568867D01*
X102088693Y-99538317D01*
X102034866Y-99524191D01*
X102022228Y-99513701D01*
X102319971Y-99513701D01*
X102350952Y-99559611D01*
X102422288Y-99638289D01*
X102522228Y-99738677D01*
X102639017Y-99849719D01*
X102760906Y-99960359D01*
X102876140Y-100059540D01*
X102972968Y-100136206D01*
X103039638Y-100179300D01*
X103258240Y-100248922D01*
X103504351Y-100251873D01*
X103762529Y-100179730D01*
X104034194Y-100032285D01*
X104091509Y-99992337D01*
X104239008Y-99858592D01*
X104343293Y-99700184D01*
X104370549Y-99641571D01*
X104416488Y-99509012D01*
X104438549Y-99391554D01*
X104434233Y-99307590D01*
X104401038Y-99275515D01*
X104399107Y-99275637D01*
X104343043Y-99289481D01*
X104230926Y-99322968D01*
X104078036Y-99371389D01*
X103899652Y-99430036D01*
X103695287Y-99494506D01*
X103384050Y-99572350D01*
X103111483Y-99609436D01*
X102861842Y-99607461D01*
X102619385Y-99568124D01*
X102614689Y-99567020D01*
X102480128Y-99536451D01*
X102375971Y-99514705D01*
X102324422Y-99506424D01*
X102319971Y-99513701D01*
X102022228Y-99513701D01*
X101988309Y-99485548D01*
X102002705Y-99447028D01*
X102079778Y-99429644D01*
X102150095Y-99424794D01*
X102172067Y-99418742D01*
X102543710Y-99418742D01*
X102565410Y-99446483D01*
X102649171Y-99472246D01*
X102802023Y-99502718D01*
X102906615Y-99521456D01*
X102997130Y-99536269D01*
X103032932Y-99540107D01*
X103052866Y-99535391D01*
X103130497Y-99522265D01*
X103246236Y-99504766D01*
X103327996Y-99488771D01*
X103468239Y-99453224D01*
X103637626Y-99404807D01*
X103821410Y-99348343D01*
X104004845Y-99288657D01*
X104173186Y-99230572D01*
X104311687Y-99178913D01*
X104405601Y-99138504D01*
X104440182Y-99114169D01*
X104425736Y-99087191D01*
X104370346Y-99017394D01*
X104287659Y-98925996D01*
X104135136Y-98765661D01*
X103794758Y-98781935D01*
X103753121Y-98784184D01*
X103517486Y-98811781D01*
X103321425Y-98869814D01*
X103137179Y-98969259D01*
X102936991Y-99121091D01*
X102862894Y-99180956D01*
X102737821Y-99275083D01*
X102635536Y-99344340D01*
X102577040Y-99382336D01*
X102543710Y-99418742D01*
X102172067Y-99418742D01*
X102352618Y-99369010D01*
X102577672Y-99255471D01*
X102812757Y-99089969D01*
X103021096Y-98935241D01*
X103259610Y-98797885D01*
X103493822Y-98712772D01*
X103742115Y-98671626D01*
X103890889Y-98667445D01*
X104115108Y-98705348D01*
X104300804Y-98804435D01*
X104457936Y-98968843D01*
X104478891Y-98996386D01*
X104566245Y-99085067D01*
X104631118Y-99100713D01*
X104640886Y-99097599D01*
X104720358Y-99082879D01*
X104845918Y-99067091D01*
X104997147Y-99051944D01*
X105153628Y-99039152D01*
X105294944Y-99030426D01*
X105400677Y-99027478D01*
X105450410Y-99032020D01*
X105455424Y-99034718D01*
X105479273Y-99030912D01*
X105454543Y-99003978D01*
X105382766Y-98944451D01*
X105280421Y-98866705D01*
X104920778Y-98587638D01*
X104549641Y-98269311D01*
X104189989Y-97931533D01*
X103849503Y-97582914D01*
X103535865Y-97232063D01*
X103256756Y-96887589D01*
X103019858Y-96558102D01*
X102832854Y-96252211D01*
X102703425Y-95978526D01*
X102690767Y-95945192D01*
X102624103Y-95749813D01*
X102579507Y-95582625D01*
X102558825Y-95454358D01*
X102563904Y-95375742D01*
X102596589Y-95357508D01*
X102633392Y-95389875D01*
X102662334Y-95468529D01*
X102662484Y-95469712D01*
X102695281Y-95621103D01*
X102755682Y-95812813D01*
X102833642Y-96018340D01*
X102919115Y-96211182D01*
X103002058Y-96364834D01*
X103004284Y-96368388D01*
X103074827Y-96476109D01*
X103128551Y-96549237D01*
X103153983Y-96572118D01*
X103157513Y-96538951D01*
X103138790Y-96457802D01*
X103103972Y-96359203D01*
X103063410Y-96271660D01*
X103027456Y-96223678D01*
X102986040Y-96187567D01*
X102916281Y-96069124D01*
X102865143Y-95904065D01*
X102836239Y-95711766D01*
X102834991Y-95630105D01*
X102939273Y-95630105D01*
X102942812Y-95752795D01*
X102960431Y-95898322D01*
X102990811Y-95983104D01*
X103014075Y-96013624D01*
X103044027Y-96031660D01*
X103062571Y-95997039D01*
X103177791Y-95997039D01*
X103183969Y-96076615D01*
X103201176Y-96147453D01*
X103242709Y-96177617D01*
X103325347Y-96188928D01*
X103349237Y-96190163D01*
X103508017Y-96158661D01*
X103645220Y-96067872D01*
X103748694Y-95932917D01*
X103806285Y-95768921D01*
X103805840Y-95591006D01*
X103783388Y-95525537D01*
X103718110Y-95408123D01*
X103630335Y-95290408D01*
X103562878Y-95207903D01*
X103501662Y-95121270D01*
X103478061Y-95070629D01*
X103474978Y-95045013D01*
X103453751Y-95051971D01*
X103414179Y-95126075D01*
X103358399Y-95262958D01*
X103288546Y-95458252D01*
X103226823Y-95655948D01*
X103185259Y-95847067D01*
X103177791Y-95997039D01*
X103062571Y-95997039D01*
X103067781Y-95987312D01*
X103084885Y-95912410D01*
X103093213Y-95805093D01*
X103100369Y-95747368D01*
X103128985Y-95622700D01*
X103174395Y-95461884D01*
X103231133Y-95285505D01*
X103277561Y-95143974D01*
X103319356Y-95002566D01*
X103343577Y-94902297D01*
X103346011Y-94858818D01*
X103333813Y-94855450D01*
X103279170Y-94884199D01*
X103201753Y-94951868D01*
X103117518Y-95041994D01*
X103042419Y-95138109D01*
X102992412Y-95223748D01*
X102965765Y-95324190D01*
X102946590Y-95470429D01*
X102939273Y-95630105D01*
X102834991Y-95630105D01*
X102833179Y-95511602D01*
X102859576Y-95322947D01*
X102934476Y-95133392D01*
X103077025Y-94923704D01*
X103163981Y-94810680D01*
X103260386Y-94669329D01*
X103328354Y-94551500D01*
X103355380Y-94499694D01*
X103406992Y-94419527D01*
X103443009Y-94387939D01*
X103458775Y-94412501D01*
X103472699Y-94495309D01*
X103478061Y-94616343D01*
X103487336Y-94800331D01*
X103501319Y-94858818D01*
G37*
%TD*%
M02*
