%TF.SameCoordinates,Original*%
%TF.FileFunction,Copper,L2,Bot*%
%TF.FilePolarity,Positive*%
%FSLAX46Y46*%
G04 Gerber Fmt 4.6, Leading zero omitted, Abs format (unit mm)*
G04 Created by KiCad (PCBNEW (7.0.0)) date 2023-11-17 04:09:28*
%MOMM*%
%LPD*%
G01*
G04 APERTURE LIST*
%TA.AperFunction,ComponentPad*%
%ADD10R,1.700000X1.700000*%
%TD*%
%TA.AperFunction,ComponentPad*%
%ADD11O,1.700000X1.700000*%
%TD*%
%TA.AperFunction,ComponentPad*%
%ADD12C,2.000000*%
%TD*%
%TA.AperFunction,ComponentPad*%
%ADD13C,2.600000*%
%TD*%
%TA.AperFunction,ConnectorPad*%
%ADD14C,3.800000*%
%TD*%
%TA.AperFunction,ViaPad*%
%ADD15C,0.800000*%
%TD*%
%TA.AperFunction,Conductor*%
%ADD16C,0.250000*%
%TD*%
%TA.AperFunction,Conductor*%
%ADD17C,0.500000*%
%TD*%
G04 APERTURE END LIST*
D10*
%TO.P,J5,1,Pin_1*%
%TO.N,unconnected-(J5-Pin_1-Pad1)*%
X83819999Y-60959999D03*
%TD*%
%TO.P,J6,1,Pin_1*%
%TO.N,unconnected-(J6-Pin_1-Pad1)*%
X83819999Y-91439999D03*
%TD*%
%TO.P,J1,1,Pin_1*%
%TO.N,unconnected-(J1-Pin_1-Pad1)*%
X121919999Y-91439999D03*
D11*
%TO.P,J1,2,Pin_2*%
%TO.N,unconnected-(J1-Pin_2-Pad2)*%
X124459999Y-91439999D03*
%TO.P,J1,3,Pin_3*%
%TO.N,unconnected-(J1-Pin_3-Pad3)*%
X126999999Y-91439999D03*
%TO.P,J1,4,Pin_4*%
%TO.N,Net-(J1-Pin_4)*%
X129539999Y-91439999D03*
%TO.P,J1,5,Pin_5*%
%TO.N,Net-(J1-Pin_5)*%
X132079999Y-91439999D03*
%TO.P,J1,6,Pin_6*%
%TO.N,Net-(J1-Pin_6)*%
X134619999Y-91439999D03*
%TO.P,J1,7,Pin_7*%
%TO.N,Net-(J1-Pin_7)*%
X137159999Y-91439999D03*
%TO.P,J1,8,Pin_8*%
%TO.N,unconnected-(J1-Pin_8-Pad8)*%
X139699999Y-91439999D03*
%TO.P,J1,9,Pin_9*%
%TO.N,Net-(J1-Pin_9)*%
X142239999Y-91439999D03*
%TO.P,J1,10,Pin_10*%
%TO.N,GND*%
X144779999Y-91439999D03*
%TO.P,J1,11,Pin_11*%
%TO.N,Net-(J1-Pin_11)*%
X147319999Y-91439999D03*
%TO.P,J1,12,Pin_12*%
%TO.N,Net-(J1-Pin_12)*%
X149859999Y-91439999D03*
%TO.P,J1,13,Pin_13*%
%TO.N,Net-(J1-Pin_13)*%
X152399999Y-91439999D03*
%TD*%
D12*
%TO.P,TP6,1,1*%
%TO.N,Net-(J2-Pin_2)*%
X162560000Y-68580000D03*
%TD*%
D10*
%TO.P,J3,1,Pin_1*%
%TO.N,Net-(J3-Pin_1)*%
X152399999Y-60959999D03*
D11*
%TO.P,J3,2,Pin_2*%
%TO.N,Net-(J3-Pin_2)*%
X149859999Y-60959999D03*
%TO.P,J3,3,Pin_3*%
%TO.N,Net-(J3-Pin_3)*%
X147319999Y-60959999D03*
%TO.P,J3,4,Pin_4*%
%TO.N,Net-(J3-Pin_4)*%
X144779999Y-60959999D03*
%TO.P,J3,5,Pin_5*%
%TO.N,Net-(J3-Pin_5)*%
X142239999Y-60959999D03*
%TO.P,J3,6,Pin_6*%
%TO.N,Net-(J3-Pin_6)*%
X139699999Y-60959999D03*
%TD*%
D12*
%TO.P,TP5,1,1*%
%TO.N,Net-(J1-Pin_9)*%
X139700000Y-88900000D03*
%TD*%
D13*
%TO.P,H1,1*%
%TO.N,N/C*%
X170180000Y-63500000D03*
D14*
X170180000Y-63500000D03*
%TD*%
D12*
%TO.P,TP3,1,1*%
%TO.N,Net-(J1-Pin_12)*%
X167640000Y-88900000D03*
%TD*%
D10*
%TO.P,J2,1,Pin_1*%
%TO.N,Net-(J2-Pin_1)*%
X172719999Y-78739999D03*
D11*
%TO.P,J2,2,Pin_2*%
%TO.N,Net-(J2-Pin_2)*%
X172719999Y-76199999D03*
%TO.P,J2,3,Pin_3*%
%TO.N,Net-(J2-Pin_3)*%
X172719999Y-73659999D03*
%TD*%
D12*
%TO.P,TP1,1,1*%
%TO.N,Net-(U4-IN-)*%
X129540000Y-63500000D03*
%TD*%
%TO.P,TP4,1,1*%
%TO.N,Net-(J1-Pin_11)*%
X162560000Y-88900000D03*
%TD*%
%TO.P,TP2,1,1*%
%TO.N,Net-(J2-Pin_1)*%
X167640000Y-81280000D03*
%TD*%
%TO.P,TP7,1,1*%
%TO.N,Net-(J2-Pin_3)*%
X167640000Y-68580000D03*
%TD*%
D10*
%TO.P,J4,1,Pin_1*%
%TO.N,Net-(J4-Pin_1)*%
X83819999Y-73659999D03*
D11*
%TO.P,J4,2,Pin_2*%
%TO.N,Net-(J4-Pin_2)*%
X83819999Y-76199999D03*
%TO.P,J4,3,Pin_3*%
%TO.N,GND*%
X83819999Y-78739999D03*
%TD*%
D15*
%TO.N,GND*%
X129413000Y-77597000D03*
X119380000Y-60960000D03*
X106680000Y-60960000D03*
X114300000Y-60960000D03*
X114300000Y-83058000D03*
X147701000Y-84309000D03*
X157480000Y-83820000D03*
X104140000Y-60960000D03*
X104140000Y-91440000D03*
X99060000Y-91440000D03*
X157480000Y-81280000D03*
X121920000Y-83947000D03*
X152882600Y-62763400D03*
X83820000Y-71120000D03*
X93980000Y-91440000D03*
X165100000Y-74930000D03*
X150368000Y-87376000D03*
X139700000Y-86106000D03*
X109220000Y-91440000D03*
X172720000Y-83820000D03*
X91440000Y-83820000D03*
X138684000Y-67310000D03*
X96520000Y-83820000D03*
X160020000Y-60960000D03*
X88900000Y-91440000D03*
X99060000Y-72390000D03*
X165100000Y-83820000D03*
X124460000Y-72390000D03*
X111760000Y-60960000D03*
X106680000Y-91440000D03*
X148666200Y-62763400D03*
X172720000Y-68580000D03*
X114300000Y-87122000D03*
X134620000Y-60960000D03*
X96520000Y-91440000D03*
X83820000Y-86360000D03*
X162560000Y-60960000D03*
X109220000Y-60960000D03*
X116840000Y-91440000D03*
X128270000Y-88900000D03*
X83820000Y-66040000D03*
X129540000Y-60960000D03*
X172720000Y-91440000D03*
X91440000Y-91440000D03*
X137922000Y-81270000D03*
X93980000Y-83820000D03*
X129540000Y-72390000D03*
X127000000Y-60960000D03*
X96520000Y-60960000D03*
X88900000Y-72390000D03*
X137033000Y-88900000D03*
X109220000Y-72390000D03*
X83820000Y-63500000D03*
X134112000Y-65786000D03*
X132080000Y-72390000D03*
X101600000Y-91440000D03*
X152908000Y-88138000D03*
X157480000Y-60960000D03*
X99060000Y-60960000D03*
X91440000Y-72390000D03*
X130810000Y-88900000D03*
X138684000Y-77216000D03*
X172720000Y-88900000D03*
X142240000Y-80626000D03*
X133350000Y-88900000D03*
X88900000Y-83820000D03*
X139446000Y-64008000D03*
X142240000Y-86106000D03*
X121920000Y-60960000D03*
X143611600Y-62763400D03*
X157480000Y-86360000D03*
X116840000Y-60960000D03*
X157480000Y-78740000D03*
X99060000Y-83820000D03*
X91440000Y-60960000D03*
X172720000Y-66040000D03*
X83820000Y-83820000D03*
X172720000Y-60960000D03*
X141046200Y-62331600D03*
X86360000Y-83820000D03*
X165100000Y-77724000D03*
X138684000Y-70612000D03*
X127000000Y-72390000D03*
X101600000Y-60960000D03*
X157480000Y-76200000D03*
X121920000Y-72390000D03*
X111760000Y-91440000D03*
X96520000Y-72390000D03*
X86360000Y-60960000D03*
X132080000Y-60960000D03*
X114300000Y-78994000D03*
X134620000Y-86106000D03*
X101600000Y-72390000D03*
X146126200Y-62763400D03*
X137160000Y-86106000D03*
X111760000Y-72390000D03*
X83820000Y-68580000D03*
X88900000Y-60960000D03*
X114300000Y-91440000D03*
X145669000Y-88646000D03*
X93980000Y-72390000D03*
X167640000Y-60960000D03*
X104140000Y-72390000D03*
X143764000Y-68580000D03*
X83820000Y-81280000D03*
X124460000Y-60960000D03*
X93980000Y-60960000D03*
X172720000Y-86360000D03*
X106680000Y-72390000D03*
X157480000Y-88900000D03*
X172720000Y-71120000D03*
X83820000Y-88900000D03*
X143256000Y-89281000D03*
X151638000Y-75438000D03*
X165100000Y-60960000D03*
X86360000Y-91440000D03*
X119380000Y-72390000D03*
%TO.N,Net-(J2-Pin_1)*%
X153924000Y-70866000D03*
X151384000Y-68361000D03*
%TO.N,Net-(J2-Pin_2)*%
X155448000Y-70104000D03*
X152908000Y-67599000D03*
%TO.N,Net-(J4-Pin_1)*%
X146431000Y-78467000D03*
X115316000Y-72390000D03*
X147447000Y-82277000D03*
X119888000Y-76962000D03*
%TO.N,Net-(J2-Pin_3)*%
X153670000Y-66040000D03*
X156718000Y-69088000D03*
%TO.N,Net-(U4-IN-)*%
X136398000Y-65786000D03*
%TD*%
D16*
%TO.N,GND*%
X145796000Y-88773000D02*
X145669000Y-88646000D01*
X145796000Y-90424000D02*
X145796000Y-88773000D01*
X144780000Y-91440000D02*
X145796000Y-90424000D01*
%TO.N,Net-(J2-Pin_1)*%
X151419000Y-68361000D02*
X153924000Y-70866000D01*
X151384000Y-68361000D02*
X151419000Y-68361000D01*
%TO.N,Net-(J2-Pin_2)*%
X152908000Y-67599000D02*
X152943000Y-67599000D01*
X155448000Y-70104000D02*
X161036000Y-70104000D01*
X152943000Y-67599000D02*
X155448000Y-70104000D01*
X161036000Y-70104000D02*
X162560000Y-68580000D01*
%TO.N,Net-(J1-Pin_12)*%
X155956000Y-92456000D02*
X164084000Y-92456000D01*
X151130000Y-90170000D02*
X153670000Y-90170000D01*
X164084000Y-92456000D02*
X167640000Y-88900000D01*
X153670000Y-90170000D02*
X155956000Y-92456000D01*
X149860000Y-91440000D02*
X151130000Y-90170000D01*
D17*
%TO.N,Net-(J4-Pin_1)*%
X147447000Y-82277000D02*
X147447000Y-79483000D01*
X119888000Y-76962000D02*
X115316000Y-72390000D01*
X147447000Y-79483000D02*
X146431000Y-78467000D01*
D16*
%TO.N,Net-(J2-Pin_3)*%
X153670000Y-66040000D02*
X156718000Y-69088000D01*
%TO.N,Net-(J1-Pin_11)*%
X147320000Y-91440000D02*
X149040000Y-89720000D01*
X149040000Y-89720000D02*
X153982000Y-89720000D01*
X156268000Y-92006000D02*
X159454000Y-92006000D01*
X159454000Y-92006000D02*
X162560000Y-88900000D01*
X153982000Y-89720000D02*
X156268000Y-92006000D01*
%TO.N,Net-(U4-IN-)*%
X134112000Y-63500000D02*
X129540000Y-63500000D01*
X136398000Y-65786000D02*
X134112000Y-63500000D01*
%TD*%
%TA.AperFunction,Conductor*%
%TO.N,GND*%
G36*
X138825348Y-59706047D02*
G01*
X138870389Y-59748790D01*
X138889061Y-59808011D01*
X138876681Y-59868859D01*
X138836356Y-59916073D01*
X138833530Y-59918051D01*
X138833031Y-59918402D01*
X138828599Y-59921505D01*
X138824775Y-59925328D01*
X138824769Y-59925334D01*
X138665334Y-60084769D01*
X138665328Y-60084775D01*
X138661505Y-60088599D01*
X138658402Y-60093029D01*
X138658399Y-60093034D01*
X138529073Y-60277731D01*
X138529068Y-60277738D01*
X138525965Y-60282171D01*
X138523677Y-60287077D01*
X138523675Y-60287081D01*
X138428386Y-60491427D01*
X138428383Y-60491432D01*
X138426097Y-60496337D01*
X138424698Y-60501557D01*
X138424694Y-60501569D01*
X138366337Y-60719365D01*
X138366335Y-60719371D01*
X138364937Y-60724592D01*
X138344341Y-60960000D01*
X138344813Y-60965395D01*
X138356588Y-61099988D01*
X138364937Y-61195408D01*
X138366336Y-61200630D01*
X138366337Y-61200634D01*
X138424694Y-61418430D01*
X138424697Y-61418438D01*
X138426097Y-61423663D01*
X138428385Y-61428570D01*
X138428386Y-61428572D01*
X138523678Y-61632927D01*
X138523681Y-61632933D01*
X138525965Y-61637830D01*
X138529064Y-61642257D01*
X138529066Y-61642259D01*
X138658399Y-61826966D01*
X138658402Y-61826970D01*
X138661505Y-61831401D01*
X138828599Y-61998495D01*
X138833031Y-62001598D01*
X138833033Y-62001600D01*
X138949612Y-62083229D01*
X139022170Y-62134035D01*
X139236337Y-62233903D01*
X139241567Y-62235304D01*
X139241569Y-62235305D01*
X139269086Y-62242678D01*
X139464592Y-62295063D01*
X139700000Y-62315659D01*
X139935408Y-62295063D01*
X140163663Y-62233903D01*
X140377830Y-62134035D01*
X140571401Y-61998495D01*
X140738495Y-61831401D01*
X140868424Y-61645842D01*
X140912743Y-61606976D01*
X140970000Y-61592965D01*
X141027257Y-61606976D01*
X141071575Y-61645842D01*
X141198395Y-61826961D01*
X141198401Y-61826968D01*
X141201505Y-61831401D01*
X141368599Y-61998495D01*
X141373031Y-62001598D01*
X141373033Y-62001600D01*
X141489612Y-62083229D01*
X141562170Y-62134035D01*
X141776337Y-62233903D01*
X141781567Y-62235304D01*
X141781569Y-62235305D01*
X141809086Y-62242678D01*
X142004592Y-62295063D01*
X142240000Y-62315659D01*
X142475408Y-62295063D01*
X142703663Y-62233903D01*
X142917830Y-62134035D01*
X143111401Y-61998495D01*
X143278495Y-61831401D01*
X143408424Y-61645842D01*
X143452743Y-61606976D01*
X143510000Y-61592965D01*
X143567257Y-61606976D01*
X143611575Y-61645842D01*
X143738395Y-61826961D01*
X143738401Y-61826968D01*
X143741505Y-61831401D01*
X143908599Y-61998495D01*
X143913031Y-62001598D01*
X143913033Y-62001600D01*
X144029612Y-62083229D01*
X144102170Y-62134035D01*
X144316337Y-62233903D01*
X144321567Y-62235304D01*
X144321569Y-62235305D01*
X144349086Y-62242678D01*
X144544592Y-62295063D01*
X144780000Y-62315659D01*
X145015408Y-62295063D01*
X145243663Y-62233903D01*
X145457830Y-62134035D01*
X145651401Y-61998495D01*
X145818495Y-61831401D01*
X145948424Y-61645842D01*
X145992743Y-61606976D01*
X146050000Y-61592965D01*
X146107257Y-61606976D01*
X146151575Y-61645842D01*
X146278395Y-61826961D01*
X146278401Y-61826968D01*
X146281505Y-61831401D01*
X146448599Y-61998495D01*
X146453031Y-62001598D01*
X146453033Y-62001600D01*
X146569612Y-62083229D01*
X146642170Y-62134035D01*
X146856337Y-62233903D01*
X146861567Y-62235304D01*
X146861569Y-62235305D01*
X146889086Y-62242678D01*
X147084592Y-62295063D01*
X147320000Y-62315659D01*
X147555408Y-62295063D01*
X147783663Y-62233903D01*
X147997830Y-62134035D01*
X148191401Y-61998495D01*
X148358495Y-61831401D01*
X148488424Y-61645842D01*
X148532743Y-61606976D01*
X148590000Y-61592965D01*
X148647257Y-61606976D01*
X148691575Y-61645842D01*
X148818395Y-61826961D01*
X148818401Y-61826968D01*
X148821505Y-61831401D01*
X148988599Y-61998495D01*
X148993031Y-62001598D01*
X148993033Y-62001600D01*
X149109612Y-62083229D01*
X149182170Y-62134035D01*
X149396337Y-62233903D01*
X149401567Y-62235304D01*
X149401569Y-62235305D01*
X149429086Y-62242678D01*
X149624592Y-62295063D01*
X149860000Y-62315659D01*
X150095408Y-62295063D01*
X150323663Y-62233903D01*
X150537830Y-62134035D01*
X150731401Y-61998495D01*
X150853329Y-61876566D01*
X150906072Y-61845273D01*
X150967365Y-61843084D01*
X151022210Y-61870537D01*
X151057189Y-61920916D01*
X151106204Y-62052331D01*
X151111518Y-62059430D01*
X151111519Y-62059431D01*
X151167367Y-62134035D01*
X151192454Y-62167546D01*
X151307669Y-62253796D01*
X151442517Y-62304091D01*
X151502127Y-62310500D01*
X153297872Y-62310499D01*
X153357483Y-62304091D01*
X153492331Y-62253796D01*
X153607546Y-62167546D01*
X153693796Y-62052331D01*
X153744091Y-61917483D01*
X153750500Y-61857873D01*
X153750499Y-60062128D01*
X153744091Y-60002517D01*
X153693796Y-59867669D01*
X153693796Y-59867668D01*
X153694199Y-59867518D01*
X153680627Y-59812288D01*
X153697965Y-59751227D01*
X153743247Y-59706746D01*
X153804607Y-59690500D01*
X173865500Y-59690500D01*
X173927500Y-59707113D01*
X173972887Y-59752500D01*
X173989500Y-59814500D01*
X173989500Y-72725231D01*
X173973953Y-72785348D01*
X173931210Y-72830389D01*
X173871989Y-72849061D01*
X173811141Y-72836681D01*
X173763926Y-72796356D01*
X173758495Y-72788599D01*
X173591401Y-72621505D01*
X173586970Y-72618402D01*
X173586966Y-72618399D01*
X173402259Y-72489066D01*
X173402257Y-72489064D01*
X173397830Y-72485965D01*
X173392933Y-72483681D01*
X173392927Y-72483678D01*
X173188572Y-72388386D01*
X173188570Y-72388385D01*
X173183663Y-72386097D01*
X173178438Y-72384697D01*
X173178430Y-72384694D01*
X172960634Y-72326337D01*
X172960630Y-72326336D01*
X172955408Y-72324937D01*
X172950020Y-72324465D01*
X172950017Y-72324465D01*
X172725395Y-72304813D01*
X172720000Y-72304341D01*
X172714605Y-72304813D01*
X172489982Y-72324465D01*
X172489977Y-72324465D01*
X172484592Y-72324937D01*
X172479371Y-72326335D01*
X172479365Y-72326337D01*
X172261569Y-72384694D01*
X172261557Y-72384698D01*
X172256337Y-72386097D01*
X172251432Y-72388383D01*
X172251427Y-72388386D01*
X172047081Y-72483675D01*
X172047077Y-72483677D01*
X172042171Y-72485965D01*
X172037738Y-72489068D01*
X172037731Y-72489073D01*
X171853034Y-72618399D01*
X171853029Y-72618402D01*
X171848599Y-72621505D01*
X171844775Y-72625328D01*
X171844769Y-72625334D01*
X171685334Y-72784769D01*
X171685328Y-72784775D01*
X171681505Y-72788599D01*
X171678402Y-72793029D01*
X171678399Y-72793034D01*
X171549073Y-72977731D01*
X171549068Y-72977738D01*
X171545965Y-72982171D01*
X171543677Y-72987077D01*
X171543675Y-72987081D01*
X171448386Y-73191427D01*
X171448383Y-73191432D01*
X171446097Y-73196337D01*
X171444698Y-73201557D01*
X171444694Y-73201569D01*
X171386337Y-73419365D01*
X171386335Y-73419371D01*
X171384937Y-73424592D01*
X171364341Y-73660000D01*
X171384937Y-73895408D01*
X171386336Y-73900630D01*
X171386337Y-73900634D01*
X171444694Y-74118430D01*
X171444697Y-74118438D01*
X171446097Y-74123663D01*
X171448385Y-74128570D01*
X171448386Y-74128572D01*
X171543678Y-74332927D01*
X171543681Y-74332933D01*
X171545965Y-74337830D01*
X171549064Y-74342257D01*
X171549066Y-74342259D01*
X171678399Y-74526966D01*
X171678402Y-74526969D01*
X171681505Y-74531401D01*
X171848599Y-74698495D01*
X171853032Y-74701599D01*
X171853038Y-74701604D01*
X172034158Y-74828425D01*
X172073024Y-74872743D01*
X172087035Y-74930000D01*
X172073024Y-74987257D01*
X172034159Y-75031575D01*
X171853041Y-75158395D01*
X171848599Y-75161505D01*
X171844775Y-75165328D01*
X171844769Y-75165334D01*
X171685334Y-75324769D01*
X171685328Y-75324775D01*
X171681505Y-75328599D01*
X171678402Y-75333029D01*
X171678399Y-75333034D01*
X171549073Y-75517731D01*
X171549068Y-75517738D01*
X171545965Y-75522171D01*
X171543677Y-75527077D01*
X171543675Y-75527081D01*
X171448386Y-75731427D01*
X171448383Y-75731432D01*
X171446097Y-75736337D01*
X171444698Y-75741557D01*
X171444694Y-75741569D01*
X171386337Y-75959365D01*
X171386335Y-75959371D01*
X171384937Y-75964592D01*
X171384465Y-75969977D01*
X171384465Y-75969982D01*
X171374226Y-76087011D01*
X171364341Y-76200000D01*
X171364813Y-76205395D01*
X171384022Y-76424956D01*
X171384937Y-76435408D01*
X171386336Y-76440630D01*
X171386337Y-76440634D01*
X171444694Y-76658430D01*
X171444697Y-76658438D01*
X171446097Y-76663663D01*
X171448385Y-76668570D01*
X171448386Y-76668572D01*
X171543678Y-76872927D01*
X171543681Y-76872933D01*
X171545965Y-76877830D01*
X171549064Y-76882257D01*
X171549066Y-76882259D01*
X171678399Y-77066966D01*
X171678402Y-77066969D01*
X171681505Y-77071401D01*
X171685336Y-77075232D01*
X171803430Y-77193326D01*
X171834726Y-77246072D01*
X171836915Y-77307365D01*
X171809462Y-77362210D01*
X171759083Y-77397189D01*
X171643702Y-77440223D01*
X171627669Y-77446204D01*
X171620572Y-77451516D01*
X171620568Y-77451519D01*
X171519550Y-77527141D01*
X171519546Y-77527144D01*
X171512454Y-77532454D01*
X171507144Y-77539546D01*
X171507141Y-77539550D01*
X171431519Y-77640568D01*
X171431516Y-77640572D01*
X171426204Y-77647669D01*
X171423104Y-77655978D01*
X171423104Y-77655980D01*
X171378620Y-77775247D01*
X171378619Y-77775250D01*
X171375909Y-77782517D01*
X171375079Y-77790227D01*
X171375079Y-77790232D01*
X171369855Y-77838819D01*
X171369854Y-77838831D01*
X171369500Y-77842127D01*
X171369500Y-77845448D01*
X171369500Y-77845449D01*
X171369500Y-79634560D01*
X171369500Y-79634578D01*
X171369501Y-79637872D01*
X171369853Y-79641150D01*
X171369854Y-79641161D01*
X171375079Y-79689768D01*
X171375080Y-79689773D01*
X171375909Y-79697483D01*
X171378619Y-79704749D01*
X171378620Y-79704753D01*
X171398312Y-79757549D01*
X171426204Y-79832331D01*
X171512454Y-79947546D01*
X171627669Y-80033796D01*
X171762517Y-80084091D01*
X171822127Y-80090500D01*
X173617872Y-80090499D01*
X173677483Y-80084091D01*
X173812331Y-80033796D01*
X173812481Y-80034199D01*
X173867712Y-80020627D01*
X173928773Y-80037965D01*
X173973254Y-80083247D01*
X173989500Y-80144607D01*
X173989500Y-92585500D01*
X173972887Y-92647500D01*
X173927500Y-92692887D01*
X173865500Y-92709500D01*
X165014452Y-92709500D01*
X164958157Y-92695985D01*
X164914134Y-92658385D01*
X164891979Y-92604898D01*
X164896521Y-92547182D01*
X164926771Y-92497819D01*
X165985451Y-91439139D01*
X167062772Y-90361817D01*
X167122502Y-90328691D01*
X167190713Y-90332218D01*
X167270386Y-90359571D01*
X167515665Y-90400500D01*
X167759201Y-90400500D01*
X167764335Y-90400500D01*
X168009614Y-90359571D01*
X168244810Y-90278828D01*
X168463509Y-90160474D01*
X168659744Y-90007738D01*
X168828164Y-89824785D01*
X168964173Y-89616607D01*
X169064063Y-89388881D01*
X169125108Y-89147821D01*
X169145643Y-88900000D01*
X169125108Y-88652179D01*
X169064063Y-88411119D01*
X168964173Y-88183393D01*
X168828164Y-87975215D01*
X168659744Y-87792262D01*
X168463509Y-87639526D01*
X168458997Y-87637084D01*
X168249316Y-87523610D01*
X168249310Y-87523607D01*
X168244810Y-87521172D01*
X168239969Y-87519510D01*
X168239962Y-87519507D01*
X168014465Y-87442094D01*
X168014461Y-87442093D01*
X168009614Y-87440429D01*
X168000768Y-87438952D01*
X167769398Y-87400344D01*
X167769387Y-87400343D01*
X167764335Y-87399500D01*
X167515665Y-87399500D01*
X167510613Y-87400343D01*
X167510601Y-87400344D01*
X167275443Y-87439585D01*
X167275441Y-87439585D01*
X167270386Y-87440429D01*
X167265541Y-87442092D01*
X167265534Y-87442094D01*
X167040037Y-87519507D01*
X167040026Y-87519511D01*
X167035190Y-87521172D01*
X167030693Y-87523605D01*
X167030683Y-87523610D01*
X166821002Y-87637084D01*
X166820995Y-87637088D01*
X166816491Y-87639526D01*
X166812448Y-87642672D01*
X166812440Y-87642678D01*
X166624304Y-87789111D01*
X166620256Y-87792262D01*
X166616793Y-87796023D01*
X166616784Y-87796032D01*
X166455311Y-87971439D01*
X166455305Y-87971446D01*
X166451836Y-87975215D01*
X166449031Y-87979506D01*
X166449028Y-87979512D01*
X166318631Y-88179099D01*
X166318624Y-88179111D01*
X166315827Y-88183393D01*
X166313772Y-88188077D01*
X166313766Y-88188089D01*
X166217997Y-88406422D01*
X166215937Y-88411119D01*
X166214679Y-88416084D01*
X166214678Y-88416089D01*
X166156151Y-88647204D01*
X166156149Y-88647213D01*
X166154892Y-88652179D01*
X166154468Y-88657288D01*
X166154467Y-88657298D01*
X166134781Y-88894883D01*
X166134357Y-88900000D01*
X166134781Y-88905117D01*
X166154467Y-89142701D01*
X166154468Y-89142709D01*
X166154892Y-89147821D01*
X166156149Y-89152788D01*
X166156151Y-89152795D01*
X166208863Y-89360948D01*
X166208208Y-89424306D01*
X166176338Y-89479069D01*
X163861228Y-91794181D01*
X163821000Y-91821061D01*
X163773547Y-91830500D01*
X160813452Y-91830500D01*
X160757157Y-91816985D01*
X160713134Y-91779385D01*
X160690979Y-91725898D01*
X160695521Y-91668182D01*
X160725771Y-91618819D01*
X161256027Y-91088563D01*
X161982772Y-90361817D01*
X162042502Y-90328691D01*
X162110713Y-90332218D01*
X162190386Y-90359571D01*
X162435665Y-90400500D01*
X162679201Y-90400500D01*
X162684335Y-90400500D01*
X162929614Y-90359571D01*
X163164810Y-90278828D01*
X163383509Y-90160474D01*
X163579744Y-90007738D01*
X163748164Y-89824785D01*
X163884173Y-89616607D01*
X163984063Y-89388881D01*
X164045108Y-89147821D01*
X164065643Y-88900000D01*
X164045108Y-88652179D01*
X163984063Y-88411119D01*
X163884173Y-88183393D01*
X163748164Y-87975215D01*
X163579744Y-87792262D01*
X163383509Y-87639526D01*
X163378997Y-87637084D01*
X163169316Y-87523610D01*
X163169310Y-87523607D01*
X163164810Y-87521172D01*
X163159969Y-87519510D01*
X163159962Y-87519507D01*
X162934465Y-87442094D01*
X162934461Y-87442093D01*
X162929614Y-87440429D01*
X162920768Y-87438952D01*
X162689398Y-87400344D01*
X162689387Y-87400343D01*
X162684335Y-87399500D01*
X162435665Y-87399500D01*
X162430613Y-87400343D01*
X162430601Y-87400344D01*
X162195443Y-87439585D01*
X162195441Y-87439585D01*
X162190386Y-87440429D01*
X162185541Y-87442092D01*
X162185534Y-87442094D01*
X161960037Y-87519507D01*
X161960026Y-87519511D01*
X161955190Y-87521172D01*
X161950693Y-87523605D01*
X161950683Y-87523610D01*
X161741002Y-87637084D01*
X161740995Y-87637088D01*
X161736491Y-87639526D01*
X161732448Y-87642672D01*
X161732440Y-87642678D01*
X161544304Y-87789111D01*
X161540256Y-87792262D01*
X161536793Y-87796023D01*
X161536784Y-87796032D01*
X161375311Y-87971439D01*
X161375305Y-87971446D01*
X161371836Y-87975215D01*
X161369031Y-87979506D01*
X161369028Y-87979512D01*
X161238631Y-88179099D01*
X161238624Y-88179111D01*
X161235827Y-88183393D01*
X161233772Y-88188077D01*
X161233766Y-88188089D01*
X161137997Y-88406422D01*
X161135937Y-88411119D01*
X161134679Y-88416084D01*
X161134678Y-88416089D01*
X161076151Y-88647204D01*
X161076149Y-88647213D01*
X161074892Y-88652179D01*
X161074468Y-88657288D01*
X161074467Y-88657298D01*
X161054781Y-88894883D01*
X161054357Y-88900000D01*
X161054781Y-88905117D01*
X161074467Y-89142701D01*
X161074468Y-89142709D01*
X161074892Y-89147821D01*
X161076149Y-89152788D01*
X161076151Y-89152795D01*
X161128863Y-89360948D01*
X161128208Y-89424306D01*
X161096338Y-89479069D01*
X159231228Y-91344181D01*
X159191000Y-91371061D01*
X159143547Y-91380500D01*
X156578453Y-91380500D01*
X156531000Y-91371061D01*
X156490772Y-91344181D01*
X154479286Y-89332695D01*
X154471842Y-89324514D01*
X154467786Y-89318123D01*
X154418775Y-89272098D01*
X154415978Y-89269387D01*
X154399227Y-89252636D01*
X154399227Y-89252635D01*
X154396471Y-89249880D01*
X154393290Y-89247412D01*
X154384414Y-89239830D01*
X154358269Y-89215278D01*
X154358267Y-89215276D01*
X154352582Y-89209938D01*
X154345749Y-89206182D01*
X154345743Y-89206177D01*
X154335025Y-89200285D01*
X154318766Y-89189606D01*
X154309095Y-89182104D01*
X154309092Y-89182102D01*
X154302936Y-89177327D01*
X154295779Y-89174229D01*
X154295776Y-89174228D01*
X154262849Y-89159978D01*
X154252363Y-89154841D01*
X154220932Y-89137562D01*
X154220923Y-89137558D01*
X154214092Y-89133803D01*
X154206535Y-89131862D01*
X154206531Y-89131861D01*
X154194688Y-89128820D01*
X154176284Y-89122519D01*
X154165057Y-89117660D01*
X154165050Y-89117658D01*
X154157896Y-89114562D01*
X154150192Y-89113341D01*
X154150190Y-89113341D01*
X154114759Y-89107729D01*
X154103324Y-89105361D01*
X154068571Y-89096438D01*
X154068563Y-89096437D01*
X154061019Y-89094500D01*
X154053223Y-89094500D01*
X154040983Y-89094500D01*
X154021597Y-89092974D01*
X154001804Y-89089840D01*
X153994038Y-89090574D01*
X153994035Y-89090574D01*
X153958324Y-89093950D01*
X153946655Y-89094500D01*
X149117771Y-89094500D01*
X149106718Y-89093979D01*
X149099332Y-89092328D01*
X149091534Y-89092573D01*
X149032144Y-89094439D01*
X149028250Y-89094500D01*
X149000650Y-89094500D01*
X148996799Y-89094986D01*
X148996768Y-89094988D01*
X148996640Y-89095005D01*
X148985029Y-89095918D01*
X148949167Y-89097045D01*
X148949159Y-89097046D01*
X148941373Y-89097291D01*
X148933885Y-89099466D01*
X148933886Y-89099466D01*
X148922134Y-89102880D01*
X148903095Y-89106822D01*
X148890948Y-89108357D01*
X148890940Y-89108358D01*
X148883208Y-89109336D01*
X148875962Y-89112204D01*
X148875957Y-89112206D01*
X148842585Y-89125419D01*
X148831539Y-89129200D01*
X148824048Y-89131377D01*
X148797094Y-89139208D01*
X148797089Y-89139209D01*
X148789610Y-89141383D01*
X148782908Y-89145346D01*
X148782897Y-89145351D01*
X148772364Y-89151581D01*
X148754900Y-89160136D01*
X148743524Y-89164640D01*
X148743517Y-89164643D01*
X148736268Y-89167514D01*
X148729962Y-89172094D01*
X148729957Y-89172098D01*
X148700927Y-89193189D01*
X148691169Y-89199598D01*
X148660298Y-89217856D01*
X148653579Y-89221830D01*
X148648063Y-89227344D01*
X148648056Y-89227351D01*
X148639407Y-89236000D01*
X148624624Y-89248626D01*
X148614727Y-89255817D01*
X148614720Y-89255823D01*
X148608413Y-89260406D01*
X148603446Y-89266408D01*
X148603435Y-89266420D01*
X148580570Y-89294059D01*
X148572710Y-89302697D01*
X147775646Y-90099761D01*
X147720059Y-90131855D01*
X147655873Y-90131855D01*
X147560637Y-90106338D01*
X147560636Y-90106337D01*
X147555408Y-90104937D01*
X147550020Y-90104465D01*
X147550017Y-90104465D01*
X147325395Y-90084813D01*
X147320000Y-90084341D01*
X147314605Y-90084813D01*
X147089982Y-90104465D01*
X147089977Y-90104465D01*
X147084592Y-90104937D01*
X147079371Y-90106335D01*
X147079365Y-90106337D01*
X146861569Y-90164694D01*
X146861557Y-90164698D01*
X146856337Y-90166097D01*
X146851432Y-90168383D01*
X146851427Y-90168386D01*
X146647081Y-90263675D01*
X146647077Y-90263677D01*
X146642171Y-90265965D01*
X146637738Y-90269068D01*
X146637731Y-90269073D01*
X146453034Y-90398399D01*
X146453032Y-90398401D01*
X146448599Y-90401505D01*
X146444775Y-90405328D01*
X146444769Y-90405334D01*
X146285334Y-90564769D01*
X146285328Y-90564775D01*
X146281505Y-90568599D01*
X146278403Y-90573028D01*
X146278403Y-90573029D01*
X146151269Y-90754596D01*
X146106951Y-90793461D01*
X146049694Y-90807472D01*
X145992437Y-90793461D01*
X145948119Y-90754595D01*
X145821215Y-90573357D01*
X145814280Y-90565092D01*
X145654909Y-90405721D01*
X145646643Y-90398784D01*
X145462008Y-90269501D01*
X145452676Y-90264113D01*
X145248397Y-90168856D01*
X145238263Y-90165168D01*
X145043780Y-90113056D01*
X145032551Y-90112688D01*
X145030000Y-90123631D01*
X145030000Y-91566000D01*
X145013387Y-91628000D01*
X144968000Y-91673387D01*
X144906000Y-91690000D01*
X144654000Y-91690000D01*
X144592000Y-91673387D01*
X144546613Y-91628000D01*
X144530000Y-91566000D01*
X144530000Y-90123631D01*
X144527448Y-90112688D01*
X144516219Y-90113056D01*
X144321736Y-90165168D01*
X144311602Y-90168856D01*
X144107332Y-90264110D01*
X144097982Y-90269508D01*
X143913357Y-90398784D01*
X143905092Y-90405719D01*
X143745719Y-90565092D01*
X143738788Y-90573352D01*
X143611880Y-90754596D01*
X143567562Y-90793461D01*
X143510305Y-90807472D01*
X143453048Y-90793461D01*
X143408730Y-90754595D01*
X143408425Y-90754159D01*
X143278495Y-90568599D01*
X143111401Y-90401505D01*
X143106968Y-90398401D01*
X143106966Y-90398399D01*
X142922259Y-90269066D01*
X142922257Y-90269064D01*
X142917830Y-90265965D01*
X142912933Y-90263681D01*
X142912927Y-90263678D01*
X142708572Y-90168386D01*
X142708570Y-90168385D01*
X142703663Y-90166097D01*
X142698438Y-90164697D01*
X142698430Y-90164694D01*
X142480634Y-90106337D01*
X142480630Y-90106336D01*
X142475408Y-90104937D01*
X142470020Y-90104465D01*
X142470017Y-90104465D01*
X142245395Y-90084813D01*
X142240000Y-90084341D01*
X142234605Y-90084813D01*
X142009982Y-90104465D01*
X142009977Y-90104465D01*
X142004592Y-90104937D01*
X141999371Y-90106335D01*
X141999365Y-90106337D01*
X141781569Y-90164694D01*
X141781557Y-90164698D01*
X141776337Y-90166097D01*
X141771432Y-90168383D01*
X141771427Y-90168386D01*
X141567081Y-90263675D01*
X141567077Y-90263677D01*
X141562171Y-90265965D01*
X141557738Y-90269068D01*
X141557731Y-90269073D01*
X141373034Y-90398399D01*
X141373032Y-90398401D01*
X141368599Y-90401505D01*
X141364775Y-90405328D01*
X141364769Y-90405334D01*
X141205334Y-90564769D01*
X141205328Y-90564775D01*
X141201505Y-90568599D01*
X141198402Y-90573029D01*
X141198399Y-90573034D01*
X141071575Y-90754159D01*
X141027257Y-90793025D01*
X140970000Y-90807036D01*
X140912743Y-90793025D01*
X140868425Y-90754159D01*
X140857327Y-90738310D01*
X140738495Y-90568599D01*
X140571401Y-90401505D01*
X140566968Y-90398401D01*
X140566961Y-90398395D01*
X140519980Y-90365499D01*
X140480656Y-90320293D01*
X140467119Y-90261927D01*
X140482529Y-90204027D01*
X140522388Y-90161080D01*
X140523509Y-90160474D01*
X140719744Y-90007738D01*
X140888164Y-89824785D01*
X141024173Y-89616607D01*
X141124063Y-89388881D01*
X141185108Y-89147821D01*
X141205643Y-88900000D01*
X141185108Y-88652179D01*
X141124063Y-88411119D01*
X141024173Y-88183393D01*
X140888164Y-87975215D01*
X140719744Y-87792262D01*
X140523509Y-87639526D01*
X140518997Y-87637084D01*
X140309316Y-87523610D01*
X140309310Y-87523607D01*
X140304810Y-87521172D01*
X140299969Y-87519510D01*
X140299962Y-87519507D01*
X140074465Y-87442094D01*
X140074461Y-87442093D01*
X140069614Y-87440429D01*
X140060768Y-87438952D01*
X139829398Y-87400344D01*
X139829387Y-87400343D01*
X139824335Y-87399500D01*
X139575665Y-87399500D01*
X139570613Y-87400343D01*
X139570601Y-87400344D01*
X139335443Y-87439585D01*
X139335441Y-87439585D01*
X139330386Y-87440429D01*
X139325541Y-87442092D01*
X139325534Y-87442094D01*
X139100037Y-87519507D01*
X139100026Y-87519511D01*
X139095190Y-87521172D01*
X139090693Y-87523605D01*
X139090683Y-87523610D01*
X138881002Y-87637084D01*
X138880995Y-87637088D01*
X138876491Y-87639526D01*
X138872448Y-87642672D01*
X138872440Y-87642678D01*
X138684304Y-87789111D01*
X138680256Y-87792262D01*
X138676793Y-87796023D01*
X138676784Y-87796032D01*
X138515311Y-87971439D01*
X138515305Y-87971446D01*
X138511836Y-87975215D01*
X138509031Y-87979506D01*
X138509028Y-87979512D01*
X138378631Y-88179099D01*
X138378624Y-88179111D01*
X138375827Y-88183393D01*
X138373772Y-88188077D01*
X138373766Y-88188089D01*
X138277997Y-88406422D01*
X138275937Y-88411119D01*
X138274679Y-88416084D01*
X138274678Y-88416089D01*
X138216151Y-88647204D01*
X138216149Y-88647213D01*
X138214892Y-88652179D01*
X138214468Y-88657288D01*
X138214467Y-88657298D01*
X138194781Y-88894883D01*
X138194357Y-88900000D01*
X138194781Y-88905117D01*
X138214467Y-89142701D01*
X138214468Y-89142709D01*
X138214892Y-89147821D01*
X138216149Y-89152788D01*
X138216151Y-89152795D01*
X138268863Y-89360948D01*
X138275937Y-89388881D01*
X138277997Y-89393577D01*
X138373766Y-89611910D01*
X138373769Y-89611916D01*
X138375827Y-89616607D01*
X138378627Y-89620893D01*
X138378631Y-89620900D01*
X138506675Y-89816885D01*
X138511836Y-89824785D01*
X138515310Y-89828559D01*
X138515311Y-89828560D01*
X138676784Y-90003967D01*
X138676787Y-90003970D01*
X138680256Y-90007738D01*
X138876491Y-90160474D01*
X138877614Y-90161081D01*
X138917472Y-90204031D01*
X138932880Y-90261929D01*
X138919343Y-90320293D01*
X138880021Y-90365498D01*
X138833329Y-90398192D01*
X138828599Y-90401505D01*
X138824775Y-90405328D01*
X138824769Y-90405334D01*
X138665334Y-90564769D01*
X138665328Y-90564775D01*
X138661505Y-90568599D01*
X138658402Y-90573029D01*
X138658399Y-90573034D01*
X138531575Y-90754159D01*
X138487257Y-90793025D01*
X138430000Y-90807036D01*
X138372743Y-90793025D01*
X138328425Y-90754159D01*
X138317327Y-90738310D01*
X138198495Y-90568599D01*
X138031401Y-90401505D01*
X138026968Y-90398401D01*
X138026966Y-90398399D01*
X137842259Y-90269066D01*
X137842257Y-90269064D01*
X137837830Y-90265965D01*
X137832933Y-90263681D01*
X137832927Y-90263678D01*
X137628572Y-90168386D01*
X137628570Y-90168385D01*
X137623663Y-90166097D01*
X137618438Y-90164697D01*
X137618430Y-90164694D01*
X137400634Y-90106337D01*
X137400630Y-90106336D01*
X137395408Y-90104937D01*
X137390020Y-90104465D01*
X137390017Y-90104465D01*
X137165395Y-90084813D01*
X137160000Y-90084341D01*
X137154605Y-90084813D01*
X136929982Y-90104465D01*
X136929977Y-90104465D01*
X136924592Y-90104937D01*
X136919371Y-90106335D01*
X136919365Y-90106337D01*
X136701569Y-90164694D01*
X136701557Y-90164698D01*
X136696337Y-90166097D01*
X136691432Y-90168383D01*
X136691427Y-90168386D01*
X136487081Y-90263675D01*
X136487077Y-90263677D01*
X136482171Y-90265965D01*
X136477738Y-90269068D01*
X136477731Y-90269073D01*
X136293034Y-90398399D01*
X136293032Y-90398401D01*
X136288599Y-90401505D01*
X136284775Y-90405328D01*
X136284769Y-90405334D01*
X136125334Y-90564769D01*
X136125328Y-90564775D01*
X136121505Y-90568599D01*
X136118402Y-90573029D01*
X136118399Y-90573034D01*
X135991575Y-90754159D01*
X135947257Y-90793025D01*
X135890000Y-90807036D01*
X135832743Y-90793025D01*
X135788425Y-90754159D01*
X135777327Y-90738310D01*
X135658495Y-90568599D01*
X135491401Y-90401505D01*
X135486968Y-90398401D01*
X135486966Y-90398399D01*
X135302259Y-90269066D01*
X135302257Y-90269064D01*
X135297830Y-90265965D01*
X135292933Y-90263681D01*
X135292927Y-90263678D01*
X135088572Y-90168386D01*
X135088570Y-90168385D01*
X135083663Y-90166097D01*
X135078438Y-90164697D01*
X135078430Y-90164694D01*
X134860634Y-90106337D01*
X134860630Y-90106336D01*
X134855408Y-90104937D01*
X134850020Y-90104465D01*
X134850017Y-90104465D01*
X134625395Y-90084813D01*
X134620000Y-90084341D01*
X134614605Y-90084813D01*
X134389982Y-90104465D01*
X134389977Y-90104465D01*
X134384592Y-90104937D01*
X134379371Y-90106335D01*
X134379365Y-90106337D01*
X134161569Y-90164694D01*
X134161557Y-90164698D01*
X134156337Y-90166097D01*
X134151432Y-90168383D01*
X134151427Y-90168386D01*
X133947081Y-90263675D01*
X133947077Y-90263677D01*
X133942171Y-90265965D01*
X133937738Y-90269068D01*
X133937731Y-90269073D01*
X133753034Y-90398399D01*
X133753032Y-90398401D01*
X133748599Y-90401505D01*
X133744775Y-90405328D01*
X133744769Y-90405334D01*
X133585334Y-90564769D01*
X133585328Y-90564775D01*
X133581505Y-90568599D01*
X133578402Y-90573029D01*
X133578399Y-90573034D01*
X133451575Y-90754159D01*
X133407257Y-90793025D01*
X133350000Y-90807036D01*
X133292743Y-90793025D01*
X133248425Y-90754159D01*
X133237327Y-90738310D01*
X133118495Y-90568599D01*
X132951401Y-90401505D01*
X132946968Y-90398401D01*
X132946966Y-90398399D01*
X132762259Y-90269066D01*
X132762257Y-90269064D01*
X132757830Y-90265965D01*
X132752933Y-90263681D01*
X132752927Y-90263678D01*
X132548572Y-90168386D01*
X132548570Y-90168385D01*
X132543663Y-90166097D01*
X132538438Y-90164697D01*
X132538430Y-90164694D01*
X132320634Y-90106337D01*
X132320630Y-90106336D01*
X132315408Y-90104937D01*
X132310020Y-90104465D01*
X132310017Y-90104465D01*
X132085395Y-90084813D01*
X132080000Y-90084341D01*
X132074605Y-90084813D01*
X131849982Y-90104465D01*
X131849977Y-90104465D01*
X131844592Y-90104937D01*
X131839371Y-90106335D01*
X131839365Y-90106337D01*
X131621569Y-90164694D01*
X131621557Y-90164698D01*
X131616337Y-90166097D01*
X131611432Y-90168383D01*
X131611427Y-90168386D01*
X131407081Y-90263675D01*
X131407077Y-90263677D01*
X131402171Y-90265965D01*
X131397738Y-90269068D01*
X131397731Y-90269073D01*
X131213034Y-90398399D01*
X131213032Y-90398401D01*
X131208599Y-90401505D01*
X131204775Y-90405328D01*
X131204769Y-90405334D01*
X131045334Y-90564769D01*
X131045328Y-90564775D01*
X131041505Y-90568599D01*
X131038402Y-90573029D01*
X131038399Y-90573034D01*
X130911575Y-90754159D01*
X130867257Y-90793025D01*
X130810000Y-90807036D01*
X130752743Y-90793025D01*
X130708425Y-90754159D01*
X130697327Y-90738310D01*
X130578495Y-90568599D01*
X130411401Y-90401505D01*
X130406968Y-90398401D01*
X130406966Y-90398399D01*
X130222259Y-90269066D01*
X130222257Y-90269064D01*
X130217830Y-90265965D01*
X130212933Y-90263681D01*
X130212927Y-90263678D01*
X130008572Y-90168386D01*
X130008570Y-90168385D01*
X130003663Y-90166097D01*
X129998438Y-90164697D01*
X129998430Y-90164694D01*
X129780634Y-90106337D01*
X129780630Y-90106336D01*
X129775408Y-90104937D01*
X129770020Y-90104465D01*
X129770017Y-90104465D01*
X129545395Y-90084813D01*
X129540000Y-90084341D01*
X129534605Y-90084813D01*
X129309982Y-90104465D01*
X129309977Y-90104465D01*
X129304592Y-90104937D01*
X129299371Y-90106335D01*
X129299365Y-90106337D01*
X129081569Y-90164694D01*
X129081557Y-90164698D01*
X129076337Y-90166097D01*
X129071432Y-90168383D01*
X129071427Y-90168386D01*
X128867081Y-90263675D01*
X128867077Y-90263677D01*
X128862171Y-90265965D01*
X128857738Y-90269068D01*
X128857731Y-90269073D01*
X128673034Y-90398399D01*
X128673032Y-90398401D01*
X128668599Y-90401505D01*
X128664775Y-90405328D01*
X128664769Y-90405334D01*
X128505334Y-90564769D01*
X128505328Y-90564775D01*
X128501505Y-90568599D01*
X128498402Y-90573029D01*
X128498399Y-90573034D01*
X128371575Y-90754159D01*
X128327257Y-90793025D01*
X128270000Y-90807036D01*
X128212743Y-90793025D01*
X128168425Y-90754159D01*
X128157327Y-90738310D01*
X128038495Y-90568599D01*
X127871401Y-90401505D01*
X127866968Y-90398401D01*
X127866966Y-90398399D01*
X127682259Y-90269066D01*
X127682257Y-90269064D01*
X127677830Y-90265965D01*
X127672933Y-90263681D01*
X127672927Y-90263678D01*
X127468572Y-90168386D01*
X127468570Y-90168385D01*
X127463663Y-90166097D01*
X127458438Y-90164697D01*
X127458430Y-90164694D01*
X127240634Y-90106337D01*
X127240630Y-90106336D01*
X127235408Y-90104937D01*
X127230020Y-90104465D01*
X127230017Y-90104465D01*
X127005395Y-90084813D01*
X127000000Y-90084341D01*
X126994605Y-90084813D01*
X126769982Y-90104465D01*
X126769977Y-90104465D01*
X126764592Y-90104937D01*
X126759371Y-90106335D01*
X126759365Y-90106337D01*
X126541569Y-90164694D01*
X126541557Y-90164698D01*
X126536337Y-90166097D01*
X126531432Y-90168383D01*
X126531427Y-90168386D01*
X126327081Y-90263675D01*
X126327077Y-90263677D01*
X126322171Y-90265965D01*
X126317738Y-90269068D01*
X126317731Y-90269073D01*
X126133034Y-90398399D01*
X126133032Y-90398401D01*
X126128599Y-90401505D01*
X126124775Y-90405328D01*
X126124769Y-90405334D01*
X125965334Y-90564769D01*
X125965328Y-90564775D01*
X125961505Y-90568599D01*
X125958402Y-90573029D01*
X125958399Y-90573034D01*
X125831575Y-90754159D01*
X125787257Y-90793025D01*
X125730000Y-90807036D01*
X125672743Y-90793025D01*
X125628425Y-90754159D01*
X125617327Y-90738310D01*
X125498495Y-90568599D01*
X125331401Y-90401505D01*
X125326968Y-90398401D01*
X125326966Y-90398399D01*
X125142259Y-90269066D01*
X125142257Y-90269064D01*
X125137830Y-90265965D01*
X125132933Y-90263681D01*
X125132927Y-90263678D01*
X124928572Y-90168386D01*
X124928570Y-90168385D01*
X124923663Y-90166097D01*
X124918438Y-90164697D01*
X124918430Y-90164694D01*
X124700634Y-90106337D01*
X124700630Y-90106336D01*
X124695408Y-90104937D01*
X124690020Y-90104465D01*
X124690017Y-90104465D01*
X124465395Y-90084813D01*
X124460000Y-90084341D01*
X124454605Y-90084813D01*
X124229982Y-90104465D01*
X124229977Y-90104465D01*
X124224592Y-90104937D01*
X124219371Y-90106335D01*
X124219365Y-90106337D01*
X124001569Y-90164694D01*
X124001557Y-90164698D01*
X123996337Y-90166097D01*
X123991432Y-90168383D01*
X123991427Y-90168386D01*
X123787081Y-90263675D01*
X123787077Y-90263677D01*
X123782171Y-90265965D01*
X123777738Y-90269068D01*
X123777731Y-90269073D01*
X123593034Y-90398399D01*
X123593032Y-90398401D01*
X123588599Y-90401505D01*
X123584775Y-90405328D01*
X123584775Y-90405329D01*
X123466673Y-90523431D01*
X123413926Y-90554726D01*
X123352633Y-90556915D01*
X123297789Y-90529462D01*
X123262810Y-90479082D01*
X123235304Y-90405336D01*
X123213796Y-90347669D01*
X123127546Y-90232454D01*
X123089572Y-90204027D01*
X123019431Y-90151519D01*
X123019430Y-90151518D01*
X123012331Y-90146204D01*
X122905442Y-90106337D01*
X122884752Y-90098620D01*
X122884750Y-90098619D01*
X122877483Y-90095909D01*
X122869770Y-90095079D01*
X122869767Y-90095079D01*
X122821180Y-90089855D01*
X122821169Y-90089854D01*
X122817873Y-90089500D01*
X122814550Y-90089500D01*
X121025439Y-90089500D01*
X121025420Y-90089500D01*
X121022128Y-90089501D01*
X121018850Y-90089853D01*
X121018838Y-90089854D01*
X120970231Y-90095079D01*
X120970225Y-90095080D01*
X120962517Y-90095909D01*
X120955252Y-90098618D01*
X120955246Y-90098620D01*
X120835980Y-90143104D01*
X120835978Y-90143104D01*
X120827669Y-90146204D01*
X120820572Y-90151516D01*
X120820568Y-90151519D01*
X120719550Y-90227141D01*
X120719546Y-90227144D01*
X120712454Y-90232454D01*
X120707144Y-90239546D01*
X120707141Y-90239550D01*
X120631519Y-90340568D01*
X120631516Y-90340572D01*
X120626204Y-90347669D01*
X120623104Y-90355978D01*
X120623104Y-90355980D01*
X120578620Y-90475247D01*
X120578619Y-90475250D01*
X120575909Y-90482517D01*
X120575079Y-90490227D01*
X120575079Y-90490232D01*
X120569855Y-90538819D01*
X120569854Y-90538831D01*
X120569500Y-90542127D01*
X120569500Y-90545448D01*
X120569500Y-90545449D01*
X120569500Y-92334560D01*
X120569500Y-92334578D01*
X120569501Y-92337872D01*
X120569853Y-92341150D01*
X120569854Y-92341161D01*
X120575079Y-92389768D01*
X120575080Y-92389773D01*
X120575909Y-92397483D01*
X120578619Y-92404749D01*
X120578620Y-92404753D01*
X120623103Y-92524018D01*
X120624910Y-92528862D01*
X120624911Y-92528865D01*
X120626204Y-92532331D01*
X120625800Y-92532481D01*
X120639373Y-92587712D01*
X120622035Y-92648773D01*
X120576753Y-92693254D01*
X120515393Y-92709500D01*
X85224607Y-92709500D01*
X85163247Y-92693254D01*
X85117965Y-92648773D01*
X85100627Y-92587712D01*
X85114199Y-92532481D01*
X85113796Y-92532331D01*
X85114240Y-92531140D01*
X85164091Y-92397483D01*
X85170500Y-92337873D01*
X85170499Y-90542128D01*
X85164091Y-90482517D01*
X85113796Y-90347669D01*
X85027546Y-90232454D01*
X84989572Y-90204027D01*
X84919431Y-90151519D01*
X84919430Y-90151518D01*
X84912331Y-90146204D01*
X84805442Y-90106337D01*
X84784752Y-90098620D01*
X84784750Y-90098619D01*
X84777483Y-90095909D01*
X84769770Y-90095079D01*
X84769767Y-90095079D01*
X84721180Y-90089855D01*
X84721169Y-90089854D01*
X84717873Y-90089500D01*
X84714550Y-90089500D01*
X82925439Y-90089500D01*
X82925420Y-90089500D01*
X82922128Y-90089501D01*
X82918850Y-90089853D01*
X82918838Y-90089854D01*
X82870231Y-90095079D01*
X82870225Y-90095080D01*
X82862517Y-90095909D01*
X82855252Y-90098618D01*
X82855246Y-90098620D01*
X82735981Y-90143103D01*
X82735976Y-90143105D01*
X82731139Y-90144909D01*
X82731134Y-90144911D01*
X82727669Y-90146204D01*
X82727518Y-90145800D01*
X82672288Y-90159373D01*
X82611227Y-90142035D01*
X82566746Y-90096753D01*
X82550500Y-90035393D01*
X82550500Y-79673897D01*
X82566047Y-79613780D01*
X82608791Y-79568739D01*
X82668012Y-79550067D01*
X82728860Y-79562447D01*
X82776076Y-79602775D01*
X82778783Y-79606641D01*
X82785721Y-79614909D01*
X82945090Y-79774278D01*
X82953356Y-79781215D01*
X83137991Y-79910498D01*
X83147323Y-79915886D01*
X83351602Y-80011143D01*
X83361736Y-80014831D01*
X83556219Y-80066943D01*
X83567448Y-80067311D01*
X83570000Y-80056369D01*
X84070000Y-80056369D01*
X84072551Y-80067311D01*
X84083780Y-80066943D01*
X84278263Y-80014831D01*
X84288397Y-80011143D01*
X84492676Y-79915886D01*
X84502008Y-79910498D01*
X84686643Y-79781215D01*
X84694909Y-79774278D01*
X84854278Y-79614909D01*
X84861215Y-79606643D01*
X84990498Y-79422008D01*
X84995886Y-79412676D01*
X85091143Y-79208397D01*
X85094831Y-79198263D01*
X85146943Y-79003780D01*
X85147311Y-78992551D01*
X85136369Y-78990000D01*
X84086326Y-78990000D01*
X84073450Y-78993450D01*
X84070000Y-79006326D01*
X84070000Y-80056369D01*
X83570000Y-80056369D01*
X83570000Y-78614000D01*
X83586613Y-78552000D01*
X83632000Y-78506613D01*
X83694000Y-78490000D01*
X85136369Y-78490000D01*
X85147311Y-78487448D01*
X85146943Y-78476219D01*
X85144473Y-78467000D01*
X145525540Y-78467000D01*
X145526219Y-78473460D01*
X145544646Y-78648795D01*
X145544647Y-78648803D01*
X145545326Y-78655256D01*
X145547331Y-78661428D01*
X145547333Y-78661435D01*
X145601813Y-78829105D01*
X145603821Y-78835284D01*
X145607068Y-78840908D01*
X145607069Y-78840910D01*
X145666942Y-78944614D01*
X145698467Y-78999216D01*
X145702811Y-79004041D01*
X145702813Y-79004043D01*
X145820779Y-79135057D01*
X145825129Y-79139888D01*
X145830387Y-79143708D01*
X145830388Y-79143709D01*
X145844917Y-79154265D01*
X145978270Y-79251151D01*
X146151197Y-79328144D01*
X146216335Y-79341989D01*
X146249714Y-79354303D01*
X146278228Y-79375596D01*
X146660181Y-79757549D01*
X146687061Y-79797777D01*
X146696500Y-79845230D01*
X146696500Y-81742679D01*
X146679887Y-81804679D01*
X146623069Y-81903089D01*
X146623066Y-81903094D01*
X146619821Y-81908716D01*
X146617815Y-81914888D01*
X146617813Y-81914894D01*
X146563333Y-82082564D01*
X146563331Y-82082573D01*
X146561326Y-82088744D01*
X146560648Y-82095194D01*
X146560646Y-82095204D01*
X146549130Y-82204785D01*
X146541540Y-82277000D01*
X146542219Y-82283460D01*
X146560646Y-82458795D01*
X146560647Y-82458803D01*
X146561326Y-82465256D01*
X146563331Y-82471428D01*
X146563333Y-82471435D01*
X146586559Y-82542915D01*
X146619821Y-82645284D01*
X146623068Y-82650908D01*
X146623069Y-82650910D01*
X146674257Y-82739571D01*
X146714467Y-82809216D01*
X146841129Y-82949888D01*
X146994270Y-83061151D01*
X147167197Y-83138144D01*
X147352354Y-83177500D01*
X147535143Y-83177500D01*
X147541646Y-83177500D01*
X147726803Y-83138144D01*
X147899730Y-83061151D01*
X148052871Y-82949888D01*
X148179533Y-82809216D01*
X148274179Y-82645284D01*
X148332674Y-82465256D01*
X148352460Y-82277000D01*
X148332674Y-82088744D01*
X148274179Y-81908716D01*
X148214112Y-81804678D01*
X148197500Y-81742679D01*
X148197500Y-81280000D01*
X166134357Y-81280000D01*
X166134781Y-81285117D01*
X166154467Y-81522701D01*
X166154468Y-81522709D01*
X166154892Y-81527821D01*
X166156149Y-81532788D01*
X166156151Y-81532795D01*
X166209302Y-81742679D01*
X166215937Y-81768881D01*
X166217997Y-81773577D01*
X166313766Y-81991910D01*
X166313769Y-81991916D01*
X166315827Y-81996607D01*
X166318627Y-82000893D01*
X166318631Y-82000900D01*
X166380243Y-82095204D01*
X166451836Y-82204785D01*
X166455310Y-82208559D01*
X166455311Y-82208560D01*
X166616784Y-82383967D01*
X166616787Y-82383970D01*
X166620256Y-82387738D01*
X166816491Y-82540474D01*
X167035190Y-82658828D01*
X167270386Y-82739571D01*
X167515665Y-82780500D01*
X167759201Y-82780500D01*
X167764335Y-82780500D01*
X168009614Y-82739571D01*
X168244810Y-82658828D01*
X168463509Y-82540474D01*
X168659744Y-82387738D01*
X168828164Y-82204785D01*
X168964173Y-81996607D01*
X169064063Y-81768881D01*
X169125108Y-81527821D01*
X169145643Y-81280000D01*
X169125108Y-81032179D01*
X169064063Y-80791119D01*
X168964173Y-80563393D01*
X168828164Y-80355215D01*
X168659744Y-80172262D01*
X168510845Y-80056369D01*
X168467559Y-80022678D01*
X168467557Y-80022676D01*
X168463509Y-80019526D01*
X168458997Y-80017084D01*
X168249316Y-79903610D01*
X168249310Y-79903607D01*
X168244810Y-79901172D01*
X168239969Y-79899510D01*
X168239962Y-79899507D01*
X168014465Y-79822094D01*
X168014461Y-79822093D01*
X168009614Y-79820429D01*
X168000768Y-79818952D01*
X167769398Y-79780344D01*
X167769387Y-79780343D01*
X167764335Y-79779500D01*
X167515665Y-79779500D01*
X167510613Y-79780343D01*
X167510601Y-79780344D01*
X167275443Y-79819585D01*
X167275441Y-79819585D01*
X167270386Y-79820429D01*
X167265541Y-79822092D01*
X167265534Y-79822094D01*
X167040037Y-79899507D01*
X167040026Y-79899511D01*
X167035190Y-79901172D01*
X167030693Y-79903605D01*
X167030683Y-79903610D01*
X166821002Y-80017084D01*
X166820995Y-80017088D01*
X166816491Y-80019526D01*
X166812448Y-80022672D01*
X166812440Y-80022678D01*
X166655787Y-80144607D01*
X166620256Y-80172262D01*
X166616793Y-80176023D01*
X166616784Y-80176032D01*
X166455311Y-80351439D01*
X166455305Y-80351446D01*
X166451836Y-80355215D01*
X166449031Y-80359506D01*
X166449028Y-80359512D01*
X166318631Y-80559099D01*
X166318624Y-80559111D01*
X166315827Y-80563393D01*
X166313772Y-80568077D01*
X166313766Y-80568089D01*
X166217997Y-80786422D01*
X166215937Y-80791119D01*
X166214679Y-80796084D01*
X166214678Y-80796089D01*
X166156151Y-81027204D01*
X166156149Y-81027213D01*
X166154892Y-81032179D01*
X166154468Y-81037288D01*
X166154467Y-81037298D01*
X166134781Y-81274883D01*
X166134357Y-81280000D01*
X148197500Y-81280000D01*
X148197500Y-79546707D01*
X148198809Y-79528736D01*
X148199297Y-79525396D01*
X148202289Y-79504977D01*
X148197972Y-79455631D01*
X148197500Y-79444824D01*
X148197500Y-79442901D01*
X148197500Y-79439291D01*
X148193903Y-79408520D01*
X148193536Y-79404929D01*
X148188698Y-79349624D01*
X148186999Y-79330203D01*
X148184726Y-79323345D01*
X148184027Y-79319957D01*
X148183972Y-79319619D01*
X148183878Y-79319286D01*
X148183079Y-79315915D01*
X148182241Y-79308745D01*
X148156591Y-79238273D01*
X148155408Y-79234868D01*
X148134084Y-79170517D01*
X148131814Y-79163666D01*
X148128023Y-79157520D01*
X148126559Y-79154379D01*
X148126430Y-79154069D01*
X148126261Y-79153765D01*
X148124709Y-79150675D01*
X148122237Y-79143883D01*
X148081019Y-79081215D01*
X148079087Y-79078181D01*
X148039712Y-79014344D01*
X148034604Y-79009236D01*
X148032459Y-79006523D01*
X148032257Y-79006244D01*
X148032022Y-79005987D01*
X148029796Y-79003334D01*
X148025830Y-78997304D01*
X147971290Y-78945848D01*
X147968703Y-78943335D01*
X147343770Y-78318402D01*
X147313521Y-78269041D01*
X147258179Y-78098716D01*
X147163533Y-77934784D01*
X147111707Y-77877226D01*
X147041220Y-77798942D01*
X147041219Y-77798941D01*
X147036871Y-77794112D01*
X147031613Y-77790292D01*
X147031611Y-77790290D01*
X146888988Y-77686669D01*
X146888987Y-77686668D01*
X146883730Y-77682849D01*
X146877792Y-77680205D01*
X146716745Y-77608501D01*
X146716740Y-77608499D01*
X146710803Y-77605856D01*
X146704444Y-77604504D01*
X146704440Y-77604503D01*
X146532008Y-77567852D01*
X146532005Y-77567851D01*
X146525646Y-77566500D01*
X146336354Y-77566500D01*
X146329995Y-77567851D01*
X146329991Y-77567852D01*
X146157559Y-77604503D01*
X146157552Y-77604505D01*
X146151197Y-77605856D01*
X146145262Y-77608498D01*
X146145254Y-77608501D01*
X145984207Y-77680205D01*
X145984202Y-77680207D01*
X145978270Y-77682849D01*
X145973016Y-77686665D01*
X145973011Y-77686669D01*
X145830388Y-77790290D01*
X145830381Y-77790295D01*
X145825129Y-77794112D01*
X145820784Y-77798937D01*
X145820779Y-77798942D01*
X145702813Y-77929956D01*
X145702808Y-77929962D01*
X145698467Y-77934784D01*
X145695222Y-77940404D01*
X145695218Y-77940410D01*
X145607069Y-78093089D01*
X145607066Y-78093094D01*
X145603821Y-78098716D01*
X145601815Y-78104888D01*
X145601813Y-78104894D01*
X145547333Y-78272564D01*
X145547331Y-78272573D01*
X145545326Y-78278744D01*
X145544648Y-78285194D01*
X145544646Y-78285204D01*
X145526962Y-78453464D01*
X145525540Y-78467000D01*
X85144473Y-78467000D01*
X85094831Y-78281736D01*
X85091143Y-78271602D01*
X84995889Y-78067332D01*
X84990491Y-78057982D01*
X84861215Y-77873357D01*
X84854280Y-77865092D01*
X84694909Y-77705721D01*
X84686643Y-77698784D01*
X84505405Y-77571880D01*
X84466540Y-77527562D01*
X84452529Y-77470305D01*
X84466540Y-77413048D01*
X84505406Y-77368730D01*
X84593045Y-77307365D01*
X84691401Y-77238495D01*
X84858495Y-77071401D01*
X84994035Y-76877830D01*
X85093903Y-76663663D01*
X85155063Y-76435408D01*
X85175659Y-76200000D01*
X85155063Y-75964592D01*
X85093903Y-75736337D01*
X84994035Y-75522171D01*
X84858495Y-75328599D01*
X84736569Y-75206673D01*
X84705273Y-75153927D01*
X84703084Y-75092634D01*
X84730537Y-75037789D01*
X84780916Y-75002810D01*
X84912331Y-74953796D01*
X85027546Y-74867546D01*
X85113796Y-74752331D01*
X85164091Y-74617483D01*
X85170500Y-74557873D01*
X85170499Y-72762128D01*
X85164091Y-72702517D01*
X85113796Y-72567669D01*
X85027546Y-72452454D01*
X84944118Y-72390000D01*
X114410540Y-72390000D01*
X114411219Y-72396460D01*
X114429646Y-72571795D01*
X114429647Y-72571803D01*
X114430326Y-72578256D01*
X114432331Y-72584428D01*
X114432333Y-72584435D01*
X114478081Y-72725231D01*
X114488821Y-72758284D01*
X114492068Y-72763908D01*
X114492069Y-72763910D01*
X114510800Y-72796354D01*
X114583467Y-72922216D01*
X114710129Y-73062888D01*
X114863270Y-73174151D01*
X115036197Y-73251144D01*
X115101335Y-73264989D01*
X115134714Y-73277303D01*
X115163228Y-73298596D01*
X118975228Y-77110595D01*
X119005478Y-77159957D01*
X119032005Y-77241600D01*
X119060821Y-77330284D01*
X119064068Y-77335908D01*
X119064069Y-77335910D01*
X119141662Y-77470306D01*
X119155467Y-77494216D01*
X119159811Y-77499041D01*
X119159813Y-77499043D01*
X119220552Y-77566500D01*
X119282129Y-77634888D01*
X119287387Y-77638708D01*
X119287388Y-77638709D01*
X119311160Y-77655980D01*
X119435270Y-77746151D01*
X119608197Y-77823144D01*
X119793354Y-77862500D01*
X119976143Y-77862500D01*
X119982646Y-77862500D01*
X120167803Y-77823144D01*
X120340730Y-77746151D01*
X120493871Y-77634888D01*
X120620533Y-77494216D01*
X120715179Y-77330284D01*
X120773674Y-77150256D01*
X120793460Y-76962000D01*
X120773674Y-76773744D01*
X120715179Y-76593716D01*
X120620533Y-76429784D01*
X120493871Y-76289112D01*
X120488613Y-76285292D01*
X120488611Y-76285290D01*
X120345988Y-76181669D01*
X120345987Y-76181668D01*
X120340730Y-76177849D01*
X120334792Y-76175205D01*
X120173745Y-76103501D01*
X120173740Y-76103499D01*
X120167803Y-76100856D01*
X120149661Y-76097000D01*
X120102668Y-76087011D01*
X120069282Y-76074694D01*
X120040769Y-76053402D01*
X116228770Y-72241402D01*
X116198521Y-72192041D01*
X116143179Y-72021716D01*
X116048533Y-71857784D01*
X115921871Y-71717112D01*
X115916613Y-71713292D01*
X115916611Y-71713290D01*
X115773988Y-71609669D01*
X115773987Y-71609668D01*
X115768730Y-71605849D01*
X115762792Y-71603205D01*
X115601745Y-71531501D01*
X115601740Y-71531499D01*
X115595803Y-71528856D01*
X115589444Y-71527504D01*
X115589440Y-71527503D01*
X115417008Y-71490852D01*
X115417005Y-71490851D01*
X115410646Y-71489500D01*
X115221354Y-71489500D01*
X115214995Y-71490851D01*
X115214991Y-71490852D01*
X115042559Y-71527503D01*
X115042552Y-71527505D01*
X115036197Y-71528856D01*
X115030262Y-71531498D01*
X115030254Y-71531501D01*
X114869207Y-71603205D01*
X114869202Y-71603207D01*
X114863270Y-71605849D01*
X114858016Y-71609665D01*
X114858011Y-71609669D01*
X114715388Y-71713290D01*
X114715381Y-71713295D01*
X114710129Y-71717112D01*
X114705784Y-71721937D01*
X114705779Y-71721942D01*
X114587813Y-71852956D01*
X114587808Y-71852962D01*
X114583467Y-71857784D01*
X114580222Y-71863404D01*
X114580218Y-71863410D01*
X114492069Y-72016089D01*
X114492066Y-72016094D01*
X114488821Y-72021716D01*
X114486815Y-72027888D01*
X114486813Y-72027894D01*
X114432333Y-72195564D01*
X114432331Y-72195573D01*
X114430326Y-72201744D01*
X114429648Y-72208194D01*
X114429646Y-72208204D01*
X114418963Y-72309854D01*
X114410540Y-72390000D01*
X84944118Y-72390000D01*
X84937030Y-72384694D01*
X84919431Y-72371519D01*
X84919430Y-72371518D01*
X84912331Y-72366204D01*
X84805442Y-72326337D01*
X84784752Y-72318620D01*
X84784750Y-72318619D01*
X84777483Y-72315909D01*
X84769770Y-72315079D01*
X84769767Y-72315079D01*
X84721180Y-72309855D01*
X84721169Y-72309854D01*
X84717873Y-72309500D01*
X84714550Y-72309500D01*
X82925439Y-72309500D01*
X82925420Y-72309500D01*
X82922128Y-72309501D01*
X82918850Y-72309853D01*
X82918838Y-72309854D01*
X82870231Y-72315079D01*
X82870225Y-72315080D01*
X82862517Y-72315909D01*
X82855252Y-72318618D01*
X82855246Y-72318620D01*
X82735981Y-72363103D01*
X82735976Y-72363105D01*
X82731139Y-72364909D01*
X82731134Y-72364911D01*
X82727669Y-72366204D01*
X82727518Y-72365800D01*
X82672288Y-72379373D01*
X82611227Y-72362035D01*
X82566746Y-72316753D01*
X82550500Y-72255393D01*
X82550500Y-68361000D01*
X150478540Y-68361000D01*
X150479219Y-68367460D01*
X150497646Y-68542795D01*
X150497647Y-68542803D01*
X150498326Y-68549256D01*
X150500331Y-68555428D01*
X150500333Y-68555435D01*
X150553712Y-68719716D01*
X150556821Y-68729284D01*
X150651467Y-68893216D01*
X150778129Y-69033888D01*
X150931270Y-69145151D01*
X151104197Y-69222144D01*
X151289354Y-69261500D01*
X151383548Y-69261500D01*
X151431001Y-69270939D01*
X151471229Y-69297819D01*
X152985038Y-70811629D01*
X153009278Y-70845927D01*
X153020678Y-70886348D01*
X153036091Y-71032998D01*
X153038326Y-71054256D01*
X153040331Y-71060428D01*
X153040333Y-71060435D01*
X153094813Y-71228105D01*
X153096821Y-71234284D01*
X153191467Y-71398216D01*
X153318129Y-71538888D01*
X153471270Y-71650151D01*
X153644197Y-71727144D01*
X153829354Y-71766500D01*
X154012143Y-71766500D01*
X154018646Y-71766500D01*
X154203803Y-71727144D01*
X154376730Y-71650151D01*
X154529871Y-71538888D01*
X154656533Y-71398216D01*
X154751179Y-71234284D01*
X154809674Y-71054256D01*
X154816870Y-70985787D01*
X154838000Y-70928513D01*
X154883899Y-70888263D01*
X154943442Y-70874792D01*
X154994771Y-70889270D01*
X154995270Y-70888151D01*
X155168197Y-70965144D01*
X155353354Y-71004500D01*
X155536143Y-71004500D01*
X155542646Y-71004500D01*
X155727803Y-70965144D01*
X155900730Y-70888151D01*
X156053871Y-70776888D01*
X156059601Y-70770523D01*
X156061271Y-70769310D01*
X156063050Y-70767709D01*
X156063218Y-70767895D01*
X156101315Y-70740219D01*
X156151748Y-70729500D01*
X160958225Y-70729500D01*
X160969280Y-70730021D01*
X160976667Y-70731673D01*
X161043872Y-70729561D01*
X161047768Y-70729500D01*
X161071448Y-70729500D01*
X161075350Y-70729500D01*
X161079313Y-70728999D01*
X161090963Y-70728080D01*
X161134627Y-70726709D01*
X161153861Y-70721119D01*
X161172917Y-70717174D01*
X161192792Y-70714664D01*
X161233395Y-70698587D01*
X161244450Y-70694802D01*
X161286390Y-70682618D01*
X161303629Y-70672422D01*
X161321103Y-70663862D01*
X161332474Y-70659360D01*
X161332476Y-70659358D01*
X161339732Y-70656486D01*
X161375069Y-70630811D01*
X161384824Y-70624403D01*
X161422420Y-70602170D01*
X161436584Y-70588005D01*
X161451379Y-70575368D01*
X161467587Y-70563594D01*
X161495428Y-70529938D01*
X161503279Y-70521309D01*
X161982771Y-70041817D01*
X162042501Y-70008691D01*
X162110712Y-70012218D01*
X162190386Y-70039571D01*
X162435665Y-70080500D01*
X162679201Y-70080500D01*
X162684335Y-70080500D01*
X162929614Y-70039571D01*
X163164810Y-69958828D01*
X163383509Y-69840474D01*
X163579744Y-69687738D01*
X163748164Y-69504785D01*
X163884173Y-69296607D01*
X163984063Y-69068881D01*
X164045108Y-68827821D01*
X164065643Y-68580000D01*
X166134357Y-68580000D01*
X166134781Y-68585117D01*
X166154467Y-68822701D01*
X166154468Y-68822709D01*
X166154892Y-68827821D01*
X166156149Y-68832788D01*
X166156151Y-68832795D01*
X166208043Y-69037709D01*
X166215937Y-69068881D01*
X166217997Y-69073577D01*
X166313766Y-69291910D01*
X166313769Y-69291916D01*
X166315827Y-69296607D01*
X166318627Y-69300893D01*
X166318631Y-69300900D01*
X166401268Y-69427385D01*
X166451836Y-69504785D01*
X166455310Y-69508559D01*
X166455311Y-69508560D01*
X166616784Y-69683967D01*
X166616787Y-69683970D01*
X166620256Y-69687738D01*
X166816491Y-69840474D01*
X167035190Y-69958828D01*
X167270386Y-70039571D01*
X167515665Y-70080500D01*
X167759201Y-70080500D01*
X167764335Y-70080500D01*
X168009614Y-70039571D01*
X168244810Y-69958828D01*
X168463509Y-69840474D01*
X168659744Y-69687738D01*
X168828164Y-69504785D01*
X168964173Y-69296607D01*
X169064063Y-69068881D01*
X169125108Y-68827821D01*
X169145643Y-68580000D01*
X169125108Y-68332179D01*
X169064063Y-68091119D01*
X168964173Y-67863393D01*
X168828164Y-67655215D01*
X168824688Y-67651439D01*
X168663215Y-67476032D01*
X168663211Y-67476029D01*
X168659744Y-67472262D01*
X168463509Y-67319526D01*
X168458997Y-67317084D01*
X168249316Y-67203610D01*
X168249310Y-67203607D01*
X168244810Y-67201172D01*
X168239969Y-67199510D01*
X168239962Y-67199507D01*
X168014465Y-67122094D01*
X168014461Y-67122093D01*
X168009614Y-67120429D01*
X168000768Y-67118952D01*
X167769398Y-67080344D01*
X167769387Y-67080343D01*
X167764335Y-67079500D01*
X167515665Y-67079500D01*
X167510613Y-67080343D01*
X167510601Y-67080344D01*
X167275443Y-67119585D01*
X167275441Y-67119585D01*
X167270386Y-67120429D01*
X167265541Y-67122092D01*
X167265534Y-67122094D01*
X167040037Y-67199507D01*
X167040026Y-67199511D01*
X167035190Y-67201172D01*
X167030693Y-67203605D01*
X167030683Y-67203610D01*
X166821002Y-67317084D01*
X166820995Y-67317088D01*
X166816491Y-67319526D01*
X166812448Y-67322672D01*
X166812440Y-67322678D01*
X166624304Y-67469111D01*
X166620256Y-67472262D01*
X166616793Y-67476023D01*
X166616784Y-67476032D01*
X166455311Y-67651439D01*
X166455305Y-67651446D01*
X166451836Y-67655215D01*
X166449031Y-67659506D01*
X166449028Y-67659512D01*
X166318631Y-67859099D01*
X166318624Y-67859111D01*
X166315827Y-67863393D01*
X166313772Y-67868077D01*
X166313766Y-67868089D01*
X166217997Y-68086422D01*
X166215937Y-68091119D01*
X166214679Y-68096084D01*
X166214678Y-68096089D01*
X166156151Y-68327204D01*
X166156149Y-68327213D01*
X166154892Y-68332179D01*
X166154468Y-68337288D01*
X166154467Y-68337298D01*
X166136364Y-68555784D01*
X166134357Y-68580000D01*
X164065643Y-68580000D01*
X164045108Y-68332179D01*
X163984063Y-68091119D01*
X163884173Y-67863393D01*
X163748164Y-67655215D01*
X163744688Y-67651439D01*
X163583215Y-67476032D01*
X163583211Y-67476029D01*
X163579744Y-67472262D01*
X163383509Y-67319526D01*
X163378997Y-67317084D01*
X163169316Y-67203610D01*
X163169310Y-67203607D01*
X163164810Y-67201172D01*
X163159969Y-67199510D01*
X163159962Y-67199507D01*
X162934465Y-67122094D01*
X162934461Y-67122093D01*
X162929614Y-67120429D01*
X162920768Y-67118952D01*
X162689398Y-67080344D01*
X162689387Y-67080343D01*
X162684335Y-67079500D01*
X162435665Y-67079500D01*
X162430613Y-67080343D01*
X162430601Y-67080344D01*
X162195443Y-67119585D01*
X162195441Y-67119585D01*
X162190386Y-67120429D01*
X162185541Y-67122092D01*
X162185534Y-67122094D01*
X161960037Y-67199507D01*
X161960026Y-67199511D01*
X161955190Y-67201172D01*
X161950693Y-67203605D01*
X161950683Y-67203610D01*
X161741002Y-67317084D01*
X161740995Y-67317088D01*
X161736491Y-67319526D01*
X161732448Y-67322672D01*
X161732440Y-67322678D01*
X161544304Y-67469111D01*
X161540256Y-67472262D01*
X161536793Y-67476023D01*
X161536784Y-67476032D01*
X161375311Y-67651439D01*
X161375305Y-67651446D01*
X161371836Y-67655215D01*
X161369031Y-67659506D01*
X161369028Y-67659512D01*
X161238631Y-67859099D01*
X161238624Y-67859111D01*
X161235827Y-67863393D01*
X161233772Y-67868077D01*
X161233766Y-67868089D01*
X161137997Y-68086422D01*
X161135937Y-68091119D01*
X161134679Y-68096084D01*
X161134678Y-68096089D01*
X161076151Y-68327204D01*
X161076149Y-68327213D01*
X161074892Y-68332179D01*
X161074468Y-68337288D01*
X161074467Y-68337298D01*
X161056364Y-68555784D01*
X161054357Y-68580000D01*
X161054781Y-68585117D01*
X161074467Y-68822701D01*
X161074468Y-68822709D01*
X161074892Y-68827821D01*
X161076149Y-68832788D01*
X161076151Y-68832795D01*
X161128863Y-69040948D01*
X161128208Y-69104306D01*
X161096338Y-69159069D01*
X160813225Y-69442183D01*
X160773000Y-69469061D01*
X160725547Y-69478500D01*
X157708632Y-69478500D01*
X157652337Y-69464985D01*
X157608314Y-69427385D01*
X157586159Y-69373897D01*
X157590700Y-69316183D01*
X157603674Y-69276256D01*
X157623460Y-69088000D01*
X157603674Y-68899744D01*
X157545179Y-68719716D01*
X157450533Y-68555784D01*
X157432556Y-68535819D01*
X157328220Y-68419942D01*
X157328219Y-68419941D01*
X157323871Y-68415112D01*
X157318613Y-68411292D01*
X157318611Y-68411290D01*
X157175988Y-68307669D01*
X157175987Y-68307668D01*
X157170730Y-68303849D01*
X157164792Y-68301205D01*
X157003745Y-68229501D01*
X157003740Y-68229499D01*
X156997803Y-68226856D01*
X156991444Y-68225504D01*
X156991440Y-68225503D01*
X156819008Y-68188852D01*
X156819005Y-68188851D01*
X156812646Y-68187500D01*
X156806143Y-68187500D01*
X156753452Y-68187500D01*
X156705999Y-68178061D01*
X156665771Y-68151181D01*
X154608961Y-66094370D01*
X154584721Y-66060072D01*
X154573321Y-66019650D01*
X154569199Y-65980435D01*
X154555674Y-65851744D01*
X154497179Y-65671716D01*
X154402533Y-65507784D01*
X154275871Y-65367112D01*
X154270613Y-65363292D01*
X154270611Y-65363290D01*
X154127988Y-65259669D01*
X154127987Y-65259668D01*
X154122730Y-65255849D01*
X154116792Y-65253205D01*
X153955745Y-65181501D01*
X153955740Y-65181499D01*
X153949803Y-65178856D01*
X153943444Y-65177504D01*
X153943440Y-65177503D01*
X153771008Y-65140852D01*
X153771005Y-65140851D01*
X153764646Y-65139500D01*
X153575354Y-65139500D01*
X153568995Y-65140851D01*
X153568991Y-65140852D01*
X153396559Y-65177503D01*
X153396552Y-65177505D01*
X153390197Y-65178856D01*
X153384262Y-65181498D01*
X153384254Y-65181501D01*
X153223207Y-65253205D01*
X153223202Y-65253207D01*
X153217270Y-65255849D01*
X153212016Y-65259665D01*
X153212011Y-65259669D01*
X153069388Y-65363290D01*
X153069381Y-65363295D01*
X153064129Y-65367112D01*
X153059784Y-65371937D01*
X153059779Y-65371942D01*
X152941813Y-65502956D01*
X152941808Y-65502962D01*
X152937467Y-65507784D01*
X152934222Y-65513404D01*
X152934218Y-65513410D01*
X152846069Y-65666089D01*
X152846066Y-65666094D01*
X152842821Y-65671716D01*
X152840815Y-65677888D01*
X152840813Y-65677894D01*
X152786333Y-65845564D01*
X152786331Y-65845573D01*
X152784326Y-65851744D01*
X152783648Y-65858194D01*
X152783646Y-65858204D01*
X152770800Y-65980435D01*
X152764540Y-66040000D01*
X152765219Y-66046460D01*
X152783646Y-66221795D01*
X152783647Y-66221803D01*
X152784326Y-66228256D01*
X152786331Y-66234428D01*
X152786333Y-66234435D01*
X152815124Y-66323043D01*
X152842821Y-66408284D01*
X152846069Y-66413910D01*
X152846071Y-66413914D01*
X152904005Y-66514260D01*
X152920575Y-66573012D01*
X152907104Y-66632552D01*
X152866855Y-66678449D01*
X152813292Y-66698210D01*
X152813354Y-66698500D01*
X152811359Y-66698923D01*
X152811352Y-66698925D01*
X152807007Y-66699849D01*
X152806998Y-66699850D01*
X152634559Y-66736503D01*
X152634552Y-66736505D01*
X152628197Y-66737856D01*
X152622262Y-66740498D01*
X152622254Y-66740501D01*
X152461207Y-66812205D01*
X152461202Y-66812207D01*
X152455270Y-66814849D01*
X152450016Y-66818665D01*
X152450011Y-66818669D01*
X152307388Y-66922290D01*
X152307381Y-66922295D01*
X152302129Y-66926112D01*
X152297784Y-66930937D01*
X152297779Y-66930942D01*
X152179813Y-67061956D01*
X152179808Y-67061962D01*
X152175467Y-67066784D01*
X152172222Y-67072404D01*
X152172218Y-67072410D01*
X152084069Y-67225089D01*
X152084066Y-67225094D01*
X152080821Y-67230716D01*
X152078815Y-67236888D01*
X152078813Y-67236894D01*
X152024333Y-67404564D01*
X152024331Y-67404573D01*
X152022326Y-67410744D01*
X152021647Y-67417201D01*
X152021647Y-67417203D01*
X152015129Y-67479213D01*
X151993999Y-67536485D01*
X151948103Y-67576735D01*
X151888563Y-67590208D01*
X151837228Y-67575730D01*
X151836730Y-67576849D01*
X151669745Y-67502501D01*
X151669740Y-67502499D01*
X151663803Y-67499856D01*
X151657444Y-67498504D01*
X151657440Y-67498503D01*
X151485008Y-67461852D01*
X151485005Y-67461851D01*
X151478646Y-67460500D01*
X151289354Y-67460500D01*
X151282995Y-67461851D01*
X151282991Y-67461852D01*
X151110559Y-67498503D01*
X151110552Y-67498505D01*
X151104197Y-67499856D01*
X151098262Y-67502498D01*
X151098254Y-67502501D01*
X150937207Y-67574205D01*
X150937202Y-67574207D01*
X150931270Y-67576849D01*
X150926016Y-67580665D01*
X150926011Y-67580669D01*
X150783388Y-67684290D01*
X150783381Y-67684295D01*
X150778129Y-67688112D01*
X150773784Y-67692937D01*
X150773779Y-67692942D01*
X150655813Y-67823956D01*
X150655808Y-67823962D01*
X150651467Y-67828784D01*
X150648222Y-67834404D01*
X150648218Y-67834410D01*
X150560069Y-67987089D01*
X150560066Y-67987094D01*
X150556821Y-67992716D01*
X150554815Y-67998888D01*
X150554813Y-67998894D01*
X150500333Y-68166564D01*
X150500331Y-68166573D01*
X150498326Y-68172744D01*
X150497648Y-68179194D01*
X150497646Y-68179204D01*
X150484145Y-68307669D01*
X150478540Y-68361000D01*
X82550500Y-68361000D01*
X82550500Y-63500000D01*
X128034357Y-63500000D01*
X128034781Y-63505117D01*
X128054467Y-63742701D01*
X128054468Y-63742709D01*
X128054892Y-63747821D01*
X128056149Y-63752788D01*
X128056151Y-63752795D01*
X128069443Y-63805283D01*
X128115937Y-63988881D01*
X128117997Y-63993577D01*
X128213766Y-64211910D01*
X128213769Y-64211916D01*
X128215827Y-64216607D01*
X128218627Y-64220893D01*
X128218631Y-64220900D01*
X128326124Y-64385430D01*
X128351836Y-64424785D01*
X128355310Y-64428559D01*
X128355311Y-64428560D01*
X128516784Y-64603967D01*
X128516787Y-64603970D01*
X128520256Y-64607738D01*
X128716491Y-64760474D01*
X128935190Y-64878828D01*
X129170386Y-64959571D01*
X129415665Y-65000500D01*
X129659201Y-65000500D01*
X129664335Y-65000500D01*
X129909614Y-64959571D01*
X130144810Y-64878828D01*
X130363509Y-64760474D01*
X130559744Y-64607738D01*
X130728164Y-64424785D01*
X130864173Y-64216607D01*
X130871593Y-64199689D01*
X130898683Y-64160620D01*
X130938486Y-64134615D01*
X130985149Y-64125500D01*
X133801548Y-64125500D01*
X133849001Y-64134939D01*
X133889229Y-64161819D01*
X135459038Y-65731629D01*
X135483278Y-65765927D01*
X135494678Y-65806348D01*
X135500493Y-65861671D01*
X135512326Y-65974256D01*
X135514331Y-65980428D01*
X135514333Y-65980435D01*
X135568813Y-66148105D01*
X135570821Y-66154284D01*
X135574068Y-66159908D01*
X135574069Y-66159910D01*
X135613528Y-66228256D01*
X135665467Y-66318216D01*
X135792129Y-66458888D01*
X135945270Y-66570151D01*
X136118197Y-66647144D01*
X136303354Y-66686500D01*
X136486143Y-66686500D01*
X136492646Y-66686500D01*
X136677803Y-66647144D01*
X136850730Y-66570151D01*
X137003871Y-66458888D01*
X137130533Y-66318216D01*
X137225179Y-66154284D01*
X137283674Y-65974256D01*
X137303460Y-65786000D01*
X137283674Y-65597744D01*
X137225179Y-65417716D01*
X137130533Y-65253784D01*
X137003871Y-65113112D01*
X136998613Y-65109292D01*
X136998611Y-65109290D01*
X136855988Y-65005669D01*
X136855987Y-65005668D01*
X136850730Y-65001849D01*
X136844792Y-64999205D01*
X136683745Y-64927501D01*
X136683740Y-64927499D01*
X136677803Y-64924856D01*
X136671444Y-64923504D01*
X136671440Y-64923503D01*
X136499008Y-64886852D01*
X136499005Y-64886851D01*
X136492646Y-64885500D01*
X136486143Y-64885500D01*
X136433453Y-64885500D01*
X136386000Y-64876061D01*
X136345772Y-64849181D01*
X134996591Y-63500000D01*
X167774754Y-63500000D01*
X167793720Y-63801457D01*
X167794447Y-63805269D01*
X167794449Y-63805283D01*
X167849588Y-64094330D01*
X167850319Y-64098160D01*
X167851523Y-64101867D01*
X167851524Y-64101869D01*
X167870613Y-64160620D01*
X167943659Y-64385430D01*
X168072267Y-64658736D01*
X168074349Y-64662017D01*
X168074352Y-64662022D01*
X168232024Y-64910474D01*
X168232028Y-64910480D01*
X168234115Y-64913768D01*
X168236594Y-64916765D01*
X168236598Y-64916770D01*
X168305167Y-64999655D01*
X168426651Y-65146504D01*
X168646838Y-65353274D01*
X168891205Y-65530816D01*
X168894612Y-65532689D01*
X169147499Y-65671716D01*
X169155896Y-65676332D01*
X169436738Y-65787525D01*
X169729302Y-65862642D01*
X170028973Y-65900500D01*
X170327133Y-65900500D01*
X170331027Y-65900500D01*
X170630698Y-65862642D01*
X170923262Y-65787525D01*
X171204104Y-65676332D01*
X171468795Y-65530816D01*
X171713162Y-65353274D01*
X171933349Y-65146504D01*
X172125885Y-64913768D01*
X172287733Y-64658736D01*
X172416341Y-64385430D01*
X172509681Y-64098160D01*
X172566280Y-63801457D01*
X172585246Y-63500000D01*
X172566280Y-63198543D01*
X172509681Y-62901840D01*
X172416341Y-62614570D01*
X172287733Y-62341264D01*
X172223168Y-62239526D01*
X172127975Y-62089525D01*
X172127973Y-62089522D01*
X172125885Y-62086232D01*
X172090963Y-62044019D01*
X171992297Y-61924752D01*
X171933349Y-61853496D01*
X171713162Y-61646726D01*
X171694169Y-61632927D01*
X171471944Y-61471472D01*
X171471945Y-61471472D01*
X171468795Y-61469184D01*
X171465391Y-61467313D01*
X171465387Y-61467310D01*
X171207521Y-61325546D01*
X171207514Y-61325542D01*
X171204104Y-61323668D01*
X171200478Y-61322232D01*
X171200473Y-61322230D01*
X170926890Y-61213911D01*
X170926884Y-61213909D01*
X170923262Y-61212475D01*
X170919484Y-61211505D01*
X170919481Y-61211504D01*
X170634476Y-61138328D01*
X170634475Y-61138327D01*
X170630698Y-61137358D01*
X170626835Y-61136870D01*
X170626830Y-61136869D01*
X170334891Y-61099988D01*
X170334888Y-61099987D01*
X170331027Y-61099500D01*
X170028973Y-61099500D01*
X170025112Y-61099987D01*
X170025108Y-61099988D01*
X169733169Y-61136869D01*
X169733161Y-61136870D01*
X169729302Y-61137358D01*
X169725527Y-61138327D01*
X169725523Y-61138328D01*
X169440518Y-61211504D01*
X169440511Y-61211506D01*
X169436738Y-61212475D01*
X169433120Y-61213907D01*
X169433109Y-61213911D01*
X169159526Y-61322230D01*
X169159515Y-61322234D01*
X169155896Y-61323668D01*
X169152491Y-61325539D01*
X169152478Y-61325546D01*
X168894612Y-61467310D01*
X168894600Y-61467317D01*
X168891205Y-61469184D01*
X168888061Y-61471467D01*
X168888055Y-61471472D01*
X168649994Y-61644432D01*
X168649983Y-61644440D01*
X168646838Y-61646726D01*
X168644003Y-61649387D01*
X168643996Y-61649394D01*
X168429488Y-61850831D01*
X168429481Y-61850838D01*
X168426651Y-61853496D01*
X168424176Y-61856487D01*
X168424172Y-61856492D01*
X168236598Y-62083229D01*
X168236588Y-62083241D01*
X168234115Y-62086232D01*
X168232033Y-62089511D01*
X168232024Y-62089525D01*
X168074352Y-62337977D01*
X168074345Y-62337988D01*
X168072267Y-62341264D01*
X168070614Y-62344774D01*
X168070611Y-62344782D01*
X167962178Y-62575215D01*
X167943659Y-62614570D01*
X167942457Y-62618267D01*
X167942455Y-62618274D01*
X167851677Y-62897660D01*
X167850319Y-62901840D01*
X167849590Y-62905660D01*
X167849588Y-62905669D01*
X167794449Y-63194716D01*
X167794446Y-63194732D01*
X167793720Y-63198543D01*
X167793475Y-63202434D01*
X167793475Y-63202436D01*
X167790023Y-63257298D01*
X167774754Y-63500000D01*
X134996591Y-63500000D01*
X134609286Y-63112695D01*
X134601842Y-63104514D01*
X134597786Y-63098123D01*
X134548775Y-63052098D01*
X134545978Y-63049387D01*
X134529227Y-63032636D01*
X134526471Y-63029880D01*
X134523290Y-63027412D01*
X134514414Y-63019830D01*
X134488269Y-62995278D01*
X134488267Y-62995276D01*
X134482582Y-62989938D01*
X134475749Y-62986182D01*
X134475743Y-62986177D01*
X134465025Y-62980285D01*
X134448766Y-62969606D01*
X134439095Y-62962104D01*
X134439092Y-62962102D01*
X134432936Y-62957327D01*
X134425779Y-62954229D01*
X134425776Y-62954228D01*
X134392849Y-62939978D01*
X134382363Y-62934841D01*
X134350932Y-62917562D01*
X134350923Y-62917558D01*
X134344092Y-62913803D01*
X134336535Y-62911862D01*
X134336531Y-62911861D01*
X134324688Y-62908820D01*
X134306284Y-62902519D01*
X134295057Y-62897660D01*
X134295050Y-62897658D01*
X134287896Y-62894562D01*
X134280192Y-62893341D01*
X134280190Y-62893341D01*
X134244759Y-62887729D01*
X134233324Y-62885361D01*
X134198571Y-62876438D01*
X134198563Y-62876437D01*
X134191019Y-62874500D01*
X134183223Y-62874500D01*
X134170983Y-62874500D01*
X134151597Y-62872974D01*
X134131804Y-62869840D01*
X134124038Y-62870574D01*
X134124035Y-62870574D01*
X134088324Y-62873950D01*
X134076655Y-62874500D01*
X130985149Y-62874500D01*
X130938486Y-62865385D01*
X130898683Y-62839380D01*
X130871593Y-62800310D01*
X130864173Y-62783393D01*
X130728164Y-62575215D01*
X130559744Y-62392262D01*
X130432328Y-62293090D01*
X130367559Y-62242678D01*
X130367557Y-62242676D01*
X130363509Y-62239526D01*
X130358997Y-62237084D01*
X130149316Y-62123610D01*
X130149310Y-62123607D01*
X130144810Y-62121172D01*
X130139969Y-62119510D01*
X130139962Y-62119507D01*
X129914465Y-62042094D01*
X129914461Y-62042093D01*
X129909614Y-62040429D01*
X129900768Y-62038952D01*
X129669398Y-62000344D01*
X129669387Y-62000343D01*
X129664335Y-61999500D01*
X129415665Y-61999500D01*
X129410613Y-62000343D01*
X129410601Y-62000344D01*
X129175443Y-62039585D01*
X129175441Y-62039585D01*
X129170386Y-62040429D01*
X129165541Y-62042092D01*
X129165534Y-62042094D01*
X128940037Y-62119507D01*
X128940026Y-62119511D01*
X128935190Y-62121172D01*
X128930693Y-62123605D01*
X128930683Y-62123610D01*
X128721002Y-62237084D01*
X128720995Y-62237088D01*
X128716491Y-62239526D01*
X128712448Y-62242672D01*
X128712440Y-62242678D01*
X128581258Y-62344782D01*
X128520256Y-62392262D01*
X128516793Y-62396023D01*
X128516784Y-62396032D01*
X128355311Y-62571439D01*
X128355305Y-62571446D01*
X128351836Y-62575215D01*
X128349031Y-62579506D01*
X128349028Y-62579512D01*
X128218631Y-62779099D01*
X128218624Y-62779111D01*
X128215827Y-62783393D01*
X128213772Y-62788077D01*
X128213766Y-62788089D01*
X128117997Y-63006422D01*
X128115937Y-63011119D01*
X128114679Y-63016084D01*
X128114678Y-63016089D01*
X128056151Y-63247204D01*
X128056149Y-63247213D01*
X128054892Y-63252179D01*
X128054468Y-63257288D01*
X128054467Y-63257298D01*
X128034781Y-63494883D01*
X128034357Y-63500000D01*
X82550500Y-63500000D01*
X82550500Y-62364607D01*
X82566746Y-62303247D01*
X82611227Y-62257965D01*
X82672288Y-62240627D01*
X82727518Y-62254199D01*
X82727669Y-62253796D01*
X82862517Y-62304091D01*
X82922127Y-62310500D01*
X84717872Y-62310499D01*
X84777483Y-62304091D01*
X84912331Y-62253796D01*
X85027546Y-62167546D01*
X85113796Y-62052331D01*
X85164091Y-61917483D01*
X85170500Y-61857873D01*
X85170499Y-60062128D01*
X85164091Y-60002517D01*
X85113796Y-59867669D01*
X85113796Y-59867668D01*
X85114199Y-59867518D01*
X85100627Y-59812288D01*
X85117965Y-59751227D01*
X85163247Y-59706746D01*
X85224607Y-59690500D01*
X138765231Y-59690500D01*
X138825348Y-59706047D01*
G37*
%TD.AperFunction*%
%TD*%
M02*
