%TF.SameCoordinates,Original*%
%TF.FileFunction,Paste,Top*%
%TF.FilePolarity,Positive*%
%FSLAX46Y46*%
G04 Gerber Fmt 4.6, Leading zero omitted, Abs format (unit mm)*
G04 Created by KiCad (PCBNEW (7.0.0)) date 2023-11-17 04:09:28*
%MOMM*%
%LPD*%
G01*
G04 APERTURE LIST*
G04 Aperture macros list*
%AMRoundRect*
0 Rectangle with rounded corners*
0 $1 Rounding radius*
0 $2 $3 $4 $5 $6 $7 $8 $9 X,Y pos of 4 corners*
0 Add a 4 corners polygon primitive as box body*
4,1,4,$2,$3,$4,$5,$6,$7,$8,$9,$2,$3,0*
0 Add four circle primitives for the rounded corners*
1,1,$1+$1,$2,$3*
1,1,$1+$1,$4,$5*
1,1,$1+$1,$6,$7*
1,1,$1+$1,$8,$9*
0 Add four rect primitives between the rounded corners*
20,1,$1+$1,$2,$3,$4,$5,0*
20,1,$1+$1,$4,$5,$6,$7,0*
20,1,$1+$1,$6,$7,$8,$9,0*
20,1,$1+$1,$8,$9,$2,$3,0*%
G04 Aperture macros list end*
%ADD10RoundRect,0.287550X0.462450X0.387450X-0.462450X0.387450X-0.462450X-0.387450X0.462450X-0.387450X0*%
%ADD11R,0.600000X1.500000*%
%ADD12R,0.750000X1.500000*%
%ADD13RoundRect,0.287550X0.387450X-0.462450X0.387450X0.462450X-0.387450X0.462450X-0.387450X-0.462450X0*%
%ADD14RoundRect,0.287550X-0.462450X-0.387450X0.462450X-0.387450X0.462450X0.387450X-0.462450X0.387450X0*%
%ADD15RoundRect,0.280800X0.469200X0.394200X-0.469200X0.394200X-0.469200X-0.394200X0.469200X-0.394200X0*%
%ADD16R,1.650000X0.600000*%
%ADD17R,1.650000X0.450000*%
%ADD18RoundRect,0.280800X-0.469200X-0.394200X0.469200X-0.394200X0.469200X0.394200X-0.469200X0.394200X0*%
%ADD19R,3.000000X1.000000*%
%ADD20R,0.700000X2.000000*%
%ADD21R,0.300000X2.000000*%
%ADD22RoundRect,0.287550X-0.387450X0.462450X-0.387450X-0.462450X0.387450X-0.462450X0.387450X0.462450X0*%
%ADD23R,0.700000X2.150000*%
G04 APERTURE END LIST*
D10*
%TO.C,C6*%
X151568000Y-77578000D03*
X149168000Y-77578000D03*
%TD*%
D11*
%TO.C,U4*%
X134497999Y-69709999D03*
X135447999Y-69709999D03*
X136397999Y-69709999D03*
D12*
X136397999Y-67309999D03*
X134497999Y-67309999D03*
%TD*%
D13*
%TO.C,C9*%
X131064000Y-69596000D03*
X131064000Y-67196000D03*
%TD*%
D14*
%TO.C,C7*%
X149238000Y-85842000D03*
X151638000Y-85842000D03*
%TD*%
D15*
%TO.C,R2*%
X151638000Y-80254000D03*
X149238000Y-80254000D03*
%TD*%
D14*
%TO.C,C3*%
X129426000Y-82794000D03*
X131826000Y-82794000D03*
%TD*%
D13*
%TO.C,C2*%
X135636000Y-77146000D03*
X135636000Y-74746000D03*
%TD*%
D16*
%TO.C,U1*%
X135621999Y-80219999D03*
D17*
X135621999Y-80944999D03*
X135621999Y-81594999D03*
D16*
X135621999Y-82319999D03*
X140221999Y-82319999D03*
D17*
X140221999Y-81594999D03*
X140221999Y-80944999D03*
D16*
X140221999Y-80219999D03*
%TD*%
D18*
%TO.C,R1*%
X129426000Y-80000000D03*
X131826000Y-80000000D03*
%TD*%
D19*
%TO.C,SW1*%
X111107999Y-88391999D03*
X111107999Y-85851999D03*
X102107999Y-85851999D03*
X102107999Y-88391999D03*
%TD*%
D15*
%TO.C,R4*%
X141662000Y-74676000D03*
X139262000Y-74676000D03*
%TD*%
D20*
%TO.C,U2*%
X146233999Y-80643999D03*
D21*
X145533999Y-80643999D03*
X145033999Y-80643999D03*
X144533999Y-80643999D03*
D20*
X143833999Y-80643999D03*
X143833999Y-84943999D03*
D21*
X144533999Y-84943999D03*
X145033999Y-84943999D03*
X145533999Y-84943999D03*
D20*
X146233999Y-84943999D03*
%TD*%
D22*
%TO.C,C1*%
X125730000Y-75000000D03*
X125730000Y-77400000D03*
%TD*%
D19*
%TO.C,SW2*%
X111179999Y-80263999D03*
X111179999Y-77723999D03*
X102179999Y-77723999D03*
X102179999Y-80263999D03*
%TD*%
D18*
%TO.C,R3*%
X144596000Y-74676000D03*
X146996000Y-74676000D03*
%TD*%
D23*
%TO.C,U3*%
X141096999Y-71189999D03*
X142366999Y-71189999D03*
X143636999Y-71189999D03*
X144906999Y-71189999D03*
X146176999Y-71189999D03*
X147446999Y-71189999D03*
X148716999Y-71189999D03*
X149986999Y-71189999D03*
X149986999Y-66039999D03*
X148716999Y-66039999D03*
X147446999Y-66039999D03*
X146176999Y-66039999D03*
X144906999Y-66039999D03*
X143636999Y-66039999D03*
X142366999Y-66039999D03*
X141096999Y-66039999D03*
%TD*%
D22*
%TO.C,C5*%
X110490000Y-67380000D03*
X110490000Y-69780000D03*
%TD*%
D14*
%TO.C,C8*%
X142056000Y-77216000D03*
X144456000Y-77216000D03*
%TD*%
%TO.C,C4*%
X149238000Y-83048000D03*
X151638000Y-83048000D03*
%TD*%
M02*
