M48
; DRILL file {KiCad (7.0.0)} date Fri Nov 17 04:09:32 2023
; FORMAT={-:-/ absolute / inch / decimal}
; #@! TF.CreationDate,2023-11-17T04:09:32-08:00
; #@! TF.GenerationSoftware,Kicad,Pcbnew,(7.0.0)
; #@! TF.FileFunction,Plated,1,2,PTH
FMAT,2
INCH
; #@! TA.AperFunction,Plated,PTH,ViaDrill
T1C0.0157
; #@! TA.AperFunction,Plated,PTH,ComponentDrill
T2C0.0394
; #@! TA.AperFunction,Plated,PTH,ComponentDrill
T3C0.0866
%
G90
G05
T1
X3.3Y-2.5
X3.3Y-2.6
X3.3Y-2.7
X3.3Y-2.8
X3.3Y-3.2
X3.3Y-3.3
X3.3Y-3.4
X3.3Y-3.5
X3.4Y-2.4
X3.4Y-3.3
X3.4Y-3.6
X3.5Y-2.4
X3.5Y-2.85
X3.5Y-3.3
X3.5Y-3.6
X3.6Y-2.4
X3.6Y-2.85
X3.6Y-3.3
X3.6Y-3.6
X3.7Y-2.4
X3.7Y-2.85
X3.7Y-3.3
X3.7Y-3.6
X3.8Y-2.4
X3.8Y-2.85
X3.8Y-3.3
X3.8Y-3.6
X3.9Y-2.4
X3.9Y-2.85
X3.9Y-3.3
X3.9Y-3.6
X4.0Y-2.4
X4.0Y-2.85
X4.0Y-3.6
X4.1Y-2.4
X4.1Y-2.85
X4.1Y-3.6
X4.2Y-2.4
X4.2Y-2.85
X4.2Y-3.6
X4.3Y-2.4
X4.3Y-2.85
X4.3Y-3.6
X4.4Y-2.4
X4.4Y-2.85
X4.4Y-3.6
X4.5Y-2.4
X4.5Y-3.11
X4.5Y-3.27
X4.5Y-3.43
X4.5Y-3.6
X4.54Y-2.85
X4.6Y-2.4
X4.6Y-3.6
X4.7Y-2.4
X4.7Y-2.85
X4.72Y-3.03
X4.8Y-2.4
X4.8Y-2.85
X4.8Y-3.305
X4.9Y-2.4
X4.9Y-2.85
X5.0Y-2.4
X5.0Y-2.85
X5.05Y-3.5
X5.095Y-3.055
X5.1Y-2.4
X5.1Y-2.85
X5.15Y-3.5
X5.2Y-2.4
X5.2Y-2.85
X5.25Y-3.5
X5.28Y-2.59
X5.3Y-2.4
X5.3Y-3.39
X5.37Y-2.59
X5.395Y-3.5
X5.4Y-3.39
X5.43Y-3.1996
X5.46Y-2.65
X5.46Y-2.78
X5.46Y-3.04
X5.49Y-2.52
X5.5Y-3.39
X5.553Y-2.454
X5.6Y-3.1743
X5.6Y-3.39
X5.64Y-3.515
X5.654Y-2.471
X5.66Y-2.7
X5.735Y-3.49
X5.753Y-2.471
X5.765Y-3.0893
X5.805Y-3.2393
X5.815Y-3.3193
X5.853Y-2.471
X5.92Y-3.44
X5.96Y-2.6914
X5.97Y-2.97
X6.019Y-2.471
X6.02Y-2.6614
X6.02Y-3.47
X6.05Y-2.6
X6.06Y-2.79
X6.12Y-2.76
X6.17Y-2.72
X6.2Y-2.4
X6.2Y-3.0
X6.2Y-3.1
X6.2Y-3.2
X6.2Y-3.3
X6.2Y-3.4
X6.2Y-3.5
X6.3Y-2.4
X6.4Y-2.4
X6.5Y-2.4
X6.5Y-2.95
X6.5Y-3.06
X6.5Y-3.3
X6.6Y-2.4
X6.8Y-2.4
X6.8Y-2.6
X6.8Y-2.7
X6.8Y-2.8
X6.8Y-3.3
X6.8Y-3.4
X6.8Y-3.5
X6.8Y-3.6
T2
X3.3Y-2.4
X3.3Y-2.9
X3.3Y-3.0
X3.3Y-3.1
X3.3Y-3.6
X4.8Y-3.6
X4.9Y-3.6
X5.0Y-3.6
X5.1Y-2.5
X5.1Y-3.6
X5.2Y-3.6
X5.3Y-3.6
X5.4Y-3.6
X5.5Y-2.4
X5.5Y-3.5
X5.5Y-3.6
X5.6Y-2.4
X5.6Y-3.6
X5.7Y-2.4
X5.7Y-3.6
X5.8Y-2.4
X5.8Y-3.6
X5.9Y-2.4
X5.9Y-3.6
X6.0Y-2.4
X6.0Y-3.6
X6.4Y-2.7
X6.4Y-3.5
X6.6Y-2.7
X6.6Y-3.2
X6.6Y-3.5
X6.8Y-2.9
X6.8Y-3.0
X6.8Y-3.1
T3
X6.7Y-2.5
T0
M30
