%TF.SameCoordinates,Original*%
%TF.FileFunction,Legend,Bot*%
%TF.FilePolarity,Positive*%
%FSLAX46Y46*%
G04 Gerber Fmt 4.6, Leading zero omitted, Abs format (unit mm)*
G04 Created by KiCad (PCBNEW (7.0.0)) date 2023-11-11 01:00:00*
%MOMM*%
%LPD*%
G01*
G04 APERTURE LIST*
%ADD10C,0.100000*%
%ADD11C,0.150000*%
%ADD12C,0.120000*%
G04 APERTURE END LIST*
D10*
%TO.C,U1*%
X130646714Y-96513810D02*
X130684809Y-96475714D01*
X130684809Y-96475714D02*
X130722904Y-96361429D01*
X130722904Y-96361429D02*
X130722904Y-96285238D01*
X130722904Y-96285238D02*
X130684809Y-96170952D01*
X130684809Y-96170952D02*
X130608619Y-96094762D01*
X130608619Y-96094762D02*
X130532428Y-96056667D01*
X130532428Y-96056667D02*
X130380047Y-96018571D01*
X130380047Y-96018571D02*
X130265761Y-96018571D01*
X130265761Y-96018571D02*
X130113380Y-96056667D01*
X130113380Y-96056667D02*
X130037190Y-96094762D01*
X130037190Y-96094762D02*
X129961000Y-96170952D01*
X129961000Y-96170952D02*
X129922904Y-96285238D01*
X129922904Y-96285238D02*
X129922904Y-96361429D01*
X129922904Y-96361429D02*
X129961000Y-96475714D01*
X129961000Y-96475714D02*
X129999095Y-96513810D01*
X130722904Y-96856667D02*
X129922904Y-96856667D01*
X129922904Y-96856667D02*
X130722904Y-97313810D01*
X130722904Y-97313810D02*
X129922904Y-97313810D01*
X130341952Y-97847143D02*
X130722904Y-97847143D01*
X129922904Y-97580476D02*
X130341952Y-97847143D01*
X130341952Y-97847143D02*
X129922904Y-98113809D01*
X129922904Y-98304285D02*
X129922904Y-98837619D01*
X129922904Y-98837619D02*
X130722904Y-98494761D01*
X129922904Y-99294762D02*
X129922904Y-99370952D01*
X129922904Y-99370952D02*
X129961000Y-99447143D01*
X129961000Y-99447143D02*
X129999095Y-99485238D01*
X129999095Y-99485238D02*
X130075285Y-99523333D01*
X130075285Y-99523333D02*
X130227666Y-99561428D01*
X130227666Y-99561428D02*
X130418142Y-99561428D01*
X130418142Y-99561428D02*
X130570523Y-99523333D01*
X130570523Y-99523333D02*
X130646714Y-99485238D01*
X130646714Y-99485238D02*
X130684809Y-99447143D01*
X130684809Y-99447143D02*
X130722904Y-99370952D01*
X130722904Y-99370952D02*
X130722904Y-99294762D01*
X130722904Y-99294762D02*
X130684809Y-99218571D01*
X130684809Y-99218571D02*
X130646714Y-99180476D01*
X130646714Y-99180476D02*
X130570523Y-99142381D01*
X130570523Y-99142381D02*
X130418142Y-99104285D01*
X130418142Y-99104285D02*
X130227666Y-99104285D01*
X130227666Y-99104285D02*
X130075285Y-99142381D01*
X130075285Y-99142381D02*
X129999095Y-99180476D01*
X129999095Y-99180476D02*
X129961000Y-99218571D01*
X129961000Y-99218571D02*
X129922904Y-99294762D01*
D11*
%TO.C,R1*%
X124989535Y-97664999D02*
X124632392Y-97414999D01*
X124989535Y-97236428D02*
X124239535Y-97236428D01*
X124239535Y-97236428D02*
X124239535Y-97522142D01*
X124239535Y-97522142D02*
X124275250Y-97593571D01*
X124275250Y-97593571D02*
X124310964Y-97629285D01*
X124310964Y-97629285D02*
X124382392Y-97664999D01*
X124382392Y-97664999D02*
X124489535Y-97664999D01*
X124489535Y-97664999D02*
X124560964Y-97629285D01*
X124560964Y-97629285D02*
X124596678Y-97593571D01*
X124596678Y-97593571D02*
X124632392Y-97522142D01*
X124632392Y-97522142D02*
X124632392Y-97236428D01*
X124989535Y-98379285D02*
X124989535Y-97950714D01*
X124989535Y-98164999D02*
X124239535Y-98164999D01*
X124239535Y-98164999D02*
X124346678Y-98093571D01*
X124346678Y-98093571D02*
X124418107Y-98022142D01*
X124418107Y-98022142D02*
X124453821Y-97950714D01*
%TO.C,R2*%
X128037535Y-97664999D02*
X127680392Y-97414999D01*
X128037535Y-97236428D02*
X127287535Y-97236428D01*
X127287535Y-97236428D02*
X127287535Y-97522142D01*
X127287535Y-97522142D02*
X127323250Y-97593571D01*
X127323250Y-97593571D02*
X127358964Y-97629285D01*
X127358964Y-97629285D02*
X127430392Y-97664999D01*
X127430392Y-97664999D02*
X127537535Y-97664999D01*
X127537535Y-97664999D02*
X127608964Y-97629285D01*
X127608964Y-97629285D02*
X127644678Y-97593571D01*
X127644678Y-97593571D02*
X127680392Y-97522142D01*
X127680392Y-97522142D02*
X127680392Y-97236428D01*
X127358964Y-97950714D02*
X127323250Y-97986428D01*
X127323250Y-97986428D02*
X127287535Y-98057857D01*
X127287535Y-98057857D02*
X127287535Y-98236428D01*
X127287535Y-98236428D02*
X127323250Y-98307857D01*
X127323250Y-98307857D02*
X127358964Y-98343571D01*
X127358964Y-98343571D02*
X127430392Y-98379285D01*
X127430392Y-98379285D02*
X127501821Y-98379285D01*
X127501821Y-98379285D02*
X127608964Y-98343571D01*
X127608964Y-98343571D02*
X128037535Y-97914999D01*
X128037535Y-97914999D02*
X128037535Y-98379285D01*
D12*
%TO.C,U1*%
X138090000Y-101420000D02*
X130890000Y-101420000D01*
X138090000Y-96520000D02*
X138090000Y-101420000D01*
X130890000Y-101420000D02*
X130890000Y-94220000D01*
X130890000Y-94220000D02*
X135890000Y-94220000D01*
%TO.C,R1*%
X126817000Y-97562936D02*
X126817000Y-98017064D01*
X125347000Y-97562936D02*
X125347000Y-98017064D01*
%TO.C,R2*%
X129767000Y-97562936D02*
X129767000Y-98017064D01*
X128297000Y-97562936D02*
X128297000Y-98017064D01*
%TD*%
M02*
