%TF.SameCoordinates,Original*%
%TF.FileFunction,Copper,L2,Bot*%
%TF.FilePolarity,Positive*%
%FSLAX46Y46*%
G04 Gerber Fmt 4.6, Leading zero omitted, Abs format (unit mm)*
G04 Created by KiCad (PCBNEW (7.0.0)) date 2023-11-11 01:00:00*
%MOMM*%
%LPD*%
G01*
G04 APERTURE LIST*
G04 Aperture macros list*
%AMRoundRect*
0 Rectangle with rounded corners*
0 $1 Rounding radius*
0 $2 $3 $4 $5 $6 $7 $8 $9 X,Y pos of 4 corners*
0 Add a 4 corners polygon primitive as box body*
4,1,4,$2,$3,$4,$5,$6,$7,$8,$9,$2,$3,0*
0 Add four circle primitives for the rounded corners*
1,1,$1+$1,$2,$3*
1,1,$1+$1,$4,$5*
1,1,$1+$1,$6,$7*
1,1,$1+$1,$8,$9*
0 Add four rect primitives between the rounded corners*
20,1,$1+$1,$2,$3,$4,$5,0*
20,1,$1+$1,$4,$5,$6,$7,0*
20,1,$1+$1,$6,$7,$8,$9,0*
20,1,$1+$1,$8,$9,$2,$3,0*%
G04 Aperture macros list end*
%TA.AperFunction,ComponentPad*%
%ADD10R,1.700000X1.700000*%
%TD*%
%TA.AperFunction,ComponentPad*%
%ADD11O,1.700000X1.700000*%
%TD*%
%TA.AperFunction,ComponentPad*%
%ADD12C,3.900000*%
%TD*%
%TA.AperFunction,ConnectorPad*%
%ADD13C,7.000000*%
%TD*%
%TA.AperFunction,ComponentPad*%
%ADD14RoundRect,0.249600X0.550400X0.550400X-0.550400X0.550400X-0.550400X-0.550400X0.550400X-0.550400X0*%
%TD*%
%TA.AperFunction,ComponentPad*%
%ADD15C,1.600000*%
%TD*%
%TA.AperFunction,SMDPad,CuDef*%
%ADD16RoundRect,0.291200X-0.408800X0.708800X-0.408800X-0.708800X0.408800X-0.708800X0.408800X0.708800X0*%
%TD*%
%TA.AperFunction,ViaPad*%
%ADD17C,0.800000*%
%TD*%
%TA.AperFunction,Conductor*%
%ADD18C,0.250000*%
%TD*%
G04 APERTURE END LIST*
D10*
%TO.P,J0,1,Pin_1*%
%TO.N,Net-(J0-Pin_1)*%
X122935999Y-100314999D03*
D11*
%TO.P,J0,2,Pin_2*%
%TO.N,GND*%
X122935999Y-97774999D03*
%TO.P,J0,3,Pin_3*%
%TO.N,Net-(J0-Pin_3)*%
X122935999Y-95234999D03*
%TD*%
D12*
%TO.P,H0,1*%
%TO.N,N/C*%
X105410000Y-97790000D03*
D13*
X105410000Y-97790000D03*
%TD*%
D14*
%TO.P,U1,1,A*%
%TO.N,Net-(J0-Pin_1)*%
X135890000Y-96520000D03*
D15*
%TO.P,U1,2,K*%
%TO.N,Net-(U1-K)*%
X135890000Y-99060000D03*
%TO.P,U1,3,C*%
%TO.N,Net-(J0-Pin_1)*%
X133090000Y-99060000D03*
%TO.P,U1,4,E*%
%TO.N,Net-(J0-Pin_3)*%
X133090000Y-96520000D03*
%TD*%
D16*
%TO.P,R1,1*%
%TO.N,Net-(R1-Pad1)*%
X126082000Y-96390000D03*
%TO.P,R1,2*%
%TO.N,GND*%
X126082000Y-99190000D03*
%TD*%
%TO.P,R2,1*%
%TO.N,Net-(J0-Pin_3)*%
X129032000Y-96390000D03*
%TO.P,R2,2*%
%TO.N,GND*%
X129032000Y-99190000D03*
%TD*%
D17*
%TO.N,Net-(J0-Pin_3)*%
X127508000Y-97028000D03*
%TO.N,Net-(R1-Pad1)*%
X125730000Y-94386400D03*
%TD*%
D18*
%TO.N,Net-(J0-Pin_3)*%
X127508000Y-97028000D02*
X128394000Y-97028000D01*
X128394000Y-97028000D02*
X129032000Y-96390000D01*
%TO.N,Net-(R1-Pad1)*%
X125730000Y-94386400D02*
X125730000Y-96038000D01*
X125730000Y-96038000D02*
X126082000Y-96390000D01*
%TD*%
%TA.AperFunction,Conductor*%
%TO.N,GND*%
G36*
X138342500Y-92752113D02*
G01*
X138387887Y-92797500D01*
X138404500Y-92859500D01*
X138404500Y-102720500D01*
X138387887Y-102782500D01*
X138342500Y-102827887D01*
X138280500Y-102844500D01*
X100479500Y-102844500D01*
X100417500Y-102827887D01*
X100372113Y-102782500D01*
X100355500Y-102720500D01*
X100355500Y-97790000D01*
X101396666Y-97790000D01*
X101396815Y-97793033D01*
X101415841Y-98180335D01*
X101415842Y-98180347D01*
X101415991Y-98183376D01*
X101416435Y-98186372D01*
X101416437Y-98186388D01*
X101473336Y-98569964D01*
X101473781Y-98572963D01*
X101474515Y-98575894D01*
X101474517Y-98575903D01*
X101568740Y-98952062D01*
X101568744Y-98952077D01*
X101569479Y-98955009D01*
X101702163Y-99325836D01*
X101703461Y-99328580D01*
X101703465Y-99328590D01*
X101791226Y-99514146D01*
X101870555Y-99681873D01*
X102073035Y-100019689D01*
X102307651Y-100336032D01*
X102572144Y-100627856D01*
X102863968Y-100892349D01*
X103180311Y-101126965D01*
X103518127Y-101329445D01*
X103874164Y-101497837D01*
X104244991Y-101630521D01*
X104627037Y-101726219D01*
X105016624Y-101784009D01*
X105410000Y-101803334D01*
X105803376Y-101784009D01*
X106192963Y-101726219D01*
X106575009Y-101630521D01*
X106945836Y-101497837D01*
X107301873Y-101329445D01*
X107495084Y-101213638D01*
X121577500Y-101213638D01*
X121584011Y-101274201D01*
X121586717Y-101281458D01*
X121586719Y-101281463D01*
X121604616Y-101329445D01*
X121635111Y-101411204D01*
X121722739Y-101528261D01*
X121839796Y-101615889D01*
X121976799Y-101666989D01*
X122037362Y-101673500D01*
X123831328Y-101673500D01*
X123834638Y-101673500D01*
X123895201Y-101666989D01*
X124032204Y-101615889D01*
X124149261Y-101528261D01*
X124236889Y-101411204D01*
X124287989Y-101274201D01*
X124294500Y-101213638D01*
X124294500Y-99939743D01*
X124882001Y-99939743D01*
X124882391Y-99946694D01*
X124896177Y-100069050D01*
X124899256Y-100082545D01*
X124953544Y-100237692D01*
X124959545Y-100250152D01*
X125046993Y-100389325D01*
X125055629Y-100400154D01*
X125171845Y-100516370D01*
X125182674Y-100525006D01*
X125321847Y-100612454D01*
X125334307Y-100618455D01*
X125489452Y-100672742D01*
X125502950Y-100675823D01*
X125625306Y-100689609D01*
X125632255Y-100690000D01*
X125815674Y-100690000D01*
X125828549Y-100686549D01*
X125832000Y-100673674D01*
X125832000Y-100673673D01*
X126332000Y-100673673D01*
X126335450Y-100686548D01*
X126348326Y-100689999D01*
X126531743Y-100689999D01*
X126538694Y-100689608D01*
X126661050Y-100675822D01*
X126674545Y-100672743D01*
X126829692Y-100618455D01*
X126842152Y-100612454D01*
X126981325Y-100525006D01*
X126992154Y-100516370D01*
X127108370Y-100400154D01*
X127117006Y-100389325D01*
X127204454Y-100250152D01*
X127210455Y-100237692D01*
X127264742Y-100082547D01*
X127267823Y-100069049D01*
X127281609Y-99946693D01*
X127282000Y-99939745D01*
X127282000Y-99939743D01*
X127832001Y-99939743D01*
X127832391Y-99946694D01*
X127846177Y-100069050D01*
X127849256Y-100082545D01*
X127903544Y-100237692D01*
X127909545Y-100250152D01*
X127996993Y-100389325D01*
X128005629Y-100400154D01*
X128121845Y-100516370D01*
X128132674Y-100525006D01*
X128271847Y-100612454D01*
X128284307Y-100618455D01*
X128439452Y-100672742D01*
X128452950Y-100675823D01*
X128575306Y-100689609D01*
X128582255Y-100690000D01*
X128765674Y-100690000D01*
X128778549Y-100686549D01*
X128782000Y-100673674D01*
X128782000Y-100673673D01*
X129282000Y-100673673D01*
X129285450Y-100686548D01*
X129298326Y-100689999D01*
X129481743Y-100689999D01*
X129488694Y-100689608D01*
X129611050Y-100675822D01*
X129624545Y-100672743D01*
X129779692Y-100618455D01*
X129792152Y-100612454D01*
X129931325Y-100525006D01*
X129942154Y-100516370D01*
X130058370Y-100400154D01*
X130067006Y-100389325D01*
X130154454Y-100250152D01*
X130160455Y-100237692D01*
X130214742Y-100082547D01*
X130217823Y-100069049D01*
X130231609Y-99946693D01*
X130232000Y-99939745D01*
X130232000Y-99456326D01*
X130228549Y-99443450D01*
X130215674Y-99440000D01*
X129298326Y-99440000D01*
X129285450Y-99443450D01*
X129282000Y-99456326D01*
X129282000Y-100673673D01*
X128782000Y-100673673D01*
X128782000Y-99456326D01*
X128778549Y-99443450D01*
X128765674Y-99440000D01*
X127848327Y-99440000D01*
X127835451Y-99443450D01*
X127832001Y-99456326D01*
X127832001Y-99939743D01*
X127282000Y-99939743D01*
X127282000Y-99456326D01*
X127278549Y-99443450D01*
X127265674Y-99440000D01*
X126348326Y-99440000D01*
X126335450Y-99443450D01*
X126332000Y-99456326D01*
X126332000Y-100673673D01*
X125832000Y-100673673D01*
X125832000Y-99456326D01*
X125828549Y-99443450D01*
X125815674Y-99440000D01*
X124898327Y-99440000D01*
X124885451Y-99443450D01*
X124882001Y-99456326D01*
X124882001Y-99939743D01*
X124294500Y-99939743D01*
X124294500Y-99416362D01*
X124287989Y-99355799D01*
X124236889Y-99218796D01*
X124149261Y-99101739D01*
X124093504Y-99060000D01*
X131776502Y-99060000D01*
X131776974Y-99065395D01*
X131795984Y-99282688D01*
X131795985Y-99282695D01*
X131796457Y-99288087D01*
X131797856Y-99293308D01*
X131797858Y-99293319D01*
X131854316Y-99504021D01*
X131854318Y-99504028D01*
X131855716Y-99509243D01*
X131952477Y-99716749D01*
X131955584Y-99721186D01*
X132080696Y-99899865D01*
X132080699Y-99899869D01*
X132083802Y-99904300D01*
X132245700Y-100066198D01*
X132250132Y-100069301D01*
X132250134Y-100069303D01*
X132315459Y-100115044D01*
X132433251Y-100197523D01*
X132640757Y-100294284D01*
X132645977Y-100295682D01*
X132645978Y-100295683D01*
X132856680Y-100352141D01*
X132856682Y-100352141D01*
X132861913Y-100353543D01*
X133090000Y-100373498D01*
X133318087Y-100353543D01*
X133539243Y-100294284D01*
X133746749Y-100197523D01*
X133934300Y-100066198D01*
X134096198Y-99904300D01*
X134227523Y-99716749D01*
X134324284Y-99509243D01*
X134370225Y-99337789D01*
X134402319Y-99282203D01*
X134457906Y-99250109D01*
X134522094Y-99250109D01*
X134577681Y-99282203D01*
X134609775Y-99337790D01*
X134654316Y-99504021D01*
X134654318Y-99504028D01*
X134655716Y-99509243D01*
X134752477Y-99716749D01*
X134755584Y-99721186D01*
X134880696Y-99899865D01*
X134880699Y-99899869D01*
X134883802Y-99904300D01*
X135045700Y-100066198D01*
X135050132Y-100069301D01*
X135050134Y-100069303D01*
X135115459Y-100115044D01*
X135233251Y-100197523D01*
X135440757Y-100294284D01*
X135445977Y-100295682D01*
X135445978Y-100295683D01*
X135656680Y-100352141D01*
X135656682Y-100352141D01*
X135661913Y-100353543D01*
X135890000Y-100373498D01*
X136118087Y-100353543D01*
X136339243Y-100294284D01*
X136546749Y-100197523D01*
X136734300Y-100066198D01*
X136896198Y-99904300D01*
X137027523Y-99716749D01*
X137124284Y-99509243D01*
X137183543Y-99288087D01*
X137203498Y-99060000D01*
X137183543Y-98831913D01*
X137124284Y-98610757D01*
X137027523Y-98403251D01*
X136896198Y-98215700D01*
X136734300Y-98053802D01*
X136729867Y-98050698D01*
X136729860Y-98050692D01*
X136663035Y-98003901D01*
X136620299Y-97951440D01*
X136611467Y-97884354D01*
X136639169Y-97822620D01*
X136695154Y-97784620D01*
X136762968Y-97762149D01*
X136913802Y-97669114D01*
X137039114Y-97543802D01*
X137132149Y-97392968D01*
X137187893Y-97224745D01*
X137198500Y-97120918D01*
X137198500Y-95919082D01*
X137187893Y-95815255D01*
X137132149Y-95647032D01*
X137039114Y-95496198D01*
X136913802Y-95370886D01*
X136762968Y-95277851D01*
X136756116Y-95275580D01*
X136756113Y-95275579D01*
X136607872Y-95226457D01*
X136594745Y-95222107D01*
X136588012Y-95221419D01*
X136588007Y-95221418D01*
X136494049Y-95211819D01*
X136494032Y-95211818D01*
X136490918Y-95211500D01*
X135289082Y-95211500D01*
X135285968Y-95211818D01*
X135285950Y-95211819D01*
X135191992Y-95221418D01*
X135191985Y-95221419D01*
X135185255Y-95222107D01*
X135178827Y-95224236D01*
X135178827Y-95224237D01*
X135023886Y-95275579D01*
X135023880Y-95275581D01*
X135017032Y-95277851D01*
X135010888Y-95281640D01*
X135010887Y-95281641D01*
X135000575Y-95288002D01*
X134866198Y-95370886D01*
X134861090Y-95375993D01*
X134861086Y-95375997D01*
X134745997Y-95491086D01*
X134745993Y-95491090D01*
X134740886Y-95496198D01*
X134737094Y-95502345D01*
X134737093Y-95502347D01*
X134730028Y-95513802D01*
X134647851Y-95647032D01*
X134645581Y-95653880D01*
X134645579Y-95653886D01*
X134636160Y-95682312D01*
X134592107Y-95815255D01*
X134591419Y-95821985D01*
X134591418Y-95821992D01*
X134581819Y-95915950D01*
X134581818Y-95915968D01*
X134581500Y-95919082D01*
X134581500Y-95922231D01*
X134581500Y-96088825D01*
X134567489Y-96146082D01*
X134528624Y-96190400D01*
X134473685Y-96211764D01*
X134415090Y-96205347D01*
X134366078Y-96172598D01*
X134337725Y-96120919D01*
X134325683Y-96075978D01*
X134325682Y-96075977D01*
X134324284Y-96070757D01*
X134227523Y-95863251D01*
X134096198Y-95675700D01*
X133934300Y-95513802D01*
X133929869Y-95510699D01*
X133929865Y-95510696D01*
X133751186Y-95385584D01*
X133751187Y-95385584D01*
X133746749Y-95382477D01*
X133652639Y-95338593D01*
X133544146Y-95288002D01*
X133544143Y-95288000D01*
X133539243Y-95285716D01*
X133534028Y-95284318D01*
X133534021Y-95284316D01*
X133323319Y-95227858D01*
X133323308Y-95227856D01*
X133318087Y-95226457D01*
X133312695Y-95225985D01*
X133312688Y-95225984D01*
X133095395Y-95206974D01*
X133090000Y-95206502D01*
X133084605Y-95206974D01*
X132867311Y-95225984D01*
X132867302Y-95225985D01*
X132861913Y-95226457D01*
X132856692Y-95227855D01*
X132856680Y-95227858D01*
X132645978Y-95284316D01*
X132645967Y-95284319D01*
X132640757Y-95285716D01*
X132635860Y-95287999D01*
X132635853Y-95288002D01*
X132438165Y-95380185D01*
X132438159Y-95380188D01*
X132433251Y-95382477D01*
X132428817Y-95385581D01*
X132428813Y-95385584D01*
X132250134Y-95510696D01*
X132250124Y-95510703D01*
X132245700Y-95513802D01*
X132241874Y-95517627D01*
X132241868Y-95517633D01*
X132087633Y-95671868D01*
X132087627Y-95671874D01*
X132083802Y-95675700D01*
X132080703Y-95680124D01*
X132080696Y-95680134D01*
X131955584Y-95858813D01*
X131955581Y-95858817D01*
X131952477Y-95863251D01*
X131950188Y-95868159D01*
X131950185Y-95868165D01*
X131858002Y-96065853D01*
X131857999Y-96065860D01*
X131855716Y-96070757D01*
X131854319Y-96075967D01*
X131854316Y-96075978D01*
X131797858Y-96286680D01*
X131797855Y-96286692D01*
X131796457Y-96291913D01*
X131795985Y-96297302D01*
X131795984Y-96297311D01*
X131779709Y-96483342D01*
X131776502Y-96520000D01*
X131776974Y-96525395D01*
X131795984Y-96742688D01*
X131795985Y-96742695D01*
X131796457Y-96748087D01*
X131797856Y-96753308D01*
X131797858Y-96753319D01*
X131854316Y-96964021D01*
X131854318Y-96964028D01*
X131855716Y-96969243D01*
X131858000Y-96974143D01*
X131858002Y-96974146D01*
X131938686Y-97147174D01*
X131952477Y-97176749D01*
X131955584Y-97181186D01*
X132080696Y-97359865D01*
X132080699Y-97359869D01*
X132083802Y-97364300D01*
X132245700Y-97526198D01*
X132433251Y-97657523D01*
X132476346Y-97677618D01*
X132528521Y-97723375D01*
X132547941Y-97790000D01*
X132528521Y-97856625D01*
X132476346Y-97902381D01*
X132458348Y-97910773D01*
X132438161Y-97920187D01*
X132438156Y-97920189D01*
X132433251Y-97922477D01*
X132428817Y-97925581D01*
X132428813Y-97925584D01*
X132250134Y-98050696D01*
X132250124Y-98050703D01*
X132245700Y-98053802D01*
X132241874Y-98057627D01*
X132241868Y-98057633D01*
X132087633Y-98211868D01*
X132087627Y-98211874D01*
X132083802Y-98215700D01*
X132080703Y-98220124D01*
X132080696Y-98220134D01*
X131955584Y-98398813D01*
X131955581Y-98398817D01*
X131952477Y-98403251D01*
X131950188Y-98408159D01*
X131950185Y-98408165D01*
X131858002Y-98605853D01*
X131857999Y-98605860D01*
X131855716Y-98610757D01*
X131854319Y-98615967D01*
X131854316Y-98615978D01*
X131797858Y-98826680D01*
X131797855Y-98826692D01*
X131796457Y-98831913D01*
X131795985Y-98837302D01*
X131795984Y-98837311D01*
X131784987Y-98963011D01*
X131776502Y-99060000D01*
X124093504Y-99060000D01*
X124039304Y-99019426D01*
X124039303Y-99019425D01*
X124032204Y-99014111D01*
X124023896Y-99011012D01*
X124023894Y-99011011D01*
X123937432Y-98978762D01*
X123902618Y-98965777D01*
X123852240Y-98930798D01*
X123824787Y-98875954D01*
X123826976Y-98814661D01*
X123858272Y-98761914D01*
X123970284Y-98649902D01*
X123977215Y-98641643D01*
X124106498Y-98457008D01*
X124111886Y-98447676D01*
X124207143Y-98243397D01*
X124210831Y-98233263D01*
X124262943Y-98038780D01*
X124263311Y-98027551D01*
X124252369Y-98025000D01*
X121619631Y-98025000D01*
X121608688Y-98027551D01*
X121609056Y-98038780D01*
X121661168Y-98233263D01*
X121664856Y-98243397D01*
X121760113Y-98447676D01*
X121765501Y-98457008D01*
X121894784Y-98641643D01*
X121901721Y-98649909D01*
X122013727Y-98761915D01*
X122045023Y-98814661D01*
X122047212Y-98875954D01*
X122019759Y-98930798D01*
X121969380Y-98965778D01*
X121848105Y-99011011D01*
X121848099Y-99011013D01*
X121839796Y-99014111D01*
X121832698Y-99019423D01*
X121832695Y-99019426D01*
X121729835Y-99096426D01*
X121729831Y-99096429D01*
X121722739Y-99101739D01*
X121717429Y-99108831D01*
X121717426Y-99108835D01*
X121640426Y-99211695D01*
X121640423Y-99211698D01*
X121635111Y-99218796D01*
X121632013Y-99227099D01*
X121632011Y-99227105D01*
X121586719Y-99348536D01*
X121586717Y-99348543D01*
X121584011Y-99355799D01*
X121583182Y-99363500D01*
X121583182Y-99363505D01*
X121577853Y-99413075D01*
X121577500Y-99416362D01*
X121577500Y-101213638D01*
X107495084Y-101213638D01*
X107639689Y-101126965D01*
X107956032Y-100892349D01*
X108247856Y-100627856D01*
X108512349Y-100336032D01*
X108746965Y-100019689D01*
X108949445Y-99681873D01*
X109117837Y-99325836D01*
X109250521Y-98955009D01*
X109346219Y-98572963D01*
X109404009Y-98183376D01*
X109423334Y-97790000D01*
X109404009Y-97396624D01*
X109346219Y-97007037D01*
X109250521Y-96624991D01*
X109117837Y-96254164D01*
X108949445Y-95898127D01*
X108746965Y-95560311D01*
X108512349Y-95243968D01*
X108504221Y-95235000D01*
X121572844Y-95235000D01*
X121573268Y-95240117D01*
X121591011Y-95454248D01*
X121591012Y-95454256D01*
X121591436Y-95459368D01*
X121592693Y-95464335D01*
X121592695Y-95464342D01*
X121636239Y-95636291D01*
X121646704Y-95677616D01*
X121648764Y-95682312D01*
X121735080Y-95879096D01*
X121735083Y-95879101D01*
X121737140Y-95883791D01*
X121760197Y-95919082D01*
X121857474Y-96067977D01*
X121857477Y-96067981D01*
X121860278Y-96072268D01*
X121863752Y-96076041D01*
X121863753Y-96076043D01*
X122009288Y-96234135D01*
X122009291Y-96234138D01*
X122012760Y-96237906D01*
X122063278Y-96277226D01*
X122186376Y-96373039D01*
X122186381Y-96373042D01*
X122190424Y-96376189D01*
X122233691Y-96399604D01*
X122233695Y-96399606D01*
X122279335Y-96442155D01*
X122298475Y-96501545D01*
X122286267Y-96562737D01*
X122245803Y-96610236D01*
X122069352Y-96733788D01*
X122061092Y-96740719D01*
X121901719Y-96900092D01*
X121894784Y-96908357D01*
X121765508Y-97092982D01*
X121760110Y-97102332D01*
X121664856Y-97306602D01*
X121661168Y-97316736D01*
X121609056Y-97511219D01*
X121608688Y-97522448D01*
X121619631Y-97525000D01*
X124252369Y-97525000D01*
X124263311Y-97522448D01*
X124262943Y-97511219D01*
X124210831Y-97316736D01*
X124207143Y-97306602D01*
X124111889Y-97102332D01*
X124106491Y-97092982D01*
X123977215Y-96908357D01*
X123970280Y-96900092D01*
X123810909Y-96740721D01*
X123802635Y-96733778D01*
X123626198Y-96610234D01*
X123585734Y-96562735D01*
X123573526Y-96501543D01*
X123592666Y-96442153D01*
X123638304Y-96399606D01*
X123681576Y-96376189D01*
X123859240Y-96237906D01*
X124011722Y-96072268D01*
X124134860Y-95883791D01*
X124225296Y-95677616D01*
X124280564Y-95459368D01*
X124299156Y-95235000D01*
X124280564Y-95010632D01*
X124225296Y-94792384D01*
X124134860Y-94586209D01*
X124011722Y-94397732D01*
X124001290Y-94386400D01*
X124816496Y-94386400D01*
X124817175Y-94392860D01*
X124835778Y-94569867D01*
X124835779Y-94569875D01*
X124836458Y-94576328D01*
X124838463Y-94582500D01*
X124838465Y-94582507D01*
X124872629Y-94687651D01*
X124895473Y-94757956D01*
X124898720Y-94763580D01*
X124898721Y-94763582D01*
X124922112Y-94804097D01*
X124990960Y-94923344D01*
X124995304Y-94928169D01*
X124995306Y-94928171D01*
X125058696Y-94998572D01*
X125087367Y-95053648D01*
X125085744Y-95115719D01*
X125054232Y-95169221D01*
X125048939Y-95174513D01*
X125048935Y-95174517D01*
X125044013Y-95179440D01*
X125040308Y-95185335D01*
X125040305Y-95185340D01*
X124951837Y-95326136D01*
X124951833Y-95326143D01*
X124948136Y-95332028D01*
X124945840Y-95338586D01*
X124945838Y-95338593D01*
X124905369Y-95454248D01*
X124888617Y-95502124D01*
X124887837Y-95509043D01*
X124887837Y-95509045D01*
X124873891Y-95632825D01*
X124873500Y-95636291D01*
X124873500Y-95639773D01*
X124873500Y-95639774D01*
X124873500Y-97140222D01*
X124873500Y-97140239D01*
X124873501Y-97143708D01*
X124873890Y-97147165D01*
X124873891Y-97147174D01*
X124877723Y-97181186D01*
X124888617Y-97277876D01*
X124890913Y-97284440D01*
X124890915Y-97284445D01*
X124931039Y-97399112D01*
X124948136Y-97447972D01*
X124951835Y-97453859D01*
X124951837Y-97453863D01*
X125011561Y-97548913D01*
X125044013Y-97600560D01*
X125048940Y-97605487D01*
X125048941Y-97605488D01*
X125151783Y-97708330D01*
X125183877Y-97763917D01*
X125183877Y-97828105D01*
X125151783Y-97883692D01*
X125055629Y-97979845D01*
X125046993Y-97990674D01*
X124959545Y-98129847D01*
X124953544Y-98142307D01*
X124899257Y-98297452D01*
X124896176Y-98310950D01*
X124882390Y-98433306D01*
X124882000Y-98440255D01*
X124882000Y-98923674D01*
X124885450Y-98936549D01*
X124898326Y-98940000D01*
X127265673Y-98940000D01*
X127278548Y-98936549D01*
X127281999Y-98923674D01*
X127281999Y-98440257D01*
X127281608Y-98433305D01*
X127267822Y-98310949D01*
X127264743Y-98297454D01*
X127210455Y-98142307D01*
X127204453Y-98129845D01*
X127188129Y-98103865D01*
X127169655Y-98049378D01*
X127177761Y-97992418D01*
X127210703Y-97945247D01*
X127261387Y-97918022D01*
X127318901Y-97916602D01*
X127412513Y-97936500D01*
X127596984Y-97936500D01*
X127603487Y-97936500D01*
X127790288Y-97896794D01*
X127796236Y-97894145D01*
X127799427Y-97893109D01*
X127859339Y-97888933D01*
X127914186Y-97913400D01*
X127951103Y-97960771D01*
X127961430Y-98019933D01*
X127942744Y-98077009D01*
X127909546Y-98129844D01*
X127903544Y-98142307D01*
X127849257Y-98297452D01*
X127846176Y-98310950D01*
X127832390Y-98433306D01*
X127832000Y-98440255D01*
X127832000Y-98923674D01*
X127835450Y-98936549D01*
X127848326Y-98940000D01*
X130215673Y-98940000D01*
X130228548Y-98936549D01*
X130231999Y-98923674D01*
X130231999Y-98440257D01*
X130231608Y-98433305D01*
X130217822Y-98310949D01*
X130214743Y-98297454D01*
X130160455Y-98142307D01*
X130154454Y-98129847D01*
X130067006Y-97990674D01*
X130058370Y-97979845D01*
X129962217Y-97883692D01*
X129930123Y-97828105D01*
X129930123Y-97763917D01*
X129962217Y-97708330D01*
X130013024Y-97657523D01*
X130069987Y-97600560D01*
X130165864Y-97447972D01*
X130225383Y-97277876D01*
X130240500Y-97143709D01*
X130240499Y-95636292D01*
X130225383Y-95502124D01*
X130165864Y-95332028D01*
X130131822Y-95277851D01*
X130108113Y-95240117D01*
X130069987Y-95179440D01*
X129942560Y-95052013D01*
X129936659Y-95048305D01*
X129795863Y-94959837D01*
X129795859Y-94959835D01*
X129789972Y-94956136D01*
X129783409Y-94953839D01*
X129783406Y-94953838D01*
X129626446Y-94898916D01*
X129619876Y-94896617D01*
X129612954Y-94895837D01*
X129489173Y-94881890D01*
X129489167Y-94881889D01*
X129485709Y-94881500D01*
X129482225Y-94881500D01*
X128581777Y-94881500D01*
X128581759Y-94881500D01*
X128578292Y-94881501D01*
X128574835Y-94881890D01*
X128574825Y-94881891D01*
X128451044Y-94895837D01*
X128451040Y-94895837D01*
X128444124Y-94896617D01*
X128437561Y-94898913D01*
X128437554Y-94898915D01*
X128280593Y-94953838D01*
X128280586Y-94953840D01*
X128274028Y-94956136D01*
X128268143Y-94959833D01*
X128268136Y-94959837D01*
X128127340Y-95048305D01*
X128127335Y-95048308D01*
X128121440Y-95052013D01*
X128116515Y-95056937D01*
X128116511Y-95056941D01*
X127998941Y-95174511D01*
X127998937Y-95174515D01*
X127994013Y-95179440D01*
X127990308Y-95185335D01*
X127990305Y-95185340D01*
X127901837Y-95326136D01*
X127901833Y-95326143D01*
X127898136Y-95332028D01*
X127895840Y-95338586D01*
X127895838Y-95338593D01*
X127855369Y-95454248D01*
X127838617Y-95502124D01*
X127837837Y-95509043D01*
X127837837Y-95509045D01*
X127823891Y-95632825D01*
X127823500Y-95636291D01*
X127823500Y-95639774D01*
X127823500Y-95639775D01*
X127823500Y-96013138D01*
X127811421Y-96066521D01*
X127777536Y-96109504D01*
X127728448Y-96133712D01*
X127673719Y-96134428D01*
X127609850Y-96120852D01*
X127609845Y-96120851D01*
X127603487Y-96119500D01*
X127414499Y-96119500D01*
X127352499Y-96102887D01*
X127307112Y-96057500D01*
X127290499Y-95995500D01*
X127290499Y-95639777D01*
X127290499Y-95639774D01*
X127290499Y-95636292D01*
X127275383Y-95502124D01*
X127215864Y-95332028D01*
X127181822Y-95277851D01*
X127158113Y-95240117D01*
X127119987Y-95179440D01*
X126992560Y-95052013D01*
X126986659Y-95048305D01*
X126845863Y-94959837D01*
X126845859Y-94959835D01*
X126839972Y-94956136D01*
X126833409Y-94953839D01*
X126833406Y-94953838D01*
X126676443Y-94898914D01*
X126676435Y-94898912D01*
X126669876Y-94896617D01*
X126662961Y-94895837D01*
X126661875Y-94895590D01*
X126602444Y-94863034D01*
X126569002Y-94804097D01*
X126571535Y-94736385D01*
X126623542Y-94576328D01*
X126643504Y-94386400D01*
X126623542Y-94196472D01*
X126564527Y-94014844D01*
X126469040Y-93849456D01*
X126341253Y-93707534D01*
X126336003Y-93703719D01*
X126335999Y-93703716D01*
X126192006Y-93599099D01*
X126192004Y-93599097D01*
X126186752Y-93595282D01*
X126180821Y-93592641D01*
X126180817Y-93592639D01*
X126018226Y-93520249D01*
X126018219Y-93520246D01*
X126012288Y-93517606D01*
X126005935Y-93516255D01*
X126005927Y-93516253D01*
X125831849Y-93479252D01*
X125831846Y-93479251D01*
X125825487Y-93477900D01*
X125634513Y-93477900D01*
X125628154Y-93479251D01*
X125628150Y-93479252D01*
X125454072Y-93516253D01*
X125454061Y-93516256D01*
X125447712Y-93517606D01*
X125441782Y-93520245D01*
X125441773Y-93520249D01*
X125279182Y-93592639D01*
X125279174Y-93592643D01*
X125273248Y-93595282D01*
X125267999Y-93599095D01*
X125267993Y-93599099D01*
X125124000Y-93703716D01*
X125123991Y-93703723D01*
X125118747Y-93707534D01*
X125114403Y-93712357D01*
X125114400Y-93712361D01*
X125056500Y-93776666D01*
X124990960Y-93849456D01*
X124987714Y-93855076D01*
X124987711Y-93855082D01*
X124898721Y-94009217D01*
X124898718Y-94009222D01*
X124895473Y-94014844D01*
X124893467Y-94021016D01*
X124893465Y-94021022D01*
X124838465Y-94190292D01*
X124838463Y-94190301D01*
X124836458Y-94196472D01*
X124835780Y-94202922D01*
X124835778Y-94202932D01*
X124817778Y-94374195D01*
X124816496Y-94386400D01*
X124001290Y-94386400D01*
X123995343Y-94379940D01*
X123862711Y-94235864D01*
X123862708Y-94235861D01*
X123859240Y-94232094D01*
X123821773Y-94202932D01*
X123685623Y-94096960D01*
X123685615Y-94096955D01*
X123681576Y-94093811D01*
X123677071Y-94091373D01*
X123677065Y-94091369D01*
X123488080Y-93989096D01*
X123488074Y-93989093D01*
X123483574Y-93986658D01*
X123478733Y-93984996D01*
X123478726Y-93984993D01*
X123275488Y-93915222D01*
X123275487Y-93915221D01*
X123270635Y-93913556D01*
X123265585Y-93912713D01*
X123265576Y-93912711D01*
X123053631Y-93877344D01*
X123053622Y-93877343D01*
X123048569Y-93876500D01*
X122823431Y-93876500D01*
X122818378Y-93877343D01*
X122818368Y-93877344D01*
X122606423Y-93912711D01*
X122606411Y-93912713D01*
X122601365Y-93913556D01*
X122596515Y-93915220D01*
X122596511Y-93915222D01*
X122393273Y-93984993D01*
X122393262Y-93984997D01*
X122388426Y-93986658D01*
X122383929Y-93989091D01*
X122383919Y-93989096D01*
X122194934Y-94091369D01*
X122194922Y-94091376D01*
X122190424Y-94093811D01*
X122186389Y-94096951D01*
X122186376Y-94096960D01*
X122016801Y-94228948D01*
X122016795Y-94228952D01*
X122012760Y-94232094D01*
X122009297Y-94235855D01*
X122009288Y-94235864D01*
X121863753Y-94393956D01*
X121863747Y-94393963D01*
X121860278Y-94397732D01*
X121857481Y-94402012D01*
X121857474Y-94402022D01*
X121739942Y-94581920D01*
X121737140Y-94586209D01*
X121735085Y-94590892D01*
X121735080Y-94590903D01*
X121648764Y-94787687D01*
X121646704Y-94792384D01*
X121645446Y-94797349D01*
X121645445Y-94797354D01*
X121592695Y-95005657D01*
X121592693Y-95005666D01*
X121591436Y-95010632D01*
X121591012Y-95015741D01*
X121591011Y-95015751D01*
X121577856Y-95174511D01*
X121572844Y-95235000D01*
X108504221Y-95235000D01*
X108247856Y-94952144D01*
X107956032Y-94687651D01*
X107639689Y-94453035D01*
X107301873Y-94250555D01*
X107201182Y-94202932D01*
X106948590Y-94083465D01*
X106948580Y-94083461D01*
X106945836Y-94082163D01*
X106942962Y-94081134D01*
X106942958Y-94081133D01*
X106577876Y-93950505D01*
X106577879Y-93950505D01*
X106575009Y-93949479D01*
X106572077Y-93948744D01*
X106572062Y-93948740D01*
X106195903Y-93854517D01*
X106195894Y-93854515D01*
X106192963Y-93853781D01*
X106189966Y-93853336D01*
X106189964Y-93853336D01*
X105806388Y-93796437D01*
X105806372Y-93796435D01*
X105803376Y-93795991D01*
X105800347Y-93795842D01*
X105800335Y-93795841D01*
X105413033Y-93776815D01*
X105410000Y-93776666D01*
X105406967Y-93776815D01*
X105019664Y-93795841D01*
X105019650Y-93795842D01*
X105016624Y-93795991D01*
X105013629Y-93796435D01*
X105013611Y-93796437D01*
X104630035Y-93853336D01*
X104630029Y-93853337D01*
X104627037Y-93853781D01*
X104624109Y-93854514D01*
X104624096Y-93854517D01*
X104247937Y-93948740D01*
X104247916Y-93948746D01*
X104244991Y-93949479D01*
X104242126Y-93950503D01*
X104242123Y-93950505D01*
X103877041Y-94081133D01*
X103877030Y-94081137D01*
X103874164Y-94082163D01*
X103871426Y-94083457D01*
X103871409Y-94083465D01*
X103520879Y-94249253D01*
X103520872Y-94249256D01*
X103518127Y-94250555D01*
X103515518Y-94252118D01*
X103515510Y-94252123D01*
X103182916Y-94451473D01*
X103182907Y-94451478D01*
X103180311Y-94453035D01*
X103177883Y-94454834D01*
X103177875Y-94454841D01*
X102866411Y-94685839D01*
X102863968Y-94687651D01*
X102861716Y-94689691D01*
X102861710Y-94689697D01*
X102574396Y-94950102D01*
X102574386Y-94950111D01*
X102572144Y-94952144D01*
X102570111Y-94954386D01*
X102570102Y-94954396D01*
X102309697Y-95241710D01*
X102309691Y-95241716D01*
X102307651Y-95243968D01*
X102305840Y-95246409D01*
X102305839Y-95246411D01*
X102074841Y-95557875D01*
X102074834Y-95557883D01*
X102073035Y-95560311D01*
X102071478Y-95562907D01*
X102071473Y-95562916D01*
X101872123Y-95895510D01*
X101872118Y-95895518D01*
X101870555Y-95898127D01*
X101869256Y-95900872D01*
X101869253Y-95900879D01*
X101703465Y-96251409D01*
X101703457Y-96251426D01*
X101702163Y-96254164D01*
X101701137Y-96257030D01*
X101701133Y-96257041D01*
X101574759Y-96610234D01*
X101569479Y-96624991D01*
X101568746Y-96627916D01*
X101568740Y-96627937D01*
X101474517Y-97004096D01*
X101474514Y-97004109D01*
X101473781Y-97007037D01*
X101473337Y-97010029D01*
X101473336Y-97010035D01*
X101416437Y-97393611D01*
X101416435Y-97393629D01*
X101415991Y-97396624D01*
X101415842Y-97399650D01*
X101415841Y-97399664D01*
X101402418Y-97672906D01*
X101396666Y-97790000D01*
X100355500Y-97790000D01*
X100355500Y-92859500D01*
X100372113Y-92797500D01*
X100417500Y-92752113D01*
X100479500Y-92735500D01*
X138280500Y-92735500D01*
X138342500Y-92752113D01*
G37*
%TD.AperFunction*%
%TD*%
M02*
