%TF.SameCoordinates,Original*%
%TF.FileFunction,Legend,Top*%
%TF.FilePolarity,Positive*%
%FSLAX46Y46*%
G04 Gerber Fmt 4.6, Leading zero omitted, Abs format (unit mm)*
G04 Created by KiCad (PCBNEW (7.0.0)) date 2023-11-11 01:00:00*
%MOMM*%
%LPD*%
G01*
G04 APERTURE LIST*
%ADD10C,0.200000*%
%ADD11C,0.150000*%
%ADD12C,0.120000*%
G04 APERTURE END LIST*
D10*
X133883495Y-93093380D02*
X133978733Y-93093380D01*
X133978733Y-93093380D02*
X134073971Y-93141000D01*
X134073971Y-93141000D02*
X134121590Y-93188619D01*
X134121590Y-93188619D02*
X134169209Y-93283857D01*
X134169209Y-93283857D02*
X134216828Y-93474333D01*
X134216828Y-93474333D02*
X134216828Y-93712428D01*
X134216828Y-93712428D02*
X134169209Y-93902904D01*
X134169209Y-93902904D02*
X134121590Y-93998142D01*
X134121590Y-93998142D02*
X134073971Y-94045761D01*
X134073971Y-94045761D02*
X133978733Y-94093380D01*
X133978733Y-94093380D02*
X133883495Y-94093380D01*
X133883495Y-94093380D02*
X133788257Y-94045761D01*
X133788257Y-94045761D02*
X133740638Y-93998142D01*
X133740638Y-93998142D02*
X133693019Y-93902904D01*
X133693019Y-93902904D02*
X133645400Y-93712428D01*
X133645400Y-93712428D02*
X133645400Y-93474333D01*
X133645400Y-93474333D02*
X133693019Y-93283857D01*
X133693019Y-93283857D02*
X133740638Y-93188619D01*
X133740638Y-93188619D02*
X133788257Y-93141000D01*
X133788257Y-93141000D02*
X133883495Y-93093380D01*
X134645400Y-93998142D02*
X134693019Y-94045761D01*
X134693019Y-94045761D02*
X134645400Y-94093380D01*
X134645400Y-94093380D02*
X134597781Y-94045761D01*
X134597781Y-94045761D02*
X134645400Y-93998142D01*
X134645400Y-93998142D02*
X134645400Y-94093380D01*
X135026352Y-93093380D02*
X135693018Y-93093380D01*
X135693018Y-93093380D02*
X135264447Y-94093380D01*
D11*
X120382428Y-98170951D02*
X120382428Y-97409047D01*
X120922142Y-95249999D02*
X120969761Y-95202380D01*
X120969761Y-95202380D02*
X121017380Y-95249999D01*
X121017380Y-95249999D02*
X120969761Y-95297618D01*
X120969761Y-95297618D02*
X120922142Y-95249999D01*
X120922142Y-95249999D02*
X121017380Y-95249999D01*
X120636428Y-95249999D02*
X120065000Y-95297618D01*
X120065000Y-95297618D02*
X120017380Y-95249999D01*
X120017380Y-95249999D02*
X120065000Y-95202380D01*
X120065000Y-95202380D02*
X120636428Y-95249999D01*
X120636428Y-95249999D02*
X120017380Y-95249999D01*
D10*
X136207285Y-102365980D02*
X136159666Y-102413600D01*
X136159666Y-102413600D02*
X136064428Y-102461219D01*
X136064428Y-102461219D02*
X135826333Y-102461219D01*
X135826333Y-102461219D02*
X135731095Y-102413600D01*
X135731095Y-102413600D02*
X135683476Y-102365980D01*
X135683476Y-102365980D02*
X135635857Y-102270742D01*
X135635857Y-102270742D02*
X135635857Y-102175504D01*
X135635857Y-102175504D02*
X135683476Y-102032647D01*
X135683476Y-102032647D02*
X136254904Y-101461219D01*
X136254904Y-101461219D02*
X135635857Y-101461219D01*
X135016809Y-102461219D02*
X134921571Y-102461219D01*
X134921571Y-102461219D02*
X134826333Y-102413600D01*
X134826333Y-102413600D02*
X134778714Y-102365980D01*
X134778714Y-102365980D02*
X134731095Y-102270742D01*
X134731095Y-102270742D02*
X134683476Y-102080266D01*
X134683476Y-102080266D02*
X134683476Y-101842171D01*
X134683476Y-101842171D02*
X134731095Y-101651695D01*
X134731095Y-101651695D02*
X134778714Y-101556457D01*
X134778714Y-101556457D02*
X134826333Y-101508838D01*
X134826333Y-101508838D02*
X134921571Y-101461219D01*
X134921571Y-101461219D02*
X135016809Y-101461219D01*
X135016809Y-101461219D02*
X135112047Y-101508838D01*
X135112047Y-101508838D02*
X135159666Y-101556457D01*
X135159666Y-101556457D02*
X135207285Y-101651695D01*
X135207285Y-101651695D02*
X135254904Y-101842171D01*
X135254904Y-101842171D02*
X135254904Y-102080266D01*
X135254904Y-102080266D02*
X135207285Y-102270742D01*
X135207285Y-102270742D02*
X135159666Y-102365980D01*
X135159666Y-102365980D02*
X135112047Y-102413600D01*
X135112047Y-102413600D02*
X135016809Y-102461219D01*
X134302523Y-102365980D02*
X134254904Y-102413600D01*
X134254904Y-102413600D02*
X134159666Y-102461219D01*
X134159666Y-102461219D02*
X133921571Y-102461219D01*
X133921571Y-102461219D02*
X133826333Y-102413600D01*
X133826333Y-102413600D02*
X133778714Y-102365980D01*
X133778714Y-102365980D02*
X133731095Y-102270742D01*
X133731095Y-102270742D02*
X133731095Y-102175504D01*
X133731095Y-102175504D02*
X133778714Y-102032647D01*
X133778714Y-102032647D02*
X134350142Y-101461219D01*
X134350142Y-101461219D02*
X133731095Y-101461219D01*
X133397761Y-102461219D02*
X132778714Y-102461219D01*
X132778714Y-102461219D02*
X133112047Y-102080266D01*
X133112047Y-102080266D02*
X132969190Y-102080266D01*
X132969190Y-102080266D02*
X132873952Y-102032647D01*
X132873952Y-102032647D02*
X132826333Y-101985028D01*
X132826333Y-101985028D02*
X132778714Y-101889790D01*
X132778714Y-101889790D02*
X132778714Y-101651695D01*
X132778714Y-101651695D02*
X132826333Y-101556457D01*
X132826333Y-101556457D02*
X132873952Y-101508838D01*
X132873952Y-101508838D02*
X132969190Y-101461219D01*
X132969190Y-101461219D02*
X133254904Y-101461219D01*
X133254904Y-101461219D02*
X133350142Y-101508838D01*
X133350142Y-101508838D02*
X133397761Y-101556457D01*
X137781380Y-101580476D02*
X136781380Y-101580476D01*
X137781380Y-101151905D02*
X137257571Y-101151905D01*
X137257571Y-101151905D02*
X137162333Y-101199524D01*
X137162333Y-101199524D02*
X137114714Y-101294762D01*
X137114714Y-101294762D02*
X137114714Y-101437619D01*
X137114714Y-101437619D02*
X137162333Y-101532857D01*
X137162333Y-101532857D02*
X137209952Y-101580476D01*
X137114714Y-100675714D02*
X138114714Y-100675714D01*
X137162333Y-100675714D02*
X137114714Y-100580476D01*
X137114714Y-100580476D02*
X137114714Y-100390000D01*
X137114714Y-100390000D02*
X137162333Y-100294762D01*
X137162333Y-100294762D02*
X137209952Y-100247143D01*
X137209952Y-100247143D02*
X137305190Y-100199524D01*
X137305190Y-100199524D02*
X137590904Y-100199524D01*
X137590904Y-100199524D02*
X137686142Y-100247143D01*
X137686142Y-100247143D02*
X137733761Y-100294762D01*
X137733761Y-100294762D02*
X137781380Y-100390000D01*
X137781380Y-100390000D02*
X137781380Y-100580476D01*
X137781380Y-100580476D02*
X137733761Y-100675714D01*
X137733761Y-99818571D02*
X137781380Y-99723333D01*
X137781380Y-99723333D02*
X137781380Y-99532857D01*
X137781380Y-99532857D02*
X137733761Y-99437619D01*
X137733761Y-99437619D02*
X137638523Y-99390000D01*
X137638523Y-99390000D02*
X137590904Y-99390000D01*
X137590904Y-99390000D02*
X137495666Y-99437619D01*
X137495666Y-99437619D02*
X137448047Y-99532857D01*
X137448047Y-99532857D02*
X137448047Y-99675714D01*
X137448047Y-99675714D02*
X137400428Y-99770952D01*
X137400428Y-99770952D02*
X137305190Y-99818571D01*
X137305190Y-99818571D02*
X137257571Y-99818571D01*
X137257571Y-99818571D02*
X137162333Y-99770952D01*
X137162333Y-99770952D02*
X137114714Y-99675714D01*
X137114714Y-99675714D02*
X137114714Y-99532857D01*
X137114714Y-99532857D02*
X137162333Y-99437619D01*
X137781380Y-98361428D02*
X136781380Y-98361428D01*
X137162333Y-98361428D02*
X137114714Y-98266190D01*
X137114714Y-98266190D02*
X137114714Y-98075714D01*
X137114714Y-98075714D02*
X137162333Y-97980476D01*
X137162333Y-97980476D02*
X137209952Y-97932857D01*
X137209952Y-97932857D02*
X137305190Y-97885238D01*
X137305190Y-97885238D02*
X137590904Y-97885238D01*
X137590904Y-97885238D02*
X137686142Y-97932857D01*
X137686142Y-97932857D02*
X137733761Y-97980476D01*
X137733761Y-97980476D02*
X137781380Y-98075714D01*
X137781380Y-98075714D02*
X137781380Y-98266190D01*
X137781380Y-98266190D02*
X137733761Y-98361428D01*
X137114714Y-97551904D02*
X137781380Y-97313809D01*
X137114714Y-97075714D02*
X137781380Y-97313809D01*
X137781380Y-97313809D02*
X138019476Y-97409047D01*
X138019476Y-97409047D02*
X138067095Y-97456666D01*
X138067095Y-97456666D02*
X138114714Y-97551904D01*
X137114714Y-95666190D02*
X137924238Y-95666190D01*
X137924238Y-95666190D02*
X138019476Y-95713809D01*
X138019476Y-95713809D02*
X138067095Y-95761428D01*
X138067095Y-95761428D02*
X138114714Y-95856666D01*
X138114714Y-95856666D02*
X138114714Y-95999523D01*
X138114714Y-95999523D02*
X138067095Y-96094761D01*
X137733761Y-95666190D02*
X137781380Y-95761428D01*
X137781380Y-95761428D02*
X137781380Y-95951904D01*
X137781380Y-95951904D02*
X137733761Y-96047142D01*
X137733761Y-96047142D02*
X137686142Y-96094761D01*
X137686142Y-96094761D02*
X137590904Y-96142380D01*
X137590904Y-96142380D02*
X137305190Y-96142380D01*
X137305190Y-96142380D02*
X137209952Y-96094761D01*
X137209952Y-96094761D02*
X137162333Y-96047142D01*
X137162333Y-96047142D02*
X137114714Y-95951904D01*
X137114714Y-95951904D02*
X137114714Y-95761428D01*
X137114714Y-95761428D02*
X137162333Y-95666190D01*
X137733761Y-94761428D02*
X137781380Y-94856666D01*
X137781380Y-94856666D02*
X137781380Y-95047142D01*
X137781380Y-95047142D02*
X137733761Y-95142380D01*
X137733761Y-95142380D02*
X137686142Y-95189999D01*
X137686142Y-95189999D02*
X137590904Y-95237618D01*
X137590904Y-95237618D02*
X137305190Y-95237618D01*
X137305190Y-95237618D02*
X137209952Y-95189999D01*
X137209952Y-95189999D02*
X137162333Y-95142380D01*
X137162333Y-95142380D02*
X137114714Y-95047142D01*
X137114714Y-95047142D02*
X137114714Y-94856666D01*
X137114714Y-94856666D02*
X137162333Y-94761428D01*
X137114714Y-94428094D02*
X137114714Y-93904285D01*
X137114714Y-93904285D02*
X137781380Y-94428094D01*
X137781380Y-94428094D02*
X137781380Y-93904285D01*
D11*
X120128428Y-100837951D02*
X120128428Y-100076047D01*
X120509380Y-100456999D02*
X119747476Y-100456999D01*
D12*
%TO.C,J0*%
X124266000Y-101645000D02*
X122936000Y-101645000D01*
X124266000Y-100315000D02*
X124266000Y-101645000D01*
X124266000Y-99045000D02*
X124266000Y-93905000D01*
X124266000Y-99045000D02*
X121606000Y-99045000D01*
X124266000Y-93905000D02*
X121606000Y-93905000D01*
X121606000Y-99045000D02*
X121606000Y-93905000D01*
%TO.C,RV0*%
X130382000Y-99660000D02*
X130382000Y-95920000D01*
X130382000Y-95920000D02*
X129002000Y-95920000D01*
X130352000Y-99660000D02*
X129972000Y-99660000D01*
X128022000Y-99660000D02*
X127502000Y-99660000D01*
X126522000Y-95920000D02*
X125342000Y-95920000D01*
X125722000Y-99660000D02*
X125342000Y-99660000D01*
X125342000Y-99660000D02*
X125342000Y-95920000D01*
%TD*%
M02*
