%TF.SameCoordinates,Original*%
%TF.FileFunction,Copper,L2,Bot*%
%TF.FilePolarity,Positive*%
%FSLAX46Y46*%
G04 Gerber Fmt 4.6, Leading zero omitted, Abs format (unit mm)*
G04 Created by KiCad (PCBNEW (7.0.0)) date 2023-08-08 03:57:15*
%MOMM*%
%LPD*%
G01*
G04 APERTURE LIST*
G04 Aperture macros list*
%AMRoundRect*
0 Rectangle with rounded corners*
0 $1 Rounding radius*
0 $2 $3 $4 $5 $6 $7 $8 $9 X,Y pos of 4 corners*
0 Add a 4 corners polygon primitive as box body*
4,1,4,$2,$3,$4,$5,$6,$7,$8,$9,$2,$3,0*
0 Add four circle primitives for the rounded corners*
1,1,$1+$1,$2,$3*
1,1,$1+$1,$4,$5*
1,1,$1+$1,$6,$7*
1,1,$1+$1,$8,$9*
0 Add four rect primitives between the rounded corners*
20,1,$1+$1,$2,$3,$4,$5,0*
20,1,$1+$1,$4,$5,$6,$7,0*
20,1,$1+$1,$6,$7,$8,$9,0*
20,1,$1+$1,$8,$9,$2,$3,0*%
G04 Aperture macros list end*
%TA.AperFunction,ComponentPad*%
%ADD10R,1.700000X1.700000*%
%TD*%
%TA.AperFunction,ComponentPad*%
%ADD11O,1.700000X1.700000*%
%TD*%
%TA.AperFunction,ComponentPad*%
%ADD12C,3.900000*%
%TD*%
%TA.AperFunction,ConnectorPad*%
%ADD13C,7.000000*%
%TD*%
%TA.AperFunction,ComponentPad*%
%ADD14RoundRect,0.249600X0.550400X0.550400X-0.550400X0.550400X-0.550400X-0.550400X0.550400X-0.550400X0*%
%TD*%
%TA.AperFunction,ComponentPad*%
%ADD15C,1.600000*%
%TD*%
%TA.AperFunction,SMDPad,CuDef*%
%ADD16RoundRect,0.291200X-0.408800X0.708800X-0.408800X-0.708800X0.408800X-0.708800X0.408800X0.708800X0*%
%TD*%
%TA.AperFunction,ViaPad*%
%ADD17C,0.800000*%
%TD*%
%TA.AperFunction,Conductor*%
%ADD18C,0.250000*%
%TD*%
G04 APERTURE END LIST*
D10*
%TO.P,J0,1,Pin_1*%
%TO.N,Net-(J0-Pad1)*%
X122935999Y-100314999D03*
D11*
%TO.P,J0,2,Pin_2*%
%TO.N,Net-(J0-Pad2)*%
X122935999Y-97774999D03*
%TO.P,J0,3,Pin_3*%
%TO.N,GND*%
X122935999Y-95234999D03*
%TD*%
D12*
%TO.P,H0,1*%
%TO.N,N/C*%
X105410000Y-97790000D03*
D13*
X105410000Y-97790000D03*
%TD*%
D14*
%TO.P,U1,1,A*%
%TO.N,Net-(J0-Pad1)*%
X135890000Y-96520000D03*
D15*
%TO.P,U1,2,K*%
%TO.N,Net-(RV0-Pad3)*%
X135890000Y-99060000D03*
%TO.P,U1,3,C*%
%TO.N,Net-(J0-Pad1)*%
X133090000Y-99060000D03*
%TO.P,U1,4,E*%
%TO.N,Net-(J0-Pad2)*%
X133090000Y-96520000D03*
%TD*%
D16*
%TO.P,R1,1*%
%TO.N,Net-(R1-Pad1)*%
X126082000Y-96390000D03*
%TO.P,R1,2*%
%TO.N,GND*%
X126082000Y-99190000D03*
%TD*%
%TO.P,R2,1*%
%TO.N,Net-(J0-Pad2)*%
X129032000Y-96390000D03*
%TO.P,R2,2*%
%TO.N,GND*%
X129032000Y-99190000D03*
%TD*%
D17*
%TO.N,Net-(J0-Pad2)*%
X127508000Y-97028000D03*
%TO.N,Net-(R1-Pad1)*%
X127762000Y-94386400D03*
%TD*%
D18*
%TO.N,Net-(J0-Pad2)*%
X127508000Y-97028000D02*
X128394000Y-97028000D01*
X128394000Y-97028000D02*
X129032000Y-96390000D01*
%TO.N,Net-(R1-Pad1)*%
X126082000Y-96390000D02*
X126082000Y-96066400D01*
X126082000Y-96066400D02*
X127762000Y-94386400D01*
%TD*%
%TA.AperFunction,Conductor*%
%TO.N,GND*%
G36*
X138341500Y-92752381D02*
G01*
X138387619Y-92798500D01*
X138404500Y-92861500D01*
X138404500Y-102718500D01*
X138387619Y-102781500D01*
X138341500Y-102827619D01*
X138278500Y-102844500D01*
X100481500Y-102844500D01*
X100418500Y-102827619D01*
X100372381Y-102781500D01*
X100355500Y-102718500D01*
X100355500Y-97790000D01*
X101396666Y-97790000D01*
X101396818Y-97793094D01*
X101413184Y-98126250D01*
X101415991Y-98183376D01*
X101416442Y-98186421D01*
X101416444Y-98186434D01*
X101449346Y-98408238D01*
X101473781Y-98572963D01*
X101474533Y-98575965D01*
X101568728Y-98952014D01*
X101568732Y-98952028D01*
X101569479Y-98955009D01*
X101570517Y-98957911D01*
X101570518Y-98957913D01*
X101701122Y-99322928D01*
X101701125Y-99322936D01*
X101702163Y-99325836D01*
X101703479Y-99328619D01*
X101703483Y-99328628D01*
X101869239Y-99679091D01*
X101870555Y-99681873D01*
X101872134Y-99684507D01*
X101872137Y-99684513D01*
X102071446Y-100017038D01*
X102073035Y-100019689D01*
X102307651Y-100336032D01*
X102572144Y-100627856D01*
X102863968Y-100892349D01*
X103180311Y-101126965D01*
X103518127Y-101329445D01*
X103874164Y-101497837D01*
X104244991Y-101630521D01*
X104627037Y-101726219D01*
X105016624Y-101784009D01*
X105410000Y-101803334D01*
X105803376Y-101784009D01*
X106192963Y-101726219D01*
X106575009Y-101630521D01*
X106945836Y-101497837D01*
X107301873Y-101329445D01*
X107639689Y-101126965D01*
X107956032Y-100892349D01*
X108247856Y-100627856D01*
X108512349Y-100336032D01*
X108746965Y-100019689D01*
X108949445Y-99681873D01*
X109117837Y-99325836D01*
X109250521Y-98955009D01*
X109346219Y-98572963D01*
X109404009Y-98183376D01*
X109423334Y-97790000D01*
X109422597Y-97775000D01*
X121572844Y-97775000D01*
X121573274Y-97780189D01*
X121589395Y-97974748D01*
X121591436Y-97999368D01*
X121646704Y-98217616D01*
X121737140Y-98423791D01*
X121860278Y-98612268D01*
X121863806Y-98616100D01*
X122003474Y-98767819D01*
X122032711Y-98821423D01*
X122033314Y-98882478D01*
X122005140Y-98936648D01*
X121954807Y-98971212D01*
X121848240Y-99010960D01*
X121848231Y-99010964D01*
X121839796Y-99014111D01*
X121832588Y-99019506D01*
X121832582Y-99019510D01*
X121729950Y-99096340D01*
X121729946Y-99096343D01*
X121722739Y-99101739D01*
X121717343Y-99108946D01*
X121717340Y-99108950D01*
X121640510Y-99211582D01*
X121640506Y-99211588D01*
X121635111Y-99218796D01*
X121631965Y-99227230D01*
X121631962Y-99227236D01*
X121586763Y-99348419D01*
X121586761Y-99348423D01*
X121584011Y-99355799D01*
X121583169Y-99363625D01*
X121583168Y-99363632D01*
X121577860Y-99413011D01*
X121577500Y-99416362D01*
X121577500Y-101213638D01*
X121577859Y-101216985D01*
X121577860Y-101216988D01*
X121583168Y-101266367D01*
X121583169Y-101266373D01*
X121584011Y-101274201D01*
X121586762Y-101281578D01*
X121586763Y-101281580D01*
X121631962Y-101402763D01*
X121631964Y-101402766D01*
X121635111Y-101411204D01*
X121640508Y-101418414D01*
X121640510Y-101418417D01*
X121698975Y-101496516D01*
X121722739Y-101528261D01*
X121839796Y-101615889D01*
X121976799Y-101666989D01*
X122037362Y-101673500D01*
X123831269Y-101673500D01*
X123834638Y-101673500D01*
X123895201Y-101666989D01*
X124032204Y-101615889D01*
X124149261Y-101528261D01*
X124236889Y-101411204D01*
X124287989Y-101274201D01*
X124294500Y-101213638D01*
X124294500Y-99940146D01*
X124874001Y-99940146D01*
X124874396Y-99947195D01*
X124888314Y-100070728D01*
X124891445Y-100084448D01*
X124946251Y-100241074D01*
X124952352Y-100253743D01*
X125040643Y-100394256D01*
X125049412Y-100405251D01*
X125166748Y-100522587D01*
X125177743Y-100531356D01*
X125318256Y-100619647D01*
X125330925Y-100625748D01*
X125487558Y-100680556D01*
X125501263Y-100683684D01*
X125624804Y-100697604D01*
X125631853Y-100698000D01*
X125811410Y-100698000D01*
X125824493Y-100694493D01*
X125828000Y-100681410D01*
X125828000Y-100681409D01*
X126336000Y-100681409D01*
X126339506Y-100694492D01*
X126352590Y-100697999D01*
X126532146Y-100697999D01*
X126539195Y-100697603D01*
X126662728Y-100683685D01*
X126676448Y-100680554D01*
X126833074Y-100625748D01*
X126845743Y-100619647D01*
X126986256Y-100531356D01*
X126997251Y-100522587D01*
X127114587Y-100405251D01*
X127123356Y-100394256D01*
X127211647Y-100253743D01*
X127217748Y-100241074D01*
X127272556Y-100084441D01*
X127275684Y-100070736D01*
X127289604Y-99947195D01*
X127290000Y-99940147D01*
X127290000Y-99940146D01*
X127824001Y-99940146D01*
X127824396Y-99947195D01*
X127838314Y-100070728D01*
X127841445Y-100084448D01*
X127896251Y-100241074D01*
X127902352Y-100253743D01*
X127990643Y-100394256D01*
X127999412Y-100405251D01*
X128116748Y-100522587D01*
X128127743Y-100531356D01*
X128268256Y-100619647D01*
X128280925Y-100625748D01*
X128437558Y-100680556D01*
X128451263Y-100683684D01*
X128574804Y-100697604D01*
X128581853Y-100698000D01*
X128761410Y-100698000D01*
X128774493Y-100694493D01*
X128778000Y-100681410D01*
X128778000Y-100681409D01*
X129286000Y-100681409D01*
X129289506Y-100694492D01*
X129302590Y-100697999D01*
X129482146Y-100697999D01*
X129489195Y-100697603D01*
X129612728Y-100683685D01*
X129626448Y-100680554D01*
X129783074Y-100625748D01*
X129795743Y-100619647D01*
X129936256Y-100531356D01*
X129947251Y-100522587D01*
X130064587Y-100405251D01*
X130073356Y-100394256D01*
X130161647Y-100253743D01*
X130167748Y-100241074D01*
X130222556Y-100084441D01*
X130225684Y-100070736D01*
X130239604Y-99947195D01*
X130240000Y-99940147D01*
X130240000Y-99460590D01*
X130236493Y-99447506D01*
X130223410Y-99444000D01*
X129302590Y-99444000D01*
X129289506Y-99447506D01*
X129286000Y-99460590D01*
X129286000Y-100681409D01*
X128778000Y-100681409D01*
X128778000Y-99460590D01*
X128774493Y-99447506D01*
X128761410Y-99444000D01*
X127840591Y-99444000D01*
X127827507Y-99447506D01*
X127824001Y-99460590D01*
X127824001Y-99940146D01*
X127290000Y-99940146D01*
X127290000Y-99460590D01*
X127286493Y-99447506D01*
X127273410Y-99444000D01*
X126352590Y-99444000D01*
X126339506Y-99447506D01*
X126336000Y-99460590D01*
X126336000Y-100681409D01*
X125828000Y-100681409D01*
X125828000Y-99460590D01*
X125824493Y-99447506D01*
X125811410Y-99444000D01*
X124890591Y-99444000D01*
X124877507Y-99447506D01*
X124874001Y-99460590D01*
X124874001Y-99940146D01*
X124294500Y-99940146D01*
X124294500Y-99416362D01*
X124287989Y-99355799D01*
X124236889Y-99218796D01*
X124149261Y-99101739D01*
X124142049Y-99096340D01*
X124093505Y-99060000D01*
X131776502Y-99060000D01*
X131776981Y-99065475D01*
X131790394Y-99218796D01*
X131796457Y-99288087D01*
X131855716Y-99509243D01*
X131952477Y-99716749D01*
X131955630Y-99721252D01*
X131955633Y-99721257D01*
X132032123Y-99830496D01*
X132083802Y-99904300D01*
X132245700Y-100066198D01*
X132433251Y-100197523D01*
X132640757Y-100294284D01*
X132861913Y-100353543D01*
X133090000Y-100373498D01*
X133318087Y-100353543D01*
X133539243Y-100294284D01*
X133746749Y-100197523D01*
X133934300Y-100066198D01*
X134096198Y-99904300D01*
X134227523Y-99716749D01*
X134324284Y-99509243D01*
X134368293Y-99344999D01*
X134400905Y-99288515D01*
X134457389Y-99255904D01*
X134522611Y-99255904D01*
X134579095Y-99288515D01*
X134611706Y-99344999D01*
X134655716Y-99509243D01*
X134752477Y-99716749D01*
X134755630Y-99721252D01*
X134755633Y-99721257D01*
X134832123Y-99830496D01*
X134883802Y-99904300D01*
X135045700Y-100066198D01*
X135233251Y-100197523D01*
X135440757Y-100294284D01*
X135661913Y-100353543D01*
X135890000Y-100373498D01*
X136118087Y-100353543D01*
X136339243Y-100294284D01*
X136546749Y-100197523D01*
X136734300Y-100066198D01*
X136896198Y-99904300D01*
X137027523Y-99716749D01*
X137124284Y-99509243D01*
X137183543Y-99288087D01*
X137203498Y-99060000D01*
X137183543Y-98831913D01*
X137124284Y-98610757D01*
X137027523Y-98403251D01*
X136896198Y-98215700D01*
X136734300Y-98053802D01*
X136666295Y-98006184D01*
X136622870Y-97952876D01*
X136613897Y-97884709D01*
X136642045Y-97821979D01*
X136698930Y-97783369D01*
X136762968Y-97762149D01*
X136913802Y-97669114D01*
X137039114Y-97543802D01*
X137132149Y-97392968D01*
X137187893Y-97224745D01*
X137198500Y-97120918D01*
X137198500Y-95919082D01*
X137187893Y-95815255D01*
X137132149Y-95647032D01*
X137039114Y-95496198D01*
X136913802Y-95370886D01*
X136907554Y-95367032D01*
X136769212Y-95281702D01*
X136769209Y-95281700D01*
X136762968Y-95277851D01*
X136756000Y-95275542D01*
X136601272Y-95224269D01*
X136601264Y-95224267D01*
X136594745Y-95222107D01*
X136587912Y-95221409D01*
X136587908Y-95221408D01*
X136494102Y-95211825D01*
X136494096Y-95211824D01*
X136490918Y-95211500D01*
X135289082Y-95211500D01*
X135285904Y-95211824D01*
X135285897Y-95211825D01*
X135192091Y-95221408D01*
X135192085Y-95221409D01*
X135185255Y-95222107D01*
X135178737Y-95224266D01*
X135178727Y-95224269D01*
X135023999Y-95275542D01*
X135023996Y-95275543D01*
X135017032Y-95277851D01*
X135010793Y-95281699D01*
X135010787Y-95281702D01*
X134872445Y-95367032D01*
X134872440Y-95367035D01*
X134866198Y-95370886D01*
X134861008Y-95376075D01*
X134861004Y-95376079D01*
X134746079Y-95491004D01*
X134746075Y-95491008D01*
X134740886Y-95496198D01*
X134737035Y-95502440D01*
X134737032Y-95502445D01*
X134651702Y-95640787D01*
X134651699Y-95640793D01*
X134647851Y-95647032D01*
X134645543Y-95653996D01*
X134645542Y-95653999D01*
X134594269Y-95808727D01*
X134594266Y-95808737D01*
X134592107Y-95815255D01*
X134591409Y-95822085D01*
X134591408Y-95822091D01*
X134581825Y-95915897D01*
X134581500Y-95919082D01*
X134581500Y-95922288D01*
X134581500Y-96073634D01*
X134567263Y-96131814D01*
X134527771Y-96176847D01*
X134471946Y-96198556D01*
X134412406Y-96192035D01*
X134362603Y-96158758D01*
X134333793Y-96106245D01*
X134332821Y-96102619D01*
X134324284Y-96070757D01*
X134227523Y-95863251D01*
X134096198Y-95675700D01*
X133934300Y-95513802D01*
X133860496Y-95462123D01*
X133751257Y-95385633D01*
X133751252Y-95385630D01*
X133746749Y-95382477D01*
X133741761Y-95380151D01*
X133544225Y-95288039D01*
X133544223Y-95288038D01*
X133539243Y-95285716D01*
X133318087Y-95226457D01*
X133312611Y-95225977D01*
X133312606Y-95225977D01*
X133095475Y-95206981D01*
X133090000Y-95206502D01*
X133084525Y-95206981D01*
X132867393Y-95225977D01*
X132867386Y-95225978D01*
X132861913Y-95226457D01*
X132856599Y-95227880D01*
X132856598Y-95227881D01*
X132646067Y-95284293D01*
X132646065Y-95284293D01*
X132640757Y-95285716D01*
X132635779Y-95288036D01*
X132635774Y-95288039D01*
X132438238Y-95380151D01*
X132438233Y-95380153D01*
X132433251Y-95382477D01*
X132428752Y-95385627D01*
X132428742Y-95385633D01*
X132250211Y-95510643D01*
X132250208Y-95510645D01*
X132245700Y-95513802D01*
X132241808Y-95517693D01*
X132241802Y-95517699D01*
X132087699Y-95671802D01*
X132087693Y-95671808D01*
X132083802Y-95675700D01*
X132080645Y-95680208D01*
X132080643Y-95680211D01*
X131955633Y-95858742D01*
X131955627Y-95858752D01*
X131952477Y-95863251D01*
X131950153Y-95868233D01*
X131950151Y-95868238D01*
X131858039Y-96065774D01*
X131858036Y-96065779D01*
X131855716Y-96070757D01*
X131854293Y-96076065D01*
X131854293Y-96076067D01*
X131839356Y-96131814D01*
X131796457Y-96291913D01*
X131795978Y-96297386D01*
X131795977Y-96297393D01*
X131787534Y-96393900D01*
X131776502Y-96520000D01*
X131776981Y-96525475D01*
X131785687Y-96624991D01*
X131796457Y-96748087D01*
X131855716Y-96969243D01*
X131858038Y-96974223D01*
X131858039Y-96974225D01*
X131935422Y-97140174D01*
X131952477Y-97176749D01*
X131955630Y-97181252D01*
X131955633Y-97181257D01*
X132018365Y-97270847D01*
X132083802Y-97364300D01*
X132245700Y-97526198D01*
X132433251Y-97657523D01*
X132446970Y-97663920D01*
X132472457Y-97675805D01*
X132525474Y-97722300D01*
X132545207Y-97790000D01*
X132525474Y-97857700D01*
X132472457Y-97904195D01*
X132438238Y-97920151D01*
X132438233Y-97920153D01*
X132433251Y-97922477D01*
X132428752Y-97925627D01*
X132428742Y-97925633D01*
X132250211Y-98050643D01*
X132250208Y-98050645D01*
X132245700Y-98053802D01*
X132241808Y-98057693D01*
X132241802Y-98057699D01*
X132087699Y-98211802D01*
X132087693Y-98211808D01*
X132083802Y-98215700D01*
X132080645Y-98220208D01*
X132080643Y-98220211D01*
X131955633Y-98398742D01*
X131955627Y-98398752D01*
X131952477Y-98403251D01*
X131950153Y-98408233D01*
X131950151Y-98408238D01*
X131858039Y-98605774D01*
X131858036Y-98605779D01*
X131855716Y-98610757D01*
X131796457Y-98831913D01*
X131795978Y-98837386D01*
X131795977Y-98837393D01*
X131780792Y-99010960D01*
X131776502Y-99060000D01*
X124093505Y-99060000D01*
X124039417Y-99019510D01*
X124039414Y-99019508D01*
X124032204Y-99014111D01*
X124023765Y-99010963D01*
X124023757Y-99010959D01*
X123917193Y-98971212D01*
X123866859Y-98936648D01*
X123838685Y-98882478D01*
X123839288Y-98821422D01*
X123868523Y-98767821D01*
X124011722Y-98612268D01*
X124134860Y-98423791D01*
X124225296Y-98217616D01*
X124280564Y-97999368D01*
X124299156Y-97775000D01*
X124280564Y-97550632D01*
X124225296Y-97332384D01*
X124140992Y-97140188D01*
X124873500Y-97140188D01*
X124873501Y-97143708D01*
X124873895Y-97147207D01*
X124873896Y-97147220D01*
X124882631Y-97224745D01*
X124888617Y-97277876D01*
X124890952Y-97284549D01*
X124890953Y-97284553D01*
X124945798Y-97441292D01*
X124945800Y-97441296D01*
X124948136Y-97447972D01*
X124951898Y-97453960D01*
X124951900Y-97453963D01*
X125015905Y-97555827D01*
X125044013Y-97600560D01*
X125049021Y-97605568D01*
X125144712Y-97701259D01*
X125177324Y-97757743D01*
X125177324Y-97822965D01*
X125144712Y-97879449D01*
X125049412Y-97974748D01*
X125040643Y-97985743D01*
X124952352Y-98126256D01*
X124946251Y-98138925D01*
X124891443Y-98295558D01*
X124888315Y-98309263D01*
X124874395Y-98432804D01*
X124874000Y-98439853D01*
X124874000Y-98919410D01*
X124877506Y-98932493D01*
X124890590Y-98936000D01*
X127273409Y-98936000D01*
X127286492Y-98932493D01*
X127289999Y-98919410D01*
X127289999Y-98439855D01*
X127289603Y-98432804D01*
X127275685Y-98309271D01*
X127272554Y-98295551D01*
X127217748Y-98138925D01*
X127211644Y-98126250D01*
X127201551Y-98110187D01*
X127182779Y-98054821D01*
X127191016Y-97996942D01*
X127224488Y-97949011D01*
X127275991Y-97921346D01*
X127334435Y-97919904D01*
X127412513Y-97936500D01*
X127596884Y-97936500D01*
X127603487Y-97936500D01*
X127790288Y-97896794D01*
X127790562Y-97898084D01*
X127843189Y-97894414D01*
X127898924Y-97919274D01*
X127936438Y-97967409D01*
X127946933Y-98027527D01*
X127927945Y-98085525D01*
X127902353Y-98126254D01*
X127896251Y-98138925D01*
X127841443Y-98295558D01*
X127838315Y-98309263D01*
X127824395Y-98432804D01*
X127824000Y-98439853D01*
X127824000Y-98919410D01*
X127827506Y-98932493D01*
X127840590Y-98936000D01*
X130223409Y-98936000D01*
X130236492Y-98932493D01*
X130239999Y-98919410D01*
X130239999Y-98439855D01*
X130239603Y-98432804D01*
X130225685Y-98309271D01*
X130222554Y-98295551D01*
X130167748Y-98138925D01*
X130161647Y-98126256D01*
X130073356Y-97985743D01*
X130064587Y-97974748D01*
X129969288Y-97879449D01*
X129936676Y-97822965D01*
X129936676Y-97757743D01*
X129969288Y-97701259D01*
X130016181Y-97654366D01*
X130069987Y-97600560D01*
X130165864Y-97447972D01*
X130225383Y-97277876D01*
X130240500Y-97143709D01*
X130240499Y-95636292D01*
X130225383Y-95502124D01*
X130165864Y-95332028D01*
X130132673Y-95279204D01*
X130073754Y-95185435D01*
X130073753Y-95185434D01*
X130069987Y-95179440D01*
X129942560Y-95052013D01*
X129936566Y-95048247D01*
X129936564Y-95048245D01*
X129795963Y-94959900D01*
X129795960Y-94959898D01*
X129789972Y-94956136D01*
X129783296Y-94953800D01*
X129783292Y-94953798D01*
X129626555Y-94898954D01*
X129626554Y-94898953D01*
X129619876Y-94896617D01*
X129612847Y-94895825D01*
X129489219Y-94881895D01*
X129489210Y-94881894D01*
X129485709Y-94881500D01*
X129482174Y-94881500D01*
X128729808Y-94881500D01*
X128672605Y-94867767D01*
X128627871Y-94829560D01*
X128605359Y-94775210D01*
X128609974Y-94716569D01*
X128655542Y-94576328D01*
X128675504Y-94386400D01*
X128655542Y-94196472D01*
X128618829Y-94083483D01*
X128598569Y-94021128D01*
X128598568Y-94021126D01*
X128596527Y-94014844D01*
X128501040Y-93849456D01*
X128373253Y-93707534D01*
X128367911Y-93703653D01*
X128367908Y-93703650D01*
X128290057Y-93647088D01*
X128218752Y-93595282D01*
X128044288Y-93517606D01*
X128037835Y-93516234D01*
X128037831Y-93516233D01*
X127863943Y-93479272D01*
X127863940Y-93479271D01*
X127857487Y-93477900D01*
X127666513Y-93477900D01*
X127660060Y-93479271D01*
X127660056Y-93479272D01*
X127486168Y-93516233D01*
X127486161Y-93516235D01*
X127479712Y-93517606D01*
X127473682Y-93520290D01*
X127473681Y-93520291D01*
X127311278Y-93592597D01*
X127311275Y-93592598D01*
X127305248Y-93595282D01*
X127299907Y-93599162D01*
X127299906Y-93599163D01*
X127156091Y-93703650D01*
X127156083Y-93703656D01*
X127150747Y-93707534D01*
X127146330Y-93712439D01*
X127146325Y-93712444D01*
X127071100Y-93795991D01*
X127022960Y-93849456D01*
X127019661Y-93855169D01*
X127019658Y-93855174D01*
X126942048Y-93989599D01*
X126927473Y-94014844D01*
X126925434Y-94021118D01*
X126925430Y-94021128D01*
X126870497Y-94190194D01*
X126870495Y-94190201D01*
X126868458Y-94196472D01*
X126867768Y-94203031D01*
X126867768Y-94203034D01*
X126851093Y-94361690D01*
X126839509Y-94402763D01*
X126814879Y-94437614D01*
X126407899Y-94844595D01*
X126367021Y-94871909D01*
X126318803Y-94881500D01*
X125631828Y-94881500D01*
X125631810Y-94881500D01*
X125628292Y-94881501D01*
X125624793Y-94881895D01*
X125624779Y-94881896D01*
X125501151Y-94895825D01*
X125501148Y-94895825D01*
X125494124Y-94896617D01*
X125487451Y-94898951D01*
X125487446Y-94898953D01*
X125330707Y-94953798D01*
X125330699Y-94953801D01*
X125324028Y-94956136D01*
X125318042Y-94959896D01*
X125318036Y-94959900D01*
X125177435Y-95048245D01*
X125177428Y-95048250D01*
X125171440Y-95052013D01*
X125166435Y-95057017D01*
X125166431Y-95057021D01*
X125049021Y-95174431D01*
X125049017Y-95174435D01*
X125044013Y-95179440D01*
X125040250Y-95185428D01*
X125040245Y-95185435D01*
X124951900Y-95326036D01*
X124951896Y-95326042D01*
X124948136Y-95332028D01*
X124945801Y-95338699D01*
X124945798Y-95338707D01*
X124890954Y-95495444D01*
X124888617Y-95502124D01*
X124887825Y-95509150D01*
X124887825Y-95509152D01*
X124873895Y-95632780D01*
X124873894Y-95632790D01*
X124873500Y-95636291D01*
X124873500Y-95639824D01*
X124873500Y-95639825D01*
X124873500Y-97140171D01*
X124873500Y-97140188D01*
X124140992Y-97140188D01*
X124134860Y-97126209D01*
X124011722Y-96937732D01*
X123923082Y-96841444D01*
X123862772Y-96775930D01*
X123862767Y-96775925D01*
X123859240Y-96772094D01*
X123681576Y-96633811D01*
X123677000Y-96631334D01*
X123676990Y-96631328D01*
X123647794Y-96615529D01*
X123599521Y-96569213D01*
X123581762Y-96504715D01*
X123599522Y-96440217D01*
X123647794Y-96393900D01*
X123676723Y-96378244D01*
X123685411Y-96372568D01*
X123854788Y-96240737D01*
X123862432Y-96233700D01*
X124007789Y-96075799D01*
X124014177Y-96067593D01*
X124131568Y-95887913D01*
X124136511Y-95878778D01*
X124222729Y-95682223D01*
X124226099Y-95672408D01*
X124269013Y-95502943D01*
X124269248Y-95491565D01*
X124258160Y-95489000D01*
X121613840Y-95489000D01*
X121602751Y-95491565D01*
X121602986Y-95502943D01*
X121645900Y-95672408D01*
X121649270Y-95682223D01*
X121735488Y-95878778D01*
X121740431Y-95887913D01*
X121857822Y-96067593D01*
X121864210Y-96075799D01*
X122009567Y-96233700D01*
X122017211Y-96240737D01*
X122186588Y-96372568D01*
X122195281Y-96378247D01*
X122224206Y-96393901D01*
X122272478Y-96440217D01*
X122290237Y-96504715D01*
X122272478Y-96569212D01*
X122224207Y-96615528D01*
X122212701Y-96621755D01*
X122195000Y-96631334D01*
X122194994Y-96631337D01*
X122190424Y-96633811D01*
X122186313Y-96637010D01*
X122186311Y-96637012D01*
X122016878Y-96768888D01*
X122016872Y-96768893D01*
X122012760Y-96772094D01*
X122009237Y-96775919D01*
X122009227Y-96775930D01*
X121863806Y-96933899D01*
X121863802Y-96933902D01*
X121860278Y-96937732D01*
X121857430Y-96942090D01*
X121857427Y-96942095D01*
X121739992Y-97121843D01*
X121737140Y-97126209D01*
X121735048Y-97130978D01*
X121735046Y-97130982D01*
X121648799Y-97327606D01*
X121648796Y-97327614D01*
X121646704Y-97332384D01*
X121645423Y-97337440D01*
X121645422Y-97337445D01*
X121592717Y-97545573D01*
X121591436Y-97550632D01*
X121591006Y-97555820D01*
X121591005Y-97555827D01*
X121578954Y-97701259D01*
X121572844Y-97775000D01*
X109422597Y-97775000D01*
X109404009Y-97396624D01*
X109346219Y-97007037D01*
X109250521Y-96624991D01*
X109117837Y-96254164D01*
X108949445Y-95898127D01*
X108746965Y-95560311D01*
X108512349Y-95243968D01*
X108271684Y-94978434D01*
X121602751Y-94978434D01*
X121613840Y-94981000D01*
X122665410Y-94981000D01*
X122678493Y-94977493D01*
X122682000Y-94964410D01*
X123190000Y-94964410D01*
X123193506Y-94977493D01*
X123206590Y-94981000D01*
X124258160Y-94981000D01*
X124269248Y-94978434D01*
X124269013Y-94967056D01*
X124226099Y-94797591D01*
X124222729Y-94787776D01*
X124136511Y-94591221D01*
X124131568Y-94582086D01*
X124014177Y-94402406D01*
X124007789Y-94394200D01*
X123862432Y-94236299D01*
X123854788Y-94229262D01*
X123685411Y-94097431D01*
X123676718Y-94091752D01*
X123487957Y-93989599D01*
X123478440Y-93985424D01*
X123275442Y-93915735D01*
X123265372Y-93913185D01*
X123203538Y-93902867D01*
X123192401Y-93903443D01*
X123190000Y-93914336D01*
X123190000Y-94964410D01*
X122682000Y-94964410D01*
X122682000Y-93914336D01*
X122679598Y-93903443D01*
X122668461Y-93902867D01*
X122606627Y-93913185D01*
X122596557Y-93915735D01*
X122393559Y-93985424D01*
X122384042Y-93989599D01*
X122195281Y-94091752D01*
X122186588Y-94097431D01*
X122017211Y-94229262D01*
X122009567Y-94236299D01*
X121864210Y-94394200D01*
X121857822Y-94402406D01*
X121740431Y-94582086D01*
X121735488Y-94591221D01*
X121649270Y-94787776D01*
X121645900Y-94797591D01*
X121602986Y-94967056D01*
X121602751Y-94978434D01*
X108271684Y-94978434D01*
X108247856Y-94952144D01*
X108186591Y-94896617D01*
X107958328Y-94689732D01*
X107956032Y-94687651D01*
X107639689Y-94453035D01*
X107487290Y-94361690D01*
X107304513Y-94252137D01*
X107304507Y-94252134D01*
X107301873Y-94250555D01*
X107299091Y-94249239D01*
X106948628Y-94083483D01*
X106948619Y-94083479D01*
X106945836Y-94082163D01*
X106942936Y-94081125D01*
X106942928Y-94081122D01*
X106577913Y-93950518D01*
X106577911Y-93950517D01*
X106575009Y-93949479D01*
X106572028Y-93948732D01*
X106572014Y-93948728D01*
X106195965Y-93854533D01*
X106192963Y-93853781D01*
X106189896Y-93853326D01*
X105806434Y-93796444D01*
X105806421Y-93796442D01*
X105803376Y-93795991D01*
X105800292Y-93795839D01*
X105800287Y-93795839D01*
X105413094Y-93776818D01*
X105410000Y-93776666D01*
X105406906Y-93776818D01*
X105019712Y-93795839D01*
X105019705Y-93795839D01*
X105016624Y-93795991D01*
X105013580Y-93796442D01*
X105013565Y-93796444D01*
X104630103Y-93853326D01*
X104630099Y-93853326D01*
X104627037Y-93853781D01*
X104624038Y-93854532D01*
X104624034Y-93854533D01*
X104247985Y-93948728D01*
X104247965Y-93948733D01*
X104244991Y-93949479D01*
X104242093Y-93950515D01*
X104242086Y-93950518D01*
X103877071Y-94081122D01*
X103877055Y-94081128D01*
X103874164Y-94082163D01*
X103871387Y-94083476D01*
X103871371Y-94083483D01*
X103520908Y-94249239D01*
X103520896Y-94249245D01*
X103518127Y-94250555D01*
X103515500Y-94252129D01*
X103515486Y-94252137D01*
X103182961Y-94451446D01*
X103182951Y-94451452D01*
X103180311Y-94453035D01*
X103177835Y-94454871D01*
X103177825Y-94454878D01*
X102866458Y-94685804D01*
X102863968Y-94687651D01*
X102861681Y-94689723D01*
X102861671Y-94689732D01*
X102630831Y-94898953D01*
X102572144Y-94952144D01*
X102570082Y-94954418D01*
X102570073Y-94954428D01*
X102309732Y-95241671D01*
X102309723Y-95241681D01*
X102307651Y-95243968D01*
X102305807Y-95246454D01*
X102305804Y-95246458D01*
X102074878Y-95557825D01*
X102074871Y-95557835D01*
X102073035Y-95560311D01*
X102071452Y-95562951D01*
X102071446Y-95562961D01*
X101872137Y-95895486D01*
X101872129Y-95895500D01*
X101870555Y-95898127D01*
X101869245Y-95900896D01*
X101869239Y-95900908D01*
X101703483Y-96251371D01*
X101703476Y-96251387D01*
X101702163Y-96254164D01*
X101701128Y-96257055D01*
X101701122Y-96257071D01*
X101570518Y-96622086D01*
X101569479Y-96624991D01*
X101568733Y-96627965D01*
X101568728Y-96627985D01*
X101483248Y-96969243D01*
X101473781Y-97007037D01*
X101473326Y-97010099D01*
X101473326Y-97010103D01*
X101416444Y-97393565D01*
X101416442Y-97393580D01*
X101415991Y-97396624D01*
X101415839Y-97399705D01*
X101415839Y-97399712D01*
X101408425Y-97550632D01*
X101396666Y-97790000D01*
X100355500Y-97790000D01*
X100355500Y-92861500D01*
X100372381Y-92798500D01*
X100418500Y-92752381D01*
X100481500Y-92735500D01*
X138278500Y-92735500D01*
X138341500Y-92752381D01*
G37*
%TD.AperFunction*%
%TD*%
M02*
