%TF.SameCoordinates,Original*%
%TF.FileFunction,Copper,L1,Top*%
%TF.FilePolarity,Positive*%
%FSLAX46Y46*%
G04 Gerber Fmt 4.6, Leading zero omitted, Abs format (unit mm)*
%MOMM*%
%LPD*%
G01*
G04 APERTURE LIST*
G04 Aperture macros list*
%AMRoundRect*
0 Rectangle with rounded corners*
0 $1 Rounding radius*
0 $2 $3 $4 $5 $6 $7 $8 $9 X,Y pos of 4 corners*
0 Add a 4 corners polygon primitive as box body*
4,1,4,$2,$3,$4,$5,$6,$7,$8,$9,$2,$3,0*
0 Add four circle primitives for the rounded corners*
1,1,$1+$1,$2,$3*
1,1,$1+$1,$4,$5*
1,1,$1+$1,$6,$7*
1,1,$1+$1,$8,$9*
0 Add four rect primitives between the rounded corners*
20,1,$1+$1,$2,$3,$4,$5,0*
20,1,$1+$1,$4,$5,$6,$7,0*
20,1,$1+$1,$6,$7,$8,$9,0*
20,1,$1+$1,$8,$9,$2,$3,0*%
G04 Aperture macros list end*
%TA.AperFunction,SMDPad,CuDef*%
%ADD10RoundRect,0.280800X-0.394200X0.469200X-0.394200X-0.469200X0.394200X-0.469200X0.394200X0.469200X0*%
%TD*%
%TA.AperFunction,SMDPad,CuDef*%
%ADD11RoundRect,0.280800X0.394200X-0.469200X0.394200X0.469200X-0.394200X0.469200X-0.394200X-0.469200X0*%
%TD*%
%TA.AperFunction,ComponentPad*%
%ADD12R,1.700000X1.700000*%
%TD*%
%TA.AperFunction,ComponentPad*%
%ADD13C,1.700000*%
%TD*%
%TA.AperFunction,Conductor*%
%ADD14C,0.200000*%
%TD*%
%TA.AperFunction,Conductor*%
%ADD15C,0.400000*%
%TD*%
%TA.AperFunction,Conductor*%
%ADD16C,0.300000*%
%TD*%
G04 APERTURE END LIST*
D10*
%TO.P,R2,1*%
%TO.N,Net-(J1-Pin_2)*%
X132461000Y-44520000D03*
%TO.P,R2,2*%
%TO.N,GND*%
X132461000Y-46920000D03*
%TD*%
%TO.P,R8,1*%
%TO.N,Net-(J1-Pin_8)*%
X144653000Y-44520000D03*
%TO.P,R8,2*%
%TO.N,GND*%
X144653000Y-46920000D03*
%TD*%
D11*
%TO.P,R9,1*%
%TO.N,Net-(J6-Pin_1)*%
X130429000Y-57791200D03*
%TO.P,R9,2*%
%TO.N,GND*%
X130429000Y-55391200D03*
%TD*%
%TO.P,R15,1*%
%TO.N,Net-(J6-Pin_7)*%
X142621000Y-57785000D03*
%TO.P,R15,2*%
%TO.N,GND*%
X142621000Y-55385000D03*
%TD*%
D12*
%TO.P,J9,1,Pin_1*%
%TO.N,GND*%
X127000000Y-66040000D03*
D13*
%TO.P,J9,2,Pin_2*%
X129540000Y-66040000D03*
%TO.P,J9,3,Pin_3*%
X132080000Y-66040000D03*
%TO.P,J9,4,Pin_4*%
X134620000Y-66040000D03*
%TO.P,J9,5,Pin_5*%
X137160000Y-66040000D03*
%TO.P,J9,6,Pin_6*%
X139700000Y-66040000D03*
%TO.P,J9,7,Pin_7*%
X142240000Y-66040000D03*
%TO.P,J9,8,Pin_8*%
X144780000Y-66040000D03*
%TD*%
D10*
%TO.P,R3,1*%
%TO.N,Net-(J1-Pin_3)*%
X134493000Y-44520000D03*
%TO.P,R3,2*%
%TO.N,GND*%
X134493000Y-46920000D03*
%TD*%
D11*
%TO.P,R16,1*%
%TO.N,Net-(J6-Pin_8)*%
X144653000Y-57785000D03*
%TO.P,R16,2*%
%TO.N,GND*%
X144653000Y-55385000D03*
%TD*%
D10*
%TO.P,R7,1*%
%TO.N,Net-(J1-Pin_7)*%
X142621000Y-44520000D03*
%TO.P,R7,2*%
%TO.N,GND*%
X142621000Y-46920000D03*
%TD*%
D11*
%TO.P,R10,1*%
%TO.N,Net-(J6-Pin_2)*%
X132461000Y-57791200D03*
%TO.P,R10,2*%
%TO.N,GND*%
X132461000Y-55391200D03*
%TD*%
D12*
%TO.P,J10,1,Pin_1*%
%TO.N,Net-(J10-Pin_1)*%
X127000000Y-68580000D03*
D13*
%TO.P,J10,2,Pin_2*%
X129540000Y-68580000D03*
%TO.P,J10,3,Pin_3*%
X132080000Y-68580000D03*
%TO.P,J10,4,Pin_4*%
X134620000Y-68580000D03*
%TO.P,J10,5,Pin_5*%
X137160000Y-68580000D03*
%TO.P,J10,6,Pin_6*%
X139700000Y-68580000D03*
%TO.P,J10,7,Pin_7*%
X142240000Y-68580000D03*
%TO.P,J10,8,Pin_8*%
X144780000Y-68580000D03*
%TD*%
D12*
%TO.P,J2,1,Pin_1*%
%TO.N,Net-(J1-Pin_1)*%
X127000000Y-40640000D03*
D13*
%TO.P,J2,2,Pin_2*%
%TO.N,Net-(J1-Pin_2)*%
X129540000Y-40640000D03*
%TO.P,J2,3,Pin_3*%
%TO.N,Net-(J1-Pin_3)*%
X132080000Y-40640000D03*
%TO.P,J2,4,Pin_4*%
%TO.N,Net-(J1-Pin_4)*%
X134620000Y-40640000D03*
%TO.P,J2,5,Pin_5*%
%TO.N,Net-(J1-Pin_5)*%
X137160000Y-40640000D03*
%TO.P,J2,6,Pin_6*%
%TO.N,Net-(J1-Pin_6)*%
X139700000Y-40640000D03*
%TO.P,J2,7,Pin_7*%
%TO.N,Net-(J1-Pin_7)*%
X142240000Y-40640000D03*
%TO.P,J2,8,Pin_8*%
%TO.N,Net-(J1-Pin_8)*%
X144780000Y-40640000D03*
%TD*%
D11*
%TO.P,R11,1*%
%TO.N,Net-(J6-Pin_3)*%
X134493000Y-57791200D03*
%TO.P,R11,2*%
%TO.N,GND*%
X134493000Y-55391200D03*
%TD*%
D10*
%TO.P,R1,1*%
%TO.N,Net-(J1-Pin_1)*%
X130429000Y-44520000D03*
%TO.P,R1,2*%
%TO.N,GND*%
X130429000Y-46920000D03*
%TD*%
D12*
%TO.P,J7,1,Pin_1*%
%TO.N,Net-(J6-Pin_1)*%
X127000000Y-63500000D03*
D13*
%TO.P,J7,2,Pin_2*%
%TO.N,Net-(J6-Pin_2)*%
X129540000Y-63500000D03*
%TO.P,J7,3,Pin_3*%
%TO.N,Net-(J6-Pin_3)*%
X132080000Y-63500000D03*
%TO.P,J7,4,Pin_4*%
%TO.N,Net-(J6-Pin_4)*%
X134620000Y-63500000D03*
%TO.P,J7,5,Pin_5*%
%TO.N,Net-(J6-Pin_5)*%
X137160000Y-63500000D03*
%TO.P,J7,6,Pin_6*%
%TO.N,Net-(J6-Pin_6)*%
X139700000Y-63500000D03*
%TO.P,J7,7,Pin_7*%
%TO.N,Net-(J6-Pin_7)*%
X142240000Y-63500000D03*
%TO.P,J7,8,Pin_8*%
%TO.N,Net-(J6-Pin_8)*%
X144780000Y-63500000D03*
%TD*%
D10*
%TO.P,R4,1*%
%TO.N,Net-(J1-Pin_4)*%
X136525000Y-44520000D03*
%TO.P,R4,2*%
%TO.N,GND*%
X136525000Y-46920000D03*
%TD*%
D12*
%TO.P,J5,1,Pin_1*%
%TO.N,Net-(J3-Pin_2)*%
X127000000Y-35560000D03*
D13*
%TO.P,J5,2,Pin_2*%
X129540000Y-35560000D03*
%TO.P,J5,3,Pin_3*%
X132080000Y-35560000D03*
%TO.P,J5,4,Pin_4*%
X134620000Y-35560000D03*
%TO.P,J5,5,Pin_5*%
X137160000Y-35560000D03*
%TO.P,J5,6,Pin_6*%
X139700000Y-35560000D03*
%TO.P,J5,7,Pin_7*%
X142240000Y-35560000D03*
%TO.P,J5,8,Pin_8*%
X144780000Y-35560000D03*
%TD*%
D10*
%TO.P,R5,1*%
%TO.N,Net-(J1-Pin_5)*%
X138557000Y-44500800D03*
%TO.P,R5,2*%
%TO.N,GND*%
X138557000Y-46900800D03*
%TD*%
D12*
%TO.P,J4,1,Pin_1*%
%TO.N,GND*%
X127000000Y-38100000D03*
D13*
%TO.P,J4,2,Pin_2*%
X129540000Y-38100000D03*
%TO.P,J4,3,Pin_3*%
X132080000Y-38100000D03*
%TO.P,J4,4,Pin_4*%
X134620000Y-38100000D03*
%TO.P,J4,5,Pin_5*%
X137160000Y-38100000D03*
%TO.P,J4,6,Pin_6*%
X139700000Y-38100000D03*
%TO.P,J4,7,Pin_7*%
X142240000Y-38100000D03*
%TO.P,J4,8,Pin_8*%
X144780000Y-38100000D03*
%TD*%
D11*
%TO.P,R12,1*%
%TO.N,Net-(J6-Pin_4)*%
X136525000Y-57791200D03*
%TO.P,R12,2*%
%TO.N,GND*%
X136525000Y-55391200D03*
%TD*%
%TO.P,R14,1*%
%TO.N,Net-(J6-Pin_6)*%
X140589000Y-57791200D03*
%TO.P,R14,2*%
%TO.N,GND*%
X140589000Y-55391200D03*
%TD*%
D10*
%TO.P,R6,1*%
%TO.N,Net-(J1-Pin_6)*%
X140589000Y-44520000D03*
%TO.P,R6,2*%
%TO.N,GND*%
X140589000Y-46920000D03*
%TD*%
D11*
%TO.P,R13,1*%
%TO.N,Net-(J6-Pin_5)*%
X138557000Y-57791200D03*
%TO.P,R13,2*%
%TO.N,GND*%
X138557000Y-55391200D03*
%TD*%
D12*
%TO.P,J6,1,Pin_1*%
%TO.N,Net-(J6-Pin_1)*%
X127000000Y-73660000D03*
D13*
%TO.P,J6,2,Pin_2*%
%TO.N,Net-(J6-Pin_2)*%
X129540000Y-73660000D03*
%TO.P,J6,3,Pin_3*%
%TO.N,Net-(J6-Pin_3)*%
X132080000Y-73660000D03*
%TO.P,J6,4,Pin_4*%
%TO.N,Net-(J6-Pin_4)*%
X134620000Y-73660000D03*
%TO.P,J6,5,Pin_5*%
%TO.N,Net-(J6-Pin_5)*%
X137160000Y-73660000D03*
%TO.P,J6,6,Pin_6*%
%TO.N,Net-(J6-Pin_6)*%
X139700000Y-73660000D03*
%TO.P,J6,7,Pin_7*%
%TO.N,Net-(J6-Pin_7)*%
X142240000Y-73660000D03*
%TO.P,J6,8,Pin_8*%
%TO.N,Net-(J6-Pin_8)*%
X144780000Y-73660000D03*
%TD*%
D12*
%TO.P,J1,1,Pin_1*%
%TO.N,Net-(J1-Pin_1)*%
X127000000Y-50800000D03*
D13*
%TO.P,J1,2,Pin_2*%
%TO.N,Net-(J1-Pin_2)*%
X129540000Y-50800000D03*
%TO.P,J1,3,Pin_3*%
%TO.N,Net-(J1-Pin_3)*%
X132080000Y-50800000D03*
%TO.P,J1,4,Pin_4*%
%TO.N,Net-(J1-Pin_4)*%
X134620000Y-50800000D03*
%TO.P,J1,5,Pin_5*%
%TO.N,Net-(J1-Pin_5)*%
X137160000Y-50800000D03*
%TO.P,J1,6,Pin_6*%
%TO.N,Net-(J1-Pin_6)*%
X139700000Y-50800000D03*
%TO.P,J1,7,Pin_7*%
%TO.N,Net-(J1-Pin_7)*%
X142240000Y-50800000D03*
%TO.P,J1,8,Pin_8*%
%TO.N,Net-(J1-Pin_8)*%
X144780000Y-50800000D03*
%TD*%
D12*
%TO.P,J8,1,Pin_1*%
%TO.N,GND*%
X127000000Y-76200000D03*
D13*
%TO.P,J8,2,Pin_2*%
%TO.N,Net-(J10-Pin_1)*%
X127000000Y-78740000D03*
%TD*%
D12*
%TO.P,J3,1,Pin_1*%
%TO.N,GND*%
X127000000Y-48260000D03*
D13*
%TO.P,J3,2,Pin_2*%
%TO.N,Net-(J3-Pin_2)*%
X127000000Y-45720000D03*
%TD*%
D14*
%TO.N,Net-(J1-Pin_8)*%
X144653000Y-40767000D02*
X144780000Y-40640000D01*
X144653000Y-44520000D02*
X144653000Y-40767000D01*
%TO.N,Net-(J1-Pin_3)*%
X134493000Y-43053000D02*
X134493000Y-44520000D01*
X132080000Y-40640000D02*
X134493000Y-43053000D01*
%TO.N,Net-(J1-Pin_5)*%
X138557000Y-42037000D02*
X138557000Y-44500800D01*
X137160000Y-40640000D02*
X138557000Y-42037000D01*
%TO.N,Net-(J1-Pin_1)*%
X127000000Y-40640000D02*
X127000000Y-41091000D01*
X127000000Y-41091000D02*
X130429000Y-44520000D01*
%TO.N,Net-(J1-Pin_7)*%
X142621000Y-44520000D02*
X142621000Y-41021000D01*
X142621000Y-41021000D02*
X142240000Y-40640000D01*
%TO.N,Net-(J1-Pin_2)*%
X132461000Y-43561000D02*
X132461000Y-44520000D01*
X129540000Y-40640000D02*
X132461000Y-43561000D01*
%TO.N,Net-(J1-Pin_6)*%
X139700000Y-40640000D02*
X140589000Y-41529000D01*
X140589000Y-41529000D02*
X140589000Y-44520000D01*
%TO.N,Net-(J1-Pin_4)*%
X136525000Y-42545000D02*
X136525000Y-44520000D01*
X134620000Y-40640000D02*
X136525000Y-42545000D01*
D15*
%TO.N,Net-(J3-Pin_2)*%
X127000000Y-45720000D02*
X124460000Y-43180000D01*
X124460000Y-38100000D02*
X127000000Y-35560000D01*
X124460000Y-43180000D02*
X124460000Y-38100000D01*
X127000000Y-35560000D02*
X144780000Y-35560000D01*
D14*
%TO.N,Net-(J6-Pin_7)*%
X142240000Y-63500000D02*
X142240000Y-61468000D01*
X142240000Y-61468000D02*
X142621000Y-61087000D01*
X142621000Y-61087000D02*
X142621000Y-57785000D01*
%TO.N,Net-(J6-Pin_6)*%
X140589000Y-60833000D02*
X140589000Y-57791200D01*
X139700000Y-63500000D02*
X139700000Y-61722000D01*
X139700000Y-61722000D02*
X140589000Y-60833000D01*
%TO.N,Net-(J6-Pin_4)*%
X136525000Y-59944000D02*
X136525000Y-57791200D01*
X134620000Y-61849000D02*
X136525000Y-59944000D01*
X134620000Y-63500000D02*
X134620000Y-61849000D01*
%TO.N,Net-(J6-Pin_8)*%
X144780000Y-63500000D02*
X144780000Y-57912000D01*
X144780000Y-57912000D02*
X144653000Y-57785000D01*
%TO.N,Net-(J6-Pin_5)*%
X137160000Y-61722000D02*
X138557000Y-60325000D01*
X138557000Y-60325000D02*
X138557000Y-57791200D01*
X137160000Y-63500000D02*
X137160000Y-61722000D01*
%TO.N,Net-(J6-Pin_3)*%
X132080000Y-61849000D02*
X134493000Y-59436000D01*
X132080000Y-63500000D02*
X132080000Y-61849000D01*
X134493000Y-59436000D02*
X134493000Y-57791200D01*
D16*
%TO.N,Net-(J10-Pin_1)*%
X127000000Y-78740000D02*
X128270000Y-77470000D01*
X128270000Y-77470000D02*
X128270000Y-69850000D01*
D15*
X127000000Y-68580000D02*
X144780000Y-68580000D01*
D16*
X128270000Y-69850000D02*
X129540000Y-68580000D01*
D14*
%TO.N,Net-(J6-Pin_1)*%
X127000000Y-61220200D02*
X130429000Y-57791200D01*
X129800200Y-57791200D02*
X129794000Y-57785000D01*
X131064000Y-57791200D02*
X129800200Y-57791200D01*
X127000000Y-63500000D02*
X127000000Y-61220200D01*
%TO.N,Net-(J6-Pin_2)*%
X129540000Y-63500000D02*
X129540000Y-61849000D01*
X129540000Y-61849000D02*
X132461000Y-58928000D01*
X132969000Y-57791200D02*
X132969000Y-58420000D01*
X132461000Y-58928000D02*
X132461000Y-57791200D01*
D15*
%TO.N,GND*%
X126987000Y-55385000D02*
X144653000Y-55385000D01*
X145739000Y-46920000D02*
X146619000Y-46040000D01*
X144259000Y-55385000D02*
X144252800Y-55391200D01*
X144399000Y-55385000D02*
X144259000Y-55385000D01*
X126111000Y-49149000D02*
X128340000Y-46920000D01*
X143891000Y-38100000D02*
X144009182Y-38100000D01*
X126111000Y-49149000D02*
X127000000Y-48260000D01*
X124460000Y-68580000D02*
X124460000Y-73660000D01*
X127000000Y-38100000D02*
X143891000Y-38100000D01*
X128340000Y-46920000D02*
X144653000Y-46920000D01*
X124460000Y-57912000D02*
X126987000Y-55385000D01*
X127000000Y-66040000D02*
X144780000Y-66040000D01*
X146619000Y-39050000D02*
X145669000Y-38100000D01*
X146619000Y-46040000D02*
X146619000Y-39050000D01*
X124460000Y-68580000D02*
X124460000Y-57912000D01*
X145669000Y-38100000D02*
X144780000Y-38100000D01*
X124460000Y-50800000D02*
X127000000Y-48260000D01*
X124460000Y-73660000D02*
X127000000Y-76200000D01*
X124460000Y-57912000D02*
X124460000Y-50800000D01*
X144653000Y-46920000D02*
X145739000Y-46920000D01*
X124460000Y-68580000D02*
X127000000Y-66040000D01*
%TD*%
M02*
