%TF.SameCoordinates,Original*%
%TF.FileFunction,Copper,L2,Bot*%
%TF.FilePolarity,Positive*%
%FSLAX46Y46*%
G04 Gerber Fmt 4.6, Leading zero omitted, Abs format (unit mm)*
%MOMM*%
%LPD*%
G01*
G04 APERTURE LIST*
%TA.AperFunction,ComponentPad*%
%ADD10R,1.700000X1.700000*%
%TD*%
%TA.AperFunction,ComponentPad*%
%ADD11C,1.700000*%
%TD*%
%TA.AperFunction,Conductor*%
%ADD12C,0.200000*%
%TD*%
G04 APERTURE END LIST*
D10*
%TO.P,J9,1,Pin_1*%
%TO.N,GND*%
X127000000Y-66040000D03*
D11*
%TO.P,J9,2,Pin_2*%
X129540000Y-66040000D03*
%TO.P,J9,3,Pin_3*%
X132080000Y-66040000D03*
%TO.P,J9,4,Pin_4*%
X134620000Y-66040000D03*
%TO.P,J9,5,Pin_5*%
X137160000Y-66040000D03*
%TO.P,J9,6,Pin_6*%
X139700000Y-66040000D03*
%TO.P,J9,7,Pin_7*%
X142240000Y-66040000D03*
%TO.P,J9,8,Pin_8*%
X144780000Y-66040000D03*
%TD*%
D10*
%TO.P,J10,1,Pin_1*%
%TO.N,Net-(J10-Pin_1)*%
X127000000Y-68580000D03*
D11*
%TO.P,J10,2,Pin_2*%
X129540000Y-68580000D03*
%TO.P,J10,3,Pin_3*%
X132080000Y-68580000D03*
%TO.P,J10,4,Pin_4*%
X134620000Y-68580000D03*
%TO.P,J10,5,Pin_5*%
X137160000Y-68580000D03*
%TO.P,J10,6,Pin_6*%
X139700000Y-68580000D03*
%TO.P,J10,7,Pin_7*%
X142240000Y-68580000D03*
%TO.P,J10,8,Pin_8*%
X144780000Y-68580000D03*
%TD*%
D10*
%TO.P,J2,1,Pin_1*%
%TO.N,Net-(J1-Pin_1)*%
X127000000Y-40640000D03*
D11*
%TO.P,J2,2,Pin_2*%
%TO.N,Net-(J1-Pin_2)*%
X129540000Y-40640000D03*
%TO.P,J2,3,Pin_3*%
%TO.N,Net-(J1-Pin_3)*%
X132080000Y-40640000D03*
%TO.P,J2,4,Pin_4*%
%TO.N,Net-(J1-Pin_4)*%
X134620000Y-40640000D03*
%TO.P,J2,5,Pin_5*%
%TO.N,Net-(J1-Pin_5)*%
X137160000Y-40640000D03*
%TO.P,J2,6,Pin_6*%
%TO.N,Net-(J1-Pin_6)*%
X139700000Y-40640000D03*
%TO.P,J2,7,Pin_7*%
%TO.N,Net-(J1-Pin_7)*%
X142240000Y-40640000D03*
%TO.P,J2,8,Pin_8*%
%TO.N,Net-(J1-Pin_8)*%
X144780000Y-40640000D03*
%TD*%
D10*
%TO.P,J7,1,Pin_1*%
%TO.N,Net-(J6-Pin_1)*%
X127000000Y-63500000D03*
D11*
%TO.P,J7,2,Pin_2*%
%TO.N,Net-(J6-Pin_2)*%
X129540000Y-63500000D03*
%TO.P,J7,3,Pin_3*%
%TO.N,Net-(J6-Pin_3)*%
X132080000Y-63500000D03*
%TO.P,J7,4,Pin_4*%
%TO.N,Net-(J6-Pin_4)*%
X134620000Y-63500000D03*
%TO.P,J7,5,Pin_5*%
%TO.N,Net-(J6-Pin_5)*%
X137160000Y-63500000D03*
%TO.P,J7,6,Pin_6*%
%TO.N,Net-(J6-Pin_6)*%
X139700000Y-63500000D03*
%TO.P,J7,7,Pin_7*%
%TO.N,Net-(J6-Pin_7)*%
X142240000Y-63500000D03*
%TO.P,J7,8,Pin_8*%
%TO.N,Net-(J6-Pin_8)*%
X144780000Y-63500000D03*
%TD*%
D10*
%TO.P,J5,1,Pin_1*%
%TO.N,Net-(J3-Pin_2)*%
X127000000Y-35560000D03*
D11*
%TO.P,J5,2,Pin_2*%
X129540000Y-35560000D03*
%TO.P,J5,3,Pin_3*%
X132080000Y-35560000D03*
%TO.P,J5,4,Pin_4*%
X134620000Y-35560000D03*
%TO.P,J5,5,Pin_5*%
X137160000Y-35560000D03*
%TO.P,J5,6,Pin_6*%
X139700000Y-35560000D03*
%TO.P,J5,7,Pin_7*%
X142240000Y-35560000D03*
%TO.P,J5,8,Pin_8*%
X144780000Y-35560000D03*
%TD*%
D10*
%TO.P,J4,1,Pin_1*%
%TO.N,GND*%
X127000000Y-38100000D03*
D11*
%TO.P,J4,2,Pin_2*%
X129540000Y-38100000D03*
%TO.P,J4,3,Pin_3*%
X132080000Y-38100000D03*
%TO.P,J4,4,Pin_4*%
X134620000Y-38100000D03*
%TO.P,J4,5,Pin_5*%
X137160000Y-38100000D03*
%TO.P,J4,6,Pin_6*%
X139700000Y-38100000D03*
%TO.P,J4,7,Pin_7*%
X142240000Y-38100000D03*
%TO.P,J4,8,Pin_8*%
X144780000Y-38100000D03*
%TD*%
D10*
%TO.P,J6,1,Pin_1*%
%TO.N,Net-(J6-Pin_1)*%
X127000000Y-73660000D03*
D11*
%TO.P,J6,2,Pin_2*%
%TO.N,Net-(J6-Pin_2)*%
X129540000Y-73660000D03*
%TO.P,J6,3,Pin_3*%
%TO.N,Net-(J6-Pin_3)*%
X132080000Y-73660000D03*
%TO.P,J6,4,Pin_4*%
%TO.N,Net-(J6-Pin_4)*%
X134620000Y-73660000D03*
%TO.P,J6,5,Pin_5*%
%TO.N,Net-(J6-Pin_5)*%
X137160000Y-73660000D03*
%TO.P,J6,6,Pin_6*%
%TO.N,Net-(J6-Pin_6)*%
X139700000Y-73660000D03*
%TO.P,J6,7,Pin_7*%
%TO.N,Net-(J6-Pin_7)*%
X142240000Y-73660000D03*
%TO.P,J6,8,Pin_8*%
%TO.N,Net-(J6-Pin_8)*%
X144780000Y-73660000D03*
%TD*%
D10*
%TO.P,J1,1,Pin_1*%
%TO.N,Net-(J1-Pin_1)*%
X127000000Y-50800000D03*
D11*
%TO.P,J1,2,Pin_2*%
%TO.N,Net-(J1-Pin_2)*%
X129540000Y-50800000D03*
%TO.P,J1,3,Pin_3*%
%TO.N,Net-(J1-Pin_3)*%
X132080000Y-50800000D03*
%TO.P,J1,4,Pin_4*%
%TO.N,Net-(J1-Pin_4)*%
X134620000Y-50800000D03*
%TO.P,J1,5,Pin_5*%
%TO.N,Net-(J1-Pin_5)*%
X137160000Y-50800000D03*
%TO.P,J1,6,Pin_6*%
%TO.N,Net-(J1-Pin_6)*%
X139700000Y-50800000D03*
%TO.P,J1,7,Pin_7*%
%TO.N,Net-(J1-Pin_7)*%
X142240000Y-50800000D03*
%TO.P,J1,8,Pin_8*%
%TO.N,Net-(J1-Pin_8)*%
X144780000Y-50800000D03*
%TD*%
D10*
%TO.P,J8,1,Pin_1*%
%TO.N,GND*%
X127000000Y-76200000D03*
D11*
%TO.P,J8,2,Pin_2*%
%TO.N,Net-(J10-Pin_1)*%
X127000000Y-78740000D03*
%TD*%
D10*
%TO.P,J3,1,Pin_1*%
%TO.N,GND*%
X127000000Y-48260000D03*
D11*
%TO.P,J3,2,Pin_2*%
%TO.N,Net-(J3-Pin_2)*%
X127000000Y-45720000D03*
%TD*%
D12*
%TO.N,Net-(J1-Pin_8)*%
X144780000Y-50800000D02*
X144780000Y-40640000D01*
%TO.N,Net-(J1-Pin_3)*%
X132080000Y-50800000D02*
X132080000Y-40640000D01*
%TO.N,Net-(J1-Pin_5)*%
X137160000Y-40640000D02*
X137160000Y-50800000D01*
%TO.N,Net-(J1-Pin_1)*%
X127000000Y-40640000D02*
X124587000Y-43053000D01*
X125984000Y-50800000D02*
X127000000Y-50800000D01*
X124587000Y-49403000D02*
X125984000Y-50800000D01*
X124587000Y-43053000D02*
X124587000Y-49403000D01*
%TO.N,Net-(J1-Pin_7)*%
X142240000Y-50800000D02*
X142240000Y-40640000D01*
%TO.N,Net-(J1-Pin_2)*%
X129540000Y-40640000D02*
X129540000Y-50800000D01*
%TO.N,Net-(J1-Pin_6)*%
X139700000Y-50800000D02*
X139700000Y-40640000D01*
%TO.N,Net-(J1-Pin_4)*%
X134620000Y-40640000D02*
X134620000Y-50800000D01*
%TO.N,Net-(J6-Pin_7)*%
X143390000Y-64650000D02*
X143390000Y-72510000D01*
X143390000Y-72510000D02*
X142240000Y-73660000D01*
X142240000Y-63500000D02*
X143390000Y-64650000D01*
%TO.N,Net-(J6-Pin_6)*%
X140970000Y-64770000D02*
X140970000Y-72390000D01*
X139700000Y-63500000D02*
X140970000Y-64770000D01*
X140970000Y-72390000D02*
X139700000Y-73660000D01*
%TO.N,Net-(J6-Pin_4)*%
X135890000Y-72390000D02*
X134620000Y-73660000D01*
X135890000Y-64770000D02*
X135890000Y-72390000D01*
X134620000Y-63500000D02*
X135890000Y-64770000D01*
%TO.N,Net-(J6-Pin_8)*%
X146050000Y-64770000D02*
X146050000Y-72390000D01*
X146050000Y-72390000D02*
X144780000Y-73660000D01*
X144780000Y-63500000D02*
X146050000Y-64770000D01*
%TO.N,Net-(J6-Pin_5)*%
X138430000Y-72390000D02*
X137160000Y-73660000D01*
X137160000Y-63500000D02*
X138430000Y-64770000D01*
X138430000Y-64770000D02*
X138430000Y-72390000D01*
%TO.N,Net-(J6-Pin_3)*%
X133350000Y-64770000D02*
X133350000Y-72390000D01*
X133350000Y-72390000D02*
X132080000Y-73660000D01*
X132080000Y-63500000D02*
X133350000Y-64770000D01*
%TO.N,Net-(J6-Pin_1)*%
X127000000Y-63500000D02*
X128270000Y-64770000D01*
X128270000Y-72390000D02*
X127000000Y-73660000D01*
X128270000Y-64770000D02*
X128270000Y-72390000D01*
%TO.N,Net-(J6-Pin_2)*%
X129540000Y-63500000D02*
X130810000Y-64770000D01*
X130810000Y-64770000D02*
X130810000Y-72390000D01*
X130810000Y-72390000D02*
X129540000Y-73660000D01*
%TD*%
M02*
