%TF.SameCoordinates,Original*%
%TF.FileFunction,Legend,Bot*%
%TF.FilePolarity,Positive*%
%FSLAX46Y46*%
G04 Gerber Fmt 4.6, Leading zero omitted, Abs format (unit mm)*
%MOMM*%
%LPD*%
G01*
G04 APERTURE LIST*
%ADD10C,0.125000*%
%ADD11C,0.200000*%
%ADD12C,0.120000*%
G04 APERTURE END LIST*
D10*
G36*
X124680754Y-73264145D02*
G01*
X124634006Y-73774490D01*
X124625450Y-73810589D01*
X124607774Y-73836040D01*
X124582273Y-73852298D01*
X124550401Y-73857875D01*
X124518518Y-73852300D01*
X124492956Y-73836040D01*
X124475336Y-73810596D01*
X124466797Y-73774490D01*
X124419243Y-73264145D01*
X124415946Y-73212927D01*
X124420515Y-73171562D01*
X124433448Y-73137569D01*
X124454487Y-73109319D01*
X124482236Y-73087523D01*
X124513801Y-73074524D01*
X124550401Y-73070045D01*
X124586455Y-73074529D01*
X124617893Y-73087615D01*
X124645876Y-73109686D01*
X124667388Y-73138151D01*
X124680355Y-73171027D01*
X124684857Y-73209630D01*
X124680754Y-73264145D01*
G37*
G36*
X124653716Y-74101287D02*
G01*
X124646988Y-74134040D01*
X124626605Y-74161518D01*
X124595709Y-74179554D01*
X124552013Y-74186137D01*
X124508370Y-74179559D01*
X124477422Y-74161518D01*
X124457097Y-74134046D01*
X124450384Y-74101287D01*
X124456960Y-74069249D01*
X124476982Y-74041936D01*
X124507675Y-74023942D01*
X124552013Y-74017317D01*
X124596437Y-74023860D01*
X124627045Y-74041570D01*
X124647071Y-74068640D01*
X124653716Y-74101287D01*
G37*
G36*
X124807826Y-76359396D02*
G01*
X124106092Y-76359396D01*
X124106092Y-76204644D01*
X124807826Y-76204644D01*
X124807826Y-76359396D01*
G37*
G36*
X124639721Y-78964085D02*
G01*
X124639721Y-79245599D01*
X124633087Y-79300791D01*
X124616787Y-79332134D01*
X124590500Y-79351384D01*
X124556117Y-79358000D01*
X124521719Y-79351402D01*
X124495080Y-79332134D01*
X124478453Y-79300744D01*
X124471706Y-79245599D01*
X124471706Y-78964085D01*
X124231518Y-78964085D01*
X124176381Y-78957319D01*
X124144983Y-78940637D01*
X124125777Y-78913854D01*
X124119191Y-78879235D01*
X124125780Y-78844629D01*
X124144983Y-78817905D01*
X124176385Y-78801359D01*
X124231518Y-78795264D01*
X124471706Y-78795264D01*
X124471706Y-78514043D01*
X124478419Y-78459346D01*
X124495080Y-78427654D01*
X124521756Y-78408043D01*
X124556117Y-78401349D01*
X124590571Y-78407966D01*
X124617226Y-78427288D01*
X124633847Y-78458704D01*
X124640600Y-78514043D01*
X124639721Y-78795264D01*
X124879909Y-78795264D01*
X124935074Y-78801938D01*
X124966371Y-78818345D01*
X124985617Y-78844713D01*
X124992237Y-78879235D01*
X124985634Y-78913848D01*
X124966371Y-78940637D01*
X124935035Y-78957316D01*
X124879909Y-78964085D01*
X124639721Y-78964085D01*
G37*
G36*
X124488921Y-45764086D02*
G01*
X124488921Y-46045600D01*
X124482287Y-46100792D01*
X124465987Y-46132135D01*
X124439700Y-46151385D01*
X124405317Y-46158000D01*
X124370919Y-46151403D01*
X124344280Y-46132135D01*
X124327653Y-46100745D01*
X124320906Y-46045600D01*
X124320906Y-45764086D01*
X124080718Y-45764086D01*
X124025581Y-45757320D01*
X123994183Y-45740638D01*
X123974977Y-45713855D01*
X123968391Y-45679236D01*
X123974980Y-45644630D01*
X123994183Y-45617906D01*
X124025585Y-45601360D01*
X124080718Y-45595265D01*
X124320906Y-45595265D01*
X124320906Y-45314044D01*
X124327619Y-45259347D01*
X124344280Y-45227655D01*
X124370956Y-45208044D01*
X124405317Y-45201350D01*
X124439771Y-45207967D01*
X124466426Y-45227289D01*
X124483047Y-45258705D01*
X124489800Y-45314044D01*
X124488921Y-45595265D01*
X124729109Y-45595265D01*
X124784274Y-45601939D01*
X124815571Y-45618346D01*
X124834817Y-45644714D01*
X124841437Y-45679236D01*
X124834834Y-45713849D01*
X124815571Y-45740638D01*
X124784235Y-45757317D01*
X124729109Y-45764086D01*
X124488921Y-45764086D01*
G37*
G36*
X124529954Y-50464145D02*
G01*
X124483206Y-50974490D01*
X124474650Y-51010589D01*
X124456974Y-51036040D01*
X124431473Y-51052298D01*
X124399601Y-51057875D01*
X124367718Y-51052300D01*
X124342156Y-51036040D01*
X124324536Y-51010596D01*
X124315997Y-50974490D01*
X124268443Y-50464145D01*
X124265146Y-50412927D01*
X124269715Y-50371562D01*
X124282648Y-50337569D01*
X124303687Y-50309319D01*
X124331436Y-50287523D01*
X124363001Y-50274524D01*
X124399601Y-50270045D01*
X124435655Y-50274529D01*
X124467093Y-50287615D01*
X124495076Y-50309686D01*
X124516588Y-50338151D01*
X124529555Y-50371027D01*
X124534057Y-50409630D01*
X124529954Y-50464145D01*
G37*
G36*
X124502916Y-51301287D02*
G01*
X124496188Y-51334040D01*
X124475805Y-51361518D01*
X124444909Y-51379554D01*
X124401213Y-51386137D01*
X124357570Y-51379559D01*
X124326622Y-51361518D01*
X124306297Y-51334046D01*
X124299584Y-51301287D01*
X124306160Y-51269249D01*
X124326182Y-51241936D01*
X124356875Y-51223942D01*
X124401213Y-51217317D01*
X124445637Y-51223860D01*
X124476245Y-51241570D01*
X124496271Y-51268640D01*
X124502916Y-51301287D01*
G37*
G36*
X124657026Y-48359396D02*
G01*
X123955292Y-48359396D01*
X123955292Y-48204644D01*
X124657026Y-48204644D01*
X124657026Y-48359396D01*
G37*
G36*
X124539721Y-68693285D02*
G01*
X124539721Y-68974799D01*
X124533087Y-69029991D01*
X124516787Y-69061334D01*
X124490500Y-69080584D01*
X124456117Y-69087200D01*
X124421719Y-69080602D01*
X124395080Y-69061334D01*
X124378453Y-69029944D01*
X124371706Y-68974799D01*
X124371706Y-68693285D01*
X124131518Y-68693285D01*
X124076381Y-68686519D01*
X124044983Y-68669837D01*
X124025777Y-68643054D01*
X124019191Y-68608435D01*
X124025780Y-68573829D01*
X124044983Y-68547105D01*
X124076385Y-68530559D01*
X124131518Y-68524464D01*
X124371706Y-68524464D01*
X124371706Y-68243243D01*
X124378419Y-68188546D01*
X124395080Y-68156854D01*
X124421756Y-68137243D01*
X124456117Y-68130549D01*
X124490571Y-68137166D01*
X124517226Y-68156488D01*
X124533847Y-68187904D01*
X124540600Y-68243243D01*
X124539721Y-68524464D01*
X124779909Y-68524464D01*
X124835074Y-68531138D01*
X124866371Y-68547545D01*
X124885617Y-68573913D01*
X124892237Y-68608435D01*
X124885634Y-68643048D01*
X124866371Y-68669837D01*
X124835035Y-68686516D01*
X124779909Y-68693285D01*
X124539721Y-68693285D01*
G37*
G36*
X124580826Y-38199395D02*
G01*
X123879092Y-38199395D01*
X123879092Y-38044643D01*
X124580826Y-38044643D01*
X124580826Y-38199395D01*
G37*
G36*
X146637721Y-35537085D02*
G01*
X146637721Y-35818599D01*
X146631087Y-35873791D01*
X146614787Y-35905134D01*
X146588500Y-35924384D01*
X146554117Y-35931000D01*
X146519719Y-35924402D01*
X146493080Y-35905134D01*
X146476453Y-35873744D01*
X146469706Y-35818599D01*
X146469706Y-35537085D01*
X146229518Y-35537085D01*
X146174381Y-35530319D01*
X146142983Y-35513637D01*
X146123777Y-35486854D01*
X146117191Y-35452235D01*
X146123780Y-35417629D01*
X146142983Y-35390905D01*
X146174385Y-35374359D01*
X146229518Y-35368264D01*
X146469706Y-35368264D01*
X146469706Y-35087043D01*
X146476419Y-35032346D01*
X146493080Y-35000654D01*
X146519756Y-34981043D01*
X146554117Y-34974349D01*
X146588571Y-34980966D01*
X146615226Y-35000288D01*
X146631847Y-35031704D01*
X146638600Y-35087043D01*
X146637721Y-35368264D01*
X146877909Y-35368264D01*
X146933074Y-35374938D01*
X146964371Y-35391345D01*
X146983617Y-35417713D01*
X146990237Y-35452235D01*
X146983634Y-35486848D01*
X146964371Y-35513637D01*
X146933035Y-35530316D01*
X146877909Y-35537085D01*
X146637721Y-35537085D01*
G37*
G36*
X146678754Y-63037144D02*
G01*
X146632006Y-63547489D01*
X146623450Y-63583588D01*
X146605774Y-63609039D01*
X146580273Y-63625297D01*
X146548401Y-63630874D01*
X146516518Y-63625299D01*
X146490956Y-63609039D01*
X146473336Y-63583595D01*
X146464797Y-63547489D01*
X146417243Y-63037144D01*
X146413946Y-62985926D01*
X146418515Y-62944561D01*
X146431448Y-62910568D01*
X146452487Y-62882318D01*
X146480236Y-62860522D01*
X146511801Y-62847523D01*
X146548401Y-62843044D01*
X146584455Y-62847528D01*
X146615893Y-62860614D01*
X146643876Y-62882685D01*
X146665388Y-62911150D01*
X146678355Y-62944026D01*
X146682857Y-62982629D01*
X146678754Y-63037144D01*
G37*
G36*
X146651716Y-63874286D02*
G01*
X146644988Y-63907039D01*
X146624605Y-63934517D01*
X146593709Y-63952553D01*
X146550013Y-63959136D01*
X146506370Y-63952558D01*
X146475422Y-63934517D01*
X146455097Y-63907045D01*
X146448384Y-63874286D01*
X146454960Y-63842248D01*
X146474982Y-63814935D01*
X146505675Y-63796941D01*
X146550013Y-63790316D01*
X146594437Y-63796859D01*
X146625045Y-63814569D01*
X146645071Y-63841639D01*
X146651716Y-63874286D01*
G37*
G36*
X124453754Y-40304144D02*
G01*
X124407006Y-40814489D01*
X124398450Y-40850588D01*
X124380774Y-40876039D01*
X124355273Y-40892297D01*
X124323401Y-40897874D01*
X124291518Y-40892299D01*
X124265956Y-40876039D01*
X124248336Y-40850595D01*
X124239797Y-40814489D01*
X124192243Y-40304144D01*
X124188946Y-40252926D01*
X124193515Y-40211561D01*
X124206448Y-40177568D01*
X124227487Y-40149318D01*
X124255236Y-40127522D01*
X124286801Y-40114523D01*
X124323401Y-40110044D01*
X124359455Y-40114528D01*
X124390893Y-40127614D01*
X124418876Y-40149685D01*
X124440388Y-40178150D01*
X124453355Y-40211026D01*
X124457857Y-40249629D01*
X124453754Y-40304144D01*
G37*
G36*
X124426716Y-41141286D02*
G01*
X124419988Y-41174039D01*
X124399605Y-41201517D01*
X124368709Y-41219553D01*
X124325013Y-41226136D01*
X124281370Y-41219558D01*
X124250422Y-41201517D01*
X124230097Y-41174045D01*
X124223384Y-41141286D01*
X124229960Y-41109248D01*
X124249982Y-41081935D01*
X124280675Y-41063941D01*
X124325013Y-41057316D01*
X124369437Y-41063859D01*
X124400045Y-41081569D01*
X124420071Y-41108639D01*
X124426716Y-41141286D01*
G37*
G36*
X146805826Y-38132395D02*
G01*
X146104092Y-38132395D01*
X146104092Y-37977643D01*
X146805826Y-37977643D01*
X146805826Y-38132395D01*
G37*
G36*
X124412721Y-35604085D02*
G01*
X124412721Y-35885599D01*
X124406087Y-35940791D01*
X124389787Y-35972134D01*
X124363500Y-35991384D01*
X124329117Y-35998000D01*
X124294719Y-35991402D01*
X124268080Y-35972134D01*
X124251453Y-35940744D01*
X124244706Y-35885599D01*
X124244706Y-35604085D01*
X124004518Y-35604085D01*
X123949381Y-35597319D01*
X123917983Y-35580637D01*
X123898777Y-35553854D01*
X123892191Y-35519235D01*
X123898780Y-35484629D01*
X123917983Y-35457905D01*
X123949385Y-35441359D01*
X124004518Y-35435264D01*
X124244706Y-35435264D01*
X124244706Y-35154043D01*
X124251419Y-35099346D01*
X124268080Y-35067654D01*
X124294756Y-35048043D01*
X124329117Y-35041349D01*
X124363571Y-35047966D01*
X124390226Y-35067288D01*
X124406847Y-35098704D01*
X124413600Y-35154043D01*
X124412721Y-35435264D01*
X124652909Y-35435264D01*
X124708074Y-35441938D01*
X124739371Y-35458345D01*
X124758617Y-35484713D01*
X124765237Y-35519235D01*
X124758634Y-35553848D01*
X124739371Y-35580637D01*
X124708035Y-35597316D01*
X124652909Y-35604085D01*
X124412721Y-35604085D01*
G37*
G36*
X124707826Y-66088595D02*
G01*
X124006092Y-66088595D01*
X124006092Y-65933843D01*
X124707826Y-65933843D01*
X124707826Y-66088595D01*
G37*
G36*
X146678754Y-40237144D02*
G01*
X146632006Y-40747489D01*
X146623450Y-40783588D01*
X146605774Y-40809039D01*
X146580273Y-40825297D01*
X146548401Y-40830874D01*
X146516518Y-40825299D01*
X146490956Y-40809039D01*
X146473336Y-40783595D01*
X146464797Y-40747489D01*
X146417243Y-40237144D01*
X146413946Y-40185926D01*
X146418515Y-40144561D01*
X146431448Y-40110568D01*
X146452487Y-40082318D01*
X146480236Y-40060522D01*
X146511801Y-40047523D01*
X146548401Y-40043044D01*
X146584455Y-40047528D01*
X146615893Y-40060614D01*
X146643876Y-40082685D01*
X146665388Y-40111150D01*
X146678355Y-40144026D01*
X146682857Y-40182629D01*
X146678754Y-40237144D01*
G37*
G36*
X146651716Y-41074286D02*
G01*
X146644988Y-41107039D01*
X146624605Y-41134517D01*
X146593709Y-41152553D01*
X146550013Y-41159136D01*
X146506370Y-41152558D01*
X146475422Y-41134517D01*
X146455097Y-41107045D01*
X146448384Y-41074286D01*
X146454960Y-41042248D01*
X146474982Y-41014935D01*
X146505675Y-40996941D01*
X146550013Y-40990316D01*
X146594437Y-40996859D01*
X146625045Y-41014569D01*
X146645071Y-41041639D01*
X146651716Y-41074286D01*
G37*
G36*
X124580754Y-62993344D02*
G01*
X124534006Y-63503689D01*
X124525450Y-63539788D01*
X124507774Y-63565239D01*
X124482273Y-63581497D01*
X124450401Y-63587074D01*
X124418518Y-63581499D01*
X124392956Y-63565239D01*
X124375336Y-63539795D01*
X124366797Y-63503689D01*
X124319243Y-62993344D01*
X124315946Y-62942126D01*
X124320515Y-62900761D01*
X124333448Y-62866768D01*
X124354487Y-62838518D01*
X124382236Y-62816722D01*
X124413801Y-62803723D01*
X124450401Y-62799244D01*
X124486455Y-62803728D01*
X124517893Y-62816814D01*
X124545876Y-62838885D01*
X124567388Y-62867350D01*
X124580355Y-62900226D01*
X124584857Y-62938829D01*
X124580754Y-62993344D01*
G37*
G36*
X124553716Y-63830486D02*
G01*
X124546988Y-63863239D01*
X124526605Y-63890717D01*
X124495709Y-63908753D01*
X124452013Y-63915336D01*
X124408370Y-63908758D01*
X124377422Y-63890717D01*
X124357097Y-63863245D01*
X124350384Y-63830486D01*
X124356960Y-63798448D01*
X124376982Y-63771135D01*
X124407675Y-63753141D01*
X124452013Y-63746516D01*
X124496437Y-63753059D01*
X124527045Y-63770769D01*
X124547071Y-63797839D01*
X124553716Y-63830486D01*
G37*
G36*
X146805826Y-66132395D02*
G01*
X146104092Y-66132395D01*
X146104092Y-65977643D01*
X146805826Y-65977643D01*
X146805826Y-66132395D01*
G37*
G36*
X146637721Y-68737085D02*
G01*
X146637721Y-69018599D01*
X146631087Y-69073791D01*
X146614787Y-69105134D01*
X146588500Y-69124384D01*
X146554117Y-69131000D01*
X146519719Y-69124402D01*
X146493080Y-69105134D01*
X146476453Y-69073744D01*
X146469706Y-69018599D01*
X146469706Y-68737085D01*
X146229518Y-68737085D01*
X146174381Y-68730319D01*
X146142983Y-68713637D01*
X146123777Y-68686854D01*
X146117191Y-68652235D01*
X146123780Y-68617629D01*
X146142983Y-68590905D01*
X146174385Y-68574359D01*
X146229518Y-68568264D01*
X146469706Y-68568264D01*
X146469706Y-68287043D01*
X146476419Y-68232346D01*
X146493080Y-68200654D01*
X146519756Y-68181043D01*
X146554117Y-68174349D01*
X146588571Y-68180966D01*
X146615226Y-68200288D01*
X146631847Y-68231704D01*
X146638600Y-68287043D01*
X146637721Y-68568264D01*
X146877909Y-68568264D01*
X146933074Y-68574938D01*
X146964371Y-68591345D01*
X146983617Y-68617713D01*
X146990237Y-68652235D01*
X146983634Y-68686848D01*
X146964371Y-68713637D01*
X146933035Y-68730316D01*
X146877909Y-68737085D01*
X146637721Y-68737085D01*
G37*
D11*
G36*
X136056070Y-71227212D02*
G01*
X136056070Y-71652438D01*
X136059462Y-71705524D01*
X136068691Y-71747322D01*
X136082693Y-71779994D01*
X136113909Y-71825265D01*
X136153144Y-71863755D01*
X136201273Y-71895949D01*
X136254230Y-71919706D01*
X136308297Y-71933756D01*
X136364183Y-71938447D01*
X136416017Y-71933996D01*
X136481247Y-71918990D01*
X136562841Y-71890502D01*
X136664052Y-71845085D01*
X136664052Y-71614153D01*
X136658426Y-71568092D01*
X136644573Y-71541919D01*
X136622370Y-71525814D01*
X136593710Y-71520303D01*
X136565628Y-71525783D01*
X136543518Y-71541919D01*
X136529665Y-71568092D01*
X136524040Y-71614153D01*
X136524040Y-71751784D01*
X136458297Y-71778943D01*
X136404132Y-71793407D01*
X136359420Y-71797763D01*
X136323266Y-71793729D01*
X136284254Y-71780971D01*
X136248851Y-71761690D01*
X136225514Y-71740854D01*
X136208698Y-71716917D01*
X136199563Y-71694876D01*
X136196144Y-71635952D01*
X136196144Y-71227212D01*
X136366259Y-71227212D01*
X136412165Y-71221607D01*
X136438310Y-71207794D01*
X136454316Y-71185592D01*
X136459804Y-71156870D01*
X136454314Y-71128158D01*
X136438310Y-71106006D01*
X136412159Y-71092148D01*
X136366259Y-71086528D01*
X135974127Y-71086528D01*
X135928183Y-71092153D01*
X135902075Y-71106006D01*
X135886023Y-71128163D01*
X135880521Y-71156870D01*
X135886021Y-71185587D01*
X135902075Y-71207794D01*
X135928176Y-71221603D01*
X135974127Y-71227212D01*
X136056070Y-71227212D01*
G37*
G36*
X135377441Y-71014682D02*
G01*
X135445413Y-71033605D01*
X135511958Y-71065706D01*
X135572818Y-71108294D01*
X135628987Y-71161727D01*
X135680730Y-71227151D01*
X135711132Y-71280405D01*
X135733489Y-71340833D01*
X135747503Y-71409621D01*
X135752415Y-71488185D01*
X135748176Y-71574980D01*
X135735927Y-71653854D01*
X135716206Y-71725711D01*
X135686716Y-71793234D01*
X135650908Y-71844885D01*
X135608984Y-71883370D01*
X135559237Y-71910993D01*
X135499667Y-71928361D01*
X135427939Y-71934539D01*
X135362575Y-71929361D01*
X135307109Y-71914707D01*
X135259791Y-71891342D01*
X135219294Y-71859251D01*
X135186071Y-71819307D01*
X135162267Y-71773899D01*
X135147558Y-71721960D01*
X135142419Y-71662025D01*
X135142543Y-71660560D01*
X135282431Y-71660560D01*
X135286878Y-71700059D01*
X135299390Y-71731973D01*
X135319678Y-71758012D01*
X135346581Y-71777202D01*
X135381222Y-71789413D01*
X135425863Y-71793855D01*
X135471006Y-71790079D01*
X135505655Y-71779832D01*
X135532108Y-71764118D01*
X135553138Y-71741520D01*
X135573025Y-71705958D01*
X135591215Y-71653110D01*
X135567367Y-71605837D01*
X135540807Y-71567951D01*
X135511653Y-71538133D01*
X135477844Y-71513835D01*
X135448048Y-71500856D01*
X135421100Y-71496856D01*
X135387558Y-71501804D01*
X135355931Y-71516863D01*
X135325174Y-71543567D01*
X135301675Y-71576829D01*
X135287403Y-71615333D01*
X135282431Y-71660560D01*
X135142543Y-71660560D01*
X135147861Y-71597481D01*
X135163569Y-71540366D01*
X135189179Y-71489328D01*
X135225095Y-71443367D01*
X135269343Y-71404327D01*
X135315663Y-71377476D01*
X135364778Y-71361550D01*
X135417742Y-71356172D01*
X135468400Y-71360913D01*
X135515439Y-71374918D01*
X135560659Y-71398058D01*
X135611731Y-71434330D01*
X135589555Y-71358645D01*
X135559097Y-71300423D01*
X135520889Y-71252380D01*
X135479536Y-71214702D01*
X135434778Y-71186240D01*
X135385906Y-71165028D01*
X135339916Y-71152946D01*
X135296109Y-71149054D01*
X135279138Y-71151443D01*
X135260571Y-71159129D01*
X135231077Y-71172921D01*
X135213432Y-71176409D01*
X135186896Y-71171095D01*
X135164279Y-71154977D01*
X135148979Y-71131205D01*
X135143762Y-71101854D01*
X135147144Y-71079458D01*
X135157131Y-71060061D01*
X135174476Y-71042808D01*
X135207676Y-71024648D01*
X135250956Y-71012754D01*
X135307039Y-71008370D01*
X135377441Y-71014682D01*
G37*
G36*
X136056070Y-52727212D02*
G01*
X136056070Y-53152438D01*
X136059462Y-53205524D01*
X136068691Y-53247322D01*
X136082693Y-53279994D01*
X136113909Y-53325265D01*
X136153144Y-53363755D01*
X136201273Y-53395949D01*
X136254230Y-53419706D01*
X136308297Y-53433756D01*
X136364183Y-53438447D01*
X136416017Y-53433996D01*
X136481247Y-53418990D01*
X136562841Y-53390502D01*
X136664052Y-53345085D01*
X136664052Y-53114153D01*
X136658426Y-53068092D01*
X136644573Y-53041919D01*
X136622370Y-53025814D01*
X136593710Y-53020303D01*
X136565628Y-53025783D01*
X136543518Y-53041919D01*
X136529665Y-53068092D01*
X136524040Y-53114153D01*
X136524040Y-53251784D01*
X136458297Y-53278943D01*
X136404132Y-53293407D01*
X136359420Y-53297763D01*
X136323266Y-53293729D01*
X136284254Y-53280971D01*
X136248851Y-53261690D01*
X136225514Y-53240854D01*
X136208698Y-53216917D01*
X136199563Y-53194876D01*
X136196144Y-53135952D01*
X136196144Y-52727212D01*
X136366259Y-52727212D01*
X136412165Y-52721607D01*
X136438310Y-52707794D01*
X136454316Y-52685592D01*
X136459804Y-52656870D01*
X136454314Y-52628158D01*
X136438310Y-52606006D01*
X136412159Y-52592148D01*
X136366259Y-52586528D01*
X135974127Y-52586528D01*
X135928183Y-52592153D01*
X135902075Y-52606006D01*
X135886023Y-52628163D01*
X135880521Y-52656870D01*
X135886021Y-52685587D01*
X135902075Y-52707794D01*
X135928176Y-52721603D01*
X135974127Y-52727212D01*
X136056070Y-52727212D01*
G37*
G36*
X135408827Y-52508370D02*
G01*
X135408827Y-53274316D01*
X135267410Y-53274316D01*
X135221466Y-53279940D01*
X135195358Y-53293794D01*
X135179354Y-53315946D01*
X135173865Y-53344658D01*
X135179352Y-53373380D01*
X135195358Y-53395582D01*
X135221459Y-53409390D01*
X135267410Y-53415000D01*
X135690256Y-53415000D01*
X135736216Y-53409393D01*
X135762368Y-53395582D01*
X135778374Y-53373380D01*
X135783862Y-53344658D01*
X135778372Y-53315946D01*
X135762368Y-53293794D01*
X135736209Y-53279938D01*
X135690256Y-53274316D01*
X135548900Y-53274316D01*
X135548900Y-52693445D01*
X135673891Y-52726723D01*
X135718954Y-52735027D01*
X135743532Y-52729774D01*
X135765055Y-52713534D01*
X135779572Y-52689859D01*
X135784533Y-52660839D01*
X135780692Y-52634693D01*
X135770184Y-52616142D01*
X135751035Y-52602310D01*
X135710100Y-52587383D01*
X135408827Y-52508370D01*
G37*
G36*
X129543670Y-78518012D02*
G01*
X129543670Y-78943238D01*
X129547062Y-78996324D01*
X129556291Y-79038122D01*
X129570293Y-79070794D01*
X129601509Y-79116065D01*
X129640744Y-79154555D01*
X129688873Y-79186749D01*
X129741830Y-79210506D01*
X129795897Y-79224556D01*
X129851783Y-79229247D01*
X129903617Y-79224796D01*
X129968847Y-79209790D01*
X130050441Y-79181302D01*
X130151652Y-79135885D01*
X130151652Y-78904953D01*
X130146026Y-78858892D01*
X130132173Y-78832719D01*
X130109970Y-78816614D01*
X130081310Y-78811103D01*
X130053228Y-78816583D01*
X130031118Y-78832719D01*
X130017265Y-78858892D01*
X130011640Y-78904953D01*
X130011640Y-79042584D01*
X129945897Y-79069743D01*
X129891732Y-79084207D01*
X129847020Y-79088563D01*
X129810866Y-79084529D01*
X129771854Y-79071771D01*
X129736451Y-79052490D01*
X129713114Y-79031654D01*
X129696298Y-79007717D01*
X129687163Y-78985676D01*
X129683744Y-78926752D01*
X129683744Y-78518012D01*
X129853859Y-78518012D01*
X129899765Y-78512407D01*
X129925910Y-78498594D01*
X129941916Y-78476392D01*
X129947404Y-78447670D01*
X129941914Y-78418958D01*
X129925910Y-78396806D01*
X129899759Y-78382948D01*
X129853859Y-78377328D01*
X129461727Y-78377328D01*
X129415783Y-78382953D01*
X129389675Y-78396806D01*
X129373623Y-78418963D01*
X129368121Y-78447670D01*
X129373621Y-78476387D01*
X129389675Y-78498594D01*
X129415776Y-78512403D01*
X129461727Y-78518012D01*
X129543670Y-78518012D01*
G37*
G36*
X129030110Y-78304347D02*
G01*
X129085390Y-78319193D01*
X129134082Y-78343217D01*
X129177245Y-78376656D01*
X129213717Y-78418116D01*
X129238973Y-78462174D01*
X129254061Y-78509550D01*
X129259188Y-78561304D01*
X129253220Y-78614580D01*
X129235314Y-78665107D01*
X129206299Y-78711910D01*
X129164239Y-78757919D01*
X129212112Y-78803179D01*
X129245144Y-78852441D01*
X129265276Y-78907487D01*
X129272133Y-78968762D01*
X129268263Y-79014239D01*
X129256804Y-79057006D01*
X129237634Y-79097722D01*
X129211127Y-79133728D01*
X129175964Y-79164822D01*
X129130778Y-79191206D01*
X129081455Y-79209897D01*
X129027523Y-79221382D01*
X128968173Y-79225339D01*
X128908814Y-79221403D01*
X128854415Y-79209935D01*
X128804225Y-79191206D01*
X128758096Y-79164763D01*
X128722512Y-79133778D01*
X128695964Y-79098088D01*
X128676828Y-79057558D01*
X128665352Y-79014678D01*
X128661992Y-78974990D01*
X128801477Y-78974990D01*
X128805835Y-79003065D01*
X128818954Y-79028506D01*
X128842144Y-79052293D01*
X128871107Y-79069088D01*
X128911459Y-79080385D01*
X128966769Y-79084655D01*
X129021609Y-79080407D01*
X129061933Y-79069127D01*
X129091149Y-79052293D01*
X129114632Y-79028514D01*
X129127788Y-79003530D01*
X129132121Y-78976394D01*
X129127039Y-78940666D01*
X129111678Y-78907320D01*
X129084677Y-78875278D01*
X129050751Y-78850637D01*
X129011930Y-78835787D01*
X128966769Y-78830642D01*
X128921649Y-78835786D01*
X128882869Y-78850636D01*
X128848983Y-78875278D01*
X128821852Y-78907301D01*
X128806519Y-78940185D01*
X128801477Y-78974990D01*
X128661992Y-78974990D01*
X128661465Y-78968762D01*
X128668323Y-78907487D01*
X128688454Y-78852441D01*
X128721450Y-78803186D01*
X128769359Y-78757919D01*
X128726876Y-78712440D01*
X128697979Y-78665779D01*
X128680323Y-78615177D01*
X128674765Y-78564540D01*
X128817903Y-78564540D01*
X128822420Y-78597758D01*
X128835735Y-78627044D01*
X128858569Y-78653505D01*
X128887617Y-78673179D01*
X128923528Y-78685531D01*
X128968173Y-78689959D01*
X129013275Y-78685518D01*
X129049412Y-78673153D01*
X129078510Y-78653505D01*
X129101307Y-78627049D01*
X129114604Y-78597762D01*
X129119115Y-78564540D01*
X129114626Y-78531800D01*
X129101351Y-78502748D01*
X129078510Y-78476307D01*
X129049412Y-78456660D01*
X129013275Y-78444295D01*
X128968173Y-78439854D01*
X128923528Y-78444282D01*
X128887617Y-78456634D01*
X128858569Y-78476307D01*
X128835691Y-78502753D01*
X128822398Y-78531805D01*
X128817903Y-78564540D01*
X128674765Y-78564540D01*
X128674410Y-78561304D01*
X128679540Y-78509554D01*
X128694638Y-78462178D01*
X128719913Y-78418120D01*
X128756414Y-78376656D01*
X128799547Y-78343222D01*
X128848227Y-78319198D01*
X128903515Y-78304348D01*
X128966830Y-78299170D01*
X129030110Y-78304347D01*
G37*
G36*
X129594470Y-45498012D02*
G01*
X129594470Y-45923238D01*
X129597862Y-45976324D01*
X129607091Y-46018122D01*
X129621093Y-46050794D01*
X129652309Y-46096065D01*
X129691544Y-46134555D01*
X129739673Y-46166749D01*
X129792630Y-46190506D01*
X129846697Y-46204556D01*
X129902583Y-46209247D01*
X129954417Y-46204796D01*
X130019647Y-46189790D01*
X130101241Y-46161302D01*
X130202452Y-46115885D01*
X130202452Y-45884953D01*
X130196826Y-45838892D01*
X130182973Y-45812719D01*
X130160770Y-45796614D01*
X130132110Y-45791103D01*
X130104028Y-45796583D01*
X130081918Y-45812719D01*
X130068065Y-45838892D01*
X130062440Y-45884953D01*
X130062440Y-46022584D01*
X129996697Y-46049743D01*
X129942532Y-46064207D01*
X129897820Y-46068563D01*
X129861666Y-46064529D01*
X129822654Y-46051771D01*
X129787251Y-46032490D01*
X129763914Y-46011654D01*
X129747098Y-45987717D01*
X129737963Y-45965676D01*
X129734544Y-45906752D01*
X129734544Y-45498012D01*
X129904659Y-45498012D01*
X129950565Y-45492407D01*
X129976710Y-45478594D01*
X129992716Y-45456392D01*
X129998204Y-45427670D01*
X129992714Y-45398958D01*
X129976710Y-45376806D01*
X129950559Y-45362948D01*
X129904659Y-45357328D01*
X129512527Y-45357328D01*
X129466583Y-45362953D01*
X129440475Y-45376806D01*
X129424423Y-45398963D01*
X129418921Y-45427670D01*
X129424421Y-45456387D01*
X129440475Y-45478594D01*
X129466576Y-45492403D01*
X129512527Y-45498012D01*
X129594470Y-45498012D01*
G37*
G36*
X128818816Y-45718380D02*
G01*
X128779829Y-45748966D01*
X128749195Y-45781501D01*
X128725943Y-45816138D01*
X128708994Y-45854181D01*
X128698694Y-45895369D01*
X128695168Y-45940396D01*
X128699699Y-45988710D01*
X128713158Y-46034197D01*
X128735835Y-46077661D01*
X128766438Y-46115693D01*
X128805309Y-46147379D01*
X128853682Y-46172977D01*
X128906192Y-46189947D01*
X128972617Y-46201205D01*
X129055854Y-46205339D01*
X129139832Y-46201432D01*
X129206703Y-46190809D01*
X129259378Y-46174852D01*
X129300402Y-46154536D01*
X129327165Y-46132667D01*
X129341566Y-46110113D01*
X129346197Y-46085904D01*
X129341112Y-46057923D01*
X129326047Y-46034796D01*
X129303720Y-46019071D01*
X129277199Y-46013853D01*
X129257658Y-46017081D01*
X129236227Y-46027591D01*
X129205955Y-46045249D01*
X129179502Y-46055069D01*
X129134692Y-46061916D01*
X129066784Y-46064655D01*
X128984872Y-46060261D01*
X128927965Y-46048996D01*
X128889830Y-46033148D01*
X128858807Y-46008474D01*
X128841179Y-45979299D01*
X128835180Y-45943999D01*
X128842786Y-45902946D01*
X128866993Y-45861628D01*
X128903469Y-45826912D01*
X128951989Y-45800262D01*
X128988175Y-45790794D01*
X129055854Y-45783287D01*
X129087596Y-45776512D01*
X129109526Y-45761794D01*
X129123513Y-45740196D01*
X129128272Y-45713617D01*
X129123108Y-45685849D01*
X129107816Y-45663120D01*
X129084837Y-45647840D01*
X129055854Y-45642603D01*
X128981421Y-45641932D01*
X128954499Y-45636266D01*
X128926771Y-45624224D01*
X128902061Y-45606399D01*
X128882686Y-45583008D01*
X128870024Y-45555970D01*
X128865955Y-45528847D01*
X128870170Y-45501117D01*
X128882853Y-45475887D01*
X128905217Y-45452216D01*
X128933272Y-45435290D01*
X128971522Y-45424058D01*
X129023064Y-45419854D01*
X129073169Y-45424038D01*
X129114573Y-45435763D01*
X129148924Y-45454321D01*
X129177426Y-45479754D01*
X129202705Y-45502042D01*
X129217736Y-45507770D01*
X129234823Y-45509735D01*
X129261422Y-45504568D01*
X129284038Y-45488975D01*
X129299320Y-45465933D01*
X129304493Y-45437745D01*
X129298567Y-45408645D01*
X129279197Y-45378203D01*
X129241661Y-45344932D01*
X129194648Y-45316940D01*
X129141552Y-45296448D01*
X129081351Y-45283647D01*
X129012806Y-45279170D01*
X128948485Y-45284212D01*
X128893317Y-45298540D01*
X128845714Y-45321475D01*
X128804467Y-45353054D01*
X128769569Y-45392593D01*
X128745342Y-45434886D01*
X128730827Y-45480647D01*
X128725882Y-45530923D01*
X128731743Y-45583372D01*
X128749146Y-45631857D01*
X128777489Y-45676061D01*
X128818816Y-45718380D01*
G37*
D12*
%TO.C,J6*%
X125670000Y-73660000D02*
X125670000Y-74990000D01*
X125670000Y-74990000D02*
X127000000Y-74990000D01*
X128270000Y-72330000D02*
X128270000Y-74990000D01*
X128270000Y-72330000D02*
X146110000Y-72330000D01*
X128270000Y-74990000D02*
X146110000Y-74990000D01*
X146110000Y-72330000D02*
X146110000Y-74990000D01*
%TO.C,J1*%
X125670000Y-50800000D02*
X125670000Y-52130000D01*
X125670000Y-52130000D02*
X127000000Y-52130000D01*
X128270000Y-49470000D02*
X128270000Y-52130000D01*
X128270000Y-49470000D02*
X146110000Y-49470000D01*
X128270000Y-52130000D02*
X146110000Y-52130000D01*
X146110000Y-49470000D02*
X146110000Y-52130000D01*
%TO.C,J8*%
X125670000Y-74870000D02*
X125670000Y-76200000D01*
X125670000Y-77470000D02*
X125670000Y-80070000D01*
X127000000Y-74870000D02*
X125670000Y-74870000D01*
X128330000Y-77470000D02*
X125670000Y-77470000D01*
X128330000Y-77470000D02*
X128330000Y-80070000D01*
X128330000Y-80070000D02*
X125670000Y-80070000D01*
%TO.C,J3*%
X125670000Y-44390000D02*
X128330000Y-44390000D01*
X125670000Y-46990000D02*
X125670000Y-44390000D01*
X125670000Y-46990000D02*
X128330000Y-46990000D01*
X127000000Y-49590000D02*
X128330000Y-49590000D01*
X128330000Y-46990000D02*
X128330000Y-44390000D01*
X128330000Y-49590000D02*
X128330000Y-48260000D01*
%TD*%
M02*
