%TF.SameCoordinates,Original*%
%TF.FileFunction,Copper,L2,Bot*%
%TF.FilePolarity,Positive*%
%FSLAX46Y46*%
G04 Gerber Fmt 4.6, Leading zero omitted, Abs format (unit mm)*
G04 Created by KiCad (PCBNEW (7.0.0)) date 2023-08-08 20:03:39*
%MOMM*%
%LPD*%
G01*
G04 APERTURE LIST*
G04 Aperture macros list*
%AMRoundRect*
0 Rectangle with rounded corners*
0 $1 Rounding radius*
0 $2 $3 $4 $5 $6 $7 $8 $9 X,Y pos of 4 corners*
0 Add a 4 corners polygon primitive as box body*
4,1,4,$2,$3,$4,$5,$6,$7,$8,$9,$2,$3,0*
0 Add four circle primitives for the rounded corners*
1,1,$1+$1,$2,$3*
1,1,$1+$1,$4,$5*
1,1,$1+$1,$6,$7*
1,1,$1+$1,$8,$9*
0 Add four rect primitives between the rounded corners*
20,1,$1+$1,$2,$3,$4,$5,0*
20,1,$1+$1,$4,$5,$6,$7,0*
20,1,$1+$1,$6,$7,$8,$9,0*
20,1,$1+$1,$8,$9,$2,$3,0*%
G04 Aperture macros list end*
%TA.AperFunction,ComponentPad*%
%ADD10C,1.400000*%
%TD*%
%TA.AperFunction,ComponentPad*%
%ADD11O,1.400000X1.400000*%
%TD*%
%TA.AperFunction,ComponentPad*%
%ADD12R,1.700000X1.700000*%
%TD*%
%TA.AperFunction,ComponentPad*%
%ADD13O,1.700000X1.700000*%
%TD*%
%TA.AperFunction,ComponentPad*%
%ADD14C,3.900000*%
%TD*%
%TA.AperFunction,ConnectorPad*%
%ADD15C,7.000000*%
%TD*%
%TA.AperFunction,ComponentPad*%
%ADD16RoundRect,0.249600X0.550400X0.550400X-0.550400X0.550400X-0.550400X-0.550400X0.550400X-0.550400X0*%
%TD*%
%TA.AperFunction,ComponentPad*%
%ADD17C,1.600000*%
%TD*%
G04 APERTURE END LIST*
D10*
%TO.P,r2,1*%
%TO.N,Net-(J0-Pad2)*%
X125476000Y-93980000D03*
D11*
%TO.P,r2,2*%
%TO.N,GND*%
X125475999Y-101599999D03*
%TD*%
D12*
%TO.P,J0,1,Pin_1*%
%TO.N,Net-(J0-Pad1)*%
X136143999Y-100329999D03*
D13*
%TO.P,J0,2,Pin_2*%
%TO.N,Net-(J0-Pad2)*%
X136143999Y-97789999D03*
%TO.P,J0,3,Pin_3*%
%TO.N,GND*%
X136143999Y-95249999D03*
%TD*%
D14*
%TO.P,H0,1*%
%TO.N,N/C*%
X105410000Y-97790000D03*
D15*
X105410000Y-97790000D03*
%TD*%
D10*
%TO.P,r1,1*%
%TO.N,Net-(J0-Pad1)*%
X122936000Y-101600000D03*
D11*
%TO.P,r1,2*%
%TO.N,Net-(R1-Pad2)*%
X122935999Y-93979999D03*
%TD*%
D16*
%TO.P,U1,1,A*%
%TO.N,Net-(R1-Pad2)*%
X131826000Y-96520000D03*
D17*
%TO.P,U1,2,K*%
%TO.N,GND*%
X131826000Y-99060000D03*
%TO.P,U1,3,C*%
%TO.N,Net-(J0-Pad1)*%
X129026000Y-99060000D03*
%TO.P,U1,4,E*%
%TO.N,Net-(J0-Pad2)*%
X129026000Y-96520000D03*
%TD*%
%TA.AperFunction,Conductor*%
%TO.N,GND*%
G36*
X122267841Y-92751298D02*
G01*
X122313609Y-92794730D01*
X122332582Y-92854906D01*
X122320003Y-92916735D01*
X122279027Y-92964711D01*
X122156224Y-93050699D01*
X122152334Y-93054588D01*
X122152328Y-93054594D01*
X122010594Y-93196328D01*
X122010588Y-93196334D01*
X122006699Y-93200224D01*
X122003547Y-93204725D01*
X122003539Y-93204735D01*
X121888565Y-93368936D01*
X121888559Y-93368945D01*
X121885411Y-93373442D01*
X121883092Y-93378414D01*
X121883088Y-93378422D01*
X121798367Y-93560107D01*
X121798364Y-93560112D01*
X121796044Y-93565090D01*
X121741314Y-93769345D01*
X121740835Y-93774818D01*
X121740834Y-93774825D01*
X121727194Y-93930735D01*
X121722884Y-93980000D01*
X121723363Y-93985475D01*
X121731937Y-94083483D01*
X121741314Y-94190655D01*
X121796044Y-94394910D01*
X121798366Y-94399890D01*
X121798367Y-94399892D01*
X121824007Y-94454878D01*
X121885411Y-94586558D01*
X121888563Y-94591059D01*
X121888565Y-94591063D01*
X122003539Y-94755264D01*
X122003543Y-94755268D01*
X122006699Y-94759776D01*
X122156224Y-94909301D01*
X122160732Y-94912457D01*
X122160735Y-94912460D01*
X122324936Y-95027434D01*
X122329442Y-95030589D01*
X122521090Y-95119956D01*
X122725345Y-95174686D01*
X122936000Y-95193116D01*
X123146655Y-95174686D01*
X123350910Y-95119956D01*
X123542558Y-95030589D01*
X123715776Y-94909301D01*
X123865301Y-94759776D01*
X123986589Y-94586558D01*
X124075956Y-94394910D01*
X124084292Y-94363796D01*
X124116904Y-94307311D01*
X124173389Y-94274699D01*
X124238611Y-94274699D01*
X124295096Y-94307311D01*
X124327707Y-94363796D01*
X124336044Y-94394910D01*
X124338366Y-94399890D01*
X124338367Y-94399892D01*
X124364007Y-94454878D01*
X124425411Y-94586558D01*
X124428563Y-94591059D01*
X124428565Y-94591063D01*
X124543539Y-94755264D01*
X124543543Y-94755268D01*
X124546699Y-94759776D01*
X124696224Y-94909301D01*
X124700732Y-94912457D01*
X124700735Y-94912460D01*
X124864936Y-95027434D01*
X124869442Y-95030589D01*
X125061090Y-95119956D01*
X125265345Y-95174686D01*
X125476000Y-95193116D01*
X125686655Y-95174686D01*
X125890910Y-95119956D01*
X126082558Y-95030589D01*
X126135621Y-94993434D01*
X134810751Y-94993434D01*
X134821840Y-94996000D01*
X135873410Y-94996000D01*
X135886493Y-94992493D01*
X135890000Y-94979410D01*
X136398000Y-94979410D01*
X136401506Y-94992493D01*
X136414590Y-94996000D01*
X137466160Y-94996000D01*
X137477248Y-94993434D01*
X137477013Y-94982056D01*
X137434099Y-94812591D01*
X137430729Y-94802776D01*
X137344511Y-94606221D01*
X137339568Y-94597086D01*
X137222177Y-94417406D01*
X137215789Y-94409200D01*
X137070432Y-94251299D01*
X137062788Y-94244262D01*
X136893411Y-94112431D01*
X136884718Y-94106752D01*
X136695957Y-94004599D01*
X136686440Y-94000424D01*
X136483442Y-93930735D01*
X136473372Y-93928185D01*
X136411538Y-93917867D01*
X136400401Y-93918443D01*
X136398000Y-93929336D01*
X136398000Y-94979410D01*
X135890000Y-94979410D01*
X135890000Y-93929336D01*
X135887598Y-93918443D01*
X135876461Y-93917867D01*
X135814627Y-93928185D01*
X135804557Y-93930735D01*
X135601559Y-94000424D01*
X135592042Y-94004599D01*
X135403281Y-94106752D01*
X135394588Y-94112431D01*
X135225211Y-94244262D01*
X135217567Y-94251299D01*
X135072210Y-94409200D01*
X135065822Y-94417406D01*
X134948431Y-94597086D01*
X134943488Y-94606221D01*
X134857270Y-94802776D01*
X134853900Y-94812591D01*
X134810986Y-94982056D01*
X134810751Y-94993434D01*
X126135621Y-94993434D01*
X126255776Y-94909301D01*
X126405301Y-94759776D01*
X126526589Y-94586558D01*
X126615956Y-94394910D01*
X126670686Y-94190655D01*
X126689116Y-93980000D01*
X126670686Y-93769345D01*
X126615956Y-93565090D01*
X126526589Y-93373442D01*
X126405301Y-93200224D01*
X126255776Y-93050699D01*
X126132972Y-92964711D01*
X126091997Y-92916735D01*
X126079418Y-92854906D01*
X126098391Y-92794730D01*
X126144159Y-92751298D01*
X126205245Y-92735500D01*
X138278500Y-92735500D01*
X138341500Y-92752381D01*
X138387619Y-92798500D01*
X138404500Y-92861500D01*
X138404500Y-102718500D01*
X138387619Y-102781500D01*
X138341500Y-102827619D01*
X138278500Y-102844500D01*
X126204374Y-102844500D01*
X126143288Y-102828702D01*
X126097520Y-102785270D01*
X126078547Y-102725094D01*
X126091126Y-102663265D01*
X126132103Y-102615287D01*
X126250941Y-102532074D01*
X126259350Y-102525018D01*
X126401018Y-102383350D01*
X126408074Y-102374941D01*
X126523001Y-102210810D01*
X126528479Y-102201322D01*
X126613157Y-102019726D01*
X126616908Y-102009423D01*
X126654802Y-101868001D01*
X126655175Y-101856591D01*
X126644061Y-101854000D01*
X125348000Y-101854000D01*
X125285000Y-101837119D01*
X125238881Y-101791000D01*
X125222000Y-101728000D01*
X125222000Y-101329410D01*
X125730000Y-101329410D01*
X125733506Y-101342493D01*
X125746590Y-101346000D01*
X126644061Y-101346000D01*
X126655175Y-101343408D01*
X126654802Y-101331998D01*
X126616908Y-101190576D01*
X126613157Y-101180273D01*
X126528479Y-100998677D01*
X126523001Y-100989189D01*
X126408074Y-100825058D01*
X126401018Y-100816649D01*
X126259350Y-100674981D01*
X126250941Y-100667925D01*
X126086810Y-100552998D01*
X126077322Y-100547520D01*
X125895726Y-100462842D01*
X125885423Y-100459091D01*
X125744001Y-100421197D01*
X125732591Y-100420824D01*
X125730000Y-100431939D01*
X125730000Y-101329410D01*
X125222000Y-101329410D01*
X125222000Y-100431939D01*
X125219408Y-100420824D01*
X125207998Y-100421197D01*
X125066576Y-100459091D01*
X125056273Y-100462842D01*
X124874677Y-100547520D01*
X124865189Y-100552998D01*
X124701058Y-100667925D01*
X124692649Y-100674981D01*
X124550981Y-100816649D01*
X124543925Y-100825058D01*
X124428998Y-100989189D01*
X124423520Y-100998677D01*
X124338840Y-101180276D01*
X124335092Y-101190574D01*
X124327964Y-101217174D01*
X124295351Y-101273657D01*
X124238866Y-101306267D01*
X124173644Y-101306265D01*
X124117160Y-101273652D01*
X124084551Y-101217167D01*
X124077381Y-101190406D01*
X124077378Y-101190399D01*
X124075956Y-101185090D01*
X123986589Y-100993442D01*
X123917096Y-100894195D01*
X123868460Y-100824735D01*
X123868457Y-100824732D01*
X123865301Y-100820224D01*
X123715776Y-100670699D01*
X123711268Y-100667543D01*
X123711264Y-100667539D01*
X123547063Y-100552565D01*
X123547059Y-100552563D01*
X123542558Y-100549411D01*
X123537579Y-100547089D01*
X123537577Y-100547088D01*
X123355892Y-100462367D01*
X123355890Y-100462366D01*
X123350910Y-100460044D01*
X123345601Y-100458621D01*
X123345600Y-100458621D01*
X123151969Y-100406738D01*
X123151970Y-100406738D01*
X123146655Y-100405314D01*
X123141179Y-100404834D01*
X123141174Y-100404834D01*
X122941475Y-100387363D01*
X122936000Y-100386884D01*
X122930525Y-100387363D01*
X122730825Y-100404834D01*
X122730818Y-100404835D01*
X122725345Y-100405314D01*
X122720031Y-100406737D01*
X122720030Y-100406738D01*
X122526399Y-100458621D01*
X122526394Y-100458622D01*
X122521090Y-100460044D01*
X122516112Y-100462364D01*
X122516107Y-100462367D01*
X122334422Y-100547088D01*
X122334414Y-100547092D01*
X122329442Y-100549411D01*
X122324945Y-100552559D01*
X122324936Y-100552565D01*
X122160735Y-100667539D01*
X122160725Y-100667547D01*
X122156224Y-100670699D01*
X122152334Y-100674588D01*
X122152328Y-100674594D01*
X122010594Y-100816328D01*
X122010588Y-100816334D01*
X122006699Y-100820224D01*
X122003547Y-100824725D01*
X122003539Y-100824735D01*
X121888565Y-100988936D01*
X121888559Y-100988945D01*
X121885411Y-100993442D01*
X121883092Y-100998414D01*
X121883088Y-100998422D01*
X121798367Y-101180107D01*
X121798364Y-101180112D01*
X121796044Y-101185090D01*
X121794622Y-101190394D01*
X121794621Y-101190399D01*
X121757364Y-101329445D01*
X121741314Y-101389345D01*
X121740835Y-101394818D01*
X121740834Y-101394825D01*
X121731822Y-101497837D01*
X121722884Y-101600000D01*
X121723363Y-101605475D01*
X121738982Y-101784009D01*
X121741314Y-101810655D01*
X121796044Y-102014910D01*
X121885411Y-102206558D01*
X121888563Y-102211059D01*
X121888565Y-102211063D01*
X122003539Y-102375264D01*
X122003543Y-102375268D01*
X122006699Y-102379776D01*
X122156224Y-102529301D01*
X122279027Y-102615288D01*
X122320003Y-102663265D01*
X122332582Y-102725094D01*
X122313609Y-102785270D01*
X122267841Y-102828702D01*
X122206755Y-102844500D01*
X100481500Y-102844500D01*
X100418500Y-102827619D01*
X100372381Y-102781500D01*
X100355500Y-102718500D01*
X100355500Y-97790000D01*
X101396666Y-97790000D01*
X101396818Y-97793094D01*
X101409625Y-98053802D01*
X101415991Y-98183376D01*
X101416442Y-98186421D01*
X101416444Y-98186434D01*
X101449346Y-98408238D01*
X101473781Y-98572963D01*
X101474533Y-98575965D01*
X101568728Y-98952014D01*
X101568732Y-98952028D01*
X101569479Y-98955009D01*
X101570517Y-98957911D01*
X101570518Y-98957913D01*
X101701122Y-99322928D01*
X101701125Y-99322936D01*
X101702163Y-99325836D01*
X101703479Y-99328619D01*
X101703483Y-99328628D01*
X101869239Y-99679091D01*
X101870555Y-99681873D01*
X101872134Y-99684507D01*
X101872137Y-99684513D01*
X102001169Y-99899788D01*
X102073035Y-100019689D01*
X102307651Y-100336032D01*
X102572144Y-100627856D01*
X102863968Y-100892349D01*
X103180311Y-101126965D01*
X103518127Y-101329445D01*
X103874164Y-101497837D01*
X104244991Y-101630521D01*
X104627037Y-101726219D01*
X105016624Y-101784009D01*
X105410000Y-101803334D01*
X105803376Y-101784009D01*
X106192963Y-101726219D01*
X106575009Y-101630521D01*
X106945836Y-101497837D01*
X107301873Y-101329445D01*
X107639689Y-101126965D01*
X107956032Y-100892349D01*
X108247856Y-100627856D01*
X108512349Y-100336032D01*
X108746965Y-100019689D01*
X108949445Y-99681873D01*
X109117837Y-99325836D01*
X109212955Y-99060000D01*
X127712502Y-99060000D01*
X127712981Y-99065475D01*
X127731969Y-99282519D01*
X127732457Y-99288087D01*
X127791716Y-99509243D01*
X127888477Y-99716749D01*
X127891630Y-99721252D01*
X127891633Y-99721257D01*
X127930375Y-99776586D01*
X128019802Y-99904300D01*
X128181700Y-100066198D01*
X128369251Y-100197523D01*
X128576757Y-100294284D01*
X128797913Y-100353543D01*
X129026000Y-100373498D01*
X129254087Y-100353543D01*
X129475243Y-100294284D01*
X129682749Y-100197523D01*
X129755232Y-100146770D01*
X131101860Y-100146770D01*
X131109414Y-100155014D01*
X131164996Y-100193933D01*
X131174482Y-100199410D01*
X131371946Y-100291489D01*
X131382238Y-100295235D01*
X131592687Y-100351625D01*
X131603480Y-100353528D01*
X131820525Y-100372517D01*
X131831475Y-100372517D01*
X132048519Y-100353528D01*
X132059312Y-100351625D01*
X132269761Y-100295235D01*
X132280053Y-100291489D01*
X132477510Y-100199413D01*
X132487006Y-100193931D01*
X132542586Y-100155013D01*
X132550138Y-100146771D01*
X132544128Y-100137338D01*
X131837729Y-99430939D01*
X131825999Y-99424167D01*
X131814271Y-99430938D01*
X131107867Y-100137341D01*
X131101860Y-100146770D01*
X129755232Y-100146770D01*
X129870300Y-100066198D01*
X130032198Y-99904300D01*
X130163523Y-99716749D01*
X130260284Y-99509243D01*
X130304552Y-99344030D01*
X130337162Y-99287550D01*
X130393646Y-99254938D01*
X130458869Y-99254938D01*
X130515353Y-99287549D01*
X130547965Y-99344033D01*
X130590765Y-99503763D01*
X130594510Y-99514053D01*
X130686587Y-99711513D01*
X130692066Y-99721002D01*
X130730985Y-99776586D01*
X130739228Y-99784138D01*
X130748656Y-99778132D01*
X131455059Y-99071730D01*
X131461832Y-99059999D01*
X132190167Y-99059999D01*
X132196939Y-99071729D01*
X132903338Y-99778128D01*
X132912771Y-99784138D01*
X132921013Y-99776586D01*
X132959931Y-99721006D01*
X132965413Y-99711510D01*
X133057489Y-99514053D01*
X133061235Y-99503761D01*
X133117625Y-99293312D01*
X133119528Y-99282519D01*
X133138517Y-99065475D01*
X133138517Y-99054525D01*
X133119528Y-98837480D01*
X133117625Y-98826687D01*
X133061235Y-98616238D01*
X133057489Y-98605946D01*
X132965410Y-98408482D01*
X132959933Y-98398996D01*
X132921014Y-98343414D01*
X132912770Y-98335860D01*
X132903341Y-98341867D01*
X132196938Y-99048271D01*
X132190167Y-99059999D01*
X131461832Y-99059999D01*
X131455060Y-99048270D01*
X130748659Y-98341869D01*
X130739227Y-98335860D01*
X130730985Y-98343413D01*
X130692067Y-98398995D01*
X130686587Y-98408485D01*
X130594510Y-98605946D01*
X130590765Y-98616236D01*
X130547965Y-98775966D01*
X130515353Y-98832450D01*
X130458869Y-98865061D01*
X130393646Y-98865061D01*
X130337162Y-98832449D01*
X130304552Y-98775966D01*
X130260284Y-98610757D01*
X130163523Y-98403251D01*
X130032198Y-98215700D01*
X129870300Y-98053802D01*
X129768693Y-97982656D01*
X129687257Y-97925633D01*
X129687252Y-97925630D01*
X129682749Y-97922477D01*
X129677761Y-97920151D01*
X129677758Y-97920149D01*
X129643543Y-97904195D01*
X129590525Y-97857700D01*
X129570792Y-97790000D01*
X129590525Y-97722300D01*
X129643543Y-97675805D01*
X129669030Y-97663920D01*
X129682749Y-97657523D01*
X129870300Y-97526198D01*
X130032198Y-97364300D01*
X130163523Y-97176749D01*
X130260284Y-96969243D01*
X130269793Y-96933754D01*
X130298603Y-96881242D01*
X130348406Y-96847965D01*
X130407946Y-96841444D01*
X130463771Y-96863153D01*
X130503263Y-96908186D01*
X130517500Y-96966366D01*
X130517500Y-97120918D01*
X130517824Y-97124096D01*
X130517825Y-97124102D01*
X130527408Y-97217908D01*
X130527409Y-97217912D01*
X130528107Y-97224745D01*
X130530267Y-97231264D01*
X130530269Y-97231272D01*
X130568746Y-97347384D01*
X130583851Y-97392968D01*
X130587700Y-97399209D01*
X130587702Y-97399212D01*
X130673032Y-97537554D01*
X130676886Y-97543802D01*
X130802198Y-97669114D01*
X130953032Y-97762149D01*
X131030801Y-97787919D01*
X131083130Y-97821389D01*
X131113108Y-97875795D01*
X131113448Y-97937912D01*
X131108293Y-97947513D01*
X131109160Y-97947787D01*
X131101377Y-97972469D01*
X131107869Y-97982659D01*
X131814270Y-98689060D01*
X131825999Y-98695832D01*
X131837730Y-98689059D01*
X132544132Y-97982656D01*
X132550621Y-97972470D01*
X132542840Y-97947791D01*
X132543705Y-97947518D01*
X132538550Y-97937914D01*
X132538890Y-97875796D01*
X132568868Y-97821389D01*
X132617942Y-97790000D01*
X134780844Y-97790000D01*
X134781274Y-97795189D01*
X134793896Y-97947518D01*
X134799436Y-98014368D01*
X134854704Y-98232616D01*
X134856797Y-98237389D01*
X134856799Y-98237393D01*
X134902626Y-98341869D01*
X134945140Y-98438791D01*
X135068278Y-98627268D01*
X135071806Y-98631100D01*
X135211474Y-98782819D01*
X135240711Y-98836423D01*
X135241314Y-98897478D01*
X135213140Y-98951648D01*
X135162807Y-98986212D01*
X135056240Y-99025960D01*
X135056231Y-99025964D01*
X135047796Y-99029111D01*
X135040588Y-99034506D01*
X135040582Y-99034510D01*
X134937950Y-99111340D01*
X134937946Y-99111343D01*
X134930739Y-99116739D01*
X134925343Y-99123946D01*
X134925340Y-99123950D01*
X134848510Y-99226582D01*
X134848506Y-99226588D01*
X134843111Y-99233796D01*
X134839965Y-99242230D01*
X134839962Y-99242236D01*
X134794763Y-99363419D01*
X134794761Y-99363423D01*
X134792011Y-99370799D01*
X134791169Y-99378625D01*
X134791168Y-99378632D01*
X134785860Y-99428011D01*
X134785500Y-99431362D01*
X134785500Y-101228638D01*
X134785859Y-101231985D01*
X134785860Y-101231988D01*
X134791168Y-101281367D01*
X134791169Y-101281373D01*
X134792011Y-101289201D01*
X134794762Y-101296578D01*
X134794763Y-101296580D01*
X134839962Y-101417763D01*
X134839964Y-101417766D01*
X134843111Y-101426204D01*
X134848508Y-101433414D01*
X134848510Y-101433417D01*
X134895746Y-101496516D01*
X134930739Y-101543261D01*
X134937950Y-101548659D01*
X134999219Y-101594525D01*
X135047796Y-101630889D01*
X135184799Y-101681989D01*
X135245362Y-101688500D01*
X137039269Y-101688500D01*
X137042638Y-101688500D01*
X137103201Y-101681989D01*
X137240204Y-101630889D01*
X137357261Y-101543261D01*
X137444889Y-101426204D01*
X137495989Y-101289201D01*
X137502500Y-101228638D01*
X137502500Y-99431362D01*
X137495989Y-99370799D01*
X137444889Y-99233796D01*
X137357261Y-99116739D01*
X137350049Y-99111340D01*
X137247417Y-99034510D01*
X137247414Y-99034508D01*
X137240204Y-99029111D01*
X137231765Y-99025963D01*
X137231757Y-99025959D01*
X137125193Y-98986212D01*
X137074859Y-98951648D01*
X137046685Y-98897478D01*
X137047288Y-98836422D01*
X137076523Y-98782821D01*
X137219722Y-98627268D01*
X137342860Y-98438791D01*
X137433296Y-98232616D01*
X137488564Y-98014368D01*
X137507156Y-97790000D01*
X137488564Y-97565632D01*
X137433296Y-97347384D01*
X137342860Y-97141209D01*
X137219722Y-96952732D01*
X137137258Y-96863153D01*
X137070772Y-96790930D01*
X137070767Y-96790925D01*
X137067240Y-96787094D01*
X136889576Y-96648811D01*
X136885000Y-96646334D01*
X136884990Y-96646328D01*
X136855794Y-96630529D01*
X136807521Y-96584213D01*
X136789762Y-96519715D01*
X136807522Y-96455217D01*
X136855794Y-96408900D01*
X136884723Y-96393244D01*
X136893411Y-96387568D01*
X137062788Y-96255737D01*
X137070432Y-96248700D01*
X137215789Y-96090799D01*
X137222177Y-96082593D01*
X137339568Y-95902913D01*
X137344511Y-95893778D01*
X137430729Y-95697223D01*
X137434099Y-95687408D01*
X137477013Y-95517943D01*
X137477248Y-95506565D01*
X137466160Y-95504000D01*
X134821840Y-95504000D01*
X134810751Y-95506565D01*
X134810986Y-95517943D01*
X134853900Y-95687408D01*
X134857270Y-95697223D01*
X134943488Y-95893778D01*
X134948431Y-95902913D01*
X135065822Y-96082593D01*
X135072210Y-96090799D01*
X135217567Y-96248700D01*
X135225211Y-96255737D01*
X135394588Y-96387568D01*
X135403281Y-96393247D01*
X135432206Y-96408901D01*
X135480478Y-96455217D01*
X135498237Y-96519715D01*
X135480478Y-96584212D01*
X135432207Y-96630528D01*
X135420701Y-96636755D01*
X135403000Y-96646334D01*
X135402994Y-96646337D01*
X135398424Y-96648811D01*
X135394313Y-96652010D01*
X135394311Y-96652012D01*
X135224878Y-96783888D01*
X135224872Y-96783893D01*
X135220760Y-96787094D01*
X135217237Y-96790919D01*
X135217227Y-96790930D01*
X135071806Y-96948899D01*
X135071802Y-96948902D01*
X135068278Y-96952732D01*
X135065430Y-96957090D01*
X135065427Y-96957095D01*
X134947992Y-97136843D01*
X134945140Y-97141209D01*
X134943048Y-97145978D01*
X134943046Y-97145982D01*
X134856799Y-97342606D01*
X134856796Y-97342614D01*
X134854704Y-97347384D01*
X134853423Y-97352440D01*
X134853422Y-97352445D01*
X134810409Y-97522300D01*
X134799436Y-97565632D01*
X134799006Y-97570820D01*
X134799005Y-97570827D01*
X134786454Y-97722300D01*
X134780844Y-97790000D01*
X132617942Y-97790000D01*
X132621192Y-97787921D01*
X132698968Y-97762149D01*
X132849802Y-97669114D01*
X132975114Y-97543802D01*
X133068149Y-97392968D01*
X133123893Y-97224745D01*
X133134500Y-97120918D01*
X133134500Y-95919082D01*
X133123893Y-95815255D01*
X133068149Y-95647032D01*
X132975114Y-95496198D01*
X132849802Y-95370886D01*
X132843554Y-95367032D01*
X132705212Y-95281702D01*
X132705209Y-95281700D01*
X132698968Y-95277851D01*
X132692000Y-95275542D01*
X132537272Y-95224269D01*
X132537264Y-95224267D01*
X132530745Y-95222107D01*
X132523912Y-95221409D01*
X132523908Y-95221408D01*
X132430102Y-95211825D01*
X132430096Y-95211824D01*
X132426918Y-95211500D01*
X131225082Y-95211500D01*
X131221904Y-95211824D01*
X131221897Y-95211825D01*
X131128091Y-95221408D01*
X131128085Y-95221409D01*
X131121255Y-95222107D01*
X131114737Y-95224266D01*
X131114727Y-95224269D01*
X130959999Y-95275542D01*
X130959996Y-95275543D01*
X130953032Y-95277851D01*
X130946793Y-95281699D01*
X130946787Y-95281702D01*
X130808445Y-95367032D01*
X130808440Y-95367035D01*
X130802198Y-95370886D01*
X130797008Y-95376075D01*
X130797004Y-95376079D01*
X130682079Y-95491004D01*
X130682075Y-95491008D01*
X130676886Y-95496198D01*
X130673035Y-95502440D01*
X130673032Y-95502445D01*
X130587702Y-95640787D01*
X130587699Y-95640793D01*
X130583851Y-95647032D01*
X130581543Y-95653996D01*
X130581542Y-95653999D01*
X130530269Y-95808727D01*
X130530266Y-95808737D01*
X130528107Y-95815255D01*
X130527409Y-95822085D01*
X130527408Y-95822091D01*
X130517825Y-95915897D01*
X130517500Y-95919082D01*
X130517500Y-95922288D01*
X130517500Y-96073634D01*
X130503263Y-96131814D01*
X130463771Y-96176847D01*
X130407946Y-96198556D01*
X130348406Y-96192035D01*
X130298603Y-96158758D01*
X130269793Y-96106245D01*
X130263455Y-96082593D01*
X130260284Y-96070757D01*
X130163523Y-95863251D01*
X130032198Y-95675700D01*
X129870300Y-95513802D01*
X129796496Y-95462123D01*
X129687257Y-95385633D01*
X129687252Y-95385630D01*
X129682749Y-95382477D01*
X129677761Y-95380151D01*
X129480225Y-95288039D01*
X129480223Y-95288038D01*
X129475243Y-95285716D01*
X129254087Y-95226457D01*
X129248611Y-95225977D01*
X129248606Y-95225977D01*
X129031475Y-95206981D01*
X129026000Y-95206502D01*
X129020525Y-95206981D01*
X128803393Y-95225977D01*
X128803386Y-95225978D01*
X128797913Y-95226457D01*
X128792599Y-95227880D01*
X128792598Y-95227881D01*
X128582067Y-95284293D01*
X128582065Y-95284293D01*
X128576757Y-95285716D01*
X128571779Y-95288036D01*
X128571774Y-95288039D01*
X128374238Y-95380151D01*
X128374233Y-95380153D01*
X128369251Y-95382477D01*
X128364752Y-95385627D01*
X128364742Y-95385633D01*
X128186211Y-95510643D01*
X128186208Y-95510645D01*
X128181700Y-95513802D01*
X128177808Y-95517693D01*
X128177802Y-95517699D01*
X128023699Y-95671802D01*
X128023693Y-95671808D01*
X128019802Y-95675700D01*
X128016645Y-95680208D01*
X128016643Y-95680211D01*
X127891633Y-95858742D01*
X127891627Y-95858752D01*
X127888477Y-95863251D01*
X127886153Y-95868233D01*
X127886151Y-95868238D01*
X127794039Y-96065774D01*
X127794036Y-96065779D01*
X127791716Y-96070757D01*
X127790293Y-96076065D01*
X127790293Y-96076067D01*
X127786346Y-96090799D01*
X127732457Y-96291913D01*
X127731978Y-96297386D01*
X127731977Y-96297393D01*
X127723591Y-96393247D01*
X127712502Y-96520000D01*
X127712981Y-96525475D01*
X127724051Y-96652012D01*
X127732457Y-96748087D01*
X127791716Y-96969243D01*
X127794038Y-96974223D01*
X127794039Y-96974225D01*
X127874130Y-97145982D01*
X127888477Y-97176749D01*
X127891630Y-97181252D01*
X127891633Y-97181257D01*
X127968123Y-97290496D01*
X128019802Y-97364300D01*
X128181700Y-97526198D01*
X128369251Y-97657523D01*
X128382970Y-97663920D01*
X128408457Y-97675805D01*
X128461474Y-97722300D01*
X128481207Y-97790000D01*
X128461474Y-97857700D01*
X128408457Y-97904195D01*
X128374238Y-97920151D01*
X128374233Y-97920153D01*
X128369251Y-97922477D01*
X128364752Y-97925627D01*
X128364742Y-97925633D01*
X128186211Y-98050643D01*
X128186208Y-98050645D01*
X128181700Y-98053802D01*
X128177808Y-98057693D01*
X128177802Y-98057699D01*
X128023699Y-98211802D01*
X128023693Y-98211808D01*
X128019802Y-98215700D01*
X128016645Y-98220208D01*
X128016643Y-98220211D01*
X127891633Y-98398742D01*
X127891627Y-98398752D01*
X127888477Y-98403251D01*
X127886153Y-98408233D01*
X127886151Y-98408238D01*
X127794039Y-98605774D01*
X127794036Y-98605779D01*
X127791716Y-98610757D01*
X127790293Y-98616065D01*
X127790293Y-98616067D01*
X127768920Y-98695832D01*
X127732457Y-98831913D01*
X127731978Y-98837386D01*
X127731977Y-98837393D01*
X127715480Y-99025959D01*
X127712502Y-99060000D01*
X109212955Y-99060000D01*
X109250521Y-98955009D01*
X109346219Y-98572963D01*
X109404009Y-98183376D01*
X109423334Y-97790000D01*
X109404009Y-97396624D01*
X109346219Y-97007037D01*
X109250521Y-96624991D01*
X109117837Y-96254164D01*
X108949445Y-95898127D01*
X108746965Y-95560311D01*
X108512349Y-95243968D01*
X108247856Y-94952144D01*
X107956032Y-94687651D01*
X107639689Y-94453035D01*
X107533850Y-94389597D01*
X107304513Y-94252137D01*
X107304507Y-94252134D01*
X107301873Y-94250555D01*
X107299091Y-94249239D01*
X106948628Y-94083483D01*
X106948619Y-94083479D01*
X106945836Y-94082163D01*
X106942936Y-94081125D01*
X106942928Y-94081122D01*
X106577913Y-93950518D01*
X106577911Y-93950517D01*
X106575009Y-93949479D01*
X106572028Y-93948732D01*
X106572014Y-93948728D01*
X106195965Y-93854533D01*
X106192963Y-93853781D01*
X106189896Y-93853326D01*
X105806434Y-93796444D01*
X105806421Y-93796442D01*
X105803376Y-93795991D01*
X105800292Y-93795839D01*
X105800287Y-93795839D01*
X105413094Y-93776818D01*
X105410000Y-93776666D01*
X105406906Y-93776818D01*
X105019712Y-93795839D01*
X105019705Y-93795839D01*
X105016624Y-93795991D01*
X105013580Y-93796442D01*
X105013565Y-93796444D01*
X104630103Y-93853326D01*
X104630099Y-93853326D01*
X104627037Y-93853781D01*
X104624038Y-93854532D01*
X104624034Y-93854533D01*
X104247985Y-93948728D01*
X104247965Y-93948733D01*
X104244991Y-93949479D01*
X104242093Y-93950515D01*
X104242086Y-93950518D01*
X103877071Y-94081122D01*
X103877055Y-94081128D01*
X103874164Y-94082163D01*
X103871387Y-94083476D01*
X103871371Y-94083483D01*
X103520908Y-94249239D01*
X103520896Y-94249245D01*
X103518127Y-94250555D01*
X103515500Y-94252129D01*
X103515486Y-94252137D01*
X103182961Y-94451446D01*
X103182951Y-94451452D01*
X103180311Y-94453035D01*
X103177835Y-94454871D01*
X103177825Y-94454878D01*
X102866458Y-94685804D01*
X102863968Y-94687651D01*
X102861681Y-94689723D01*
X102861671Y-94689732D01*
X102574428Y-94950073D01*
X102574418Y-94950082D01*
X102572144Y-94952144D01*
X102570082Y-94954418D01*
X102570073Y-94954428D01*
X102309732Y-95241671D01*
X102309723Y-95241681D01*
X102307651Y-95243968D01*
X102305807Y-95246454D01*
X102305804Y-95246458D01*
X102074878Y-95557825D01*
X102074871Y-95557835D01*
X102073035Y-95560311D01*
X102071452Y-95562951D01*
X102071446Y-95562961D01*
X101872137Y-95895486D01*
X101872129Y-95895500D01*
X101870555Y-95898127D01*
X101869245Y-95900896D01*
X101869239Y-95900908D01*
X101703483Y-96251371D01*
X101703476Y-96251387D01*
X101702163Y-96254164D01*
X101701128Y-96257055D01*
X101701122Y-96257071D01*
X101570518Y-96622086D01*
X101569479Y-96624991D01*
X101568733Y-96627965D01*
X101568728Y-96627985D01*
X101483248Y-96969243D01*
X101473781Y-97007037D01*
X101473326Y-97010099D01*
X101473326Y-97010103D01*
X101416444Y-97393565D01*
X101416442Y-97393580D01*
X101415991Y-97396624D01*
X101415839Y-97399705D01*
X101415839Y-97399712D01*
X101407937Y-97560573D01*
X101396666Y-97790000D01*
X100355500Y-97790000D01*
X100355500Y-92861500D01*
X100372381Y-92798500D01*
X100418500Y-92752381D01*
X100481500Y-92735500D01*
X122206755Y-92735500D01*
X122267841Y-92751298D01*
G37*
%TD.AperFunction*%
%TD*%
M02*
