%TF.SameCoordinates,Original*%
%TF.FileFunction,Copper,L1,Top*%
%TF.FilePolarity,Positive*%
%FSLAX46Y46*%
G04 Gerber Fmt 4.6, Leading zero omitted, Abs format (unit mm)*
G04 Created by KiCad (PCBNEW (7.0.0)) date 2023-08-08 20:03:39*
%MOMM*%
%LPD*%
G01*
G04 APERTURE LIST*
G04 Aperture macros list*
%AMRoundRect*
0 Rectangle with rounded corners*
0 $1 Rounding radius*
0 $2 $3 $4 $5 $6 $7 $8 $9 X,Y pos of 4 corners*
0 Add a 4 corners polygon primitive as box body*
4,1,4,$2,$3,$4,$5,$6,$7,$8,$9,$2,$3,0*
0 Add four circle primitives for the rounded corners*
1,1,$1+$1,$2,$3*
1,1,$1+$1,$4,$5*
1,1,$1+$1,$6,$7*
1,1,$1+$1,$8,$9*
0 Add four rect primitives between the rounded corners*
20,1,$1+$1,$2,$3,$4,$5,0*
20,1,$1+$1,$4,$5,$6,$7,0*
20,1,$1+$1,$6,$7,$8,$9,0*
20,1,$1+$1,$8,$9,$2,$3,0*%
G04 Aperture macros list end*
%TA.AperFunction,ComponentPad*%
%ADD10C,1.400000*%
%TD*%
%TA.AperFunction,ComponentPad*%
%ADD11O,1.400000X1.400000*%
%TD*%
%TA.AperFunction,ComponentPad*%
%ADD12R,1.700000X1.700000*%
%TD*%
%TA.AperFunction,ComponentPad*%
%ADD13O,1.700000X1.700000*%
%TD*%
%TA.AperFunction,ComponentPad*%
%ADD14C,3.900000*%
%TD*%
%TA.AperFunction,ConnectorPad*%
%ADD15C,7.000000*%
%TD*%
%TA.AperFunction,ComponentPad*%
%ADD16RoundRect,0.249600X0.550400X0.550400X-0.550400X0.550400X-0.550400X-0.550400X0.550400X-0.550400X0*%
%TD*%
%TA.AperFunction,ComponentPad*%
%ADD17C,1.600000*%
%TD*%
%TA.AperFunction,Conductor*%
%ADD18C,0.250000*%
%TD*%
G04 APERTURE END LIST*
D10*
%TO.P,r2,1*%
%TO.N,Net-(J0-Pad2)*%
X125476000Y-93980000D03*
D11*
%TO.P,r2,2*%
%TO.N,GND*%
X125475999Y-101599999D03*
%TD*%
D12*
%TO.P,J0,1,Pin_1*%
%TO.N,Net-(J0-Pad1)*%
X136143999Y-100329999D03*
D13*
%TO.P,J0,2,Pin_2*%
%TO.N,Net-(J0-Pad2)*%
X136143999Y-97789999D03*
%TO.P,J0,3,Pin_3*%
%TO.N,GND*%
X136143999Y-95249999D03*
%TD*%
D14*
%TO.P,H0,1*%
%TO.N,N/C*%
X105410000Y-97790000D03*
D15*
X105410000Y-97790000D03*
%TD*%
D10*
%TO.P,r1,1*%
%TO.N,Net-(J0-Pad1)*%
X122936000Y-101600000D03*
D11*
%TO.P,r1,2*%
%TO.N,Net-(R1-Pad2)*%
X122935999Y-93979999D03*
%TD*%
D16*
%TO.P,U1,1,A*%
%TO.N,Net-(R1-Pad2)*%
X131826000Y-96520000D03*
D17*
%TO.P,U1,2,K*%
%TO.N,GND*%
X131826000Y-99060000D03*
%TO.P,U1,3,C*%
%TO.N,Net-(J0-Pad1)*%
X129026000Y-99060000D03*
%TO.P,U1,4,E*%
%TO.N,Net-(J0-Pad2)*%
X129026000Y-96520000D03*
%TD*%
D18*
%TO.N,Net-(R1-Pad2)*%
X122936000Y-93980000D02*
X126746000Y-97790000D01*
X126746000Y-97790000D02*
X130556000Y-97790000D01*
X130556000Y-97790000D02*
X131826000Y-96520000D01*
%TO.N,Net-(J0-Pad2)*%
X132334000Y-93980000D02*
X130048000Y-93980000D01*
X129026000Y-95002000D02*
X129026000Y-96520000D01*
X136144000Y-97790000D02*
X132334000Y-93980000D01*
X129032000Y-94996000D02*
X128016000Y-93980000D01*
X129032000Y-94996000D02*
X129026000Y-95002000D01*
X128016000Y-93980000D02*
X125476000Y-93980000D01*
X130048000Y-93980000D02*
X129032000Y-94996000D01*
%TO.N,Net-(J0-Pad1)*%
X125476000Y-99060000D02*
X122936000Y-101600000D01*
X134620000Y-101854000D02*
X129794000Y-101854000D01*
X129794000Y-101854000D02*
X129026000Y-101086000D01*
X136144000Y-100330000D02*
X134620000Y-101854000D01*
X129026000Y-101086000D02*
X129026000Y-99060000D01*
X129026000Y-99060000D02*
X125476000Y-99060000D01*
%TD*%
M02*
